%FSLAX25Y25*%
%MOIN*%
G70*
G01*
G75*
G04 Layer_Color=65535*
%ADD10R,0.03937X0.03543*%
%ADD11R,0.07087X0.05118*%
%ADD12R,0.05118X0.07087*%
%ADD13R,0.12598X0.05906*%
%ADD14R,0.03543X0.03937*%
%ADD15O,0.01181X0.07480*%
%ADD16O,0.07480X0.01181*%
%ADD17R,0.03543X0.03150*%
%ADD18R,0.02200X0.07800*%
%ADD19R,0.01400X0.06600*%
%ADD20O,0.02400X0.08000*%
%ADD21R,0.02200X0.05000*%
%ADD22R,0.05118X0.08661*%
%ADD23R,0.01400X0.07100*%
%ADD24O,0.07874X0.01969*%
%ADD25O,0.10000X0.01181*%
%ADD26O,0.01181X0.10000*%
%ADD27R,0.05118X0.09449*%
%ADD28R,0.09449X0.05118*%
%ADD29R,0.09800X0.03700*%
%ADD30R,0.25700X0.26400*%
%ADD31R,0.01181X0.04724*%
%ADD32O,0.01181X0.04724*%
%ADD33R,0.05906X0.09055*%
%ADD34R,0.09055X0.09055*%
%ADD35R,0.05906X0.05118*%
%ADD36R,0.03150X0.03543*%
%ADD37R,0.08661X0.05512*%
%ADD38R,0.03543X0.05512*%
%ADD39R,0.05512X0.03543*%
%ADD40R,0.05512X0.08661*%
%ADD41C,0.00800*%
%ADD42C,0.03000*%
%ADD43C,0.05000*%
%ADD44C,0.10000*%
%ADD45C,0.01000*%
%ADD46C,0.01500*%
%ADD47C,0.07000*%
%ADD48C,0.08000*%
%ADD49C,0.05906*%
%ADD50R,0.05906X0.05906*%
%ADD51C,0.07000*%
%ADD52C,0.05000*%
%ADD53R,0.05000X0.05000*%
%ADD54C,0.06000*%
%ADD55R,0.06000X0.06000*%
%ADD56R,0.09843X0.09843*%
%ADD57C,0.07874*%
%ADD58O,0.05945X0.05906*%
%ADD59R,0.08000X0.08000*%
%ADD60R,0.05000X0.05000*%
%ADD61R,0.05906X0.05906*%
%ADD62C,0.11000*%
%ADD63C,0.05500*%
%ADD64C,0.06500*%
%ADD65C,0.14000*%
%ADD66C,0.02500*%
%ADD67C,0.03000*%
%ADD68C,0.02000*%
%ADD69C,0.00600*%
%ADD70C,0.00984*%
%ADD71C,0.00787*%
G36*
X751352Y106100D02*
X749852D01*
Y107100D01*
X751352D01*
Y106100D01*
D02*
G37*
G36*
X246000Y263400D02*
X244500D01*
Y264400D01*
X246000D01*
Y263400D01*
D02*
G37*
G36*
X223500Y293600D02*
X222000D01*
Y294600D01*
X223500D01*
Y293600D01*
D02*
G37*
D41*
X616584Y369437D02*
G03*
X605439Y368756I-6484J14563D01*
G01*
X630228Y264362D02*
G03*
X633228Y264362I1500J0D01*
G01*
X711228D02*
G03*
X714228Y264362I1500J0D01*
G01*
X779000Y426000D02*
X844000D01*
X774000Y486000D02*
X844000D01*
X774000Y431000D02*
Y486000D01*
X844000Y426000D02*
Y486000D01*
X774000Y431000D02*
X779000Y426000D01*
X609800Y381500D02*
X610400D01*
X608800Y383500D02*
X611300D01*
X607900Y384100D02*
X612600D01*
X605400Y384700D02*
X614900D01*
X609900Y375400D02*
X611200D01*
X609700Y385500D02*
Y387100D01*
X610500Y391000D02*
Y392800D01*
X610400Y381500D02*
Y382800D01*
X609800Y381500D02*
Y383100D01*
X610400Y372600D02*
Y375400D01*
X610700Y372700D02*
Y375400D01*
X612400Y391500D02*
X612900Y389800D01*
X611600Y392900D02*
X612400Y391500D01*
X610200Y385100D02*
X612300Y386700D01*
X613000Y387800D01*
X612900Y389800D02*
X613000Y387800D01*
X611500Y393400D02*
X611900Y391400D01*
X611600Y389900D02*
X611900Y391400D01*
X611200Y388700D02*
X611600Y389900D01*
X610200Y386400D02*
X611200Y388700D01*
X610100Y385500D02*
X610200Y386400D01*
X609700Y387100D02*
X610500Y391000D01*
X609700Y394400D02*
X610500Y392800D01*
X609600Y393800D02*
X609700Y394700D01*
X609300Y392200D02*
X609600Y393800D01*
X608000Y389500D02*
X609300Y392200D01*
X608500Y393300D02*
X608700Y392100D01*
X606800Y390500D02*
X608500Y393300D01*
X606500Y389500D02*
X606800Y390500D01*
X606500Y389500D02*
X606600Y388100D01*
X607100Y387300D01*
X610000Y385100D01*
X605400Y384700D02*
X610100Y382900D01*
X610200D02*
X614900Y384700D01*
X633228Y264362D02*
X651488D01*
X612118D02*
X630228D01*
X612118Y162000D02*
Y264362D01*
X651488Y162000D02*
Y264362D01*
X612118Y162000D02*
X651488D01*
X100000Y283000D02*
Y341000D01*
X158000Y283000D02*
Y341000D01*
X100000Y283000D02*
X158000D01*
X100000Y341000D02*
X158000D01*
X714228Y264362D02*
X732488D01*
X693118D02*
X711228D01*
X693118Y162000D02*
Y264362D01*
X732488Y162000D02*
Y264362D01*
X693118Y162000D02*
X732488D01*
X539700Y429899D02*
Y425400D01*
X542699D01*
X546448Y429899D02*
X544948D01*
X544199Y429149D01*
Y426150D01*
X544948Y425400D01*
X546448D01*
X547198Y426150D01*
Y429149D01*
X546448Y429899D01*
X529200Y429799D02*
Y425300D01*
Y427549D01*
X532199D01*
Y429799D01*
Y425300D01*
X533699Y429799D02*
X535198D01*
X534448D01*
Y425300D01*
X533699D01*
X535198D01*
X192400Y466849D02*
X195399D01*
X196899Y464600D02*
X198398D01*
X197648D01*
Y469099D01*
X196899Y468349D01*
X203646Y464600D02*
X200647D01*
X203646Y467599D01*
Y468349D01*
X202897Y469099D01*
X201397D01*
X200647Y468349D01*
X205146Y469099D02*
Y466100D01*
X206645Y464600D01*
X208145Y466100D01*
Y469099D01*
X520700Y145500D02*
Y149999D01*
X522949D01*
X523699Y149249D01*
Y147749D01*
X522949Y147000D01*
X520700D01*
X522199D02*
X523699Y145500D01*
X525199Y149999D02*
X528198D01*
Y149249D01*
X525199Y146250D01*
Y145500D01*
X532696Y149999D02*
X531197Y149249D01*
X529697Y147749D01*
Y146250D01*
X530447Y145500D01*
X531946D01*
X532696Y146250D01*
Y147000D01*
X531946Y147749D01*
X529697D01*
X178899Y436849D02*
X178149Y437599D01*
X176650D01*
X175900Y436849D01*
Y433850D01*
X176650Y433100D01*
X178149D01*
X178899Y433850D01*
X180399D02*
X181148Y433100D01*
X182648D01*
X183398Y433850D01*
Y436849D01*
X182648Y437599D01*
X181148D01*
X180399Y436849D01*
Y436099D01*
X181148Y435349D01*
X183398D01*
X184897Y436849D02*
X185647Y437599D01*
X187146D01*
X187896Y436849D01*
Y436099D01*
X187146Y435349D01*
X187896Y434599D01*
Y433850D01*
X187146Y433100D01*
X185647D01*
X184897Y433850D01*
Y434599D01*
X185647Y435349D01*
X184897Y436099D01*
Y436849D01*
X185647Y435349D02*
X187146D01*
X195899Y426749D02*
X195149Y427498D01*
X193650D01*
X192900Y426749D01*
Y423750D01*
X193650Y423000D01*
X195149D01*
X195899Y423750D01*
X197399D02*
X198148Y423000D01*
X199648D01*
X200398Y423750D01*
Y426749D01*
X199648Y427498D01*
X198148D01*
X197399Y426749D01*
Y425999D01*
X198148Y425249D01*
X200398D01*
X201897Y423750D02*
X202647Y423000D01*
X204146D01*
X204896Y423750D01*
Y426749D01*
X204146Y427498D01*
X202647D01*
X201897Y426749D01*
Y425999D01*
X202647Y425249D01*
X204896D01*
X107600Y360200D02*
Y364699D01*
X109849D01*
X110599Y363949D01*
Y362449D01*
X109849Y361700D01*
X107600D01*
X115098Y360200D02*
X112099D01*
X115098Y363199D01*
Y363949D01*
X114348Y364699D01*
X112848D01*
X112099Y363949D01*
X622100Y125000D02*
Y129499D01*
X624349D01*
X625099Y128749D01*
Y127249D01*
X624349Y126499D01*
X622100D01*
X623599D02*
X625099Y125000D01*
X626599Y128749D02*
X627348Y129499D01*
X628848D01*
X629598Y128749D01*
Y127999D01*
X628848Y127249D01*
X628098D01*
X628848D01*
X629598Y126499D01*
Y125750D01*
X628848Y125000D01*
X627348D01*
X626599Y125750D01*
X634096Y129499D02*
X631097D01*
Y127249D01*
X632597Y127999D01*
X633346D01*
X634096Y127249D01*
Y125750D01*
X633346Y125000D01*
X631847D01*
X631097Y125750D01*
X467800Y188699D02*
Y184950D01*
X468550Y184200D01*
X470049D01*
X470799Y184950D01*
Y188699D01*
X472298Y184200D02*
X473798D01*
X473048D01*
Y188699D01*
X472298Y187949D01*
X167899Y405349D02*
X167149Y406099D01*
X165650D01*
X164900Y405349D01*
Y402350D01*
X165650Y401600D01*
X167149D01*
X167899Y402350D01*
X172398Y406099D02*
X170898Y405349D01*
X169399Y403849D01*
Y402350D01*
X170148Y401600D01*
X171648D01*
X172398Y402350D01*
Y403099D01*
X171648Y403849D01*
X169399D01*
X173897Y405349D02*
X174647Y406099D01*
X176146D01*
X176896Y405349D01*
Y404599D01*
X176146Y403849D01*
X175397D01*
X176146D01*
X176896Y403099D01*
Y402350D01*
X176146Y401600D01*
X174647D01*
X173897Y402350D01*
X626500Y213598D02*
Y209850D01*
X627250Y209100D01*
X628749D01*
X629499Y209850D01*
Y213598D01*
X633998Y209100D02*
X630999D01*
X633998Y212099D01*
Y212849D01*
X633248Y213598D01*
X631748D01*
X630999Y212849D01*
X635497Y209100D02*
X636997D01*
X636247D01*
Y213598D01*
X635497Y212849D01*
X557000Y399500D02*
Y403999D01*
X558499Y402499D01*
X559999Y403999D01*
Y399500D01*
X564498Y403249D02*
X563748Y403999D01*
X562248D01*
X561498Y403249D01*
Y402499D01*
X562248Y401749D01*
X563748D01*
X564498Y400999D01*
Y400250D01*
X563748Y399500D01*
X562248D01*
X561498Y400250D01*
X568996Y403999D02*
X565997D01*
Y399500D01*
X568996D01*
X565997Y401749D02*
X567497D01*
X570496Y403999D02*
Y399500D01*
X573495D01*
X574994Y403249D02*
X575744Y403999D01*
X577244D01*
X577993Y403249D01*
Y400250D01*
X577244Y399500D01*
X575744D01*
X574994Y400250D01*
Y403249D01*
X557000Y384000D02*
Y388498D01*
X558499Y386999D01*
X559999Y388498D01*
Y384000D01*
X564498Y387749D02*
X563748Y388498D01*
X562248D01*
X561498Y387749D01*
Y386999D01*
X562248Y386249D01*
X563748D01*
X564498Y385500D01*
Y384750D01*
X563748Y384000D01*
X562248D01*
X561498Y384750D01*
X568996Y388498D02*
X565997D01*
Y384000D01*
X568996D01*
X565997Y386249D02*
X567497D01*
X570496Y388498D02*
Y384000D01*
X573495D01*
X574994D02*
X576494D01*
X575744D01*
Y388498D01*
X574994Y387749D01*
X557000Y415000D02*
Y419498D01*
X558499Y417999D01*
X559999Y419498D01*
Y415000D01*
X564498Y418749D02*
X563748Y419498D01*
X562248D01*
X561498Y418749D01*
Y417999D01*
X562248Y417249D01*
X563748D01*
X564498Y416500D01*
Y415750D01*
X563748Y415000D01*
X562248D01*
X561498Y415750D01*
X568996Y419498D02*
X565997D01*
Y415000D01*
X568996D01*
X565997Y417249D02*
X567497D01*
X570496Y419498D02*
Y415000D01*
X573495D01*
X577993D02*
X574994D01*
X577993Y417999D01*
Y418749D01*
X577244Y419498D01*
X575744D01*
X574994Y418749D01*
X524000Y160199D02*
Y156450D01*
X524750Y155700D01*
X526249D01*
X526999Y156450D01*
Y160199D01*
X528499Y155700D02*
X529998D01*
X529248D01*
Y160199D01*
X528499Y159449D01*
X532247Y156450D02*
X532997Y155700D01*
X534497D01*
X535246Y156450D01*
Y159449D01*
X534497Y160199D01*
X532997D01*
X532247Y159449D01*
Y158699D01*
X532997Y157949D01*
X535246D01*
X541900Y112200D02*
Y116699D01*
X544149D01*
X544899Y115949D01*
Y114449D01*
X544149Y113699D01*
X541900D01*
X543399D02*
X544899Y112200D01*
X549398Y116699D02*
X547898Y115949D01*
X546398Y114449D01*
Y112950D01*
X547148Y112200D01*
X548648D01*
X549398Y112950D01*
Y113699D01*
X548648Y114449D01*
X546398D01*
X550897Y115949D02*
X551647Y116699D01*
X553146D01*
X553896Y115949D01*
Y112950D01*
X553146Y112200D01*
X551647D01*
X550897Y112950D01*
Y115949D01*
X520700Y128400D02*
Y132899D01*
X522949D01*
X523699Y132149D01*
Y130649D01*
X522949Y129900D01*
X520700D01*
X522199D02*
X523699Y128400D01*
X528198Y132899D02*
X525199D01*
Y130649D01*
X526698Y131399D01*
X527448D01*
X528198Y130649D01*
Y129150D01*
X527448Y128400D01*
X525948D01*
X525199Y129150D01*
X529697D02*
X530447Y128400D01*
X531946D01*
X532696Y129150D01*
Y132149D01*
X531946Y132899D01*
X530447D01*
X529697Y132149D01*
Y131399D01*
X530447Y130649D01*
X532696D01*
X556100Y107100D02*
Y111599D01*
X558349D01*
X559099Y110849D01*
Y109349D01*
X558349Y108599D01*
X556100D01*
X557599D02*
X559099Y107100D01*
X563598Y111599D02*
X560599D01*
Y109349D01*
X562098Y110099D01*
X562848D01*
X563598Y109349D01*
Y107850D01*
X562848Y107100D01*
X561348D01*
X560599Y107850D01*
X565097Y110849D02*
X565847Y111599D01*
X567346D01*
X568096Y110849D01*
Y110099D01*
X567346Y109349D01*
X568096Y108599D01*
Y107850D01*
X567346Y107100D01*
X565847D01*
X565097Y107850D01*
Y108599D01*
X565847Y109349D01*
X565097Y110099D01*
Y110849D01*
X565847Y109349D02*
X567346D01*
X595200Y126499D02*
Y122000D01*
X598199D01*
X599698D02*
X601198D01*
X600448D01*
Y126499D01*
X599698Y125749D01*
X583900Y145599D02*
Y141100D01*
X586149D01*
X586899Y141850D01*
Y144849D01*
X586149Y145599D01*
X583900D01*
X588399Y144849D02*
X589148Y145599D01*
X590648D01*
X591398Y144849D01*
Y144099D01*
X590648Y143349D01*
X589898D01*
X590648D01*
X591398Y142599D01*
Y141850D01*
X590648Y141100D01*
X589148D01*
X588399Y141850D01*
X561499Y157849D02*
X560749Y158599D01*
X559250D01*
X558500Y157849D01*
Y154850D01*
X559250Y154100D01*
X560749D01*
X561499Y154850D01*
X562998Y158599D02*
X565998D01*
Y157849D01*
X562998Y154850D01*
Y154100D01*
X567497Y157849D02*
X568247Y158599D01*
X569746D01*
X570496Y157849D01*
Y154850D01*
X569746Y154100D01*
X568247D01*
X567497Y154850D01*
Y157849D01*
X545899Y160149D02*
X545149Y160899D01*
X543650D01*
X542900Y160149D01*
Y157150D01*
X543650Y156400D01*
X545149D01*
X545899Y157150D01*
X550398Y160899D02*
X548898Y160149D01*
X547399Y158649D01*
Y157150D01*
X548148Y156400D01*
X549648D01*
X550398Y157150D01*
Y157899D01*
X549648Y158649D01*
X547399D01*
X551897Y157150D02*
X552647Y156400D01*
X554146D01*
X554896Y157150D01*
Y160149D01*
X554146Y160899D01*
X552647D01*
X551897Y160149D01*
Y159399D01*
X552647Y158649D01*
X554896D01*
X573799Y118349D02*
X573049Y119099D01*
X571550D01*
X570800Y118349D01*
Y115350D01*
X571550Y114600D01*
X573049D01*
X573799Y115350D01*
X578298Y119099D02*
X576798Y118349D01*
X575299Y116849D01*
Y115350D01*
X576048Y114600D01*
X577548D01*
X578298Y115350D01*
Y116100D01*
X577548Y116849D01*
X575299D01*
X579797Y118349D02*
X580547Y119099D01*
X582046D01*
X582796Y118349D01*
Y117599D01*
X582046Y116849D01*
X582796Y116100D01*
Y115350D01*
X582046Y114600D01*
X580547D01*
X579797Y115350D01*
Y116100D01*
X580547Y116849D01*
X579797Y117599D01*
Y118349D01*
X580547Y116849D02*
X582046D01*
X176199Y327199D02*
X174699D01*
X175449D01*
Y323450D01*
X174699Y322700D01*
X173950D01*
X173200Y323450D01*
X177699Y322700D02*
Y327199D01*
X179948D01*
X180698Y326449D01*
Y324949D01*
X179948Y324200D01*
X177699D01*
X182197Y322700D02*
X183697D01*
X182947D01*
Y327199D01*
X182197Y326449D01*
X165300Y319400D02*
Y323899D01*
X167549D01*
X168299Y323149D01*
Y321649D01*
X167549Y320900D01*
X165300D01*
X169799Y319400D02*
X171298D01*
X170548D01*
Y323899D01*
X169799Y323149D01*
X140699Y201499D02*
X139199D01*
X139949D01*
Y197750D01*
X139199Y197000D01*
X138450D01*
X137700Y197750D01*
X142199Y201499D02*
X145198D01*
X143698D01*
Y197000D01*
X146697D02*
Y199999D01*
X148197Y201499D01*
X149696Y199999D01*
Y197000D01*
Y199249D01*
X146697D01*
X154195Y200749D02*
X153445Y201499D01*
X151945D01*
X151196Y200749D01*
Y197750D01*
X151945Y197000D01*
X153445D01*
X154195Y197750D01*
Y199249D01*
X152695D01*
X139799Y262799D02*
X138300D01*
X139049D01*
Y259050D01*
X138300Y258300D01*
X137550D01*
X136800Y259050D01*
X141299Y258300D02*
X142798D01*
X142048D01*
Y262799D01*
X141299Y262049D01*
X502699Y112699D02*
X501199D01*
X501949D01*
Y108950D01*
X501199Y108200D01*
X500450D01*
X499700Y108950D01*
X504199Y111949D02*
X504948Y112699D01*
X506448D01*
X507198Y111949D01*
Y111199D01*
X506448Y110449D01*
X505698D01*
X506448D01*
X507198Y109699D01*
Y108950D01*
X506448Y108200D01*
X504948D01*
X504199Y108950D01*
X376899Y493198D02*
X375399D01*
X376149D01*
Y489450D01*
X375399Y488700D01*
X374650D01*
X373900Y489450D01*
X381398Y488700D02*
X378398D01*
X381398Y491699D01*
Y492449D01*
X380648Y493198D01*
X379148D01*
X378398Y492449D01*
X340500Y316200D02*
Y320698D01*
X342749D01*
X343499Y319949D01*
Y318449D01*
X342749Y317700D01*
X340500D01*
X342000D02*
X343499Y316200D01*
X344999D02*
X346498D01*
X345748D01*
Y320698D01*
X344999Y319949D01*
X348747D02*
X349497Y320698D01*
X350997D01*
X351746Y319949D01*
Y316950D01*
X350997Y316200D01*
X349497D01*
X348747Y316950D01*
Y319949D01*
X314200Y326000D02*
Y330499D01*
X316449D01*
X317199Y329749D01*
Y328249D01*
X316449Y327500D01*
X314200D01*
X315700D02*
X317199Y326000D01*
X318699D02*
X320198D01*
X319448D01*
Y330499D01*
X318699Y329749D01*
X322447Y330499D02*
X325446D01*
Y329749D01*
X322447Y326750D01*
Y326000D01*
X343499Y475349D02*
X342749Y476098D01*
X341250D01*
X340500Y475349D01*
Y474599D01*
X341250Y473849D01*
X342749D01*
X343499Y473100D01*
Y472350D01*
X342749Y471600D01*
X341250D01*
X340500Y472350D01*
X344999Y471600D02*
X346498D01*
X345748D01*
Y476098D01*
X344999Y475349D01*
X364600Y362298D02*
Y358550D01*
X365350Y357800D01*
X366849D01*
X367599Y358550D01*
Y362298D01*
X372098Y357800D02*
X369098D01*
X372098Y360799D01*
Y361549D01*
X371348Y362298D01*
X369848D01*
X369098Y361549D01*
X289600Y232499D02*
Y228750D01*
X290350Y228000D01*
X291849D01*
X292599Y228750D01*
Y232499D01*
X294098Y231749D02*
X294848Y232499D01*
X296348D01*
X297098Y231749D01*
Y230999D01*
X296348Y230249D01*
X295598D01*
X296348D01*
X297098Y229500D01*
Y228750D01*
X296348Y228000D01*
X294848D01*
X294098Y228750D01*
X321400Y311399D02*
Y307650D01*
X322150Y306900D01*
X323649D01*
X324399Y307650D01*
Y311399D01*
X328148Y306900D02*
Y311399D01*
X325899Y309149D01*
X328898D01*
X299700Y357898D02*
Y354150D01*
X300450Y353400D01*
X301949D01*
X302699Y354150D01*
Y357898D01*
X307198D02*
X304199D01*
Y355649D01*
X305698Y356399D01*
X306448D01*
X307198Y355649D01*
Y354150D01*
X306448Y353400D01*
X304948D01*
X304199Y354150D01*
X549400Y266898D02*
Y263150D01*
X550150Y262400D01*
X551649D01*
X552399Y263150D01*
Y266898D01*
X556898D02*
X555398Y266149D01*
X553898Y264649D01*
Y263150D01*
X554648Y262400D01*
X556148D01*
X556898Y263150D01*
Y263899D01*
X556148Y264649D01*
X553898D01*
X386900Y188799D02*
Y185050D01*
X387650Y184300D01*
X389149D01*
X389899Y185050D01*
Y188799D01*
X391399D02*
X394398D01*
Y188049D01*
X391399Y185050D01*
Y184300D01*
X469800Y405698D02*
Y401950D01*
X470550Y401200D01*
X472049D01*
X472799Y401950D01*
Y405698D01*
X474298Y404949D02*
X475048Y405698D01*
X476548D01*
X477298Y404949D01*
Y404199D01*
X476548Y403449D01*
X477298Y402700D01*
Y401950D01*
X476548Y401200D01*
X475048D01*
X474298Y401950D01*
Y402700D01*
X475048Y403449D01*
X474298Y404199D01*
Y404949D01*
X475048Y403449D02*
X476548D01*
X549200Y334499D02*
Y330750D01*
X549950Y330000D01*
X551449D01*
X552199Y330750D01*
Y334499D01*
X553698Y330750D02*
X554448Y330000D01*
X555948D01*
X556698Y330750D01*
Y333749D01*
X555948Y334499D01*
X554448D01*
X553698Y333749D01*
Y332999D01*
X554448Y332249D01*
X556698D01*
X380400Y404699D02*
Y400950D01*
X381150Y400200D01*
X382649D01*
X383399Y400950D01*
Y404699D01*
X384898Y400200D02*
X386398D01*
X385648D01*
Y404699D01*
X384898Y403949D01*
X388647D02*
X389397Y404699D01*
X390897D01*
X391646Y403949D01*
Y400950D01*
X390897Y400200D01*
X389397D01*
X388647Y400950D01*
Y403949D01*
X803400Y458599D02*
Y454850D01*
X804150Y454100D01*
X805649D01*
X806399Y454850D01*
Y458599D01*
X807899Y454100D02*
X809398D01*
X808648D01*
Y458599D01*
X807899Y457849D01*
X813897Y454100D02*
Y458599D01*
X811647Y456349D01*
X814646D01*
X675900Y395498D02*
Y391750D01*
X676650Y391000D01*
X678149D01*
X678899Y391750D01*
Y395498D01*
X680399Y391000D02*
X681898D01*
X681148D01*
Y395498D01*
X680399Y394749D01*
X687146Y395498D02*
X684147D01*
Y393249D01*
X685647Y393999D01*
X686397D01*
X687146Y393249D01*
Y391750D01*
X686397Y391000D01*
X684897D01*
X684147Y391750D01*
X331100Y343398D02*
Y338900D01*
X332599Y340400D01*
X334099Y338900D01*
Y343398D01*
X335598Y338900D02*
X337098D01*
X336348D01*
Y343398D01*
X335598Y342649D01*
X283900Y310498D02*
X286899Y306000D01*
Y310498D02*
X283900Y306000D01*
X288399D02*
X289898D01*
X289148D01*
Y310498D01*
X288399Y309749D01*
X205999Y269749D02*
X205249Y270498D01*
X203750D01*
X203000Y269749D01*
Y266750D01*
X203750Y266000D01*
X205249D01*
X205999Y266750D01*
X210498Y270498D02*
X207499D01*
Y268249D01*
X208998Y268999D01*
X209748D01*
X210498Y268249D01*
Y266750D01*
X209748Y266000D01*
X208248D01*
X207499Y266750D01*
X211997Y270498D02*
X214996D01*
Y269749D01*
X211997Y266750D01*
Y266000D01*
X226499Y302649D02*
X225749Y303398D01*
X224250D01*
X223500Y302649D01*
Y299650D01*
X224250Y298900D01*
X225749D01*
X226499Y299650D01*
X230998Y303398D02*
X227998D01*
Y301149D01*
X229498Y301899D01*
X230248D01*
X230998Y301149D01*
Y299650D01*
X230248Y298900D01*
X228748D01*
X227998Y299650D01*
X232497D02*
X233247Y298900D01*
X234746D01*
X235496Y299650D01*
Y302649D01*
X234746Y303398D01*
X233247D01*
X232497Y302649D01*
Y301899D01*
X233247Y301149D01*
X235496D01*
X784799Y141649D02*
X784049Y142399D01*
X782550D01*
X781800Y141649D01*
Y138650D01*
X782550Y137900D01*
X784049D01*
X784799Y138650D01*
X789298Y142399D02*
X787798Y141649D01*
X786299Y140149D01*
Y138650D01*
X787048Y137900D01*
X788548D01*
X789298Y138650D01*
Y139400D01*
X788548Y140149D01*
X786299D01*
X793796Y142399D02*
X792297Y141649D01*
X790797Y140149D01*
Y138650D01*
X791547Y137900D01*
X793046D01*
X793796Y138650D01*
Y139400D01*
X793046Y140149D01*
X790797D01*
X770399Y141749D02*
X769649Y142499D01*
X768150D01*
X767400Y141749D01*
Y138750D01*
X768150Y138000D01*
X769649D01*
X770399Y138750D01*
X774898Y142499D02*
X773398Y141749D01*
X771899Y140249D01*
Y138750D01*
X772648Y138000D01*
X774148D01*
X774898Y138750D01*
Y139499D01*
X774148Y140249D01*
X771899D01*
X776397Y142499D02*
X779396D01*
Y141749D01*
X776397Y138750D01*
Y138000D01*
X163400Y343599D02*
Y339100D01*
X165649D01*
X166399Y339850D01*
Y342849D01*
X165649Y343599D01*
X163400D01*
X167899Y339100D02*
X169398D01*
X168648D01*
Y343599D01*
X167899Y342849D01*
X166100Y286598D02*
Y282100D01*
X168349D01*
X169099Y282850D01*
Y285849D01*
X168349Y286598D01*
X166100D01*
X173598Y282100D02*
X170599D01*
X173598Y285099D01*
Y285849D01*
X172848Y286598D01*
X171348D01*
X170599Y285849D01*
X127299Y314999D02*
X125800D01*
X126549D01*
Y311250D01*
X125800Y310500D01*
X125050D01*
X124300Y311250D01*
X131798Y314999D02*
X128799D01*
Y312749D01*
X130298Y313499D01*
X131048D01*
X131798Y312749D01*
Y311250D01*
X131048Y310500D01*
X129548D01*
X128799Y311250D01*
X190600Y346500D02*
Y350998D01*
X192849D01*
X193599Y350249D01*
Y348749D01*
X192849Y348000D01*
X190600D01*
X192099D02*
X193599Y346500D01*
X195099Y350249D02*
X195848Y350998D01*
X197348D01*
X198098Y350249D01*
Y349499D01*
X197348Y348749D01*
X196598D01*
X197348D01*
X198098Y348000D01*
Y347250D01*
X197348Y346500D01*
X195848D01*
X195099Y347250D01*
X199597D02*
X200347Y346500D01*
X201846D01*
X202596Y347250D01*
Y350249D01*
X201846Y350998D01*
X200347D01*
X199597Y350249D01*
Y349499D01*
X200347Y348749D01*
X202596D01*
X190800Y336300D02*
Y340798D01*
X193049D01*
X193799Y340049D01*
Y338549D01*
X193049Y337800D01*
X190800D01*
X192299D02*
X193799Y336300D01*
X197548D02*
Y340798D01*
X195299Y338549D01*
X198298D01*
X199797Y340049D02*
X200547Y340798D01*
X202046D01*
X202796Y340049D01*
Y337050D01*
X202046Y336300D01*
X200547D01*
X199797Y337050D01*
Y340049D01*
X233000Y318100D02*
Y322599D01*
X235249D01*
X235999Y321849D01*
Y320349D01*
X235249Y319600D01*
X233000D01*
X234500D02*
X235999Y318100D01*
X239748D02*
Y322599D01*
X237498Y320349D01*
X240498D01*
X241997Y318100D02*
X243497D01*
X242747D01*
Y322599D01*
X241997Y321849D01*
X232600Y310000D02*
Y314498D01*
X234849D01*
X235599Y313749D01*
Y312249D01*
X234849Y311500D01*
X232600D01*
X234100D02*
X235599Y310000D01*
X239348D02*
Y314498D01*
X237099Y312249D01*
X240098D01*
X244596Y310000D02*
X241597D01*
X244596Y312999D01*
Y313749D01*
X243846Y314498D01*
X242347D01*
X241597Y313749D01*
X168900Y358300D02*
Y362799D01*
X171149D01*
X171899Y362049D01*
Y360549D01*
X171149Y359800D01*
X168900D01*
X170399D02*
X171899Y358300D01*
X175648D02*
Y362799D01*
X173399Y360549D01*
X176398D01*
X177897Y362049D02*
X178647Y362799D01*
X180146D01*
X180896Y362049D01*
Y361299D01*
X180146Y360549D01*
X179397D01*
X180146D01*
X180896Y359800D01*
Y359050D01*
X180146Y358300D01*
X178647D01*
X177897Y359050D01*
X785900Y125400D02*
Y129899D01*
X788149D01*
X788899Y129149D01*
Y127649D01*
X788149Y126900D01*
X785900D01*
X787399D02*
X788899Y125400D01*
X792648D02*
Y129899D01*
X790399Y127649D01*
X793398D01*
X797896Y129899D02*
X796397Y129149D01*
X794897Y127649D01*
Y126150D01*
X795647Y125400D01*
X797146D01*
X797896Y126150D01*
Y126900D01*
X797146Y127649D01*
X794897D01*
X793800Y104600D02*
Y109099D01*
X796049D01*
X796799Y108349D01*
Y106849D01*
X796049Y106099D01*
X793800D01*
X795299D02*
X796799Y104600D01*
X800548D02*
Y109099D01*
X798299Y106849D01*
X801298D01*
X802797Y109099D02*
X805796D01*
Y108349D01*
X802797Y105350D01*
Y104600D01*
X801000Y125100D02*
Y129599D01*
X803249D01*
X803999Y128849D01*
Y127349D01*
X803249Y126600D01*
X801000D01*
X802499D02*
X803999Y125100D01*
X807748D02*
Y129599D01*
X805499Y127349D01*
X808498D01*
X809997Y128849D02*
X810747Y129599D01*
X812246D01*
X812996Y128849D01*
Y128099D01*
X812246Y127349D01*
X812996Y126600D01*
Y125850D01*
X812246Y125100D01*
X810747D01*
X809997Y125850D01*
Y126600D01*
X810747Y127349D01*
X809997Y128099D01*
Y128849D01*
X810747Y127349D02*
X812246D01*
X809100Y104600D02*
Y109099D01*
X811349D01*
X812099Y108349D01*
Y106849D01*
X811349Y106099D01*
X809100D01*
X810600D02*
X812099Y104600D01*
X815848D02*
Y109099D01*
X813599Y106849D01*
X816598D01*
X818097Y105350D02*
X818847Y104600D01*
X820346D01*
X821096Y105350D01*
Y108349D01*
X820346Y109099D01*
X818847D01*
X818097Y108349D01*
Y107599D01*
X818847Y106849D01*
X821096D01*
X768000Y104800D02*
Y109299D01*
X770249D01*
X770999Y108549D01*
Y107049D01*
X770249Y106299D01*
X768000D01*
X769499D02*
X770999Y104800D01*
X775498Y109299D02*
X772499D01*
Y107049D01*
X773998Y107799D01*
X774748D01*
X775498Y107049D01*
Y105550D01*
X774748Y104800D01*
X773248D01*
X772499Y105550D01*
X776997Y108549D02*
X777747Y109299D01*
X779246D01*
X779996Y108549D01*
Y105550D01*
X779246Y104800D01*
X777747D01*
X776997Y105550D01*
Y108549D01*
X781700Y104600D02*
Y109099D01*
X783949D01*
X784699Y108349D01*
Y106849D01*
X783949Y106099D01*
X781700D01*
X783200D02*
X784699Y104600D01*
X789198Y109099D02*
X786199D01*
Y106849D01*
X787698Y107599D01*
X788448D01*
X789198Y106849D01*
Y105350D01*
X788448Y104600D01*
X786948D01*
X786199Y105350D01*
X790697Y104600D02*
X792197D01*
X791447D01*
Y109099D01*
X790697Y108349D01*
X230399Y153849D02*
X229649Y154599D01*
X228150D01*
X227400Y153849D01*
Y153099D01*
X228150Y152349D01*
X229649D01*
X230399Y151600D01*
Y150850D01*
X229649Y150100D01*
X228150D01*
X227400Y150850D01*
X231898Y154599D02*
Y150100D01*
X233398Y151600D01*
X234898Y150100D01*
Y154599D01*
X239396Y150100D02*
X236397D01*
X239396Y153099D01*
Y153849D01*
X238646Y154599D01*
X237147D01*
X236397Y153849D01*
X228800Y279298D02*
Y275550D01*
X229550Y274800D01*
X231049D01*
X231799Y275550D01*
Y279298D01*
X233298Y274800D02*
X234798D01*
X234048D01*
Y279298D01*
X233298Y278549D01*
X240046Y279298D02*
X238547Y278549D01*
X237047Y277049D01*
Y275550D01*
X237797Y274800D01*
X239297D01*
X240046Y275550D01*
Y276300D01*
X239297Y277049D01*
X237047D01*
X224900Y342299D02*
Y338550D01*
X225650Y337800D01*
X227149D01*
X227899Y338550D01*
Y342299D01*
X229398Y337800D02*
X230898D01*
X230148D01*
Y342299D01*
X229398Y341549D01*
X233147Y342299D02*
X236146D01*
Y341549D01*
X233147Y338550D01*
Y337800D01*
X750900Y124699D02*
Y120950D01*
X751650Y120200D01*
X753149D01*
X753899Y120950D01*
Y124699D01*
X755399Y120200D02*
X756898D01*
X756148D01*
Y124699D01*
X755399Y123949D01*
X759147D02*
X759897Y124699D01*
X761397D01*
X762146Y123949D01*
Y123199D01*
X761397Y122449D01*
X762146Y121700D01*
Y120950D01*
X761397Y120200D01*
X759897D01*
X759147Y120950D01*
Y121700D01*
X759897Y122449D01*
X759147Y123199D01*
Y123949D01*
X759897Y122449D02*
X761397D01*
X196499Y438649D02*
X195749Y439398D01*
X194250D01*
X193500Y438649D01*
Y435650D01*
X194250Y434900D01*
X195749D01*
X196499Y435650D01*
X197999Y434900D02*
X199498D01*
X198748D01*
Y439398D01*
X197999Y438649D01*
X289899Y446049D02*
X289149Y446799D01*
X287650D01*
X286900Y446049D01*
Y443050D01*
X287650Y442300D01*
X289149D01*
X289899Y443050D01*
X294398Y442300D02*
X291399D01*
X294398Y445299D01*
Y446049D01*
X293648Y446799D01*
X292148D01*
X291399Y446049D01*
X298146Y442300D02*
Y446799D01*
X295897Y444549D01*
X298896D01*
X298799Y438249D02*
X298049Y438999D01*
X296550D01*
X295800Y438249D01*
Y435250D01*
X296550Y434500D01*
X298049D01*
X298799Y435250D01*
X303298Y434500D02*
X300299D01*
X303298Y437499D01*
Y438249D01*
X302548Y438999D01*
X301048D01*
X300299Y438249D01*
X307796Y438999D02*
X304797D01*
Y436749D01*
X306297Y437499D01*
X307046D01*
X307796Y436749D01*
Y435250D01*
X307046Y434500D01*
X305547D01*
X304797Y435250D01*
X298299Y382849D02*
X297549Y383598D01*
X296050D01*
X295300Y382849D01*
Y379850D01*
X296050Y379100D01*
X297549D01*
X298299Y379850D01*
X302798Y383598D02*
X299798D01*
Y381349D01*
X301298Y382099D01*
X302048D01*
X302798Y381349D01*
Y379850D01*
X302048Y379100D01*
X300548D01*
X299798Y379850D01*
X306546Y379100D02*
Y383598D01*
X304297Y381349D01*
X307296D01*
X131099Y458099D02*
X129599D01*
X130349D01*
Y454350D01*
X129599Y453600D01*
X128850D01*
X128100Y454350D01*
X134848Y453600D02*
Y458099D01*
X132599Y455849D01*
X135598D01*
X229000Y479899D02*
Y476150D01*
X229750Y475400D01*
X231249D01*
X231999Y476150D01*
Y479899D01*
X233499Y475400D02*
X234998D01*
X234248D01*
Y479899D01*
X233499Y479149D01*
X237247Y475400D02*
X238747D01*
X237997D01*
Y479899D01*
X237247Y479149D01*
X228700Y447098D02*
Y443350D01*
X229450Y442600D01*
X230949D01*
X231699Y443350D01*
Y447098D01*
X233198Y442600D02*
X234698D01*
X233948D01*
Y447098D01*
X233198Y446349D01*
X239946Y442600D02*
X236947D01*
X239946Y445599D01*
Y446349D01*
X239197Y447098D01*
X237697D01*
X236947Y446349D01*
X228400Y409999D02*
Y406250D01*
X229150Y405500D01*
X230649D01*
X231399Y406250D01*
Y409999D01*
X232898Y405500D02*
X234398D01*
X233648D01*
Y409999D01*
X232898Y409249D01*
X236647D02*
X237397Y409999D01*
X238897D01*
X239646Y409249D01*
Y408499D01*
X238897Y407749D01*
X238147D01*
X238897D01*
X239646Y406999D01*
Y406250D01*
X238897Y405500D01*
X237397D01*
X236647Y406250D01*
X245399Y348049D02*
X244649Y348798D01*
X243150D01*
X242400Y348049D01*
Y345050D01*
X243150Y344300D01*
X244649D01*
X245399Y345050D01*
X249898Y348798D02*
X248398Y348049D01*
X246899Y346549D01*
Y345050D01*
X247648Y344300D01*
X249148D01*
X249898Y345050D01*
Y345799D01*
X249148Y346549D01*
X246899D01*
X253646Y344300D02*
Y348798D01*
X251397Y346549D01*
X254396D01*
X167699Y378449D02*
X166949Y379199D01*
X165450D01*
X164700Y378449D01*
Y375450D01*
X165450Y374700D01*
X166949D01*
X167699Y375450D01*
X172198Y379199D02*
X170698Y378449D01*
X169199Y376949D01*
Y375450D01*
X169948Y374700D01*
X171448D01*
X172198Y375450D01*
Y376200D01*
X171448Y376949D01*
X169199D01*
X176696Y379199D02*
X173697D01*
Y376949D01*
X175197Y377699D01*
X175946D01*
X176696Y376949D01*
Y375450D01*
X175946Y374700D01*
X174447D01*
X173697Y375450D01*
X145099Y153849D02*
X144349Y154599D01*
X142850D01*
X142100Y153849D01*
Y153099D01*
X142850Y152349D01*
X144349D01*
X145099Y151600D01*
Y150850D01*
X144349Y150100D01*
X142850D01*
X142100Y150850D01*
X146599Y154599D02*
Y150100D01*
X148098Y151600D01*
X149598Y150100D01*
Y154599D01*
X151097Y150100D02*
X152597D01*
X151847D01*
Y154599D01*
X151097Y153849D01*
X641199Y128399D02*
X639700D01*
X640449D01*
Y124650D01*
X639700Y123900D01*
X638950D01*
X638200Y124650D01*
X645698Y128399D02*
X644198Y127649D01*
X642698Y126149D01*
Y124650D01*
X643448Y123900D01*
X644948D01*
X645698Y124650D01*
Y125399D01*
X644948Y126149D01*
X642698D01*
X706200Y211799D02*
Y208050D01*
X706950Y207300D01*
X708449D01*
X709199Y208050D01*
Y211799D01*
X713698Y207300D02*
X710699D01*
X713698Y210299D01*
Y211049D01*
X712948Y211799D01*
X711448D01*
X710699Y211049D01*
X715197D02*
X715947Y211799D01*
X717446D01*
X718196Y211049D01*
Y208050D01*
X717446Y207300D01*
X715947D01*
X715197Y208050D01*
Y211049D01*
X210299Y333198D02*
X208800D01*
X209549D01*
Y329450D01*
X208800Y328700D01*
X208050D01*
X207300Y329450D01*
X211799Y328700D02*
Y333198D01*
X214048D01*
X214798Y332449D01*
Y330949D01*
X214048Y330200D01*
X211799D01*
X219296Y333198D02*
X216297D01*
Y330949D01*
X217797Y331699D01*
X218546D01*
X219296Y330949D01*
Y329450D01*
X218546Y328700D01*
X217047D01*
X216297Y329450D01*
X326700Y372600D02*
X328200D01*
X327450D01*
Y377098D01*
X326700Y376349D01*
X330449Y372600D02*
Y373350D01*
X331199D01*
Y372600D01*
X330449D01*
X337197D02*
X334198D01*
X337197Y375599D01*
Y376349D01*
X336447Y377098D01*
X334947D01*
X334198Y376349D01*
X341695Y377098D02*
X338696D01*
Y374849D01*
X340196Y375599D01*
X340945D01*
X341695Y374849D01*
Y373350D01*
X340945Y372600D01*
X339446D01*
X338696Y373350D01*
X343195Y377098D02*
Y374099D01*
X344694Y372600D01*
X346194Y374099D01*
Y377098D01*
X344099Y382000D02*
X341100D01*
X344099Y384999D01*
Y385749D01*
X343349Y386498D01*
X341850D01*
X341100Y385749D01*
X345599Y382000D02*
Y382750D01*
X346348D01*
Y382000D01*
X345599D01*
X352346Y386498D02*
X349347D01*
Y384249D01*
X350847Y384999D01*
X351597D01*
X352346Y384249D01*
Y382750D01*
X351597Y382000D01*
X350097D01*
X349347Y382750D01*
X353846Y386498D02*
Y383500D01*
X355345Y382000D01*
X356845Y383500D01*
Y386498D01*
X327600Y401949D02*
X328350Y402699D01*
X329849D01*
X330599Y401949D01*
Y401199D01*
X329849Y400449D01*
X329099D01*
X329849D01*
X330599Y399699D01*
Y398950D01*
X329849Y398200D01*
X328350D01*
X327600Y398950D01*
X332099Y398200D02*
Y398950D01*
X332848D01*
Y398200D01*
X332099D01*
X335847Y401949D02*
X336597Y402699D01*
X338097D01*
X338846Y401949D01*
Y401199D01*
X338097Y400449D01*
X337347D01*
X338097D01*
X338846Y399699D01*
Y398950D01*
X338097Y398200D01*
X336597D01*
X335847Y398950D01*
X340346Y402699D02*
Y399699D01*
X341845Y398200D01*
X343345Y399699D01*
Y402699D01*
X172900Y466649D02*
X175899D01*
X174399Y468149D02*
Y465150D01*
X177399Y464400D02*
X178898D01*
X178148D01*
Y468898D01*
X177399Y468149D01*
X184146Y464400D02*
X181147D01*
X184146Y467399D01*
Y468149D01*
X183397Y468898D01*
X181897D01*
X181147Y468149D01*
X185646Y468898D02*
Y465900D01*
X187145Y464400D01*
X188645Y465900D01*
Y468898D01*
X192099Y497249D02*
X191349Y497999D01*
X189850D01*
X189100Y497249D01*
Y494250D01*
X189850Y493500D01*
X191349D01*
X192099Y494250D01*
Y495749D01*
X190600D01*
X193599Y493500D02*
Y497999D01*
X196598Y493500D01*
Y497999D01*
X198097D02*
Y493500D01*
X200346D01*
X201096Y494250D01*
Y497249D01*
X200346Y497999D01*
X198097D01*
X174100Y495649D02*
X177099D01*
X175600Y497149D02*
Y494150D01*
X181598Y497898D02*
X178599D01*
Y495649D01*
X180098Y496399D01*
X180848D01*
X181598Y495649D01*
Y494150D01*
X180848Y493400D01*
X179348D01*
X178599Y494150D01*
X183097Y497898D02*
Y494900D01*
X184597Y493400D01*
X186096Y494900D01*
Y497898D01*
X193000Y291000D02*
Y293999D01*
X194500Y295498D01*
X195999Y293999D01*
Y291000D01*
Y293249D01*
X193000D01*
X197499Y295498D02*
Y291000D01*
X199748D01*
X200498Y291750D01*
Y294749D01*
X199748Y295498D01*
X197499D01*
X204996Y294749D02*
X204246Y295498D01*
X202747D01*
X201997Y294749D01*
Y291750D01*
X202747Y291000D01*
X204246D01*
X204996Y291750D01*
X198499Y333298D02*
X195500D01*
Y331049D01*
X197000D01*
X195500D01*
Y328800D01*
X202998Y333298D02*
X199999D01*
Y328800D01*
X202998D01*
X199999Y331049D02*
X201498D01*
X502051Y131600D02*
Y134599D01*
X500551Y133099D02*
X503550D01*
X499801Y139098D02*
Y136099D01*
X502051D01*
X501301Y137598D01*
Y138348D01*
X502051Y139098D01*
X503550D01*
X504300Y138348D01*
Y136848D01*
X503550Y136099D01*
X499801Y140597D02*
X502801D01*
X504300Y142097D01*
X502801Y143596D01*
X499801D01*
X492051Y131600D02*
Y134599D01*
X490551Y133099D02*
X493550D01*
X490551Y136099D02*
X489802Y136848D01*
Y138348D01*
X490551Y139098D01*
X491301D01*
X492051Y138348D01*
Y137598D01*
Y138348D01*
X492801Y139098D01*
X493550D01*
X494300Y138348D01*
Y136848D01*
X493550Y136099D01*
X494300Y140597D02*
X493550D01*
Y141347D01*
X494300D01*
Y140597D01*
X490551Y144346D02*
X489802Y145096D01*
Y146595D01*
X490551Y147345D01*
X491301D01*
X492051Y146595D01*
Y145845D01*
Y146595D01*
X492801Y147345D01*
X493550D01*
X494300Y146595D01*
Y145096D01*
X493550Y144346D01*
X489802Y148844D02*
X492801D01*
X494300Y150344D01*
X492801Y151844D01*
X489802D01*
X480751Y134599D02*
X480001Y133849D01*
Y132350D01*
X480751Y131600D01*
X483750D01*
X484500Y132350D01*
Y133849D01*
X483750Y134599D01*
X482251D01*
Y133099D01*
X484500Y136099D02*
X480001D01*
X484500Y139098D01*
X480001D01*
Y140597D02*
X484500D01*
Y142846D01*
X483750Y143596D01*
X480751D01*
X480001Y142846D01*
Y140597D01*
X470551Y134599D02*
X469802Y133849D01*
Y132350D01*
X470551Y131600D01*
X473550D01*
X474300Y132350D01*
Y133849D01*
X473550Y134599D01*
X472051D01*
Y133099D01*
X474300Y136099D02*
X469802D01*
X474300Y139098D01*
X469802D01*
Y140597D02*
X474300D01*
Y142846D01*
X473550Y143596D01*
X470551D01*
X469802Y142846D01*
Y140597D01*
X464300Y131600D02*
X461301D01*
Y133849D01*
X462051Y134599D01*
X464300D01*
X460551Y139098D02*
X459801Y138348D01*
Y136848D01*
X460551Y136099D01*
X463550D01*
X464300Y136848D01*
Y138348D01*
X463550Y139098D01*
X459801Y143596D02*
Y140597D01*
X464300D01*
Y143596D01*
X462051Y140597D02*
Y142097D01*
X459801Y147345D02*
Y145845D01*
X460551Y145096D01*
X463550D01*
X464300Y145845D01*
Y147345D01*
X463550Y148095D01*
X460551D01*
X459801Y147345D01*
X449801Y131600D02*
X454300D01*
Y133849D01*
X453550Y134599D01*
X450551D01*
X449801Y133849D01*
Y131600D01*
Y139098D02*
Y136099D01*
X454300D01*
Y139098D01*
X452051Y136099D02*
Y137598D01*
X449801Y140597D02*
X452801D01*
X454300Y142097D01*
X452801Y143596D01*
X449801D01*
X455050Y145096D02*
Y148095D01*
X450551Y152593D02*
X449801Y151844D01*
Y150344D01*
X450551Y149594D01*
X453550D01*
X454300Y150344D01*
Y151844D01*
X453550Y152593D01*
X449801Y154093D02*
X454300D01*
Y157092D01*
Y158591D02*
X449801D01*
Y160841D01*
X450551Y161590D01*
X452051D01*
X452801Y160841D01*
Y158591D01*
Y160091D02*
X454300Y161590D01*
X439702Y132100D02*
X444200D01*
Y134349D01*
X443450Y135099D01*
X440451D01*
X439702Y134349D01*
Y132100D01*
Y139598D02*
Y136599D01*
X444200D01*
Y139598D01*
X441951Y136599D02*
Y138098D01*
X439702Y141097D02*
X442700D01*
X444200Y142597D01*
X442700Y144096D01*
X439702D01*
X444950Y145596D02*
Y148595D01*
X439702Y152343D02*
Y150844D01*
X440451Y150094D01*
X443450D01*
X444200Y150844D01*
Y152343D01*
X443450Y153093D01*
X440451D01*
X439702Y152343D01*
Y157592D02*
Y154593D01*
X444200D01*
Y157592D01*
X441951Y154593D02*
Y156092D01*
X429802Y132100D02*
Y133599D01*
Y132850D01*
X434300D01*
Y132100D01*
Y133599D01*
X429802Y138098D02*
Y136599D01*
X430551Y135849D01*
X433550D01*
X434300Y136599D01*
Y138098D01*
X433550Y138848D01*
X430551D01*
X429802Y138098D01*
X430551Y140347D02*
X429802Y141097D01*
Y142597D01*
X430551Y143346D01*
X431301D01*
X432051Y142597D01*
X432800Y143346D01*
X433550D01*
X434300Y142597D01*
Y141097D01*
X433550Y140347D01*
X432800D01*
X432051Y141097D01*
X431301Y140347D01*
X430551D01*
X432051Y141097D02*
Y142597D01*
X434300Y144846D02*
Y146345D01*
Y145596D01*
X429802D01*
X430551Y144846D01*
X419701Y132100D02*
Y133599D01*
Y132850D01*
X424200D01*
Y132100D01*
Y133599D01*
X419701Y138098D02*
Y136599D01*
X420451Y135849D01*
X423450D01*
X424200Y136599D01*
Y138098D01*
X423450Y138848D01*
X420451D01*
X419701Y138098D01*
X420451Y140347D02*
X419701Y141097D01*
Y142597D01*
X420451Y143346D01*
X421201D01*
X421951Y142597D01*
X422701Y143346D01*
X423450D01*
X424200Y142597D01*
Y141097D01*
X423450Y140347D01*
X422701D01*
X421951Y141097D01*
X421201Y140347D01*
X420451D01*
X421951Y141097D02*
Y142597D01*
X420451Y144846D02*
X419701Y145596D01*
Y147095D01*
X420451Y147845D01*
X423450D01*
X424200Y147095D01*
Y145596D01*
X423450Y144846D01*
X420451D01*
X409701Y132100D02*
Y133599D01*
Y132850D01*
X414200D01*
Y132100D01*
Y133599D01*
X409701Y138098D02*
Y136599D01*
X410451Y135849D01*
X413450D01*
X414200Y136599D01*
Y138098D01*
X413450Y138848D01*
X410451D01*
X409701Y138098D01*
Y140347D02*
Y143346D01*
X410451D01*
X413450Y140347D01*
X414200D01*
X410451Y144846D02*
X409701Y145596D01*
Y147095D01*
X410451Y147845D01*
X411201D01*
X411951Y147095D01*
X412701Y147845D01*
X413450D01*
X414200Y147095D01*
Y145596D01*
X413450Y144846D01*
X412701D01*
X411951Y145596D01*
X411201Y144846D01*
X410451D01*
X411951Y145596D02*
Y147095D01*
X399602Y132100D02*
Y133599D01*
Y132850D01*
X404100D01*
Y132100D01*
Y133599D01*
X399602Y138098D02*
Y136599D01*
X400351Y135849D01*
X403350D01*
X404100Y136599D01*
Y138098D01*
X403350Y138848D01*
X400351D01*
X399602Y138098D01*
Y140347D02*
Y143346D01*
X400351D01*
X403350Y140347D01*
X404100D01*
X399602Y147845D02*
X400351Y146345D01*
X401851Y144846D01*
X403350D01*
X404100Y145596D01*
Y147095D01*
X403350Y147845D01*
X402600D01*
X401851Y147095D01*
Y144846D01*
X390002Y132100D02*
Y133599D01*
Y132850D01*
X394500D01*
Y132100D01*
Y133599D01*
X390002Y138098D02*
Y136599D01*
X390751Y135849D01*
X393750D01*
X394500Y136599D01*
Y138098D01*
X393750Y138848D01*
X390751D01*
X390002Y138098D01*
Y140347D02*
Y143346D01*
X390751D01*
X393750Y140347D01*
X394500D01*
X390751Y144846D02*
X390002Y145596D01*
Y147095D01*
X390751Y147845D01*
X391501D01*
X392251Y147095D01*
Y146345D01*
Y147095D01*
X393001Y147845D01*
X393750D01*
X394500Y147095D01*
Y145596D01*
X393750Y144846D01*
X379701Y132100D02*
Y133599D01*
Y132850D01*
X384200D01*
Y132100D01*
Y133599D01*
X379701Y138098D02*
Y136599D01*
X380451Y135849D01*
X383450D01*
X384200Y136599D01*
Y138098D01*
X383450Y138848D01*
X380451D01*
X379701Y138098D01*
Y140347D02*
Y143346D01*
X380451D01*
X383450Y140347D01*
X384200D01*
Y144846D02*
Y146345D01*
Y145596D01*
X379701D01*
X380451Y144846D01*
X370551Y135099D02*
X369801Y134349D01*
Y132850D01*
X370551Y132100D01*
X373550D01*
X374300Y132850D01*
Y134349D01*
X373550Y135099D01*
X372051D01*
Y133599D01*
X374300Y136599D02*
X369801D01*
X374300Y139598D01*
X369801D01*
Y141097D02*
X374300D01*
Y143346D01*
X373550Y144096D01*
X370551D01*
X369801Y143346D01*
Y141097D01*
X359701Y132100D02*
Y133599D01*
Y132850D01*
X364200D01*
Y132100D01*
Y133599D01*
X359701Y138098D02*
Y136599D01*
X360451Y135849D01*
X363450D01*
X364200Y136599D01*
Y138098D01*
X363450Y138848D01*
X360451D01*
X359701Y138098D01*
Y143346D02*
Y140347D01*
X361951D01*
X361201Y141847D01*
Y142597D01*
X361951Y143346D01*
X363450D01*
X364200Y142597D01*
Y141097D01*
X363450Y140347D01*
X364200Y147845D02*
Y144846D01*
X361201Y147845D01*
X360451D01*
X359701Y147095D01*
Y145596D01*
X360451Y144846D01*
X349701Y132100D02*
Y133599D01*
Y132850D01*
X354200D01*
Y132100D01*
Y133599D01*
X349701Y138098D02*
Y136599D01*
X350451Y135849D01*
X353450D01*
X354200Y136599D01*
Y138098D01*
X353450Y138848D01*
X350451D01*
X349701Y138098D01*
Y143346D02*
Y140347D01*
X351951D01*
X351201Y141847D01*
Y142597D01*
X351951Y143346D01*
X353450D01*
X354200Y142597D01*
Y141097D01*
X353450Y140347D01*
X354200Y144846D02*
Y146345D01*
Y145596D01*
X349701D01*
X350451Y144846D01*
X339901Y132100D02*
Y133599D01*
Y132850D01*
X344400D01*
Y132100D01*
Y133599D01*
X339901Y138098D02*
Y136599D01*
X340651Y135849D01*
X343650D01*
X344400Y136599D01*
Y138098D01*
X343650Y138848D01*
X340651D01*
X339901Y138098D01*
Y143346D02*
Y140347D01*
X342151D01*
X341401Y141847D01*
Y142597D01*
X342151Y143346D01*
X343650D01*
X344400Y142597D01*
Y141097D01*
X343650Y140347D01*
X340651Y144846D02*
X339901Y145596D01*
Y147095D01*
X340651Y147845D01*
X343650D01*
X344400Y147095D01*
Y145596D01*
X343650Y144846D01*
X340651D01*
X330001Y132100D02*
Y133599D01*
Y132850D01*
X334500D01*
Y132100D01*
Y133599D01*
X330001Y138098D02*
Y136599D01*
X330751Y135849D01*
X333750D01*
X334500Y136599D01*
Y138098D01*
X333750Y138848D01*
X330751D01*
X330001Y138098D01*
X334500Y142597D02*
X330001D01*
X332251Y140347D01*
Y143346D01*
X333750Y144846D02*
X334500Y145596D01*
Y147095D01*
X333750Y147845D01*
X330751D01*
X330001Y147095D01*
Y145596D01*
X330751Y144846D01*
X331501D01*
X332251Y145596D01*
Y147845D01*
X319901Y132100D02*
Y133599D01*
Y132850D01*
X324400D01*
Y132100D01*
Y133599D01*
X319901Y138098D02*
Y136599D01*
X320651Y135849D01*
X323650D01*
X324400Y136599D01*
Y138098D01*
X323650Y138848D01*
X320651D01*
X319901Y138098D01*
X324400Y142597D02*
X319901D01*
X322151Y140347D01*
Y143346D01*
X319901Y147845D02*
X320651Y146345D01*
X322151Y144846D01*
X323650D01*
X324400Y145596D01*
Y147095D01*
X323650Y147845D01*
X322901D01*
X322151Y147095D01*
Y144846D01*
X309802Y132100D02*
Y133599D01*
Y132850D01*
X314300D01*
Y132100D01*
Y133599D01*
X309802Y138098D02*
Y136599D01*
X310551Y135849D01*
X313550D01*
X314300Y136599D01*
Y138098D01*
X313550Y138848D01*
X310551D01*
X309802Y138098D01*
X314300Y142597D02*
X309802D01*
X312051Y140347D01*
Y143346D01*
X309802Y147845D02*
Y144846D01*
X312051D01*
X311301Y146345D01*
Y147095D01*
X312051Y147845D01*
X313550D01*
X314300Y147095D01*
Y145596D01*
X313550Y144846D01*
X299602Y132100D02*
Y133599D01*
Y132850D01*
X304100D01*
Y132100D01*
Y133599D01*
X299602Y138098D02*
Y136599D01*
X300351Y135849D01*
X303350D01*
X304100Y136599D01*
Y138098D01*
X303350Y138848D01*
X300351D01*
X299602Y138098D01*
X304100Y142597D02*
X299602D01*
X301851Y140347D01*
Y143346D01*
X304100Y147095D02*
X299602D01*
X301851Y144846D01*
Y147845D01*
X289802Y132100D02*
Y133599D01*
Y132850D01*
X294300D01*
Y132100D01*
Y133599D01*
X289802Y138098D02*
Y136599D01*
X290551Y135849D01*
X293550D01*
X294300Y136599D01*
Y138098D01*
X293550Y138848D01*
X290551D01*
X289802Y138098D01*
X294300Y142597D02*
X289802D01*
X292051Y140347D01*
Y143346D01*
X290551Y144846D02*
X289802Y145596D01*
Y147095D01*
X290551Y147845D01*
X291301D01*
X292051Y147095D01*
Y146345D01*
Y147095D01*
X292800Y147845D01*
X293550D01*
X294300Y147095D01*
Y145596D01*
X293550Y144846D01*
X376602Y458700D02*
Y460199D01*
Y459450D01*
X381100D01*
Y458700D01*
Y460199D01*
X376602Y464698D02*
Y463199D01*
X377351Y462449D01*
X380350D01*
X381100Y463199D01*
Y464698D01*
X380350Y465448D01*
X377351D01*
X376602Y464698D01*
X381100Y469197D02*
X376602D01*
X378851Y466947D01*
Y469946D01*
X386601Y449900D02*
Y451400D01*
Y450650D01*
X391100D01*
Y449900D01*
Y451400D01*
X386601Y455898D02*
Y454398D01*
X387351Y453649D01*
X390350D01*
X391100Y454398D01*
Y455898D01*
X390350Y456648D01*
X387351D01*
X386601Y455898D01*
X391100Y461146D02*
Y458147D01*
X388101Y461146D01*
X387351D01*
X386601Y460397D01*
Y458897D01*
X387351Y458147D01*
X391100Y464895D02*
X386601D01*
X388851Y462646D01*
Y465645D01*
X387351Y467144D02*
X386601Y467894D01*
Y469394D01*
X387351Y470144D01*
X390350D01*
X391100Y469394D01*
Y467894D01*
X390350Y467144D01*
X387351D01*
X397101Y449900D02*
Y451400D01*
Y450650D01*
X401600D01*
Y449900D01*
Y451400D01*
X397101Y455898D02*
Y454398D01*
X397851Y453649D01*
X400850D01*
X401600Y454398D01*
Y455898D01*
X400850Y456648D01*
X397851D01*
X397101Y455898D01*
X401600Y461146D02*
Y458147D01*
X398601Y461146D01*
X397851D01*
X397101Y460397D01*
Y458897D01*
X397851Y458147D01*
Y462646D02*
X397101Y463396D01*
Y464895D01*
X397851Y465645D01*
X398601D01*
X399351Y464895D01*
Y464145D01*
Y464895D01*
X400101Y465645D01*
X400850D01*
X401600Y464895D01*
Y463396D01*
X400850Y462646D01*
Y467144D02*
X401600Y467894D01*
Y469394D01*
X400850Y470144D01*
X397851D01*
X397101Y469394D01*
Y467894D01*
X397851Y467144D01*
X398601D01*
X399351Y467894D01*
Y470144D01*
X406802Y449900D02*
Y451400D01*
Y450650D01*
X411300D01*
Y449900D01*
Y451400D01*
X406802Y455898D02*
Y454398D01*
X407551Y453649D01*
X410550D01*
X411300Y454398D01*
Y455898D01*
X410550Y456648D01*
X407551D01*
X406802Y455898D01*
X411300Y461146D02*
Y458147D01*
X408301Y461146D01*
X407551D01*
X406802Y460397D01*
Y458897D01*
X407551Y458147D01*
Y462646D02*
X406802Y463396D01*
Y464895D01*
X407551Y465645D01*
X408301D01*
X409051Y464895D01*
Y464145D01*
Y464895D01*
X409800Y465645D01*
X410550D01*
X411300Y464895D01*
Y463396D01*
X410550Y462646D01*
X407551Y467144D02*
X406802Y467894D01*
Y469394D01*
X407551Y470144D01*
X408301D01*
X409051Y469394D01*
X409800Y470144D01*
X410550D01*
X411300Y469394D01*
Y467894D01*
X410550Y467144D01*
X409800D01*
X409051Y467894D01*
X408301Y467144D01*
X407551D01*
X409051Y467894D02*
Y469394D01*
X417001Y449900D02*
Y451400D01*
Y450650D01*
X421500D01*
Y449900D01*
Y451400D01*
X417001Y455898D02*
Y454398D01*
X417751Y453649D01*
X420750D01*
X421500Y454398D01*
Y455898D01*
X420750Y456648D01*
X417751D01*
X417001Y455898D01*
X421500Y461146D02*
Y458147D01*
X418501Y461146D01*
X417751D01*
X417001Y460397D01*
Y458897D01*
X417751Y458147D01*
Y462646D02*
X417001Y463396D01*
Y464895D01*
X417751Y465645D01*
X418501D01*
X419251Y464895D01*
Y464145D01*
Y464895D01*
X420001Y465645D01*
X420750D01*
X421500Y464895D01*
Y463396D01*
X420750Y462646D01*
X417001Y467144D02*
Y470144D01*
X417751D01*
X420750Y467144D01*
X421500D01*
X426701Y449900D02*
Y451400D01*
Y450650D01*
X431200D01*
Y449900D01*
Y451400D01*
X426701Y455898D02*
Y454398D01*
X427451Y453649D01*
X430450D01*
X431200Y454398D01*
Y455898D01*
X430450Y456648D01*
X427451D01*
X426701Y455898D01*
X431200Y461146D02*
Y458147D01*
X428201Y461146D01*
X427451D01*
X426701Y460397D01*
Y458897D01*
X427451Y458147D01*
Y462646D02*
X426701Y463396D01*
Y464895D01*
X427451Y465645D01*
X428201D01*
X428951Y464895D01*
Y464145D01*
Y464895D01*
X429701Y465645D01*
X430450D01*
X431200Y464895D01*
Y463396D01*
X430450Y462646D01*
X426701Y470144D02*
X427451Y468644D01*
X428951Y467144D01*
X430450D01*
X431200Y467894D01*
Y469394D01*
X430450Y470144D01*
X429701D01*
X428951Y469394D01*
Y467144D01*
X436701Y449900D02*
Y451400D01*
Y450650D01*
X441200D01*
Y449900D01*
Y451400D01*
X436701Y455898D02*
Y454398D01*
X437451Y453649D01*
X440450D01*
X441200Y454398D01*
Y455898D01*
X440450Y456648D01*
X437451D01*
X436701Y455898D01*
X441200Y461146D02*
Y458147D01*
X438201Y461146D01*
X437451D01*
X436701Y460397D01*
Y458897D01*
X437451Y458147D01*
Y462646D02*
X436701Y463396D01*
Y464895D01*
X437451Y465645D01*
X438201D01*
X438951Y464895D01*
Y464145D01*
Y464895D01*
X439701Y465645D01*
X440450D01*
X441200Y464895D01*
Y463396D01*
X440450Y462646D01*
X436701Y470144D02*
Y467144D01*
X438951D01*
X438201Y468644D01*
Y469394D01*
X438951Y470144D01*
X440450D01*
X441200Y469394D01*
Y467894D01*
X440450Y467144D01*
X446802Y449900D02*
Y451400D01*
Y450650D01*
X451300D01*
Y449900D01*
Y451400D01*
X446802Y455898D02*
Y454398D01*
X447551Y453649D01*
X450550D01*
X451300Y454398D01*
Y455898D01*
X450550Y456648D01*
X447551D01*
X446802Y455898D01*
X451300Y461146D02*
Y458147D01*
X448301Y461146D01*
X447551D01*
X446802Y460397D01*
Y458897D01*
X447551Y458147D01*
Y462646D02*
X446802Y463396D01*
Y464895D01*
X447551Y465645D01*
X448301D01*
X449051Y464895D01*
Y464145D01*
Y464895D01*
X449800Y465645D01*
X450550D01*
X451300Y464895D01*
Y463396D01*
X450550Y462646D01*
X451300Y469394D02*
X446802D01*
X449051Y467144D01*
Y470144D01*
X456601Y449900D02*
Y451400D01*
Y450650D01*
X461100D01*
Y449900D01*
Y451400D01*
X456601Y455898D02*
Y454398D01*
X457351Y453649D01*
X460350D01*
X461100Y454398D01*
Y455898D01*
X460350Y456648D01*
X457351D01*
X456601Y455898D01*
X461100Y461146D02*
Y458147D01*
X458101Y461146D01*
X457351D01*
X456601Y460397D01*
Y458897D01*
X457351Y458147D01*
Y462646D02*
X456601Y463396D01*
Y464895D01*
X457351Y465645D01*
X458101D01*
X458851Y464895D01*
Y464145D01*
Y464895D01*
X459600Y465645D01*
X460350D01*
X461100Y464895D01*
Y463396D01*
X460350Y462646D01*
X457351Y467144D02*
X456601Y467894D01*
Y469394D01*
X457351Y470144D01*
X458101D01*
X458851Y469394D01*
Y468644D01*
Y469394D01*
X459600Y470144D01*
X460350D01*
X461100Y469394D01*
Y467894D01*
X460350Y467144D01*
X466802Y449900D02*
Y451400D01*
Y450650D01*
X471300D01*
Y449900D01*
Y451400D01*
X466802Y455898D02*
Y454398D01*
X467551Y453649D01*
X470550D01*
X471300Y454398D01*
Y455898D01*
X470550Y456648D01*
X467551D01*
X466802Y455898D01*
X471300Y461146D02*
Y458147D01*
X468301Y461146D01*
X467551D01*
X466802Y460397D01*
Y458897D01*
X467551Y458147D01*
Y462646D02*
X466802Y463396D01*
Y464895D01*
X467551Y465645D01*
X468301D01*
X469051Y464895D01*
Y464145D01*
Y464895D01*
X469801Y465645D01*
X470550D01*
X471300Y464895D01*
Y463396D01*
X470550Y462646D01*
X467551Y467144D02*
X466802Y467894D01*
Y469394D01*
X467551Y470144D01*
X470550D01*
X471300Y469394D01*
Y467894D01*
X470550Y467144D01*
X467551D01*
X476502Y449900D02*
Y451400D01*
Y450650D01*
X481000D01*
Y449900D01*
Y451400D01*
X476502Y455898D02*
Y454398D01*
X477251Y453649D01*
X480250D01*
X481000Y454398D01*
Y455898D01*
X480250Y456648D01*
X477251D01*
X476502Y455898D01*
X481000Y461146D02*
Y458147D01*
X478001Y461146D01*
X477251D01*
X476502Y460397D01*
Y458897D01*
X477251Y458147D01*
X481000Y465645D02*
Y462646D01*
X478001Y465645D01*
X477251D01*
X476502Y464895D01*
Y463396D01*
X477251Y462646D01*
X481000Y469394D02*
X476502D01*
X478751Y467144D01*
Y470144D01*
X486801Y449900D02*
Y451400D01*
Y450650D01*
X491300D01*
Y449900D01*
Y451400D01*
X486801Y455898D02*
Y454398D01*
X487551Y453649D01*
X490550D01*
X491300Y454398D01*
Y455898D01*
X490550Y456648D01*
X487551D01*
X486801Y455898D01*
X491300Y461146D02*
Y458147D01*
X488301Y461146D01*
X487551D01*
X486801Y460397D01*
Y458897D01*
X487551Y458147D01*
X491300Y465645D02*
Y462646D01*
X488301Y465645D01*
X487551D01*
X486801Y464895D01*
Y463396D01*
X487551Y462646D01*
Y467144D02*
X486801Y467894D01*
Y469394D01*
X487551Y470144D01*
X488301D01*
X489051Y469394D01*
Y468644D01*
Y469394D01*
X489801Y470144D01*
X490550D01*
X491300Y469394D01*
Y467894D01*
X490550Y467144D01*
X496902Y449900D02*
Y451400D01*
Y450650D01*
X501400D01*
Y449900D01*
Y451400D01*
X496902Y455898D02*
Y454398D01*
X497651Y453649D01*
X500650D01*
X501400Y454398D01*
Y455898D01*
X500650Y456648D01*
X497651D01*
X496902Y455898D01*
X501400Y461146D02*
Y458147D01*
X498401Y461146D01*
X497651D01*
X496902Y460397D01*
Y458897D01*
X497651Y458147D01*
X501400Y462646D02*
Y464145D01*
Y463396D01*
X496902D01*
X497651Y462646D01*
X496902Y466395D02*
Y469394D01*
X497651D01*
X500650Y466395D01*
X501400D01*
X507001Y448400D02*
X511500D01*
Y450649D01*
X510750Y451399D01*
X507751D01*
X507001Y450649D01*
Y448400D01*
X511500Y452899D02*
X508501D01*
X507001Y454398D01*
X508501Y455898D01*
X511500D01*
X509251D01*
Y452899D01*
X507001Y457397D02*
Y460396D01*
Y458897D01*
X511500D01*
Y461896D02*
X508501D01*
X507001Y463395D01*
X508501Y464895D01*
X511500D01*
X509251D01*
Y461896D01*
X507001Y466394D02*
Y469393D01*
X507751D01*
X510750Y466394D01*
X511500D01*
X516702Y448400D02*
X521200D01*
Y450649D01*
X520450Y451399D01*
X517451D01*
X516702Y450649D01*
Y448400D01*
X521200Y452899D02*
X518201D01*
X516702Y454398D01*
X518201Y455898D01*
X521200D01*
X518951D01*
Y452899D01*
X516702Y457397D02*
Y460396D01*
Y458897D01*
X521200D01*
Y461896D02*
X518201D01*
X516702Y463395D01*
X518201Y464895D01*
X521200D01*
X518951D01*
Y461896D01*
X516702Y469393D02*
X517451Y467894D01*
X518951Y466394D01*
X520450D01*
X521200Y467144D01*
Y468644D01*
X520450Y469393D01*
X519700D01*
X518951Y468644D01*
Y466394D01*
X526801Y448400D02*
X531300D01*
Y450649D01*
X530550Y451399D01*
X527551D01*
X526801Y450649D01*
Y448400D01*
X531300Y452899D02*
X528301D01*
X526801Y454398D01*
X528301Y455898D01*
X531300D01*
X529051D01*
Y452899D01*
X526801Y457397D02*
Y460396D01*
Y458897D01*
X531300D01*
Y461896D02*
X528301D01*
X526801Y463395D01*
X528301Y464895D01*
X531300D01*
X529051D01*
Y461896D01*
X526801Y469393D02*
Y466394D01*
X529051D01*
X528301Y467894D01*
Y468644D01*
X529051Y469393D01*
X530550D01*
X531300Y468644D01*
Y467144D01*
X530550Y466394D01*
X536601Y448400D02*
X541100D01*
Y450649D01*
X540350Y451399D01*
X537351D01*
X536601Y450649D01*
Y448400D01*
X541100Y452899D02*
X538101D01*
X536601Y454398D01*
X538101Y455898D01*
X541100D01*
X538851D01*
Y452899D01*
X536601Y457397D02*
Y460396D01*
Y458897D01*
X541100D01*
Y461896D02*
X538101D01*
X536601Y463395D01*
X538101Y464895D01*
X541100D01*
X538851D01*
Y461896D01*
X541100Y468644D02*
X536601D01*
X538851Y466394D01*
Y469393D01*
X546902Y448400D02*
X551400D01*
Y450649D01*
X550650Y451399D01*
X547651D01*
X546902Y450649D01*
Y448400D01*
X551400Y452899D02*
X548401D01*
X546902Y454398D01*
X548401Y455898D01*
X551400D01*
X549151D01*
Y452899D01*
X546902Y457397D02*
Y460396D01*
Y458897D01*
X551400D01*
Y461896D02*
X548401D01*
X546902Y463395D01*
X548401Y464895D01*
X551400D01*
X549151D01*
Y461896D01*
X547651Y466394D02*
X546902Y467144D01*
Y468644D01*
X547651Y469393D01*
X548401D01*
X549151Y468644D01*
Y467894D01*
Y468644D01*
X549900Y469393D01*
X550650D01*
X551400Y468644D01*
Y467144D01*
X550650Y466394D01*
X557001Y448400D02*
X561500D01*
Y450649D01*
X560750Y451399D01*
X557751D01*
X557001Y450649D01*
Y448400D01*
X561500Y452899D02*
X558501D01*
X557001Y454398D01*
X558501Y455898D01*
X561500D01*
X559251D01*
Y452899D01*
X557001Y457397D02*
Y460396D01*
Y458897D01*
X561500D01*
Y461896D02*
X558501D01*
X557001Y463395D01*
X558501Y464895D01*
X561500D01*
X559251D01*
Y461896D01*
X561500Y469393D02*
Y466394D01*
X558501Y469393D01*
X557751D01*
X557001Y468644D01*
Y467144D01*
X557751Y466394D01*
X569251Y449200D02*
Y452199D01*
X567751Y450700D02*
X570750D01*
X567751Y453698D02*
X567001Y454448D01*
Y455948D01*
X567751Y456698D01*
X568501D01*
X569251Y455948D01*
Y455198D01*
Y455948D01*
X570001Y456698D01*
X570750D01*
X571500Y455948D01*
Y454448D01*
X570750Y453698D01*
X571500Y458197D02*
X570750D01*
Y458947D01*
X571500D01*
Y458197D01*
X567751Y461946D02*
X567001Y462696D01*
Y464195D01*
X567751Y464945D01*
X568501D01*
X569251Y464195D01*
Y463445D01*
Y464195D01*
X570001Y464945D01*
X570750D01*
X571500Y464195D01*
Y462696D01*
X570750Y461946D01*
X567001Y466444D02*
X570001D01*
X571500Y467944D01*
X570001Y469444D01*
X567001D01*
X579251Y457500D02*
Y460499D01*
X577751Y458999D02*
X580750D01*
X577001Y464998D02*
Y461999D01*
X579251D01*
X578501Y463498D01*
Y464248D01*
X579251Y464998D01*
X580750D01*
X581500Y464248D01*
Y462748D01*
X580750Y461999D01*
X577001Y466497D02*
X580000D01*
X581500Y467997D01*
X580000Y469496D01*
X577001D01*
X587851Y460499D02*
X587102Y459749D01*
Y458250D01*
X587851Y457500D01*
X590850D01*
X591600Y458250D01*
Y459749D01*
X590850Y460499D01*
X589351D01*
Y458999D01*
X591600Y461999D02*
X587102D01*
X591600Y464998D01*
X587102D01*
Y466497D02*
X591600D01*
Y468746D01*
X590850Y469496D01*
X587851D01*
X587102Y468746D01*
Y466497D01*
D42*
X97500Y480500D02*
Y501500D01*
X118500D01*
X97500Y97500D02*
Y118500D01*
Y97500D02*
X118500D01*
X873000Y481000D02*
Y502000D01*
X852000D02*
X873000D01*
D45*
X680500Y476000D02*
G03*
X685500Y476000I2500J0D01*
G01*
X493355Y192345D02*
G03*
X493355Y192345I-1623J0D01*
G01*
X366792Y397155D02*
G03*
X366792Y397155I-1623J0D01*
G01*
X548978Y352631D02*
G03*
X548978Y352631I-1623J0D01*
G01*
X413555Y192345D02*
G03*
X413555Y192345I-1623J0D01*
G01*
X548978Y283732D02*
G03*
X548978Y283732I-1623J0D01*
G01*
X300568Y209469D02*
G03*
X300568Y209469I-1623J0D01*
G01*
X455092Y397155D02*
G03*
X455092Y397155I-1623J0D01*
G01*
X337500Y311500D02*
G03*
X337500Y306500I0J-2500D01*
G01*
X323000Y358000D02*
G03*
X323000Y353000I0J-2500D01*
G01*
X382409Y349682D02*
G03*
X382409Y349682I-2296J0D01*
G01*
X307630Y311882D02*
G03*
X307630Y304008I0J-3937D01*
G01*
X761300Y144700D02*
Y153500D01*
X810800D01*
X761300Y144700D02*
X810800D01*
X811100Y153500D02*
X861000D01*
X811100Y144700D02*
Y153500D01*
Y144700D02*
X861000D01*
Y153500D01*
X861300Y404200D02*
Y413800D01*
X761200D02*
X861300D01*
X761200Y404200D02*
Y413800D01*
Y404200D02*
X861300D01*
X320260Y494800D02*
X368500D01*
X320230Y446390D02*
Y494770D01*
Y446390D02*
X368490D01*
X368500Y446400D01*
Y494800D01*
X658000Y476000D02*
X680500D01*
X685500D02*
X708000D01*
Y316000D02*
Y476000D01*
X658000Y316000D02*
X708000D01*
X658000D02*
Y476000D01*
X446850Y177384D02*
X495275D01*
X446850Y195888D02*
X495275D01*
X446850Y177384D02*
Y195888D01*
X495275Y177384D02*
Y195888D01*
X361625Y412116D02*
X410050D01*
X361625Y393612D02*
X410050D01*
Y412116D01*
X361625Y393612D02*
Y412116D01*
X562316Y307750D02*
Y356175D01*
X543812Y307750D02*
Y356175D01*
Y307750D02*
X562316D01*
X543812Y356175D02*
X562316D01*
X367050Y177384D02*
X415475D01*
X367050Y195888D02*
X415475D01*
X367050Y177384D02*
Y195888D01*
X415475Y177384D02*
Y195888D01*
X562316Y238850D02*
Y287275D01*
X543812Y238850D02*
Y287275D01*
Y238850D02*
X562316D01*
X543812Y287275D02*
X562316D01*
X283984Y205925D02*
Y254350D01*
X302488Y205925D02*
Y254350D01*
X283984D02*
X302488D01*
X283984Y205925D02*
X302488D01*
X449925Y412116D02*
X498350D01*
X449925Y393612D02*
X498350D01*
Y412116D01*
X449925Y393612D02*
Y412116D01*
X136500Y255000D02*
X156500D01*
X136500Y245000D02*
X146500D01*
Y255000D01*
X156500Y205000D02*
Y255000D01*
X136500Y205000D02*
Y255000D01*
Y205000D02*
X156500D01*
X329000Y355500D02*
X339000D01*
X329000Y365500D02*
X339000D01*
Y345500D02*
Y365500D01*
X329000Y345500D02*
X339000D01*
X329000D02*
Y365500D01*
X207409Y122567D02*
X258591D01*
Y179654D01*
X207409Y122567D02*
Y179654D01*
X258591D01*
X317500Y303500D02*
Y314500D01*
X337500D01*
X317500Y303500D02*
X337500D01*
Y306500D01*
Y311500D02*
Y314500D01*
X323000Y358000D02*
Y365500D01*
Y345500D02*
Y353000D01*
X283000Y345500D02*
X323000D01*
X283000D02*
Y365500D01*
X323000D01*
X375193Y237366D02*
X492516D01*
X375193D02*
Y354591D01*
X492516Y237366D02*
Y354591D01*
X375193D02*
X492516D01*
X122409Y179654D02*
X173591D01*
X122409Y122567D02*
Y179654D01*
X173591Y122567D02*
Y179654D01*
X122409Y122567D02*
X173591D01*
X307630Y298102D02*
Y317787D01*
X266291Y298102D02*
Y317787D01*
X282433D02*
X289913D01*
X304087D02*
X307630D01*
X302512Y298102D02*
X307630D01*
X282433D02*
X291488D01*
X266291D02*
X271410D01*
X266291Y317787D02*
X271410D01*
X827900Y141698D02*
X828900Y142698D01*
X830899D01*
X831899Y141698D01*
Y140699D01*
X830899Y139699D01*
X829899D01*
X830899D01*
X831899Y138699D01*
Y137700D01*
X830899Y136700D01*
X828900D01*
X827900Y137700D01*
X833898Y136700D02*
Y137700D01*
X834898D01*
Y136700D01*
X833898D01*
X838896Y141698D02*
X839896Y142698D01*
X841895D01*
X842895Y141698D01*
Y140699D01*
X841895Y139699D01*
X840896D01*
X841895D01*
X842895Y138699D01*
Y137700D01*
X841895Y136700D01*
X839896D01*
X838896Y137700D01*
X844895Y142698D02*
Y138699D01*
X846894Y136700D01*
X848893Y138699D01*
Y142698D01*
X751999Y152298D02*
X748000D01*
Y149299D01*
X749999Y150299D01*
X750999D01*
X751999Y149299D01*
Y147300D01*
X750999Y146300D01*
X749000D01*
X748000Y147300D01*
X753998Y152298D02*
Y148299D01*
X755997Y146300D01*
X757997Y148299D01*
Y152298D01*
X745799Y411398D02*
X744799Y412398D01*
X742800D01*
X741800Y411398D01*
Y407400D01*
X742800Y406400D01*
X744799D01*
X745799Y407400D01*
Y409399D01*
X743799D01*
X747798Y406400D02*
Y412398D01*
X751797Y406400D01*
Y412398D01*
X753796D02*
Y406400D01*
X756795D01*
X757795Y407400D01*
Y411398D01*
X756795Y412398D01*
X753796D01*
X102600Y106999D02*
X104599Y103000D01*
X106599Y106999D01*
X108598Y103000D02*
X110597D01*
X109598D01*
Y108998D01*
X108598Y107998D01*
X113596Y103000D02*
Y104000D01*
X114596D01*
Y103000D01*
X113596D01*
X118595Y107998D02*
X119595Y108998D01*
X121594D01*
X122593Y107998D01*
Y104000D01*
X121594Y103000D01*
X119595D01*
X118595Y104000D01*
Y107998D01*
X130591D02*
X131591Y108998D01*
X133590D01*
X134590Y107998D01*
Y104000D01*
X133590Y103000D01*
X131591D01*
X130591Y104000D01*
Y107998D01*
X136589D02*
X137589Y108998D01*
X139588D01*
X140588Y107998D01*
Y106999D01*
X139588Y105999D01*
X138588D01*
X139588D01*
X140588Y104999D01*
Y104000D01*
X139588Y103000D01*
X137589D01*
X136589Y104000D01*
X142587Y103000D02*
X146586Y106999D01*
X152584Y103000D02*
X148585D01*
X152584Y106999D01*
Y107998D01*
X151584Y108998D01*
X149585D01*
X148585Y107998D01*
X154583D02*
X155583Y108998D01*
X157582D01*
X158582Y107998D01*
Y104000D01*
X157582Y103000D01*
X155583D01*
X154583Y104000D01*
Y107998D01*
X160581Y103000D02*
X162581D01*
X161581D01*
Y108998D01*
X160581Y107998D01*
X168579Y103000D02*
Y108998D01*
X165580Y105999D01*
X169578D01*
X597411Y377355D02*
X597130Y377885D01*
X597270Y377620D01*
X598859Y378465D01*
X599000Y378200D01*
X598718Y378730D01*
X598500Y389100D02*
X597461Y389700D01*
X597242Y390519D01*
X598061Y390739D01*
X599100Y390139D01*
X598321Y390589D01*
X597721Y389550D01*
X596320Y388245D02*
X596535Y388805D01*
X596428Y388525D01*
X598107Y387880D01*
X598000Y387600D01*
X598215Y388160D01*
X601305Y373243D02*
X601349Y372822D01*
X601815Y372444D01*
X602237Y372488D01*
X602992Y373421D01*
X602948Y373843D01*
X602482Y374220D01*
X602060Y374176D01*
X598782Y375323D02*
X600291Y376303D01*
X599638Y377309D01*
X596313Y380409D02*
X596624Y379250D01*
X597493Y379483D01*
X597338Y380062D01*
X597493Y379483D01*
X598362Y379716D01*
X595937Y382313D02*
X596000Y381716D01*
X596329Y381449D01*
X597522Y381575D01*
X597789Y381904D01*
X597727Y382501D01*
X597397Y382768D01*
X596204Y382642D01*
X595937Y382313D01*
X597582Y383558D02*
X595785Y383652D01*
X595832Y384550D01*
X596147Y384834D01*
X596746Y384803D01*
X597030Y384488D01*
X596983Y383589D01*
X597014Y384188D02*
X597645Y384756D01*
X597651Y385523D02*
X595891Y385897D01*
X597900Y386696D01*
X596140Y387070D01*
X601632Y374865D02*
X600740Y374062D01*
X599893Y374107D01*
X599937Y374954D01*
X600829Y375756D01*
X600160Y375154D01*
X600963Y374263D01*
X599063Y393204D02*
X599464Y393650D01*
X599263Y393427D01*
X600601Y392223D01*
X600400Y392000D01*
X600801Y392446D01*
X601500Y393100D02*
X600343Y394478D01*
X602419Y393871D01*
X601262Y395250D01*
X606004Y397730D02*
X606581Y397895D01*
X606292Y397812D01*
X606788Y396083D01*
X606500Y396000D01*
X607077Y396165D01*
X617617Y396149D02*
X617108Y396467D01*
X616695Y396372D01*
X616059Y395354D01*
X616154Y394941D01*
X616663Y394623D01*
X617076Y394719D01*
X617712Y395736D01*
X617617Y396149D01*
X623946Y379841D02*
X622216Y380337D01*
X621885Y379184D01*
X622748Y384482D02*
X624547Y384544D01*
X622790Y383283D01*
X624588Y383345D01*
X624255Y386936D02*
X622495Y386562D01*
X623375Y386750D01*
X623625Y385576D01*
X624505Y385763D01*
X622745Y385389D01*
X623742Y388023D02*
X623908Y388413D01*
X623683Y388969D01*
X623293Y389135D01*
X622181Y388685D01*
X622015Y388295D01*
X622239Y387739D01*
X622630Y387573D01*
X623146Y390357D02*
X622528Y391385D01*
X620986Y390458D01*
X621604Y389430D01*
X621757Y390922D02*
X622066Y390407D01*
X621149Y393323D02*
X621920Y392404D01*
X621534Y392864D01*
X620156Y391707D01*
X620272Y373728D02*
X620060Y373940D01*
X619212D01*
X619212Y373091D01*
X619424Y372879D01*
X619212Y373940D02*
X618576Y374576D01*
X620908Y374748D02*
X621327Y374814D01*
X621679Y375300D01*
X621613Y375719D01*
X620643Y376424D01*
X620224Y376357D01*
X619871Y375872D01*
X619938Y375453D01*
X620423Y375101D01*
X620775Y375586D01*
X624331Y381275D02*
X624404Y381870D01*
X624143Y382204D01*
X622952Y382351D01*
X622618Y382089D01*
X622544Y381494D01*
X622806Y381160D01*
X623996Y381014D01*
X624331Y381275D01*
X622668Y376790D02*
X622931Y377329D01*
X622793Y377730D01*
X621715Y378256D01*
X621314Y378118D01*
X621051Y377579D01*
X621189Y377178D01*
X622267Y376652D01*
X622668Y376790D01*
X603275Y396243D02*
X602861Y396338D01*
X602353Y396021D01*
X602257Y395607D01*
X602416Y395353D01*
X602830Y395257D01*
X603338Y395575D01*
X603752Y395480D01*
X603910Y395226D01*
X603815Y394812D01*
X603306Y394495D01*
X602893Y394590D01*
X603827Y396860D02*
X604923Y397348D01*
X604375Y397104D01*
X605107Y395460D01*
X619827Y394504D02*
X618908Y395275D01*
X618330Y394586D01*
X618790Y394201D01*
X618330Y394586D01*
X617752Y393897D01*
X614714Y397553D02*
X613561Y397883D01*
X613065Y396154D01*
X614218Y395823D01*
X613313Y397019D02*
X613889Y396853D01*
X611595Y398230D02*
X612783Y398063D01*
X612189Y398146D01*
X611938Y396364D01*
X609600Y398299D02*
Y396800D01*
X609900Y396500D01*
X610500D01*
X610800Y396800D01*
Y398299D01*
X607615Y398091D02*
X608803Y398258D01*
X608209Y398174D01*
X608459Y396392D01*
X589200Y406900D02*
Y412898D01*
X593199Y406900D01*
Y412898D01*
X596198Y410899D02*
X598197D01*
X599197Y409899D01*
Y406900D01*
X596198D01*
X595198Y407900D01*
X596198Y408899D01*
X599197D01*
X601196Y410899D02*
X603195Y406900D01*
X605195Y410899D01*
X608194Y406900D02*
X610193D01*
X611193Y407900D01*
Y409899D01*
X610193Y410899D01*
X608194D01*
X607194Y409899D01*
Y407900D01*
X608194Y406900D01*
X613192D02*
Y410899D01*
X616191D01*
X617191Y409899D01*
Y406900D01*
X619190D02*
Y410899D01*
X622189D01*
X623189Y409899D01*
Y406900D01*
X628187D02*
X626188D01*
X625188Y407900D01*
Y409899D01*
X626188Y410899D01*
X628187D01*
X629187Y409899D01*
Y408899D01*
X625188D01*
X590999Y420798D02*
X589999Y421798D01*
X588000D01*
X587000Y420798D01*
Y419799D01*
X588000Y418799D01*
X589999D01*
X590999Y417799D01*
Y416800D01*
X589999Y415800D01*
X588000D01*
X587000Y416800D01*
X593998Y419799D02*
X595997D01*
X596997Y418799D01*
Y415800D01*
X593998D01*
X592998Y416800D01*
X593998Y417799D01*
X596997D01*
X598996Y415800D02*
Y419799D01*
X601995D01*
X602995Y418799D01*
Y415800D01*
X605994Y420798D02*
Y419799D01*
X604994D01*
X606993D01*
X605994D01*
Y416800D01*
X606993Y415800D01*
X609993D02*
X611992D01*
X610992D01*
Y419799D01*
X609993D01*
X615991D02*
X617990D01*
X618990Y418799D01*
Y415800D01*
X615991D01*
X614991Y416800D01*
X615991Y417799D01*
X618990D01*
X622988Y413801D02*
X623988D01*
X624988Y414800D01*
Y419799D01*
X621989D01*
X620989Y418799D01*
Y416800D01*
X621989Y415800D01*
X624988D01*
X627987D02*
X629986D01*
X630986Y416800D01*
Y418799D01*
X629986Y419799D01*
X627987D01*
X626987Y418799D01*
Y416800D01*
X627987Y415800D01*
X577699Y442398D02*
X575700D01*
X574700Y441398D01*
Y437400D01*
X575700Y436400D01*
X577699D01*
X578699Y437400D01*
Y441398D01*
X577699Y442398D01*
X580698Y436400D02*
X583697D01*
X584697Y437400D01*
X583697Y438399D01*
X581698D01*
X580698Y439399D01*
X581698Y440399D01*
X584697D01*
X590695D02*
X587696D01*
X586696Y439399D01*
Y437400D01*
X587696Y436400D01*
X590695D01*
X592694D02*
X594694D01*
X593694D01*
Y440399D01*
X592694D01*
X597693Y436400D02*
X599692D01*
X598692D01*
Y442398D01*
X597693D01*
X602691Y436400D02*
X604690D01*
X603691D01*
Y442398D01*
X602691D01*
X608689Y436400D02*
X610688D01*
X611688Y437400D01*
Y439399D01*
X610688Y440399D01*
X608689D01*
X607689Y439399D01*
Y437400D01*
X608689Y436400D01*
X613687D02*
X616686D01*
X617686Y437400D01*
X616686Y438399D01*
X614687D01*
X613687Y439399D01*
X614687Y440399D01*
X617686D01*
X623684D02*
X620685D01*
X619685Y439399D01*
Y437400D01*
X620685Y436400D01*
X623684D01*
X626683D02*
X628683D01*
X629682Y437400D01*
Y439399D01*
X628683Y440399D01*
X626683D01*
X625683Y439399D01*
Y437400D01*
X626683Y436400D01*
X631682Y434401D02*
Y440399D01*
X634681D01*
X635680Y439399D01*
Y437400D01*
X634681Y436400D01*
X631682D01*
X640679D02*
X638679D01*
X637680Y437400D01*
Y439399D01*
X638679Y440399D01*
X640679D01*
X641678Y439399D01*
Y438399D01*
X637680D01*
X585899Y450798D02*
X581900D01*
Y444800D01*
X585899D01*
X581900Y447799D02*
X583899D01*
X591897Y450798D02*
X587898D01*
Y444800D01*
X591897D01*
X587898Y447799D02*
X589897D01*
X597895Y450798D02*
X593896D01*
Y447799D01*
X595895Y448799D01*
X596895D01*
X597895Y447799D01*
Y445800D01*
X596895Y444800D01*
X594896D01*
X593896Y445800D01*
X603893Y444800D02*
X599894D01*
X603893Y448799D01*
Y449798D01*
X602893Y450798D01*
X600894D01*
X599894Y449798D01*
X615889D02*
X614889Y450798D01*
X612890D01*
X611890Y449798D01*
Y448799D01*
X612890Y447799D01*
X614889D01*
X615889Y446799D01*
Y445800D01*
X614889Y444800D01*
X612890D01*
X611890Y445800D01*
X618888Y444800D02*
X620887D01*
X621887Y445800D01*
Y447799D01*
X620887Y448799D01*
X618888D01*
X617888Y447799D01*
Y445800D01*
X618888Y444800D01*
X623886D02*
Y450798D01*
X626886D01*
X627885Y449798D01*
Y447799D01*
X626886Y446799D01*
X623886D01*
X633883Y449798D02*
X632884Y450798D01*
X630884D01*
X629884Y449798D01*
Y445800D01*
X630884Y444800D01*
X632884D01*
X633883Y445800D01*
D46*
X101000Y415000D02*
Y495000D01*
X171000D01*
Y415000D02*
Y495000D01*
X101000Y415000D02*
X171000D01*
D69*
X220150Y338800D02*
G03*
X220150Y341200I0J1200D01*
G01*
X767050Y123700D02*
G03*
X767050Y121300I0J-1200D01*
G01*
X216800Y277800D02*
G03*
X216800Y280200I0J1200D01*
G01*
X608900Y374100D02*
X609800D01*
X611000Y382200D02*
X611500D01*
X610600Y377400D02*
X611300D01*
X610600Y378400D02*
X612000D01*
X610900Y379600D02*
X612400D01*
X615400Y380600D02*
X615800D01*
X608100Y379900D02*
X609800D01*
X607000Y377200D02*
X607700D01*
X609900Y368600D02*
X611000D01*
X609700Y372200D02*
X611200D01*
X610000Y379500D02*
Y379900D01*
Y378400D02*
Y378500D01*
X612600Y375700D02*
Y376300D01*
X612700Y377000D02*
Y378900D01*
X612500Y379500D02*
Y380200D01*
X613400Y374800D02*
Y376100D01*
X608600Y378100D02*
Y379800D01*
X609900Y368600D02*
Y372000D01*
X611000Y368600D02*
Y372100D01*
X609700Y372200D02*
Y379600D01*
X611200Y372200D02*
Y375400D01*
X612200Y374800D02*
X612500Y375100D01*
X614500Y377100D02*
X615000Y377600D01*
Y380400D02*
X615200Y380600D01*
X608100Y377400D02*
X608500Y377800D01*
X615800Y380600D02*
X616100Y380300D01*
X608200Y374200D02*
X608900Y374100D01*
X607400Y374500D02*
X608200Y374200D01*
X606600Y375500D02*
X607400Y374500D01*
X613900Y382800D02*
X614000Y382500D01*
X613500Y382900D02*
X613900Y382800D01*
X613100Y382700D02*
X613500Y382900D01*
X612800Y382200D02*
X613100Y382700D01*
X612400Y382800D02*
X612800Y382200D01*
X611800Y382700D02*
X612400Y382800D01*
X611700Y382500D02*
X611800Y382700D01*
X611500Y382200D02*
X611700Y382500D01*
X610600Y382000D02*
X611000Y382200D01*
X610600Y381400D02*
X611100Y380700D01*
X610800Y380600D02*
X612000Y380700D01*
X610000Y379900D02*
X610800Y380600D01*
X610000Y377800D02*
X610100Y377300D01*
Y376000D02*
X610500Y375400D01*
X610200Y376400D02*
X611000Y375500D01*
X610300Y376800D02*
X610800Y376500D01*
X611200Y376000D01*
X611500Y375100D01*
X609900Y376900D02*
X610600Y377400D01*
X611300D02*
X611800Y377200D01*
X612700Y376400D01*
X609700Y378000D02*
X610600Y378400D01*
X612000D02*
X612700Y378000D01*
X609800Y379100D02*
X610900Y379600D01*
X611400Y374700D02*
X612200Y374800D01*
X612500Y375100D02*
X612600Y375700D01*
Y376300D02*
X612700Y377000D01*
X612500Y379500D02*
X612700Y378900D01*
X612100Y380800D02*
X612500Y380200D01*
X611700Y382000D02*
X612100Y380800D01*
X613600Y376500D02*
X614500Y377100D01*
X613400Y376100D02*
X613600Y376500D01*
X613400Y374800D02*
X613600Y373700D01*
X612900Y382200D02*
X613700Y378900D01*
X614100Y382400D02*
X614900Y380300D01*
X615000Y377600D01*
X616100Y380300D02*
X616200Y379800D01*
X616600Y377400D01*
X616800Y376200D01*
X616700Y375400D02*
X616800Y376200D01*
X615600Y373900D02*
X616700Y375400D01*
X615600Y373900D02*
X615700Y372600D01*
X616500Y369400D01*
X608500Y377800D02*
X608600Y378100D01*
X607700Y377200D02*
X608100Y377400D01*
X606500Y372300D02*
X606600Y376200D01*
X608300Y381200D02*
X610200Y381300D01*
X607200Y381100D02*
X608300Y381200D01*
X606500Y380800D02*
X607200Y381100D01*
X606100Y380100D02*
X606500Y380800D01*
X605700Y378400D02*
X606100Y380100D01*
X605500Y376600D02*
X605700Y378400D01*
X605300Y374200D02*
X605500Y376600D01*
X605300Y374200D02*
X605600Y368700D01*
X239850Y334592D02*
Y345408D01*
X220150Y334592D02*
Y345408D01*
X746950Y115950D02*
Y129050D01*
X767050Y115950D02*
Y129050D01*
X567700Y128383D02*
Y131417D01*
X560460Y126600D02*
X563140D01*
X555900Y128383D02*
Y131417D01*
X216800Y286850D02*
X220740D01*
X247260Y271150D02*
X251200D01*
Y286850D01*
X247260D02*
X251200D01*
X216800Y271150D02*
Y286850D01*
Y271150D02*
X220740D01*
X239050Y491750D02*
X243350D01*
X239050Y473750D02*
X243350D01*
X239050Y488250D02*
X243350D01*
X239050Y470250D02*
X243350D01*
X239050Y458750D02*
X243350D01*
X239050Y440750D02*
X243350D01*
X239050Y455250D02*
X243350D01*
X239050Y437250D02*
X243350D01*
X239050Y421750D02*
X243350D01*
X239050Y403750D02*
X243350D01*
X239050Y418250D02*
X243350D01*
X239050Y400250D02*
X243350D01*
D70*
X292492Y129071D02*
G03*
X292492Y129071I-492J0D01*
G01*
X589492Y471929D02*
G03*
X589492Y471929I-492J0D01*
G01*
D71*
X538675Y146513D02*
Y148087D01*
X535525Y146513D02*
Y148087D01*
X178450Y446125D02*
Y449275D01*
X184750Y446125D02*
Y449275D01*
X181425Y428450D02*
X184575D01*
X181425Y422150D02*
X184575D01*
X156700Y347900D02*
Y357900D01*
X106700Y347900D02*
X156700D01*
X106700Y357900D02*
X156700D01*
X106700Y347900D02*
Y357900D01*
X589800Y118100D02*
X606800D01*
Y131600D01*
X589800D02*
X606800D01*
X589800Y118100D02*
Y131600D01*
X627113Y135475D02*
X628687D01*
X627113Y132325D02*
X628687D01*
X199150Y448425D02*
Y451575D01*
X192850Y448425D02*
Y451575D01*
X780425Y116213D02*
Y117787D01*
X783575Y116213D02*
Y117787D01*
X771925Y116213D02*
Y117787D01*
X775075Y116213D02*
Y117787D01*
X209313Y350075D02*
X210887D01*
X209313Y346925D02*
X210887D01*
X209213Y339675D02*
X210787D01*
X209213Y336525D02*
X210787D01*
X224213Y321775D02*
X225787D01*
X224213Y318625D02*
X225787D01*
X224213Y310825D02*
X225787D01*
X224213Y313975D02*
X225787D01*
X187513Y359475D02*
X189087D01*
X187513Y356325D02*
X189087D01*
X286488Y126512D02*
X507512D01*
Y115488D02*
Y126512D01*
X286488Y115488D02*
X507512D01*
X286488D02*
Y126512D01*
X373488Y474488D02*
X594512D01*
X373488D02*
Y485512D01*
X594512D01*
Y474488D02*
Y485512D01*
X179677Y404000D02*
Y413843D01*
X211042D01*
X214323Y410562D01*
Y397438D02*
Y410562D01*
X211042Y394157D02*
X214323Y397438D01*
X179677Y394157D02*
X211042D01*
X179677D02*
Y404000D01*
X214323Y367157D02*
Y377000D01*
X182958Y367157D02*
X214323D01*
X179677Y370438D02*
X182958Y367157D01*
X179677Y370438D02*
Y383562D01*
X182958Y386843D01*
X214323D01*
Y377000D02*
Y386843D01*
X293000Y493047D02*
X302843D01*
Y452234D02*
Y493047D01*
X299562Y448953D02*
X302843Y452234D01*
X286438Y448953D02*
X299562D01*
X283157Y452234D02*
X286438Y448953D01*
X283157Y452234D02*
Y493047D01*
X293000D01*
X278953Y395000D02*
Y404843D01*
X319766D01*
X323047Y401562D01*
Y388438D02*
Y401562D01*
X319766Y385157D02*
X323047Y388438D01*
X278953Y385157D02*
X319766D01*
X278953D02*
Y395000D01*
X162900Y297000D02*
X172900D01*
X162900D02*
Y317000D01*
X172900D01*
Y297000D02*
Y317000D01*
X523000Y392000D02*
X553000D01*
X523000Y382000D02*
Y392000D01*
Y382000D02*
X553000D01*
Y392000D01*
X523000Y423000D02*
X553000D01*
X523000Y413000D02*
Y423000D01*
Y413000D02*
X553000D01*
Y423000D01*
X740992Y109071D02*
Y122063D01*
X638236Y109071D02*
Y122063D01*
Y109071D02*
X740992D01*
X638236Y122063D02*
X740992D01*
X185500Y296900D02*
Y326900D01*
Y296900D02*
X195500D01*
Y326900D01*
X185500D02*
X195500D01*
X279953Y423000D02*
Y432843D01*
X320766D01*
X324047Y429562D01*
Y416438D02*
Y429562D01*
X320766Y413157D02*
X324047Y416438D01*
X279953Y413157D02*
X320766D01*
X279953D02*
Y423000D01*
X523000Y407500D02*
X553000D01*
X523000Y397500D02*
Y407500D01*
Y397500D02*
X553000D01*
Y407500D01*
X345213Y313075D02*
X346787D01*
X345213Y309925D02*
X346787D01*
X305913Y329775D02*
X307487D01*
X305913Y326625D02*
X307487D01*
X561013Y114825D02*
X562587D01*
X561013Y117975D02*
X562587D01*
X539713Y128525D02*
X541287D01*
X539713Y131675D02*
X541287D01*
X547013Y119825D02*
X548587D01*
X547013Y122975D02*
X548587D01*
X792075Y116213D02*
Y117787D01*
X788925Y116213D02*
Y117787D01*
X800075Y116213D02*
Y117787D01*
X796925Y116213D02*
Y117787D01*
X808075Y116213D02*
Y117787D01*
X804925Y116213D02*
Y117787D01*
X816075Y116213D02*
Y117787D01*
X812925Y116213D02*
Y117787D01*
X202200Y296900D02*
X212200D01*
X202200D02*
Y326900D01*
X212200D01*
Y296900D02*
Y326900D01*
X175800Y280000D02*
X195100D01*
X175800D02*
Y288800D01*
X195100D01*
Y280000D02*
Y288800D01*
X172700Y331100D02*
X181500D01*
Y350400D01*
X172700D02*
X181500D01*
X172700Y331100D02*
Y350400D01*
X572400Y134800D02*
Y154100D01*
X581200D01*
Y134800D02*
Y154100D01*
X572400Y134800D02*
X581200D01*
M02*
