%FSLAX25Y25*%
%MOIN*%
G70*
G01*
G75*
G04 Layer_Physical_Order=1*
G04 Layer_Color=255*
%ADD10O,0.01181X0.07480*%
%ADD11O,0.07480X0.01181*%
%ADD12R,0.07087X0.05118*%
%ADD13R,0.03937X0.03543*%
%ADD14R,0.03543X0.03150*%
%ADD15R,0.03543X0.03937*%
%ADD16R,0.06299X0.03150*%
%ADD17R,0.03150X0.06299*%
%ADD18R,0.02200X0.07800*%
%ADD19R,0.01400X0.06600*%
%ADD20O,0.02400X0.08000*%
%ADD21R,0.02200X0.05000*%
%ADD22R,0.05118X0.08661*%
%ADD23R,0.01400X0.07100*%
%ADD24O,0.07874X0.01969*%
%ADD25O,0.10000X0.01181*%
%ADD26O,0.01181X0.10000*%
%ADD27R,0.05118X0.09449*%
%ADD28R,0.09449X0.05118*%
%ADD29R,0.06299X0.06299*%
%ADD30R,0.09800X0.03700*%
%ADD31R,0.25700X0.26400*%
%ADD32R,0.01181X0.04724*%
%ADD33O,0.01181X0.04724*%
%ADD34R,0.05906X0.09055*%
%ADD35R,0.09055X0.09055*%
%ADD36R,0.05118X0.05906*%
%ADD37R,0.03150X0.03543*%
%ADD38C,0.01000*%
%ADD39C,0.03000*%
%ADD40C,0.00800*%
%ADD41C,0.10000*%
%ADD42C,0.01500*%
%ADD43C,0.05000*%
%ADD44C,0.07000*%
%ADD45C,0.05000*%
%ADD46R,0.05000X0.05000*%
%ADD47C,0.08000*%
%ADD48C,0.06000*%
%ADD49R,0.06000X0.06000*%
%ADD50R,0.09843X0.09843*%
%ADD51C,0.07874*%
%ADD52R,0.05906X0.05906*%
%ADD53C,0.05906*%
%ADD54O,0.05945X0.05906*%
%ADD55C,0.07000*%
%ADD56R,0.08000X0.08000*%
%ADD57R,0.05000X0.05000*%
%ADD58R,0.05906X0.05906*%
%ADD59C,0.11000*%
%ADD60C,0.05500*%
%ADD61C,0.06500*%
%ADD62C,0.14000*%
%ADD63C,0.02500*%
G36*
X597500Y145000D02*
X602500D01*
Y141500D01*
X592500D01*
X590000Y142500D01*
X582500D01*
X577500Y147500D01*
X551500D01*
Y125500D01*
X545000D01*
Y153500D01*
X589000D01*
X597500Y145000D01*
D02*
G37*
G36*
X318600Y494736D02*
X314800D01*
X313704Y494592D01*
X312682Y494169D01*
X311805Y493496D01*
X311131Y492618D01*
X310708Y491596D01*
X310564Y490500D01*
X310708Y489404D01*
X311131Y488382D01*
X311805Y487504D01*
X312682Y486831D01*
X313704Y486408D01*
X314800Y486264D01*
X318600D01*
Y475836D01*
X296259D01*
Y478796D01*
X310302D01*
X310500Y478757D01*
X311358Y478928D01*
X312086Y479414D01*
X312572Y480142D01*
X312743Y481000D01*
X312572Y481858D01*
X312086Y482586D01*
X312047Y482625D01*
X311319Y483112D01*
X310461Y483283D01*
X296259D01*
Y486464D01*
X289741D01*
Y483243D01*
X272150D01*
Y494900D01*
X245050D01*
Y467100D01*
D01*
Y467100D01*
X244893Y466943D01*
X227829D01*
X224486Y470286D01*
X223758Y470772D01*
X222900Y470943D01*
X222042Y470772D01*
X221314Y470286D01*
X220828Y469558D01*
X220657Y468700D01*
X220828Y467842D01*
X221314Y467114D01*
X225314Y463114D01*
X226042Y462628D01*
X226900Y462457D01*
X271791D01*
X272055Y462032D01*
X271989Y461900D01*
X245050D01*
Y434100D01*
X272150D01*
Y445757D01*
X278071D01*
X289718Y434110D01*
Y426259D01*
X286536D01*
Y419741D01*
X292047D01*
X300757Y411031D01*
Y409500D01*
X300928Y408642D01*
X301414Y407914D01*
X302142Y407428D01*
X303000Y407257D01*
X303858Y407428D01*
X304586Y407914D01*
X305072Y408642D01*
X305243Y409500D01*
Y411961D01*
X305072Y412819D01*
X304586Y413547D01*
X297385Y420748D01*
Y426259D01*
X294204D01*
Y435039D01*
X294033Y435898D01*
X293547Y436625D01*
X280586Y449586D01*
X279858Y450072D01*
X279000Y450243D01*
X272150D01*
Y461649D01*
X272427Y461743D01*
X272427D01*
X272623Y461810D01*
X272705Y461704D01*
X273582Y461031D01*
X274604Y460608D01*
X275700Y460464D01*
X276796Y460608D01*
X277818Y461031D01*
X278696Y461704D01*
X284355Y467364D01*
X318600D01*
Y378300D01*
X318900Y378000D01*
X318300Y377400D01*
X260843D01*
Y397100D01*
X272150D01*
Y405251D01*
X285211D01*
Y397500D01*
X285407Y396012D01*
X285536Y395701D01*
Y391741D01*
X288718D01*
Y384439D01*
X288888Y383581D01*
X289374Y382853D01*
X289374Y382853D01*
X289374D01*
Y382853D01*
X289374Y382853D01*
X291714Y380514D01*
X292442Y380028D01*
X293300Y379857D01*
X294158Y380028D01*
X294886Y380514D01*
X295372Y381242D01*
X295543Y382100D01*
X295372Y382958D01*
X294886Y383686D01*
X293204Y385368D01*
Y391741D01*
X296385D01*
Y395701D01*
X296514Y396012D01*
X296710Y397500D01*
Y409000D01*
X296514Y410488D01*
X295940Y411875D01*
X295026Y413065D01*
X293026Y415065D01*
X291835Y415979D01*
X290449Y416553D01*
X288961Y416749D01*
X272150D01*
Y424900D01*
X245050D01*
Y397100D01*
X256357D01*
Y377400D01*
X250100D01*
X228512Y398988D01*
X228703Y399450D01*
X238350D01*
Y404550D01*
X234743D01*
Y413500D01*
X234572Y414358D01*
X234086Y415086D01*
X233358Y415572D01*
X232500Y415743D01*
X231642Y415572D01*
X230914Y415086D01*
X230428Y414358D01*
X230257Y413500D01*
Y404550D01*
X227150D01*
Y401003D01*
X226688Y400812D01*
X211600Y415900D01*
X189991D01*
Y424652D01*
X189991Y424652D01*
X189991Y424652D01*
Y424652D01*
X189991D01*
X189991Y424652D01*
X189820Y425510D01*
X189334Y426238D01*
X172786Y442786D01*
X172058Y443272D01*
X171200Y443443D01*
X157700D01*
X156842Y443272D01*
X156114Y442786D01*
X153214Y439886D01*
X152728Y439158D01*
X152557Y438300D01*
Y432432D01*
X152728Y431573D01*
X153214Y430846D01*
X153214Y430846D01*
X153214Y430846D01*
Y430846D01*
X153214Y430846D01*
X153598Y430462D01*
X153406Y430000D01*
X151500D01*
Y425000D01*
X151000D01*
Y424500D01*
X146000D01*
Y422714D01*
X145538Y422523D01*
X144243Y423818D01*
Y455071D01*
X145677Y456505D01*
X146126Y456284D01*
X146023Y455500D01*
X150500D01*
Y459977D01*
X149716Y459874D01*
X149495Y460323D01*
X159646Y470474D01*
X159773Y470421D01*
X161000Y470259D01*
X162227Y470421D01*
X163370Y470894D01*
X164352Y471648D01*
X165105Y472630D01*
X165579Y473773D01*
X165741Y475000D01*
X165579Y476227D01*
X165105Y477370D01*
X164352Y478352D01*
X163798Y478777D01*
X163959Y479251D01*
X171719D01*
X190251Y460719D01*
Y455709D01*
X190447Y454221D01*
X191021Y452834D01*
X191935Y451643D01*
X193125Y450730D01*
X194512Y450155D01*
X196000Y449960D01*
X197488Y450155D01*
X198875Y450730D01*
X200065Y451643D01*
X200979Y452834D01*
X201361Y453757D01*
X205757D01*
Y444750D01*
X205928Y443892D01*
X206414Y443164D01*
X206414Y443164D01*
X206414D01*
Y443164D01*
X206414Y443164D01*
X227150Y422428D01*
Y417450D01*
X238350D01*
Y422550D01*
X233372D01*
X210243Y445679D01*
Y454757D01*
X227150D01*
Y454450D01*
X238350D01*
Y459550D01*
X227150D01*
Y459243D01*
X209000D01*
X208142Y459072D01*
X207414Y458586D01*
X207071Y458243D01*
X204819D01*
X204627Y458705D01*
X230045Y484123D01*
X230507Y483931D01*
Y474550D01*
X227150D01*
Y469450D01*
X238350D01*
Y474550D01*
X234993D01*
Y484000D01*
X234822Y484858D01*
X234336Y485586D01*
X233608Y486072D01*
X232783Y486237D01*
X232637Y486715D01*
X233372Y487450D01*
X238350D01*
Y492550D01*
X227150D01*
Y487572D01*
X202211Y462633D01*
X201749Y462825D01*
Y463100D01*
X201553Y464588D01*
X201315Y465162D01*
X200979Y465975D01*
X200065Y467165D01*
X178165Y489065D01*
X176975Y489979D01*
X175588Y490553D01*
X174100Y490749D01*
X151000D01*
X149512Y490553D01*
X148125Y489979D01*
X146935Y489065D01*
X146021Y487875D01*
X145447Y486488D01*
X145251Y485000D01*
X145447Y483512D01*
X146021Y482125D01*
X146935Y480935D01*
X148125Y480021D01*
X149512Y479447D01*
X151000Y479251D01*
X158041D01*
X158202Y478777D01*
X157648Y478352D01*
X156895Y477370D01*
X156421Y476227D01*
X156259Y475000D01*
X156421Y473773D01*
X156474Y473646D01*
X140414Y457586D01*
X139928Y456858D01*
X139757Y456000D01*
Y422889D01*
X139928Y422030D01*
X140414Y421303D01*
X140414Y421303D01*
X140414Y421303D01*
Y421303D01*
X140414Y421303D01*
X144503Y417214D01*
X144503Y417214D01*
X144503D01*
X144503Y417214D01*
X144503D01*
X144503Y417214D01*
Y417214D01*
Y417214D01*
D01*
D01*
X144503D01*
Y417214D01*
X145230Y416728D01*
X146089Y416557D01*
X155911D01*
X156770Y416728D01*
X157497Y417214D01*
X157497Y417214D01*
X157497Y417214D01*
X158786Y418503D01*
X159272Y419230D01*
X159443Y420089D01*
Y430032D01*
X159439Y430055D01*
X159780Y430420D01*
X161000Y430259D01*
X162227Y430421D01*
X162354Y430474D01*
X169757Y423071D01*
Y415900D01*
X100900D01*
X100801Y495246D01*
X101154Y495600D01*
X318600D01*
Y494736D01*
D02*
G37*
G36*
X307600Y299072D02*
X306628Y298100D01*
X300653D01*
Y304117D01*
X293347D01*
Y298100D01*
X280574D01*
Y304117D01*
X273269D01*
Y298100D01*
X266200D01*
Y317759D01*
X266300Y317800D01*
Y317800D01*
X266300Y317800D01*
X272969D01*
Y317500D01*
X280874D01*
Y317800D01*
X291772D01*
Y311772D01*
X302228D01*
Y317800D01*
X307600D01*
Y299072D01*
D02*
G37*
G36*
X255100Y368100D02*
Y278600D01*
X249303D01*
X248986Y278987D01*
X248988Y279000D01*
X248837Y279761D01*
X248406Y280406D01*
X247761Y280837D01*
X247000Y280988D01*
X246758Y280940D01*
X246372Y281257D01*
Y284800D01*
X246650D01*
Y293300D01*
X241366D01*
Y298528D01*
X242519D01*
Y303472D01*
X238122D01*
Y307331D01*
X240125D01*
Y311982D01*
X240587Y312173D01*
X241875Y310886D01*
Y307331D01*
X246818D01*
Y312668D01*
X243264D01*
X236122Y319811D01*
Y325700D01*
X239300D01*
Y328757D01*
X243000D01*
X243858Y328928D01*
X244586Y329414D01*
X244586Y329414D01*
X244586Y329414D01*
X246830Y331658D01*
X246830Y331658D01*
X246830Y331658D01*
X247316Y332386D01*
X247487Y333244D01*
Y337528D01*
X247519D01*
Y342472D01*
X247487D01*
Y349756D01*
X247487Y349756D01*
X247487Y349756D01*
Y349756D01*
X247487D01*
X247487Y349756D01*
X247316Y350614D01*
X247126Y350899D01*
X247072Y351170D01*
X246586Y351897D01*
X229897Y368586D01*
X229170Y369072D01*
X228311Y369243D01*
X200929D01*
X191586Y378586D01*
X191007Y378973D01*
Y382031D01*
X189743D01*
Y390500D01*
X189572Y391358D01*
X189086Y392086D01*
X188358Y392572D01*
X187500Y392743D01*
X186642Y392572D01*
X185914Y392086D01*
X185428Y391358D01*
X185257Y390500D01*
Y382031D01*
X184489D01*
Y371969D01*
X185505D01*
Y370177D01*
X183414Y368086D01*
X182928Y367358D01*
X182757Y366500D01*
Y356000D01*
X182928Y355142D01*
X183414Y354414D01*
X184142Y353928D01*
X185000Y353757D01*
X185858Y353928D01*
X186586Y354414D01*
X187072Y355142D01*
X187243Y356000D01*
Y365571D01*
X189334Y367662D01*
X189334Y367662D01*
X189334Y367662D01*
X189820Y368390D01*
X189991Y369248D01*
Y371969D01*
X191007D01*
Y372167D01*
X191469Y372359D01*
X198414Y365414D01*
X199142Y364928D01*
X200000Y364757D01*
X227382D01*
X237377Y354762D01*
X237186Y354300D01*
X235700D01*
Y345100D01*
X236379D01*
Y338965D01*
X234207Y336793D01*
X233964Y336429D01*
X233878Y336000D01*
X233878Y336000D01*
Y335278D01*
X233400Y335133D01*
X233293Y335293D01*
X233293Y335293D01*
X227793Y340793D01*
X227429Y341036D01*
X227000Y341122D01*
X227000Y341122D01*
X222118D01*
X213668Y349571D01*
Y352878D01*
X215000D01*
X215000Y352878D01*
X215429Y352964D01*
X215793Y353207D01*
X219739Y357153D01*
X220180Y356918D01*
X220157Y356800D01*
Y349800D01*
X220328Y348942D01*
X220700Y348384D01*
Y345100D01*
X224300D01*
Y348434D01*
X224572Y348842D01*
X224743Y349700D01*
X224643Y350203D01*
Y356800D01*
X224472Y357658D01*
X224312Y357898D01*
X224699Y358215D01*
X225879Y357035D01*
Y354300D01*
X225700D01*
Y345100D01*
X229300D01*
Y354300D01*
X228121D01*
Y356639D01*
X228584Y356830D01*
X230821Y354593D01*
X230700Y354300D01*
X230700D01*
X230700Y354300D01*
Y345100D01*
X234300D01*
Y354300D01*
X233822D01*
X233622Y354500D01*
Y354500D01*
X233622D01*
D01*
D01*
D01*
X233536Y354929D01*
X233293Y355293D01*
X233293Y355293D01*
X226793Y361793D01*
X226429Y362036D01*
X226000Y362122D01*
X226000Y362122D01*
X208000D01*
X208000Y362122D01*
X207571Y362036D01*
X207207Y361793D01*
X204535Y359121D01*
X202818D01*
Y360668D01*
X197875D01*
Y355331D01*
D01*
Y355331D01*
X197665Y355121D01*
X196125D01*
Y355331D01*
X196125D01*
Y360668D01*
X191182D01*
Y355331D01*
X192225D01*
Y353000D01*
X192225Y353000D01*
X192225Y353000D01*
Y351669D01*
X191182D01*
Y346332D01*
X196125D01*
Y351669D01*
X194468D01*
Y352535D01*
X194811Y352878D01*
X208331D01*
Y351775D01*
X206654D01*
X206653Y351775D01*
X206224Y351690D01*
X205860Y351447D01*
X205860Y351447D01*
X204535Y350121D01*
X202818D01*
Y351669D01*
X197875D01*
Y346332D01*
X202818D01*
Y347879D01*
X205000D01*
X205000Y347878D01*
X205429Y347964D01*
X205793Y348207D01*
X207118Y349532D01*
X208331D01*
Y348182D01*
X211885D01*
X220484Y339583D01*
X220293Y339122D01*
X215818D01*
Y340669D01*
X210875D01*
Y335332D01*
X215818D01*
Y336878D01*
X223535D01*
X225700Y334714D01*
Y325700D01*
X226378D01*
Y318669D01*
X225875D01*
Y313332D01*
X230245D01*
X230391Y312853D01*
X230144Y312688D01*
X229713Y312043D01*
X229562Y311282D01*
X229713Y310522D01*
X230144Y309877D01*
X230789Y309446D01*
X231459Y309312D01*
X234128Y306643D01*
Y302375D01*
X233650Y302229D01*
X233543Y302390D01*
X230818Y305115D01*
Y308668D01*
X225875D01*
Y305115D01*
X224587Y303827D01*
X224125Y304018D01*
Y308668D01*
X222775D01*
Y313332D01*
X224125D01*
Y318669D01*
X223622D01*
Y325700D01*
X224300D01*
Y334900D01*
X220700D01*
Y325700D01*
X221378D01*
Y318669D01*
X219182D01*
Y313332D01*
X220532D01*
Y308668D01*
X219182D01*
Y303331D01*
X223439D01*
X223478Y303237D01*
X223200Y302821D01*
X210853D01*
Y305553D01*
X203547D01*
Y298247D01*
X210853D01*
Y300578D01*
X224046D01*
X224046Y300578D01*
X224476Y300664D01*
X224839Y300907D01*
X227264Y303331D01*
X229429D01*
X231628Y301132D01*
Y294228D01*
X231150Y294083D01*
X231043Y294243D01*
X231043Y294243D01*
X229893Y295393D01*
X229529Y295636D01*
X229100Y295722D01*
X229100Y295722D01*
X196732D01*
X193128Y299325D01*
X193691Y300058D01*
X194059Y300946D01*
X194184Y301900D01*
X194059Y302854D01*
X193691Y303742D01*
X193105Y304505D01*
X192342Y305091D01*
X191454Y305459D01*
X190500Y305584D01*
X189546Y305459D01*
X188658Y305091D01*
X187895Y304505D01*
X187309Y303742D01*
X186941Y302854D01*
X186816Y301900D01*
X186941Y300946D01*
X187309Y300058D01*
X187895Y299295D01*
X188658Y298709D01*
X189546Y298341D01*
X190500Y298216D01*
X191000Y298282D01*
X195474Y293807D01*
X195474Y293807D01*
X195838Y293564D01*
X195838Y293564D01*
X195838Y293564D01*
D01*
X195838Y293564D01*
X195838Y293564D01*
X196267Y293478D01*
X196267Y293478D01*
X221350D01*
Y293300D01*
X221350D01*
Y291293D01*
X214050D01*
X213192Y291122D01*
X212464Y290636D01*
X208414Y286586D01*
X207928Y285858D01*
X207757Y285000D01*
Y284031D01*
X207528D01*
Y283999D01*
X204000D01*
X203142Y283828D01*
X202414Y283342D01*
X201928Y282614D01*
X201757Y281756D01*
X201928Y280897D01*
X202414Y280170D01*
X203142Y279684D01*
X204000Y279513D01*
X207528D01*
Y279481D01*
X212472D01*
Y284031D01*
X212472D01*
X212472Y284299D01*
X214979Y286807D01*
X221350D01*
Y284800D01*
X223327D01*
X223563Y284359D01*
X223163Y283761D01*
X223012Y283000D01*
X223163Y282239D01*
X223594Y281594D01*
X224239Y281163D01*
X225000Y281012D01*
X225761Y281163D01*
X226406Y281594D01*
X226837Y282239D01*
X226988Y283000D01*
X226837Y283761D01*
X226638Y284059D01*
X226873Y284500D01*
X227250D01*
Y289050D01*
X228250D01*
Y284500D01*
X229450D01*
Y284800D01*
X234228D01*
X234457Y284457D01*
X234821Y284214D01*
X235250Y284128D01*
X235679Y284214D01*
X236035Y284451D01*
X236388Y284098D01*
X236163Y283761D01*
X236012Y283000D01*
X236163Y282239D01*
X236594Y281594D01*
X237239Y281163D01*
X238000Y281012D01*
X238761Y281163D01*
X239406Y281594D01*
X239837Y282239D01*
X239988Y283000D01*
X239837Y283761D01*
X239437Y284359D01*
X239673Y284800D01*
X241629D01*
Y280429D01*
X241594Y280406D01*
X241163Y279761D01*
X241012Y279000D01*
X241015Y278987D01*
X240697Y278600D01*
X212772D01*
Y278819D01*
X210500D01*
Y276244D01*
X209500D01*
Y278819D01*
X207228D01*
Y278600D01*
X202500D01*
X192700Y268800D01*
X100454D01*
X100101Y269154D01*
X100400Y411600D01*
X169757D01*
Y390500D01*
X169928Y389642D01*
X170414Y388914D01*
X171142Y388428D01*
X172000Y388257D01*
X172858Y388428D01*
X173586Y388914D01*
X174072Y389642D01*
X174243Y390500D01*
Y411600D01*
X185505D01*
Y409031D01*
X184489D01*
Y406243D01*
X182500D01*
X181642Y406072D01*
X180914Y405586D01*
X175414Y400086D01*
X174928Y399358D01*
X174757Y398500D01*
Y346000D01*
X174825Y345657D01*
Y342343D01*
X179375D01*
Y350043D01*
X179243D01*
Y397571D01*
X183429Y401757D01*
X184489D01*
Y398969D01*
X191007D01*
Y401180D01*
X191468Y401373D01*
X220824Y372403D01*
X221555Y371922D01*
X222415Y371757D01*
X223272Y371933D01*
X223997Y372424D01*
X224478Y373155D01*
X224643Y374015D01*
X224467Y374872D01*
X223976Y375597D01*
X193576Y405597D01*
X193216Y405833D01*
X192858Y406072D01*
X192851Y406074D01*
X192845Y406078D01*
X192422Y406159D01*
X192000Y406243D01*
X191007D01*
Y409031D01*
X189991D01*
Y411600D01*
X211600D01*
X255100Y368100D01*
D02*
G37*
G36*
X602500Y129000D02*
X592500D01*
Y130500D01*
X575000D01*
Y139000D01*
X602500D01*
Y129000D01*
D02*
G37*
G36*
X557000Y136500D02*
X570000D01*
Y130500D01*
X557500D01*
Y117000D01*
X552500D01*
Y142500D01*
X557000D01*
Y136500D01*
D02*
G37*
G36*
X571000Y113000D02*
X567500D01*
Y126000D01*
X571000D01*
Y113000D01*
D02*
G37*
G36*
X576000Y140000D02*
X574000D01*
Y129500D01*
X589500D01*
Y124500D01*
X584500D01*
X582000Y127000D01*
X566000D01*
X565500Y126500D01*
Y116000D01*
X559000D01*
Y129500D01*
X571000D01*
Y139500D01*
X570500Y140000D01*
X568500D01*
Y146500D01*
X576000D01*
Y140000D01*
D02*
G37*
G36*
X602500Y112500D02*
X574000D01*
Y126000D01*
X581000D01*
X584000Y123000D01*
X592500D01*
Y128000D01*
X602500D01*
Y112500D01*
D02*
G37*
%LPC*%
G36*
X207200Y325584D02*
X206246Y325459D01*
X205358Y325091D01*
X204595Y324505D01*
X204009Y323742D01*
X203641Y322854D01*
X203516Y321900D01*
X203641Y320946D01*
X204009Y320058D01*
X204595Y319295D01*
X205358Y318709D01*
X206246Y318341D01*
X207200Y318216D01*
X208154Y318341D01*
X209042Y318709D01*
X209805Y319295D01*
X210391Y320058D01*
X210759Y320946D01*
X210884Y321900D01*
X210759Y322854D01*
X210391Y323742D01*
X209805Y324505D01*
X209042Y325091D01*
X208154Y325459D01*
X207200Y325584D01*
D02*
G37*
G36*
X128000Y338230D02*
X126785Y338110D01*
X125616Y337756D01*
X124539Y337180D01*
X123595Y336405D01*
X122820Y335461D01*
X122244Y334384D01*
X121890Y333215D01*
X121770Y332000D01*
X121890Y330785D01*
X122244Y329616D01*
X122820Y328539D01*
X123595Y327595D01*
X124539Y326820D01*
X125616Y326244D01*
X126785Y325890D01*
X128000Y325770D01*
X129215Y325890D01*
X130384Y326244D01*
X131461Y326820D01*
X132405Y327595D01*
X133180Y328539D01*
X133756Y329616D01*
X134110Y330785D01*
X134230Y332000D01*
X134110Y333215D01*
X133756Y334384D01*
X133180Y335461D01*
X132405Y336405D01*
X131461Y337180D01*
X130384Y337756D01*
X129215Y338110D01*
X128000Y338230D01*
D02*
G37*
G36*
X209125Y340669D02*
X204182D01*
Y337115D01*
X192620Y325553D01*
X186847D01*
Y318247D01*
X194153D01*
Y323913D01*
X205571Y335332D01*
X209125D01*
Y340669D01*
D02*
G37*
G36*
X276421Y316500D02*
X272969D01*
Y311472D01*
X276421D01*
Y316500D01*
D02*
G37*
G36*
X280874D02*
X277421D01*
Y311472D01*
X280874D01*
Y316500D01*
D02*
G37*
G36*
X179375Y336657D02*
X174825D01*
Y328957D01*
X175978D01*
Y314065D01*
X175035Y313122D01*
X171553D01*
Y315653D01*
X164247D01*
Y313122D01*
X151270D01*
X151014Y313740D01*
X150461Y314461D01*
X149740Y315014D01*
X148901Y315361D01*
X148000Y315480D01*
X147099Y315361D01*
X146260Y315014D01*
X145539Y314461D01*
X144986Y313740D01*
X144639Y312901D01*
X144520Y312000D01*
X144639Y311099D01*
X144986Y310260D01*
X145539Y309539D01*
X146260Y308986D01*
X147099Y308639D01*
X148000Y308520D01*
X148901Y308639D01*
X149740Y308986D01*
X150461Y309539D01*
X151014Y310260D01*
X151270Y310878D01*
X164247D01*
Y308347D01*
X171553D01*
Y310878D01*
X175035D01*
X178685Y307228D01*
Y286775D01*
X175957D01*
Y282225D01*
X183657D01*
Y286775D01*
X180929D01*
Y307693D01*
X180929Y307693D01*
X180843Y308122D01*
X180600Y308486D01*
X180600Y308486D01*
X178670Y310417D01*
X178861Y310878D01*
X186969D01*
X187309Y310058D01*
X187895Y309295D01*
X188658Y308709D01*
X189546Y308341D01*
X190500Y308216D01*
X191454Y308341D01*
X192342Y308709D01*
X193105Y309295D01*
X193691Y310058D01*
X194059Y310946D01*
X194184Y311900D01*
X194059Y312854D01*
X193691Y313742D01*
X193105Y314505D01*
X192342Y315091D01*
X191454Y315459D01*
X190500Y315584D01*
X189546Y315459D01*
X188658Y315091D01*
X187895Y314505D01*
X187309Y313742D01*
X187052Y313122D01*
X178521D01*
X178203Y313508D01*
X178222Y313600D01*
X178222Y313600D01*
Y328957D01*
X179375D01*
Y336657D01*
D02*
G37*
G36*
X154500Y394500D02*
X124500D01*
Y364500D01*
X154500D01*
Y394500D01*
D02*
G37*
G36*
X205752Y376500D02*
X202693D01*
Y371669D01*
X205752D01*
Y376500D01*
D02*
G37*
G36*
X209811D02*
X206752D01*
Y371669D01*
X209811D01*
Y376500D01*
D02*
G37*
G36*
X253331Y342772D02*
X251256D01*
Y340500D01*
X253331D01*
Y342772D01*
D02*
G37*
G36*
X250256Y339500D02*
X248181D01*
Y337228D01*
X250256D01*
Y339500D01*
D02*
G37*
G36*
X253331D02*
X251256D01*
Y337228D01*
X253331D01*
Y339500D01*
D02*
G37*
G36*
X250256Y342772D02*
X248181D01*
Y340500D01*
X250256D01*
Y342772D01*
D02*
G37*
G36*
X245256Y300500D02*
X243181D01*
Y298228D01*
X245256D01*
Y300500D01*
D02*
G37*
G36*
X248331D02*
X246256D01*
Y298228D01*
X248331D01*
Y300500D01*
D02*
G37*
G36*
X147500Y301500D02*
X144283D01*
X144346Y301021D01*
X144724Y300109D01*
X145326Y299325D01*
X146109Y298724D01*
X147021Y298346D01*
X147500Y298284D01*
Y301500D01*
D02*
G37*
G36*
X171821D02*
X168400D01*
Y298079D01*
X168932Y298149D01*
X169893Y298547D01*
X170719Y299181D01*
X171353Y300007D01*
X171751Y300968D01*
X171821Y301500D01*
D02*
G37*
G36*
X197043Y286775D02*
X189343D01*
Y282225D01*
X190950D01*
Y281622D01*
X183414Y274086D01*
X182928Y273358D01*
X182757Y272500D01*
X182928Y271642D01*
X183414Y270914D01*
X184142Y270428D01*
X185000Y270257D01*
X185858Y270428D01*
X186586Y270914D01*
X194779Y279107D01*
X194779Y279107D01*
X194779Y279107D01*
X195265Y279835D01*
X195436Y280693D01*
Y282225D01*
X197043D01*
Y286775D01*
D02*
G37*
G36*
X128000Y298230D02*
X126785Y298110D01*
X125616Y297756D01*
X124539Y297180D01*
X123595Y296405D01*
X122820Y295461D01*
X122244Y294384D01*
X121890Y293215D01*
X121770Y292000D01*
X121890Y290785D01*
X122244Y289616D01*
X122820Y288539D01*
X123595Y287595D01*
X124539Y286820D01*
X125616Y286244D01*
X126785Y285890D01*
X128000Y285770D01*
X129215Y285890D01*
X130384Y286244D01*
X131461Y286820D01*
X132405Y287595D01*
X133180Y288539D01*
X133756Y289616D01*
X134110Y290785D01*
X134230Y292000D01*
X134110Y293215D01*
X133756Y294384D01*
X133180Y295461D01*
X132405Y296405D01*
X131461Y297180D01*
X130384Y297756D01*
X129215Y298110D01*
X128000Y298230D01*
D02*
G37*
G36*
X167400Y301500D02*
X163979D01*
X164049Y300968D01*
X164447Y300007D01*
X165081Y299181D01*
X165907Y298547D01*
X166868Y298149D01*
X167400Y298079D01*
Y301500D01*
D02*
G37*
G36*
X151716D02*
X148500D01*
Y298284D01*
X148979Y298346D01*
X149891Y298724D01*
X150674Y299325D01*
X151276Y300109D01*
X151654Y301021D01*
X151716Y301500D01*
D02*
G37*
G36*
X167400Y305921D02*
X166868Y305851D01*
X165907Y305453D01*
X165081Y304819D01*
X164447Y303993D01*
X164049Y303032D01*
X163979Y302500D01*
X167400D01*
Y305921D01*
D02*
G37*
G36*
X168400D02*
Y302500D01*
X171821D01*
X171751Y303032D01*
X171353Y303993D01*
X170719Y304819D01*
X169893Y305453D01*
X168932Y305851D01*
X168400Y305921D01*
D02*
G37*
G36*
X207200Y315584D02*
X206246Y315459D01*
X205358Y315091D01*
X204595Y314505D01*
X204009Y313742D01*
X203641Y312854D01*
X203516Y311900D01*
X203641Y310946D01*
X204009Y310058D01*
X204595Y309295D01*
X205358Y308709D01*
X206246Y308341D01*
X207200Y308216D01*
X208154Y308341D01*
X209042Y308709D01*
X209805Y309295D01*
X210391Y310058D01*
X210759Y310946D01*
X210884Y311900D01*
X210759Y312854D01*
X210391Y313742D01*
X209805Y314505D01*
X209042Y315091D01*
X208154Y315459D01*
X207200Y315584D01*
D02*
G37*
G36*
X148500Y305716D02*
Y302500D01*
X151716D01*
X151654Y302979D01*
X151276Y303891D01*
X150674Y304675D01*
X149891Y305276D01*
X148979Y305654D01*
X148500Y305716D01*
D02*
G37*
G36*
X245256Y303772D02*
X243181D01*
Y301500D01*
X245256D01*
Y303772D01*
D02*
G37*
G36*
X248331D02*
X246256D01*
Y301500D01*
X248331D01*
Y303772D01*
D02*
G37*
G36*
X147500Y305716D02*
X147021Y305654D01*
X146109Y305276D01*
X145326Y304675D01*
X144724Y303891D01*
X144346Y302979D01*
X144283Y302500D01*
X147500D01*
Y305716D01*
D02*
G37*
G36*
X292500Y460461D02*
X289441D01*
Y455236D01*
X292500D01*
Y460461D01*
D02*
G37*
G36*
X155977Y454500D02*
X151500D01*
Y450023D01*
X152305Y450129D01*
X153522Y450632D01*
X154566Y451434D01*
X155368Y452478D01*
X155871Y453695D01*
X155977Y454500D01*
D02*
G37*
G36*
X151500Y459977D02*
Y455500D01*
X155977D01*
X155871Y456305D01*
X155368Y457522D01*
X154566Y458566D01*
X153522Y459368D01*
X152305Y459871D01*
X151500Y459977D01*
D02*
G37*
G36*
X296559Y460461D02*
X293500D01*
Y455236D01*
X296559D01*
Y460461D01*
D02*
G37*
G36*
X195500Y447850D02*
X191457D01*
Y444791D01*
X195500D01*
Y447850D01*
D02*
G37*
G36*
X200543Y443791D02*
X196500D01*
Y440732D01*
X200543D01*
Y443791D01*
D02*
G37*
G36*
X150500Y454500D02*
X146023D01*
X146129Y453695D01*
X146633Y452478D01*
X147434Y451434D01*
X148478Y450632D01*
X149695Y450129D01*
X150500Y450023D01*
Y454500D01*
D02*
G37*
G36*
X200543Y447850D02*
X196500D01*
Y444791D01*
X200543D01*
Y447850D01*
D02*
G37*
G36*
X292500Y466685D02*
X289441D01*
Y461461D01*
X292500D01*
Y466685D01*
D02*
G37*
G36*
X189900Y491841D02*
X188673Y491679D01*
X187530Y491206D01*
X186548Y490452D01*
X185795Y489470D01*
X185321Y488327D01*
X185159Y487100D01*
X185321Y485873D01*
X185795Y484730D01*
X186548Y483748D01*
X187530Y482995D01*
X188673Y482521D01*
X189900Y482359D01*
X191127Y482521D01*
X192270Y482995D01*
X193252Y483748D01*
X194005Y484730D01*
X194479Y485873D01*
X194641Y487100D01*
X194479Y488327D01*
X194005Y489470D01*
X193252Y490452D01*
X192270Y491206D01*
X191127Y491679D01*
X189900Y491841D01*
D02*
G37*
G36*
X207377Y486600D02*
X202900D01*
Y482123D01*
X203705Y482229D01*
X204922Y482732D01*
X205966Y483534D01*
X206768Y484578D01*
X207271Y485795D01*
X207377Y486600D01*
D02*
G37*
G36*
X202900Y492077D02*
Y487600D01*
X207377D01*
X207271Y488405D01*
X206768Y489622D01*
X205966Y490666D01*
X204922Y491468D01*
X203705Y491971D01*
X202900Y492077D01*
D02*
G37*
G36*
X201900D02*
X201095Y491971D01*
X199878Y491468D01*
X198834Y490666D01*
X198032Y489622D01*
X197529Y488405D01*
X197423Y487600D01*
X201900D01*
Y492077D01*
D02*
G37*
G36*
X202700Y480041D02*
X201473Y479879D01*
X200330Y479405D01*
X199348Y478652D01*
X198595Y477670D01*
X198121Y476527D01*
X197959Y475300D01*
X198121Y474073D01*
X198595Y472930D01*
X199348Y471948D01*
X200330Y471195D01*
X201473Y470721D01*
X202700Y470559D01*
X203927Y470721D01*
X205070Y471195D01*
X206052Y471948D01*
X206805Y472930D01*
X207279Y474073D01*
X207441Y475300D01*
X207279Y476527D01*
X206805Y477670D01*
X206052Y478652D01*
X205070Y479405D01*
X203927Y479879D01*
X202700Y480041D01*
D02*
G37*
G36*
X296559Y466685D02*
X293500D01*
Y461461D01*
X296559D01*
Y466685D01*
D02*
G37*
G36*
X201900Y486600D02*
X197423D01*
X197529Y485795D01*
X198032Y484578D01*
X198834Y483534D01*
X199878Y482732D01*
X201095Y482229D01*
X201900Y482123D01*
Y486600D01*
D02*
G37*
G36*
X111000Y479236D02*
X109904Y479092D01*
X108882Y478669D01*
X108004Y477995D01*
X107331Y477118D01*
X106908Y476096D01*
X106764Y475000D01*
X106908Y473904D01*
X107331Y472882D01*
X108004Y472005D01*
X108882Y471331D01*
X109904Y470908D01*
X111000Y470764D01*
X112096Y470908D01*
X113118Y471331D01*
X113996Y472005D01*
X114669Y472882D01*
X115092Y473904D01*
X115236Y475000D01*
X115092Y476096D01*
X114669Y477118D01*
X113996Y477995D01*
X113118Y478669D01*
X112096Y479092D01*
X111000Y479236D01*
D02*
G37*
G36*
X195500Y443791D02*
X191457D01*
Y440732D01*
X195500D01*
Y443791D01*
D02*
G37*
G36*
X316764Y398559D02*
X311539D01*
Y395500D01*
X316764D01*
Y398559D01*
D02*
G37*
G36*
X310539D02*
X305315D01*
Y395500D01*
X310539D01*
Y398559D01*
D02*
G37*
G36*
X209811Y403500D02*
X206752D01*
Y398669D01*
X209811D01*
Y403500D01*
D02*
G37*
G36*
X205752D02*
X202693D01*
Y398669D01*
X205752D01*
Y403500D01*
D02*
G37*
G36*
X209811Y382331D02*
X206752D01*
Y377500D01*
X209811D01*
Y382331D01*
D02*
G37*
G36*
X205752D02*
X202693D01*
Y377500D01*
X205752D01*
Y382331D01*
D02*
G37*
G36*
X316764Y394500D02*
X311539D01*
Y391441D01*
X316764D01*
Y394500D01*
D02*
G37*
G36*
X310539D02*
X305315D01*
Y391441D01*
X310539D01*
Y394500D01*
D02*
G37*
G36*
X205752Y409331D02*
X202693D01*
Y404500D01*
X205752D01*
Y409331D01*
D02*
G37*
G36*
X150500Y430000D02*
X146000D01*
Y425500D01*
X150500D01*
Y430000D01*
D02*
G37*
G36*
X317764Y426559D02*
X312539D01*
Y423500D01*
X317764D01*
Y426559D01*
D02*
G37*
G36*
X232750Y452493D02*
X231892Y452322D01*
X231164Y451836D01*
X230914Y451586D01*
X230428Y450858D01*
X230257Y450000D01*
X230428Y449142D01*
X230507Y449023D01*
Y441550D01*
X227150D01*
Y436450D01*
X238350D01*
Y441550D01*
X234993D01*
Y450250D01*
X234822Y451108D01*
X234336Y451836D01*
X233608Y452322D01*
X232750Y452493D01*
D02*
G37*
G36*
X111000Y439236D02*
X109904Y439092D01*
X108882Y438669D01*
X108004Y437995D01*
X107331Y437118D01*
X106908Y436096D01*
X106764Y435000D01*
X106908Y433904D01*
X107331Y432882D01*
X108004Y432004D01*
X108882Y431331D01*
X109904Y430908D01*
X111000Y430764D01*
X112096Y430908D01*
X113118Y431331D01*
X113996Y432004D01*
X114669Y432882D01*
X115092Y433904D01*
X115236Y435000D01*
X115092Y436096D01*
X114669Y437118D01*
X113996Y437995D01*
X113118Y438669D01*
X112096Y439092D01*
X111000Y439236D01*
D02*
G37*
G36*
X311539Y422500D02*
X306315D01*
Y419441D01*
X311539D01*
Y422500D01*
D02*
G37*
G36*
X209811Y409331D02*
X206752D01*
Y404500D01*
X209811D01*
Y409331D01*
D02*
G37*
G36*
X311539Y426559D02*
X306315D01*
Y423500D01*
X311539D01*
Y426559D01*
D02*
G37*
G36*
X317764Y422500D02*
X312539D01*
Y419441D01*
X317764D01*
Y422500D01*
D02*
G37*
%LPD*%
D10*
X493700Y172266D02*
D03*
X491732D02*
D03*
X489763D02*
D03*
X487794D02*
D03*
X485826D02*
D03*
X483857D02*
D03*
X481889D02*
D03*
X479920D02*
D03*
X477952D02*
D03*
X475983D02*
D03*
X474015D02*
D03*
X472047D02*
D03*
X470078D02*
D03*
X468110D02*
D03*
X466141D02*
D03*
X464173D02*
D03*
X462204D02*
D03*
X460236D02*
D03*
X458267D02*
D03*
X456298D02*
D03*
X454330D02*
D03*
X452361D02*
D03*
X450393D02*
D03*
X448424D02*
D03*
Y201400D02*
D03*
X491732D02*
D03*
X493700D02*
D03*
X450393D02*
D03*
X452361D02*
D03*
X454330D02*
D03*
X456298D02*
D03*
X458267D02*
D03*
X460236D02*
D03*
X462204D02*
D03*
X464173D02*
D03*
X466141D02*
D03*
X468110D02*
D03*
X470078D02*
D03*
X472047D02*
D03*
X474015D02*
D03*
X475983D02*
D03*
X477952D02*
D03*
X479920D02*
D03*
X481889D02*
D03*
X483857D02*
D03*
X485826D02*
D03*
X487794D02*
D03*
X489763D02*
D03*
X363200Y417234D02*
D03*
X365168D02*
D03*
X367137D02*
D03*
X369106D02*
D03*
X371074D02*
D03*
X373042D02*
D03*
X375011D02*
D03*
X376979D02*
D03*
X378948D02*
D03*
X380917D02*
D03*
X382885D02*
D03*
X384854D02*
D03*
X386822D02*
D03*
X388790D02*
D03*
X390759D02*
D03*
X392727D02*
D03*
X394696D02*
D03*
X396665D02*
D03*
X398633D02*
D03*
X400601D02*
D03*
X402570D02*
D03*
X404538D02*
D03*
X406507D02*
D03*
X408475D02*
D03*
Y388100D02*
D03*
X365168D02*
D03*
X363200D02*
D03*
X406507D02*
D03*
X404538D02*
D03*
X402570D02*
D03*
X400601D02*
D03*
X398633D02*
D03*
X396665D02*
D03*
X394696D02*
D03*
X392727D02*
D03*
X390759D02*
D03*
X388790D02*
D03*
X386822D02*
D03*
X384854D02*
D03*
X382885D02*
D03*
X380917D02*
D03*
X378948D02*
D03*
X376979D02*
D03*
X375011D02*
D03*
X373042D02*
D03*
X371074D02*
D03*
X369106D02*
D03*
X367137D02*
D03*
X413900Y172266D02*
D03*
X411932D02*
D03*
X409963D02*
D03*
X407995D02*
D03*
X406026D02*
D03*
X404058D02*
D03*
X402089D02*
D03*
X400120D02*
D03*
X398152D02*
D03*
X396183D02*
D03*
X394215D02*
D03*
X392247D02*
D03*
X390278D02*
D03*
X388310D02*
D03*
X386341D02*
D03*
X384372D02*
D03*
X382404D02*
D03*
X380435D02*
D03*
X378467D02*
D03*
X376499D02*
D03*
X374530D02*
D03*
X372562D02*
D03*
X370593D02*
D03*
X368624D02*
D03*
Y201400D02*
D03*
X411932D02*
D03*
X413900D02*
D03*
X370593D02*
D03*
X372562D02*
D03*
X374530D02*
D03*
X376499D02*
D03*
X378467D02*
D03*
X380435D02*
D03*
X382404D02*
D03*
X384372D02*
D03*
X386341D02*
D03*
X388310D02*
D03*
X390278D02*
D03*
X392247D02*
D03*
X394215D02*
D03*
X396183D02*
D03*
X398152D02*
D03*
X400120D02*
D03*
X402089D02*
D03*
X404058D02*
D03*
X406026D02*
D03*
X407995D02*
D03*
X409963D02*
D03*
X451500Y417234D02*
D03*
X453469D02*
D03*
X455437D02*
D03*
X457406D02*
D03*
X459374D02*
D03*
X461342D02*
D03*
X463311D02*
D03*
X465279D02*
D03*
X467248D02*
D03*
X469216D02*
D03*
X471185D02*
D03*
X473153D02*
D03*
X475122D02*
D03*
X477091D02*
D03*
X479059D02*
D03*
X481028D02*
D03*
X482996D02*
D03*
X484965D02*
D03*
X486933D02*
D03*
X488902D02*
D03*
X490870D02*
D03*
X492838D02*
D03*
X494807D02*
D03*
X496775D02*
D03*
Y388100D02*
D03*
X453469D02*
D03*
X451500D02*
D03*
X494807D02*
D03*
X492838D02*
D03*
X490870D02*
D03*
X488902D02*
D03*
X486933D02*
D03*
X484965D02*
D03*
X482996D02*
D03*
X481028D02*
D03*
X479059D02*
D03*
X477091D02*
D03*
X475122D02*
D03*
X473153D02*
D03*
X471185D02*
D03*
X469216D02*
D03*
X467248D02*
D03*
X465279D02*
D03*
X463311D02*
D03*
X461342D02*
D03*
X459374D02*
D03*
X457406D02*
D03*
X455437D02*
D03*
D11*
X567434Y354600D02*
D03*
Y352631D02*
D03*
Y350663D02*
D03*
Y348694D02*
D03*
Y346726D02*
D03*
Y344758D02*
D03*
Y342789D02*
D03*
Y340821D02*
D03*
Y338852D02*
D03*
Y336883D02*
D03*
Y334915D02*
D03*
Y332946D02*
D03*
Y330978D02*
D03*
Y329010D02*
D03*
Y327041D02*
D03*
Y325073D02*
D03*
Y323104D02*
D03*
Y321135D02*
D03*
Y319167D02*
D03*
Y317198D02*
D03*
Y315230D02*
D03*
Y313262D02*
D03*
Y311293D02*
D03*
Y309325D02*
D03*
X538300D02*
D03*
Y352631D02*
D03*
Y354600D02*
D03*
Y311293D02*
D03*
Y313262D02*
D03*
Y315230D02*
D03*
Y317198D02*
D03*
Y319167D02*
D03*
Y321135D02*
D03*
Y323104D02*
D03*
Y325073D02*
D03*
Y327041D02*
D03*
Y329010D02*
D03*
Y330978D02*
D03*
Y332946D02*
D03*
Y334915D02*
D03*
Y336883D02*
D03*
Y338852D02*
D03*
Y340821D02*
D03*
Y342789D02*
D03*
Y344758D02*
D03*
Y346726D02*
D03*
Y348694D02*
D03*
Y350663D02*
D03*
X567434Y285700D02*
D03*
Y283732D02*
D03*
Y281763D02*
D03*
Y279795D02*
D03*
Y277826D02*
D03*
Y275857D02*
D03*
Y273889D02*
D03*
Y271920D02*
D03*
Y269952D02*
D03*
Y267984D02*
D03*
Y266015D02*
D03*
Y264047D02*
D03*
Y262078D02*
D03*
Y260109D02*
D03*
Y258141D02*
D03*
Y256172D02*
D03*
Y254204D02*
D03*
Y252236D02*
D03*
Y250267D02*
D03*
Y248299D02*
D03*
Y246330D02*
D03*
Y244361D02*
D03*
Y242393D02*
D03*
Y240424D02*
D03*
X538300D02*
D03*
Y283732D02*
D03*
Y285700D02*
D03*
Y242393D02*
D03*
Y244361D02*
D03*
Y246330D02*
D03*
Y248299D02*
D03*
Y250267D02*
D03*
Y252236D02*
D03*
Y254204D02*
D03*
Y256172D02*
D03*
Y258141D02*
D03*
Y260109D02*
D03*
Y262078D02*
D03*
Y264047D02*
D03*
Y266015D02*
D03*
Y267984D02*
D03*
Y269952D02*
D03*
Y271920D02*
D03*
Y273889D02*
D03*
Y275857D02*
D03*
Y277826D02*
D03*
Y279795D02*
D03*
Y281763D02*
D03*
X278866Y207500D02*
D03*
Y209469D02*
D03*
Y211437D02*
D03*
Y213405D02*
D03*
Y215374D02*
D03*
Y217342D02*
D03*
Y219311D02*
D03*
Y221280D02*
D03*
Y223248D02*
D03*
Y225217D02*
D03*
Y227185D02*
D03*
Y229153D02*
D03*
Y231122D02*
D03*
Y233090D02*
D03*
Y235059D02*
D03*
Y237028D02*
D03*
Y238996D02*
D03*
Y240965D02*
D03*
Y242933D02*
D03*
Y244901D02*
D03*
Y246870D02*
D03*
Y248838D02*
D03*
Y250807D02*
D03*
Y252776D02*
D03*
X308000D02*
D03*
Y209469D02*
D03*
Y207500D02*
D03*
Y250807D02*
D03*
Y248838D02*
D03*
Y246870D02*
D03*
Y244901D02*
D03*
Y242933D02*
D03*
Y240965D02*
D03*
Y238996D02*
D03*
Y237028D02*
D03*
Y235059D02*
D03*
Y233090D02*
D03*
Y231122D02*
D03*
Y229153D02*
D03*
Y227185D02*
D03*
Y225217D02*
D03*
Y223248D02*
D03*
Y221280D02*
D03*
Y219311D02*
D03*
Y217342D02*
D03*
Y215374D02*
D03*
Y213405D02*
D03*
Y211437D02*
D03*
D12*
X196000Y455709D02*
D03*
Y444291D02*
D03*
D13*
X782000Y113654D02*
D03*
Y120346D02*
D03*
X773500Y113654D02*
D03*
Y120346D02*
D03*
X211000Y357347D02*
D03*
Y350654D02*
D03*
X790500Y120346D02*
D03*
Y113654D02*
D03*
X798500Y120346D02*
D03*
Y113654D02*
D03*
X806500Y120346D02*
D03*
Y113654D02*
D03*
X814500Y120346D02*
D03*
Y113654D02*
D03*
D14*
X781500Y128244D02*
D03*
Y133756D02*
D03*
X773500Y128244D02*
D03*
Y133756D02*
D03*
X210000Y276244D02*
D03*
Y281756D02*
D03*
X587000Y126756D02*
D03*
Y121244D02*
D03*
X572500Y143744D02*
D03*
Y149256D02*
D03*
D15*
X237653Y310000D02*
D03*
X244346D02*
D03*
X228346Y306000D02*
D03*
X221654D02*
D03*
X221654Y316000D02*
D03*
X228346D02*
D03*
X213347Y338000D02*
D03*
X206653D02*
D03*
X193654Y358000D02*
D03*
X200346D02*
D03*
X193654Y349000D02*
D03*
X200346D02*
D03*
X342653Y311500D02*
D03*
X349346D02*
D03*
X303354Y328200D02*
D03*
X310047D02*
D03*
X575846Y115000D02*
D03*
X569153D02*
D03*
X554846Y140000D02*
D03*
X548153D02*
D03*
X561846Y120000D02*
D03*
X555154D02*
D03*
D16*
X179807Y284500D02*
D03*
X193193D02*
D03*
D17*
X177100Y346193D02*
D03*
Y332807D02*
D03*
X587000Y135307D02*
D03*
Y148693D02*
D03*
D18*
X222500Y330300D02*
D03*
X227500D02*
D03*
X232500D02*
D03*
X237500D02*
D03*
Y349700D02*
D03*
X232500D02*
D03*
X227500D02*
D03*
X222500D02*
D03*
D19*
X765957Y133600D02*
D03*
X763398D02*
D03*
X760839D02*
D03*
X758280D02*
D03*
X755720D02*
D03*
X753161D02*
D03*
X750602D02*
D03*
X748043D02*
D03*
Y111400D02*
D03*
X750602D02*
D03*
X753161D02*
D03*
X755720D02*
D03*
X758280D02*
D03*
X760839D02*
D03*
X763398D02*
D03*
X765957D02*
D03*
D20*
X320000Y320000D02*
D03*
X335000Y298000D02*
D03*
X330000D02*
D03*
X325000D02*
D03*
X320000D02*
D03*
X325000Y320000D02*
D03*
X330000D02*
D03*
X335000D02*
D03*
D21*
X576250Y123700D02*
D03*
X568750D02*
D03*
Y133300D02*
D03*
X572500D02*
D03*
X576250D02*
D03*
D22*
X206252Y404000D02*
D03*
X187748D02*
D03*
X187748Y377000D02*
D03*
X206252D02*
D03*
D23*
X222750Y268950D02*
D03*
X225250D02*
D03*
X227750D02*
D03*
X230250D02*
D03*
X232750D02*
D03*
X235250D02*
D03*
X237750D02*
D03*
X240250D02*
D03*
X242750D02*
D03*
X245250D02*
D03*
Y289050D02*
D03*
X242750D02*
D03*
X240250D02*
D03*
X237750D02*
D03*
X235250D02*
D03*
X232750D02*
D03*
X230250D02*
D03*
X227750D02*
D03*
X225250D02*
D03*
X222750D02*
D03*
D24*
X607000Y262000D02*
D03*
Y258850D02*
D03*
Y255701D02*
D03*
Y252551D02*
D03*
Y249402D02*
D03*
Y246252D02*
D03*
Y243102D02*
D03*
Y239953D02*
D03*
Y236803D02*
D03*
Y230504D02*
D03*
Y227354D02*
D03*
Y224205D02*
D03*
Y221055D02*
D03*
Y214756D02*
D03*
Y211606D02*
D03*
Y208457D02*
D03*
Y205307D02*
D03*
Y202157D02*
D03*
Y199008D02*
D03*
Y195858D02*
D03*
Y192709D02*
D03*
Y189559D02*
D03*
Y186409D02*
D03*
Y183260D02*
D03*
Y180110D02*
D03*
Y176961D02*
D03*
Y173811D02*
D03*
Y170661D02*
D03*
Y167512D02*
D03*
Y164362D02*
D03*
X656606D02*
D03*
Y167512D02*
D03*
Y170661D02*
D03*
Y173811D02*
D03*
Y176961D02*
D03*
Y180110D02*
D03*
Y183260D02*
D03*
Y186409D02*
D03*
Y192709D02*
D03*
Y195858D02*
D03*
Y199008D02*
D03*
Y202157D02*
D03*
Y205307D02*
D03*
Y208457D02*
D03*
Y211606D02*
D03*
Y214756D02*
D03*
Y217906D02*
D03*
Y221055D02*
D03*
Y224205D02*
D03*
Y227354D02*
D03*
Y230504D02*
D03*
Y233654D02*
D03*
Y236803D02*
D03*
Y239953D02*
D03*
Y243102D02*
D03*
Y246252D02*
D03*
Y249402D02*
D03*
Y252551D02*
D03*
Y255701D02*
D03*
Y262000D02*
D03*
Y258850D02*
D03*
Y189559D02*
D03*
X607000Y217906D02*
D03*
Y233654D02*
D03*
X688000Y262000D02*
D03*
Y258850D02*
D03*
Y255701D02*
D03*
Y252551D02*
D03*
Y249402D02*
D03*
Y246252D02*
D03*
Y243102D02*
D03*
Y239953D02*
D03*
Y236803D02*
D03*
Y230504D02*
D03*
Y227354D02*
D03*
Y224205D02*
D03*
Y221055D02*
D03*
Y214756D02*
D03*
Y211606D02*
D03*
Y208457D02*
D03*
Y205307D02*
D03*
Y202157D02*
D03*
Y199008D02*
D03*
Y195858D02*
D03*
Y192709D02*
D03*
Y189559D02*
D03*
Y186409D02*
D03*
Y183260D02*
D03*
Y180110D02*
D03*
Y176961D02*
D03*
Y173811D02*
D03*
Y170661D02*
D03*
Y167512D02*
D03*
Y164362D02*
D03*
X737606D02*
D03*
Y167512D02*
D03*
Y170661D02*
D03*
Y173811D02*
D03*
Y176961D02*
D03*
Y180110D02*
D03*
Y183260D02*
D03*
Y186409D02*
D03*
Y192709D02*
D03*
Y195858D02*
D03*
Y199008D02*
D03*
Y202157D02*
D03*
Y205307D02*
D03*
Y208457D02*
D03*
Y211606D02*
D03*
Y214756D02*
D03*
Y217906D02*
D03*
Y221055D02*
D03*
Y224205D02*
D03*
Y227354D02*
D03*
Y230504D02*
D03*
Y233654D02*
D03*
Y236803D02*
D03*
Y239953D02*
D03*
Y243102D02*
D03*
Y246252D02*
D03*
Y249402D02*
D03*
Y252551D02*
D03*
Y255701D02*
D03*
Y262000D02*
D03*
Y258850D02*
D03*
Y189559D02*
D03*
X688000Y217906D02*
D03*
Y233654D02*
D03*
D25*
X368500Y354000D02*
D03*
X499209D02*
D03*
Y352031D02*
D03*
Y350063D02*
D03*
Y348094D02*
D03*
Y346126D02*
D03*
Y344157D02*
D03*
Y342189D02*
D03*
Y340220D02*
D03*
Y338252D02*
D03*
Y336283D02*
D03*
Y334315D02*
D03*
Y332346D02*
D03*
Y330378D02*
D03*
Y328409D02*
D03*
Y326441D02*
D03*
Y324472D02*
D03*
Y322504D02*
D03*
Y320535D02*
D03*
Y318567D02*
D03*
Y316598D02*
D03*
Y314630D02*
D03*
Y312661D02*
D03*
Y310693D02*
D03*
Y308724D02*
D03*
Y306756D02*
D03*
Y304787D02*
D03*
Y302819D02*
D03*
Y300850D02*
D03*
Y298882D02*
D03*
Y296913D02*
D03*
Y294945D02*
D03*
Y292976D02*
D03*
Y291008D02*
D03*
Y289039D02*
D03*
Y287071D02*
D03*
Y285102D02*
D03*
Y283134D02*
D03*
Y281165D02*
D03*
Y279197D02*
D03*
Y277228D02*
D03*
Y275260D02*
D03*
Y273291D02*
D03*
Y271323D02*
D03*
Y269354D02*
D03*
Y267386D02*
D03*
Y265417D02*
D03*
Y263449D02*
D03*
Y261480D02*
D03*
Y259512D02*
D03*
Y257543D02*
D03*
Y255575D02*
D03*
Y253606D02*
D03*
Y251638D02*
D03*
Y249669D02*
D03*
Y247701D02*
D03*
Y245732D02*
D03*
Y243764D02*
D03*
Y241795D02*
D03*
Y239827D02*
D03*
Y237858D02*
D03*
X368500D02*
D03*
Y239827D02*
D03*
Y241795D02*
D03*
Y243764D02*
D03*
Y245732D02*
D03*
Y247701D02*
D03*
Y249669D02*
D03*
Y251638D02*
D03*
Y253606D02*
D03*
Y255575D02*
D03*
Y257543D02*
D03*
Y259512D02*
D03*
Y261480D02*
D03*
Y263449D02*
D03*
Y265417D02*
D03*
Y267386D02*
D03*
Y269354D02*
D03*
Y271323D02*
D03*
Y273291D02*
D03*
Y275260D02*
D03*
Y277228D02*
D03*
Y279197D02*
D03*
Y281165D02*
D03*
Y283134D02*
D03*
Y285102D02*
D03*
Y287071D02*
D03*
Y289039D02*
D03*
Y291008D02*
D03*
Y292976D02*
D03*
Y294945D02*
D03*
Y296913D02*
D03*
Y298882D02*
D03*
Y300850D02*
D03*
Y302819D02*
D03*
Y304787D02*
D03*
Y306756D02*
D03*
Y308724D02*
D03*
Y310693D02*
D03*
Y312661D02*
D03*
Y314630D02*
D03*
Y316598D02*
D03*
Y318567D02*
D03*
Y320535D02*
D03*
Y322504D02*
D03*
Y324472D02*
D03*
Y326441D02*
D03*
Y328409D02*
D03*
Y330378D02*
D03*
Y332346D02*
D03*
Y334315D02*
D03*
Y336283D02*
D03*
Y338252D02*
D03*
Y340220D02*
D03*
Y342189D02*
D03*
Y344157D02*
D03*
Y346126D02*
D03*
Y348094D02*
D03*
Y350063D02*
D03*
Y352032D02*
D03*
D26*
X491925Y361283D02*
D03*
X489957D02*
D03*
X487988D02*
D03*
X486020D02*
D03*
X484051D02*
D03*
X482083D02*
D03*
X480114D02*
D03*
X478146D02*
D03*
X476177D02*
D03*
X474209D02*
D03*
X472240D02*
D03*
X470272D02*
D03*
X468303D02*
D03*
X466335D02*
D03*
X464366D02*
D03*
X462398D02*
D03*
X460429D02*
D03*
X458461D02*
D03*
X456492D02*
D03*
X454524D02*
D03*
X452555D02*
D03*
X450587D02*
D03*
X448618D02*
D03*
X446650D02*
D03*
X444681D02*
D03*
X442713D02*
D03*
X440744D02*
D03*
X438776D02*
D03*
X436807D02*
D03*
X434839D02*
D03*
X432870D02*
D03*
X430902D02*
D03*
X428933D02*
D03*
X426965D02*
D03*
X424996D02*
D03*
X423028D02*
D03*
X421059D02*
D03*
X419091D02*
D03*
X417122D02*
D03*
X415154D02*
D03*
X413185D02*
D03*
X411217D02*
D03*
X409248D02*
D03*
X407280Y361284D02*
D03*
X405311Y361283D02*
D03*
X403343D02*
D03*
X401374D02*
D03*
X399406D02*
D03*
X397437D02*
D03*
X395469D02*
D03*
X393500D02*
D03*
X391532D02*
D03*
X389563D02*
D03*
X387594D02*
D03*
X385626D02*
D03*
X383657D02*
D03*
X381689D02*
D03*
X379720D02*
D03*
X377752D02*
D03*
X375783D02*
D03*
X491925Y230575D02*
D03*
X489957D02*
D03*
X487988D02*
D03*
X486020D02*
D03*
X484051D02*
D03*
X482083D02*
D03*
X480114D02*
D03*
X478146D02*
D03*
X476177D02*
D03*
X474209D02*
D03*
X472240D02*
D03*
X470272D02*
D03*
X468303D02*
D03*
X466335D02*
D03*
X464366D02*
D03*
X462398D02*
D03*
X460429D02*
D03*
X458461D02*
D03*
X456492D02*
D03*
X454524D02*
D03*
X452555D02*
D03*
X450587D02*
D03*
X448618D02*
D03*
X446650D02*
D03*
X444681D02*
D03*
X442713D02*
D03*
X440744D02*
D03*
X438776D02*
D03*
X436807D02*
D03*
X434839D02*
D03*
X432870D02*
D03*
X430902D02*
D03*
X428933D02*
D03*
X426965D02*
D03*
X424996D02*
D03*
X423028D02*
D03*
X421059D02*
D03*
X419091D02*
D03*
X417122D02*
D03*
X415154D02*
D03*
X413185D02*
D03*
X411217D02*
D03*
X409248D02*
D03*
X407280D02*
D03*
X405311D02*
D03*
X403343D02*
D03*
X401374D02*
D03*
X399406D02*
D03*
X397437D02*
D03*
X395469D02*
D03*
X393500D02*
D03*
X391532D02*
D03*
X389563D02*
D03*
X387595D02*
D03*
X385626D02*
D03*
X383657D02*
D03*
X381689D02*
D03*
X379720D02*
D03*
X377752D02*
D03*
X375783D02*
D03*
D27*
X293000Y460961D02*
D03*
Y481039D02*
D03*
D28*
X311039Y395000D02*
D03*
X290961D02*
D03*
X312039Y423000D02*
D03*
X291961D02*
D03*
D29*
X598500Y124563D02*
D03*
Y132437D02*
D03*
D30*
X232750Y490000D02*
D03*
Y472000D02*
D03*
Y457000D02*
D03*
Y439000D02*
D03*
Y420000D02*
D03*
Y402000D02*
D03*
D31*
X258600Y481000D02*
D03*
Y448000D02*
D03*
Y411000D02*
D03*
D32*
X728000Y126000D02*
D03*
D33*
X726032D02*
D03*
X724063D02*
D03*
X722095D02*
D03*
X720126D02*
D03*
X718158D02*
D03*
X716189D02*
D03*
X714221D02*
D03*
X712252D02*
D03*
X710284D02*
D03*
X708315D02*
D03*
X706347D02*
D03*
X704378D02*
D03*
X702410D02*
D03*
X700441D02*
D03*
X698473D02*
D03*
X696504D02*
D03*
X694536D02*
D03*
X692567D02*
D03*
X690599D02*
D03*
X688700D02*
D03*
X686732D02*
D03*
X684763D02*
D03*
X682795D02*
D03*
X680826D02*
D03*
X678858D02*
D03*
X676889D02*
D03*
X674921D02*
D03*
X672952D02*
D03*
X670984D02*
D03*
X669015D02*
D03*
X667047D02*
D03*
X665078D02*
D03*
X663110D02*
D03*
X661141D02*
D03*
X659173D02*
D03*
X657204D02*
D03*
X655236D02*
D03*
X653267D02*
D03*
X651299D02*
D03*
D34*
X276921Y298890D02*
D03*
X297000D02*
D03*
X276921Y317000D02*
D03*
D35*
X297000D02*
D03*
D36*
X548153Y129500D02*
D03*
X554846D02*
D03*
D37*
X245756Y301000D02*
D03*
X240244D02*
D03*
X245244Y340000D02*
D03*
X250756D02*
D03*
D38*
X407556Y182900D02*
X407995Y182461D01*
Y172266D02*
Y182461D01*
Y190706D02*
X410100Y188600D01*
X407995Y190706D02*
Y201400D01*
X464950Y190250D02*
X466141Y191441D01*
Y201400D01*
X464950Y190250D02*
X469450D01*
X460236Y193736D02*
Y201400D01*
X487500Y210300D02*
X487794Y210005D01*
Y201400D02*
Y210005D01*
X479200Y213000D02*
X481500Y210700D01*
Y206389D02*
Y210700D01*
Y206389D02*
X481889Y206000D01*
Y201400D02*
Y206000D01*
X475983Y196783D02*
Y201400D01*
X469450Y190250D02*
X475983Y196783D01*
X454330Y191414D02*
X454744Y191000D01*
X454330Y191414D02*
Y201400D01*
X493700D02*
Y206000D01*
X494400Y206700D01*
X498200D01*
X493700Y167400D02*
Y172266D01*
Y167400D02*
X494200Y166900D01*
X498400D01*
X475983Y164617D02*
X478650Y161950D01*
X475983Y164617D02*
Y172266D01*
X466141Y164359D02*
X468750Y161750D01*
X466141Y164359D02*
Y172266D01*
X487794Y161700D02*
Y172266D01*
X454330Y162470D02*
X455100Y161700D01*
X454330Y162470D02*
Y172266D01*
X460236Y165636D02*
Y172266D01*
X481889Y165600D02*
Y172266D01*
X413900D02*
Y177000D01*
X413800Y177100D02*
X413900Y177000D01*
X413800Y177100D02*
X415000Y178300D01*
X419800D01*
X415200Y195600D02*
X418500D01*
X413900Y196900D02*
X415200Y195600D01*
X413900Y196900D02*
Y201400D01*
X368600Y201376D02*
X368624Y201400D01*
X368600Y197100D02*
Y201376D01*
X367900Y196400D02*
X368600Y197100D01*
X362600Y196400D02*
X367900D01*
X368624Y172266D02*
X368700Y172342D01*
Y176800D01*
X367700Y177800D02*
X368700Y176800D01*
X362600Y177800D02*
X367700D01*
X402089Y172266D02*
Y179400D01*
X380435Y172266D02*
Y179400D01*
X402089Y193300D02*
Y201400D01*
X380435Y193465D02*
Y201400D01*
X374530Y192670D02*
X378500Y188700D01*
X374530Y192670D02*
Y201400D01*
X396183Y191016D02*
X398600Y188600D01*
X396183Y191016D02*
Y201400D01*
X386341Y190959D02*
X388650Y188650D01*
X386341Y190959D02*
Y201400D01*
X396183Y180384D02*
X398700Y182900D01*
X396183Y172266D02*
Y180384D01*
X386341Y180541D02*
X388650Y182850D01*
X386341Y172266D02*
Y180541D01*
X374530Y172266D02*
Y182900D01*
X299400Y240965D02*
X308000D01*
X278866D02*
X286365D01*
X278866Y219311D02*
X286500D01*
X299455D02*
X308000D01*
X293300Y222800D02*
X295717Y225217D01*
X308000D01*
X290883D02*
X293300Y222800D01*
X278866Y225217D02*
X290883D01*
X293300Y232700D02*
X295659Y235059D01*
X308000D01*
X290941D02*
X293300Y232700D01*
X278866Y235059D02*
X290941D01*
X293300Y243100D02*
X297070Y246870D01*
X308000D01*
X289530D02*
X293300Y243100D01*
X278866Y246870D02*
X289530D01*
X278866Y213405D02*
X308000D01*
X467100Y406400D02*
X469216Y408517D01*
Y417234D01*
X477500Y406400D02*
X479059Y407959D01*
Y417234D01*
Y398359D02*
X480900Y400200D01*
X479059Y388100D02*
Y398359D01*
X469216Y398217D02*
X471200Y400200D01*
X469216Y388100D02*
Y398217D01*
X390759Y408441D02*
X392800Y406400D01*
X390759Y408441D02*
Y417234D01*
X380983Y408216D02*
X382800Y406400D01*
X380917Y408216D02*
Y417234D01*
X378700Y399400D02*
X380917Y397183D01*
Y388100D02*
Y397183D01*
X388700Y399400D02*
X390759Y397341D01*
Y388100D02*
Y397341D01*
X548206Y348694D02*
X550400Y346500D01*
X538300Y348694D02*
X548206D01*
X548716Y336883D02*
X550400Y335200D01*
X538300Y336883D02*
X548716D01*
X548559Y327041D02*
X550400Y325200D01*
X538300Y327041D02*
X548559D01*
X555600Y338900D02*
X557617Y336883D01*
X567434D01*
X555600Y329300D02*
X557859Y327041D01*
X567434D01*
X563225Y240424D02*
X567434D01*
X561900Y239100D02*
X563225Y240424D01*
X561900Y234500D02*
Y239100D01*
X538300Y273889D02*
X546211D01*
X559889D02*
X567434D01*
X559835Y252236D02*
X567434D01*
X538300D02*
X546065D01*
X538300Y246330D02*
X567434D01*
X550641Y258141D02*
X552900Y260400D01*
X538300Y258141D02*
X550641D01*
X552900Y260400D02*
X555159Y258141D01*
X567434D01*
X550484Y267984D02*
X552900Y270400D01*
X538300Y267984D02*
X550484D01*
X552900Y270400D02*
X555316Y267984D01*
X567434D01*
X538300Y279795D02*
X552795D01*
X553006D02*
X567434D01*
X563200Y285700D02*
X567434D01*
X561846Y287053D02*
X563200Y285700D01*
X561846Y287053D02*
Y291846D01*
X562000Y308000D02*
X563324Y309325D01*
X562000Y302600D02*
Y308000D01*
X531100Y286100D02*
Y293600D01*
X533700Y296200D01*
X531500Y285700D02*
X538300D01*
X531100Y286100D02*
X531500Y285700D01*
X538300Y240424D02*
X541100D01*
X531100D02*
X538300D01*
X559911Y342789D02*
X567434D01*
X555694Y348694D02*
X567434D01*
X538300Y315230D02*
X550370D01*
X567334Y354700D02*
X567434Y354600D01*
X563200Y354700D02*
X567334D01*
X563000Y354900D02*
X563200Y354700D01*
X563000Y354900D02*
Y360500D01*
X538300Y354600D02*
X542000D01*
X542500Y355100D01*
Y360000D01*
X563324Y309325D02*
X567434D01*
X538300Y342789D02*
X546111D01*
X538300Y321135D02*
X546165D01*
X559936D02*
X567434D01*
X557170Y315230D02*
X567434D01*
X534424Y309325D02*
X538100D01*
X533700Y308600D02*
X534424Y309325D01*
X533700Y296200D02*
Y308600D01*
X532337Y350663D02*
X538300D01*
X521717Y361283D02*
X532337Y350663D01*
X534269Y352631D02*
X538300D01*
X519417Y367483D02*
X534269Y352631D01*
X490870Y388100D02*
Y400200D01*
Y406400D02*
Y417234D01*
X451500Y388100D02*
Y393000D01*
X450300Y394200D02*
X451500Y393000D01*
X445100Y394200D02*
X450300D01*
X451500Y412700D02*
Y417234D01*
X450700Y411900D02*
X451500Y412700D01*
X445200Y411900D02*
X450700D01*
X496775Y412724D02*
Y417234D01*
Y412724D02*
X497700Y411800D01*
X502300D01*
X497700Y393000D02*
X502300D01*
X496847Y392148D02*
X497700Y393000D01*
X496847Y388100D02*
Y392148D01*
X457406Y407895D02*
Y417234D01*
X463311Y409911D02*
Y417234D01*
X484965Y409936D02*
Y417234D01*
Y388100D02*
Y395965D01*
X463311Y388100D02*
Y395989D01*
X457406Y388100D02*
Y395005D01*
X402300Y406400D02*
X402570Y406670D01*
Y417234D01*
X402200Y399400D02*
X402570Y399030D01*
Y388100D02*
Y399030D01*
X396665Y388100D02*
Y395535D01*
X369100Y388100D02*
Y395700D01*
X375011Y388100D02*
Y395700D01*
X369106Y409905D02*
Y417234D01*
X396665Y409936D02*
Y417234D01*
X375011Y409989D02*
Y417234D01*
X379338Y251638D02*
X380200Y252500D01*
X368500Y251638D02*
X379338D01*
X368500Y249669D02*
X379774D01*
X380904Y250800D01*
X383435D01*
X380200Y252500D02*
X382200D01*
X381696Y249100D02*
X389300D01*
X374391Y241795D02*
X381696Y249100D01*
X382200Y247200D02*
X390300D01*
X374827Y239827D02*
X382200Y247200D01*
X368500Y241795D02*
X374391D01*
X368500Y239827D02*
X374827D01*
X368500Y237858D02*
X375800D01*
Y233500D02*
Y237858D01*
X494236Y255575D02*
X499209D01*
X493009Y256802D02*
X494236Y255575D01*
X483728Y277228D02*
X499209D01*
X481200Y274700D02*
X483728Y277228D01*
X486800Y320000D02*
X487335Y320535D01*
X489957Y366457D02*
X490983Y367483D01*
X489957Y361283D02*
Y366457D01*
X490983Y367483D02*
X519417D01*
X442713Y354313D02*
Y361283D01*
X440400Y352000D02*
X442713Y354313D01*
X440400Y338754D02*
Y352000D01*
X382300Y244500D02*
X386200D01*
X375961Y238161D02*
X382300Y244500D01*
X475296Y322504D02*
X499209D01*
X474800Y323000D02*
X475296Y322504D01*
X486800Y274400D02*
X487660Y275260D01*
X446650Y350750D02*
X447600Y349800D01*
X368500Y334315D02*
X384085D01*
X368500Y336283D02*
X385283D01*
X361200Y324600D02*
Y324700D01*
X362941Y326441D01*
X355450Y336450D02*
X360100Y341100D01*
X355450Y325550D02*
Y336450D01*
X355000Y325100D02*
X355450Y325550D01*
X362941Y326441D02*
X368500D01*
X385283Y336283D02*
X385800Y336800D01*
X390700Y326700D02*
Y335365D01*
X368500Y340220D02*
X385844D01*
X390700Y335365D01*
X384085Y334315D02*
X390700Y327700D01*
X506563Y350063D02*
X508900Y352400D01*
X499209Y350063D02*
X506563D01*
X500400Y228000D02*
X508700Y236300D01*
Y240800D01*
X505736Y243764D02*
X508700Y240800D01*
X499209Y243764D02*
X505736D01*
X657204Y114996D02*
Y126000D01*
X651299Y119900D02*
Y126000D01*
X655236Y121836D02*
Y126000D01*
X653400Y120000D02*
X655236Y121836D01*
X651300Y120000D02*
X653400D01*
X360100Y341100D02*
X361189Y342189D01*
X368500D01*
X387537Y350063D02*
X398800Y338800D01*
X368500Y350063D02*
X387537D01*
X391268Y352032D02*
X399000Y344300D01*
X368500Y352032D02*
X391268D01*
X395200Y354000D02*
X399406Y349794D01*
X368500Y354000D02*
X395200D01*
X401374Y361283D02*
Y366726D01*
X400500Y367600D02*
X401374Y366726D01*
X398100Y367600D02*
X400500D01*
X397437Y366937D02*
X398100Y367600D01*
X397437Y361283D02*
Y366937D01*
X402600Y347900D02*
Y352200D01*
X401374Y353426D02*
X402600Y352200D01*
X401374Y353426D02*
Y361283D01*
X399000Y344300D02*
X402600Y347900D01*
X390700Y309200D02*
X397600Y302300D01*
Y294500D02*
Y302300D01*
X392139Y289039D02*
X397600Y294500D01*
X377961Y289039D02*
X392139D01*
X385629Y287071D02*
X397300Y275400D01*
X368500Y287071D02*
X385629D01*
X362898Y285102D02*
X368500D01*
X362000Y286000D02*
X362898Y285102D01*
X362000Y286000D02*
Y288000D01*
X363039Y289039D02*
X368500D01*
X362000Y288000D02*
X363039Y289039D01*
X368500D02*
X377961D01*
X368500Y292976D02*
X374024D01*
X368500Y291008D02*
X375992D01*
X374024Y292976D02*
X377961Y289039D01*
X415300Y316200D02*
Y334700D01*
X405311Y344689D02*
X415300Y334700D01*
X405311Y344689D02*
Y361283D01*
X440400Y338754D02*
X456753Y322400D01*
X456800Y333135D02*
X470272Y346607D01*
X456800Y322600D02*
Y333135D01*
X415600Y316800D02*
X428933Y330133D01*
Y361283D01*
X469300Y334100D02*
X478928Y324472D01*
X499209D01*
X470272Y343728D02*
Y346607D01*
Y343728D02*
X479685Y334315D01*
X499209D01*
X456900Y308200D02*
X462281Y302819D01*
X499209D01*
X456400Y278500D02*
X461000D01*
X470500Y269000D01*
X492435Y267386D02*
X499209D01*
X490821Y269000D02*
X492435Y267386D01*
X470500Y269000D02*
X490821D01*
X460429Y230575D02*
Y254471D01*
X407280Y230575D02*
Y248220D01*
X402650Y252850D02*
X407280Y248220D01*
X399650Y252850D02*
X402650D01*
X399596Y250900D02*
X399650D01*
X435700Y252800D02*
X437800Y250700D01*
Y248600D02*
Y250700D01*
Y248600D02*
X444681Y241719D01*
Y230575D02*
Y241719D01*
X390800Y268900D02*
X397300Y275400D01*
X383100Y268900D02*
X390800D01*
X388080Y261480D02*
X390800Y264200D01*
X368500Y261480D02*
X388080D01*
X379400Y265200D02*
X383100Y268900D01*
X375400Y265200D02*
X379400D01*
X373649Y263449D02*
X375400Y265200D01*
X368500Y263449D02*
X373649D01*
X392000Y246400D02*
Y248900D01*
X387600Y242000D02*
X392000Y246400D01*
X382500Y242000D02*
X387600D01*
X377752Y230575D02*
Y237252D01*
X382500Y242000D01*
X387595Y236495D02*
X399800Y248700D01*
X399650Y250900D02*
Y252850D01*
X385626Y236930D02*
X399596Y250900D01*
X385626Y230575D02*
Y236930D01*
X404200Y255800D02*
X411217Y248783D01*
X398900Y255800D02*
X404200D01*
X390300Y247200D02*
X398900Y255800D01*
X389300Y249100D02*
X401700Y261500D01*
Y265800D01*
X390800Y253700D02*
Y264200D01*
X390000Y252900D02*
X390800Y253700D01*
X385535Y252900D02*
X390000D01*
X383435Y250800D02*
X385535Y252900D01*
X382200Y252500D02*
X385200Y255500D01*
X469600Y259300D02*
X479000D01*
X491000Y247300D01*
Y245000D02*
Y247300D01*
Y245000D02*
X494205Y241795D01*
X499209D01*
X446650Y230575D02*
Y244050D01*
X470272Y346607D02*
Y361283D01*
X490000Y354000D02*
X499209D01*
X484700Y348700D02*
X490000Y354000D01*
X475800Y344200D02*
X481748Y338252D01*
X499209D01*
X493600Y344200D02*
X499251D01*
X492500Y345300D02*
X493600Y344200D01*
X486000Y345300D02*
X492500D01*
X484900Y344200D02*
X486000Y345300D01*
X484900Y344200D02*
X492731Y352031D01*
X475800Y344200D02*
X484900D01*
X492731Y352031D02*
X499209D01*
X438776Y354777D02*
Y361283D01*
X438700Y354702D02*
X438776Y354777D01*
X438700Y346100D02*
Y354702D01*
X436807Y344207D02*
X438700Y346100D01*
X481244Y306756D02*
X499209D01*
X487313Y296913D02*
X489282Y298882D01*
X483376Y292976D02*
X487313Y296913D01*
X483376Y292976D02*
X499209D01*
X487313Y296913D02*
X499209D01*
X485345Y294945D02*
X499209D01*
X489282Y298882D02*
X499209D01*
X481300Y290900D02*
X483376Y292976D01*
X474800Y290200D02*
X485450Y300850D01*
X482100Y262600D02*
X493000Y251700D01*
Y246700D02*
Y251700D01*
Y246700D02*
X493968Y245732D01*
X493273Y239827D02*
X499209D01*
X489300Y243800D02*
X493273Y239827D01*
X489300Y243800D02*
Y246400D01*
X482700Y253000D02*
X489300Y246400D01*
X481200Y253000D02*
X482700D01*
X481300Y262600D02*
X482100D01*
X493794Y253606D02*
X499209D01*
X486800Y260600D02*
X493794Y253606D01*
X486800Y260600D02*
Y263200D01*
X493009Y256802D02*
Y261775D01*
X493968Y245732D02*
X499209D01*
X488483Y266300D02*
X493009Y261775D01*
X485000Y266300D02*
X488483D01*
X481300Y262600D02*
X485000Y266300D01*
X481200Y274700D02*
X484577Y271323D01*
X499209D01*
X484051Y230575D02*
Y244549D01*
X481200Y247400D02*
X484051Y244549D01*
X481200Y247400D02*
Y253000D01*
X486800Y243600D02*
Y245200D01*
X481600Y243300D02*
X482083Y242817D01*
X462398Y247298D02*
X463800Y248700D01*
X462398Y230575D02*
Y247298D01*
X451000Y247800D02*
Y248800D01*
Y247800D02*
X456492Y242308D01*
Y230575D02*
Y242308D01*
X451800Y243100D02*
X454524Y240376D01*
X442350Y248350D02*
X446650Y244050D01*
X434839Y230575D02*
Y247861D01*
X430902Y230575D02*
Y245802D01*
X432870Y230575D02*
Y247700D01*
X433900Y248800D02*
X434839Y247861D01*
X436807Y230575D02*
Y245893D01*
X433900Y248800D02*
X436807Y245893D01*
X430902Y245802D02*
X433900Y248800D01*
X424996Y239896D02*
X430902Y245802D01*
X424996Y230575D02*
Y239896D01*
X411217Y230575D02*
Y248783D01*
X399800Y248700D02*
X401400D01*
X387595Y230575D02*
Y236495D01*
X400200Y243200D02*
X401374Y242026D01*
X403343Y230575D02*
Y246757D01*
X401400Y248700D02*
X403343Y246757D01*
X491925Y361283D02*
X521717D01*
X464500Y344300D02*
X465500D01*
X468303Y347103D01*
Y361283D01*
X474209Y351191D02*
X475600Y349800D01*
X472240Y347760D02*
X475800Y344200D01*
X472240Y347760D02*
Y361283D01*
X446300Y344400D02*
X456492Y354592D01*
Y361283D01*
X444681Y346019D02*
X446300Y344400D01*
X444681Y346019D02*
Y361283D01*
X368500Y273291D02*
X390791D01*
X383302Y316598D02*
X390700Y309200D01*
X368500Y316598D02*
X383302D01*
X388472Y324472D02*
X390700Y326700D01*
X368500Y324472D02*
X388472D01*
X390700Y326700D02*
Y327700D01*
X411217Y348283D02*
X415200Y344300D01*
X411217Y348283D02*
Y361283D01*
X424996Y344204D02*
Y361283D01*
X430902Y346298D02*
X432870Y344330D01*
Y361283D01*
X430902Y346298D02*
Y361283D01*
X434839Y346175D02*
X436807Y344207D01*
X434839Y346175D02*
Y361283D01*
X436807Y344207D02*
Y361283D01*
X485450Y300850D02*
X499209D01*
X474600Y305800D02*
X481461Y312661D01*
X499209D01*
X399406Y349794D02*
Y361283D01*
X368500Y318567D02*
X385267D01*
X368500Y277228D02*
X385228D01*
X375783Y230575D02*
Y233483D01*
X375800Y233500D01*
X401374Y230575D02*
Y242026D01*
X423028Y230575D02*
Y243072D01*
X454524Y230575D02*
Y240376D01*
X482083Y230575D02*
Y242817D01*
X415154Y349654D02*
Y361283D01*
X446650Y350750D02*
Y361283D01*
X458461Y349761D02*
Y361283D01*
X474209Y351191D02*
Y361283D01*
X486811Y342189D02*
X499209D01*
X487335Y320535D02*
X499209D01*
X487660Y275260D02*
X499209D01*
X486800Y243600D02*
X492542Y237858D01*
X499209D01*
X720126Y126000D02*
Y129750D01*
X718876Y131000D02*
X720126Y129750D01*
X706347Y129447D02*
X707900Y131000D01*
X706347Y126000D02*
Y129447D01*
X653267Y126000D02*
Y128500D01*
D39*
X407800Y182900D02*
X413500Y188600D01*
X410100D02*
X413500D01*
X398600D02*
X410100D01*
X455494Y190250D02*
X464950D01*
X454744Y191000D02*
X455494Y190250D01*
X452344Y188600D02*
X454744Y191000D01*
X455100Y161700D02*
X487456D01*
X413500Y188600D02*
X452344D01*
X378400D02*
X398600D01*
X407556Y182900D02*
X407800D01*
X398700D02*
X407556D01*
X374800D02*
X398700D01*
X293300Y222800D02*
Y232700D01*
Y213700D02*
Y222800D01*
Y232700D02*
Y243100D01*
X467100Y406400D02*
X477500D01*
X457400D02*
X467100D01*
X480900Y400200D02*
X490800D01*
X471200D02*
X480900D01*
X392800Y406400D02*
X402156D01*
X390800D02*
X392800D01*
X382800D02*
X390800D01*
X372600D02*
X382800D01*
X372800Y399400D02*
X378700D01*
X388700D01*
X550400Y335200D02*
Y346500D01*
Y327000D02*
Y335200D01*
Y325200D02*
Y327000D01*
Y315344D02*
Y325200D01*
X555600Y338900D02*
Y348600D01*
Y336800D02*
Y338900D01*
X550400Y315200D02*
Y315344D01*
X555600Y329300D02*
Y336800D01*
Y316800D02*
Y329300D01*
X552900Y260400D02*
Y270400D01*
Y246600D02*
Y260400D01*
Y270400D02*
Y279900D01*
X552795Y279795D02*
X552900Y279900D01*
X553006Y279795D01*
X555600Y348600D02*
X555694Y348694D01*
X555600Y336800D02*
X555684Y336883D01*
X555600Y316800D02*
X557000Y315400D01*
X550359Y327041D02*
X550400Y327000D01*
X490870Y406400D02*
X516200D01*
X477500D02*
X490870D01*
X402570D02*
X457400D01*
X462600Y400200D02*
X471200D01*
X457406Y395005D02*
X462600Y400200D01*
X519800Y410000D02*
X540000D01*
X516200Y406400D02*
X519800Y410000D01*
X540000D02*
X548000Y418000D01*
X388700Y399400D02*
X402200D01*
X402156Y406400D02*
X402300D01*
X369100Y395700D02*
X372800Y399400D01*
X369100Y409900D02*
X369106Y409905D01*
X369100Y409900D02*
X372600Y406400D01*
X390759Y406441D02*
X390800Y406400D01*
X673300Y239900D02*
X680800D01*
X331700Y410200D02*
X342400D01*
X325150Y403650D02*
X331700Y410200D01*
X622500Y300100D02*
X634700D01*
X639000Y295800D01*
X585700Y160015D02*
X596357Y149357D01*
X226900Y464700D02*
X275700D01*
X222900Y468700D02*
X226900Y464700D01*
X151500Y220000D02*
X161000Y229500D01*
X219200D01*
X236700Y212000D01*
X262800Y276100D02*
X272400Y266500D01*
X262800Y276100D02*
Y295700D01*
X713900Y142200D02*
X728500D01*
X755600Y244600D02*
Y262400D01*
X748100Y269900D02*
X755600Y262400D01*
X741800Y269900D02*
X748100D01*
X276921Y339800D02*
Y379621D01*
Y317000D02*
Y339800D01*
X284321Y332400D01*
X312698D01*
X320000Y320000D02*
Y325098D01*
X312698Y332400D02*
X320000Y325098D01*
X319800Y308100D02*
X325000Y313300D01*
X302700Y291000D02*
X319800Y308100D01*
X310047Y317853D02*
X319800Y308100D01*
X310047Y317853D02*
Y328200D01*
X297000Y265500D02*
Y285300D01*
X293500Y262000D02*
X297000Y265500D01*
X346700Y400800D02*
Y419700D01*
X460429Y254471D02*
X462500Y252400D01*
X456900Y258000D02*
X460429Y254471D01*
X465333Y252400D02*
X472200Y245533D01*
Y239544D02*
Y245533D01*
X462500Y252400D02*
X465333D01*
X511800Y216500D02*
X511900D01*
X523300Y227900D01*
X463800Y248700D02*
X465800Y246700D01*
Y239544D02*
Y246700D01*
X406900Y260200D02*
X416800Y250300D01*
Y239400D02*
Y250300D01*
X713000Y471000D02*
X720400Y463600D01*
X775511D01*
X778111Y461000D01*
X779000D01*
X302700Y291000D02*
X327100D01*
X297000Y285300D02*
X302700Y291000D01*
X297000Y285300D02*
Y298890D01*
X325000Y313300D02*
Y320000D01*
X327100Y291000D02*
X330000Y293900D01*
Y298000D01*
X330800D02*
X334200D01*
X276921Y379621D02*
X277400Y380100D01*
X214654Y357347D02*
X214662Y357339D01*
X211000Y357347D02*
X214654D01*
X688000Y152700D02*
X689700Y151000D01*
X688000Y152700D02*
Y163200D01*
X616300Y155000D02*
Y155062D01*
X607631Y163731D02*
X616300Y155062D01*
X607100Y138100D02*
X648900D01*
X601700Y143500D02*
X607100Y138100D01*
X652300Y154800D02*
X656606Y159106D01*
Y163800D01*
X648900Y138100D02*
X653267Y133733D01*
Y129750D02*
Y133733D01*
X312039Y423000D02*
X343400D01*
X346700Y419700D01*
X399000Y339000D02*
X407600Y330400D01*
Y316800D02*
Y330400D01*
X401700Y265800D02*
Y310900D01*
X788656Y133756D02*
X788700Y133800D01*
X781500Y133756D02*
X788656D01*
X707900Y131000D02*
X718876D01*
X737606Y161494D02*
X738600Y160500D01*
X737606Y161494D02*
Y163500D01*
X472000Y121000D02*
X482000D01*
X460600Y109600D02*
X472000Y121000D01*
X404500Y109600D02*
X460600D01*
X258500Y262000D02*
X293500D01*
X190000Y377000D02*
X200000Y367000D01*
X245244Y333244D02*
Y340000D01*
X187748Y404000D02*
X192000D01*
X222400Y374000D01*
X210000Y285000D02*
X214050Y289050D01*
X221900D01*
X210000Y281756D02*
Y285000D01*
Y276244D02*
X217294Y268950D01*
X222000D01*
X200000Y367000D02*
X228311D01*
X245000Y350000D02*
X245244Y349756D01*
Y340000D02*
Y349756D01*
X228311Y367000D02*
X245000Y350311D01*
Y350000D02*
Y350311D01*
X243000Y331000D02*
X245244Y333244D01*
X238000Y331000D02*
X243000D01*
X222400Y349800D02*
Y356800D01*
Y349800D02*
X222500Y349700D01*
X258600Y262100D02*
Y411000D01*
X258500Y262000D02*
X258600Y262100D01*
X204000Y281756D02*
X210000D01*
X177000Y398500D02*
X182500Y404000D01*
X187748D01*
X177000Y346000D02*
Y398500D01*
X185000Y356000D02*
Y366500D01*
X187748Y369248D01*
Y377000D01*
X196000Y455709D02*
X198459D01*
X198750Y456000D02*
X208000D01*
X198459Y455709D02*
X198750Y456000D01*
X232750Y490000D01*
X208000Y444750D02*
Y456000D01*
Y444750D02*
X232750Y420000D01*
X187500Y377248D02*
Y390500D01*
Y377248D02*
X187748Y377000D01*
X161000Y435000D02*
X172000Y424000D01*
Y390500D02*
Y424000D01*
X142000Y456000D02*
X161000Y475000D01*
X142000Y422889D02*
Y456000D01*
Y422889D02*
X146089Y418800D01*
X155911D01*
X157200Y420089D01*
Y430032D01*
X154800Y432432D02*
X157200Y430032D01*
X154800Y432432D02*
Y438300D01*
X157700Y441200D01*
X171200D01*
X187748Y424652D01*
Y404000D02*
Y424652D01*
X208000Y456000D02*
X209000Y457000D01*
X232750D01*
X292961Y481000D02*
X293000Y481039D01*
X151000Y425000D02*
Y455000D01*
X232750Y472000D02*
Y484000D01*
X258600Y481000D02*
X277000D01*
X292961D01*
X279000Y448000D02*
X291961Y435039D01*
Y423000D02*
Y435039D01*
X232500Y450000D02*
X232750Y450250D01*
Y439000D02*
Y450250D01*
X258600Y448000D02*
X275000D01*
X279000D01*
X232500Y402250D02*
Y413500D01*
Y402250D02*
X232750Y402000D01*
X312039Y396000D02*
Y423000D01*
X311039Y395000D02*
X312039Y396000D01*
X311039Y383539D02*
Y395000D01*
X298000Y370500D02*
X311039Y383539D01*
X293000Y460961D02*
X312039Y441921D01*
Y423000D02*
Y424787D01*
Y441921D02*
X329173D01*
X330567Y443315D01*
X312039Y424787D02*
X329173Y441921D01*
X293000Y481039D02*
X310461D01*
X310500Y481000D01*
X291961Y423000D02*
X303000Y411961D01*
Y409500D02*
Y411961D01*
X157843Y185559D02*
X167685Y175717D01*
Y116661D02*
Y175717D01*
X242843Y126504D02*
Y185559D01*
Y126504D02*
X252685Y116661D01*
X233000Y175717D02*
X242843Y185559D01*
X167685Y175717D02*
X233000D01*
X790500Y120346D02*
X798500D01*
X806500D01*
X814500D01*
X773500Y128244D02*
X781500D01*
X773500Y120346D02*
Y128244D01*
X782000Y120346D02*
X790500D01*
X773500Y120346D02*
X782000D01*
X760356D02*
X773500D01*
X753202Y127500D02*
X760356Y120346D01*
X696453Y239953D02*
X696500Y240000D01*
X773500Y133756D02*
X781500D01*
X767000D02*
X773500D01*
X696500Y240000D02*
Y261000D01*
X695500Y262000D02*
X696500Y261000D01*
X185000Y272500D02*
X193193Y280693D01*
Y284500D01*
X290961Y384439D02*
X293300Y382100D01*
X290961Y384439D02*
Y395000D01*
X466100Y262800D02*
X469600Y259300D01*
X401700Y265800D02*
X406533D01*
X409533Y262800D01*
X416200D01*
X466100D01*
X401700Y310900D02*
X403200Y312400D01*
X407600Y316800D01*
D40*
X479900Y201820D02*
Y208643D01*
Y201820D02*
X479920Y201800D01*
X470272Y218271D02*
X479900Y208643D01*
X479600Y216100D02*
X483500Y212200D01*
Y206700D02*
Y212200D01*
Y206700D02*
X483857Y206343D01*
Y201800D02*
Y206343D01*
X485826Y201800D02*
Y208074D01*
X485100Y208800D02*
X485826Y208074D01*
X485100Y208800D02*
Y212800D01*
X492400Y207000D02*
Y211973D01*
X491732Y206331D02*
X492400Y207000D01*
X491732Y201800D02*
Y206331D01*
X490400Y207700D02*
Y211831D01*
X489763Y207063D02*
X490400Y207700D01*
X489763Y201800D02*
Y207063D01*
X483393Y220979D02*
X492400Y211973D01*
X483103Y219128D02*
X490400Y211831D01*
X481272Y219128D02*
X483103D01*
X476177Y224223D02*
X481272Y219128D01*
X478146Y224376D02*
X481542Y220979D01*
X483393D01*
X490000Y216500D02*
X504000D01*
X483927Y222573D02*
X490000Y216500D01*
X480046Y224597D02*
X482070Y222573D01*
X483927D01*
X480300Y217600D02*
X485100Y212800D01*
X477836Y196300D02*
X499800D01*
X478457Y194800D02*
X507800D01*
X479079Y193300D02*
X510800D01*
X462204Y172666D02*
Y176425D01*
X479079Y193300D01*
X460764Y177106D02*
X478457Y194800D01*
X458806Y177106D02*
X460764D01*
X457906Y178606D02*
X460142D01*
X477836Y196300D01*
X479700Y191800D02*
X514300D01*
X464173Y176272D02*
X479700Y191800D01*
X464173Y172666D02*
Y176272D01*
X458267Y176567D02*
X458806Y177106D01*
X458267Y172666D02*
Y176567D01*
X456298Y176998D02*
X457906Y178606D01*
X456298Y172666D02*
Y176998D01*
X483349Y185800D02*
X528300D01*
X482728Y187300D02*
X524800D01*
X482107Y188800D02*
X521300D01*
X481485Y190300D02*
X517800D01*
X474015Y176466D02*
X483349Y185800D01*
X474015Y172666D02*
Y176466D01*
X472047Y176619D02*
X482728Y187300D01*
X472047Y172666D02*
Y176619D01*
X470078Y176771D02*
X482107Y188800D01*
X470078Y172666D02*
Y176771D01*
X468110Y176924D02*
X481485Y190300D01*
X468110Y172666D02*
Y176924D01*
X448300Y172142D02*
X448424Y172266D01*
X448300Y167300D02*
Y172142D01*
X447400Y166400D02*
X448300Y167300D01*
X443300Y166400D02*
X447400D01*
X448424Y201400D02*
Y205875D01*
X447800Y206500D02*
X448424Y205875D01*
X443600Y206500D02*
X447800D01*
X494400Y162300D02*
X534800D01*
X491732Y164969D02*
X494400Y162300D01*
X491732Y164969D02*
Y172666D01*
X534800Y162300D02*
X540000Y167500D01*
X452361Y153639D02*
Y172666D01*
Y153639D02*
X461500Y144500D01*
X477952Y201800D02*
Y208469D01*
X468303Y218118D02*
X477952Y208469D01*
X474564Y216100D02*
X479600D01*
X475185Y217600D02*
X480300D01*
X450393Y153486D02*
Y172666D01*
X480046Y224597D02*
Y230506D01*
X478146Y224376D02*
Y230575D01*
X476177Y224223D02*
Y230575D01*
X491864Y221000D02*
X501500D01*
X489957Y222907D02*
X491864Y221000D01*
X489957Y222907D02*
Y230575D01*
X487988Y222754D02*
Y230575D01*
Y222754D02*
X491243Y219500D01*
X502379D01*
X490621Y218000D02*
X503000D01*
X486020Y222602D02*
X490621Y218000D01*
X486020Y222602D02*
Y230575D01*
X440744Y225577D02*
Y230575D01*
Y225577D02*
X447150Y219171D01*
X442713Y225730D02*
Y230575D01*
Y225730D02*
X448650Y219793D01*
X453027Y219650D02*
X453035D01*
X456564Y216121D01*
X451650Y221027D02*
X453027Y219650D01*
X451650Y221027D02*
Y221035D01*
X456564Y216121D02*
X463379D01*
X454700Y211621D02*
X454721Y211600D01*
X454691Y211621D02*
X454700D01*
X455321Y213121D02*
X455343Y213100D01*
X455313Y213121D02*
X455321D01*
X455934Y214621D02*
X462279D01*
X450150Y220405D02*
X455934Y214621D01*
X450393Y201800D02*
Y207207D01*
X437600Y220000D02*
X450393Y207207D01*
X423500Y220000D02*
X437600D01*
X438321Y221500D02*
X452361Y207460D01*
X439000Y223000D02*
X453600Y208400D01*
X454021Y210100D02*
X456700D01*
X438776Y225346D02*
X454021Y210100D01*
X454721Y211600D02*
X460100D01*
X447150Y219163D02*
X454691Y211621D01*
X447150Y219163D02*
Y219171D01*
X455343Y213100D02*
X460721D01*
X448650Y219784D02*
X455313Y213121D01*
X448650Y219784D02*
Y219793D01*
X448618Y221946D02*
Y230575D01*
Y221946D02*
X450150Y220414D01*
Y220405D02*
Y220414D01*
X450587Y222099D02*
X451650Y221035D01*
X450587Y222099D02*
Y230575D01*
X430000Y223000D02*
X439000D01*
X427500Y221500D02*
X438321D01*
X452361Y201800D02*
Y207460D01*
X456298Y201800D02*
Y206902D01*
X454800Y208400D02*
X456298Y206902D01*
X453600Y208400D02*
X454800D01*
X458267Y201800D02*
Y208533D01*
X456700Y210100D02*
X458267Y208533D01*
X464173Y201800D02*
Y209649D01*
X460721Y213100D02*
X464173Y209649D01*
X462204Y201800D02*
Y209496D01*
X460100Y211600D02*
X462204Y209496D01*
X468110Y201800D02*
Y208790D01*
X470078Y201800D02*
Y209422D01*
X472047Y201800D02*
Y209953D01*
X474015Y201800D02*
Y210285D01*
X489763Y172666D02*
Y176963D01*
X491000Y178200D01*
X534300D01*
X540000Y172500D01*
X485826Y177926D02*
X487600Y179700D01*
X485826Y172666D02*
Y177926D01*
X487600Y179700D02*
X537800D01*
X486600Y181200D02*
X538700D01*
X483857Y178457D02*
X486600Y181200D01*
X483857Y172666D02*
Y178457D01*
X537800Y179700D02*
X540000Y177500D01*
X538700Y181200D02*
X540000Y182500D01*
X535300Y182800D02*
X540000Y187500D01*
X486000Y182800D02*
X535300D01*
X531800Y184300D02*
X540000Y192500D01*
X485300Y184300D02*
X531800D01*
X528300Y185800D02*
X540000Y197500D01*
X524800Y187300D02*
X540000Y202500D01*
X521300Y188800D02*
X540000Y207500D01*
X517800Y190300D02*
X540000Y212500D01*
X514300Y191800D02*
X540000Y217500D01*
X510800Y193300D02*
X540000Y222500D01*
X507800Y194800D02*
X540000Y227000D01*
X499800Y196300D02*
X533000Y229500D01*
X479920Y176720D02*
X486000Y182800D01*
X477952Y176952D02*
X485300Y184300D01*
X477952Y172666D02*
Y176952D01*
X479920Y172666D02*
Y176720D01*
X435379Y140000D02*
X497236D01*
X409963Y165416D02*
Y172266D01*
Y165416D02*
X435379Y140000D01*
X436000Y141500D02*
X497857D01*
X411932Y165568D02*
X436000Y141500D01*
X411932Y165568D02*
Y172266D01*
X498479Y143000D02*
X532479Y109000D01*
X460879Y143000D02*
X498479D01*
X450393Y153486D02*
X460879Y143000D01*
X499100Y144500D02*
X533100Y110500D01*
X461500Y144500D02*
X499100D01*
X406026Y165974D02*
Y172266D01*
X404058Y164943D02*
Y172266D01*
X400120Y165879D02*
Y172266D01*
X398152Y165348D02*
Y172266D01*
X394100Y162600D02*
Y172266D01*
X392247Y163247D02*
Y172266D01*
X390278Y164778D02*
Y172266D01*
X388310Y164931D02*
Y172266D01*
X384372Y163873D02*
Y172266D01*
X382404Y165404D02*
Y172266D01*
X378467Y164967D02*
Y172266D01*
X376499Y166999D02*
Y172266D01*
X372562Y166561D02*
Y172266D01*
X370593Y168093D02*
Y172266D01*
X370600Y201400D02*
Y216400D01*
X361621Y225379D02*
X370600Y216400D01*
X361621Y225379D02*
Y242621D01*
X379720Y223520D02*
Y230575D01*
X372562Y216361D02*
X379720Y223520D01*
X372562Y201400D02*
Y216361D01*
X383657Y222636D02*
Y230575D01*
X378467Y217446D02*
X383657Y222636D01*
X378467Y201400D02*
Y217446D01*
X381689Y222789D02*
Y230575D01*
X376499Y217599D02*
X381689Y222789D01*
X376499Y201400D02*
Y217599D01*
X382404Y201400D02*
Y217325D01*
X389563Y224484D01*
Y230575D01*
X391532Y224332D02*
Y230575D01*
X384372Y217173D02*
X391532Y224332D01*
X384372Y201400D02*
Y217173D01*
X388310Y201400D02*
Y217931D01*
X393500Y223121D02*
Y230575D01*
X388310Y217931D02*
X393500Y223121D01*
X390278Y201400D02*
Y217778D01*
X392247Y217368D02*
X397437Y222558D01*
X392247Y201400D02*
Y217368D01*
X397437Y222558D02*
Y230575D01*
X394215Y201400D02*
Y217215D01*
X395469Y222969D02*
Y230575D01*
X390278Y217778D02*
X395469Y222969D01*
X409248Y223827D02*
Y230575D01*
X400120Y214699D02*
X409248Y223827D01*
X400120Y201400D02*
Y214699D01*
X405311Y222011D02*
Y230575D01*
X398152Y214852D02*
X405311Y222011D01*
X398152Y201400D02*
Y214852D01*
X404058Y201400D02*
Y214422D01*
X406026Y201400D02*
Y214269D01*
X409963Y201400D02*
Y216084D01*
X417122Y223243D01*
X406026Y214269D02*
X415154Y223396D01*
X404058Y214422D02*
X413185Y223549D01*
Y230575D01*
X415154Y223396D02*
Y230575D01*
X417122Y223243D02*
Y230575D01*
X419091Y223091D02*
Y230575D01*
X411932Y215932D02*
X419091Y223091D01*
X411932Y201400D02*
Y215932D01*
X531177Y248299D02*
X538300D01*
X502379Y219500D02*
X531177Y248299D01*
X525920Y340821D02*
X538300D01*
X525320Y340220D02*
X525920Y340821D01*
X499209Y340220D02*
X525320D01*
X527251Y334915D02*
X538300D01*
X527404Y332946D02*
X538300D01*
X527557Y330978D02*
X538300D01*
X524988Y328409D02*
X527557Y330978D01*
X524835Y330378D02*
X527404Y332946D01*
X524682Y332346D02*
X527251Y334915D01*
X499209Y332346D02*
X524682D01*
X499209Y330378D02*
X524835D01*
X499209Y328409D02*
X524988D01*
X527709Y329010D02*
X538300D01*
X525141Y326441D02*
X527709Y329010D01*
X499209Y326441D02*
X525141D01*
X516197Y279197D02*
X520731Y283732D01*
X499209Y279197D02*
X516197D01*
X515665Y281165D02*
X529900Y295400D01*
X499209Y281165D02*
X515665D01*
X511689Y284200D02*
X513800D01*
X510622Y283134D02*
X511689Y284200D01*
X512800Y287500D02*
X515100D01*
X510402Y285102D02*
X512800Y287500D01*
X499209Y285102D02*
X510402D01*
X510171Y287071D02*
X528400Y305300D01*
X499209Y287071D02*
X510171D01*
X510018Y289039D02*
X526500Y305521D01*
X499209Y289039D02*
X510018D01*
X509865Y291008D02*
X524939Y306082D01*
X499209Y291008D02*
X509865D01*
X524939Y306082D02*
Y314439D01*
X526500Y305521D02*
Y313000D01*
X528400Y305300D02*
Y311600D01*
X499209Y249669D02*
X512991D01*
X523431Y260109D01*
X538300D01*
X523278Y262078D02*
X538300D01*
X512838Y251638D02*
X523278Y262078D01*
X499209Y251638D02*
X512838D01*
X499209Y257543D02*
X512629D01*
X499209Y259512D02*
X512476D01*
X499209Y261480D02*
X512323D01*
X499209Y263449D02*
X512170D01*
X520642Y271920D01*
X512323Y261480D02*
X520795Y269952D01*
X512476Y259512D02*
X518979Y266015D01*
X512629Y257543D02*
X519132Y264047D01*
X538300D01*
X518979Y266015D02*
X538300D01*
X520795Y269952D02*
X538300D01*
X520642Y271920D02*
X538300D01*
X522458Y275857D02*
X538300D01*
X512017Y265417D02*
X522458Y275857D01*
X499209Y265417D02*
X512017D01*
X361591Y283134D02*
X368500D01*
X339886Y252163D02*
Y261429D01*
X361744Y281165D02*
X368500D01*
X341386Y251542D02*
Y260807D01*
X361744Y281165D01*
X339886Y261429D02*
X361591Y283134D01*
X361897Y279197D02*
X368500D01*
X342886Y260186D02*
X361897Y279197D01*
X342886Y250921D02*
Y260186D01*
X360960Y275260D02*
X368500D01*
X344386Y258686D02*
X360960Y275260D01*
X344386Y250299D02*
Y258686D01*
X352000Y254064D02*
X357448Y259512D01*
X353500Y253443D02*
X357601Y257543D01*
X355000Y252821D02*
X357753Y255575D01*
X360774Y271323D02*
X368500D01*
X345886Y249678D02*
Y256435D01*
X360927Y269354D02*
X368500D01*
X347386Y249057D02*
Y255814D01*
X361079Y267386D02*
X368500D01*
X348886Y248435D02*
Y255193D01*
X361232Y265417D02*
X368500D01*
X350500Y247928D02*
Y254685D01*
X352000Y247307D02*
Y254064D01*
X353500Y246685D02*
Y253443D01*
X355000Y246064D02*
Y252821D01*
X350500Y254685D02*
X361232Y265417D01*
X348886Y255193D02*
X361079Y267386D01*
X347386Y255814D02*
X360927Y269354D01*
X345886Y256435D02*
X360774Y271323D01*
X357906Y253606D02*
X368500D01*
X356500Y252200D02*
X357906Y253606D01*
X356500Y245443D02*
Y252200D01*
X357753Y255575D02*
X368500D01*
X357601Y257543D02*
X368500D01*
X357448Y259512D02*
X368500D01*
X338386Y252784D02*
Y285199D01*
X336886Y253406D02*
Y285820D01*
X335386Y254027D02*
Y286441D01*
X333886Y254648D02*
Y287063D01*
X357350Y310527D01*
X335386Y286441D02*
X358850Y309905D01*
X336886Y285820D02*
X360350Y309284D01*
X338386Y285199D02*
X362400Y309213D01*
X284400Y254000D02*
Y254900D01*
X283175Y252776D02*
X284400Y254000D01*
X278866Y252776D02*
X283175D01*
X304025D02*
X308000D01*
X302000Y254800D02*
X304025Y252776D01*
X320900Y205600D02*
X361032Y245732D01*
X287600Y205600D02*
X320900D01*
X285700Y207500D02*
X287600Y205600D01*
X278866Y207500D02*
X285700D01*
X352000Y121000D02*
Y124528D01*
X342000Y121000D02*
Y132407D01*
X332000Y121000D02*
Y140285D01*
X322000Y121000D02*
Y148164D01*
X312000Y121000D02*
Y156043D01*
X302000Y121000D02*
Y163921D01*
X263700Y202221D02*
X302000Y163921D01*
X265200Y202843D02*
X312000Y156043D01*
X266700Y203464D02*
X322000Y148164D01*
X268200Y204085D02*
X332000Y140285D01*
X269700Y204707D02*
X342000Y132407D01*
X271200Y205328D02*
X352000Y124528D01*
X271200Y205328D02*
Y209900D01*
X269700Y204707D02*
Y212200D01*
X268200Y204085D02*
Y215700D01*
X266700Y203464D02*
Y220200D01*
X265200Y202843D02*
Y221000D01*
X263700Y202221D02*
Y221700D01*
X292000Y121000D02*
Y171800D01*
X262200Y201600D02*
X292000Y171800D01*
X262200Y201600D02*
Y222400D01*
X272700Y206031D02*
X357732Y121000D01*
X272700Y206031D02*
Y208700D01*
X273468Y209469D01*
X271200Y209900D02*
X272737Y211437D01*
X269700Y212200D02*
X272874Y215374D01*
X268200Y215700D02*
X269843Y217342D01*
X266700Y220200D02*
X267779Y221280D01*
X265200Y221000D02*
X267448Y223248D01*
X263700Y221700D02*
X269185Y227185D01*
X262200Y222400D02*
X268953Y229153D01*
X273468Y209469D02*
X278866D01*
X357732Y121000D02*
X362000D01*
X272737Y211437D02*
X278866D01*
X272874Y215374D02*
X278866D01*
X269843Y217342D02*
X278866D01*
X267779Y221280D02*
X278866D01*
X267448Y223248D02*
X278866D01*
X269185Y227185D02*
X278866D01*
X268953Y229153D02*
X278866D01*
X255878Y231122D02*
X278866D01*
X256909Y233090D02*
X278866D01*
X255851Y237028D02*
X278866D01*
X256004Y238996D02*
X278866D01*
X255067Y242933D02*
X278866D01*
X256099Y244901D02*
X278866D01*
X255040Y248838D02*
X278866D01*
X240250Y263629D02*
X255040Y248838D01*
X255193Y250807D02*
X278866D01*
X360879Y247701D02*
X368500D01*
X320679Y207500D02*
X360879Y247701D01*
X330045Y250807D02*
X333886Y254648D01*
X308000Y250807D02*
X330045D01*
X330197Y248838D02*
X335386Y254027D01*
X308000Y248838D02*
X330197D01*
X328382Y244901D02*
X336886Y253406D01*
X308000Y244901D02*
X328382D01*
X328535Y242933D02*
X338386Y252784D01*
X308000Y242933D02*
X328535D01*
X326719Y238996D02*
X339886Y252163D01*
X308000Y238996D02*
X326719D01*
X326872Y237028D02*
X341386Y251542D01*
X308000Y237028D02*
X326872D01*
X325056Y233090D02*
X342886Y250921D01*
X308000Y233090D02*
X325056D01*
X325209Y231122D02*
X344386Y250299D01*
X308000Y231122D02*
X325209D01*
X325362Y229153D02*
X345886Y249678D01*
X308000Y229153D02*
X325362D01*
X325514Y227185D02*
X347386Y249057D01*
X308000Y227185D02*
X325514D01*
X323699Y223248D02*
X348886Y248435D01*
X308000Y223248D02*
X323699D01*
X323852Y221280D02*
X350500Y247928D01*
X308000Y221280D02*
X323852D01*
X322036Y217342D02*
X352000Y247307D01*
X308000Y217342D02*
X322036D01*
X322189Y215374D02*
X353500Y246685D01*
X308000Y215374D02*
X322189D01*
X320373Y211437D02*
X355000Y246064D01*
X308000Y211437D02*
X320373D01*
X320526Y209469D02*
X356500Y245443D01*
X308000Y209469D02*
X320526D01*
X308000Y207500D02*
X320679D01*
X361032Y245732D02*
X368500D01*
X577268Y264047D02*
X592221Y279000D01*
X570234Y264047D02*
X577268D01*
X553000Y312800D02*
Y352823D01*
X549524Y309325D02*
X553000Y312800D01*
X538300Y309325D02*
X549524D01*
X529893Y242393D02*
X538300D01*
X529483Y244361D02*
X538300D01*
X530767Y250267D02*
X538300D01*
X532204Y254204D02*
X538300D01*
X521672Y256172D02*
X538300D01*
X520731Y283732D02*
X538300D01*
X521263Y281763D02*
X538300D01*
X520826Y277826D02*
X538300D01*
X567434Y242393D02*
X581193D01*
X567434Y244361D02*
X580661D01*
X567434Y250267D02*
X578967D01*
X567434Y248299D02*
X579120D01*
X567434Y256172D02*
X577373D01*
X567434Y254204D02*
X577804D01*
X567434Y260109D02*
X577573D01*
X567434Y262078D02*
X577421D01*
X567434Y266015D02*
X577115D01*
X567434Y269952D02*
X577273D01*
X589321Y282000D01*
X567434Y271920D02*
X577120D01*
X588700Y283500D01*
X593464Y276000D02*
X631879D01*
X577573Y260109D02*
X593464Y276000D01*
X592843Y277500D02*
X632500D01*
X577421Y262078D02*
X592843Y277500D01*
X592221Y279000D02*
X711000D01*
X591600Y280500D02*
X711621D01*
X577115Y266015D02*
X591600Y280500D01*
X567434Y275857D02*
X578936D01*
X588079Y285000D01*
X567434Y277826D02*
X576726D01*
X585400Y286500D01*
X567434Y281763D02*
X575584D01*
X581821Y288000D01*
X567434Y283732D02*
X575431D01*
X581200Y289500D01*
X502923Y402900D02*
X553000Y352823D01*
X530698Y317198D02*
X538300D01*
X526500Y313000D02*
X530698Y317198D01*
X529667Y319167D02*
X538300D01*
X524939Y314439D02*
X529667Y319167D01*
X531993Y311293D02*
X538300D01*
X529900Y309200D02*
X531993Y311293D01*
X529900Y295400D02*
Y309200D01*
X530061Y313262D02*
X538300D01*
X528400Y311600D02*
X530061Y313262D01*
X530604Y323104D02*
X538300D01*
X522130Y314630D02*
X530604Y323104D01*
X530442Y325073D02*
X537750D01*
X521968Y316598D02*
X530442Y325073D01*
X527352Y338852D02*
X538300D01*
X524783Y336283D02*
X527352Y338852D01*
X529095Y344758D02*
X538300D01*
X527726Y346126D02*
X529095Y344758D01*
X499209Y346126D02*
X527726D01*
X538226Y346800D02*
X538300Y346726D01*
X529800Y346800D02*
X538226D01*
X528506Y348094D02*
X529800Y346800D01*
X499209Y348094D02*
X528506D01*
X568100Y311293D02*
X634793D01*
X567434Y313262D02*
X634262D01*
X567434Y317198D02*
X635699D01*
X567434Y319167D02*
X635167D01*
X567434Y323104D02*
X635104D01*
X568150Y325073D02*
X631073D01*
X652500Y346500D01*
X609291Y329010D02*
X610000Y328300D01*
X567434Y329010D02*
X609291D01*
X630300Y328300D02*
X653000Y351000D01*
X610000Y328300D02*
X630300D01*
X567434Y330978D02*
X567512Y330900D01*
X612600D01*
X625700D01*
X649400Y354600D01*
X567434Y338852D02*
X629852D01*
X567434Y340821D02*
X602320D01*
X604000Y342500D01*
X597226Y346726D02*
X600500Y350000D01*
X567434Y346726D02*
X597226D01*
X567434Y350663D02*
X592663D01*
X597000Y355000D01*
X567434Y352631D02*
X578432D01*
X585800Y360000D02*
X652000D01*
X578432Y352631D02*
X585800Y360000D01*
X478146Y361283D02*
Y375552D01*
X480114Y361283D02*
Y375399D01*
X482083Y361283D02*
Y375247D01*
X484051Y361283D02*
Y375094D01*
X486020Y361283D02*
Y374941D01*
X492838Y381760D01*
X484051Y375094D02*
X488902Y379944D01*
X482083Y375247D02*
X486933Y380097D01*
X480114Y375399D02*
X482996Y378281D01*
X478146Y375552D02*
X481028Y378434D01*
Y388100D01*
X482996Y378281D02*
Y388100D01*
X486933Y380097D02*
Y388100D01*
X488902Y379944D02*
Y388100D01*
X492838Y381760D02*
Y388100D01*
X494807Y381607D02*
Y388100D01*
X487988Y374788D02*
X494807Y381607D01*
X487988Y361283D02*
Y374788D01*
X477091Y376691D02*
Y388100D01*
X476177Y375777D02*
X477091Y376691D01*
X476177Y361283D02*
Y375777D01*
X475122Y377122D02*
Y388100D01*
X466335Y368335D02*
X475122Y377122D01*
X461100Y402900D02*
X502923D01*
X453469Y388100D02*
Y395269D01*
X461100Y402900D01*
X453469Y380269D02*
Y388100D01*
X440744Y367544D02*
X453469Y380269D01*
X440744Y361283D02*
Y367544D01*
X473153Y377275D02*
Y388100D01*
X464366Y368488D02*
X473153Y377275D01*
X471185Y377428D02*
Y388100D01*
X462398Y368640D02*
X471185Y377428D01*
X467248Y375612D02*
Y388100D01*
X460429Y368793D02*
X467248Y375612D01*
X465279Y378780D02*
Y388100D01*
X454524Y368024D02*
X465279Y378780D01*
X461342Y376964D02*
Y388100D01*
X452555Y368177D02*
X461342Y376964D01*
X459374Y377117D02*
Y388100D01*
X450587Y368329D02*
X459374Y377117D01*
X455437Y376937D02*
Y388100D01*
X448618Y370118D02*
X455437Y376937D01*
X615700Y438300D02*
X653000Y401000D01*
X482996Y434561D02*
X486734Y438300D01*
X607200Y436800D02*
X653000Y391000D01*
X486933Y429194D02*
X494538Y436800D01*
X603609Y435300D02*
X651509Y387400D01*
X488902Y428663D02*
X495539Y435300D01*
X600200Y433800D02*
X653000Y381000D01*
X492838Y426838D02*
X499800Y433800D01*
X600200D01*
X495539Y435300D02*
X603609D01*
X494538Y436800D02*
X607200D01*
X486734Y438300D02*
X615700D01*
X591700Y432300D02*
X653000Y371000D01*
X502538Y432300D02*
X591700D01*
X494807Y424569D02*
X502538Y432300D01*
X486196Y439883D02*
X619026D01*
X485575Y441383D02*
X622617D01*
X484953Y442883D02*
X626026D01*
X484332Y444383D02*
X629617D01*
X483711Y445883D02*
X633026D01*
X483089Y447383D02*
X636617D01*
X482468Y448883D02*
X640026D01*
X481847Y450383D02*
X643617D01*
X481225Y451883D02*
X652117D01*
X480608Y453387D02*
X645387D01*
X481028Y434714D02*
X486196Y439883D01*
X477091Y432899D02*
X485575Y441383D01*
X475000Y432929D02*
X484953Y442883D01*
X473153Y433204D02*
X484332Y444383D01*
X471185Y433357D02*
X483711Y445883D01*
X467248Y431541D02*
X483089Y447383D01*
X465279Y431694D02*
X482468Y448883D01*
X461342Y429879D02*
X481847Y450383D01*
X459374Y430031D02*
X481225Y451883D01*
X455437Y428216D02*
X480608Y453387D01*
X482996Y417234D02*
Y434561D01*
X481028Y417234D02*
Y434714D01*
X477091Y417234D02*
Y432899D01*
X475000Y421000D02*
Y432929D01*
X473153Y417234D02*
Y433204D01*
X471185Y417234D02*
Y433357D01*
X467248Y417234D02*
Y431541D01*
X465279Y417234D02*
Y431694D01*
X461342Y417234D02*
Y429879D01*
X459374Y417234D02*
Y430031D01*
X455437Y417234D02*
Y428216D01*
X480100Y455000D02*
X641500D01*
X453469Y428369D02*
X480100Y455000D01*
X453469Y417234D02*
Y428369D01*
X494807Y417234D02*
Y424569D01*
X486933Y417234D02*
Y429194D01*
X488902Y417234D02*
Y428663D01*
X492838Y417234D02*
Y426838D01*
X444431Y479700D02*
X448300D01*
X386822Y422090D02*
X444431Y479700D01*
X386822Y417234D02*
Y422090D01*
X441600Y474200D02*
X453200D01*
X388790Y421390D02*
X441600Y474200D01*
X388790Y417234D02*
Y421390D01*
X358200Y348557D02*
X362600Y344157D01*
X358200Y395000D02*
X363200Y400000D01*
X358200Y348557D02*
Y395000D01*
X334000Y360500D02*
X356700Y383200D01*
X408475Y381646D02*
Y388100D01*
Y381646D02*
X414321Y375800D01*
X404538Y383461D02*
Y388100D01*
Y383461D02*
X413700Y374300D01*
X400601Y381998D02*
Y388100D01*
X398633Y380667D02*
Y388100D01*
X409248Y361283D02*
Y373352D01*
X400601Y381998D02*
X409248Y373352D01*
X407280Y361284D02*
Y372020D01*
X398633Y380667D02*
X407280Y372020D01*
X392727Y383973D02*
Y388100D01*
X388790D02*
X389000Y387891D01*
Y374600D02*
Y387891D01*
Y374600D02*
X389563Y374037D01*
Y361283D02*
Y374037D01*
X386822Y374398D02*
Y388100D01*
Y374398D02*
X387594Y373626D01*
Y361283D02*
Y373626D01*
X382885Y375515D02*
Y388100D01*
X378948Y376052D02*
Y388100D01*
X376979Y375624D02*
Y388100D01*
X373042Y377440D02*
Y388100D01*
X371074Y377287D02*
Y388100D01*
X367137Y377463D02*
Y388100D01*
X365168D02*
X365200Y388069D01*
Y358800D02*
Y388069D01*
X363200Y358921D02*
Y388100D01*
X360000Y355721D02*
X363200Y358921D01*
X360000Y348879D02*
Y355721D01*
Y348879D02*
X362753Y346126D01*
X361800Y355400D02*
X365200Y358800D01*
X361800Y349200D02*
Y355400D01*
Y349200D02*
X362906Y348094D01*
X368500D01*
X408475Y417234D02*
X412109Y413600D01*
X417100D01*
X404538Y417234D02*
Y425596D01*
X400601Y417234D02*
Y423780D01*
X398633Y417234D02*
Y423933D01*
X392727Y417234D02*
Y421327D01*
X382885Y417234D02*
Y423885D01*
X378948Y417234D02*
Y429948D01*
X376979Y417234D02*
Y437980D01*
X371074Y417234D02*
Y452074D01*
X373042Y417234D02*
Y444042D01*
X409000Y480000D01*
X371074Y452074D02*
X399000Y480000D01*
X365100Y466100D02*
X379000Y480000D01*
X365100Y417234D02*
Y466100D01*
X367200Y458200D02*
X389000Y480000D01*
X367200Y417234D02*
Y458200D01*
X363200Y400000D02*
Y417234D01*
X356700Y383200D02*
Y438048D01*
X382885Y375515D02*
X385904Y372496D01*
X378000Y302500D02*
X378500D01*
X373744Y306756D02*
X378000Y302500D01*
X378661Y312661D02*
X379000Y313000D01*
X368500Y312661D02*
X378661D01*
X679000Y157576D02*
Y229600D01*
X668300Y240300D02*
X679000Y229600D01*
X668300Y240300D02*
Y243608D01*
X666736Y239664D02*
Y242664D01*
X663148Y246252D02*
X666736Y242664D01*
X656606Y246252D02*
X663148D01*
X659357Y252551D02*
X668300Y243608D01*
X677500Y156954D02*
Y228900D01*
X666736Y239664D02*
X677500Y228900D01*
X656606Y252551D02*
X659357D01*
X362753Y346126D02*
X368500D01*
X362600Y344157D02*
X368500D01*
X362252Y338252D02*
X368500D01*
X357350Y333350D02*
X362252Y338252D01*
X357350Y310527D02*
Y333350D01*
X362178Y330378D02*
X368500D01*
X358850Y327050D02*
X362178Y330378D01*
X363448Y298882D02*
X368500D01*
X358066Y293500D02*
X363448Y298882D01*
X361787Y304787D02*
X368500D01*
X359500Y302500D02*
X361787Y304787D01*
X363230Y314630D02*
X368500D01*
X362400Y313800D02*
X363230Y314630D01*
X362400Y309213D02*
Y313800D01*
X375776Y308724D02*
X378500Y306000D01*
X368500Y308724D02*
X375776D01*
X363295Y300850D02*
X368500D01*
X358445Y296000D02*
X363295Y300850D01*
X351500Y293500D02*
X358066D01*
X360473Y300150D02*
X363142Y302819D01*
X354500Y296000D02*
X358445D01*
X357650Y300150D02*
X360473D01*
X363142Y302819D02*
X368500D01*
X438776Y225346D02*
Y230575D01*
X605800Y267000D02*
X628151D01*
X581193Y242393D02*
X605800Y267000D01*
X604800Y268500D02*
X628772D01*
X580661Y244361D02*
X604800Y268500D01*
X579120Y248299D02*
X600821Y270000D01*
X629393D01*
X600200Y271500D02*
X630015D01*
X578967Y250267D02*
X600200Y271500D01*
X596600Y273000D02*
X630636D01*
X577804Y254204D02*
X596600Y273000D01*
X595700Y274500D02*
X631257D01*
X577373Y256172D02*
X595700Y274500D01*
X589321Y282000D02*
X712243D01*
X588700Y283500D02*
X712864D01*
X581821Y288000D02*
X714728D01*
X588079Y285000D02*
X713485D01*
X585400Y286500D02*
X714107D01*
X515287Y304787D02*
X515500Y305000D01*
X499209Y304787D02*
X515287D01*
X510048Y308724D02*
X512224D01*
X509973Y308650D02*
X510048Y308724D01*
X508027Y308650D02*
X509973D01*
X507952Y308724D02*
X508027Y308650D01*
X499209Y308724D02*
X507952D01*
X512224D02*
X512500Y309000D01*
X464366Y361283D02*
Y368488D01*
X462398Y361283D02*
Y368640D01*
X460429Y361283D02*
Y368793D01*
X450587Y361283D02*
Y368329D01*
X452555Y361283D02*
Y368177D01*
X413185Y361283D02*
Y371485D01*
X413463Y371763D01*
X373042Y377440D02*
X379720Y370762D01*
Y361283D02*
Y370762D01*
X376979Y375624D02*
X381689Y370915D01*
Y361283D02*
Y370915D01*
X378948Y376052D02*
X383657Y371343D01*
Y361283D02*
Y371343D01*
X395469Y367869D02*
X401000Y373400D01*
X395469Y361283D02*
Y367869D01*
X444100Y472700D02*
X461700D01*
X392727Y421327D02*
X444100Y472700D01*
X375783Y361283D02*
Y368817D01*
X367137Y377463D02*
X375783Y368817D01*
X462279Y214621D02*
X468110Y208790D01*
X463379Y216121D02*
X470078Y209422D01*
X464366Y217634D02*
X472047Y209953D01*
X464366Y217634D02*
Y230575D01*
X474209Y218577D02*
X475185Y217600D01*
X474209Y218577D02*
Y230575D01*
X472240Y218424D02*
Y230575D01*
Y218424D02*
X474564Y216100D01*
X470272Y218271D02*
Y230575D01*
X468303Y218118D02*
Y230575D01*
X466335Y217965D02*
X474015Y210285D01*
X466335Y217965D02*
Y230575D01*
X651900Y145200D02*
X665078Y132022D01*
Y126000D02*
Y132022D01*
X652536Y146700D02*
X667047Y132189D01*
Y126000D02*
Y132189D01*
X671500Y154469D02*
X678858Y147111D01*
Y126000D02*
Y147111D01*
X714221Y122357D02*
Y126000D01*
X697864Y106000D02*
X714221Y122357D01*
X702410Y146410D02*
X704000Y148000D01*
X702410Y126000D02*
Y146410D01*
X700441Y146562D02*
X703379Y149500D01*
X700441Y126000D02*
Y146562D01*
X698473Y146715D02*
X702757Y151000D01*
X698473Y126000D02*
Y146715D01*
X696504Y147004D02*
X702000Y152500D01*
X696504Y126000D02*
Y147004D01*
X694536Y147157D02*
X701379Y154000D01*
X694536Y126000D02*
Y147157D01*
X692567Y147567D02*
X700500Y155500D01*
X692567Y126000D02*
Y147567D01*
X690599Y147720D02*
X699879Y157000D01*
X690599Y126000D02*
Y147720D01*
X674500Y155711D02*
X682795Y147417D01*
Y126000D02*
Y147417D01*
X676000Y156333D02*
X684763Y147570D01*
Y126000D02*
Y147570D01*
X677500Y156954D02*
X686732Y147723D01*
Y126000D02*
Y147723D01*
X679000Y157576D02*
X688700Y147875D01*
Y126000D02*
Y147875D01*
X379854Y332346D02*
X380800Y331400D01*
X368500Y332346D02*
X379854D01*
X232016Y310342D02*
Y310816D01*
X235250Y289050D02*
Y307108D01*
X232016Y310342D02*
X235250Y307108D01*
X230250Y289050D02*
Y293450D01*
X358850Y309905D02*
Y327050D01*
X531236Y106000D02*
X697864D01*
X531857Y107500D02*
X697243D01*
X532479Y109000D02*
X696621D01*
X497236Y140000D02*
X531236Y106000D01*
X497857Y141500D02*
X531857Y107500D01*
X533100Y110500D02*
X696000D01*
X299753Y328100D02*
X303200D01*
X351433Y443315D02*
X356700Y438048D01*
X417100Y413600D02*
X417500Y414000D01*
X417000Y393600D02*
Y396300D01*
Y393600D02*
X427100Y383500D01*
Y361419D02*
Y383500D01*
X327700Y306753D02*
Y328753D01*
X320000Y299053D02*
X327700Y306753D01*
X320000Y298000D02*
Y299053D01*
X329200Y308200D02*
X331000Y310000D01*
X329200Y305079D02*
Y308200D01*
X325000Y300879D02*
X329200Y305079D01*
X325000Y298000D02*
Y300879D01*
X327700Y328753D02*
X331447Y332500D01*
X641500Y212000D02*
X651343Y202157D01*
X623050Y250800D02*
X623675D01*
X615000Y258850D02*
X623050Y250800D01*
X667850Y258850D02*
X688000D01*
X667100Y259600D02*
X667850Y258850D01*
X608692Y140700D02*
X649979D01*
X591463Y157929D02*
X608692Y140700D01*
X609313Y142200D02*
X650600D01*
X592963Y158550D02*
X609313Y142200D01*
X609934Y143700D02*
X651279D01*
X594463Y159171D02*
X609934Y143700D01*
X611798Y148200D02*
X653157D01*
X598963Y161035D02*
X611798Y148200D01*
X612420Y149700D02*
X653779D01*
X600463Y161657D02*
X612420Y149700D01*
X613041Y151200D02*
X654400D01*
X601963Y162278D02*
X613041Y151200D01*
X597463Y160414D02*
X611177Y146700D01*
X652536D01*
X595963Y159793D02*
X610556Y145200D01*
X651900D01*
X649979Y140700D02*
X659173Y131506D01*
X650600Y142200D02*
X661141Y131659D01*
X651279Y143700D02*
X663110Y131869D01*
X653157Y148200D02*
X669015Y132342D01*
X653779Y149700D02*
X670984Y132495D01*
X654400Y151200D02*
X672952Y132648D01*
X661141Y126000D02*
Y131659D01*
X663110Y126000D02*
Y131869D01*
X669015Y126000D02*
Y132342D01*
X670984Y126000D02*
Y132495D01*
X672952Y126000D02*
Y132648D01*
X659173Y126000D02*
Y131506D01*
X611088Y167512D02*
X616500Y162100D01*
X607000Y167512D02*
X611088D01*
X426965Y361283D02*
X427100Y361419D01*
X414321Y375800D02*
X422321D01*
X425600Y372521D01*
Y369979D02*
Y372521D01*
X423028Y367406D02*
X425600Y369979D01*
X423028Y361283D02*
Y367406D01*
X413700Y374300D02*
X421700D01*
X424100Y371900D01*
Y370600D02*
Y371900D01*
X421059Y367559D02*
X424100Y370600D01*
X421059Y361283D02*
Y367559D01*
X419091Y369091D02*
X421300Y371300D01*
X417122Y361283D02*
Y371522D01*
X403343Y361283D02*
Y369343D01*
X392727Y383973D02*
X401000Y375700D01*
Y373400D02*
Y375700D01*
X394900Y375300D02*
Y378000D01*
X391532Y371932D02*
X394900Y375300D01*
X396925Y374825D02*
X398500D01*
X393500Y371400D02*
X396925Y374825D01*
X393500Y361283D02*
Y371400D01*
X391532Y361283D02*
Y371932D01*
X385904Y361561D02*
Y372496D01*
X404538Y425596D02*
X447143Y468200D01*
X487200D01*
X499000Y480000D01*
X478700Y469700D02*
X489000Y480000D01*
X446521Y469700D02*
X478700D01*
X400601Y423780D02*
X446521Y469700D01*
X470200Y471200D02*
X479000Y480000D01*
X445900Y471200D02*
X470200D01*
X461700Y472700D02*
X469000Y480000D01*
X453200Y474200D02*
X459000Y480000D01*
X398633Y423933D02*
X445900Y471200D01*
X438300Y256800D02*
X448400Y246700D01*
X430300Y256800D02*
X438300D01*
X428200Y254700D02*
X430300Y256800D01*
X445100Y254600D02*
X451000D01*
X448400Y239900D02*
Y246700D01*
Y239900D02*
X452555Y235745D01*
X458461Y230575D02*
Y247139D01*
X451000Y254600D02*
X458461Y247139D01*
X452555Y230575D02*
Y235745D01*
X368500Y296913D02*
X394500D01*
X368500Y322504D02*
X403504D01*
X753161Y111400D02*
Y117039D01*
X752800Y117400D02*
X753161Y117039D01*
Y111400D02*
X753200Y111361D01*
X752800Y117400D02*
Y118200D01*
X748043Y126457D02*
X758500Y116000D01*
X704378Y145878D02*
X705000Y146500D01*
X704378Y126000D02*
Y145878D01*
X699879Y157000D02*
X744651D01*
X700500Y155500D02*
X745272D01*
X701379Y154000D02*
X745893D01*
X702000Y152500D02*
X746515D01*
X702757Y151000D02*
X747136D01*
X703379Y149500D02*
X747757D01*
X704000Y148000D02*
X748379D01*
X705000Y146500D02*
X749000D01*
X744651Y157000D02*
X750189Y162539D01*
X745272Y155500D02*
X751689Y161917D01*
X745893Y154000D02*
X753189Y161296D01*
X746515Y152500D02*
X754689Y160675D01*
X747136Y151000D02*
X756189Y160053D01*
X747757Y149500D02*
X757689Y159432D01*
X748379Y148000D02*
X759189Y158811D01*
X749000Y146500D02*
X761000Y158500D01*
X377947Y119321D02*
X392769Y104500D01*
X237750Y283250D02*
Y289050D01*
Y283250D02*
X238000Y283000D01*
X225250Y283250D02*
Y289050D01*
X225000Y283000D02*
X225250Y283250D01*
X240244Y289056D02*
Y301000D01*
Y289056D02*
X240250Y289050D01*
X237000Y309347D02*
X237653Y310000D01*
X237000Y298000D02*
Y309347D01*
Y298000D02*
X237750Y297250D01*
Y289050D02*
Y297250D01*
X242750Y279250D02*
Y289050D01*
Y279250D02*
X243000Y279000D01*
X245250Y280750D02*
X247000Y279000D01*
X245250Y280750D02*
Y289050D01*
X221654Y306000D02*
Y316000D01*
X221654Y306000D02*
X221654Y306000D01*
Y316000D02*
X222500Y316846D01*
Y330300D01*
X227500Y316846D02*
X228346Y316000D01*
X227500Y316846D02*
Y330300D01*
X213347Y338000D02*
X224000D01*
X227500Y334500D01*
Y330300D02*
Y334500D01*
X206653Y350654D02*
X211000D01*
X205000Y349000D02*
X206653Y350654D01*
X200346Y349000D02*
X205000D01*
X200346Y358000D02*
X205000D01*
X208000Y361000D01*
X226000D01*
X232500Y354500D01*
Y349700D02*
Y354500D01*
X211000Y350654D02*
X221654Y340000D01*
X227000D01*
X232500Y334500D01*
Y330300D02*
Y334500D01*
X222000Y373000D02*
X222400Y374000D01*
X227000Y349200D02*
X227500Y349700D01*
X225000Y359500D02*
X227000Y357500D01*
X220500Y359500D02*
X225000D01*
X215000Y354000D02*
X220500Y359500D01*
X194346Y354000D02*
X215000D01*
X193347Y353000D02*
X194346Y354000D01*
X193347Y349307D02*
Y353000D01*
Y358000D01*
X227000Y349200D02*
Y357500D01*
X237500Y338500D02*
Y349700D01*
X235000Y336000D02*
X237500Y338500D01*
X235000Y319346D02*
Y336000D01*
Y319346D02*
X244346Y310000D01*
X232750Y289050D02*
Y301596D01*
X228346Y306000D02*
X232750Y301596D01*
X235250Y285250D02*
Y289050D01*
X242750Y263250D02*
X255193Y250807D01*
X242750Y263250D02*
Y268950D01*
X240250Y263629D02*
Y268950D01*
X237750Y263250D02*
X256099Y244901D01*
X237750Y263250D02*
Y268950D01*
X235250Y262750D02*
X255067Y242933D01*
X235250Y262750D02*
Y268950D01*
X232750Y262250D02*
X256004Y238996D01*
X232750Y262250D02*
Y268950D01*
X231250Y261629D02*
Y261750D01*
Y261629D02*
X255851Y237028D01*
X230250Y262750D02*
X231250Y261750D01*
X230250Y262750D02*
Y268950D01*
X227750Y262250D02*
X256909Y233090D01*
X227750Y262250D02*
Y268950D01*
X225250Y261750D02*
X255878Y231122D01*
X225250Y261750D02*
Y268950D01*
X376979Y437980D02*
X419000Y480000D01*
X378948Y429948D02*
X429000Y480000D01*
X382885Y423885D02*
X439000Y480000D01*
X394215Y217215D02*
X399406Y222406D01*
Y230575D01*
X421059Y222441D02*
X423500Y220000D01*
X421059Y222441D02*
Y230575D01*
X426965Y222035D02*
X427500Y221500D01*
X426965Y222035D02*
Y230575D01*
X428933Y224067D02*
X430000Y223000D01*
X428933Y224067D02*
Y230575D01*
X499209Y269354D02*
X512354D01*
X499209Y314630D02*
X522130D01*
X499209Y316598D02*
X521968D01*
X499209Y336283D02*
X524783D01*
X385626Y361283D02*
X385904Y361561D01*
X377500Y361535D02*
X377752Y361283D01*
X371074Y377287D02*
X377752Y370609D01*
Y361787D02*
Y370609D01*
X377500Y361535D02*
X377752Y361787D01*
X363390Y320257D02*
X368222D01*
X368500Y320535D01*
X361621Y242621D02*
X362764Y243764D01*
X368500D01*
X641500Y455000D02*
X652000Y465500D01*
X708500D01*
X713000Y461000D01*
X645387Y453387D02*
X653000Y461000D01*
X652117Y451883D02*
X653000Y451000D01*
X643617Y450383D02*
X653000Y441000D01*
X640026Y448883D02*
X651509Y437400D01*
X706600D01*
X713000Y431000D01*
X636617Y447383D02*
X653000Y431000D01*
X633026Y445883D02*
X651509Y427400D01*
X706600D01*
X713000Y421000D01*
X629617Y444383D02*
X653000Y421000D01*
X651509Y417400D02*
X706600D01*
X713000Y411000D01*
X706600Y407400D02*
X713000Y401000D01*
X651509Y387400D02*
X706600D01*
X713000Y381000D01*
X649400Y354600D02*
X706600D01*
X713000Y361000D01*
X652500Y346500D02*
X708500D01*
X713000Y351000D01*
X635104Y323104D02*
X653000Y341000D01*
X635167Y319167D02*
X652500Y336500D01*
X708500D01*
X713000Y341000D01*
X635699Y317198D02*
X649500Y331000D01*
X653000D01*
X634262Y313262D02*
X648000Y327000D01*
X709000D01*
X713000Y331000D01*
X634793Y311293D02*
X649000Y325500D01*
X708500D01*
X713000Y321000D01*
X698500Y356500D02*
X713000Y371000D01*
X647500Y356500D02*
X698500D01*
X652000Y360000D02*
X653000Y361000D01*
X713000Y461000D02*
X773909D01*
X780309Y454600D01*
X653000Y461000D02*
X707909D01*
X711509Y457400D01*
X765400D01*
X815400Y437400D02*
X819000Y433800D01*
Y431000D02*
Y433800D01*
X765400Y457400D02*
X776900Y445900D01*
X653000Y451000D02*
X707909D01*
X711509Y454600D01*
X766079D01*
X775400Y439509D02*
X777509Y437400D01*
X800491D01*
X800591Y437500D01*
X805500D01*
X809000Y441000D01*
X775400Y439509D02*
Y445279D01*
X766079Y454600D02*
X775400Y445279D01*
X653000Y441000D02*
X707909D01*
X711509Y444600D01*
X776888Y435900D02*
X804100D01*
X711509Y444600D02*
X768188D01*
X776888Y435900D01*
X804100D02*
X809000Y431000D01*
X653000D02*
X707909D01*
X711509Y427400D01*
X796100D01*
X799000Y430300D01*
Y431000D01*
X713000Y361000D02*
X720000Y368000D01*
Y418900D01*
X726600Y425500D01*
X823500D01*
X829000Y431000D01*
X711521Y357400D02*
X714491D01*
X653000Y351000D02*
X705121D01*
X711521Y357400D01*
X714491D02*
X721500Y364409D01*
Y418279D01*
X727221Y424000D01*
X827091D01*
X839000Y435909D01*
Y441000D01*
X713000Y351000D02*
Y353787D01*
X723000Y363788D01*
Y417657D01*
X727843Y422500D01*
X827713D01*
X840491Y444600D02*
X842600Y442491D01*
X837509Y444600D02*
X840491D01*
X837409Y444500D02*
X837509Y444600D01*
X827713Y422500D02*
X842600Y437388D01*
Y442491D01*
X832500Y444500D02*
X837409D01*
X829000Y441000D02*
X832500Y444500D01*
X653000Y341000D02*
X657000Y345000D01*
X712091D01*
X724500Y357409D01*
Y416500D01*
X729000Y421000D01*
X828334D01*
X844100Y436766D01*
Y443113D01*
X841113Y446100D02*
X844100Y443113D01*
X836887Y446100D02*
X841113D01*
X836788Y446000D02*
X836887Y446100D01*
X834000Y446000D02*
X836788D01*
X829000Y451000D02*
X834000Y446000D01*
X713000Y341000D02*
Y343788D01*
X726000Y356787D01*
Y415879D01*
X729621Y419500D01*
X828955D01*
X845600Y436145D01*
Y455400D01*
X840000Y461000D02*
X845600Y455400D01*
X839000Y461000D02*
X840000D01*
X653000Y331000D02*
X657000Y335000D01*
X712091D01*
X727500Y350409D01*
Y415257D01*
X730243Y418000D01*
X829576D01*
X847100Y435524D01*
Y457991D01*
X840491Y464600D02*
X847100Y457991D01*
X832600Y464600D02*
X840491D01*
X829000Y461000D02*
X832600Y464600D01*
X713000Y331000D02*
Y333787D01*
X729000Y349787D01*
Y414636D01*
X730864Y416500D01*
X830198D01*
X848600Y434902D01*
Y458612D01*
X839000Y468213D02*
X848600Y458612D01*
X839000Y468213D02*
Y471000D01*
X713000Y321000D02*
Y325909D01*
X730500Y343409D01*
Y414015D01*
X731485Y415000D01*
X830819D01*
X850100Y434281D01*
Y464991D01*
X834091Y481000D02*
X850100Y464991D01*
X829000Y481000D02*
X834091D01*
X787509Y447400D02*
X812600D01*
X819000Y441000D01*
X776900Y445900D02*
X811979D01*
X815400Y442479D01*
Y437400D02*
Y442479D01*
X780309Y454600D02*
X780491D01*
X782600Y452491D01*
Y452309D02*
Y452491D01*
Y452309D02*
X787509Y447400D01*
X777509Y467400D02*
X782600D01*
X789000Y461000D01*
X778188Y464600D02*
X780491D01*
X782600Y462491D01*
Y462309D02*
Y462491D01*
Y462309D02*
X787509Y457400D01*
X790491D01*
X800091Y467000D01*
X825000D01*
X829000Y471000D01*
X651509Y407400D02*
X706600D01*
X619026Y439883D02*
X651509Y407400D01*
X626026Y442883D02*
X651509Y417400D01*
X622617Y441383D02*
X653000Y411000D01*
X597000Y467000D02*
Y488500D01*
X600500Y467500D02*
Y488500D01*
X604000Y467000D02*
Y488500D01*
X597000D02*
X600500Y492000D01*
X758000D01*
X779000Y471000D01*
X600500Y488500D02*
X602500Y490500D01*
X757379D01*
X775400Y472479D01*
Y469509D02*
Y472479D01*
Y469509D02*
X777509Y467400D01*
X604000Y488500D02*
X604500Y489000D01*
X756757D01*
X773900Y471857D01*
Y468888D02*
Y471857D01*
Y468888D02*
X778188Y464600D01*
X656606Y199008D02*
X656614Y199000D01*
X656606Y199008D02*
X659992D01*
X668500Y190500D01*
X656606Y205307D02*
X659357D01*
X670000Y194664D01*
X656606Y214756D02*
X659357D01*
X671500Y202613D01*
X656606Y221055D02*
X656662Y221000D01*
X659500D01*
X673000Y207500D01*
X656606Y230504D02*
X659496D01*
X674500Y215500D01*
X656606Y236803D02*
X659357D01*
X676000Y220160D01*
X601963Y162278D02*
Y196721D01*
X600463Y161657D02*
Y201521D01*
X604249Y205307D01*
X607000D01*
X601963Y196721D02*
X604249Y199008D01*
X607000D01*
X598963Y161035D02*
Y209470D01*
X597463Y160414D02*
Y214269D01*
X595963Y159793D02*
Y222218D01*
X668500Y153226D02*
Y190500D01*
X670000Y153848D02*
Y194664D01*
X671500Y154469D02*
Y202613D01*
X673000Y155090D02*
Y207500D01*
X674500Y155711D02*
Y215500D01*
X676000Y156333D02*
Y220160D01*
X668500Y153226D02*
X674921Y146806D01*
Y126000D02*
Y146806D01*
X670000Y153848D02*
X676889Y146958D01*
Y126000D02*
Y146958D01*
X673000Y155090D02*
X680826Y147264D01*
Y126000D02*
Y147264D01*
X594463Y159171D02*
Y227017D01*
X592963Y158550D02*
Y234966D01*
X591463Y157929D02*
Y239765D01*
X594463Y227017D02*
X604249Y236803D01*
X607000D01*
X595963Y222218D02*
X604249Y230504D01*
X607000D01*
X597463Y214269D02*
X604249Y221055D01*
X607000D01*
X598963Y209470D02*
X604249Y214756D01*
X607000D01*
X592963Y234966D02*
X604249Y246252D01*
X607000D01*
X591463Y239765D02*
X604249Y252551D01*
X607000D01*
X757689Y159432D02*
Y229976D01*
X756189Y160053D02*
Y228000D01*
X754689Y160675D02*
Y219000D01*
X753189Y161296D02*
Y211500D01*
X466335Y361283D02*
Y368335D01*
X454524Y361283D02*
Y368024D01*
X448618Y361283D02*
Y370118D01*
X419091Y361283D02*
Y369091D01*
X512791Y273291D02*
X521263Y281763D01*
X512354Y269354D02*
X520826Y277826D01*
X499209Y273291D02*
X512791D01*
X499209Y247701D02*
X513201D01*
X521672Y256172D01*
X500500Y222500D02*
X532204Y254204D01*
X503000Y218000D02*
X512500Y227500D01*
X501500Y221000D02*
X530767Y250267D01*
X512500Y227500D02*
X512621D01*
X529483Y244361D01*
X504000Y216500D02*
X529893Y242393D01*
X492500Y222500D02*
X500500D01*
X491925Y223075D02*
X492500Y222500D01*
X491925Y223075D02*
Y230575D01*
X726500Y254500D02*
X731598Y249402D01*
X737606D01*
Y252551D02*
X740357D01*
X725000Y250500D02*
X732398Y243102D01*
X737606D01*
X723500Y242000D02*
X731846Y233654D01*
X737606D01*
X722000Y238000D02*
X732646Y227354D01*
X737606D01*
X720500Y229500D02*
X732094Y217906D01*
X737606D01*
X719000Y224500D02*
X731894Y211606D01*
X737606D01*
X717500Y216500D02*
X731843Y202157D01*
X737606D01*
X716000Y211500D02*
X731642Y195858D01*
X737606D01*
X711000Y279000D02*
X716000Y274000D01*
Y211500D02*
Y274000D01*
X711621Y280500D02*
X717500Y274621D01*
X712243Y282000D02*
X719000Y275243D01*
X712864Y283500D02*
X720500Y275864D01*
X713485Y285000D02*
X722000Y276485D01*
X714107Y286500D02*
X723500Y277107D01*
X714728Y288000D02*
X725000Y277728D01*
X715349Y289500D02*
X726500Y278349D01*
X717500Y216500D02*
Y274621D01*
X719000Y224500D02*
Y275243D01*
X720500Y229500D02*
Y275864D01*
X722000Y238000D02*
Y276485D01*
X723500Y242000D02*
Y277107D01*
X725000Y250500D02*
Y277728D01*
X581200Y289500D02*
X715349D01*
X726500Y254500D02*
Y278349D01*
X632500Y277500D02*
X650500Y259500D01*
Y251000D02*
Y259500D01*
Y251000D02*
X652098Y249402D01*
X656606D01*
X631879Y276000D02*
X649000Y258879D01*
Y245500D02*
Y258879D01*
Y245500D02*
X651398Y243102D01*
X656606D01*
X631257Y274500D02*
X647500Y258257D01*
Y237500D02*
Y258257D01*
Y237500D02*
X651346Y233654D01*
X656606D01*
X630636Y273000D02*
X646000Y257636D01*
Y233500D02*
Y257636D01*
Y233500D02*
X652146Y227354D01*
X656606D01*
X630015Y271500D02*
X644500Y257015D01*
Y225000D02*
Y257015D01*
Y225000D02*
X651594Y217906D01*
X656606D01*
X629393Y270000D02*
X643000Y256393D01*
Y220000D02*
Y256393D01*
Y220000D02*
X651394Y211606D01*
X656606D01*
X628772Y268500D02*
X641500Y255772D01*
Y212000D02*
Y255772D01*
X651343Y202157D02*
X656606D01*
X628151Y267000D02*
X640000Y255151D01*
Y207500D02*
Y255151D01*
Y207500D02*
X651642Y195858D01*
X656606D01*
X607000Y258850D02*
X615000D01*
X607000Y195858D02*
X615000D01*
X607000Y202157D02*
X615000D01*
X607000Y211606D02*
X615000D01*
X607000Y217906D02*
X615000D01*
X607000Y227354D02*
X615000D01*
X607000Y233654D02*
X615000D01*
X607000Y243102D02*
X614898D01*
X615000Y243000D01*
X607000Y249402D02*
X615000D01*
X629852Y338852D02*
X647500Y356500D01*
X688000Y186409D02*
Y189559D01*
X607000Y186409D02*
Y189559D01*
Y186409D02*
X614909D01*
X607000Y183260D02*
X617240D01*
X607000Y176961D02*
X617461D01*
X688000Y186409D02*
X693909D01*
X688000Y183260D02*
X699760D01*
X688000Y173811D02*
X694189D01*
X688000Y167512D02*
X693500Y167500D01*
X738106Y199008D02*
X747992D01*
X750189Y196811D01*
Y162539D02*
Y196811D01*
X737606Y205307D02*
X749193D01*
X751689Y202811D01*
Y161917D02*
Y202811D01*
X737606Y214500D02*
X750189D01*
X753189Y211500D01*
X737606Y221055D02*
X752689D01*
Y221000D02*
X754689Y219000D01*
X737606Y230500D02*
X753689D01*
X756189Y228000D01*
X737606Y236500D02*
X751166D01*
X757689Y229976D01*
X761000Y158500D02*
Y232000D01*
X759189Y158811D02*
Y231811D01*
X760689Y232311D02*
Y232432D01*
Y232311D02*
X761000Y232000D01*
X737606Y246252D02*
X744748D01*
X759189Y231811D01*
X741570Y251551D02*
X760689Y232432D01*
X741357Y251551D02*
X741570D01*
X740357Y252551D02*
X741357Y251551D01*
X730260Y183260D02*
X737606D01*
X730039Y176961D02*
X737606D01*
X727689Y173811D02*
X737606D01*
X730161Y170661D02*
X737606D01*
X727512Y167512D02*
X737606D01*
X645039Y176961D02*
X656606D01*
X693909Y186409D02*
X697500Y190000D01*
X693500Y167500D02*
X697500Y163500D01*
Y160000D02*
Y163500D01*
X688000Y170661D02*
X693339D01*
X698000Y166000D01*
X645500Y185000D02*
X647240Y183260D01*
X656606D01*
X688000Y180110D02*
X696890D01*
X697390Y179610D01*
X607000Y180110D02*
X614390D01*
X614890Y179610D01*
X653856Y167512D02*
X656606D01*
X647500Y160000D02*
Y161156D01*
X653856Y167512D01*
X651161Y170661D02*
X656606D01*
X645000Y164500D02*
X651161Y170661D01*
X694189Y173811D02*
X699500Y168500D01*
X706500D01*
X688000Y176961D02*
X697039D01*
X700000Y174000D01*
X649311Y173811D02*
X656606D01*
X647500Y172000D02*
X649311Y173811D01*
X698000Y166000D02*
X701500D01*
X614909Y186409D02*
X618500Y190000D01*
X617461Y176961D02*
X619921Y174500D01*
X620500D01*
X613850Y169650D02*
X627000D01*
X607000Y170661D02*
X610717D01*
X612037Y171463D02*
Y171525D01*
Y171463D02*
X613850Y169650D01*
X609751Y173811D02*
X612037Y171525D01*
X607000Y173811D02*
X609751D01*
X610717Y170661D02*
X614529Y166850D01*
X621150D01*
X656606Y262000D02*
X677000D01*
X737606D02*
X744500D01*
X602350Y258850D02*
X607000D01*
X573000Y229500D02*
X602350Y258850D01*
X533000Y229500D02*
X573000D01*
X769654Y117500D02*
X773500Y113654D01*
X768500Y116000D02*
X770432Y114068D01*
Y111426D02*
Y114068D01*
Y111426D02*
X771076Y110782D01*
X775924D01*
X778796Y113654D01*
X782000D01*
X765957Y111400D02*
X768336D01*
X770455Y109282D01*
X786128D01*
X790500Y113654D01*
X764801Y107000D02*
X789142D01*
X795796Y113654D01*
X798500D01*
X760839Y107661D02*
Y111400D01*
Y107661D02*
X763000Y105500D01*
X798347D01*
X806500Y113654D01*
X758280Y111400D02*
X758500Y111180D01*
Y107000D02*
Y111180D01*
Y107000D02*
X761500Y104000D01*
X802142D01*
X811796Y113654D01*
X814500D01*
X763398Y108403D02*
X764801Y107000D01*
X763398Y108403D02*
Y111400D01*
X755720Y133600D02*
Y137280D01*
X755000Y138000D02*
X755720Y137280D01*
X733000Y138000D02*
X755000D01*
X724063Y129063D02*
X733000Y138000D01*
X724063Y126000D02*
Y129063D01*
X763398Y133600D02*
Y137102D01*
X761000Y139500D02*
X763398Y137102D01*
X732379Y139500D02*
X761000D01*
X722563Y129684D02*
X732379Y139500D01*
X722563Y129563D02*
Y129684D01*
X722095Y129095D02*
X722563Y129563D01*
X722095Y126000D02*
Y129095D01*
X758280Y128720D02*
Y133600D01*
Y128720D02*
X759750Y127250D01*
X760839Y130161D02*
Y133600D01*
Y130161D02*
X764500Y126500D01*
X728462Y129462D02*
X730000Y131000D01*
X726954Y129462D02*
X728462D01*
X726032Y128540D02*
X726954Y129462D01*
X726032Y126000D02*
Y128540D01*
X730500Y126000D02*
X733000Y128500D01*
X728000Y126000D02*
X730500D01*
X696000Y110500D02*
X708315Y122815D01*
Y126000D01*
X696621Y109000D02*
X709815Y122194D01*
Y122315D01*
X710284Y122784D01*
Y126000D01*
X406026Y165974D02*
X432000Y140000D01*
Y121000D02*
Y140000D01*
X404058Y164943D02*
X422000Y147000D01*
Y121000D02*
Y147000D01*
X400120Y165879D02*
X412000Y154000D01*
Y121000D02*
Y154000D01*
X398152Y165348D02*
X402000Y161500D01*
Y121000D02*
Y161500D01*
X392000Y160500D02*
X394100Y162600D01*
X392000Y121000D02*
Y160500D01*
X382000Y156500D02*
X390278Y164778D01*
X382000Y121000D02*
Y156500D01*
X697243Y107500D02*
X711784Y122041D01*
Y122284D01*
X712252Y122752D01*
Y126000D01*
X377947Y154569D02*
X388310Y164931D01*
X377947Y119321D02*
Y154569D01*
X392769Y104500D02*
X748000D01*
X750602Y107102D01*
Y111400D01*
X452555Y223445D02*
Y230575D01*
Y223445D02*
X454000Y222000D01*
X458461Y222039D02*
Y230575D01*
Y222039D02*
X458500Y222000D01*
X758500Y116000D02*
X768500D01*
X748043Y126457D02*
Y133600D01*
X750602Y126398D02*
Y133600D01*
Y126398D02*
X759500Y117500D01*
X769654D01*
X755500Y104500D02*
Y111180D01*
X755720Y111400D01*
X499209Y318567D02*
X520000D01*
X499209Y283134D02*
X510622D01*
X371000Y150500D02*
X384372Y163873D01*
X367000Y150000D02*
X382404Y165404D01*
X367500Y154000D02*
X378467Y164967D01*
X363000Y153500D02*
X376499Y166999D01*
X363500Y157500D02*
X372562Y166561D01*
X359500Y157000D02*
X370593Y168093D01*
X388250Y159250D02*
X392247Y163247D01*
X248700Y265500D02*
X252000D01*
X245250Y268950D02*
X248700Y265500D01*
X508000Y311000D02*
X509000D01*
X507693Y310693D02*
X508000Y311000D01*
X499209Y310693D02*
X507693D01*
X512500Y309000D02*
X513000D01*
X318000Y340500D02*
X324000D01*
X334000Y350500D01*
X297000Y317000D02*
Y325346D01*
X299753Y328100D01*
X335000Y320000D02*
Y326000D01*
X337500Y328500D01*
X353000D01*
X377909Y328409D02*
X378000Y328500D01*
X370591Y328409D02*
X377909D01*
X333500Y311500D02*
X342653D01*
X330000Y315000D02*
X333500Y311500D01*
X330000Y315000D02*
Y320000D01*
X349346Y311500D02*
X355000D01*
X318000Y370500D02*
X324000D01*
X334000Y360500D01*
X378941Y309500D02*
X379000D01*
X368500Y310693D02*
X377748D01*
X378941Y309500D01*
X331447Y332500D02*
X347500D01*
X331000Y310000D02*
X331250D01*
X368500Y306756D02*
X373744D01*
X308000Y340500D02*
X312000Y336500D01*
X298000Y340500D02*
X302909D01*
X308409Y335000D01*
X342500D01*
X312000Y336500D02*
X322000D01*
X323000Y337500D01*
X143000Y201500D02*
X151500Y210000D01*
X131000Y201500D02*
X143000D01*
X129000Y203500D02*
X131000Y201500D01*
X129000Y203500D02*
Y255500D01*
X134500Y261000D01*
X210500D01*
X237500Y234000D01*
X141500Y250000D02*
X143500D01*
X152000Y258500D01*
X209000D01*
X136500Y235000D02*
X141500Y230000D01*
X136500Y235000D02*
Y241000D01*
X140500Y245000D01*
X218500D01*
X237500Y226000D01*
X141500Y240000D02*
X145702D01*
X149802Y235900D01*
X224100D01*
X237500Y222500D01*
X378445Y292055D02*
X378500Y292000D01*
X368500Y294945D02*
X374555D01*
X377445Y292055D01*
X378445D01*
X276921Y271079D02*
Y298890D01*
Y271079D02*
X277000Y271000D01*
X209000Y258500D02*
X237500Y230000D01*
X360350Y309284D02*
Y317217D01*
X363390Y320257D01*
X357000Y299500D02*
X357650Y300150D01*
X229100Y294600D02*
X230250Y293450D01*
X208500Y301700D02*
X224046D01*
X228346Y306000D01*
X177100Y313600D02*
Y332807D01*
X148000Y312000D02*
X167900D01*
X175500D01*
X179807Y307693D01*
Y284500D02*
Y307693D01*
X190654Y322000D02*
X206653Y338000D01*
X175500Y312000D02*
X177100Y313600D01*
X175500Y312000D02*
X189900D01*
X196267Y294600D02*
X229100D01*
X189734Y301134D02*
X196267Y294600D01*
X189434Y301434D02*
X189734Y301134D01*
D41*
X196000Y455709D02*
Y463100D01*
X174100Y485000D02*
X196000Y463100D01*
X151000Y485000D02*
X174100D01*
X290961Y397500D02*
Y409000D01*
X288961Y411000D02*
X290961Y409000D01*
X258600Y411000D02*
X276000D01*
X288961D01*
X206252Y404000D02*
Y419248D01*
D42*
X664700Y255300D02*
X667100D01*
X661150Y258850D02*
X664700Y255300D01*
X688000Y208500D02*
X696500D01*
X681101Y255701D02*
X688000D01*
X648800Y225700D02*
X650295Y224205D01*
X656606D01*
X627300Y196900D02*
Y217000D01*
X607000Y208457D02*
X622400D01*
X620547Y239953D02*
X626900Y233600D01*
X695409Y192709D02*
X700300Y197600D01*
X688000Y192709D02*
X695409D01*
X737606Y255701D02*
X744299D01*
X737606Y224205D02*
X747700D01*
X737606Y192709D02*
X745291D01*
X641700Y196500D02*
X644000D01*
X651591Y192709D02*
X656606D01*
X627300Y217000D02*
X651591Y192709D01*
X627300Y217000D02*
Y219300D01*
X623109Y192709D02*
X627300Y196900D01*
X607000Y192709D02*
X623109D01*
X622395Y224205D02*
X627300Y219300D01*
X607000Y224205D02*
X622395D01*
X613999Y255701D02*
X620100Y249600D01*
X607000Y255701D02*
X613999D01*
X664500Y251600D02*
X665700D01*
X660400Y255700D02*
X664500Y251600D01*
X658000Y255700D02*
X660400D01*
X656606Y255701D02*
X657999D01*
X658000Y255700D01*
X699995Y224205D02*
X702000Y222200D01*
X688000Y224205D02*
X699995D01*
X753161Y127541D02*
Y133600D01*
X688000Y262000D02*
X695500D01*
X688000Y239953D02*
X696453D01*
X737606D02*
X743953D01*
X737606Y208457D02*
X743957D01*
X728500Y190500D02*
X729441Y189559D01*
X737606D01*
X732350Y258850D02*
X737606D01*
X729500Y256000D02*
X732350Y258850D01*
X607000Y262000D02*
X622500D01*
X607000Y239953D02*
X620547D01*
X656606D02*
X662047D01*
X663500Y238500D01*
X662369Y207000D02*
X663000D01*
X660913Y208457D02*
X662369Y207000D01*
X656606Y208457D02*
X660913D01*
X650941Y189559D02*
X656606D01*
X644000Y196500D02*
X650941Y189559D01*
X656606Y258850D02*
X661150D01*
D43*
X584900Y458800D02*
X629500D01*
X653600Y482900D01*
X579000Y464700D02*
X584900Y458800D01*
X579000Y464700D02*
Y480000D01*
X653600Y482900D02*
X701100D01*
X713000Y471000D01*
D44*
X282600Y471600D02*
X339000D01*
X275700Y464700D02*
X282600Y471600D01*
X560900Y426600D02*
X585700Y401800D01*
X508100Y426600D02*
X560900D01*
X507700Y427000D02*
X508100Y426600D01*
X598500Y124563D02*
X606163D01*
X609000Y127400D01*
X585700Y160015D02*
Y217000D01*
Y366500D02*
Y401800D01*
X417300Y429800D02*
X439700D01*
X579000Y480000D02*
Y483700D01*
X572200Y490500D02*
X579000Y483700D01*
X314800Y490500D02*
X572200D01*
D45*
X839000Y471000D02*
D03*
Y461000D02*
D03*
Y451000D02*
D03*
X829000Y461000D02*
D03*
Y451000D02*
D03*
X839000Y441000D02*
D03*
X829000D02*
D03*
X819000D02*
D03*
X809000D02*
D03*
X799000D02*
D03*
X829000Y431000D02*
D03*
X819000D02*
D03*
X809000D02*
D03*
X799000D02*
D03*
X829000Y471000D02*
D03*
X819000D02*
D03*
X809000D02*
D03*
X799000D02*
D03*
X829000Y481000D02*
D03*
X819000D02*
D03*
X809000D02*
D03*
X799000D02*
D03*
X789000D02*
D03*
Y431000D02*
D03*
X779000Y441000D02*
D03*
X789000D02*
D03*
Y471000D02*
D03*
X779000D02*
D03*
Y461000D02*
D03*
X789000Y451000D02*
D03*
X779000D02*
D03*
X789000Y461000D02*
D03*
X653000D02*
D03*
Y451000D02*
D03*
Y441000D02*
D03*
Y431000D02*
D03*
Y421000D02*
D03*
Y411000D02*
D03*
Y401000D02*
D03*
Y391000D02*
D03*
Y381000D02*
D03*
Y371000D02*
D03*
Y361000D02*
D03*
Y351000D02*
D03*
Y341000D02*
D03*
Y331000D02*
D03*
Y321000D02*
D03*
X713000D02*
D03*
Y331000D02*
D03*
Y341000D02*
D03*
Y351000D02*
D03*
Y361000D02*
D03*
Y371000D02*
D03*
Y381000D02*
D03*
Y391000D02*
D03*
Y401000D02*
D03*
Y411000D02*
D03*
Y421000D02*
D03*
Y431000D02*
D03*
Y441000D02*
D03*
Y451000D02*
D03*
Y461000D02*
D03*
Y471000D02*
D03*
X308000Y370500D02*
D03*
X298000D02*
D03*
X288000D02*
D03*
Y340500D02*
D03*
X298000D02*
D03*
X308000D02*
D03*
X318000D02*
D03*
D46*
X653000Y471000D02*
D03*
D47*
X335300Y383300D02*
D03*
Y392900D02*
D03*
X348700Y392300D02*
D03*
X189900Y487100D02*
D03*
X202400D02*
D03*
X202700Y475300D02*
D03*
X161000Y435000D02*
D03*
X151000Y455000D02*
D03*
X161000Y475000D02*
D03*
X151000Y485000D02*
D03*
D48*
X151500Y250000D02*
D03*
X141500Y240000D02*
D03*
X151500D02*
D03*
X141500Y230000D02*
D03*
X151500D02*
D03*
X141500Y220000D02*
D03*
Y210000D02*
D03*
X151500D02*
D03*
Y220000D02*
D03*
X334000Y350500D02*
D03*
D49*
X141500Y250000D02*
D03*
X334000Y360500D02*
D03*
D50*
X266071Y158000D02*
D03*
X199929D02*
D03*
X114929D02*
D03*
X181071D02*
D03*
D51*
X242843Y185559D02*
D03*
X223157D02*
D03*
X252685Y116661D02*
D03*
X233000D02*
D03*
X213315D02*
D03*
X330567Y443315D02*
D03*
X351433D02*
D03*
X128315Y116661D02*
D03*
X148000D02*
D03*
X167685D02*
D03*
X138157Y185559D02*
D03*
X157843D02*
D03*
D52*
X292000Y121000D02*
D03*
X589000Y480000D02*
D03*
X548000Y387000D02*
D03*
Y418000D02*
D03*
Y402500D02*
D03*
D53*
X302000Y121000D02*
D03*
X312000D02*
D03*
X322000D02*
D03*
X332000D02*
D03*
X342000D02*
D03*
X352000D02*
D03*
X362000D02*
D03*
X382000D02*
D03*
X392000D02*
D03*
X402000D02*
D03*
X412000D02*
D03*
X422000D02*
D03*
X432000D02*
D03*
X442000D02*
D03*
X452000D02*
D03*
X462000D02*
D03*
X472000D02*
D03*
X482000D02*
D03*
X492000D02*
D03*
X502000D02*
D03*
X579000Y480000D02*
D03*
X569000D02*
D03*
X559000D02*
D03*
X549000D02*
D03*
X539000D02*
D03*
X529000D02*
D03*
X519000D02*
D03*
X499000D02*
D03*
X489000D02*
D03*
X479000D02*
D03*
X469000D02*
D03*
X459000D02*
D03*
X449000D02*
D03*
X439000D02*
D03*
X429000D02*
D03*
X419000D02*
D03*
X409000D02*
D03*
X399000D02*
D03*
X389000D02*
D03*
X379000D02*
D03*
X167900Y302000D02*
D03*
X538000Y387000D02*
D03*
X528000D02*
D03*
X538000Y418000D02*
D03*
X528000D02*
D03*
X190500Y311900D02*
D03*
Y301900D02*
D03*
X538000Y402500D02*
D03*
X528000D02*
D03*
X207200Y321900D02*
D03*
Y311900D02*
D03*
D54*
X372000Y121000D02*
D03*
X509000Y480000D02*
D03*
D55*
X111000Y435000D02*
D03*
Y475000D02*
D03*
D56*
X151000Y425000D02*
D03*
D57*
X318000Y370500D02*
D03*
D58*
X167900Y312000D02*
D03*
X190500Y321900D02*
D03*
X207200Y301900D02*
D03*
D59*
X128000Y292000D02*
D03*
Y332000D02*
D03*
D60*
X148000Y302000D02*
D03*
Y312000D02*
D03*
D61*
X856000Y389000D02*
D03*
X846000D02*
D03*
X836000D02*
D03*
X826000D02*
D03*
X816000D02*
D03*
X806000D02*
D03*
X766000D02*
D03*
X776000D02*
D03*
X786000D02*
D03*
X796000D02*
D03*
Y379000D02*
D03*
X786000D02*
D03*
X776000D02*
D03*
X766000D02*
D03*
X806000D02*
D03*
X816000D02*
D03*
X826000D02*
D03*
X836000D02*
D03*
X846000D02*
D03*
X856000D02*
D03*
Y399000D02*
D03*
X846000D02*
D03*
X836000D02*
D03*
X826000D02*
D03*
X816000D02*
D03*
X806000D02*
D03*
X766000D02*
D03*
X776000D02*
D03*
X786000D02*
D03*
X796000D02*
D03*
Y409000D02*
D03*
X786000D02*
D03*
X776000D02*
D03*
X766000D02*
D03*
X806000D02*
D03*
X816000D02*
D03*
X826000D02*
D03*
X836000D02*
D03*
X846000D02*
D03*
X856000D02*
D03*
Y329000D02*
D03*
X846000D02*
D03*
X836000D02*
D03*
X826000D02*
D03*
X816000D02*
D03*
X806000D02*
D03*
X766000D02*
D03*
X776000D02*
D03*
X786000D02*
D03*
X796000D02*
D03*
Y319000D02*
D03*
X786000D02*
D03*
X776000D02*
D03*
X766000D02*
D03*
X806000D02*
D03*
X816000D02*
D03*
X826000D02*
D03*
X836000D02*
D03*
X846000D02*
D03*
X856000D02*
D03*
Y299000D02*
D03*
X846000D02*
D03*
X836000D02*
D03*
X826000D02*
D03*
X816000D02*
D03*
X806000D02*
D03*
X766000D02*
D03*
X776000D02*
D03*
X786000D02*
D03*
X796000D02*
D03*
Y309000D02*
D03*
X786000D02*
D03*
X776000D02*
D03*
X766000D02*
D03*
X806000D02*
D03*
X816000D02*
D03*
X826000D02*
D03*
X836000D02*
D03*
X846000D02*
D03*
X856000D02*
D03*
Y349000D02*
D03*
X846000D02*
D03*
X836000D02*
D03*
X826000D02*
D03*
X816000D02*
D03*
X806000D02*
D03*
X766000D02*
D03*
X776000D02*
D03*
X786000D02*
D03*
X796000D02*
D03*
Y339000D02*
D03*
X786000D02*
D03*
X776000D02*
D03*
X766000D02*
D03*
X806000D02*
D03*
X816000D02*
D03*
X826000D02*
D03*
X836000D02*
D03*
X846000D02*
D03*
X856000D02*
D03*
Y359000D02*
D03*
X846000D02*
D03*
X836000D02*
D03*
X826000D02*
D03*
X816000D02*
D03*
X806000D02*
D03*
X766000D02*
D03*
X776000D02*
D03*
X786000D02*
D03*
X796000D02*
D03*
Y369000D02*
D03*
X786000D02*
D03*
X776000D02*
D03*
X766000D02*
D03*
X806000D02*
D03*
X816000D02*
D03*
X826000D02*
D03*
X836000D02*
D03*
X846000D02*
D03*
X856000D02*
D03*
Y209000D02*
D03*
X846000D02*
D03*
X836000D02*
D03*
X826000D02*
D03*
X816000D02*
D03*
X806000D02*
D03*
X766000D02*
D03*
X776000D02*
D03*
X786000D02*
D03*
X796000D02*
D03*
Y199000D02*
D03*
X786000D02*
D03*
X776000D02*
D03*
X766000D02*
D03*
X806000D02*
D03*
X816000D02*
D03*
X826000D02*
D03*
X836000D02*
D03*
X846000D02*
D03*
X856000D02*
D03*
Y179000D02*
D03*
X846000D02*
D03*
X836000D02*
D03*
X826000D02*
D03*
X816000D02*
D03*
X806000D02*
D03*
X766000D02*
D03*
X776000D02*
D03*
X786000D02*
D03*
X796000D02*
D03*
Y189000D02*
D03*
X786000D02*
D03*
X776000D02*
D03*
X766000D02*
D03*
X806000D02*
D03*
X816000D02*
D03*
X826000D02*
D03*
X836000D02*
D03*
X846000D02*
D03*
X856000D02*
D03*
Y149000D02*
D03*
X846000D02*
D03*
X836000D02*
D03*
X826000D02*
D03*
X816000D02*
D03*
X806000D02*
D03*
X766000D02*
D03*
X776000D02*
D03*
X786000D02*
D03*
X796000D02*
D03*
X856000Y159000D02*
D03*
X846000D02*
D03*
X836000D02*
D03*
X826000D02*
D03*
X816000D02*
D03*
X806000D02*
D03*
X766000D02*
D03*
X776000D02*
D03*
X786000D02*
D03*
X796000D02*
D03*
Y169000D02*
D03*
X786000D02*
D03*
X776000D02*
D03*
X766000D02*
D03*
X806000D02*
D03*
X816000D02*
D03*
X826000D02*
D03*
X836000D02*
D03*
X846000D02*
D03*
X856000D02*
D03*
Y249000D02*
D03*
X846000D02*
D03*
X836000D02*
D03*
X826000D02*
D03*
X816000D02*
D03*
X806000D02*
D03*
X766000D02*
D03*
X776000D02*
D03*
X786000D02*
D03*
X796000D02*
D03*
Y239000D02*
D03*
X786000D02*
D03*
X776000D02*
D03*
X766000D02*
D03*
X806000D02*
D03*
X816000D02*
D03*
X826000D02*
D03*
X836000D02*
D03*
X846000D02*
D03*
X856000D02*
D03*
Y219000D02*
D03*
X846000D02*
D03*
X836000D02*
D03*
X826000D02*
D03*
X816000D02*
D03*
X806000D02*
D03*
X766000D02*
D03*
X776000D02*
D03*
X786000D02*
D03*
X796000D02*
D03*
Y229000D02*
D03*
X786000D02*
D03*
X776000D02*
D03*
X766000D02*
D03*
X806000D02*
D03*
X816000D02*
D03*
X826000D02*
D03*
X836000D02*
D03*
X846000D02*
D03*
X856000D02*
D03*
Y269000D02*
D03*
X846000D02*
D03*
X836000D02*
D03*
X826000D02*
D03*
X816000D02*
D03*
X806000D02*
D03*
X766000D02*
D03*
X776000D02*
D03*
X786000D02*
D03*
X796000D02*
D03*
Y259000D02*
D03*
X786000D02*
D03*
X776000D02*
D03*
X766000D02*
D03*
X806000D02*
D03*
X816000D02*
D03*
X826000D02*
D03*
X836000D02*
D03*
X846000D02*
D03*
X856000D02*
D03*
Y279000D02*
D03*
X846000D02*
D03*
X836000D02*
D03*
X826000D02*
D03*
X816000D02*
D03*
X806000D02*
D03*
X766000D02*
D03*
X776000D02*
D03*
X786000D02*
D03*
X796000D02*
D03*
Y289000D02*
D03*
X786000D02*
D03*
X776000D02*
D03*
X766000D02*
D03*
X806000D02*
D03*
X816000D02*
D03*
X826000D02*
D03*
X836000D02*
D03*
X846000D02*
D03*
X856000D02*
D03*
D62*
X621500Y472500D02*
D03*
X193500Y211500D02*
D03*
X139500Y379500D02*
D03*
X852500Y116500D02*
D03*
D63*
X460200Y193700D02*
D03*
X487500Y210300D02*
D03*
X454744Y191000D02*
D03*
X487456Y161700D02*
D03*
X481800Y165600D02*
D03*
X460200D02*
D03*
X455100Y161700D02*
D03*
X479200Y213000D02*
D03*
X419846Y195400D02*
D03*
X419800Y178300D02*
D03*
X380500Y193400D02*
D03*
X402100Y193300D02*
D03*
X402144Y179400D02*
D03*
X380435D02*
D03*
X407556Y182900D02*
D03*
X374800D02*
D03*
X299400Y219256D02*
D03*
X286500Y219300D02*
D03*
X286700Y241300D02*
D03*
X299400Y241200D02*
D03*
X293300Y243100D02*
D03*
Y213700D02*
D03*
X546300Y273800D02*
D03*
X559800Y252200D02*
D03*
X552900Y279900D02*
D03*
Y246600D02*
D03*
X559800Y273800D02*
D03*
X546200Y252100D02*
D03*
X531100Y286100D02*
D03*
X555600Y348600D02*
D03*
X550400Y315344D02*
D03*
X546200Y342700D02*
D03*
Y321100D02*
D03*
X559900D02*
D03*
X595000Y310600D02*
D03*
X597400Y313800D02*
D03*
X600000Y316800D02*
D03*
X602500Y319700D02*
D03*
X605000Y322700D02*
D03*
X607500Y325600D02*
D03*
X610000Y328300D02*
D03*
X612600Y330900D02*
D03*
X445200Y411900D02*
D03*
X485000Y396000D02*
D03*
X490800Y400200D02*
D03*
X457400Y406400D02*
D03*
X490870D02*
D03*
X463300Y409900D02*
D03*
X485000D02*
D03*
X463300Y396000D02*
D03*
X402200Y399400D02*
D03*
X396500Y395700D02*
D03*
X402156Y406400D02*
D03*
X396700Y409900D02*
D03*
X369100D02*
D03*
X673300Y239900D02*
D03*
X680800D02*
D03*
X325150Y403650D02*
D03*
X486800Y320000D02*
D03*
X198300Y461300D02*
D03*
X195500Y465500D02*
D03*
X231550Y311282D02*
D03*
X622500Y458400D02*
D03*
Y300100D02*
D03*
X639000Y295800D02*
D03*
X239400Y450100D02*
D03*
X239300Y483600D02*
D03*
X239400Y425800D02*
D03*
X355000Y325100D02*
D03*
X361200Y324600D02*
D03*
X610500Y126500D02*
D03*
X587000Y217000D02*
D03*
X587400Y366300D02*
D03*
X417000Y428200D02*
D03*
X439700Y428300D02*
D03*
X340400Y472600D02*
D03*
X607700Y128600D02*
D03*
X596357Y149357D02*
D03*
X584100Y217100D02*
D03*
X583800Y366300D02*
D03*
X507300Y428600D02*
D03*
X439700Y431800D02*
D03*
X417000Y431700D02*
D03*
X338100Y469700D02*
D03*
X222900Y468700D02*
D03*
X236700Y212000D02*
D03*
X272400Y266500D02*
D03*
X262800Y295700D02*
D03*
X713900Y142200D02*
D03*
X728500D02*
D03*
X755600Y244600D02*
D03*
X741800Y269900D02*
D03*
X747700Y224100D02*
D03*
X385800Y336800D02*
D03*
X508900Y352400D02*
D03*
X500400Y228000D02*
D03*
X342400Y410200D02*
D03*
X472200Y239544D02*
D03*
X511800Y216500D02*
D03*
X523300Y227900D02*
D03*
X465800Y239544D02*
D03*
X406900Y260200D02*
D03*
X416800Y239400D02*
D03*
X417100Y413600D02*
D03*
X417000Y396300D02*
D03*
X657300Y114900D02*
D03*
X651300Y120000D02*
D03*
X572400Y128300D02*
D03*
X167500Y348300D02*
D03*
X170100Y353200D02*
D03*
X164400Y353300D02*
D03*
X248500Y317800D02*
D03*
X251100Y321700D02*
D03*
X245700D02*
D03*
X214662Y357339D02*
D03*
X681000Y255600D02*
D03*
X622400Y208600D02*
D03*
X648800Y225700D02*
D03*
X623675Y250800D02*
D03*
X700300Y197600D02*
D03*
X744300Y255700D02*
D03*
X745300Y192700D02*
D03*
X641700Y196500D02*
D03*
X627300Y219300D02*
D03*
X620100Y249600D02*
D03*
X665700Y251600D02*
D03*
X667100Y255300D02*
D03*
X702000Y222200D02*
D03*
X616300Y155000D02*
D03*
X652300Y154800D02*
D03*
X421300Y371300D02*
D03*
X417122Y371522D02*
D03*
X413463Y371763D02*
D03*
X403343Y369343D02*
D03*
X398500Y374825D02*
D03*
X346700Y400800D02*
D03*
X360100Y341100D02*
D03*
X394500Y297000D02*
D03*
X398800Y338800D02*
D03*
X415300Y316200D02*
D03*
X456753Y322400D02*
D03*
X469300Y334100D02*
D03*
X456900Y308200D02*
D03*
X456400Y278500D02*
D03*
X456900Y258000D02*
D03*
X435700Y252800D02*
D03*
X397300Y275400D02*
D03*
X399650Y252850D02*
D03*
X469600Y259300D02*
D03*
X401700Y265800D02*
D03*
X481200Y306800D02*
D03*
X481300Y290900D02*
D03*
X474800Y290200D02*
D03*
X481300Y262600D02*
D03*
X481200Y274700D02*
D03*
X486800Y245200D02*
D03*
X481200Y253000D02*
D03*
X463800Y248700D02*
D03*
X451000Y248800D02*
D03*
X451800Y243100D02*
D03*
X442300Y248800D02*
D03*
X433900D02*
D03*
X411217Y248783D02*
D03*
X464500Y344300D02*
D03*
X475600Y349800D02*
D03*
X475800Y344200D02*
D03*
X446300Y344400D02*
D03*
X390791Y273291D02*
D03*
X390800Y264200D02*
D03*
X401400Y248700D02*
D03*
X390700Y309200D02*
D03*
X380800Y331400D02*
D03*
X390700Y326700D02*
D03*
X399000Y344300D02*
D03*
X415200D02*
D03*
X424996Y344204D02*
D03*
X432870Y344330D02*
D03*
X436807Y344207D02*
D03*
X403504Y322504D02*
D03*
X428200Y254700D02*
D03*
X445100Y254600D02*
D03*
X474800Y323000D02*
D03*
X474600Y305800D02*
D03*
X399406Y349794D02*
D03*
X385267Y318567D02*
D03*
X385228Y277228D02*
D03*
X385200Y255500D02*
D03*
X386200Y244500D02*
D03*
X400200Y243200D02*
D03*
X423028Y243072D02*
D03*
X481600Y243300D02*
D03*
X415154Y349654D02*
D03*
X447600Y349800D02*
D03*
X458461Y349761D02*
D03*
X484700Y348700D02*
D03*
X486811Y342189D02*
D03*
X486800Y274400D02*
D03*
Y263200D02*
D03*
X752800Y117400D02*
D03*
X788700Y133800D02*
D03*
X753200Y127500D02*
D03*
X718876Y131000D02*
D03*
X738600Y160500D02*
D03*
X689700Y151000D02*
D03*
X314800Y490500D02*
D03*
X404500Y109600D02*
D03*
X293300Y262300D02*
D03*
X238000Y283000D02*
D03*
X225000D02*
D03*
X243000Y279000D02*
D03*
X247000D02*
D03*
X222400Y374000D02*
D03*
Y356800D02*
D03*
X193300Y461300D02*
D03*
X258500Y262000D02*
D03*
X204000Y281756D02*
D03*
X185000Y272500D02*
D03*
Y356000D02*
D03*
X597000Y355000D02*
D03*
X600500Y467000D02*
D03*
X597000D02*
D03*
X604000D02*
D03*
X627500Y431000D02*
D03*
X627000Y427000D02*
D03*
X634000Y430000D02*
D03*
X638500Y430500D02*
D03*
X615000Y243000D02*
D03*
Y233654D02*
D03*
Y202157D02*
D03*
Y249402D02*
D03*
Y227354D02*
D03*
Y217906D02*
D03*
Y211606D02*
D03*
Y195858D02*
D03*
X600500Y350000D02*
D03*
X604000Y342500D02*
D03*
X617240Y183260D02*
D03*
X614890Y179610D02*
D03*
X697500Y190000D02*
D03*
X699760Y183260D02*
D03*
X697390Y179610D02*
D03*
X700000Y174000D02*
D03*
X706500Y168500D02*
D03*
X701500Y166000D02*
D03*
X697500Y160000D02*
D03*
X730260Y183260D02*
D03*
X730039Y176961D02*
D03*
X727689Y173811D02*
D03*
X730161Y170661D02*
D03*
X727512Y167512D02*
D03*
X647500Y160000D02*
D03*
X645000Y164500D02*
D03*
X618500Y190000D02*
D03*
X620500Y174500D02*
D03*
X616500Y162100D02*
D03*
X627000Y169650D02*
D03*
X621150Y166850D02*
D03*
X667100Y259600D02*
D03*
X677000Y262000D02*
D03*
X744500D02*
D03*
X540000Y197500D02*
D03*
Y187500D02*
D03*
Y182500D02*
D03*
Y177500D02*
D03*
Y172500D02*
D03*
Y192500D02*
D03*
Y202500D02*
D03*
Y167500D02*
D03*
Y222500D02*
D03*
Y217500D02*
D03*
X647500Y172000D02*
D03*
X645039Y176961D02*
D03*
X645500Y185000D02*
D03*
X540000Y212500D02*
D03*
Y207500D02*
D03*
Y227000D02*
D03*
X498400Y166900D02*
D03*
X498200Y206700D02*
D03*
X443600Y206500D02*
D03*
X443300Y166400D02*
D03*
X760500Y126500D02*
D03*
X764500D02*
D03*
X730000Y131000D02*
D03*
X733000Y128500D02*
D03*
X454000Y222000D02*
D03*
X458500D02*
D03*
X755500Y104500D02*
D03*
X520000Y319000D02*
D03*
X515100Y287500D02*
D03*
X513800Y284200D02*
D03*
X394900Y378000D02*
D03*
X371000Y150500D02*
D03*
X367000Y150000D02*
D03*
X367500Y154000D02*
D03*
X363000Y153500D02*
D03*
X363500Y157500D02*
D03*
X359500Y157000D02*
D03*
X388000Y159000D02*
D03*
X252000Y265500D02*
D03*
X513000Y309000D02*
D03*
X515500Y305000D02*
D03*
X509000Y311000D02*
D03*
X353000Y328500D02*
D03*
X378000D02*
D03*
X355000Y311500D02*
D03*
X277000Y271000D02*
D03*
X378500Y306000D02*
D03*
X379000Y309500D02*
D03*
X347500Y332500D02*
D03*
X331250Y310000D02*
D03*
X378500Y302500D02*
D03*
X323000Y337500D02*
D03*
X342500Y335000D02*
D03*
X379000Y313000D02*
D03*
X237500Y234000D02*
D03*
Y230000D02*
D03*
Y226000D02*
D03*
Y222500D02*
D03*
X359500Y302500D02*
D03*
X378500Y292000D02*
D03*
X357000Y299500D02*
D03*
X351500Y293500D02*
D03*
X354500Y296000D02*
D03*
X187500Y390500D02*
D03*
X172000D02*
D03*
X232750Y484000D02*
D03*
X277000Y481000D02*
D03*
X232500Y450000D02*
D03*
X275000Y448000D02*
D03*
X276000Y411000D02*
D03*
X232500Y413500D02*
D03*
X310500Y481000D02*
D03*
X303000Y409500D02*
D03*
X302000Y254800D02*
D03*
X284400Y254900D02*
D03*
X561846Y291846D02*
D03*
X561900Y234500D02*
D03*
X563000Y360500D02*
D03*
X542500Y360000D02*
D03*
X561900Y302600D02*
D03*
X559900Y342800D02*
D03*
X375100Y409900D02*
D03*
X502300Y393000D02*
D03*
Y411800D02*
D03*
X445100Y394200D02*
D03*
X362600Y196400D02*
D03*
Y177800D02*
D03*
X695500Y262000D02*
D03*
X696500Y240000D02*
D03*
X744000D02*
D03*
X696500Y208500D02*
D03*
X743957Y208457D02*
D03*
X728500Y190500D02*
D03*
X729500Y256000D02*
D03*
X626900Y233600D02*
D03*
X663500Y238500D02*
D03*
X663000Y207000D02*
D03*
X557000Y315400D02*
D03*
X375100Y395700D02*
D03*
X369100D02*
D03*
X531100Y240000D02*
D03*
X622500Y261756D02*
D03*
X293300Y382100D02*
D03*
X416200Y262800D02*
D03*
X403200Y312400D02*
D03*
M02*
