%FSLAX25Y25*%
%MOIN*%
G70*
G01*
G75*
G04 Layer_Color=8388736*
%ADD10R,0.03937X0.03543*%
%ADD11R,0.03543X0.03150*%
%ADD12R,0.03543X0.03937*%
%ADD13R,0.03150X0.06299*%
%ADD14R,0.02200X0.07800*%
%ADD15R,0.01400X0.06600*%
%ADD16O,0.01600X0.08000*%
%ADD17O,0.02400X0.08000*%
%ADD18R,0.02200X0.05000*%
%ADD19R,0.05118X0.08661*%
%ADD20R,0.01400X0.07100*%
%ADD21O,0.08000X0.01600*%
%ADD22O,0.07874X0.01969*%
%ADD23O,0.10000X0.01181*%
%ADD24O,0.01181X0.10000*%
%ADD25R,0.05118X0.09449*%
%ADD26R,0.09449X0.05118*%
%ADD27R,0.06299X0.06299*%
%ADD28R,0.09800X0.03700*%
%ADD29R,0.25700X0.26400*%
%ADD30R,0.01181X0.04724*%
%ADD31O,0.01181X0.04724*%
%ADD32R,0.05906X0.09055*%
%ADD33R,0.09055X0.09055*%
%ADD34R,0.05118X0.05906*%
%ADD35R,0.10630X0.05118*%
%ADD36R,0.03150X0.03543*%
%ADD37C,0.03000*%
%ADD38C,0.00800*%
%ADD39C,0.01500*%
%ADD40C,0.01000*%
%ADD41C,0.10000*%
%ADD42C,0.05000*%
%ADD43C,0.07000*%
%ADD44C,0.08000*%
%ADD45C,0.06000*%
%ADD46R,0.06000X0.06000*%
%ADD47R,0.09843X0.09843*%
%ADD48C,0.07874*%
%ADD49R,0.05906X0.05906*%
%ADD50C,0.05906*%
%ADD51O,0.05945X0.05906*%
%ADD52C,0.07000*%
%ADD53R,0.08000X0.08000*%
%ADD54R,0.05000X0.05000*%
%ADD55C,0.05000*%
%ADD56R,0.05906X0.05906*%
%ADD57R,0.05000X0.05000*%
%ADD58C,0.11000*%
%ADD59C,0.05500*%
%ADD60C,0.06500*%
%ADD61C,0.14000*%
%ADD62C,0.02500*%
%ADD63C,0.03000*%
%ADD64C,0.02000*%
%ADD65C,0.00600*%
%ADD66C,0.00984*%
%ADD67C,0.00787*%
%ADD68R,0.04437X0.04043*%
%ADD69R,0.04043X0.03650*%
%ADD70R,0.04043X0.04437*%
%ADD71R,0.03650X0.06799*%
%ADD72R,0.02700X0.08300*%
%ADD73R,0.01900X0.07100*%
%ADD74O,0.02100X0.08500*%
%ADD75O,0.02900X0.08500*%
%ADD76R,0.02700X0.05500*%
%ADD77R,0.05618X0.09161*%
%ADD78R,0.01900X0.07600*%
%ADD79O,0.08500X0.02100*%
%ADD80O,0.08374X0.02469*%
%ADD81O,0.10500X0.01681*%
%ADD82O,0.01681X0.10500*%
%ADD83R,0.05618X0.09949*%
%ADD84R,0.09949X0.05618*%
%ADD85R,0.06799X0.06799*%
%ADD86R,0.10300X0.04200*%
%ADD87R,0.26200X0.26900*%
%ADD88R,0.01681X0.05224*%
%ADD89O,0.01681X0.05224*%
%ADD90R,0.06406X0.09555*%
%ADD91R,0.09555X0.09555*%
%ADD92R,0.05618X0.06406*%
%ADD93R,0.11130X0.05618*%
%ADD94R,0.03650X0.04043*%
%ADD95C,0.08500*%
%ADD96R,0.06500X0.06500*%
%ADD97R,0.10343X0.10343*%
%ADD98C,0.08374*%
%ADD99R,0.06406X0.06406*%
%ADD100C,0.06406*%
%ADD101O,0.06445X0.06406*%
%ADD102C,0.07500*%
%ADD103R,0.08500X0.08500*%
%ADD104R,0.05500X0.05500*%
%ADD105R,0.06406X0.06406*%
%ADD106R,0.05500X0.05500*%
%ADD107C,0.11500*%
%ADD108C,0.14500*%
D37*
X97500Y480500D02*
Y501500D01*
X118500D01*
X873000Y98000D02*
Y119000D01*
X852000Y97000D02*
X873000D01*
X97500Y97500D02*
Y118500D01*
Y97500D02*
X118500D01*
X873000Y481000D02*
Y502000D01*
X852000D02*
X873000D01*
D45*
X148000Y302000D02*
D03*
Y312000D02*
D03*
D52*
X856000Y389000D02*
D03*
X846000D02*
D03*
X836000D02*
D03*
X826000D02*
D03*
X816000D02*
D03*
X806000D02*
D03*
X766000D02*
D03*
X776000D02*
D03*
X786000D02*
D03*
X796000D02*
D03*
Y379000D02*
D03*
X786000D02*
D03*
X776000D02*
D03*
X766000D02*
D03*
X806000D02*
D03*
X816000D02*
D03*
X826000D02*
D03*
X836000D02*
D03*
X846000D02*
D03*
X856000D02*
D03*
Y399000D02*
D03*
X846000D02*
D03*
X836000D02*
D03*
X826000D02*
D03*
X816000D02*
D03*
X806000D02*
D03*
X766000D02*
D03*
X776000D02*
D03*
X786000D02*
D03*
X796000D02*
D03*
Y409000D02*
D03*
X786000D02*
D03*
X776000D02*
D03*
X766000D02*
D03*
X806000D02*
D03*
X816000D02*
D03*
X826000D02*
D03*
X836000D02*
D03*
X846000D02*
D03*
X856000D02*
D03*
Y329000D02*
D03*
X846000D02*
D03*
X836000D02*
D03*
X826000D02*
D03*
X816000D02*
D03*
X806000D02*
D03*
X766000D02*
D03*
X776000D02*
D03*
X786000D02*
D03*
X796000D02*
D03*
Y319000D02*
D03*
X786000D02*
D03*
X776000D02*
D03*
X766000D02*
D03*
X806000D02*
D03*
X816000D02*
D03*
X826000D02*
D03*
X836000D02*
D03*
X846000D02*
D03*
X856000D02*
D03*
Y299000D02*
D03*
X846000D02*
D03*
X836000D02*
D03*
X826000D02*
D03*
X816000D02*
D03*
X806000D02*
D03*
X766000D02*
D03*
X776000D02*
D03*
X786000D02*
D03*
X796000D02*
D03*
Y309000D02*
D03*
X786000D02*
D03*
X776000D02*
D03*
X766000D02*
D03*
X806000D02*
D03*
X816000D02*
D03*
X826000D02*
D03*
X836000D02*
D03*
X846000D02*
D03*
X856000D02*
D03*
Y349000D02*
D03*
X846000D02*
D03*
X836000D02*
D03*
X826000D02*
D03*
X816000D02*
D03*
X806000D02*
D03*
X766000D02*
D03*
X776000D02*
D03*
X786000D02*
D03*
X796000D02*
D03*
Y339000D02*
D03*
X786000D02*
D03*
X776000D02*
D03*
X766000D02*
D03*
X806000D02*
D03*
X816000D02*
D03*
X826000D02*
D03*
X836000D02*
D03*
X846000D02*
D03*
X856000D02*
D03*
Y359000D02*
D03*
X846000D02*
D03*
X836000D02*
D03*
X826000D02*
D03*
X816000D02*
D03*
X806000D02*
D03*
X766000D02*
D03*
X776000D02*
D03*
X786000D02*
D03*
X796000D02*
D03*
Y369000D02*
D03*
X786000D02*
D03*
X776000D02*
D03*
X766000D02*
D03*
X806000D02*
D03*
X816000D02*
D03*
X826000D02*
D03*
X836000D02*
D03*
X846000D02*
D03*
X856000D02*
D03*
Y209000D02*
D03*
X846000D02*
D03*
X836000D02*
D03*
X826000D02*
D03*
X816000D02*
D03*
X806000D02*
D03*
X766000D02*
D03*
X776000D02*
D03*
X786000D02*
D03*
X796000D02*
D03*
Y199000D02*
D03*
X786000D02*
D03*
X776000D02*
D03*
X766000D02*
D03*
X806000D02*
D03*
X816000D02*
D03*
X826000D02*
D03*
X836000D02*
D03*
X846000D02*
D03*
X856000D02*
D03*
Y179000D02*
D03*
X846000D02*
D03*
X836000D02*
D03*
X826000D02*
D03*
X816000D02*
D03*
X806000D02*
D03*
X766000D02*
D03*
X776000D02*
D03*
X786000D02*
D03*
X796000D02*
D03*
Y189000D02*
D03*
X786000D02*
D03*
X776000D02*
D03*
X766000D02*
D03*
X806000D02*
D03*
X816000D02*
D03*
X826000D02*
D03*
X836000D02*
D03*
X846000D02*
D03*
X856000D02*
D03*
Y149000D02*
D03*
X846000D02*
D03*
X836000D02*
D03*
X826000D02*
D03*
X816000D02*
D03*
X806000D02*
D03*
X766000D02*
D03*
X776000D02*
D03*
X786000D02*
D03*
X796000D02*
D03*
X856000Y159000D02*
D03*
X846000D02*
D03*
X836000D02*
D03*
X826000D02*
D03*
X816000D02*
D03*
X806000D02*
D03*
X766000D02*
D03*
X776000D02*
D03*
X786000D02*
D03*
X796000D02*
D03*
Y169000D02*
D03*
X786000D02*
D03*
X776000D02*
D03*
X766000D02*
D03*
X806000D02*
D03*
X816000D02*
D03*
X826000D02*
D03*
X836000D02*
D03*
X846000D02*
D03*
X856000D02*
D03*
Y249000D02*
D03*
X846000D02*
D03*
X836000D02*
D03*
X826000D02*
D03*
X816000D02*
D03*
X806000D02*
D03*
X766000D02*
D03*
X776000D02*
D03*
X786000D02*
D03*
X796000D02*
D03*
Y239000D02*
D03*
X786000D02*
D03*
X776000D02*
D03*
X766000D02*
D03*
X806000D02*
D03*
X816000D02*
D03*
X826000D02*
D03*
X836000D02*
D03*
X846000D02*
D03*
X856000D02*
D03*
Y219000D02*
D03*
X846000D02*
D03*
X836000D02*
D03*
X826000D02*
D03*
X816000D02*
D03*
X806000D02*
D03*
X766000D02*
D03*
X776000D02*
D03*
X786000D02*
D03*
X796000D02*
D03*
Y229000D02*
D03*
X786000D02*
D03*
X776000D02*
D03*
X766000D02*
D03*
X806000D02*
D03*
X816000D02*
D03*
X826000D02*
D03*
X836000D02*
D03*
X846000D02*
D03*
X856000D02*
D03*
Y269000D02*
D03*
X846000D02*
D03*
X836000D02*
D03*
X826000D02*
D03*
X816000D02*
D03*
X806000D02*
D03*
X766000D02*
D03*
X776000D02*
D03*
X786000D02*
D03*
X796000D02*
D03*
Y259000D02*
D03*
X786000D02*
D03*
X776000D02*
D03*
X766000D02*
D03*
X806000D02*
D03*
X816000D02*
D03*
X826000D02*
D03*
X836000D02*
D03*
X846000D02*
D03*
X856000D02*
D03*
Y279000D02*
D03*
X846000D02*
D03*
X836000D02*
D03*
X826000D02*
D03*
X816000D02*
D03*
X806000D02*
D03*
X766000D02*
D03*
X776000D02*
D03*
X786000D02*
D03*
X796000D02*
D03*
Y289000D02*
D03*
X786000D02*
D03*
X776000D02*
D03*
X766000D02*
D03*
X806000D02*
D03*
X816000D02*
D03*
X826000D02*
D03*
X836000D02*
D03*
X846000D02*
D03*
X856000D02*
D03*
D59*
X308000Y370500D02*
D03*
X298000D02*
D03*
X288000D02*
D03*
Y340500D02*
D03*
X298000D02*
D03*
X308000D02*
D03*
X318000D02*
D03*
X839000Y471000D02*
D03*
Y461000D02*
D03*
Y451000D02*
D03*
X829000Y461000D02*
D03*
Y451000D02*
D03*
X839000Y441000D02*
D03*
X829000D02*
D03*
X819000D02*
D03*
X809000D02*
D03*
X799000D02*
D03*
X829000Y431000D02*
D03*
X819000D02*
D03*
X809000D02*
D03*
X799000D02*
D03*
X829000Y471000D02*
D03*
X819000D02*
D03*
X809000D02*
D03*
X799000D02*
D03*
X829000Y481000D02*
D03*
X819000D02*
D03*
X809000D02*
D03*
X799000D02*
D03*
X789000D02*
D03*
Y431000D02*
D03*
X779000Y441000D02*
D03*
X789000D02*
D03*
Y471000D02*
D03*
X779000D02*
D03*
Y461000D02*
D03*
X789000Y451000D02*
D03*
X779000D02*
D03*
X789000Y461000D02*
D03*
X653000D02*
D03*
Y451000D02*
D03*
Y441000D02*
D03*
Y431000D02*
D03*
Y421000D02*
D03*
Y411000D02*
D03*
Y401000D02*
D03*
Y391000D02*
D03*
Y381000D02*
D03*
Y371000D02*
D03*
Y361000D02*
D03*
Y351000D02*
D03*
Y341000D02*
D03*
Y331000D02*
D03*
Y321000D02*
D03*
X713000D02*
D03*
Y331000D02*
D03*
Y341000D02*
D03*
Y351000D02*
D03*
Y361000D02*
D03*
Y371000D02*
D03*
Y381000D02*
D03*
Y391000D02*
D03*
Y401000D02*
D03*
Y411000D02*
D03*
Y421000D02*
D03*
Y431000D02*
D03*
Y441000D02*
D03*
Y451000D02*
D03*
Y461000D02*
D03*
Y471000D02*
D03*
D60*
X151500Y250000D02*
D03*
X141500Y240000D02*
D03*
X151500D02*
D03*
X141500Y230000D02*
D03*
X151500D02*
D03*
X141500Y220000D02*
D03*
Y210000D02*
D03*
X151500D02*
D03*
Y220000D02*
D03*
X334000Y360500D02*
D03*
D63*
X673300Y239900D02*
D03*
X680800D02*
D03*
X325150Y403650D02*
D03*
X542000Y344600D02*
D03*
X486800Y320000D02*
D03*
X484400Y196800D02*
D03*
X491700Y196400D02*
D03*
X457500Y162000D02*
D03*
X198300Y461300D02*
D03*
X195500Y465500D02*
D03*
X231550Y311282D02*
D03*
X622500Y458400D02*
D03*
Y300100D02*
D03*
X639000Y295800D02*
D03*
X239400Y450100D02*
D03*
X239300Y483600D02*
D03*
X239400Y425800D02*
D03*
X355000Y325100D02*
D03*
X361200Y324600D02*
D03*
X610300Y126600D02*
D03*
X587000Y217000D02*
D03*
X587400Y366300D02*
D03*
X417000Y428200D02*
D03*
X439800Y428300D02*
D03*
X340400Y472600D02*
D03*
X607700Y128600D02*
D03*
X596357Y149357D02*
D03*
X584100Y217100D02*
D03*
X583800Y366300D02*
D03*
X507300Y428600D02*
D03*
X439700Y431800D02*
D03*
X417000Y431700D02*
D03*
X338100Y469700D02*
D03*
X222900Y468700D02*
D03*
X236700Y212000D02*
D03*
X272400Y266500D02*
D03*
X262800Y295700D02*
D03*
X713900Y142200D02*
D03*
X728500D02*
D03*
X755600Y244600D02*
D03*
X741800Y269900D02*
D03*
X747700Y224100D02*
D03*
X385800Y336800D02*
D03*
X508900Y352400D02*
D03*
X500400Y228000D02*
D03*
X542100Y308800D02*
D03*
X342400Y410200D02*
D03*
X472200Y239544D02*
D03*
X511800Y216500D02*
D03*
X523300Y227900D02*
D03*
X465800Y239544D02*
D03*
X406900Y260200D02*
D03*
X416800Y239400D02*
D03*
X417100Y413600D02*
D03*
X417000Y396300D02*
D03*
X657300Y114900D02*
D03*
X651300Y120000D02*
D03*
X572400Y128300D02*
D03*
X167500Y348300D02*
D03*
X170100Y353200D02*
D03*
X164400Y353300D02*
D03*
X248500Y317800D02*
D03*
X251100Y321700D02*
D03*
X245700D02*
D03*
X214662Y357339D02*
D03*
X681000Y255600D02*
D03*
X622400Y208600D02*
D03*
X648800Y225700D02*
D03*
X623675Y250800D02*
D03*
X700300Y197600D02*
D03*
X744300Y255700D02*
D03*
X745300Y192700D02*
D03*
X641700Y196500D02*
D03*
X627300Y219300D02*
D03*
X620100Y249600D02*
D03*
X665700Y251600D02*
D03*
X667100Y255300D02*
D03*
X702000Y222200D02*
D03*
X616300Y155000D02*
D03*
X652300Y154800D02*
D03*
X421300Y371300D02*
D03*
X417122Y371522D02*
D03*
X413463Y371763D02*
D03*
X403343Y369343D02*
D03*
X398500Y374825D02*
D03*
X346700Y400800D02*
D03*
X360100Y341100D02*
D03*
X394500Y297000D02*
D03*
X398800Y338800D02*
D03*
X415300Y316200D02*
D03*
X456753Y322400D02*
D03*
X469300Y334100D02*
D03*
X456900Y308200D02*
D03*
X456400Y278500D02*
D03*
X456900Y258000D02*
D03*
X435700Y252800D02*
D03*
X397300Y275400D02*
D03*
X399650Y252850D02*
D03*
X469600Y259300D02*
D03*
X401700Y265800D02*
D03*
X481200Y306800D02*
D03*
X481300Y290900D02*
D03*
X474800Y290200D02*
D03*
X481300Y262600D02*
D03*
X481200Y274700D02*
D03*
X486800Y245200D02*
D03*
X481200Y253000D02*
D03*
X463800Y248700D02*
D03*
X451000Y248800D02*
D03*
X451800Y243100D02*
D03*
X442300Y248800D02*
D03*
X433900D02*
D03*
X411217Y248783D02*
D03*
X546600Y302700D02*
D03*
X464500Y344300D02*
D03*
X475600Y349800D02*
D03*
X475800Y344200D02*
D03*
X446300Y344400D02*
D03*
X390791Y273291D02*
D03*
X390800Y264200D02*
D03*
X401400Y248700D02*
D03*
X390700Y309200D02*
D03*
X380800Y331400D02*
D03*
X390700Y326700D02*
D03*
X399000Y344300D02*
D03*
X415200D02*
D03*
X424996Y344204D02*
D03*
X432870Y344330D02*
D03*
X436807Y344207D02*
D03*
X403504Y322504D02*
D03*
X428200Y254700D02*
D03*
X445100Y254600D02*
D03*
X474800Y323000D02*
D03*
X474600Y305800D02*
D03*
X399406Y349794D02*
D03*
X385267Y318567D02*
D03*
X385228Y277228D02*
D03*
X385200Y255500D02*
D03*
X386200Y244500D02*
D03*
X400200Y243200D02*
D03*
X423028Y243072D02*
D03*
X481600Y243300D02*
D03*
X415154Y349654D02*
D03*
X447600Y349800D02*
D03*
X458461Y349761D02*
D03*
X484700Y348700D02*
D03*
X486811Y342189D02*
D03*
X486800Y274400D02*
D03*
Y263200D02*
D03*
X752800Y117400D02*
D03*
X788700Y133800D02*
D03*
X753200Y127500D02*
D03*
X718876Y131000D02*
D03*
X738600Y160500D02*
D03*
X689700Y151000D02*
D03*
X314800Y490500D02*
D03*
X404500Y109600D02*
D03*
X293300Y262300D02*
D03*
X304600Y246800D02*
D03*
X282900Y246500D02*
D03*
X282500Y205000D02*
D03*
X304200D02*
D03*
X304300Y212500D02*
D03*
X282600Y212400D02*
D03*
X450300Y197000D02*
D03*
X477500Y198100D02*
D03*
X451700Y162400D02*
D03*
X372744Y197344D02*
D03*
X374100Y178000D02*
D03*
X412500Y176200D02*
D03*
Y198000D02*
D03*
X238000Y283000D02*
D03*
X225000D02*
D03*
X243000Y279000D02*
D03*
X247000D02*
D03*
X222400Y374000D02*
D03*
Y356800D02*
D03*
X193300Y461300D02*
D03*
X258500Y262000D02*
D03*
X204000Y281756D02*
D03*
X185000Y272500D02*
D03*
Y356000D02*
D03*
X597000Y355000D02*
D03*
X600500Y467000D02*
D03*
X597000D02*
D03*
X604000D02*
D03*
X627500Y431000D02*
D03*
X627000Y427000D02*
D03*
X634000Y430000D02*
D03*
X638500Y430500D02*
D03*
X607500Y322500D02*
D03*
X602500Y315000D02*
D03*
X605000Y320000D02*
D03*
X615000Y243000D02*
D03*
Y233654D02*
D03*
Y202157D02*
D03*
Y249402D02*
D03*
Y227354D02*
D03*
Y217906D02*
D03*
Y211606D02*
D03*
Y195858D02*
D03*
X595000Y305000D02*
D03*
X597500Y307500D02*
D03*
X610000Y327500D02*
D03*
X612500Y330000D02*
D03*
X600000Y312500D02*
D03*
X600500Y350000D02*
D03*
X604000Y342500D02*
D03*
X617240Y183260D02*
D03*
X614890Y179610D02*
D03*
X697500Y190000D02*
D03*
X699760Y183260D02*
D03*
X697390Y179610D02*
D03*
X700000Y174000D02*
D03*
X706500Y168500D02*
D03*
X701500Y166000D02*
D03*
X697500Y160000D02*
D03*
X730260Y183260D02*
D03*
X730039Y176961D02*
D03*
X727689Y173811D02*
D03*
X730161Y170661D02*
D03*
X727512Y167512D02*
D03*
X647500Y160000D02*
D03*
X645000Y164500D02*
D03*
X618500Y190000D02*
D03*
X620500Y174500D02*
D03*
X616500Y162100D02*
D03*
X627000Y169650D02*
D03*
X621150Y166850D02*
D03*
X667100Y259600D02*
D03*
X677000Y262000D02*
D03*
X744500D02*
D03*
X540000Y197500D02*
D03*
Y187500D02*
D03*
Y182500D02*
D03*
Y177500D02*
D03*
Y172500D02*
D03*
Y192500D02*
D03*
Y202500D02*
D03*
Y167500D02*
D03*
Y222500D02*
D03*
Y217500D02*
D03*
X647500Y172000D02*
D03*
X645039Y176961D02*
D03*
X645500Y185000D02*
D03*
X540000Y212500D02*
D03*
Y207500D02*
D03*
Y227000D02*
D03*
X500000Y162000D02*
D03*
Y212000D02*
D03*
X442500Y197000D02*
D03*
Y177000D02*
D03*
X760500Y126500D02*
D03*
X764500D02*
D03*
X730000Y131000D02*
D03*
X733000Y128500D02*
D03*
X454000Y222000D02*
D03*
X458500D02*
D03*
X755500Y104500D02*
D03*
X520000Y319000D02*
D03*
X515000Y285000D02*
D03*
X512500Y282500D02*
D03*
X394900Y378000D02*
D03*
X371000Y150500D02*
D03*
X367000Y150000D02*
D03*
X367500Y154000D02*
D03*
X363000Y153500D02*
D03*
X363500Y157500D02*
D03*
X359500Y157000D02*
D03*
X388000Y159000D02*
D03*
X252000Y265500D02*
D03*
X513000Y309000D02*
D03*
X515500Y305000D02*
D03*
X509000Y311000D02*
D03*
X353000Y328500D02*
D03*
X378000D02*
D03*
X355000Y311500D02*
D03*
X277000Y271000D02*
D03*
X378500Y306000D02*
D03*
X379000Y309500D02*
D03*
X347500Y332500D02*
D03*
X331250Y310000D02*
D03*
X378500Y302500D02*
D03*
X323000Y337500D02*
D03*
X342500Y335000D02*
D03*
X379000Y313000D02*
D03*
X237500Y234000D02*
D03*
Y230000D02*
D03*
Y226000D02*
D03*
Y222500D02*
D03*
X359500Y302500D02*
D03*
X378500Y292000D02*
D03*
X357000Y299500D02*
D03*
X351500Y293500D02*
D03*
X354500Y296000D02*
D03*
X187500Y390500D02*
D03*
X172000D02*
D03*
X232750Y484000D02*
D03*
X277000Y481000D02*
D03*
X232500Y450000D02*
D03*
X275000Y448000D02*
D03*
X276000Y411000D02*
D03*
X232500Y413500D02*
D03*
X310500Y481000D02*
D03*
X303000Y409500D02*
D03*
X304500Y240000D02*
D03*
X282500D02*
D03*
X304500Y255000D02*
D03*
X282500D02*
D03*
X457756Y197244D02*
D03*
X485000Y162500D02*
D03*
X542500Y277000D02*
D03*
X564000D02*
D03*
X561846Y291846D02*
D03*
X562500Y234500D02*
D03*
X563256Y249744D02*
D03*
X542000Y249500D02*
D03*
X563000Y360500D02*
D03*
X542500Y360000D02*
D03*
X563000Y302500D02*
D03*
X542000Y317500D02*
D03*
X564000D02*
D03*
Y345000D02*
D03*
X402500Y414000D02*
D03*
X375000D02*
D03*
X502500Y393000D02*
D03*
X487500Y392500D02*
D03*
X502500Y414000D02*
D03*
X460000Y392000D02*
D03*
X445000Y393000D02*
D03*
X460000Y413500D02*
D03*
X445000Y412500D02*
D03*
X487500Y413500D02*
D03*
X362500Y196500D02*
D03*
X377500Y197500D02*
D03*
X362500Y177000D02*
D03*
X377500Y176500D02*
D03*
X420000Y177000D02*
D03*
X405000Y176500D02*
D03*
X420000Y197500D02*
D03*
X405000D02*
D03*
X695500Y262000D02*
D03*
X696500Y240000D02*
D03*
X744000D02*
D03*
X696500Y208500D02*
D03*
X743957Y208457D02*
D03*
X728500Y190500D02*
D03*
X729500Y256000D02*
D03*
X626900Y233600D02*
D03*
X663500Y238500D02*
D03*
X663000Y207000D02*
D03*
X561700Y244200D02*
D03*
X542400Y284500D02*
D03*
X542000Y242000D02*
D03*
X561800Y282200D02*
D03*
X563200Y350700D02*
D03*
X542900Y350900D02*
D03*
X562775Y312225D02*
D03*
X370321Y413800D02*
D03*
X375000Y392000D02*
D03*
X369911Y391790D02*
D03*
X402500Y392000D02*
D03*
X410000Y392100D02*
D03*
Y414550D02*
D03*
X495000Y413500D02*
D03*
Y392400D02*
D03*
X452700Y414000D02*
D03*
X452500Y392000D02*
D03*
X535000Y296800D02*
D03*
X528000Y234100D02*
D03*
X622500Y261756D02*
D03*
D68*
X782000Y113654D02*
D03*
Y120346D02*
D03*
X773500Y113654D02*
D03*
Y120346D02*
D03*
X211000Y357347D02*
D03*
Y350654D02*
D03*
X790500Y120346D02*
D03*
Y113654D02*
D03*
X798500Y120346D02*
D03*
Y113654D02*
D03*
X806500Y120346D02*
D03*
Y113654D02*
D03*
X814500Y120346D02*
D03*
Y113654D02*
D03*
D69*
X781500Y128244D02*
D03*
Y133756D02*
D03*
X773500Y128244D02*
D03*
Y133756D02*
D03*
X210000Y276244D02*
D03*
Y281756D02*
D03*
X587000Y126756D02*
D03*
Y121244D02*
D03*
X572500Y143744D02*
D03*
Y149256D02*
D03*
D70*
X237653Y310000D02*
D03*
X244346D02*
D03*
X228346Y306000D02*
D03*
X221654D02*
D03*
X221654Y316000D02*
D03*
X228346D02*
D03*
X213347Y338000D02*
D03*
X206653D02*
D03*
X193654Y358000D02*
D03*
X200346D02*
D03*
X193654Y349000D02*
D03*
X200346D02*
D03*
X342653Y311500D02*
D03*
X349346D02*
D03*
X303354Y328200D02*
D03*
X310047D02*
D03*
X575846Y115000D02*
D03*
X569153D02*
D03*
X554846Y140000D02*
D03*
X548153D02*
D03*
X561846Y120000D02*
D03*
X555154D02*
D03*
D71*
X185000Y293693D02*
D03*
Y280307D02*
D03*
Y341693D02*
D03*
Y328307D02*
D03*
X587000Y135307D02*
D03*
Y148693D02*
D03*
D72*
X222500Y330300D02*
D03*
X227500D02*
D03*
X232500D02*
D03*
X237500D02*
D03*
Y349700D02*
D03*
X232500D02*
D03*
X227500D02*
D03*
X222500D02*
D03*
D73*
X765957Y133600D02*
D03*
X763398D02*
D03*
X760839D02*
D03*
X758280D02*
D03*
X755720D02*
D03*
X753161D02*
D03*
X750602D02*
D03*
X748043D02*
D03*
Y111400D02*
D03*
X750602D02*
D03*
X753161D02*
D03*
X755720D02*
D03*
X758280D02*
D03*
X760839D02*
D03*
X763398D02*
D03*
X765957D02*
D03*
D74*
X445000Y385000D02*
D03*
Y421000D02*
D03*
X447500D02*
D03*
X450000D02*
D03*
X452500D02*
D03*
X455000D02*
D03*
X457500D02*
D03*
X460000D02*
D03*
X462500D02*
D03*
X465000D02*
D03*
X467500D02*
D03*
X470000D02*
D03*
X472500D02*
D03*
X475000D02*
D03*
X477500D02*
D03*
X480000D02*
D03*
X482500D02*
D03*
X485000D02*
D03*
X487500D02*
D03*
X490000D02*
D03*
X492500D02*
D03*
X495000D02*
D03*
X497500D02*
D03*
X500000D02*
D03*
X502500D02*
D03*
Y385000D02*
D03*
X500000D02*
D03*
X497500D02*
D03*
X495000D02*
D03*
X492500D02*
D03*
X490000D02*
D03*
X487500D02*
D03*
X485000D02*
D03*
X482500D02*
D03*
X480000D02*
D03*
X477500D02*
D03*
X475000D02*
D03*
X472500D02*
D03*
X470000D02*
D03*
X467500D02*
D03*
X465000D02*
D03*
X462500D02*
D03*
X460000D02*
D03*
X457500D02*
D03*
X455000D02*
D03*
X452500D02*
D03*
X450000D02*
D03*
X447500D02*
D03*
X360000D02*
D03*
Y421000D02*
D03*
X362500D02*
D03*
X365000D02*
D03*
X367500D02*
D03*
X370000D02*
D03*
X372500D02*
D03*
X375000D02*
D03*
X377500D02*
D03*
X380000D02*
D03*
X382500D02*
D03*
X385000D02*
D03*
X387500D02*
D03*
X390000D02*
D03*
X392500D02*
D03*
X395000D02*
D03*
X397500D02*
D03*
X400000D02*
D03*
X402500D02*
D03*
X405000D02*
D03*
X407500D02*
D03*
X410000D02*
D03*
X412500D02*
D03*
X415000D02*
D03*
X417500D02*
D03*
Y385000D02*
D03*
X415000D02*
D03*
X412500D02*
D03*
X410000D02*
D03*
X407500D02*
D03*
X405000D02*
D03*
X402500D02*
D03*
X400000D02*
D03*
X397500D02*
D03*
X395000D02*
D03*
X392500D02*
D03*
X390000D02*
D03*
X387500D02*
D03*
X385000D02*
D03*
X382500D02*
D03*
X380000D02*
D03*
X377500D02*
D03*
X375000D02*
D03*
X372500D02*
D03*
X370000D02*
D03*
X367500D02*
D03*
X365000D02*
D03*
X362500D02*
D03*
X420000Y205000D02*
D03*
Y169000D02*
D03*
X417500D02*
D03*
X415000D02*
D03*
X412500D02*
D03*
X410000D02*
D03*
X407500D02*
D03*
X405000D02*
D03*
X402500D02*
D03*
X400000D02*
D03*
X397500D02*
D03*
X395000D02*
D03*
X392500D02*
D03*
X390000D02*
D03*
X387500D02*
D03*
X385000D02*
D03*
X382500D02*
D03*
X380000D02*
D03*
X377500D02*
D03*
X375000D02*
D03*
X372500D02*
D03*
X370000D02*
D03*
X367500D02*
D03*
X365000D02*
D03*
X362500D02*
D03*
Y205000D02*
D03*
X365000D02*
D03*
X367500D02*
D03*
X370000D02*
D03*
X372500D02*
D03*
X375000D02*
D03*
X377500D02*
D03*
X380000D02*
D03*
X382500D02*
D03*
X385000D02*
D03*
X387500D02*
D03*
X390000D02*
D03*
X392500D02*
D03*
X395000D02*
D03*
X397500D02*
D03*
X400000D02*
D03*
X402500D02*
D03*
X405000D02*
D03*
X407500D02*
D03*
X410000D02*
D03*
X412500D02*
D03*
X415000D02*
D03*
X417500D02*
D03*
X500000D02*
D03*
Y169000D02*
D03*
X497500D02*
D03*
X495000D02*
D03*
X492500D02*
D03*
X490000D02*
D03*
X487500D02*
D03*
X485000D02*
D03*
X482500D02*
D03*
X480000D02*
D03*
X477500D02*
D03*
X475000D02*
D03*
X472500D02*
D03*
X470000D02*
D03*
X467500D02*
D03*
X465000D02*
D03*
X462500D02*
D03*
X460000D02*
D03*
X457500D02*
D03*
X455000D02*
D03*
X452500D02*
D03*
X450000D02*
D03*
X447500D02*
D03*
X445000D02*
D03*
X442500D02*
D03*
Y205000D02*
D03*
X445000D02*
D03*
X447500D02*
D03*
X450000D02*
D03*
X452500D02*
D03*
X455000D02*
D03*
X457500D02*
D03*
X460000D02*
D03*
X462500D02*
D03*
X465000D02*
D03*
X467500D02*
D03*
X470000D02*
D03*
X472500D02*
D03*
X475000D02*
D03*
X477500D02*
D03*
X480000D02*
D03*
X482500D02*
D03*
X485000D02*
D03*
X487500D02*
D03*
X490000D02*
D03*
X492500D02*
D03*
X495000D02*
D03*
X497500D02*
D03*
D75*
X320000Y320000D02*
D03*
X335000Y298000D02*
D03*
X330000D02*
D03*
X325000D02*
D03*
X320000D02*
D03*
X325000Y320000D02*
D03*
X330000D02*
D03*
X335000D02*
D03*
D76*
X576250Y123700D02*
D03*
X568750D02*
D03*
Y133300D02*
D03*
X572500D02*
D03*
X576250D02*
D03*
D77*
X206252Y404000D02*
D03*
X187748D02*
D03*
X187748Y377000D02*
D03*
X206252D02*
D03*
D78*
X222750Y268950D02*
D03*
X225250D02*
D03*
X227750D02*
D03*
X230250D02*
D03*
X232750D02*
D03*
X235250D02*
D03*
X237750D02*
D03*
X240250D02*
D03*
X242750D02*
D03*
X245250D02*
D03*
Y289050D02*
D03*
X242750D02*
D03*
X240250D02*
D03*
X237750D02*
D03*
X235250D02*
D03*
X232750D02*
D03*
X230250D02*
D03*
X227750D02*
D03*
X225250D02*
D03*
X222750D02*
D03*
D79*
X311500Y197500D02*
D03*
X275500D02*
D03*
Y200000D02*
D03*
Y202500D02*
D03*
Y205000D02*
D03*
Y207500D02*
D03*
Y210000D02*
D03*
Y212500D02*
D03*
Y215000D02*
D03*
Y217500D02*
D03*
Y220000D02*
D03*
Y222500D02*
D03*
Y225000D02*
D03*
Y227500D02*
D03*
Y230000D02*
D03*
Y232500D02*
D03*
Y235000D02*
D03*
Y237500D02*
D03*
Y240000D02*
D03*
Y242500D02*
D03*
Y245000D02*
D03*
Y247500D02*
D03*
Y250000D02*
D03*
Y252500D02*
D03*
Y255000D02*
D03*
X311500D02*
D03*
Y252500D02*
D03*
Y250000D02*
D03*
Y247500D02*
D03*
Y245000D02*
D03*
Y242500D02*
D03*
Y240000D02*
D03*
Y237500D02*
D03*
Y235000D02*
D03*
Y232500D02*
D03*
Y230000D02*
D03*
Y227500D02*
D03*
Y225000D02*
D03*
Y222500D02*
D03*
Y220000D02*
D03*
Y217500D02*
D03*
Y215000D02*
D03*
Y212500D02*
D03*
Y210000D02*
D03*
Y207500D02*
D03*
Y205000D02*
D03*
Y202500D02*
D03*
Y200000D02*
D03*
X535000Y360000D02*
D03*
X571000D02*
D03*
Y357500D02*
D03*
Y355000D02*
D03*
Y352500D02*
D03*
Y350000D02*
D03*
Y347500D02*
D03*
Y345000D02*
D03*
Y342500D02*
D03*
Y340000D02*
D03*
Y337500D02*
D03*
Y335000D02*
D03*
Y332500D02*
D03*
Y330000D02*
D03*
Y327500D02*
D03*
Y325000D02*
D03*
Y322500D02*
D03*
Y320000D02*
D03*
Y317500D02*
D03*
Y315000D02*
D03*
Y312500D02*
D03*
Y310000D02*
D03*
Y307500D02*
D03*
Y305000D02*
D03*
Y302500D02*
D03*
X535000D02*
D03*
Y305000D02*
D03*
Y307500D02*
D03*
Y310000D02*
D03*
Y312500D02*
D03*
Y315000D02*
D03*
Y317500D02*
D03*
Y320000D02*
D03*
Y322500D02*
D03*
Y325000D02*
D03*
Y327500D02*
D03*
Y330000D02*
D03*
Y332500D02*
D03*
Y335000D02*
D03*
Y337500D02*
D03*
Y340000D02*
D03*
Y342500D02*
D03*
Y345000D02*
D03*
Y347500D02*
D03*
Y350000D02*
D03*
Y352500D02*
D03*
Y355000D02*
D03*
Y357500D02*
D03*
Y292000D02*
D03*
X571000D02*
D03*
Y289500D02*
D03*
Y287000D02*
D03*
Y284500D02*
D03*
Y282000D02*
D03*
Y279500D02*
D03*
Y277000D02*
D03*
Y274500D02*
D03*
Y272000D02*
D03*
Y269500D02*
D03*
Y267000D02*
D03*
Y264500D02*
D03*
Y262000D02*
D03*
Y259500D02*
D03*
Y257000D02*
D03*
Y254500D02*
D03*
Y252000D02*
D03*
Y249500D02*
D03*
Y247000D02*
D03*
Y244500D02*
D03*
Y242000D02*
D03*
Y239500D02*
D03*
Y237000D02*
D03*
Y234500D02*
D03*
X535000D02*
D03*
Y237000D02*
D03*
Y239500D02*
D03*
Y242000D02*
D03*
Y244500D02*
D03*
Y247000D02*
D03*
Y249500D02*
D03*
Y252000D02*
D03*
Y254500D02*
D03*
Y257000D02*
D03*
Y259500D02*
D03*
Y262000D02*
D03*
Y264500D02*
D03*
Y267000D02*
D03*
Y269500D02*
D03*
Y272000D02*
D03*
Y274500D02*
D03*
Y277000D02*
D03*
Y279500D02*
D03*
Y282000D02*
D03*
Y284500D02*
D03*
Y287000D02*
D03*
Y289500D02*
D03*
D80*
X607000Y262000D02*
D03*
Y258850D02*
D03*
Y255701D02*
D03*
Y252551D02*
D03*
Y249402D02*
D03*
Y246252D02*
D03*
Y243102D02*
D03*
Y239953D02*
D03*
Y236803D02*
D03*
Y230504D02*
D03*
Y227354D02*
D03*
Y224205D02*
D03*
Y221055D02*
D03*
Y214756D02*
D03*
Y211606D02*
D03*
Y208457D02*
D03*
Y205307D02*
D03*
Y202157D02*
D03*
Y199008D02*
D03*
Y195858D02*
D03*
Y192709D02*
D03*
Y189559D02*
D03*
Y186409D02*
D03*
Y183260D02*
D03*
Y180110D02*
D03*
Y176961D02*
D03*
Y173811D02*
D03*
Y170661D02*
D03*
Y167512D02*
D03*
Y164362D02*
D03*
X656606D02*
D03*
Y167512D02*
D03*
Y170661D02*
D03*
Y173811D02*
D03*
Y176961D02*
D03*
Y180110D02*
D03*
Y183260D02*
D03*
Y186409D02*
D03*
Y192709D02*
D03*
Y195858D02*
D03*
Y199008D02*
D03*
Y202157D02*
D03*
Y205307D02*
D03*
Y208457D02*
D03*
Y211606D02*
D03*
Y214756D02*
D03*
Y217906D02*
D03*
Y221055D02*
D03*
Y224205D02*
D03*
Y227354D02*
D03*
Y230504D02*
D03*
Y233654D02*
D03*
Y236803D02*
D03*
Y239953D02*
D03*
Y243102D02*
D03*
Y246252D02*
D03*
Y249402D02*
D03*
Y252551D02*
D03*
Y255701D02*
D03*
Y262000D02*
D03*
Y258850D02*
D03*
Y189559D02*
D03*
X607000Y217906D02*
D03*
Y233654D02*
D03*
X688000Y262000D02*
D03*
Y258850D02*
D03*
Y255701D02*
D03*
Y252551D02*
D03*
Y249402D02*
D03*
Y246252D02*
D03*
Y243102D02*
D03*
Y239953D02*
D03*
Y236803D02*
D03*
Y230504D02*
D03*
Y227354D02*
D03*
Y224205D02*
D03*
Y221055D02*
D03*
Y214756D02*
D03*
Y211606D02*
D03*
Y208457D02*
D03*
Y205307D02*
D03*
Y202157D02*
D03*
Y199008D02*
D03*
Y195858D02*
D03*
Y192709D02*
D03*
Y189559D02*
D03*
Y186409D02*
D03*
Y183260D02*
D03*
Y180110D02*
D03*
Y176961D02*
D03*
Y173811D02*
D03*
Y170661D02*
D03*
Y167512D02*
D03*
Y164362D02*
D03*
X737606D02*
D03*
Y167512D02*
D03*
Y170661D02*
D03*
Y173811D02*
D03*
Y176961D02*
D03*
Y180110D02*
D03*
Y183260D02*
D03*
Y186409D02*
D03*
Y192709D02*
D03*
Y195858D02*
D03*
Y199008D02*
D03*
Y202157D02*
D03*
Y205307D02*
D03*
Y208457D02*
D03*
Y211606D02*
D03*
Y214756D02*
D03*
Y217906D02*
D03*
Y221055D02*
D03*
Y224205D02*
D03*
Y227354D02*
D03*
Y230504D02*
D03*
Y233654D02*
D03*
Y236803D02*
D03*
Y239953D02*
D03*
Y243102D02*
D03*
Y246252D02*
D03*
Y249402D02*
D03*
Y252551D02*
D03*
Y255701D02*
D03*
Y262000D02*
D03*
Y258850D02*
D03*
Y189559D02*
D03*
X688000Y217906D02*
D03*
Y233654D02*
D03*
D81*
X368500Y354000D02*
D03*
X499209D02*
D03*
Y352031D02*
D03*
Y350063D02*
D03*
Y348094D02*
D03*
Y346126D02*
D03*
Y344157D02*
D03*
Y342189D02*
D03*
Y340220D02*
D03*
Y338252D02*
D03*
Y336283D02*
D03*
Y334315D02*
D03*
Y332346D02*
D03*
Y330378D02*
D03*
Y328409D02*
D03*
Y326441D02*
D03*
Y324472D02*
D03*
Y322504D02*
D03*
Y320535D02*
D03*
Y318567D02*
D03*
Y316598D02*
D03*
Y314630D02*
D03*
Y312661D02*
D03*
Y310693D02*
D03*
Y308724D02*
D03*
Y306756D02*
D03*
Y304787D02*
D03*
Y302819D02*
D03*
Y300850D02*
D03*
Y298882D02*
D03*
Y296913D02*
D03*
Y294945D02*
D03*
Y292976D02*
D03*
Y291008D02*
D03*
Y289039D02*
D03*
Y287071D02*
D03*
Y285102D02*
D03*
Y283134D02*
D03*
Y281165D02*
D03*
Y279197D02*
D03*
Y277228D02*
D03*
Y275260D02*
D03*
Y273291D02*
D03*
Y271323D02*
D03*
Y269354D02*
D03*
Y267386D02*
D03*
Y265417D02*
D03*
Y263449D02*
D03*
Y261480D02*
D03*
Y259512D02*
D03*
Y257543D02*
D03*
Y255575D02*
D03*
Y253606D02*
D03*
Y251638D02*
D03*
Y249669D02*
D03*
Y247701D02*
D03*
Y245732D02*
D03*
Y243764D02*
D03*
Y241795D02*
D03*
Y239827D02*
D03*
Y237858D02*
D03*
X368500D02*
D03*
Y239827D02*
D03*
Y241795D02*
D03*
Y243764D02*
D03*
Y245732D02*
D03*
Y247701D02*
D03*
Y249669D02*
D03*
Y251638D02*
D03*
Y253606D02*
D03*
Y255575D02*
D03*
Y257543D02*
D03*
Y259512D02*
D03*
Y261480D02*
D03*
Y263449D02*
D03*
Y265417D02*
D03*
Y267386D02*
D03*
Y269354D02*
D03*
Y271323D02*
D03*
Y273291D02*
D03*
Y275260D02*
D03*
Y277228D02*
D03*
Y279197D02*
D03*
Y281165D02*
D03*
Y283134D02*
D03*
Y285102D02*
D03*
Y287071D02*
D03*
Y289039D02*
D03*
Y291008D02*
D03*
Y292976D02*
D03*
Y294945D02*
D03*
Y296913D02*
D03*
Y298882D02*
D03*
Y300850D02*
D03*
Y302819D02*
D03*
Y304787D02*
D03*
Y306756D02*
D03*
Y308724D02*
D03*
Y310693D02*
D03*
Y312661D02*
D03*
Y314630D02*
D03*
Y316598D02*
D03*
Y318567D02*
D03*
Y320535D02*
D03*
Y322504D02*
D03*
Y324472D02*
D03*
Y326441D02*
D03*
Y328409D02*
D03*
Y330378D02*
D03*
Y332346D02*
D03*
Y334315D02*
D03*
Y336283D02*
D03*
Y338252D02*
D03*
Y340220D02*
D03*
Y342189D02*
D03*
Y344157D02*
D03*
Y346126D02*
D03*
Y348094D02*
D03*
Y350063D02*
D03*
Y352032D02*
D03*
D82*
X491925Y361283D02*
D03*
X489957D02*
D03*
X487988D02*
D03*
X486020D02*
D03*
X484051D02*
D03*
X482083D02*
D03*
X480114D02*
D03*
X478146D02*
D03*
X476177D02*
D03*
X474209D02*
D03*
X472240D02*
D03*
X470272D02*
D03*
X468303D02*
D03*
X466335D02*
D03*
X464366D02*
D03*
X462398D02*
D03*
X460429D02*
D03*
X458461D02*
D03*
X456492D02*
D03*
X454524D02*
D03*
X452555D02*
D03*
X450587D02*
D03*
X448618D02*
D03*
X446650D02*
D03*
X444681D02*
D03*
X442713D02*
D03*
X440744D02*
D03*
X438776D02*
D03*
X436807D02*
D03*
X434839D02*
D03*
X432870D02*
D03*
X430902D02*
D03*
X428933D02*
D03*
X426965D02*
D03*
X424996D02*
D03*
X423028D02*
D03*
X421059D02*
D03*
X419091D02*
D03*
X417122D02*
D03*
X415154D02*
D03*
X413185D02*
D03*
X411217D02*
D03*
X409248D02*
D03*
X407280Y361284D02*
D03*
X405311Y361283D02*
D03*
X403343D02*
D03*
X401374D02*
D03*
X399406D02*
D03*
X397437D02*
D03*
X395469D02*
D03*
X393500D02*
D03*
X391532D02*
D03*
X389563D02*
D03*
X387594D02*
D03*
X385626D02*
D03*
X383657D02*
D03*
X381689D02*
D03*
X379720D02*
D03*
X377752D02*
D03*
X375783D02*
D03*
X491925Y230575D02*
D03*
X489957D02*
D03*
X487988D02*
D03*
X486020D02*
D03*
X484051D02*
D03*
X482083D02*
D03*
X480114D02*
D03*
X478146D02*
D03*
X476177D02*
D03*
X474209D02*
D03*
X472240D02*
D03*
X470272D02*
D03*
X468303D02*
D03*
X466335D02*
D03*
X464366D02*
D03*
X462398D02*
D03*
X460429D02*
D03*
X458461D02*
D03*
X456492D02*
D03*
X454524D02*
D03*
X452555D02*
D03*
X450587D02*
D03*
X448618D02*
D03*
X446650D02*
D03*
X444681D02*
D03*
X442713D02*
D03*
X440744D02*
D03*
X438776D02*
D03*
X436807D02*
D03*
X434839D02*
D03*
X432870D02*
D03*
X430902D02*
D03*
X428933D02*
D03*
X426965D02*
D03*
X424996D02*
D03*
X423028D02*
D03*
X421059D02*
D03*
X419091D02*
D03*
X417122D02*
D03*
X415154D02*
D03*
X413185D02*
D03*
X411217D02*
D03*
X409248D02*
D03*
X407280D02*
D03*
X405311D02*
D03*
X403343D02*
D03*
X401374D02*
D03*
X399406D02*
D03*
X397437D02*
D03*
X395469D02*
D03*
X393500D02*
D03*
X391532D02*
D03*
X389563D02*
D03*
X387595D02*
D03*
X385626D02*
D03*
X383657D02*
D03*
X381689D02*
D03*
X379720D02*
D03*
X377752D02*
D03*
X375783D02*
D03*
D83*
X293000Y460961D02*
D03*
Y481039D02*
D03*
D84*
X311039Y395000D02*
D03*
X290961D02*
D03*
X312039Y423000D02*
D03*
X291961D02*
D03*
D85*
X598500Y124563D02*
D03*
Y132437D02*
D03*
D86*
X232750Y490000D02*
D03*
Y472000D02*
D03*
Y457000D02*
D03*
Y439000D02*
D03*
Y420000D02*
D03*
Y402000D02*
D03*
D87*
X258600Y481000D02*
D03*
Y448000D02*
D03*
Y411000D02*
D03*
D88*
X728000Y126000D02*
D03*
D89*
X726032D02*
D03*
X724063D02*
D03*
X722095D02*
D03*
X720126D02*
D03*
X718158D02*
D03*
X716189D02*
D03*
X714221D02*
D03*
X712252D02*
D03*
X710284D02*
D03*
X708315D02*
D03*
X706347D02*
D03*
X704378D02*
D03*
X702410D02*
D03*
X700441D02*
D03*
X698473D02*
D03*
X696504D02*
D03*
X694536D02*
D03*
X692567D02*
D03*
X690599D02*
D03*
X688700D02*
D03*
X686732D02*
D03*
X684763D02*
D03*
X682795D02*
D03*
X680826D02*
D03*
X678858D02*
D03*
X676889D02*
D03*
X674921D02*
D03*
X672952D02*
D03*
X670984D02*
D03*
X669015D02*
D03*
X667047D02*
D03*
X665078D02*
D03*
X663110D02*
D03*
X661141D02*
D03*
X659173D02*
D03*
X657204D02*
D03*
X655236D02*
D03*
X653267D02*
D03*
X651299D02*
D03*
D90*
X276921Y298890D02*
D03*
X297000D02*
D03*
X276921Y317000D02*
D03*
D91*
X297000D02*
D03*
D92*
X548153Y129500D02*
D03*
X554846D02*
D03*
D93*
X196000Y444291D02*
D03*
Y455709D02*
D03*
D94*
X245756Y301000D02*
D03*
X240244D02*
D03*
X245244Y340000D02*
D03*
X250756D02*
D03*
D95*
X335300Y383300D02*
D03*
Y392900D02*
D03*
X348700Y392300D02*
D03*
X189900Y487100D02*
D03*
X202400D02*
D03*
X202700Y475300D02*
D03*
X161000Y435000D02*
D03*
X151000Y455000D02*
D03*
X161000Y475000D02*
D03*
X151000Y485000D02*
D03*
D96*
X141500Y250000D02*
D03*
X334000Y350500D02*
D03*
D97*
X266071Y158000D02*
D03*
X199929D02*
D03*
X114929D02*
D03*
X181071D02*
D03*
D98*
X242843Y185559D02*
D03*
X223157D02*
D03*
X252685Y116661D02*
D03*
X233000D02*
D03*
X213315D02*
D03*
X330567Y443315D02*
D03*
X351433D02*
D03*
X128315Y116661D02*
D03*
X148000D02*
D03*
X167685D02*
D03*
X138157Y185559D02*
D03*
X157843D02*
D03*
D99*
X292000Y121000D02*
D03*
X589000Y480000D02*
D03*
X548000Y387000D02*
D03*
Y418000D02*
D03*
Y402500D02*
D03*
D100*
X302000Y121000D02*
D03*
X312000D02*
D03*
X322000D02*
D03*
X332000D02*
D03*
X342000D02*
D03*
X352000D02*
D03*
X362000D02*
D03*
X382000D02*
D03*
X392000D02*
D03*
X402000D02*
D03*
X412000D02*
D03*
X422000D02*
D03*
X432000D02*
D03*
X442000D02*
D03*
X452000D02*
D03*
X462000D02*
D03*
X472000D02*
D03*
X482000D02*
D03*
X492000D02*
D03*
X502000D02*
D03*
X579000Y480000D02*
D03*
X569000D02*
D03*
X559000D02*
D03*
X549000D02*
D03*
X539000D02*
D03*
X529000D02*
D03*
X519000D02*
D03*
X499000D02*
D03*
X489000D02*
D03*
X479000D02*
D03*
X469000D02*
D03*
X459000D02*
D03*
X449000D02*
D03*
X439000D02*
D03*
X429000D02*
D03*
X419000D02*
D03*
X409000D02*
D03*
X399000D02*
D03*
X389000D02*
D03*
X379000D02*
D03*
X171000Y302000D02*
D03*
X538000Y387000D02*
D03*
X528000D02*
D03*
X538000Y418000D02*
D03*
X528000D02*
D03*
X200000Y312000D02*
D03*
Y302000D02*
D03*
X538000Y402500D02*
D03*
X528000D02*
D03*
D101*
X372000Y121000D02*
D03*
X509000Y480000D02*
D03*
D102*
X111000Y435000D02*
D03*
Y475000D02*
D03*
D103*
X151000Y425000D02*
D03*
D104*
X318000Y370500D02*
D03*
D105*
X171000Y312000D02*
D03*
X200000Y322000D02*
D03*
D106*
X653000Y471000D02*
D03*
D107*
X128000Y292000D02*
D03*
Y332000D02*
D03*
D108*
X621500Y472500D02*
D03*
X193500Y211500D02*
D03*
X139500Y379500D02*
D03*
X852500Y116500D02*
D03*
M02*
