M48
;Layer_Color=9474304
;FILE_FORMAT=2:5
INCH,LZ
;TYPE=PLATED
T1F00S00C0.01500
T2F00S00C0.02800
T3F00S00C0.03500
T4F00S00C0.03543
T5F00S00C0.03800
T6F00S00C0.04000
T7F00S00C0.04200
T8F00S00C0.04724
T9F00S00C0.04800
T10F00S00C0.05000
T11F00S00C0.06200
T12F00S00C0.07874
T13F00S00C0.08600
T14F00S00C0.12500
%
T01
X04045Y01096
X0371Y01505
X0367Y015
X03675Y0154
X0363Y01535
X05724Y01283
X06077Y01286
X06105Y01265
X06163Y0155
X0596357Y0149357
X06523Y01548
X06513Y012
X06573Y01149
X06897Y0151
X07139Y01422
X07285
X073Y0131
X0733Y01285
X0718876Y0131
X07532Y01275
X07605Y01265
X07645
X07528Y01174
X07555Y01045
X07887Y01338
X07386Y01605
X0727512Y0167512
X0730161Y0170661
X0727689Y0173811
X0730039Y0176961
X073026Y018326
X07285Y01905
X07453Y01927
X0743957Y0208457
X07477Y02241
X0744Y024
X07443Y02557
X07445Y0262
X07418Y02699
X07295Y0256
X07556Y02446
X06965Y024
X06808Y02399
X06733
X06635Y02385
X06657Y02516
X06671Y02553
Y02596
X0677Y0262
X0681Y02556
X06955Y0262
X0702Y02222
X06965Y02085
X07003Y01976
X06975Y019
X069976Y018326
X069739Y017961
X07Y0174
X07015Y0166
X07065Y01685
X06975Y016
X06475
X0645Y01645
X06475Y0172
X0645039Y0176961
X06455Y0185
X06417Y01965
X0663Y0207
X06488Y02257
X06273Y02193
X06269Y02336
X0627Y016965
X0639Y02958
X06225Y03001
X0595Y03106
X05619Y03026
X0561846Y0291846
X05598Y02738
X05529Y02799
X05463Y02738
X05462Y02521
X05529Y02466
X05598Y02522
X05619Y02345
X054Y0227
Y02225
Y02175
Y02125
Y02075
Y02025
Y01975
Y01925
Y01875
Y01825
Y01775
Y01725
Y01675
X04984Y01669
X0487456Y01617
X04818Y01656
X04792Y0213
X04875Y02103
X04982Y02067
X05118Y02165
X05004Y0228
X05233Y02279
X05311Y024
Y02861
X05151Y02875
X05138Y02842
X05155Y0305
X0513Y0309
X0509Y0311
X04812Y03068
X04746Y03058
X04748Y02902
X04813Y02909
X04812Y02747
X04868Y02744
Y02632
X04813Y02626
X04812Y0253
X04816Y02433
X04868Y02452
X04722Y0239544
X04696Y02593
X0615Y0249402
X06201Y02496
X0623675Y02508
X06225Y0261756
X0615Y0243
Y0233654
Y0227354
Y0217906
Y0211606
Y0202157
Y0195858
X06185Y019
X061724Y018326
X061489Y017961
X06205Y01745
X062115Y016685
X06165Y01621
X06224Y02086
X0587Y0217
X05841Y02171
X04585Y0222
X0454
X04518Y02431
X0451Y02488
X04423
X04339
X04357Y02528
X04282Y02547
X0423028Y0243072
X04168Y02394
X0411217Y0248783
X04014Y02487
X039965Y025285
X04002Y02432
X03862Y02445
X03852Y02555
X03908Y02642
X0390791Y0273291
X03973Y02754
X0385228Y0277228
X03785Y0292
Y03025
Y0306
X0379Y03095
X03907Y03092
X04032Y03124
X03945Y0297
X04017Y02658
X04069Y02602
X04162Y02628
X04451Y02546
X04569Y0258
X04638Y02487
X04658Y0239544
X04564Y02785
X04569Y03082
X03595Y03025
X0357Y02995
X03545Y0296
X03515Y02935
X0355Y03115
X033125Y031
X03626Y01964
Y01778
X03748Y01829
X0380435Y01794
X03805Y01934
X04021Y01933
X0402144Y01794
X0407556Y01829
X04198Y01783
X0419846Y01954
X04436Y02065
X0454744Y0191
X04602Y01937
Y01656
X04551Y01617
X04433Y01664
X0388Y0159
X03635Y01575
X03595Y0157
X02994Y0219256
X02933Y02137
X02865Y02193
X02867Y02413
X02933Y02431
X02994Y02412
X0302Y02548
X02933Y02623
X02844Y02549
X0277Y0271
X02724Y02665
X02585Y0262
X0252Y02655
X0247Y0279
X0243
X0238Y0283
X0225
X0204Y0281756
X0185Y02725
X023155Y0311282
X02628Y02957
X02375Y0234
Y023
Y0226
Y02225
X02367Y0212
X02485Y03178
X02511Y03217
X02457
X02224Y03568
X0214662Y0357339
X02224Y0374
X02325Y04135
X02394Y04258
Y04501
X02325Y045
X02229Y04687
X01955Y04655
X01933Y04613
X01983
X01875Y03905
X0172
X01701Y03532
X01644Y03533
X01675Y03483
X0185Y0356
X02933Y03821
X0303Y04095
X0276Y0411
X0275Y0448
X032515Y040365
X03424Y04102
X03467Y04008
X03691Y03957
X03751
Y04099
X03691
X03967
X0402156Y04064
X04022Y03994
X03965Y03957
X03949Y0378
X03985Y0374825
X0403343Y0369343
X0413463Y0371763
X0417122Y0371522
X04213Y03713
X0415154Y0349654
X04152Y03443
X0424996Y0344204
X043287Y034433
X0436807Y0344207
X04463Y03444
X04476Y03498
X0458461Y0349761
X04645Y03443
X0456753Y03224
X04153Y03162
X0403504Y0322504
X03907Y03267
X0385267Y0318567
X0379Y0313
X0378Y03285
X03808Y03314
X03858Y03368
X03988Y03388
X0399Y03443
X0399406Y0349794
X03601Y03411
X03612Y03246
X0355Y03251
X0353Y03285
X03475Y03325
X03425Y0335
X0323Y03375
X0417Y03963
X04171Y04136
X0417Y04282
Y04317
X04397Y04318
Y04283
X04452Y04119
X04574Y04064
X04633Y04099
Y0396
X04451Y03942
X0485Y0396
X04908Y04002
X049087Y04064
X0485Y04099
X05023Y04118
Y0393
X05073Y04286
X05089Y03524
X04847Y03487
X0486811Y0342189
X04758Y03442
X04756Y03498
X04693Y03341
X04748Y0323
X04868Y032
X052Y0319
X05462Y03211
X05504Y0315344
X0557Y03154
X05599Y03211
Y03428
X05556Y03486
X05462Y03427
X05425Y036
X0563Y03605
X05838Y03663
X05874
X0597Y0355
X06005Y035
X0604Y03425
X061Y03283
X06075Y03256
X0605Y03227
X06025Y03197
X06Y03168
X05974Y03138
X06126Y03309
X06225Y04584
X0604Y0467
X06005
X0597
X06275Y0431
X0627Y0427
X0634Y043
X06385Y04305
X03408Y04844
X03379Y04818
X03148Y04905
X03105Y0481
X0277
X02393Y04836
X023275Y0484
T02
X0779Y0441
Y0451
Y0461
X0789
Y0451
Y0441
X0799
X0809
X0819
X0829
Y0451
X0839
Y0461
X0829
X0839Y0441
X0829Y0431
X0819
X0809
X0799
X0789
Y0471
X0799
X0809
X0819
X0829
X0839
X0829Y0481
X0819
X0809
X0799
X0789
X0779Y0471
T03
X0288Y03405
X0298
X0308
Y03705
X0298
X0288
X0318
Y03405
X0653Y0341
Y0351
Y0361
Y0371
Y0381
Y0391
Y0401
Y0411
Y0421
Y0431
Y0441
Y0451
Y0461
X0713
Y0451
Y0441
Y0431
Y0421
Y0411
Y0401
Y0391
Y0381
Y0371
Y0361
Y0351
Y0341
Y0331
Y0321
X0653
Y0331
Y0471
X0713
T04
X0292Y0121
X0302
X0312
X0322
X0332
X0342
X0352
X0362
X0372
X0382
X0392
X0402
X0412
X0422
X0432
X0442
X0452
X0462
X0472
X0482
X0492
X0502
X02072Y03019
Y03119
X01905
Y03019
X01679Y0302
Y0312
X01905Y03219
X02072
X0528Y0387
X0538
X0548
Y04025
X0538
X0528
Y0418
X0538
X0548
X0549Y048
X0559
X0569
X0579
X0589
X0539
X0529
X0519
X0509
X0499
X0489
X0479
X0469
X0459
X0449
X0439
X0429
X0419
X0409
X0399
X0389
X0379
T05
X0148Y0302
Y0312
T06
X01415Y021
Y022
Y023
Y024
X01515
Y025
X01415
X01515Y023
Y022
Y021
X0334Y03505
Y03605
T07
X0766Y0149
X0776
X0786
X0796
X0806
X0816
X0826
X0836
X0846
X0856
Y0159
X0846
X0836
X0826
X0816
X0806
X0796
X0786
Y0169
Y0179
X0796
X0806
X0816
X0826
X0836
X0846
X0856
Y0189
Y0199
Y0209
X0846
X0836
X0826
X0816
X0806
X0796
X0786
Y0199
X0796
X0806
X0816
X0826
X0836
X0846
Y0189
X0836
X0826
X0816
X0806
X0796
X0786
X0796Y0169
X0806
X0816
X0826
X0836
X0846
X0856
Y0219
X0846
X0836
X0826
X0816
X0806
X0796
X0786
Y0229
Y0239
Y0249
X0796
X0806
X0816
X0826
X0836
X0846
X0856
Y0239
X0846
X0836
X0826
X0816
X0806
X0796
Y0229
X0806
X0816
X0826
X0836
X0846
X0856
Y0259
Y0269
X0846
X0836
X0826
X0816
X0806
X0796
X0786
Y0259
X0796
X0806
X0816
X0826
X0836
X0846
Y0279
X0856
Y0289
Y0299
X0846
X0836
X0826
X0816
X0806
X0796
X0786
Y0309
X0796
X0806
X0816
X0826
X0836
X0846
X0856
X0846Y0289
X0836
Y0279
X0826
X0816
X0806
X0796
X0786
Y0289
X0796
X0806
X0816
X0826
X0776
Y0299
X0766
Y0309
X0776
Y0279
Y0269
X0766
Y0259
Y0249
X0776
Y0239
X0766
Y0229
Y0219
Y0209
X0776
Y0199
X0766
Y0189
Y0179
X0776
Y0189
Y0169
Y0159
X0766
Y0169
X0776Y0219
Y0229
Y0259
X0766Y0279
Y0289
Y0319
Y0329
X0776
Y0319
Y0339
Y0349
X0766
Y0339
Y0359
X0776
Y0369
Y0379
Y0389
X0766
Y0379
Y0369
Y0399
X0776
Y0409
X0766
X0786
Y0399
Y0389
X0796
X0806
X0816
X0826
X0836
X0846
X0856
Y0379
X0846
X0836
X0826
X0816
X0806
X0796
X0786
Y0369
Y0359
Y0349
X0796
X0806
X0816
X0826
X0836
X0846
X0856
Y0339
Y0329
X0846
X0836
X0826
X0816
X0806
X0796
X0786
Y0319
X0796
X0806
X0816
X0826
X0836
X0846
X0856
X0846Y0339
X0836
X0826
X0816
X0806
X0796
X0786
X0796Y0359
X0806
X0816
X0826
X0836
X0846
X0856
Y0369
X0846
X0836
X0826
X0816
X0806
X0796
Y0399
X0806
X0816
X0826
X0836
X0846
X0856
Y0409
X0846
X0836
X0826
X0816
X0806
X0796
T08
X0128315Y0116661
X0148
X0167685
X0213315
X0233
X0252685
X0242843Y0185559
X0223157
X0157843
X0138157
T09
X03296Y04558
X03393Y04655
X03496Y04558
X03593Y04858
X03296
T10
X0111Y0435
X0151Y0425
Y0455
X0161Y0435
Y0475
X0151Y0485
X0111Y0475
T11
X03353Y03833
Y03929
X03487Y03923
X02027Y04753
X02024Y04871
X01899
T12
X0181071Y0158
X0199929
X0266071
X0114929
T13
X0128Y0292
Y0332
T14
X08525Y01165
X01935Y02115
X01395Y03795
X06215Y04725
M30
