%FSLAX25Y25*%
%MOIN*%
G70*
G01*
G75*
G04 Layer_Physical_Order=2*
G04 Layer_Color=16711680*
%ADD10R,0.03937X0.03543*%
%ADD11R,0.07087X0.05118*%
%ADD12R,0.05118X0.07087*%
%ADD13R,0.12598X0.05906*%
%ADD14R,0.03543X0.03937*%
%ADD15O,0.01181X0.07480*%
%ADD16O,0.07480X0.01181*%
%ADD17R,0.03543X0.03150*%
%ADD18R,0.02200X0.07800*%
%ADD19R,0.01400X0.06600*%
%ADD20O,0.02400X0.08000*%
%ADD21R,0.02200X0.05000*%
%ADD22R,0.05118X0.08661*%
%ADD23R,0.01400X0.07100*%
%ADD24O,0.07874X0.01969*%
%ADD25O,0.10000X0.01181*%
%ADD26O,0.01181X0.10000*%
%ADD27R,0.05118X0.09449*%
%ADD28R,0.09449X0.05118*%
%ADD29R,0.09800X0.03700*%
%ADD30R,0.25700X0.26400*%
%ADD31R,0.01181X0.04724*%
%ADD32O,0.01181X0.04724*%
%ADD33R,0.05906X0.09055*%
%ADD34R,0.09055X0.09055*%
%ADD35R,0.05906X0.05118*%
%ADD36R,0.03150X0.03543*%
%ADD37R,0.08661X0.05512*%
%ADD38R,0.03543X0.05512*%
%ADD39R,0.05512X0.03543*%
%ADD40R,0.05512X0.08661*%
%ADD41C,0.00800*%
%ADD42C,0.03000*%
%ADD43C,0.05000*%
%ADD44C,0.10000*%
%ADD45C,0.01000*%
%ADD46C,0.01500*%
%ADD47C,0.07000*%
%ADD48C,0.08000*%
%ADD49C,0.05906*%
%ADD50R,0.05906X0.05906*%
%ADD51C,0.07000*%
%ADD52C,0.05000*%
%ADD53R,0.05000X0.05000*%
%ADD54C,0.06000*%
%ADD55R,0.06000X0.06000*%
%ADD56R,0.09843X0.09843*%
%ADD57C,0.07874*%
%ADD58O,0.05945X0.05906*%
%ADD59R,0.08000X0.08000*%
%ADD60R,0.05000X0.05000*%
%ADD61R,0.05906X0.05906*%
%ADD62C,0.11000*%
%ADD63C,0.05500*%
%ADD64C,0.06500*%
%ADD65C,0.14000*%
%ADD66C,0.02500*%
%ADD67C,0.03000*%
%ADD68C,0.02000*%
G36*
X255000Y368200D02*
X255100Y368100D01*
Y278600D01*
X249303D01*
X248986Y278987D01*
X248988Y279000D01*
X248837Y279761D01*
X248406Y280406D01*
X247761Y280837D01*
X247000Y280988D01*
X246239Y280837D01*
X245594Y280406D01*
X245250Y279891D01*
X244750D01*
X244406Y280406D01*
X244122Y280596D01*
Y283331D01*
X247125D01*
Y288668D01*
X242182D01*
Y285102D01*
X241964Y284776D01*
X241878Y284347D01*
X241879Y284346D01*
Y280596D01*
X241594Y280406D01*
X241163Y279761D01*
X241012Y279000D01*
X241015Y278987D01*
X240697Y278600D01*
X239122D01*
Y281404D01*
X239406Y281594D01*
X239837Y282239D01*
X239988Y283000D01*
X239837Y283761D01*
X239406Y284406D01*
X238761Y284837D01*
X238000Y284988D01*
X237239Y284837D01*
X236594Y284406D01*
X236163Y283761D01*
X236012Y283000D01*
X236163Y282239D01*
X236594Y281594D01*
X236878Y281404D01*
Y278600D01*
X232844D01*
Y275800D01*
X231844D01*
Y278600D01*
X224426D01*
X224234Y279062D01*
X226586Y281414D01*
X236429Y291257D01*
X238150D01*
Y299743D01*
X237243D01*
Y373500D01*
X237243Y373500D01*
X237243Y373500D01*
Y373500D01*
X237243D01*
X237243Y373500D01*
X237072Y374358D01*
X236586Y375086D01*
X210243Y401429D01*
Y411600D01*
X211600D01*
X255000Y368200D01*
D02*
G37*
G36*
X318500Y495100D02*
Y490865D01*
X311863Y484228D01*
X310500D01*
X309665Y484118D01*
X308886Y483795D01*
X308218Y483282D01*
X307705Y482614D01*
X307382Y481835D01*
X307272Y481000D01*
X307382Y480165D01*
X307705Y479386D01*
X308218Y478718D01*
X308886Y478205D01*
X309665Y477882D01*
X310500Y477772D01*
X313200D01*
X314035Y477882D01*
X314537Y478090D01*
X318500Y474128D01*
Y414125D01*
X318038Y413934D01*
X315986Y415986D01*
X315258Y416472D01*
X314400Y416643D01*
X279400D01*
X278542Y416472D01*
X277814Y415986D01*
X276250Y414422D01*
X269086Y421586D01*
X268358Y422072D01*
X267500Y422243D01*
X262318D01*
Y422669D01*
X257375D01*
Y417332D01*
X262318D01*
Y417757D01*
X266571D01*
X273864Y410464D01*
X273928Y410142D01*
X274414Y409414D01*
X275142Y408928D01*
X276000Y408757D01*
X276858Y408928D01*
X277586Y409414D01*
X277586Y409414D01*
X277586Y409414D01*
X280329Y412157D01*
X302530D01*
X302579Y411659D01*
X302142Y411572D01*
X301414Y411086D01*
X300928Y410358D01*
X300757Y409500D01*
X300928Y408642D01*
X301414Y407914D01*
X302142Y407428D01*
X303000Y407257D01*
X307871D01*
X318500Y396628D01*
Y377400D01*
X301172D01*
X294886Y383686D01*
X294158Y384172D01*
X293300Y384343D01*
X292442Y384172D01*
X291714Y383686D01*
X291228Y382958D01*
X291057Y382100D01*
X291228Y381242D01*
X291714Y380514D01*
X294366Y377862D01*
X294175Y377400D01*
X260772D01*
X223743Y414429D01*
Y456471D01*
X246029Y478757D01*
X277000D01*
X277858Y478928D01*
X278586Y479414D01*
X279072Y480142D01*
X279243Y481000D01*
X279072Y481858D01*
X278586Y482586D01*
X269586Y491586D01*
X268858Y492072D01*
X268000Y492243D01*
X262818D01*
Y492668D01*
X257875D01*
Y487331D01*
X262818D01*
Y487757D01*
X267071D01*
X271123Y483705D01*
X270931Y483243D01*
X245100D01*
X244242Y483072D01*
X243514Y482586D01*
X219914Y458986D01*
X219428Y458258D01*
X219257Y457400D01*
Y413500D01*
X219428Y412642D01*
X219914Y411914D01*
X219914Y411914D01*
X219914D01*
Y411914D01*
X219914Y411914D01*
X253966Y377862D01*
X253774Y377400D01*
X250300D01*
X250100Y377200D01*
X212100Y415200D01*
X101600D01*
X100900Y415900D01*
Y495500D01*
X318100D01*
X318500Y495100D01*
D02*
G37*
G36*
X592775Y153313D02*
X592605Y152843D01*
X587200D01*
X586342Y152672D01*
X585614Y152186D01*
X585128Y151458D01*
X584957Y150600D01*
X585128Y149742D01*
X585614Y149014D01*
X586342Y148528D01*
X587200Y148357D01*
X593671D01*
X607700Y134328D01*
Y110907D01*
X607696Y110904D01*
X550820D01*
Y111014D01*
X534257Y124820D01*
X534257Y125248D01*
X534257Y125248D01*
X534257Y125248D01*
Y153285D01*
X535972Y155000D01*
X590752D01*
X592775Y153313D01*
D02*
G37*
G36*
X205757Y400500D02*
X205928Y399642D01*
X206414Y398914D01*
X206414Y398914D01*
X206414D01*
Y398914D01*
X206414Y398914D01*
X232757Y372571D01*
Y299743D01*
X231632D01*
Y292805D01*
X223414Y284586D01*
X220299Y281472D01*
X217481D01*
Y278600D01*
X216819D01*
Y281772D01*
X214744D01*
Y279000D01*
X213744D01*
Y281772D01*
X211669D01*
Y278600D01*
X206243D01*
Y279513D01*
X206072Y280371D01*
X205586Y281099D01*
X204858Y281585D01*
X204000Y281756D01*
X203142Y281585D01*
X202414Y281099D01*
X201928Y280371D01*
X201757Y279513D01*
Y277957D01*
X192600Y268800D01*
X100554D01*
X100200Y269154D01*
X100300Y411600D01*
X205757D01*
Y400500D01*
D02*
G37*
%LPC*%
G36*
X168400Y305921D02*
Y302500D01*
X171821D01*
X171751Y303032D01*
X171353Y303993D01*
X170719Y304819D01*
X169893Y305453D01*
X168932Y305851D01*
X168400Y305921D01*
D02*
G37*
G36*
X224819Y305772D02*
X222744D01*
Y303500D01*
X224819D01*
Y305772D01*
D02*
G37*
G36*
X221744D02*
X219669D01*
Y303500D01*
X221744D01*
Y305772D01*
D02*
G37*
G36*
X147500Y305716D02*
X147021Y305654D01*
X146109Y305276D01*
X145326Y304675D01*
X144724Y303891D01*
X144346Y302979D01*
X144283Y302500D01*
X147500D01*
Y305716D01*
D02*
G37*
G36*
X148500D02*
Y302500D01*
X151716D01*
X151654Y302979D01*
X151276Y303891D01*
X150674Y304675D01*
X149891Y305276D01*
X148979Y305654D01*
X148500Y305716D01*
D02*
G37*
G36*
X167400Y305921D02*
X166868Y305851D01*
X165907Y305453D01*
X165081Y304819D01*
X164447Y303993D01*
X164049Y303032D01*
X163979Y302500D01*
X167400D01*
Y305921D01*
D02*
G37*
G36*
X111200Y352400D02*
X107779D01*
X107849Y351868D01*
X108247Y350907D01*
X108881Y350081D01*
X109707Y349447D01*
X110668Y349049D01*
X111200Y348979D01*
Y352400D01*
D02*
G37*
G36*
X115621D02*
X112200D01*
Y348979D01*
X112732Y349049D01*
X113693Y349447D01*
X114519Y350081D01*
X115153Y350907D01*
X115551Y351868D01*
X115621Y352400D01*
D02*
G37*
G36*
X131700Y356584D02*
X130746Y356459D01*
X129858Y356091D01*
X129095Y355505D01*
X128509Y354742D01*
X128141Y353854D01*
X128016Y352900D01*
X128141Y351946D01*
X128509Y351058D01*
X129095Y350295D01*
X129858Y349709D01*
X130746Y349341D01*
X131700Y349216D01*
X132654Y349341D01*
X133542Y349709D01*
X134305Y350295D01*
X134891Y351058D01*
X135259Y351946D01*
X135384Y352900D01*
X135259Y353854D01*
X134891Y354742D01*
X134305Y355505D01*
X133542Y356091D01*
X132654Y356459D01*
X131700Y356584D01*
D02*
G37*
G36*
X128000Y338230D02*
X126785Y338110D01*
X125616Y337756D01*
X124539Y337180D01*
X123595Y336405D01*
X122820Y335461D01*
X122244Y334384D01*
X121890Y333215D01*
X121770Y332000D01*
X121890Y330785D01*
X122244Y329616D01*
X122820Y328539D01*
X123595Y327595D01*
X124539Y326820D01*
X125616Y326244D01*
X126785Y325890D01*
X128000Y325770D01*
X129215Y325890D01*
X130384Y326244D01*
X131461Y326820D01*
X132405Y327595D01*
X133180Y328539D01*
X133756Y329616D01*
X134110Y330785D01*
X134230Y332000D01*
X134110Y333215D01*
X133756Y334384D01*
X133180Y335461D01*
X132405Y336405D01*
X131461Y337180D01*
X130384Y337756D01*
X129215Y338110D01*
X128000Y338230D01*
D02*
G37*
G36*
X155353Y356553D02*
X148047D01*
Y349247D01*
X155353D01*
Y351677D01*
X186693D01*
X205977Y332393D01*
Y325347D01*
X205358Y325091D01*
X204595Y324505D01*
X204009Y323742D01*
X203753Y323124D01*
X203500D01*
X203032Y323030D01*
X202635Y322765D01*
X197935Y318065D01*
X197670Y317668D01*
X197576Y317200D01*
Y310307D01*
X192352Y305083D01*
X192342Y305091D01*
X191454Y305459D01*
X190500Y305584D01*
X189546Y305459D01*
X188658Y305091D01*
X187895Y304505D01*
X187717Y304273D01*
X187243Y304434D01*
Y309366D01*
X187717Y309527D01*
X187895Y309295D01*
X188658Y308709D01*
X189546Y308341D01*
X190500Y308216D01*
X191454Y308341D01*
X192342Y308709D01*
X193105Y309295D01*
X193691Y310058D01*
X194059Y310946D01*
X194184Y311900D01*
X194059Y312854D01*
X193691Y313742D01*
X193105Y314505D01*
X192342Y315091D01*
X191454Y315459D01*
X190500Y315584D01*
X189546Y315459D01*
X188658Y315091D01*
X187895Y314505D01*
X187717Y314273D01*
X187243Y314434D01*
Y318247D01*
X194153D01*
Y325553D01*
X187243D01*
Y343100D01*
X187072Y343958D01*
X186586Y344686D01*
X185858Y345172D01*
X185000Y345343D01*
X184142Y345172D01*
X183414Y344686D01*
X182928Y343958D01*
X182757Y343100D01*
Y272500D01*
X182928Y271642D01*
X183414Y270914D01*
X184142Y270428D01*
X185000Y270257D01*
X185858Y270428D01*
X186586Y270914D01*
X187072Y271642D01*
X187243Y272500D01*
Y299366D01*
X187717Y299527D01*
X187895Y299295D01*
X188658Y298709D01*
X189546Y298341D01*
X190500Y298216D01*
X191454Y298341D01*
X192342Y298709D01*
X193105Y299295D01*
X193691Y300058D01*
X194059Y300946D01*
X194184Y301900D01*
X194059Y302854D01*
X193920Y303189D01*
X199665Y308935D01*
X199930Y309332D01*
X199981Y309586D01*
X200478Y309537D01*
Y307500D01*
X200478Y307500D01*
X200564Y307071D01*
X200807Y306707D01*
X203547Y303967D01*
Y298247D01*
X210853D01*
Y305553D01*
X205133D01*
X202722Y307965D01*
Y313335D01*
X204015Y314629D01*
X204453Y314615D01*
X204588Y314496D01*
X204009Y313742D01*
X203641Y312854D01*
X203516Y311900D01*
X203641Y310946D01*
X204009Y310058D01*
X204595Y309295D01*
X205358Y308709D01*
X206246Y308341D01*
X207200Y308216D01*
X208154Y308341D01*
X209042Y308709D01*
X209805Y309295D01*
X210391Y310058D01*
X210689Y310778D01*
X225535D01*
X227878Y308435D01*
X227812Y308100D01*
X227878Y307765D01*
X226963Y306849D01*
X226720Y306485D01*
X226634Y306056D01*
X226634Y306056D01*
Y305472D01*
X225481D01*
Y300528D01*
X230031D01*
Y305472D01*
X229411D01*
X229290Y305764D01*
X229607Y306150D01*
X229800Y306112D01*
X230561Y306263D01*
X231206Y306694D01*
X231637Y307339D01*
X231788Y308100D01*
X231637Y308861D01*
X231206Y309506D01*
X230561Y309937D01*
X229800Y310088D01*
X229465Y310021D01*
X226793Y312693D01*
X226429Y312936D01*
X226000Y313022D01*
X226000Y313021D01*
X210689D01*
X210391Y313742D01*
X209805Y314505D01*
X209042Y315091D01*
X208324Y315388D01*
X208422Y315879D01*
X210700D01*
X210700Y315878D01*
X211129Y315964D01*
X211493Y316207D01*
X219339Y324053D01*
X219583Y324417D01*
X219668Y324847D01*
X219668Y324847D01*
Y341804D01*
X219952Y341994D01*
X220383Y342639D01*
X220535Y343400D01*
X220383Y344161D01*
X219952Y344806D01*
X219307Y345237D01*
X218547Y345388D01*
X217786Y345237D01*
X217141Y344806D01*
X216710Y344161D01*
X216558Y343400D01*
X216710Y342639D01*
X217141Y341994D01*
X217425Y341804D01*
Y325311D01*
X210235Y318122D01*
X208905D01*
X208807Y318612D01*
X209042Y318709D01*
X209805Y319295D01*
X210391Y320058D01*
X210759Y320946D01*
X210884Y321900D01*
X210759Y322854D01*
X210391Y323742D01*
X209805Y324505D01*
X209042Y325091D01*
X208423Y325347D01*
Y332900D01*
X208330Y333368D01*
X208065Y333765D01*
X188065Y353765D01*
X187668Y354030D01*
X187200Y354123D01*
X155353D01*
Y356553D01*
D02*
G37*
G36*
X171553Y315653D02*
X164247D01*
Y308347D01*
X171553D01*
Y315653D01*
D02*
G37*
G36*
X148000Y315480D02*
X147099Y315361D01*
X146260Y315014D01*
X145539Y314461D01*
X144986Y313740D01*
X144639Y312901D01*
X144520Y312000D01*
X144639Y311099D01*
X144986Y310260D01*
X145539Y309539D01*
X146260Y308986D01*
X147099Y308639D01*
X148000Y308520D01*
X148901Y308639D01*
X149740Y308986D01*
X150461Y309539D01*
X151014Y310260D01*
X151361Y311099D01*
X151480Y312000D01*
X151361Y312901D01*
X151014Y313740D01*
X150461Y314461D01*
X149740Y315014D01*
X148901Y315361D01*
X148000Y315480D01*
D02*
G37*
G36*
X224819Y302500D02*
X222744D01*
Y300228D01*
X224819D01*
Y302500D01*
D02*
G37*
G36*
X254118Y288968D02*
X251847D01*
Y286500D01*
X254118D01*
Y288968D01*
D02*
G37*
G36*
X245809Y295000D02*
X242750D01*
Y290957D01*
X245809D01*
Y295000D01*
D02*
G37*
G36*
X249868D02*
X246809D01*
Y290957D01*
X249868D01*
Y295000D01*
D02*
G37*
G36*
X250847Y288968D02*
X248575D01*
Y286500D01*
X250847D01*
Y288968D01*
D02*
G37*
G36*
Y285500D02*
X248575D01*
Y283032D01*
X250847D01*
Y285500D01*
D02*
G37*
G36*
X254118D02*
X251847D01*
Y283032D01*
X254118D01*
Y285500D01*
D02*
G37*
G36*
X128000Y298230D02*
X126785Y298110D01*
X125616Y297756D01*
X124539Y297180D01*
X123595Y296405D01*
X122820Y295461D01*
X122244Y294384D01*
X121890Y293215D01*
X121770Y292000D01*
X121890Y290785D01*
X122244Y289616D01*
X122820Y288539D01*
X123595Y287595D01*
X124539Y286820D01*
X125616Y286244D01*
X126785Y285890D01*
X128000Y285770D01*
X129215Y285890D01*
X130384Y286244D01*
X131461Y286820D01*
X132405Y287595D01*
X133180Y288539D01*
X133756Y289616D01*
X134110Y290785D01*
X134230Y292000D01*
X134110Y293215D01*
X133756Y294384D01*
X133180Y295461D01*
X132405Y296405D01*
X131461Y297180D01*
X130384Y297756D01*
X129215Y298110D01*
X128000Y298230D01*
D02*
G37*
G36*
X147500Y301500D02*
X144283D01*
X144346Y301021D01*
X144724Y300109D01*
X145326Y299325D01*
X146109Y298724D01*
X147021Y298346D01*
X147500Y298284D01*
Y301500D01*
D02*
G37*
G36*
X151716D02*
X148500D01*
Y298284D01*
X148979Y298346D01*
X149891Y298724D01*
X150674Y299325D01*
X151276Y300109D01*
X151654Y301021D01*
X151716Y301500D01*
D02*
G37*
G36*
X221744Y302500D02*
X219669D01*
Y300228D01*
X221744D01*
Y302500D01*
D02*
G37*
G36*
X171821Y301500D02*
X168400D01*
Y298079D01*
X168932Y298149D01*
X169893Y298547D01*
X170719Y299181D01*
X171353Y300007D01*
X171751Y300968D01*
X171821Y301500D01*
D02*
G37*
G36*
X245809Y300043D02*
X242750D01*
Y296000D01*
X245809D01*
Y300043D01*
D02*
G37*
G36*
X249868D02*
X246809D01*
Y296000D01*
X249868D01*
Y300043D01*
D02*
G37*
G36*
X167400Y301500D02*
X163979D01*
X164049Y300968D01*
X164447Y300007D01*
X165081Y299181D01*
X165907Y298547D01*
X166868Y298149D01*
X167400Y298079D01*
Y301500D01*
D02*
G37*
G36*
X141700Y356584D02*
X140746Y356459D01*
X139858Y356091D01*
X139095Y355505D01*
X138509Y354742D01*
X138141Y353854D01*
X138016Y352900D01*
X138141Y351946D01*
X138509Y351058D01*
X139095Y350295D01*
X139858Y349709D01*
X140746Y349341D01*
X141700Y349216D01*
X142654Y349341D01*
X143542Y349709D01*
X144305Y350295D01*
X144891Y351058D01*
X145259Y351946D01*
X145384Y352900D01*
X145259Y353854D01*
X144891Y354742D01*
X144305Y355505D01*
X143542Y356091D01*
X142654Y356459D01*
X141700Y356584D01*
D02*
G37*
G36*
X150500Y484500D02*
X146023D01*
X146129Y483695D01*
X146633Y482478D01*
X147434Y481434D01*
X148478Y480632D01*
X149695Y480129D01*
X150500Y480023D01*
Y484500D01*
D02*
G37*
G36*
X155977D02*
X151500D01*
Y480023D01*
X152305Y480129D01*
X153522Y480632D01*
X154566Y481434D01*
X155368Y482478D01*
X155871Y483695D01*
X155977Y484500D01*
D02*
G37*
G36*
X235125Y492668D02*
X230182D01*
Y487331D01*
X230507D01*
Y484000D01*
X230678Y483142D01*
X231164Y482414D01*
X231892Y481928D01*
X232750Y481757D01*
X233608Y481928D01*
X234336Y482414D01*
X234822Y483142D01*
X234993Y484000D01*
Y487331D01*
X235125D01*
Y492668D01*
D02*
G37*
G36*
X182400Y479741D02*
X181173Y479579D01*
X180345Y479236D01*
X163055D01*
X162227Y479579D01*
X161000Y479741D01*
X159773Y479579D01*
X158630Y479106D01*
X157648Y478352D01*
X156895Y477370D01*
X156421Y476227D01*
X156259Y475000D01*
X156421Y473773D01*
X156895Y472630D01*
X157648Y471648D01*
X158630Y470894D01*
X159773Y470421D01*
X161000Y470259D01*
X162227Y470421D01*
X163055Y470764D01*
X180345D01*
X181173Y470421D01*
X182400Y470259D01*
X183627Y470421D01*
X184770Y470894D01*
X185752Y471648D01*
X186505Y472630D01*
X186979Y473773D01*
X187141Y475000D01*
X186979Y476227D01*
X186505Y477370D01*
X185752Y478352D01*
X184770Y479106D01*
X183627Y479579D01*
X182400Y479741D01*
D02*
G37*
G36*
X256625Y459668D02*
X251682D01*
Y459243D01*
X241818D01*
Y459668D01*
X236875D01*
Y454331D01*
X237103D01*
Y450153D01*
X237274Y449295D01*
X237760Y448567D01*
X237814Y448514D01*
X238542Y448028D01*
X239400Y447857D01*
X240258Y448028D01*
X240986Y448514D01*
X241472Y449242D01*
X241643Y450100D01*
X241590Y450369D01*
Y454331D01*
X241818D01*
Y454757D01*
X251682D01*
Y454331D01*
X256625D01*
Y459668D01*
D02*
G37*
G36*
X194900Y479841D02*
X193673Y479679D01*
X192530Y479206D01*
X191548Y478452D01*
X190795Y477470D01*
X190321Y476327D01*
X190159Y475100D01*
X190321Y473873D01*
X190374Y473746D01*
X159414Y442786D01*
X158928Y442058D01*
X158757Y441200D01*
Y439158D01*
X158630Y439106D01*
X157648Y438352D01*
X156895Y437370D01*
X156421Y436227D01*
X156259Y435000D01*
X156421Y433773D01*
X156895Y432630D01*
X157648Y431648D01*
X158630Y430895D01*
X159773Y430421D01*
X161000Y430259D01*
X162227Y430421D01*
X163370Y430895D01*
X164352Y431648D01*
X165105Y432630D01*
X165579Y433773D01*
X165741Y435000D01*
X165579Y436227D01*
X165105Y437370D01*
X164352Y438352D01*
X163370Y439106D01*
X163243Y439158D01*
Y440271D01*
X193546Y470574D01*
X193673Y470521D01*
X194900Y470359D01*
X196127Y470521D01*
X197270Y470995D01*
X198252Y471748D01*
X199005Y472730D01*
X199479Y473873D01*
X199641Y475100D01*
X199479Y476327D01*
X199005Y477470D01*
X198252Y478452D01*
X197270Y479206D01*
X196127Y479679D01*
X194900Y479841D01*
D02*
G37*
G36*
X111000Y479236D02*
X109904Y479092D01*
X108882Y478669D01*
X108004Y477995D01*
X107331Y477118D01*
X106908Y476096D01*
X106764Y475000D01*
X106908Y473904D01*
X107331Y472882D01*
X108004Y472005D01*
X108882Y471331D01*
X109904Y470908D01*
X111000Y470764D01*
X112096Y470908D01*
X113118Y471331D01*
X113996Y472005D01*
X114669Y472882D01*
X115092Y473904D01*
X115236Y475000D01*
X115092Y476096D01*
X114669Y477118D01*
X113996Y477995D01*
X113118Y478669D01*
X112096Y479092D01*
X111000Y479236D01*
D02*
G37*
G36*
X182000Y487100D02*
X177523D01*
X177629Y486295D01*
X178132Y485078D01*
X178934Y484034D01*
X179978Y483232D01*
X181195Y482729D01*
X182000Y482623D01*
Y487100D01*
D02*
G37*
G36*
Y492577D02*
X181195Y492471D01*
X179978Y491967D01*
X178934Y491166D01*
X178132Y490122D01*
X177629Y488905D01*
X177523Y488100D01*
X182000D01*
Y492577D01*
D02*
G37*
G36*
X183000D02*
Y488100D01*
X187477D01*
X187371Y488905D01*
X186867Y490122D01*
X186066Y491166D01*
X185022Y491967D01*
X183805Y492471D01*
X183000Y492577D01*
D02*
G37*
G36*
X256125Y492668D02*
X251182D01*
Y492243D01*
X241818D01*
Y492668D01*
X236875D01*
Y487331D01*
X237103D01*
Y483834D01*
X237057Y483600D01*
X237228Y482742D01*
X237714Y482014D01*
X238442Y481528D01*
X239300Y481357D01*
X240158Y481528D01*
X240886Y482014D01*
X240933Y482060D01*
X241419Y482788D01*
X241590Y483646D01*
Y487331D01*
X241818D01*
Y487757D01*
X251182D01*
Y487331D01*
X256125D01*
Y492668D01*
D02*
G37*
G36*
X151500Y489977D02*
Y485500D01*
X155977D01*
X155871Y486305D01*
X155368Y487522D01*
X154566Y488566D01*
X153522Y489367D01*
X152305Y489871D01*
X151500Y489977D01*
D02*
G37*
G36*
X187477Y487100D02*
X183000D01*
Y482623D01*
X183805Y482729D01*
X185022Y483232D01*
X186066Y484034D01*
X186867Y485078D01*
X187371Y486295D01*
X187477Y487100D01*
D02*
G37*
G36*
X195000Y492341D02*
X193773Y492179D01*
X192630Y491706D01*
X191648Y490952D01*
X190895Y489970D01*
X190421Y488827D01*
X190259Y487600D01*
X190421Y486373D01*
X190895Y485230D01*
X191648Y484248D01*
X192630Y483495D01*
X193773Y483021D01*
X195000Y482859D01*
X196227Y483021D01*
X197370Y483495D01*
X198352Y484248D01*
X199105Y485230D01*
X199579Y486373D01*
X199741Y487600D01*
X199579Y488827D01*
X199105Y489970D01*
X198352Y490952D01*
X197370Y491706D01*
X196227Y492179D01*
X195000Y492341D01*
D02*
G37*
G36*
X150500Y489977D02*
X149695Y489871D01*
X148478Y489367D01*
X147434Y488566D01*
X146633Y487522D01*
X146129Y486305D01*
X146023Y485500D01*
X150500D01*
Y489977D01*
D02*
G37*
G36*
X151000Y459741D02*
X149773Y459579D01*
X148630Y459105D01*
X147648Y458352D01*
X146895Y457370D01*
X146421Y456227D01*
X146259Y455000D01*
X146421Y453773D01*
X146895Y452630D01*
X147648Y451648D01*
X148630Y450894D01*
X149773Y450421D01*
X151000Y450259D01*
X152227Y450421D01*
X153370Y450894D01*
X154352Y451648D01*
X155105Y452630D01*
X155579Y453773D01*
X155741Y455000D01*
X155579Y456227D01*
X155105Y457370D01*
X154352Y458352D01*
X153370Y459105D01*
X152227Y459579D01*
X151000Y459741D01*
D02*
G37*
G36*
X230531Y360500D02*
X228456D01*
Y358228D01*
X230531D01*
Y360500D01*
D02*
G37*
G36*
X227456Y363772D02*
X225381D01*
Y361500D01*
X227456D01*
Y363772D01*
D02*
G37*
G36*
X230531D02*
X228456D01*
Y361500D01*
X230531D01*
Y363772D01*
D02*
G37*
G36*
X227456Y360500D02*
X225381D01*
Y358228D01*
X227456D01*
Y360500D01*
D02*
G37*
G36*
X111200Y356821D02*
X110668Y356751D01*
X109707Y356353D01*
X108881Y355719D01*
X108247Y354893D01*
X107849Y353932D01*
X107779Y353400D01*
X111200D01*
Y356821D01*
D02*
G37*
G36*
X112200D02*
Y353400D01*
X115621D01*
X115551Y353932D01*
X115153Y354893D01*
X114519Y355719D01*
X113693Y356353D01*
X112732Y356751D01*
X112200Y356821D01*
D02*
G37*
G36*
X222400Y376243D02*
X221542Y376072D01*
X220814Y375586D01*
X220328Y374858D01*
X220157Y374000D01*
Y362244D01*
X220169Y362182D01*
Y360906D01*
X220157Y360844D01*
Y356800D01*
Y356600D01*
X220328Y355742D01*
X220814Y355014D01*
X221542Y354528D01*
X222400Y354357D01*
X223258Y354528D01*
X223986Y355014D01*
X224472Y355742D01*
X224643Y356600D01*
Y356800D01*
Y358528D01*
X224719D01*
Y363472D01*
X224643D01*
Y374000D01*
X224472Y374858D01*
X223986Y375586D01*
X223258Y376072D01*
X222400Y376243D01*
D02*
G37*
G36*
X154300Y394300D02*
X124300D01*
Y364300D01*
X154300D01*
Y394300D01*
D02*
G37*
G36*
X111000Y439236D02*
X109904Y439092D01*
X108882Y438669D01*
X108004Y437995D01*
X107331Y437118D01*
X106908Y436096D01*
X106764Y435000D01*
X106908Y433904D01*
X107331Y432882D01*
X108004Y432004D01*
X108882Y431331D01*
X109904Y430908D01*
X111000Y430764D01*
X112096Y430908D01*
X113118Y431331D01*
X113996Y432004D01*
X114669Y432882D01*
X115092Y433904D01*
X115236Y435000D01*
X115092Y436096D01*
X114669Y437118D01*
X113996Y437995D01*
X113118Y438669D01*
X112096Y439092D01*
X111000Y439236D01*
D02*
G37*
G36*
X263318Y459668D02*
X258375D01*
Y454331D01*
X263318D01*
Y454757D01*
X265071D01*
X273414Y446414D01*
X274142Y445928D01*
X275000Y445757D01*
X275858Y445928D01*
X276586Y446414D01*
X277072Y447142D01*
X277243Y448000D01*
X277072Y448858D01*
X276586Y449586D01*
X267586Y458586D01*
X266858Y459072D01*
X266000Y459243D01*
X263318D01*
Y459668D01*
D02*
G37*
G36*
X235125D02*
X230182D01*
Y454331D01*
X230257D01*
Y450000D01*
X230428Y449142D01*
X230914Y448414D01*
X231642Y447928D01*
X232500Y447757D01*
X233358Y447928D01*
X234086Y448414D01*
X234572Y449142D01*
X234743Y450000D01*
Y454331D01*
X235125D01*
Y459668D01*
D02*
G37*
G36*
X155700Y429700D02*
X146300D01*
Y420300D01*
X155700D01*
Y429700D01*
D02*
G37*
G36*
X187500Y392743D02*
X172000D01*
X171142Y392572D01*
X170414Y392086D01*
X169928Y391358D01*
X169757Y390500D01*
Y374629D01*
X157971Y362843D01*
X129400D01*
X128542Y362672D01*
X127814Y362186D01*
X122152Y356525D01*
X121700Y356584D01*
X120746Y356459D01*
X119858Y356091D01*
X119095Y355505D01*
X118509Y354742D01*
X118141Y353854D01*
X118016Y352900D01*
X118141Y351946D01*
X118509Y351058D01*
X119095Y350295D01*
X119858Y349709D01*
X120746Y349341D01*
X121700Y349216D01*
X122654Y349341D01*
X123542Y349709D01*
X124305Y350295D01*
X124891Y351058D01*
X125259Y351946D01*
X125384Y352900D01*
X125325Y353352D01*
X130329Y358357D01*
X158900D01*
X159758Y358528D01*
X160486Y359014D01*
X160486Y359014D01*
X160486Y359014D01*
X173586Y372114D01*
X173586Y372114D01*
X173586Y372114D01*
X174072Y372842D01*
X174243Y373700D01*
Y388257D01*
X187500D01*
X188358Y388428D01*
X189086Y388914D01*
X189572Y389642D01*
X189743Y390500D01*
X189572Y391358D01*
X189086Y392086D01*
X188358Y392572D01*
X187500Y392743D01*
D02*
G37*
G36*
X235125Y422669D02*
X230182D01*
Y417332D01*
X230410D01*
Y414272D01*
X230257Y413500D01*
X230428Y412642D01*
X230914Y411914D01*
X231642Y411428D01*
X232500Y411257D01*
X233358Y411428D01*
X234086Y411914D01*
X234240Y412067D01*
X234726Y412795D01*
X234897Y413654D01*
Y417332D01*
X235125D01*
Y422669D01*
D02*
G37*
G36*
X239400Y428043D02*
X238542Y427872D01*
X237814Y427386D01*
X237760Y427333D01*
X237274Y426605D01*
X237103Y425746D01*
Y422669D01*
X236875D01*
Y417332D01*
X241818D01*
Y417757D01*
X250682D01*
Y417332D01*
X255625D01*
Y422669D01*
X250682D01*
Y422243D01*
X241818D01*
Y422669D01*
X241590D01*
Y425531D01*
X241643Y425800D01*
X241472Y426658D01*
X240986Y427386D01*
X240258Y427872D01*
X239400Y428043D01*
D02*
G37*
%LPD*%
D10*
X808000Y457154D02*
D03*
Y463846D02*
D03*
X819000Y457154D02*
D03*
Y463846D02*
D03*
X722000Y444153D02*
D03*
Y450846D02*
D03*
X700500Y384154D02*
D03*
Y390846D02*
D03*
X555600Y302554D02*
D03*
Y309246D02*
D03*
X555500Y285154D02*
D03*
Y291846D02*
D03*
X213500Y132846D02*
D03*
Y126154D02*
D03*
X232500Y132846D02*
D03*
Y126154D02*
D03*
X223000Y168154D02*
D03*
Y174846D02*
D03*
X428200Y267647D02*
D03*
Y260953D02*
D03*
X445100Y267446D02*
D03*
Y260753D02*
D03*
X165800Y213647D02*
D03*
Y206954D02*
D03*
Y220354D02*
D03*
Y227046D02*
D03*
X165900Y249946D02*
D03*
Y243253D02*
D03*
X297500Y254847D02*
D03*
Y248153D02*
D03*
X289000Y254847D02*
D03*
Y248153D02*
D03*
X555000Y241347D02*
D03*
Y234653D02*
D03*
X557500Y360347D02*
D03*
Y353654D02*
D03*
X548500Y360347D02*
D03*
Y353654D02*
D03*
X128500Y132846D02*
D03*
Y126154D02*
D03*
X148000Y132846D02*
D03*
Y126154D02*
D03*
X138000Y169653D02*
D03*
Y176347D02*
D03*
X721000Y262846D02*
D03*
Y256153D02*
D03*
X672500Y247153D02*
D03*
Y253847D02*
D03*
X722000Y190654D02*
D03*
Y197346D02*
D03*
X636000Y196653D02*
D03*
Y203346D02*
D03*
D12*
X234891Y295500D02*
D03*
X246309D02*
D03*
D14*
X456753Y299800D02*
D03*
X463447D02*
D03*
X445154Y407000D02*
D03*
X451847D02*
D03*
X502347D02*
D03*
X495653D02*
D03*
X502347Y399000D02*
D03*
X495653D02*
D03*
X251346Y273000D02*
D03*
X244654D02*
D03*
X251346Y286000D02*
D03*
X244654D02*
D03*
X498347Y191100D02*
D03*
X491653D02*
D03*
X498347Y182300D02*
D03*
X491653D02*
D03*
X443553Y191100D02*
D03*
X450246D02*
D03*
X443553Y182800D02*
D03*
X450246D02*
D03*
X456753Y284900D02*
D03*
X463447D02*
D03*
X415246Y322500D02*
D03*
X408554D02*
D03*
X419946Y191100D02*
D03*
X413253D02*
D03*
X419846Y182900D02*
D03*
X413154D02*
D03*
X362653Y191000D02*
D03*
X369346D02*
D03*
X362653Y183000D02*
D03*
X369346D02*
D03*
X445154Y399100D02*
D03*
X451847D02*
D03*
X260347Y490000D02*
D03*
X253654D02*
D03*
X239347D02*
D03*
X232653D02*
D03*
X415246Y290200D02*
D03*
X408554D02*
D03*
X390754D02*
D03*
X397446D02*
D03*
X481247Y299800D02*
D03*
X474553D02*
D03*
X481247Y284800D02*
D03*
X474553D02*
D03*
X390754Y321900D02*
D03*
X397446D02*
D03*
X456853Y329200D02*
D03*
X463547D02*
D03*
X481247D02*
D03*
X474553D02*
D03*
X260846Y457000D02*
D03*
X254153D02*
D03*
X239347D02*
D03*
X232653D02*
D03*
X259846Y420000D02*
D03*
X253153D02*
D03*
X239347D02*
D03*
X232653D02*
D03*
D17*
X469600Y248744D02*
D03*
Y254256D02*
D03*
X420000Y344244D02*
D03*
Y349756D02*
D03*
X410300Y344156D02*
D03*
Y338644D02*
D03*
X404000Y344244D02*
D03*
Y349756D02*
D03*
X453200Y344244D02*
D03*
Y349756D02*
D03*
X441000Y344244D02*
D03*
Y349756D02*
D03*
X480500Y344244D02*
D03*
Y349756D02*
D03*
X477400Y248756D02*
D03*
Y243244D02*
D03*
X457600Y248756D02*
D03*
Y243244D02*
D03*
X429300Y248756D02*
D03*
Y243244D02*
D03*
X405700Y248756D02*
D03*
Y243244D02*
D03*
X392200Y248756D02*
D03*
Y243244D02*
D03*
X797500Y458744D02*
D03*
Y464256D02*
D03*
X698800Y462744D02*
D03*
Y468256D02*
D03*
X536000Y348656D02*
D03*
Y343144D02*
D03*
X569500Y348756D02*
D03*
Y343244D02*
D03*
X536000Y315344D02*
D03*
Y320856D02*
D03*
X569500Y315344D02*
D03*
Y320856D02*
D03*
X536000Y279756D02*
D03*
Y274244D02*
D03*
X569500Y279756D02*
D03*
Y274244D02*
D03*
X535800Y246644D02*
D03*
Y252156D02*
D03*
X569500Y246644D02*
D03*
Y252156D02*
D03*
X276600Y246756D02*
D03*
Y241244D02*
D03*
X310300Y246756D02*
D03*
Y241244D02*
D03*
X276600Y213744D02*
D03*
Y219256D02*
D03*
X310300Y213744D02*
D03*
Y219256D02*
D03*
X471500Y344256D02*
D03*
Y338744D02*
D03*
X737606Y245858D02*
D03*
Y240347D02*
D03*
X729500Y245756D02*
D03*
Y240244D02*
D03*
X737500Y214256D02*
D03*
Y208744D02*
D03*
X729500Y214256D02*
D03*
Y208744D02*
D03*
X711100Y155556D02*
D03*
Y150044D02*
D03*
X719200Y155656D02*
D03*
Y150144D02*
D03*
X702000Y214256D02*
D03*
Y208744D02*
D03*
X711000Y214256D02*
D03*
Y208744D02*
D03*
X702000Y245756D02*
D03*
Y240244D02*
D03*
X711000Y245756D02*
D03*
Y240244D02*
D03*
X656606Y245858D02*
D03*
Y240347D02*
D03*
X646500Y245756D02*
D03*
Y240244D02*
D03*
X702000Y257244D02*
D03*
Y262756D02*
D03*
X711000Y257244D02*
D03*
Y262756D02*
D03*
X656500Y214756D02*
D03*
Y209244D02*
D03*
X646500Y214556D02*
D03*
Y209044D02*
D03*
X631300Y154856D02*
D03*
Y149344D02*
D03*
X640900Y154856D02*
D03*
Y149344D02*
D03*
X627000Y214356D02*
D03*
Y208844D02*
D03*
X636000Y214256D02*
D03*
Y208744D02*
D03*
X627000Y245756D02*
D03*
Y240244D02*
D03*
X636000Y245756D02*
D03*
Y240244D02*
D03*
X627000Y256244D02*
D03*
Y261756D02*
D03*
X636000Y256244D02*
D03*
Y261756D02*
D03*
X416100Y248844D02*
D03*
Y254356D02*
D03*
X469400Y269856D02*
D03*
Y264344D02*
D03*
D36*
X390744Y268700D02*
D03*
X396256D02*
D03*
X390756Y259600D02*
D03*
X385244D02*
D03*
X390756Y281900D02*
D03*
X385244D02*
D03*
X390756Y331300D02*
D03*
X385244D02*
D03*
X390756Y314000D02*
D03*
X385244D02*
D03*
X481244Y337000D02*
D03*
X486756D02*
D03*
X481244Y315900D02*
D03*
X486756D02*
D03*
X481244Y270000D02*
D03*
X486756D02*
D03*
X481244Y258100D02*
D03*
X486756D02*
D03*
X369544Y385700D02*
D03*
X375056D02*
D03*
X369544Y419100D02*
D03*
X375056D02*
D03*
X402156Y418900D02*
D03*
X396644D02*
D03*
X402156Y385500D02*
D03*
X396644D02*
D03*
X490856Y419000D02*
D03*
X485344D02*
D03*
X457744Y419000D02*
D03*
X463256D02*
D03*
X490856Y385500D02*
D03*
X485344D02*
D03*
X454744Y203800D02*
D03*
X460256D02*
D03*
X487456Y203800D02*
D03*
X481944D02*
D03*
X487456Y169900D02*
D03*
X481944D02*
D03*
X454744Y169900D02*
D03*
X460256D02*
D03*
X407556Y169900D02*
D03*
X402044D02*
D03*
X374844D02*
D03*
X380356D02*
D03*
X374944Y203700D02*
D03*
X380456D02*
D03*
X407656Y203700D02*
D03*
X402144D02*
D03*
X457744Y385600D02*
D03*
X463256D02*
D03*
X214244Y279000D02*
D03*
X219756D02*
D03*
X232344Y275800D02*
D03*
X237856D02*
D03*
X222244Y303000D02*
D03*
X227756D02*
D03*
X227956Y361000D02*
D03*
X222444D02*
D03*
X390844Y302900D02*
D03*
X396356D02*
D03*
D41*
X218547Y324847D02*
Y343400D01*
X210700Y317000D02*
X218547Y324847D01*
X204800Y317000D02*
X210700D01*
X201600Y313800D02*
X204800Y317000D01*
X201600Y307500D02*
Y313800D01*
Y307500D02*
X207200Y301900D01*
X227756Y303000D02*
Y306056D01*
X229800Y308100D01*
X226000Y311900D02*
X229800Y308100D01*
X207200Y311900D02*
X226000D01*
X354100Y282100D02*
X363000Y291000D01*
X287400Y282100D02*
X354100D01*
X238000Y276756D02*
Y283000D01*
X647250Y159750D02*
X647500Y160000D01*
X615527Y159750D02*
X647250D01*
X629700Y352500D02*
Y400200D01*
X638800Y409300D01*
X709500Y437500D02*
X713000Y441000D01*
X692900Y437500D02*
X709500D01*
X661500Y395200D02*
Y406100D01*
X692900Y437500D01*
X443300Y182647D02*
X443653Y183000D01*
X443300Y166400D02*
Y182647D01*
X443553Y206453D02*
X443600Y206500D01*
X443553Y191100D02*
Y206453D01*
X456150Y219650D02*
X458500Y222000D01*
X449450Y219650D02*
X456150D01*
X437000Y207200D02*
X449450Y219650D01*
X437000Y116500D02*
Y207200D01*
X444800Y222000D02*
X454000D01*
X427000Y204200D02*
X444800Y222000D01*
X427000Y114500D02*
Y204200D01*
X517500Y166243D02*
Y281300D01*
X514600Y284200D02*
X517500Y281300D01*
X513800Y284200D02*
X514600D01*
X519000Y165621D02*
Y283600D01*
X515100Y287500D02*
X519000Y283600D01*
X301954Y254847D02*
X302000Y254800D01*
X297500Y254847D02*
X301954D01*
X284400Y254900D02*
X284454Y254847D01*
X289000D01*
X612500Y251902D02*
Y330700D01*
Y251902D02*
X615000Y249402D01*
X363677Y313000D02*
X379000D01*
X347500Y332500D02*
X379700D01*
X342500Y334177D02*
X363677Y313000D01*
X637500Y441000D02*
Y474743D01*
X627500Y431000D02*
X637500Y441000D01*
X408549Y322504D02*
X408554Y322500D01*
X403504Y322504D02*
X408549D01*
X379700Y332500D02*
X380800Y331400D01*
X417000Y413500D02*
X417100Y413600D01*
X417000Y396300D02*
Y413500D01*
X649600Y371000D02*
X653000D01*
X645371Y375229D02*
X649600Y371000D01*
X645371Y375229D02*
Y472007D01*
X164654Y225900D02*
X165800Y227046D01*
X141500Y250000D02*
X147400Y244100D01*
X165053D01*
X165900Y243253D01*
X164553Y225800D02*
X165800Y227046D01*
X141500Y230000D02*
X145600Y225900D01*
X164654D01*
X151500Y210000D02*
X154446Y207053D01*
X165800D01*
X678600Y251500D02*
X734000D01*
X677000Y253100D02*
X678600Y251500D01*
X677000Y253100D02*
Y262000D01*
X623050Y250800D02*
X623350Y250500D01*
X623050Y250800D02*
X623675D01*
X623350Y250500D02*
X648500D01*
X657400Y259400D02*
X667100D01*
X648500Y250500D02*
X657400Y259400D01*
X614677Y160600D02*
X615527Y159750D01*
X579400Y160600D02*
X614677D01*
X572500Y167500D02*
X579400Y160600D01*
X582900Y162100D02*
X616500D01*
X572500Y172500D02*
X582900Y162100D01*
X618600D02*
X619500Y163000D01*
X616500Y162100D02*
X618600D01*
X429000Y434593D02*
X453307Y458900D01*
X537900D01*
X427500Y383679D02*
Y435215D01*
X452685Y460400D01*
X529400D01*
X426000Y384300D02*
Y435836D01*
X452064Y461900D01*
X520900D01*
X424500Y392257D02*
Y436457D01*
X451443Y463400D01*
X512400D01*
X529000Y480000D01*
X423000Y392879D02*
Y437079D01*
X450821Y464900D01*
X503900D01*
X519000Y480000D01*
X421500Y393500D02*
Y437700D01*
X450200Y466400D01*
X495400D01*
X509000Y480000D01*
X429000Y383057D02*
Y434593D01*
X421300Y375357D02*
X429000Y383057D01*
X421300Y371300D02*
Y375357D01*
X417122Y373301D02*
X427500Y383679D01*
X417122Y371522D02*
Y373301D01*
X413463Y371763D02*
X426000Y384300D01*
X520900Y461900D02*
X539000Y480000D01*
X537900Y458900D02*
X559000Y480000D01*
X529400Y460400D02*
X549000Y480000D01*
X403343Y369343D02*
Y371100D01*
X404621Y374500D02*
X423000Y392879D01*
X398500Y374500D02*
X404621D01*
X394500Y296913D02*
X397413Y294000D01*
X445100Y254600D02*
Y260753D01*
X428200Y254700D02*
Y260953D01*
X397446Y290200D02*
X408554D01*
X397413Y290233D02*
X397446Y290200D01*
X397413Y290233D02*
Y294000D01*
X397446Y321900D02*
X398050Y322504D01*
X403504D01*
X751900Y117400D02*
X752800D01*
X740561Y106061D02*
X751900Y117400D01*
X243000Y279000D02*
Y284347D01*
X244654Y286000D01*
Y273000D02*
X247000Y275346D01*
Y279000D01*
X713000Y431000D02*
X782600D01*
X788600Y437000D01*
X795000D01*
X799000Y441000D01*
X713000Y421000D02*
Y425909D01*
X709400Y429509D02*
X713000Y425909D01*
X709400Y429509D02*
Y432491D01*
X711509Y434600D01*
X714491D01*
X714580Y434511D01*
X782511D01*
X789000Y441000D01*
X707909Y421000D02*
X711509Y417400D01*
X714491D01*
X716600Y419509D01*
X783221Y429500D02*
X784721Y431000D01*
X789000D01*
X802600Y477400D02*
Y482491D01*
X796591Y488500D02*
X802600Y482491D01*
Y477400D02*
X809000Y471000D01*
X793000Y487000D02*
X799000Y481000D01*
X800000Y490000D02*
X809000Y481000D01*
X653000Y391000D02*
X686121D01*
X692521Y397400D01*
X714491D01*
X718100Y401009D01*
X790491Y427400D02*
X792600Y429509D01*
Y429691D01*
X800309Y437400D01*
X800491D01*
X802600Y439509D01*
Y442491D01*
X653000Y381000D02*
X653431Y381431D01*
X678673D01*
X693143Y395900D01*
X715112D01*
X719600Y400387D01*
X798991Y425900D02*
X804100Y431009D01*
Y443113D01*
X713000Y381000D02*
Y385909D01*
X721100Y394009D01*
X812600Y429509D02*
Y442491D01*
X773000Y474000D02*
X780000Y481000D01*
X789000D01*
X779000Y441000D02*
X781000D01*
X784600Y444600D01*
X800491D01*
X802600Y442491D01*
X807491Y447600D02*
X812600Y442491D01*
X774500Y473379D02*
X778121Y477000D01*
X793000D01*
X799000Y471000D01*
X713000Y361000D02*
Y365909D01*
X722600Y375509D01*
X722500Y429500D02*
X783221D01*
X716600Y419509D02*
Y423600D01*
X722521Y427400D02*
X790491D01*
X718100Y401009D02*
Y422979D01*
X723143Y425900D02*
X798991D01*
X719600Y400387D02*
Y422357D01*
X716600Y423600D02*
X722500Y429500D01*
X718100Y422979D02*
X722521Y427400D01*
X719600Y422357D02*
X723143Y425900D01*
X721100Y394009D02*
Y421500D01*
X807216Y424125D02*
X812600Y429509D01*
X721100Y421500D02*
X723725Y424125D01*
X807216D01*
X722600Y375509D02*
Y420879D01*
X724346Y422625D01*
X820625D01*
X829000Y431000D01*
X789000Y471000D02*
X793909D01*
X797509Y467400D01*
X804447D01*
X808000Y463846D01*
X819000D02*
Y471000D01*
X805548Y457154D02*
X808000D01*
X597000Y355000D02*
Y467000D01*
X604000Y342500D02*
Y467000D01*
X773000Y459788D02*
X776888Y455900D01*
X773000Y459788D02*
Y474000D01*
X774500Y460409D02*
X777509Y457400D01*
X774500Y460409D02*
Y473379D01*
X777509Y457400D02*
X794100D01*
X794628Y456872D01*
Y456714D02*
Y456872D01*
Y456714D02*
X803742Y447600D01*
X807491D01*
X792600Y454500D02*
X792712D01*
X804100Y443113D01*
X776888Y455900D02*
X791200D01*
X792600Y454500D01*
X687900Y421000D02*
X707909D01*
X779000Y451000D02*
Y451666D01*
X771500Y459166D02*
X779000Y451666D01*
X771500Y459166D02*
Y469500D01*
X755500Y485500D02*
X771500Y469500D01*
X656743Y485500D02*
X755500D01*
X627000Y427000D02*
X627500D01*
Y427677D01*
X639000Y439177D01*
X634000Y430000D02*
X640500Y436500D01*
X638500Y430500D02*
X642000Y434000D01*
X656121Y487000D02*
X793000D01*
X655500Y488500D02*
X796591D01*
X654879Y490000D02*
X800000D01*
X639000Y439177D02*
Y474121D01*
X654879Y490000D01*
X640500Y436500D02*
Y473500D01*
X655500Y488500D01*
X642000Y434000D02*
Y472879D01*
X656121Y487000D01*
X637500Y474743D02*
X654257Y491500D01*
X808500D01*
X819000Y481000D01*
X643871Y472629D02*
X656743Y485500D01*
X643871Y370129D02*
Y472629D01*
X784091Y451000D02*
X789000D01*
X780491Y447400D02*
X784091Y451000D01*
X777509Y447400D02*
X780491D01*
X770000Y454909D02*
X777509Y447400D01*
X770000Y454909D02*
Y468879D01*
X754939Y483939D02*
X770000Y468879D01*
X657303Y483939D02*
X754939D01*
X645371Y472007D02*
X657303Y483939D01*
X643871Y370129D02*
X653000Y361000D01*
X610000Y248000D02*
Y327500D01*
Y248000D02*
X615000Y243000D01*
X607500Y241154D02*
Y325600D01*
Y241154D02*
X615000Y233654D01*
X605000Y237354D02*
Y322700D01*
Y237354D02*
X615000Y227354D01*
X602500Y230406D02*
Y319200D01*
Y230406D02*
X615000Y217906D01*
X600000Y226606D02*
Y317100D01*
Y226606D02*
X615000Y211606D01*
X597500Y219657D02*
Y313262D01*
X595000Y215858D02*
Y311293D01*
X600250Y349750D02*
X600500Y350000D01*
Y467000D01*
X727020Y186500D02*
X730260Y183260D01*
X645039Y176961D02*
X730039D01*
X699650Y174350D02*
X700000Y174000D01*
X703134Y173811D02*
X727689D01*
X700973Y171650D02*
X703134Y173811D01*
X647850Y171650D02*
X700973D01*
X647500Y172000D02*
X647850Y171650D01*
X705350Y169650D02*
X706500Y168500D01*
X711985Y170661D02*
X730161D01*
X707473Y166150D02*
X711985Y170661D01*
X700650Y166850D02*
X701500Y166000D01*
X621150Y166850D02*
X700650D01*
X704973Y166150D02*
X707473D01*
X702473Y163650D02*
X704973Y166150D01*
X700527Y163650D02*
X702473D01*
X699677Y164500D02*
X700527Y163650D01*
X645000Y164500D02*
X699677D01*
X711354Y167512D02*
X727512D01*
X701492Y157650D02*
X711354Y167512D01*
X696527Y157650D02*
X701492D01*
X694177Y160000D02*
X696527Y157650D01*
X647500Y160000D02*
X694177D01*
X620071Y174350D02*
X620221Y174500D01*
X620500D01*
X585350Y169650D02*
X627000D01*
X695350Y162150D02*
X697500Y160000D01*
X646173Y162350D02*
X648473D01*
X648673Y162150D01*
X695350D01*
X619500Y163000D02*
X643177D01*
X644027Y162150D01*
X645973D01*
X646173Y162350D01*
X586000Y172000D02*
X647500D01*
X586000Y174500D02*
X620221D01*
X585240Y183260D02*
X617240D01*
X645500Y185000D02*
X647000Y186500D01*
X699150Y182650D02*
X699760Y183260D01*
X617240D02*
X617850Y182650D01*
X597500Y219657D02*
X615000Y202157D01*
X647000Y186500D02*
X727020D01*
X595000Y215858D02*
X615000Y195858D01*
X627000Y169650D02*
X705350D01*
X620071Y174350D02*
X699650D01*
X614890Y179610D02*
X697390D01*
X618500Y190000D02*
X697500D01*
X617850Y182650D02*
X699150D01*
X644890Y185610D02*
X645500Y185000D01*
X540500Y222500D02*
X551000D01*
X583500Y190000D01*
X618500D01*
X585390Y185610D02*
X644890D01*
X556000Y212500D02*
X585240Y183260D01*
X540500Y218000D02*
X553000D01*
X585390Y185610D01*
X540000Y212500D02*
X556000D01*
X540000Y207500D02*
X558000D01*
X586039Y176961D02*
X645039D01*
X586000Y179610D02*
X614890D01*
X586000Y179500D02*
Y179610D01*
X558000Y207500D02*
X586000Y179500D01*
X560500Y202500D02*
X586039Y176961D01*
X563500Y197000D02*
X586000Y174500D01*
X565500Y192500D02*
X586000Y172000D01*
X567500Y187500D02*
X585350Y169650D01*
X583000Y164500D02*
X645000D01*
X585650Y166850D02*
X621150D01*
X570000Y182500D02*
X585650Y166850D01*
X570000Y177500D02*
X583000Y164500D01*
X540000Y202500D02*
X560500D01*
X540500Y197000D02*
X563500D01*
X540000Y197500D02*
X540500Y197000D01*
X540000Y192500D02*
X565500D01*
X540000Y187500D02*
X567500D01*
X540000Y182500D02*
X570000D01*
X540000Y177500D02*
X570000D01*
X540000Y172500D02*
X572500D01*
X540000Y167500D02*
X572500D01*
X677000Y215500D02*
Y262000D01*
X653850Y192350D02*
X677000Y215500D01*
X583271Y192350D02*
X653850D01*
X548621Y227000D02*
X583271Y192350D01*
X540000Y227000D02*
X548621D01*
X754000Y133000D02*
X760500Y126500D01*
X731000Y133000D02*
X754000D01*
X730000Y132000D02*
X731000Y133000D01*
X730000Y131000D02*
Y132000D01*
X756500Y134500D02*
X764500Y126500D01*
X730177Y134500D02*
X756500D01*
X727650Y131973D02*
X730177Y134500D01*
X727650Y130027D02*
Y131973D01*
Y130027D02*
X729177Y128500D01*
X733000D01*
X447439Y106061D02*
X740561D01*
X437000Y104500D02*
X755500D01*
X427000Y114500D02*
X437000Y104500D01*
Y116500D02*
X447439Y106061D01*
X502973Y147473D02*
X520500Y165000D01*
X463500Y121000D02*
X489973Y147473D01*
X502973D01*
X462000Y121000D02*
X463500D01*
X452000D02*
X456269D01*
X484242Y148973D01*
X502352D01*
X519000Y165621D01*
X442000Y121000D02*
X471500Y150500D01*
X501757D01*
X517500Y166243D01*
X407000Y379000D02*
X421500Y393500D01*
X395900Y379000D02*
X407000D01*
X394900Y378000D02*
X395900Y379000D01*
X403343Y371100D02*
X424500Y392257D01*
X213500Y116846D02*
Y126154D01*
X213315Y116661D02*
X213500Y116846D01*
X148000Y116661D02*
Y126154D01*
X363000Y152000D02*
Y153500D01*
X128500Y116846D02*
Y126154D01*
X128315Y116661D02*
X128500Y116846D01*
Y126154D02*
X153347Y151000D01*
X362000D02*
X363000Y152000D01*
Y149500D02*
X367500Y154000D01*
X213500Y126154D02*
X235347Y148000D01*
X365000D02*
X367000Y150000D01*
Y146500D02*
X371000Y150500D01*
X148000Y126154D02*
X179654D01*
X203000Y149500D01*
X284000Y146500D02*
X367000D01*
X263500Y126000D02*
X284000Y146500D01*
X232500Y117161D02*
Y126154D01*
Y117161D02*
X233000Y116661D01*
X232653Y126000D02*
X263500D01*
X232500Y126154D02*
X232653Y126000D01*
X363500Y157323D02*
Y157500D01*
X360650Y154473D02*
X363500Y157323D01*
X360650Y154150D02*
Y154473D01*
X144153Y176347D02*
X156479Y164021D01*
X138000Y176347D02*
X144153D01*
X138000D02*
Y185402D01*
X138157Y185559D01*
Y176504D02*
Y185559D01*
X138000Y176347D02*
X138157Y176504D01*
X232653Y174846D02*
X241979Y165521D01*
X223000Y174846D02*
X232653D01*
X223000D02*
X223157Y175004D01*
Y185559D01*
X387150Y159850D02*
X388000Y159000D01*
X520000Y319000D02*
X520500Y318500D01*
Y165000D02*
Y318500D01*
X538000Y373000D02*
Y387000D01*
X513000Y348000D02*
X538000Y373000D01*
X513000Y309000D02*
Y348000D01*
X542000Y385216D02*
X542053Y385268D01*
X538000Y402500D02*
X542053Y398447D01*
Y385268D02*
Y398447D01*
X542000Y374500D02*
Y385216D01*
X515500Y348000D02*
X542000Y374500D01*
X515500Y305000D02*
Y348000D01*
X532939Y412939D02*
X538000Y418000D01*
X532939Y370061D02*
Y412939D01*
X509000Y346121D02*
X532939Y370061D01*
X509000Y311000D02*
Y346121D01*
X353000Y328500D02*
X378000D01*
X377027Y306150D02*
X378350D01*
X378500Y306000D01*
X331000Y310000D02*
X334850Y313850D01*
X360150D01*
X364500Y309500D01*
X379000D01*
X355000Y311500D02*
X360379D01*
X363879Y308000D01*
X375177D01*
X377027Y306150D01*
X330277Y307650D02*
X330350D01*
X322500Y315427D02*
X330277Y307650D01*
X330350D02*
X331500Y306500D01*
X373000D01*
X377000Y302500D01*
X378500D01*
X342500Y334177D02*
Y335000D01*
X378000Y313000D02*
X379000D01*
X322500Y315427D02*
Y337000D01*
X323000Y337500D01*
X224000Y229500D02*
X253900Y259400D01*
X259577D01*
X260000Y265500D02*
X261100Y264400D01*
X252000Y265500D02*
X260000D01*
X259577Y259400D02*
X261100Y260923D01*
Y264400D01*
X237500Y234000D02*
X262600Y259100D01*
Y289600D01*
X265500Y292500D01*
X372621Y291000D02*
X373621Y292000D01*
X378500D01*
X363000Y291000D02*
X372621D01*
X265500Y292500D02*
X316000D01*
X322500Y299000D01*
X237500Y230000D02*
Y230677D01*
X264100Y257277D01*
Y288979D01*
X266121Y291000D01*
X316621D01*
X323121Y297500D01*
X345379Y302500D02*
X359500D01*
X322500Y299000D02*
X341879D01*
X345379Y302500D01*
X323121Y297500D02*
X342500D01*
X344500Y299500D01*
X357000D01*
X237500Y226000D02*
X266500Y255000D01*
Y288000D01*
X268000Y289500D01*
X317243D01*
X323743Y296000D01*
X237500Y222500D02*
X268500Y253500D01*
Y286000D01*
X270500Y288000D01*
X317864D01*
X323364Y293500D01*
X351500D01*
X323743Y296000D02*
X354500D01*
X288846Y255000D02*
X289000Y254847D01*
X235347Y148000D02*
X365000D01*
X203000Y149500D02*
X363000D01*
X153347Y151000D02*
X362000D01*
X279862Y159850D02*
X387150D01*
X272690Y167021D02*
X279862Y159850D01*
X271448Y164021D02*
X281319Y154150D01*
X272069Y165521D02*
X280590Y157000D01*
X281319Y154150D02*
X360650D01*
X280590Y157000D02*
X359500D01*
X254257Y167021D02*
X272690D01*
X260694Y164021D02*
X271448D01*
X224000Y197278D02*
Y229500D01*
X156479Y164021D02*
X260694D01*
X224000Y197278D02*
X254257Y167021D01*
X241979Y165521D02*
X272069D01*
X734000Y251500D02*
X744500Y262000D01*
D42*
X702772Y454581D02*
Y465230D01*
Y454581D02*
X711053Y446300D01*
X846000Y409000D02*
X856000D01*
X836000D02*
X846000D01*
X826000D02*
X836000D01*
X816000D02*
X826000D01*
X806000D02*
X816000D01*
X796000D02*
X806000D01*
X786000D02*
X796000D01*
X776000D02*
X786000D01*
X766000D02*
X776000D01*
X161000Y435000D02*
Y441200D01*
X194900Y475100D01*
X172000Y373700D02*
Y390500D01*
X158900Y360600D02*
X172000Y373700D01*
X129400Y360600D02*
X158900D01*
X121700Y352900D02*
X129400Y360600D01*
X123900Y227600D02*
Y241500D01*
X123994Y241606D02*
X137589Y255200D01*
X123900Y227600D02*
X141500Y210000D01*
X204000Y274500D02*
Y279513D01*
X616300Y126400D02*
Y155000D01*
X613400Y157900D02*
X616300Y155000D01*
X535700Y157900D02*
X613400D01*
X502000Y124200D02*
X535700Y157900D01*
X587200Y150600D02*
X594600D01*
X611300Y133900D01*
X502000Y121000D02*
Y124200D01*
X670147Y247153D02*
X672500D01*
X665700Y251600D02*
X670147Y247153D01*
X718144Y269900D02*
X741800D01*
X711000Y262756D02*
X718144Y269900D01*
X711000Y257244D02*
X713644D01*
X719246Y262846D01*
X721000D01*
X407656Y185502D02*
Y203700D01*
Y185502D02*
X413253Y191100D01*
X407556Y185402D02*
X407656Y185502D01*
X407556Y182900D02*
Y185402D01*
X314000Y213744D02*
X345656D01*
X310300D02*
X314000D01*
X317100Y216844D01*
Y241600D01*
X311944Y246756D02*
X317100Y241600D01*
X310300Y246756D02*
X311944D01*
X552756Y279756D02*
X552900Y279900D01*
X536000Y279756D02*
X552756D01*
X460256Y169900D02*
Y203800D01*
X487456Y203800D02*
Y217888D01*
Y203800D02*
X491653Y199602D01*
Y191100D02*
Y199602D01*
X450246Y191100D02*
X450347Y191000D01*
X454744D01*
Y203800D01*
X498347Y166954D02*
X498400Y166900D01*
X454744Y162056D02*
Y169900D01*
Y162056D02*
X455100Y161700D01*
X460200Y165600D02*
X481800D01*
X481944Y165744D01*
Y169900D01*
X460200Y165600D02*
X460256Y165656D01*
Y169900D01*
X450246Y182800D02*
Y191100D01*
Y182800D02*
X454744Y178302D01*
Y169900D02*
Y178302D01*
X487456Y161700D02*
Y169900D01*
X491653Y182300D02*
Y191100D01*
X487456Y169900D02*
X491653Y174098D01*
Y182300D01*
X481944Y169900D02*
Y203800D01*
X466200Y225900D02*
X481944Y210156D01*
Y203800D02*
Y210156D01*
X430300Y225900D02*
X466200D01*
X402144Y179400D02*
Y203700D01*
Y170000D02*
Y179400D01*
X380456Y192556D02*
Y203700D01*
X378900Y191000D02*
X380456Y192556D01*
X369346Y191000D02*
X378900D01*
X407556Y182900D02*
X413154D01*
X380356Y169900D02*
Y179400D01*
X374844Y169900D02*
Y182900D01*
X369346Y183000D02*
X374800D01*
X407556Y169900D02*
Y182900D01*
X380356Y169900D02*
X402044D01*
X402144Y170000D01*
X363400Y169900D02*
X374844D01*
X355700Y177600D02*
X363400Y169900D01*
X355700Y177600D02*
Y203700D01*
X374944D01*
X345656Y213744D02*
X355700Y203700D01*
X380456D02*
X380456Y203700D01*
X402144D01*
Y224944D01*
X407556Y166065D02*
Y169900D01*
X372000Y130509D02*
X407556Y166065D01*
X372000Y121000D02*
Y130509D01*
X276600Y219256D02*
X299400D01*
X310300D01*
X286644Y241244D02*
X286700Y241300D01*
X276600Y241244D02*
X286644D01*
X276600Y219256D02*
X276600Y219256D01*
Y241244D01*
X297500Y243100D02*
Y248153D01*
Y243100D02*
X299400Y241200D01*
X299444Y241244D02*
X310300D01*
Y219256D02*
Y241244D01*
X310300Y219256D02*
X310300Y219256D01*
X289000Y247400D02*
Y248153D01*
Y247400D02*
X293300Y243100D01*
X276600Y213744D02*
X310300D01*
X287602Y246756D02*
X289000Y248153D01*
X276600Y246756D02*
X287602D01*
X271028Y213744D02*
X276600D01*
X242843Y185559D02*
X271028Y213744D01*
X546300Y273800D02*
X559800D01*
X536444D02*
X546300D01*
X535800Y252156D02*
X559800D01*
Y252200D02*
Y273800D01*
Y252156D02*
Y252200D01*
Y252156D02*
X569500D01*
X535800Y246644D02*
X552900D01*
X569456Y246600D02*
X569500Y246644D01*
X552900Y246600D02*
X569456D01*
X552900Y243446D02*
X555000Y241347D01*
X552900Y243446D02*
Y246600D01*
Y279900D02*
Y282554D01*
X555500Y285154D01*
X569500Y279756D02*
X569500Y279756D01*
X569356Y279900D02*
X569500Y279756D01*
X552900Y279900D02*
X569356D01*
X560244Y274244D02*
X569500D01*
X559800Y273800D02*
X560244Y274244D01*
X546200Y252100D02*
X559800Y252156D01*
X536000Y274244D02*
X536444Y273800D01*
X523300Y227900D02*
X529900Y234500D01*
X545400D01*
X550900Y229000D01*
X568100D01*
X576700Y237600D01*
Y249300D01*
X573844Y252156D02*
X576700Y249300D01*
X569500Y252156D02*
X573844D01*
X548500Y353654D02*
X552700D01*
X557500D01*
X552700Y350900D02*
Y351500D01*
X550400Y348600D02*
X552700Y350900D01*
Y351500D02*
Y353654D01*
Y351500D02*
X555600Y348600D01*
X569500Y279756D02*
Y315344D01*
X569500Y274244D02*
X573644D01*
X576800Y277400D01*
Y317800D01*
X573744Y320856D02*
X576800Y317800D01*
X569500Y320856D02*
X573744D01*
X556944Y315344D02*
X557000Y315400D01*
X536000Y315344D02*
X556944D01*
X545956Y320856D02*
X546200Y321100D01*
X536000Y320856D02*
X545956D01*
X555600Y348600D02*
X555756Y348756D01*
X569500D01*
X536000Y343144D02*
X536444Y342700D01*
X546200D01*
Y321100D02*
X559900D01*
Y342800D01*
X569056D02*
X569500Y343244D01*
X559900Y342800D02*
X569056D01*
X536000Y348656D02*
X536056Y348600D01*
X550400D01*
X546200Y321100D02*
Y342700D01*
X569444Y315400D02*
X569500Y315344D01*
X557000Y315400D02*
X569444D01*
X559900Y321100D02*
X569256D01*
X555600Y309246D02*
Y315300D01*
X490800Y400200D02*
X492000Y399000D01*
X495653D01*
X490870Y406400D02*
X491470Y407000D01*
X495653D01*
X485344Y419000D02*
Y419946D01*
X488370Y422972D01*
X452447Y406400D02*
X457400D01*
X463300Y396000D02*
X485000D01*
Y385844D02*
Y396000D01*
X451847Y407000D02*
X452447Y406400D01*
X490856Y419000D02*
X495653Y414202D01*
Y407000D02*
Y414202D01*
X490856Y385500D02*
X495653Y390298D01*
X457700Y419000D02*
X457744D01*
X451847Y413146D02*
X457700Y419000D01*
X451847Y391498D02*
X457744Y385600D01*
X463256Y380156D02*
Y385600D01*
X446000Y362900D02*
X463256Y380156D01*
X394300Y362900D02*
X446000D01*
X485000Y385844D02*
X485344Y385500D01*
X463256Y385600D02*
X463300Y385644D01*
Y396000D01*
Y409900D01*
X463256Y419000D02*
X463300Y418956D01*
Y409900D02*
Y418956D01*
X485000Y418656D02*
X485344Y419000D01*
X485000Y409900D02*
Y418656D01*
X463300Y409900D02*
X485000D01*
X375100Y382100D02*
X394300Y362900D01*
X375100Y382100D02*
Y395700D01*
X363400Y392044D02*
X369100Y386344D01*
Y395700D01*
X375100D02*
Y409900D01*
Y395700D02*
X396500D01*
Y386044D02*
Y395700D01*
X402200Y385556D02*
X402256Y385500D01*
X402200Y385556D02*
Y399400D01*
X402156Y399444D02*
X402200Y399400D01*
X402156Y399444D02*
Y406400D01*
Y418900D01*
X361410Y391790D02*
X363400D01*
Y392044D01*
X369100Y409900D02*
Y419100D01*
X396644Y418900D02*
X396700Y418844D01*
Y409900D02*
Y418844D01*
X375100Y418844D02*
X375256Y419000D01*
X375100Y409900D02*
Y418844D01*
X349217Y336283D02*
X385244D01*
X354700Y341000D02*
X388400D01*
X359200Y344700D02*
X392900D01*
X363667Y410100D02*
X368788Y404979D01*
X342500Y410100D02*
X363667D01*
X371854Y404979D02*
X375000Y408125D01*
X368788Y404979D02*
X371854D01*
X221000Y279000D02*
X225000Y283000D01*
X663500Y238500D02*
X671900D01*
X673300Y239900D01*
X680800D02*
X696400D01*
X696500Y240000D01*
X352400Y400800D02*
X358900Y394300D01*
X346700Y400800D02*
X352400D01*
X348900Y346800D02*
Y379900D01*
X314400Y414400D02*
X348900Y379900D01*
X279400Y414400D02*
X314400D01*
X343500Y342000D02*
Y374800D01*
X308800Y409500D02*
X343500Y374800D01*
X303000Y409500D02*
X308800D01*
X622500Y300100D02*
Y458400D01*
X639000Y295800D02*
X644844Y289956D01*
Y270600D02*
Y289956D01*
X239347Y450153D02*
X239400Y450100D01*
X239347Y450153D02*
Y457000D01*
X239300Y483600D02*
X239347Y483646D01*
Y490000D01*
Y425746D02*
X239400Y425800D01*
X239347Y420000D02*
Y425746D01*
X132500Y110524D02*
X191019D01*
X125773D02*
X132500D01*
X146747Y132846D02*
X148000D01*
X139700Y125800D02*
X146747Y132846D01*
X139700Y117724D02*
Y125800D01*
X132500Y110524D02*
X139700Y117724D01*
X488370Y422972D02*
X511972D01*
X236700Y212000D02*
X272400Y247700D01*
Y266500D01*
X262800Y295700D02*
Y372200D01*
X221500Y413500D02*
X262800Y372200D01*
X221500Y413500D02*
Y457400D01*
X245100Y481000D01*
X277000D01*
X711100Y145000D02*
Y150044D01*
Y145000D02*
X713900Y142200D01*
X728500D02*
X755600Y169300D01*
Y244600D01*
X385244Y331300D02*
Y336283D01*
X385283D02*
X385800Y336800D01*
X528000Y371500D02*
Y387000D01*
X508900Y352400D02*
X528000Y371500D01*
X342400Y410200D02*
X342500Y410100D01*
X337700Y402500D02*
X353400Y386800D01*
X472200Y239544D02*
X481244Y230500D01*
X497800D01*
X511800Y216500D01*
X523300Y152300D02*
Y227900D01*
X492000Y121000D02*
X523300Y152300D01*
X457600Y248756D02*
X477400D01*
X465800Y239544D02*
X487456Y217888D01*
X399650Y252850D02*
X414446Y267647D01*
X416800Y239400D02*
X430300Y225900D01*
X416600Y239400D02*
X416800D01*
X402144Y224944D02*
X416600Y239400D01*
X618800Y250900D02*
Y258700D01*
X747700Y263679D02*
Y354400D01*
X698800Y468256D02*
X699746D01*
X702772Y465230D01*
X698800Y458044D02*
Y462744D01*
Y468256D02*
X701544Y471000D01*
X713000D01*
X658200Y326200D02*
X700500Y368500D01*
X653000Y321000D02*
X658200Y326200D01*
Y372447D01*
X654947Y375700D02*
X658200Y372447D01*
X651653Y375700D02*
X654947D01*
X648300Y379053D02*
X651653Y375700D01*
X648300Y379053D02*
Y422947D01*
X651053Y425700D01*
X666456D01*
X698800Y458044D01*
X651061Y108661D02*
X739182D01*
X504339D02*
X651061D01*
X657300Y114900D01*
X651300Y119900D02*
X719776D01*
X586500Y120000D02*
X651300D01*
X719776Y119900D02*
X724876Y125000D01*
X747700Y263679D02*
X747950Y263429D01*
Y260571D02*
Y263429D01*
X747700Y260321D02*
X747950Y260571D01*
X747700Y252300D02*
Y260321D01*
X696500Y208500D02*
Y240000D01*
X219756Y279000D02*
X229924Y268831D01*
X247337D01*
X251346Y272842D01*
Y273000D01*
X191019Y110524D02*
X215857D01*
X191019D02*
X213341Y132846D01*
X213500D01*
X128341D02*
X128500D01*
X122178Y126683D02*
X128341Y132846D01*
X122178Y114119D02*
Y126683D01*
Y114119D02*
X125773Y110524D01*
X215857D02*
X223870Y118537D01*
Y124375D01*
X232342Y132846D01*
X232500D01*
X128500D02*
X138000Y142347D01*
Y169653D01*
X137841D02*
X138000D01*
X166569Y168154D02*
X222842D01*
X132020Y175475D02*
X137841Y169653D01*
X132020Y175475D02*
Y188101D01*
X135615Y191696D01*
X143026D01*
X166569Y168154D01*
X216500Y174495D02*
X222842Y168154D01*
X216500Y174495D02*
Y262000D01*
X190500Y236000D02*
X216500Y262000D01*
X157500Y236000D02*
X190500D01*
X151500Y230000D02*
X157500Y236000D01*
X552700Y353654D02*
Y382300D01*
X548000Y387000D02*
X552700Y382300D01*
X165347Y219900D02*
Y220000D01*
X151500D02*
X165347D01*
X165847Y250000D02*
X165900Y249946D01*
X151500Y250000D02*
X165847D01*
X165800Y213647D02*
Y220354D01*
X691312Y255600D02*
X692956Y257244D01*
X681000Y255600D02*
X691312D01*
X660756Y209244D02*
X663000Y207000D01*
X656500Y209244D02*
X660756D01*
X656000Y208744D02*
X656500Y209244D01*
X636000Y208744D02*
X656000D01*
X622400D02*
X636000D01*
X627500Y214756D02*
X645554D01*
X618700Y210700D02*
X627300Y219300D01*
X618700Y206300D02*
Y210700D01*
Y206300D02*
X621654Y203346D01*
X636000D01*
X645554Y214756D02*
X648800Y218002D01*
Y225700D01*
X640900Y149344D02*
X688044D01*
X689700Y151000D01*
X690656Y150044D01*
X711100D01*
X711200Y150144D01*
X719200D01*
X652300Y154800D02*
X652550Y155050D01*
X710594D01*
X711100Y155556D01*
X733756Y155656D02*
X738600Y160500D01*
X718876Y140776D02*
X733756Y155656D01*
X719200D02*
X733756D01*
X719100Y155556D02*
X719200Y155656D01*
X711100Y155556D02*
X719100D01*
X620100Y226500D02*
Y249496D01*
X618800Y250900D02*
X620100Y249600D01*
X623840Y245756D02*
X627000D01*
X620100Y249496D02*
X623840Y245756D01*
X620100Y249496D02*
Y249600D01*
X622779Y256244D02*
X627000D01*
X618800Y260223D02*
X622779Y256244D01*
X620100Y226500D02*
X627300Y219300D01*
X663000Y207000D02*
X663500Y207500D01*
Y238500D01*
X626900Y240144D02*
X627000Y240244D01*
X626900Y233600D02*
Y240144D01*
X747700Y209946D02*
Y252300D01*
X744300Y255700D02*
X747700Y252300D01*
X738600Y160500D02*
X745300Y167200D01*
Y192700D01*
X721746Y197600D02*
X722000Y197346D01*
X700300Y197600D02*
X721746D01*
X702102Y245858D02*
X737606D01*
X744300Y252552D01*
Y255700D01*
X711000Y208744D02*
X729500D01*
X745300Y192700D02*
X747700Y195100D01*
Y209946D01*
X743390Y214256D02*
X747700Y209946D01*
X737500Y214256D02*
X743390D01*
X722000Y197346D02*
X740654D01*
X745300Y192700D01*
X627000Y214356D02*
X627300Y214656D01*
Y219300D01*
X636102Y245858D02*
X656606D01*
X659958D01*
X665700Y251600D01*
X702000Y214256D02*
X702000Y214256D01*
X702000Y214256D02*
Y222200D01*
X631300Y149344D02*
X640900D01*
X621956D02*
X631300D01*
X616300Y155000D02*
X621956Y149344D01*
X631300Y154856D02*
X640900D01*
X652244D01*
X652300Y154800D01*
X358900Y394300D02*
X361410Y391790D01*
X511972Y422972D02*
X569000Y480000D01*
X358900Y351600D02*
Y394300D01*
X356000Y347500D02*
X356400D01*
X353400Y350100D02*
X356000Y347500D01*
X353400Y350100D02*
Y386800D01*
X348900Y346800D02*
X354700Y341000D01*
X276000Y411000D02*
X279400Y414400D01*
X399000Y344244D02*
X404000D01*
X358900Y351600D02*
X362100Y348400D01*
X394900D01*
X399000Y344300D01*
X356400Y347500D02*
X359200Y344700D01*
X392900D02*
X398800Y338800D01*
X415246Y290200D02*
Y322500D01*
X388400Y341000D02*
X396600Y332800D01*
X405105D01*
X415246Y322658D01*
Y322500D02*
Y322658D01*
X385244Y314000D02*
Y331300D01*
X343500Y342000D02*
X349217Y336283D01*
X390756Y281900D02*
Y314000D01*
X398800Y338800D02*
X403844D01*
X481244Y329361D02*
Y337000D01*
Y315900D02*
Y329361D01*
X481247Y329359D01*
Y329200D02*
Y329359D01*
X432353Y267446D02*
X445100D01*
X428558D02*
X432353D01*
X445100D02*
X447453D01*
X456900Y258000D01*
X435700Y252800D02*
Y264100D01*
X432353Y267446D02*
X435700Y264100D01*
X428359Y267647D02*
X428558Y267446D01*
X428200Y267647D02*
X428359D01*
X410046Y275400D02*
X415246Y280600D01*
X397300Y275400D02*
X410046D01*
X414446Y267647D02*
X428200D01*
X398700Y268800D02*
X401700Y265800D01*
X396156Y268800D02*
X398700D01*
X403900Y338744D02*
X404000Y338644D01*
X469600Y254256D02*
X469600Y254256D01*
Y259300D01*
X474453Y284900D02*
X474553Y284800D01*
X456753Y299800D02*
Y329100D01*
X415246Y280600D02*
Y290200D01*
Y280600D02*
X428200Y267647D01*
X445100Y267446D02*
X456753Y279100D01*
Y284900D01*
Y299800D01*
X453200Y344244D02*
X480500D01*
X481244Y253000D02*
Y258100D01*
X429300Y248756D02*
X457600D01*
X405700D02*
X429300D01*
X390756Y250200D02*
Y281900D01*
X392200Y248756D02*
X405700D01*
X403900Y338744D02*
X471500D01*
X441000Y344244D02*
X453200D01*
X390756Y314000D02*
Y331300D01*
X404000Y344244D02*
X441000D01*
X481244Y337000D02*
Y343500D01*
X390756Y250200D02*
X392200Y248756D01*
X477400D02*
X481244Y252600D01*
X480500Y344244D02*
X481244Y343500D01*
X441000Y349756D02*
X453200D01*
X399406D02*
X441000D01*
X385244Y245356D02*
Y277228D01*
X386200Y244500D02*
X387456Y243244D01*
X392200D02*
X405700D01*
X387456D02*
X392200D01*
X405700D02*
X423000D01*
X429300D02*
X454524D01*
X423028D02*
X429300D01*
X455000D02*
X485644D01*
X453200Y349756D02*
X480500D01*
X486756Y337000D02*
Y346944D01*
X485500Y348200D02*
X486756Y346944D01*
X480500Y349756D02*
X483656D01*
X486756Y315900D02*
Y337000D01*
Y275260D02*
Y315900D01*
Y270000D02*
Y275000D01*
Y258100D02*
Y270000D01*
Y254000D02*
Y258100D01*
Y244356D02*
Y253600D01*
X485644Y243244D02*
X486756Y244356D01*
X385244Y278000D02*
Y314000D01*
X492000Y121000D02*
X504339Y108661D01*
X739182D02*
X751371Y120850D01*
X775750D01*
X788700Y133800D01*
X750700Y125000D02*
X753200Y127500D01*
X724876Y125000D02*
X750700D01*
X718876Y131000D02*
X724876Y125000D01*
X718876Y131000D02*
Y140776D01*
X383400Y109600D02*
X404500D01*
X372000Y121000D02*
X383400Y109600D01*
X297341Y248153D02*
X297500D01*
X293332Y252164D02*
X297341Y248153D01*
X293332Y252164D02*
Y262268D01*
X293300Y262300D02*
X293332Y262268D01*
X222400Y362244D02*
Y374000D01*
Y356600D02*
Y356800D01*
Y360844D01*
X225000Y283000D02*
X235000Y293000D01*
Y373500D01*
X208000Y400500D02*
X235000Y373500D01*
X208000Y400500D02*
Y456000D01*
X204000Y274500D02*
X216500Y262000D01*
X185000Y272500D02*
Y343100D01*
X779000Y461000D02*
X783700Y465700D01*
X790947D02*
X792391Y464256D01*
X797500D01*
X783700Y465700D02*
X790947D01*
X798446Y464256D02*
X805548Y457154D01*
X797500Y458744D02*
X805744Y450500D01*
X812346D01*
X819000Y457154D01*
X819853Y456300D01*
X833700D01*
X839000Y451000D01*
X216500Y262000D02*
X258500D01*
X172000Y390500D02*
X187500D01*
X232750Y484000D02*
Y489903D01*
X232653Y490000D02*
X232750Y489903D01*
X268000Y490000D02*
X277000Y481000D01*
X260347Y490000D02*
X268000D01*
X232500Y450000D02*
Y456847D01*
X232653Y457000D01*
X266000D02*
X275000Y448000D01*
X260846Y457000D02*
X266000D01*
X259846Y420000D02*
X267500D01*
X276000Y411500D01*
Y411000D02*
Y411500D01*
X239347Y490000D02*
X253654D01*
X239347Y457000D02*
X254153D01*
X239347Y420000D02*
X253153D01*
X232653Y413654D02*
Y420000D01*
X232500Y413500D02*
X232653Y413654D01*
X141500Y201902D02*
Y210000D01*
Y201902D02*
X157843Y185559D01*
X151500Y230000D02*
Y240000D01*
X137589Y255200D02*
X145411D01*
X150611Y250000D01*
X151500D01*
X695500Y262000D02*
X696256Y262756D01*
X702000D01*
X711000D01*
X702000Y240244D02*
X711000D01*
X696744D02*
X702000D01*
X696500Y240000D02*
X696744Y240244D01*
X743653Y240347D02*
X744000Y240000D01*
X737606Y240347D02*
X743653D01*
X729602D02*
X737606D01*
X729500Y240244D02*
X729602Y240347D01*
X702000Y208744D02*
X711000D01*
X696744D02*
X702000D01*
X696500Y208500D02*
X696744Y208744D01*
X743669D02*
X743957Y208457D01*
X737500Y208744D02*
X743669D01*
X729500D02*
X737500D01*
X627000Y261756D02*
X636000D01*
X627000Y240244D02*
X636000D01*
X661654Y240347D02*
X663500Y238500D01*
X656606Y240347D02*
X661654D01*
X646602D02*
X656606D01*
X646500Y240244D02*
X646602Y240347D01*
X711053Y446300D02*
X719853D01*
X722000Y444153D01*
X495653Y399000D02*
Y407000D01*
X451847Y391498D02*
Y407000D01*
X375100Y409900D02*
X396700D01*
X528000Y402500D02*
Y418000D01*
Y387000D02*
Y402500D01*
X451847Y407000D02*
Y413146D01*
X495653Y390298D02*
Y399000D01*
X663500Y238500D02*
Y239154D01*
X627000Y256244D02*
X636000D01*
X627000Y245756D02*
X636000D01*
X702000Y257244D02*
X711000D01*
X729500Y214256D02*
X737500D01*
X702000D02*
X711000D01*
X729500D01*
X645554Y214756D02*
X656500D01*
X636000Y240244D02*
X646500D01*
X711000D02*
X729500D01*
X636000Y261756D02*
X644844Y270600D01*
X686900D01*
X695500Y262000D01*
X639972Y259270D02*
Y259772D01*
X636000Y256244D02*
X636946D01*
X639972Y259270D01*
Y259772D02*
X647100Y266900D01*
X683300D01*
X692956Y257244D01*
X702000D01*
X622500Y261756D02*
X627000D01*
X700500Y368500D02*
Y384154D01*
X190500Y301900D02*
X190900D01*
X304900Y370500D02*
X308000D01*
X293300Y382100D02*
X304900Y370500D01*
X416200Y254456D02*
Y262800D01*
X416100Y254356D02*
X416200Y254456D01*
X469400Y269856D02*
X481100D01*
X481244Y270000D01*
Y258100D02*
Y270000D01*
Y315900D01*
X469400Y259500D02*
Y264344D01*
Y259500D02*
X469600Y259300D01*
X396356Y302900D02*
Y305556D01*
X403200Y312400D01*
X310500Y481000D02*
X314800D01*
X337700Y458100D01*
Y402500D02*
Y458100D01*
X97500Y480500D02*
Y501500D01*
X118500D01*
X97500Y97500D02*
Y118500D01*
Y97500D02*
X118500D01*
X873000Y481000D02*
Y502000D01*
X852000D02*
X873000D01*
D43*
X839000Y451000D02*
X856000Y434000D01*
Y409000D02*
Y434000D01*
X754400Y409000D02*
X766000D01*
X747700Y402300D02*
X754400Y409000D01*
X548000Y387000D02*
X599300Y335700D01*
X614800D01*
X617050Y333450D01*
X616950Y260550D02*
Y284950D01*
Y260550D02*
X618800Y258700D01*
X617050Y285050D02*
Y333450D01*
X616950Y284950D02*
X617050Y285050D01*
X637900Y305900D02*
X653000Y321000D01*
X616950Y284950D02*
X637900Y305900D01*
X747600Y337300D02*
Y364300D01*
X716200Y305900D02*
X747600Y337300D01*
X637900Y305900D02*
X716200D01*
X747700Y352947D02*
Y402300D01*
X569456Y490700D02*
X574056Y486100D01*
X528000Y418000D02*
X574056Y464056D01*
X548000Y418000D02*
X589000Y459000D01*
Y480000D01*
X548000Y402500D02*
Y418000D01*
Y387000D02*
Y402500D01*
X325700Y493500D02*
X566500D01*
X569300Y490700D01*
X310500Y481000D02*
X313200D01*
X325700Y493500D01*
D45*
X203500Y321900D02*
X207200D01*
X198800Y317200D02*
X203500Y321900D01*
X198800Y309800D02*
Y317200D01*
X207200Y321900D02*
Y332900D01*
X187200Y352900D02*
X207200Y332900D01*
X151700Y352900D02*
X187200D01*
X498200Y191246D02*
X498347Y191100D01*
X498200Y191246D02*
Y206700D01*
X498347Y166954D02*
Y182300D01*
X419846Y192000D02*
Y195400D01*
X419800Y178300D02*
X419846Y178347D01*
Y182900D01*
X362500Y191154D02*
Y196400D01*
X362653Y177800D02*
Y183000D01*
X362500Y191154D02*
X362653Y191000D01*
X561747Y302654D02*
X561900Y302500D01*
X557000Y302654D02*
X561747D01*
X531100Y240000D02*
Y286100D01*
X569256Y321100D02*
X569500Y320856D01*
X445154Y394200D02*
Y398500D01*
Y407000D02*
Y412000D01*
X502347Y407000D02*
Y411800D01*
X396500Y386044D02*
X397044Y385500D01*
X361000Y324800D02*
X361200Y324600D01*
X355300Y324800D02*
X361000D01*
X355000Y325100D02*
X355300Y324800D01*
X403844Y338800D02*
X403900Y338744D01*
X476505Y334100D02*
X481244Y329361D01*
X469300Y334100D02*
X476505D01*
X463447Y284900D02*
X474453D01*
X463447Y299800D02*
X474553D01*
X463547Y329200D02*
X474553D01*
X474800Y285047D02*
Y290200D01*
Y323000D02*
Y328954D01*
X474553Y284800D02*
X474800Y285047D01*
X474553Y299800D02*
X474600Y299847D01*
Y305800D01*
X555500Y291846D02*
X561846D01*
X555154Y234500D02*
X561900D01*
X557500Y360347D02*
X562847D01*
X542500Y360000D02*
X548153D01*
X502347Y393000D02*
Y399000D01*
X190900Y301900D02*
X198800Y309800D01*
D46*
X671046Y255300D02*
X672500Y253847D01*
X667100Y255300D02*
X671046D01*
X636154Y196500D02*
X641700D01*
X555000Y234653D02*
X555154Y234500D01*
X562847Y360347D02*
X563000Y360500D01*
X548153Y360000D02*
X548500Y360347D01*
X713000Y451000D02*
X721846D01*
X722000Y450846D01*
X700654Y391000D02*
X713000D01*
X700500Y390846D02*
X700654Y391000D01*
X722000Y190654D02*
X728346D01*
X728500Y190500D01*
X721153Y256000D02*
X729500D01*
X721000Y256153D02*
X721153Y256000D01*
X636000Y196653D02*
X636154Y196500D01*
D47*
X161000Y475000D02*
X182400D01*
D48*
X194900Y475100D02*
D03*
X335300Y383300D02*
D03*
Y392900D02*
D03*
X348700Y392300D02*
D03*
X182500Y487600D02*
D03*
X195000D02*
D03*
X182400Y475000D02*
D03*
X161000Y435000D02*
D03*
X151000Y455000D02*
D03*
X161000Y475000D02*
D03*
X151000Y485000D02*
D03*
D49*
X111700Y352900D02*
D03*
X121700D02*
D03*
X131700D02*
D03*
X141700D02*
D03*
X302000Y121000D02*
D03*
X312000D02*
D03*
X322000D02*
D03*
X332000D02*
D03*
X342000D02*
D03*
X352000D02*
D03*
X362000D02*
D03*
X382000D02*
D03*
X392000D02*
D03*
X402000D02*
D03*
X412000D02*
D03*
X422000D02*
D03*
X432000D02*
D03*
X442000D02*
D03*
X452000D02*
D03*
X462000D02*
D03*
X472000D02*
D03*
X482000D02*
D03*
X492000D02*
D03*
X502000D02*
D03*
X579000Y480000D02*
D03*
X569000D02*
D03*
X559000D02*
D03*
X549000D02*
D03*
X539000D02*
D03*
X529000D02*
D03*
X519000D02*
D03*
X499000D02*
D03*
X489000D02*
D03*
X479000D02*
D03*
X469000D02*
D03*
X459000D02*
D03*
X449000D02*
D03*
X439000D02*
D03*
X429000D02*
D03*
X419000D02*
D03*
X409000D02*
D03*
X399000D02*
D03*
X389000D02*
D03*
X379000D02*
D03*
X167900Y302000D02*
D03*
X538000Y387000D02*
D03*
X528000D02*
D03*
X538000Y418000D02*
D03*
X528000D02*
D03*
X190500Y311900D02*
D03*
Y301900D02*
D03*
X538000Y402500D02*
D03*
X528000D02*
D03*
X207200Y321900D02*
D03*
Y311900D02*
D03*
D50*
X151700Y352900D02*
D03*
X292000Y121000D02*
D03*
X589000Y480000D02*
D03*
X548000Y387000D02*
D03*
Y418000D02*
D03*
Y402500D02*
D03*
D51*
X329600Y485800D02*
D03*
X359300D02*
D03*
X349600Y455800D02*
D03*
X339300Y465500D02*
D03*
X329600Y455800D02*
D03*
X111000Y435000D02*
D03*
Y475000D02*
D03*
D52*
X839000Y471000D02*
D03*
Y461000D02*
D03*
Y451000D02*
D03*
X829000Y461000D02*
D03*
Y451000D02*
D03*
X839000Y441000D02*
D03*
X829000D02*
D03*
X819000D02*
D03*
X809000D02*
D03*
X799000D02*
D03*
X829000Y431000D02*
D03*
X819000D02*
D03*
X809000D02*
D03*
X799000D02*
D03*
X829000Y471000D02*
D03*
X819000D02*
D03*
X809000D02*
D03*
X799000D02*
D03*
X829000Y481000D02*
D03*
X819000D02*
D03*
X809000D02*
D03*
X799000D02*
D03*
X789000D02*
D03*
Y431000D02*
D03*
X779000Y441000D02*
D03*
X789000D02*
D03*
Y471000D02*
D03*
X779000D02*
D03*
Y461000D02*
D03*
X789000Y451000D02*
D03*
X779000D02*
D03*
X789000Y461000D02*
D03*
X653000D02*
D03*
Y451000D02*
D03*
Y441000D02*
D03*
Y431000D02*
D03*
Y421000D02*
D03*
Y411000D02*
D03*
Y401000D02*
D03*
Y391000D02*
D03*
Y381000D02*
D03*
Y371000D02*
D03*
Y361000D02*
D03*
Y351000D02*
D03*
Y341000D02*
D03*
Y331000D02*
D03*
Y321000D02*
D03*
X713000D02*
D03*
Y331000D02*
D03*
Y341000D02*
D03*
Y351000D02*
D03*
Y361000D02*
D03*
Y371000D02*
D03*
Y381000D02*
D03*
Y391000D02*
D03*
Y401000D02*
D03*
Y411000D02*
D03*
Y421000D02*
D03*
Y431000D02*
D03*
Y441000D02*
D03*
Y451000D02*
D03*
Y461000D02*
D03*
Y471000D02*
D03*
X308000Y370500D02*
D03*
X298000D02*
D03*
X288000D02*
D03*
Y340500D02*
D03*
X298000D02*
D03*
X308000D02*
D03*
X318000D02*
D03*
D53*
X653000Y471000D02*
D03*
D54*
X151500Y250000D02*
D03*
X141500Y240000D02*
D03*
X151500D02*
D03*
X141500Y230000D02*
D03*
X151500D02*
D03*
X141500Y220000D02*
D03*
Y210000D02*
D03*
X151500D02*
D03*
Y220000D02*
D03*
X334000Y350500D02*
D03*
D55*
X141500Y250000D02*
D03*
X334000Y360500D02*
D03*
D56*
X266071Y158000D02*
D03*
X199929D02*
D03*
X114929D02*
D03*
X181071D02*
D03*
D57*
X242843Y185559D02*
D03*
X223157D02*
D03*
X252685Y116661D02*
D03*
X233000D02*
D03*
X213315D02*
D03*
X128315D02*
D03*
X148000D02*
D03*
X167685D02*
D03*
X138157Y185559D02*
D03*
X157843D02*
D03*
D58*
X372000Y121000D02*
D03*
X509000Y480000D02*
D03*
D59*
X151000Y425000D02*
D03*
D60*
X318000Y370500D02*
D03*
D61*
X167900Y312000D02*
D03*
X190500Y321900D02*
D03*
X207200Y301900D02*
D03*
D62*
X128000Y292000D02*
D03*
Y332000D02*
D03*
D63*
X148000Y302000D02*
D03*
Y312000D02*
D03*
D64*
X856000Y389000D02*
D03*
X846000D02*
D03*
X836000D02*
D03*
X826000D02*
D03*
X816000D02*
D03*
X806000D02*
D03*
X766000D02*
D03*
X776000D02*
D03*
X786000D02*
D03*
X796000D02*
D03*
Y379000D02*
D03*
X786000D02*
D03*
X776000D02*
D03*
X766000D02*
D03*
X806000D02*
D03*
X816000D02*
D03*
X826000D02*
D03*
X836000D02*
D03*
X846000D02*
D03*
X856000D02*
D03*
Y399000D02*
D03*
X846000D02*
D03*
X836000D02*
D03*
X826000D02*
D03*
X816000D02*
D03*
X806000D02*
D03*
X766000D02*
D03*
X776000D02*
D03*
X786000D02*
D03*
X796000D02*
D03*
Y409000D02*
D03*
X786000D02*
D03*
X776000D02*
D03*
X766000D02*
D03*
X806000D02*
D03*
X816000D02*
D03*
X826000D02*
D03*
X836000D02*
D03*
X846000D02*
D03*
X856000D02*
D03*
Y329000D02*
D03*
X846000D02*
D03*
X836000D02*
D03*
X826000D02*
D03*
X816000D02*
D03*
X806000D02*
D03*
X766000D02*
D03*
X776000D02*
D03*
X786000D02*
D03*
X796000D02*
D03*
Y319000D02*
D03*
X786000D02*
D03*
X776000D02*
D03*
X766000D02*
D03*
X806000D02*
D03*
X816000D02*
D03*
X826000D02*
D03*
X836000D02*
D03*
X846000D02*
D03*
X856000D02*
D03*
Y299000D02*
D03*
X846000D02*
D03*
X836000D02*
D03*
X826000D02*
D03*
X816000D02*
D03*
X806000D02*
D03*
X766000D02*
D03*
X776000D02*
D03*
X786000D02*
D03*
X796000D02*
D03*
Y309000D02*
D03*
X786000D02*
D03*
X776000D02*
D03*
X766000D02*
D03*
X806000D02*
D03*
X816000D02*
D03*
X826000D02*
D03*
X836000D02*
D03*
X846000D02*
D03*
X856000D02*
D03*
Y349000D02*
D03*
X846000D02*
D03*
X836000D02*
D03*
X826000D02*
D03*
X816000D02*
D03*
X806000D02*
D03*
X766000D02*
D03*
X776000D02*
D03*
X786000D02*
D03*
X796000D02*
D03*
Y339000D02*
D03*
X786000D02*
D03*
X776000D02*
D03*
X766000D02*
D03*
X806000D02*
D03*
X816000D02*
D03*
X826000D02*
D03*
X836000D02*
D03*
X846000D02*
D03*
X856000D02*
D03*
Y359000D02*
D03*
X846000D02*
D03*
X836000D02*
D03*
X826000D02*
D03*
X816000D02*
D03*
X806000D02*
D03*
X766000D02*
D03*
X776000D02*
D03*
X786000D02*
D03*
X796000D02*
D03*
Y369000D02*
D03*
X786000D02*
D03*
X776000D02*
D03*
X766000D02*
D03*
X806000D02*
D03*
X816000D02*
D03*
X826000D02*
D03*
X836000D02*
D03*
X846000D02*
D03*
X856000D02*
D03*
Y209000D02*
D03*
X846000D02*
D03*
X836000D02*
D03*
X826000D02*
D03*
X816000D02*
D03*
X806000D02*
D03*
X766000D02*
D03*
X776000D02*
D03*
X786000D02*
D03*
X796000D02*
D03*
Y199000D02*
D03*
X786000D02*
D03*
X776000D02*
D03*
X766000D02*
D03*
X806000D02*
D03*
X816000D02*
D03*
X826000D02*
D03*
X836000D02*
D03*
X846000D02*
D03*
X856000D02*
D03*
Y179000D02*
D03*
X846000D02*
D03*
X836000D02*
D03*
X826000D02*
D03*
X816000D02*
D03*
X806000D02*
D03*
X766000D02*
D03*
X776000D02*
D03*
X786000D02*
D03*
X796000D02*
D03*
Y189000D02*
D03*
X786000D02*
D03*
X776000D02*
D03*
X766000D02*
D03*
X806000D02*
D03*
X816000D02*
D03*
X826000D02*
D03*
X836000D02*
D03*
X846000D02*
D03*
X856000D02*
D03*
Y149000D02*
D03*
X846000D02*
D03*
X836000D02*
D03*
X826000D02*
D03*
X816000D02*
D03*
X806000D02*
D03*
X766000D02*
D03*
X776000D02*
D03*
X786000D02*
D03*
X796000D02*
D03*
X856000Y159000D02*
D03*
X846000D02*
D03*
X836000D02*
D03*
X826000D02*
D03*
X816000D02*
D03*
X806000D02*
D03*
X766000D02*
D03*
X776000D02*
D03*
X786000D02*
D03*
X796000D02*
D03*
Y169000D02*
D03*
X786000D02*
D03*
X776000D02*
D03*
X766000D02*
D03*
X806000D02*
D03*
X816000D02*
D03*
X826000D02*
D03*
X836000D02*
D03*
X846000D02*
D03*
X856000D02*
D03*
Y249000D02*
D03*
X846000D02*
D03*
X836000D02*
D03*
X826000D02*
D03*
X816000D02*
D03*
X806000D02*
D03*
X766000D02*
D03*
X776000D02*
D03*
X786000D02*
D03*
X796000D02*
D03*
Y239000D02*
D03*
X786000D02*
D03*
X776000D02*
D03*
X766000D02*
D03*
X806000D02*
D03*
X816000D02*
D03*
X826000D02*
D03*
X836000D02*
D03*
X846000D02*
D03*
X856000D02*
D03*
Y219000D02*
D03*
X846000D02*
D03*
X836000D02*
D03*
X826000D02*
D03*
X816000D02*
D03*
X806000D02*
D03*
X766000D02*
D03*
X776000D02*
D03*
X786000D02*
D03*
X796000D02*
D03*
Y229000D02*
D03*
X786000D02*
D03*
X776000D02*
D03*
X766000D02*
D03*
X806000D02*
D03*
X816000D02*
D03*
X826000D02*
D03*
X836000D02*
D03*
X846000D02*
D03*
X856000D02*
D03*
Y269000D02*
D03*
X846000D02*
D03*
X836000D02*
D03*
X826000D02*
D03*
X816000D02*
D03*
X806000D02*
D03*
X766000D02*
D03*
X776000D02*
D03*
X786000D02*
D03*
X796000D02*
D03*
Y259000D02*
D03*
X786000D02*
D03*
X776000D02*
D03*
X766000D02*
D03*
X806000D02*
D03*
X816000D02*
D03*
X826000D02*
D03*
X836000D02*
D03*
X846000D02*
D03*
X856000D02*
D03*
Y279000D02*
D03*
X846000D02*
D03*
X836000D02*
D03*
X826000D02*
D03*
X816000D02*
D03*
X806000D02*
D03*
X766000D02*
D03*
X776000D02*
D03*
X786000D02*
D03*
X796000D02*
D03*
Y289000D02*
D03*
X786000D02*
D03*
X776000D02*
D03*
X766000D02*
D03*
X806000D02*
D03*
X816000D02*
D03*
X826000D02*
D03*
X836000D02*
D03*
X846000D02*
D03*
X856000D02*
D03*
D65*
X621500Y477600D02*
D03*
X193500Y211500D02*
D03*
X139500Y379500D02*
D03*
X852500Y116500D02*
D03*
D66*
X229800Y308100D02*
D03*
X196000Y464300D02*
D03*
X218547Y343400D02*
D03*
X231800Y281800D02*
D03*
X616300Y126400D02*
D03*
X587200Y150600D02*
D03*
X611300Y133900D02*
D03*
X687900Y421000D02*
D03*
X629700Y352500D02*
D03*
X638800Y409300D02*
D03*
X661500Y395200D02*
D03*
X460200Y193700D02*
D03*
X487500Y210300D02*
D03*
X454744Y191000D02*
D03*
X487456Y161700D02*
D03*
X481800Y165600D02*
D03*
X460200D02*
D03*
X455100Y161700D02*
D03*
X479200Y213000D02*
D03*
X419846Y195400D02*
D03*
X419800Y178300D02*
D03*
X380500Y193400D02*
D03*
X402100Y193300D02*
D03*
X402144Y179400D02*
D03*
X380435D02*
D03*
X407556Y182900D02*
D03*
X374800D02*
D03*
X299400Y219256D02*
D03*
X286500Y219300D02*
D03*
X286700Y241300D02*
D03*
X299400Y241200D02*
D03*
X293300Y243100D02*
D03*
Y213700D02*
D03*
X546300Y273800D02*
D03*
X559800Y252200D02*
D03*
X552900Y279900D02*
D03*
Y246600D02*
D03*
X559800Y273800D02*
D03*
X546200Y252100D02*
D03*
X531100Y286100D02*
D03*
X555600Y348600D02*
D03*
X550400Y315344D02*
D03*
X546200Y342700D02*
D03*
Y321100D02*
D03*
X559900D02*
D03*
X595000Y310600D02*
D03*
X597400Y313800D02*
D03*
X600000Y316800D02*
D03*
X602500Y319700D02*
D03*
X605000Y322700D02*
D03*
X607500Y325600D02*
D03*
X610000Y328300D02*
D03*
X612600Y330900D02*
D03*
X445200Y411900D02*
D03*
X485000Y396000D02*
D03*
X490800Y400200D02*
D03*
X457400Y406400D02*
D03*
X490870D02*
D03*
X463300Y409900D02*
D03*
X485000D02*
D03*
X463300Y396000D02*
D03*
X402200Y399400D02*
D03*
X396500Y395700D02*
D03*
X402156Y406400D02*
D03*
X396700Y409900D02*
D03*
X369100D02*
D03*
X673300Y239900D02*
D03*
X680800D02*
D03*
X325150Y403650D02*
D03*
X486800Y320000D02*
D03*
X198800Y460600D02*
D03*
X622500Y458400D02*
D03*
Y300100D02*
D03*
X639000Y295800D02*
D03*
X239400Y450100D02*
D03*
X239300Y483600D02*
D03*
X239400Y425800D02*
D03*
X355000Y325100D02*
D03*
X361200Y324600D02*
D03*
X236700Y212000D02*
D03*
X272400Y266500D02*
D03*
X262800Y295700D02*
D03*
X713900Y142200D02*
D03*
X728500D02*
D03*
X755600Y244600D02*
D03*
X741800Y269900D02*
D03*
X747700Y224100D02*
D03*
X385800Y336800D02*
D03*
X508900Y352400D02*
D03*
X500400Y228000D02*
D03*
X342400Y410200D02*
D03*
X472200Y239544D02*
D03*
X511800Y216500D02*
D03*
X523300Y227900D02*
D03*
X465800Y239544D02*
D03*
X406900Y260200D02*
D03*
X416800Y239400D02*
D03*
X417100Y413600D02*
D03*
X417000Y396300D02*
D03*
X657300Y114900D02*
D03*
X651300Y120000D02*
D03*
X561700Y129700D02*
D03*
X196900Y380700D02*
D03*
X194100Y390400D02*
D03*
X245600Y360700D02*
D03*
X248100Y365600D02*
D03*
X243000Y365700D02*
D03*
X681000Y255600D02*
D03*
X622400Y208600D02*
D03*
X648800Y225700D02*
D03*
X623675Y250800D02*
D03*
X700300Y197600D02*
D03*
X744300Y255700D02*
D03*
X745300Y192700D02*
D03*
X641700Y196500D02*
D03*
X627300Y219300D02*
D03*
X620100Y249600D02*
D03*
X665700Y251600D02*
D03*
X667100Y255300D02*
D03*
X702000Y222200D02*
D03*
X616300Y155000D02*
D03*
X652300Y154800D02*
D03*
X421300Y371300D02*
D03*
X417122Y371522D02*
D03*
X413463Y371763D02*
D03*
X403343Y369343D02*
D03*
X398500Y374825D02*
D03*
X346700Y400800D02*
D03*
X360100Y341100D02*
D03*
X394500Y297000D02*
D03*
X398800Y338800D02*
D03*
X415300Y316200D02*
D03*
X456753Y322400D02*
D03*
X469300Y334100D02*
D03*
X456900Y308200D02*
D03*
X456400Y278500D02*
D03*
X456900Y258000D02*
D03*
X435700Y252800D02*
D03*
X397300Y275400D02*
D03*
X399650Y252850D02*
D03*
X469600Y259300D02*
D03*
X401700Y265800D02*
D03*
X481200Y306800D02*
D03*
X481300Y290900D02*
D03*
X474800Y290200D02*
D03*
X481300Y262600D02*
D03*
X481200Y274700D02*
D03*
X486800Y245200D02*
D03*
X481200Y253000D02*
D03*
X463800Y248700D02*
D03*
X451000Y248800D02*
D03*
X451800Y243100D02*
D03*
X442300Y248800D02*
D03*
X433900D02*
D03*
X411217Y248783D02*
D03*
X464500Y344300D02*
D03*
X475600Y349800D02*
D03*
X475800Y344200D02*
D03*
X446300Y344400D02*
D03*
X390791Y273291D02*
D03*
X390800Y264200D02*
D03*
X401400Y248700D02*
D03*
X390700Y309200D02*
D03*
X380800Y331400D02*
D03*
X390700Y326700D02*
D03*
X399000Y344300D02*
D03*
X415200D02*
D03*
X424996Y344204D02*
D03*
X432870Y344330D02*
D03*
X436807Y344207D02*
D03*
X403504Y322504D02*
D03*
X428200Y254700D02*
D03*
X445100Y254600D02*
D03*
X474800Y323000D02*
D03*
X474600Y305800D02*
D03*
X399406Y349794D02*
D03*
X385267Y318567D02*
D03*
X385228Y277228D02*
D03*
X385200Y255500D02*
D03*
X386200Y244500D02*
D03*
X400200Y243200D02*
D03*
X423028Y243072D02*
D03*
X481600Y243300D02*
D03*
X415154Y349654D02*
D03*
X447600Y349800D02*
D03*
X458461Y349761D02*
D03*
X484700Y348700D02*
D03*
X486811Y342189D02*
D03*
X486800Y274400D02*
D03*
Y263200D02*
D03*
X752800Y117400D02*
D03*
X788700Y133800D02*
D03*
X753200Y127500D02*
D03*
X718876Y131000D02*
D03*
X738600Y160500D02*
D03*
X689700Y151000D02*
D03*
X314800Y490500D02*
D03*
X404500Y109600D02*
D03*
X293300Y262300D02*
D03*
X238000Y283000D02*
D03*
X225000D02*
D03*
X243000Y279000D02*
D03*
X247000D02*
D03*
X222400Y374000D02*
D03*
Y356800D02*
D03*
X193400Y460600D02*
D03*
X258500Y262000D02*
D03*
X204000Y279513D02*
D03*
X185000Y272500D02*
D03*
Y343100D02*
D03*
X597000Y355000D02*
D03*
X600500Y467000D02*
D03*
X597000D02*
D03*
X604000D02*
D03*
X627500Y431000D02*
D03*
X627000Y427000D02*
D03*
X634000Y430000D02*
D03*
X638500Y430500D02*
D03*
X615000Y243000D02*
D03*
Y233654D02*
D03*
Y202157D02*
D03*
Y249402D02*
D03*
Y227354D02*
D03*
Y217906D02*
D03*
Y211606D02*
D03*
Y195858D02*
D03*
X600500Y350000D02*
D03*
X604000Y342500D02*
D03*
X617240Y183260D02*
D03*
X614890Y179610D02*
D03*
X697500Y190000D02*
D03*
X699760Y183260D02*
D03*
X697390Y179610D02*
D03*
X700000Y174000D02*
D03*
X706500Y168500D02*
D03*
X701500Y166000D02*
D03*
X697500Y160000D02*
D03*
X730260Y183260D02*
D03*
X730039Y176961D02*
D03*
X727689Y173811D02*
D03*
X730161Y170661D02*
D03*
X727512Y167512D02*
D03*
X647500Y160000D02*
D03*
X645000Y164500D02*
D03*
X618500Y190000D02*
D03*
X620500Y174500D02*
D03*
X616500Y162100D02*
D03*
X627000Y169650D02*
D03*
X621150Y166850D02*
D03*
X667100Y259600D02*
D03*
X677000Y262000D02*
D03*
X744500D02*
D03*
X540000Y197500D02*
D03*
Y187500D02*
D03*
Y182500D02*
D03*
Y177500D02*
D03*
Y172500D02*
D03*
Y192500D02*
D03*
Y202500D02*
D03*
Y167500D02*
D03*
Y222500D02*
D03*
Y217500D02*
D03*
X647500Y172000D02*
D03*
X645039Y176961D02*
D03*
X645500Y185000D02*
D03*
X540000Y212500D02*
D03*
Y207500D02*
D03*
Y227000D02*
D03*
X498400Y166900D02*
D03*
X498200Y206700D02*
D03*
X443600Y206500D02*
D03*
X443300Y166400D02*
D03*
X760500Y126500D02*
D03*
X764500D02*
D03*
X730000Y131000D02*
D03*
X733000Y128500D02*
D03*
X454000Y222000D02*
D03*
X458500D02*
D03*
X755500Y104500D02*
D03*
X520000Y319000D02*
D03*
X515100Y287500D02*
D03*
X513800Y284200D02*
D03*
X394900Y378000D02*
D03*
X371000Y150500D02*
D03*
X367000Y150000D02*
D03*
X367500Y154000D02*
D03*
X363000Y153500D02*
D03*
X363500Y157500D02*
D03*
X359500Y157000D02*
D03*
X388000Y159000D02*
D03*
X252000Y265500D02*
D03*
X513000Y309000D02*
D03*
X515500Y305000D02*
D03*
X509000Y311000D02*
D03*
X353000Y328500D02*
D03*
X378000D02*
D03*
X355000Y311500D02*
D03*
X287400Y282200D02*
D03*
X378500Y306000D02*
D03*
X379000Y309500D02*
D03*
X347500Y332500D02*
D03*
X331250Y310000D02*
D03*
X378500Y302500D02*
D03*
X323000Y337500D02*
D03*
X342500Y335000D02*
D03*
X379000Y313000D02*
D03*
X237500Y234000D02*
D03*
Y230000D02*
D03*
Y226000D02*
D03*
Y222500D02*
D03*
X359500Y302500D02*
D03*
X378500Y292000D02*
D03*
X357000Y299500D02*
D03*
X351500Y293500D02*
D03*
X354500Y296000D02*
D03*
X187500Y390500D02*
D03*
X172000D02*
D03*
X232750Y484000D02*
D03*
X277000Y481000D02*
D03*
X232500Y450000D02*
D03*
X275000Y448000D02*
D03*
X276000Y411000D02*
D03*
X232500Y413500D02*
D03*
X310500Y481000D02*
D03*
X303000Y409500D02*
D03*
X302000Y254800D02*
D03*
X284400Y254900D02*
D03*
X561846Y291846D02*
D03*
X561900Y234500D02*
D03*
X563000Y360500D02*
D03*
X542500Y360000D02*
D03*
X561900Y302600D02*
D03*
X559900Y342800D02*
D03*
X375100Y409900D02*
D03*
X502300Y393000D02*
D03*
Y411800D02*
D03*
X445100Y394200D02*
D03*
X362600Y196400D02*
D03*
Y177800D02*
D03*
X695500Y262000D02*
D03*
X696500Y240000D02*
D03*
X744000D02*
D03*
X696500Y208500D02*
D03*
X743957Y208457D02*
D03*
X728500Y190500D02*
D03*
X729500Y256000D02*
D03*
X626900Y233600D02*
D03*
X663500Y238500D02*
D03*
X663000Y207000D02*
D03*
X557000Y315400D02*
D03*
X375100Y395700D02*
D03*
X369100D02*
D03*
X531100Y240000D02*
D03*
X622500Y261756D02*
D03*
X293300Y382100D02*
D03*
X416200Y262800D02*
D03*
X403200Y312400D02*
D03*
D67*
X627000Y256244D02*
D03*
X653000Y321000D02*
D03*
X700500Y384154D02*
D03*
X653000Y321000D02*
D03*
D68*
X569300Y490700D02*
X569456D01*
X574056Y464056D02*
Y486100D01*
M02*
