%FSLAX25Y25*%
%MOIN*%
G70*
G01*
G75*
G04 Layer_Physical_Order=2*
G04 Layer_Color=16711680*
%ADD10R,0.03937X0.03543*%
%ADD11R,0.03543X0.03150*%
%ADD12R,0.03543X0.03937*%
%ADD13R,0.03150X0.06299*%
%ADD14R,0.02200X0.07800*%
%ADD15R,0.01400X0.06600*%
%ADD16O,0.01600X0.08000*%
%ADD17O,0.02400X0.08000*%
%ADD18R,0.02200X0.05000*%
%ADD19R,0.05118X0.08661*%
%ADD20R,0.01400X0.07100*%
%ADD21O,0.08000X0.01600*%
%ADD22O,0.07874X0.01969*%
%ADD23O,0.10000X0.01181*%
%ADD24O,0.01181X0.10000*%
%ADD25R,0.05118X0.09449*%
%ADD26R,0.09449X0.05118*%
%ADD27R,0.06299X0.06299*%
%ADD28R,0.09800X0.03700*%
%ADD29R,0.25700X0.26400*%
%ADD30R,0.01181X0.04724*%
%ADD31O,0.01181X0.04724*%
%ADD32R,0.05906X0.09055*%
%ADD33R,0.09055X0.09055*%
%ADD34R,0.05118X0.05906*%
%ADD35R,0.10630X0.05118*%
%ADD36R,0.03150X0.03543*%
%ADD37C,0.03000*%
%ADD38C,0.00800*%
%ADD39C,0.01500*%
%ADD40C,0.01000*%
%ADD41C,0.10000*%
%ADD42C,0.05000*%
%ADD43C,0.07000*%
%ADD44C,0.08000*%
%ADD45C,0.06000*%
%ADD46R,0.06000X0.06000*%
%ADD47R,0.09843X0.09843*%
%ADD48C,0.07874*%
%ADD49R,0.05906X0.05906*%
%ADD50C,0.05906*%
%ADD51O,0.05945X0.05906*%
%ADD52C,0.07000*%
%ADD53R,0.08000X0.08000*%
%ADD54R,0.05000X0.05000*%
%ADD55C,0.05000*%
%ADD56R,0.05906X0.05906*%
%ADD57R,0.05000X0.05000*%
%ADD58C,0.11000*%
%ADD59C,0.05500*%
%ADD60C,0.06500*%
%ADD61C,0.14000*%
%ADD62C,0.02500*%
%ADD63C,0.03000*%
%ADD64C,0.02000*%
G36*
X255000Y368200D02*
X255100Y368100D01*
Y278600D01*
X249303D01*
X248986Y278987D01*
X248988Y279000D01*
X248837Y279761D01*
X248406Y280406D01*
X247761Y280837D01*
X247000Y280988D01*
X246239Y280837D01*
X245594Y280406D01*
X245250Y279891D01*
X244750D01*
X244406Y280406D01*
X244122Y280596D01*
Y283331D01*
X247125D01*
Y288668D01*
X242182D01*
Y285102D01*
X241964Y284776D01*
X241878Y284347D01*
X241879Y284346D01*
Y280596D01*
X241594Y280406D01*
X241163Y279761D01*
X241012Y279000D01*
X241015Y278987D01*
X240697Y278600D01*
X240031D01*
Y280472D01*
X239122D01*
Y281404D01*
X239406Y281594D01*
X239837Y282239D01*
X239988Y283000D01*
X239837Y283761D01*
X239406Y284406D01*
X238761Y284837D01*
X238000Y284988D01*
X237239Y284837D01*
X236594Y284406D01*
X236163Y283761D01*
X236012Y283000D01*
X236163Y282239D01*
X236594Y281594D01*
X236878Y281404D01*
Y280472D01*
X235481D01*
Y278600D01*
X234819D01*
Y280772D01*
X232744D01*
Y278000D01*
X231744D01*
Y280772D01*
X229669D01*
Y278600D01*
X224426D01*
X224234Y279062D01*
X226586Y281414D01*
X226586Y281414D01*
X226586Y281414D01*
X236586Y291414D01*
X237072Y292142D01*
X237243Y293000D01*
X237243Y293000D01*
X237243Y293000D01*
Y293000D01*
Y373500D01*
X237243Y373500D01*
X237243Y373500D01*
Y373500D01*
X237243D01*
X237243Y373500D01*
X237072Y374358D01*
X236586Y375086D01*
X210243Y401429D01*
Y411600D01*
X211600D01*
X255000Y368200D01*
D02*
G37*
G36*
X205757Y400500D02*
X205928Y399642D01*
X206414Y398914D01*
X206414Y398914D01*
X206414D01*
Y398914D01*
X206414Y398914D01*
X232757Y372571D01*
Y313352D01*
X232316Y313116D01*
X232311Y313119D01*
X231550Y313271D01*
X230789Y313119D01*
X230144Y312688D01*
X229713Y312043D01*
X229562Y311282D01*
X229713Y310522D01*
X230144Y309877D01*
X230429Y309687D01*
Y307259D01*
X228641Y305472D01*
X225481D01*
Y300528D01*
X230031D01*
Y303689D01*
X232064Y305722D01*
X232562Y305673D01*
X232757Y305380D01*
Y293929D01*
X223414Y284586D01*
X220299Y281472D01*
X217481D01*
Y278600D01*
X216819D01*
Y281772D01*
X214744D01*
Y279000D01*
X213744D01*
Y281772D01*
X211669D01*
Y278600D01*
X206243D01*
Y281500D01*
X206072Y282358D01*
X205586Y283086D01*
X204858Y283572D01*
X204763Y283591D01*
X204761Y283593D01*
X204000Y283744D01*
X203239Y283593D01*
X203237Y283591D01*
X203142Y283572D01*
X202414Y283086D01*
X201928Y282358D01*
X201757Y281500D01*
Y277957D01*
X192600Y268800D01*
X100554D01*
X100200Y269154D01*
X100300Y411600D01*
X205757D01*
Y400500D01*
D02*
G37*
G36*
X594999Y146760D02*
X595304Y146362D01*
X595748Y146022D01*
X596926Y144861D01*
X597025Y144763D01*
X601800D01*
Y112598D01*
X601700Y112500D01*
X557731D01*
Y112696D01*
X544899Y125346D01*
X544899Y125739D01*
X544899Y125739D01*
X544899Y125739D01*
Y152902D01*
X544899Y152902D01*
X544899Y152902D01*
X544939Y153000D01*
X588669D01*
X594999Y146760D01*
D02*
G37*
G36*
X318500Y495100D02*
Y490865D01*
X311863Y484228D01*
X310500D01*
X309665Y484118D01*
X308886Y483795D01*
X308218Y483282D01*
X307705Y482614D01*
X307382Y481835D01*
X307272Y481000D01*
X307382Y480165D01*
X307705Y479386D01*
X308218Y478718D01*
X308886Y478205D01*
X309665Y477882D01*
X310500Y477772D01*
X310555D01*
X318500Y469828D01*
Y414125D01*
X318038Y413934D01*
X315986Y415986D01*
X315258Y416472D01*
X314400Y416643D01*
X279400D01*
X278542Y416472D01*
X277814Y415986D01*
X276250Y414422D01*
X269086Y421586D01*
X268358Y422072D01*
X267500Y422243D01*
X262318D01*
Y422669D01*
X257375D01*
Y417332D01*
X262318D01*
Y417757D01*
X266571D01*
X273864Y410464D01*
X273928Y410142D01*
X274414Y409414D01*
X275142Y408928D01*
X276000Y408757D01*
X276858Y408928D01*
X277586Y409414D01*
X277586Y409414D01*
X277586Y409414D01*
X280329Y412157D01*
X302530D01*
X302579Y411659D01*
X302142Y411572D01*
X301414Y411086D01*
X300928Y410358D01*
X300757Y409500D01*
X300928Y408642D01*
X301414Y407914D01*
X302142Y407428D01*
X303000Y407257D01*
X307871D01*
X318500Y396628D01*
Y377400D01*
X260772D01*
X223743Y414429D01*
Y456471D01*
X246029Y478757D01*
X277000D01*
X277858Y478928D01*
X278586Y479414D01*
X279072Y480142D01*
X279243Y481000D01*
X279072Y481858D01*
X278586Y482586D01*
X269586Y491586D01*
X268858Y492072D01*
X268000Y492243D01*
X262818D01*
Y492668D01*
X257875D01*
Y487331D01*
X262818D01*
Y487757D01*
X267071D01*
X271123Y483705D01*
X270931Y483243D01*
X245100D01*
X244242Y483072D01*
X243514Y482586D01*
X219914Y458986D01*
X219428Y458258D01*
X219257Y457400D01*
Y413500D01*
X219428Y412642D01*
X219914Y411914D01*
X219914Y411914D01*
X219914D01*
Y411914D01*
X219914Y411914D01*
X253966Y377862D01*
X253774Y377400D01*
X250300D01*
X250100Y377200D01*
X212100Y415200D01*
X101600D01*
X100900Y415900D01*
Y495500D01*
X318100D01*
X318500Y495100D01*
D02*
G37*
%LPC*%
G36*
X221744Y305772D02*
X219669D01*
Y303500D01*
X221744D01*
Y305772D01*
D02*
G37*
G36*
X224819D02*
X222744D01*
Y303500D01*
X224819D01*
Y305772D01*
D02*
G37*
G36*
X148500Y305716D02*
Y302500D01*
X151716D01*
X151654Y302979D01*
X151276Y303891D01*
X150674Y304675D01*
X149891Y305276D01*
X148979Y305654D01*
X148500Y305716D01*
D02*
G37*
G36*
X170500Y305921D02*
X169968Y305851D01*
X169007Y305453D01*
X168181Y304819D01*
X167547Y303993D01*
X167149Y303032D01*
X167079Y302500D01*
X170500D01*
Y305921D01*
D02*
G37*
G36*
X171500D02*
Y302500D01*
X174921D01*
X174851Y303032D01*
X174453Y303993D01*
X173819Y304819D01*
X172993Y305453D01*
X172032Y305851D01*
X171500Y305921D01*
D02*
G37*
G36*
X203653Y325653D02*
X196347D01*
Y318347D01*
X203653D01*
Y325653D01*
D02*
G37*
G36*
X128000Y338230D02*
X126785Y338110D01*
X125616Y337756D01*
X124539Y337180D01*
X123595Y336405D01*
X122820Y335461D01*
X122244Y334384D01*
X121890Y333215D01*
X121770Y332000D01*
X121890Y330785D01*
X122244Y329616D01*
X122820Y328539D01*
X123595Y327595D01*
X124539Y326820D01*
X125616Y326244D01*
X126785Y325890D01*
X128000Y325770D01*
X129215Y325890D01*
X130384Y326244D01*
X131461Y326820D01*
X132405Y327595D01*
X133180Y328539D01*
X133756Y329616D01*
X134110Y330785D01*
X134230Y332000D01*
X134110Y333215D01*
X133756Y334384D01*
X133180Y335461D01*
X132405Y336405D01*
X131461Y337180D01*
X130384Y337756D01*
X129215Y338110D01*
X128000Y338230D01*
D02*
G37*
G36*
X222400Y376243D02*
X221542Y376072D01*
X220814Y375586D01*
X220328Y374858D01*
X220157Y374000D01*
Y362244D01*
X220169Y362182D01*
Y360906D01*
X220157Y360844D01*
Y356800D01*
Y356600D01*
X220328Y355742D01*
X220814Y355014D01*
X221542Y354528D01*
X222400Y354357D01*
X223258Y354528D01*
X223986Y355014D01*
X224472Y355742D01*
X224643Y356600D01*
Y356800D01*
Y358528D01*
X224719D01*
Y363472D01*
X224643D01*
Y374000D01*
X224472Y374858D01*
X223986Y375586D01*
X223258Y376072D01*
X222400Y376243D01*
D02*
G37*
G36*
X200000Y315684D02*
X199046Y315559D01*
X198158Y315191D01*
X197395Y314605D01*
X196809Y313842D01*
X196441Y312954D01*
X196316Y312000D01*
X196441Y311046D01*
X196809Y310158D01*
X197395Y309395D01*
X198158Y308809D01*
X199046Y308441D01*
X200000Y308316D01*
X200954Y308441D01*
X201842Y308809D01*
X202605Y309395D01*
X203191Y310158D01*
X203559Y311046D01*
X203684Y312000D01*
X203559Y312954D01*
X203191Y313842D01*
X202605Y314605D01*
X201842Y315191D01*
X200954Y315559D01*
X200000Y315684D01*
D02*
G37*
G36*
X174653Y315653D02*
X167347D01*
Y308347D01*
X174653D01*
Y315653D01*
D02*
G37*
G36*
X148000Y315480D02*
X147099Y315361D01*
X146260Y315014D01*
X145539Y314461D01*
X144986Y313740D01*
X144639Y312901D01*
X144520Y312000D01*
X144639Y311099D01*
X144986Y310260D01*
X145539Y309539D01*
X146260Y308986D01*
X147099Y308639D01*
X148000Y308520D01*
X148901Y308639D01*
X149740Y308986D01*
X150461Y309539D01*
X151014Y310260D01*
X151361Y311099D01*
X151480Y312000D01*
X151361Y312901D01*
X151014Y313740D01*
X150461Y314461D01*
X149740Y315014D01*
X148901Y315361D01*
X148000Y315480D01*
D02*
G37*
G36*
X147500Y305716D02*
X147021Y305654D01*
X146109Y305276D01*
X145326Y304675D01*
X144724Y303891D01*
X144346Y302979D01*
X144283Y302500D01*
X147500D01*
Y305716D01*
D02*
G37*
G36*
X128000Y298230D02*
X126785Y298110D01*
X125616Y297756D01*
X124539Y297180D01*
X123595Y296405D01*
X122820Y295461D01*
X122244Y294384D01*
X121890Y293215D01*
X121770Y292000D01*
X121890Y290785D01*
X122244Y289616D01*
X122820Y288539D01*
X123595Y287595D01*
X124539Y286820D01*
X125616Y286244D01*
X126785Y285890D01*
X128000Y285770D01*
X129215Y285890D01*
X130384Y286244D01*
X131461Y286820D01*
X132405Y287595D01*
X133180Y288539D01*
X133756Y289616D01*
X134110Y290785D01*
X134230Y292000D01*
X134110Y293215D01*
X133756Y294384D01*
X133180Y295461D01*
X132405Y296405D01*
X131461Y297180D01*
X130384Y297756D01*
X129215Y298110D01*
X128000Y298230D01*
D02*
G37*
G36*
X250847Y288968D02*
X248575D01*
Y286500D01*
X250847D01*
Y288968D01*
D02*
G37*
G36*
X254118D02*
X251847D01*
Y286500D01*
X254118D01*
Y288968D01*
D02*
G37*
G36*
X185000Y358243D02*
X184142Y358072D01*
X183414Y357586D01*
X182928Y356858D01*
X182757Y356000D01*
Y272500D01*
X182928Y271642D01*
X183414Y270914D01*
X184142Y270428D01*
X185000Y270257D01*
X185858Y270428D01*
X186586Y270914D01*
X187072Y271642D01*
X187243Y272500D01*
Y356000D01*
X187072Y356858D01*
X186586Y357586D01*
X185858Y358072D01*
X185000Y358243D01*
D02*
G37*
G36*
X250847Y285500D02*
X248575D01*
Y283032D01*
X250847D01*
Y285500D01*
D02*
G37*
G36*
X254118D02*
X251847D01*
Y283032D01*
X254118D01*
Y285500D01*
D02*
G37*
G36*
X170500Y301500D02*
X167079D01*
X167149Y300968D01*
X167547Y300007D01*
X168181Y299181D01*
X169007Y298547D01*
X169968Y298149D01*
X170500Y298079D01*
Y301500D01*
D02*
G37*
G36*
X200000Y305684D02*
X199046Y305559D01*
X198158Y305191D01*
X197395Y304605D01*
X196809Y303842D01*
X196441Y302954D01*
X196316Y302000D01*
X196441Y301046D01*
X196809Y300158D01*
X197395Y299395D01*
X198158Y298809D01*
X199046Y298441D01*
X200000Y298316D01*
X200954Y298441D01*
X201842Y298809D01*
X202605Y299395D01*
X203191Y300158D01*
X203559Y301046D01*
X203684Y302000D01*
X203559Y302954D01*
X203191Y303842D01*
X202605Y304605D01*
X201842Y305191D01*
X200954Y305559D01*
X200000Y305684D01*
D02*
G37*
G36*
X221744Y302500D02*
X219669D01*
Y300228D01*
X221744D01*
Y302500D01*
D02*
G37*
G36*
X224819D02*
X222744D01*
Y300228D01*
X224819D01*
Y302500D01*
D02*
G37*
G36*
X174921Y301500D02*
X171500D01*
Y298079D01*
X172032Y298149D01*
X172993Y298547D01*
X173819Y299181D01*
X174453Y300007D01*
X174851Y300968D01*
X174921Y301500D01*
D02*
G37*
G36*
X147500D02*
X144283D01*
X144346Y301021D01*
X144724Y300109D01*
X145326Y299325D01*
X146109Y298724D01*
X147021Y298346D01*
X147500Y298284D01*
Y301500D01*
D02*
G37*
G36*
X151716D02*
X148500D01*
Y298284D01*
X148979Y298346D01*
X149891Y298724D01*
X150674Y299325D01*
X151276Y300109D01*
X151654Y301021D01*
X151716Y301500D01*
D02*
G37*
G36*
X155977Y484500D02*
X151500D01*
Y480023D01*
X152305Y480129D01*
X153522Y480632D01*
X154566Y481434D01*
X155368Y482478D01*
X155871Y483695D01*
X155977Y484500D01*
D02*
G37*
G36*
X235125Y492668D02*
X230182D01*
Y487331D01*
X230507D01*
Y484000D01*
X230678Y483142D01*
X231164Y482414D01*
X231892Y481928D01*
X232750Y481757D01*
X233608Y481928D01*
X234336Y482414D01*
X234822Y483142D01*
X234993Y484000D01*
Y487331D01*
X235125D01*
Y492668D01*
D02*
G37*
G36*
X189400Y486600D02*
X184923D01*
X185029Y485795D01*
X185532Y484578D01*
X186334Y483534D01*
X187378Y482732D01*
X188595Y482229D01*
X189400Y482123D01*
Y486600D01*
D02*
G37*
G36*
X150500Y484500D02*
X146023D01*
X146129Y483695D01*
X146633Y482478D01*
X147434Y481434D01*
X148478Y480632D01*
X149695Y480129D01*
X150500Y480023D01*
Y484500D01*
D02*
G37*
G36*
X256625Y459668D02*
X251682D01*
Y459243D01*
X241818D01*
Y459668D01*
X236875D01*
Y454331D01*
X237103D01*
Y450153D01*
X237274Y449295D01*
X237760Y448567D01*
X237760Y448567D01*
X237760D01*
Y448567D01*
X237760Y448567D01*
X237814Y448514D01*
X238542Y448028D01*
X239400Y447857D01*
X240258Y448028D01*
X240986Y448514D01*
X241472Y449242D01*
X241643Y450100D01*
X241590Y450369D01*
Y454331D01*
X241818D01*
Y454757D01*
X251682D01*
Y454331D01*
X256625D01*
Y459668D01*
D02*
G37*
G36*
X111000Y479236D02*
X109904Y479092D01*
X108882Y478669D01*
X108004Y477995D01*
X107331Y477118D01*
X106908Y476096D01*
X106764Y475000D01*
X106908Y473904D01*
X107331Y472882D01*
X108004Y472005D01*
X108882Y471331D01*
X109904Y470908D01*
X111000Y470764D01*
X112096Y470908D01*
X113118Y471331D01*
X113996Y472005D01*
X114669Y472882D01*
X115092Y473904D01*
X115236Y475000D01*
X115092Y476096D01*
X114669Y477118D01*
X113996Y477995D01*
X113118Y478669D01*
X112096Y479092D01*
X111000Y479236D01*
D02*
G37*
G36*
X202700Y480041D02*
X201473Y479879D01*
X200330Y479405D01*
X200109Y479236D01*
X163055D01*
X162227Y479579D01*
X161000Y479741D01*
X159773Y479579D01*
X158630Y479106D01*
X157648Y478352D01*
X156895Y477370D01*
X156421Y476227D01*
X156259Y475000D01*
X156421Y473773D01*
X156895Y472630D01*
X157648Y471648D01*
X158630Y470894D01*
X159773Y470421D01*
X161000Y470259D01*
X162227Y470421D01*
X163055Y470764D01*
X201370D01*
X201473Y470721D01*
X202700Y470559D01*
X203927Y470721D01*
X204030Y470764D01*
X214845D01*
X219904Y465704D01*
X220782Y465031D01*
X221804Y464608D01*
X222900Y464464D01*
X223996Y464608D01*
X225018Y465031D01*
X225896Y465704D01*
X226569Y466582D01*
X226992Y467604D01*
X227136Y468700D01*
X226992Y469796D01*
X226569Y470818D01*
X225896Y471696D01*
X219596Y477995D01*
X218718Y478669D01*
X217696Y479092D01*
X216600Y479236D01*
X205291D01*
X205070Y479405D01*
X203927Y479879D01*
X202700Y480041D01*
D02*
G37*
G36*
X189400Y492077D02*
X188595Y491971D01*
X187378Y491468D01*
X186334Y490666D01*
X185532Y489622D01*
X185029Y488405D01*
X184923Y487600D01*
X189400D01*
Y492077D01*
D02*
G37*
G36*
X190400D02*
Y487600D01*
X194877D01*
X194771Y488405D01*
X194267Y489622D01*
X193466Y490666D01*
X192422Y491468D01*
X191205Y491971D01*
X190400Y492077D01*
D02*
G37*
G36*
X256125Y492668D02*
X251182D01*
Y492243D01*
X241818D01*
Y492668D01*
X236875D01*
Y487331D01*
X237103D01*
Y483834D01*
X237057Y483600D01*
X237228Y482742D01*
X237714Y482014D01*
X238442Y481528D01*
X239300Y481357D01*
X240158Y481528D01*
X240886Y482014D01*
X240933Y482060D01*
X240933Y482060D01*
X240933Y482060D01*
X241419Y482788D01*
X241590Y483646D01*
Y487331D01*
X241818D01*
Y487757D01*
X251182D01*
Y487331D01*
X256125D01*
Y492668D01*
D02*
G37*
G36*
X151500Y489977D02*
Y485500D01*
X155977D01*
X155871Y486305D01*
X155368Y487522D01*
X154566Y488566D01*
X153522Y489367D01*
X152305Y489871D01*
X151500Y489977D01*
D02*
G37*
G36*
X194877Y486600D02*
X190400D01*
Y482123D01*
X191205Y482229D01*
X192422Y482732D01*
X193466Y483534D01*
X194267Y484578D01*
X194771Y485795D01*
X194877Y486600D01*
D02*
G37*
G36*
X202400Y491841D02*
X201173Y491679D01*
X200030Y491206D01*
X199048Y490452D01*
X198295Y489470D01*
X197821Y488327D01*
X197659Y487100D01*
X197821Y485873D01*
X198295Y484730D01*
X199048Y483748D01*
X200030Y482995D01*
X201173Y482521D01*
X202400Y482359D01*
X203627Y482521D01*
X204770Y482995D01*
X205752Y483748D01*
X206505Y484730D01*
X206979Y485873D01*
X207141Y487100D01*
X206979Y488327D01*
X206505Y489470D01*
X205752Y490452D01*
X204770Y491206D01*
X203627Y491679D01*
X202400Y491841D01*
D02*
G37*
G36*
X150500Y489977D02*
X149695Y489871D01*
X148478Y489367D01*
X147434Y488566D01*
X146633Y487522D01*
X146129Y486305D01*
X146023Y485500D01*
X150500D01*
Y489977D01*
D02*
G37*
G36*
X139500Y387237D02*
X137990Y387089D01*
X136539Y386648D01*
X135201Y385933D01*
X134029Y384971D01*
X133067Y383799D01*
X132352Y382461D01*
X131911Y381010D01*
X131763Y379500D01*
X131911Y377991D01*
X132352Y376539D01*
X133067Y375201D01*
X134029Y374029D01*
X135201Y373067D01*
X136539Y372352D01*
X137990Y371911D01*
X139500Y371763D01*
X141009Y371911D01*
X142461Y372352D01*
X143799Y373067D01*
X144971Y374029D01*
X145933Y375201D01*
X146648Y376539D01*
X147089Y377991D01*
X147237Y379500D01*
X147089Y381010D01*
X146648Y382461D01*
X145933Y383799D01*
X144971Y384971D01*
X143799Y385933D01*
X142461Y386648D01*
X141009Y387089D01*
X139500Y387237D01*
D02*
G37*
G36*
X187500Y392743D02*
X172000D01*
X171142Y392572D01*
X170414Y392086D01*
X169928Y391358D01*
X169757Y390500D01*
X169928Y389642D01*
X170414Y388914D01*
X171142Y388428D01*
X172000Y388257D01*
X187500D01*
X188358Y388428D01*
X189086Y388914D01*
X189572Y389642D01*
X189743Y390500D01*
X189572Y391358D01*
X189086Y392086D01*
X188358Y392572D01*
X187500Y392743D01*
D02*
G37*
G36*
X235125Y422669D02*
X230182D01*
Y417332D01*
X230410D01*
Y414272D01*
X230257Y413500D01*
X230428Y412642D01*
X230914Y411914D01*
X231642Y411428D01*
X232500Y411257D01*
X233358Y411428D01*
X234086Y411914D01*
X234240Y412067D01*
X234726Y412795D01*
X234897Y413654D01*
Y417332D01*
X235125D01*
Y422669D01*
D02*
G37*
G36*
X230531Y363772D02*
X228456D01*
Y361500D01*
X230531D01*
Y363772D01*
D02*
G37*
G36*
X227456Y360500D02*
X225381D01*
Y358228D01*
X227456D01*
Y360500D01*
D02*
G37*
G36*
X230531D02*
X228456D01*
Y358228D01*
X230531D01*
Y360500D01*
D02*
G37*
G36*
X227456Y363772D02*
X225381D01*
Y361500D01*
X227456D01*
Y363772D01*
D02*
G37*
G36*
X263318Y459668D02*
X258375D01*
Y454331D01*
X263318D01*
Y454757D01*
X265071D01*
X273414Y446414D01*
X274142Y445928D01*
X275000Y445757D01*
X275858Y445928D01*
X276586Y446414D01*
X277072Y447142D01*
X277243Y448000D01*
X277072Y448858D01*
X276586Y449586D01*
X267586Y458586D01*
X266858Y459072D01*
X266000Y459243D01*
X263318D01*
Y459668D01*
D02*
G37*
G36*
X235125D02*
X230182D01*
Y454331D01*
X230257D01*
Y450000D01*
X230428Y449142D01*
X230914Y448414D01*
X231642Y447928D01*
X232500Y447757D01*
X233358Y447928D01*
X234086Y448414D01*
X234572Y449142D01*
X234743Y450000D01*
Y454331D01*
X235125D01*
Y459668D01*
D02*
G37*
G36*
X151000Y459741D02*
X149773Y459579D01*
X148630Y459105D01*
X147648Y458352D01*
X146895Y457370D01*
X146421Y456227D01*
X146259Y455000D01*
X146421Y453773D01*
X146895Y452630D01*
X147648Y451648D01*
X148630Y450894D01*
X149773Y450421D01*
X151000Y450259D01*
X152227Y450421D01*
X153370Y450894D01*
X154352Y451648D01*
X155105Y452630D01*
X155579Y453773D01*
X155741Y455000D01*
X155579Y456227D01*
X155105Y457370D01*
X154352Y458352D01*
X153370Y459105D01*
X152227Y459579D01*
X151000Y459741D01*
D02*
G37*
G36*
X111000Y439236D02*
X109904Y439092D01*
X108882Y438669D01*
X108004Y437995D01*
X107331Y437118D01*
X106908Y436096D01*
X106764Y435000D01*
X106908Y433904D01*
X107331Y432882D01*
X108004Y432004D01*
X108882Y431331D01*
X109904Y430908D01*
X111000Y430764D01*
X112096Y430908D01*
X113118Y431331D01*
X113996Y432004D01*
X114669Y432882D01*
X115092Y433904D01*
X115236Y435000D01*
X115092Y436096D01*
X114669Y437118D01*
X113996Y437995D01*
X113118Y438669D01*
X112096Y439092D01*
X111000Y439236D01*
D02*
G37*
G36*
X239400Y428043D02*
X238542Y427872D01*
X237814Y427386D01*
X237760Y427333D01*
X237274Y426605D01*
X237103Y425746D01*
Y422669D01*
X236875D01*
Y417332D01*
X241818D01*
Y417757D01*
X250682D01*
Y417332D01*
X255625D01*
Y422669D01*
X250682D01*
Y422243D01*
X241818D01*
Y422669D01*
X241590D01*
Y425531D01*
X241643Y425800D01*
X241472Y426658D01*
X240986Y427386D01*
X240258Y427872D01*
X239400Y428043D01*
D02*
G37*
G36*
X155700Y429700D02*
X146300D01*
Y420300D01*
X155700D01*
Y429700D01*
D02*
G37*
G36*
X161000Y439741D02*
X159773Y439579D01*
X158630Y439106D01*
X157648Y438352D01*
X156895Y437370D01*
X156421Y436227D01*
X156259Y435000D01*
X156421Y433773D01*
X156895Y432630D01*
X157648Y431648D01*
X158630Y430895D01*
X159773Y430421D01*
X161000Y430259D01*
X162227Y430421D01*
X163370Y430895D01*
X164352Y431648D01*
X165105Y432630D01*
X165579Y433773D01*
X165741Y435000D01*
X165579Y436227D01*
X165105Y437370D01*
X164352Y438352D01*
X163370Y439106D01*
X162227Y439579D01*
X161000Y439741D01*
D02*
G37*
%LPD*%
D10*
X808000Y457154D02*
D03*
Y463846D02*
D03*
X819000Y457154D02*
D03*
Y463846D02*
D03*
X722000Y444153D02*
D03*
Y450846D02*
D03*
X700500Y384154D02*
D03*
Y390846D02*
D03*
X557000Y302654D02*
D03*
Y309347D02*
D03*
X555500Y285154D02*
D03*
Y291846D02*
D03*
X213500Y132846D02*
D03*
Y126154D02*
D03*
X232500Y132846D02*
D03*
Y126154D02*
D03*
X223000Y168154D02*
D03*
Y174846D02*
D03*
X428200Y267647D02*
D03*
Y260953D02*
D03*
X445100Y267446D02*
D03*
Y260753D02*
D03*
X165800Y213647D02*
D03*
Y206954D02*
D03*
Y220354D02*
D03*
Y227046D02*
D03*
X165900Y249946D02*
D03*
Y243253D02*
D03*
X297500Y254847D02*
D03*
Y248153D02*
D03*
X289000Y254847D02*
D03*
Y248153D02*
D03*
X555000Y241347D02*
D03*
Y234653D02*
D03*
X557500Y360347D02*
D03*
Y353654D02*
D03*
X548500Y360347D02*
D03*
Y353654D02*
D03*
X700500Y447847D02*
D03*
Y441153D02*
D03*
X128500Y132846D02*
D03*
Y126154D02*
D03*
X148000Y132846D02*
D03*
Y126154D02*
D03*
X138000Y169653D02*
D03*
Y176347D02*
D03*
X721000Y262846D02*
D03*
Y256153D02*
D03*
X672500Y247153D02*
D03*
Y253847D02*
D03*
X722000Y190654D02*
D03*
Y197346D02*
D03*
X636000Y196653D02*
D03*
Y203346D02*
D03*
D11*
X469600Y248744D02*
D03*
Y254256D02*
D03*
X420000Y344244D02*
D03*
Y349756D02*
D03*
X410300Y344156D02*
D03*
Y338644D02*
D03*
X404000Y344244D02*
D03*
Y349756D02*
D03*
X453200Y344244D02*
D03*
Y349756D02*
D03*
X441000Y344244D02*
D03*
Y349756D02*
D03*
X480500Y344244D02*
D03*
Y349756D02*
D03*
X477400Y248756D02*
D03*
Y243244D02*
D03*
X457600Y248756D02*
D03*
Y243244D02*
D03*
X429300Y248756D02*
D03*
Y243244D02*
D03*
X405700Y248756D02*
D03*
Y243244D02*
D03*
X392200Y248756D02*
D03*
Y243244D02*
D03*
X797500Y458744D02*
D03*
Y464256D02*
D03*
X698800Y462744D02*
D03*
Y468256D02*
D03*
X537000Y350756D02*
D03*
Y345244D02*
D03*
X569000Y350756D02*
D03*
Y345244D02*
D03*
X537000Y312244D02*
D03*
Y317756D02*
D03*
X569000Y312244D02*
D03*
Y317756D02*
D03*
X537000Y282756D02*
D03*
Y277244D02*
D03*
X569000Y282256D02*
D03*
Y276744D02*
D03*
X537000Y244244D02*
D03*
Y249756D02*
D03*
X569000Y244244D02*
D03*
Y249756D02*
D03*
X277500Y245456D02*
D03*
Y239944D02*
D03*
X309400Y245456D02*
D03*
Y239944D02*
D03*
X277600Y206844D02*
D03*
Y212356D02*
D03*
X309500Y206744D02*
D03*
Y212256D02*
D03*
X471500Y344256D02*
D03*
Y338744D02*
D03*
X737606Y245858D02*
D03*
Y240347D02*
D03*
X729500Y245756D02*
D03*
Y240244D02*
D03*
X737500Y214256D02*
D03*
Y208744D02*
D03*
X729500Y214256D02*
D03*
Y208744D02*
D03*
X711100Y155556D02*
D03*
Y150044D02*
D03*
X719200Y155656D02*
D03*
Y150144D02*
D03*
X702000Y214256D02*
D03*
Y208744D02*
D03*
X711000Y214256D02*
D03*
Y208744D02*
D03*
X702000Y245756D02*
D03*
Y240244D02*
D03*
X711000Y245756D02*
D03*
Y240244D02*
D03*
X656606Y245858D02*
D03*
Y240347D02*
D03*
X646500Y245756D02*
D03*
Y240244D02*
D03*
X702000Y257244D02*
D03*
Y262756D02*
D03*
X711000Y257244D02*
D03*
Y262756D02*
D03*
X656500Y214756D02*
D03*
Y209244D02*
D03*
X646500Y214556D02*
D03*
Y209044D02*
D03*
X631300Y154856D02*
D03*
Y149344D02*
D03*
X640900Y154856D02*
D03*
Y149344D02*
D03*
X627000Y214356D02*
D03*
Y208844D02*
D03*
X636000Y214256D02*
D03*
Y208744D02*
D03*
X627000Y245756D02*
D03*
Y240244D02*
D03*
X636000Y245756D02*
D03*
Y240244D02*
D03*
X627000Y256244D02*
D03*
Y261756D02*
D03*
X636000Y256244D02*
D03*
Y261756D02*
D03*
D12*
X456753Y299800D02*
D03*
X463447D02*
D03*
X445154Y407000D02*
D03*
X451847D02*
D03*
X502347D02*
D03*
X495653D02*
D03*
X502347Y399000D02*
D03*
X495653D02*
D03*
X251346Y273000D02*
D03*
X244654D02*
D03*
X251346Y286000D02*
D03*
X244654D02*
D03*
X498347Y190000D02*
D03*
X491653D02*
D03*
X498347Y182000D02*
D03*
X491653D02*
D03*
X443653Y192000D02*
D03*
X450347D02*
D03*
X443553Y182800D02*
D03*
X450246D02*
D03*
X456753Y284900D02*
D03*
X463447D02*
D03*
X415246Y322500D02*
D03*
X408554D02*
D03*
X419846Y192700D02*
D03*
X413154D02*
D03*
X419846Y182900D02*
D03*
X413154D02*
D03*
X362653Y191000D02*
D03*
X369346D02*
D03*
X362653Y183000D02*
D03*
X369346D02*
D03*
X445154Y398500D02*
D03*
X451847D02*
D03*
X260347Y490000D02*
D03*
X253654D02*
D03*
X239347D02*
D03*
X232653D02*
D03*
X415246Y290200D02*
D03*
X408554D02*
D03*
X390754D02*
D03*
X397446D02*
D03*
X481247Y299800D02*
D03*
X474553D02*
D03*
X481247Y284800D02*
D03*
X474553D02*
D03*
X390754Y321900D02*
D03*
X397446D02*
D03*
X456853Y329200D02*
D03*
X463547D02*
D03*
X481247D02*
D03*
X474553D02*
D03*
X260846Y457000D02*
D03*
X254153D02*
D03*
X239347D02*
D03*
X232653D02*
D03*
X259846Y420000D02*
D03*
X253153D02*
D03*
X239347D02*
D03*
X232653D02*
D03*
D36*
X390744Y268700D02*
D03*
X396256D02*
D03*
X390756Y259600D02*
D03*
X385244D02*
D03*
X390756Y281900D02*
D03*
X385244D02*
D03*
X390756Y331300D02*
D03*
X385244D02*
D03*
X390756Y314000D02*
D03*
X385244D02*
D03*
X481244Y337000D02*
D03*
X486756D02*
D03*
X481244Y315900D02*
D03*
X486756D02*
D03*
X481244Y270000D02*
D03*
X486756D02*
D03*
X481244Y258100D02*
D03*
X486756D02*
D03*
X369744Y387000D02*
D03*
X375256D02*
D03*
X369744Y419000D02*
D03*
X375256D02*
D03*
X407756Y419000D02*
D03*
X402244D02*
D03*
X407756Y387000D02*
D03*
X402244D02*
D03*
X492756Y419000D02*
D03*
X487244D02*
D03*
X454744Y419000D02*
D03*
X460256D02*
D03*
X492756Y387000D02*
D03*
X487244D02*
D03*
X452244Y202000D02*
D03*
X457756D02*
D03*
X490756Y202000D02*
D03*
X485244D02*
D03*
X490256Y172387D02*
D03*
X484744D02*
D03*
X452244Y172000D02*
D03*
X457756D02*
D03*
X410256Y171000D02*
D03*
X404744D02*
D03*
X372244D02*
D03*
X377756D02*
D03*
X372744Y203000D02*
D03*
X378256D02*
D03*
X410256Y203000D02*
D03*
X404744D02*
D03*
X454744Y387000D02*
D03*
X460256D02*
D03*
X214244Y279000D02*
D03*
X219756D02*
D03*
X232244Y278000D02*
D03*
X237756D02*
D03*
X222244Y303000D02*
D03*
X227756D02*
D03*
X227956Y361000D02*
D03*
X222444D02*
D03*
D37*
X663500Y238500D02*
X671900D01*
X673300Y239900D01*
X680800D02*
X696400D01*
X696500Y240000D01*
X542000Y345000D02*
X564000D01*
X542000Y344600D02*
Y345000D01*
Y317500D02*
Y344600D01*
X484400Y196900D02*
X485244Y197744D01*
X484400Y196800D02*
Y196900D01*
X457500Y162000D02*
Y171744D01*
X352400Y400800D02*
X358900Y394300D01*
X346700Y400800D02*
X352400D01*
X348900Y346800D02*
Y379900D01*
X314400Y414400D02*
X348900Y379900D01*
X279400Y414400D02*
X314400D01*
X343500Y342000D02*
Y374800D01*
X308800Y409500D02*
X343500Y374800D01*
X303000Y409500D02*
X308800D01*
X622500Y300100D02*
Y458400D01*
X639000Y295800D02*
X644844Y289956D01*
Y270600D02*
Y289956D01*
X239347Y450153D02*
X239400Y450100D01*
X239347Y450153D02*
Y457000D01*
X239300Y483600D02*
X239347Y483646D01*
Y490000D01*
Y425746D02*
X239400Y425800D01*
X239347Y420000D02*
Y425746D01*
X132500Y110524D02*
X191019D01*
X125773D02*
X132500D01*
X146747Y132846D02*
X148000D01*
X139700Y125800D02*
X146747Y132846D01*
X139700Y117724D02*
Y125800D01*
X132500Y110524D02*
X139700Y117724D01*
X354700Y341000D02*
X388400D01*
X506000Y428700D02*
X507100Y429800D01*
X490270Y422972D02*
X511972D01*
X487244Y419946D02*
X490270Y422972D01*
X609000Y127400D02*
X609100Y127500D01*
X236700Y212000D02*
X272400Y247700D01*
Y266500D01*
X262800Y295700D02*
Y372200D01*
X221500Y413500D02*
X262800Y372200D01*
X221500Y413500D02*
Y457400D01*
X245100Y481000D01*
X277000D01*
X711100Y145000D02*
Y150044D01*
Y145000D02*
X713900Y142200D01*
X728500D02*
X755600Y169300D01*
Y244600D01*
X734747Y262846D02*
X741800Y269900D01*
X721000Y262846D02*
X734747D01*
X349217Y336283D02*
X385244D01*
Y331300D02*
Y336283D01*
X385283D02*
X385800Y336800D01*
X357179Y206700D02*
X366535Y197344D01*
X305900Y206700D02*
X357179D01*
X304200Y205000D02*
X305900Y206700D01*
X366535Y197344D02*
X372744D01*
X538656Y312244D02*
X542100Y308800D01*
X537000Y312244D02*
X538656D01*
X342400Y410200D02*
X342500Y410100D01*
X310500Y481000D02*
X337700Y453800D01*
Y402500D02*
Y453800D01*
Y402500D02*
X353400Y386800D01*
X375000Y392000D02*
Y413246D01*
X342500Y410100D02*
X371854D01*
X375000Y413246D01*
Y414000D01*
X375256Y387000D02*
X378000D01*
X402100Y362900D01*
X437102D01*
X402244Y391744D02*
X402500Y392000D01*
X437102Y362900D02*
X460256Y386054D01*
Y387000D01*
X523300Y227900D02*
X526050Y230650D01*
X535883D01*
X545700Y240467D01*
Y243533D01*
X542000Y247233D02*
X545700Y243533D01*
X542000Y247233D02*
Y249500D01*
X472200Y239544D02*
X481244Y230500D01*
X497800D01*
X511800Y216500D01*
X523300Y152300D02*
Y227900D01*
X492000Y121000D02*
X523300Y152300D01*
X457600Y248756D02*
X477400D01*
X465800Y239544D02*
X477500Y227844D01*
Y198100D02*
Y227844D01*
X399650Y252850D02*
X414446Y267647D01*
X416800Y239400D02*
X430300Y225900D01*
X416600Y239400D02*
X416800D01*
X404744Y227544D02*
X416600Y239400D01*
X404744Y203000D02*
Y227544D01*
X430300Y225900D02*
X462000D01*
X461950Y225850D02*
X462000Y225900D01*
X461950Y220571D02*
Y225850D01*
X457756Y216377D02*
X461950Y220571D01*
X457756Y202000D02*
Y216377D01*
X450347Y192000D02*
Y200102D01*
X413154Y192700D02*
Y197346D01*
Y176854D02*
Y192700D01*
X618800Y250900D02*
Y258700D01*
X747700Y263679D02*
Y354400D01*
X698800Y468256D02*
X699746D01*
X702772Y456783D02*
Y465230D01*
X700500Y454511D02*
X702772Y456783D01*
X699746Y468256D02*
X702772Y465230D01*
X700500Y447847D02*
Y454511D01*
X698800Y458044D02*
Y462744D01*
Y468256D02*
X701544Y471000D01*
X713000D01*
X658200Y326200D02*
X700500Y368500D01*
X653000Y321000D02*
X658200Y326200D01*
Y372447D01*
X654947Y375700D02*
X658200Y372447D01*
X651653Y375700D02*
X654947D01*
X648300Y379053D02*
X651653Y375700D01*
X648300Y379053D02*
Y422947D01*
X651053Y425700D01*
X666456D01*
X698800Y458044D01*
X614300Y157000D02*
X616300Y155000D01*
X538000Y157000D02*
X614300D01*
X502000Y121000D02*
X538000Y157000D01*
X651061Y108661D02*
X739182D01*
X504339D02*
X651061D01*
X657300Y114900D01*
X651300Y119900D02*
X719776D01*
X597757Y120000D02*
X651300D01*
X719776Y119900D02*
X724876Y125000D01*
X747700Y263679D02*
X747950Y263429D01*
Y260571D02*
Y263429D01*
X747700Y260321D02*
X747950Y260571D01*
X747700Y252300D02*
Y260321D01*
X696500Y208500D02*
Y240000D01*
X307900Y380900D02*
X308000Y380800D01*
Y370500D02*
Y380800D01*
X219756Y279000D02*
X229924Y268831D01*
X247337D01*
X251346Y272842D01*
Y273000D01*
X191019Y110524D02*
X215857D01*
X191019D02*
X213341Y132846D01*
X213500D01*
X128341D02*
X128500D01*
X122178Y126683D02*
X128341Y132846D01*
X122178Y114119D02*
Y126683D01*
Y114119D02*
X125773Y110524D01*
X215857D02*
X223870Y118537D01*
Y124375D01*
X232342Y132846D01*
X232500D01*
X128500D02*
X138000Y142347D01*
Y169653D01*
X137841D02*
X138000D01*
X166569Y168154D02*
X222842D01*
X132020Y175475D02*
X137841Y169653D01*
X132020Y175475D02*
Y188101D01*
X135615Y191696D01*
X143026D01*
X166569Y168154D01*
X216500Y174495D02*
X222842Y168154D01*
X216500Y174495D02*
Y262000D01*
X190500Y236000D02*
X216500Y262000D01*
X157500Y236000D02*
X190500D01*
X151500Y230000D02*
X157500Y236000D01*
X552700Y353654D02*
X557500D01*
X548500D02*
X552700D01*
Y382300D01*
X548000Y387000D02*
X552700Y382300D01*
X537000Y350756D02*
X545602D01*
X492756Y387000D02*
X495000Y389244D01*
Y392400D01*
Y413500D02*
Y416756D01*
X492756Y419000D02*
X495000Y416756D01*
X452700Y414000D02*
X454744Y416044D01*
Y419000D01*
X452500Y389244D02*
X454744Y387000D01*
X452500Y389244D02*
Y392000D01*
X165347Y219900D02*
Y220000D01*
X151500D02*
X165347D01*
X165847Y250000D02*
X165900Y249946D01*
X151500Y250000D02*
X165847D01*
X165800Y213647D02*
Y220354D01*
X691312Y255600D02*
X692956Y257244D01*
X681000Y255600D02*
X691312D01*
X660756Y209244D02*
X663000Y207000D01*
X656500Y209244D02*
X660756D01*
X656000Y208744D02*
X656500Y209244D01*
X636000Y208744D02*
X656000D01*
X622400D02*
X636000D01*
X627500Y214756D02*
X645554D01*
X618700Y210700D02*
X627300Y219300D01*
X618700Y206300D02*
Y210700D01*
Y206300D02*
X621654Y203346D01*
X636000D01*
X645554Y214756D02*
X648800Y218002D01*
Y225700D01*
X640900Y149344D02*
X688044D01*
X689700Y151000D01*
X690656Y150044D01*
X711100D01*
X711200Y150144D01*
X719200D01*
X652300Y154800D02*
X652550Y155050D01*
X710594D01*
X711100Y155556D01*
X733756Y155656D02*
X738600Y160500D01*
X718876Y140776D02*
X733756Y155656D01*
X719200D02*
X733756D01*
X719100Y155556D02*
X719200Y155656D01*
X711100Y155556D02*
X719100D01*
X620100Y226500D02*
Y249496D01*
X618800Y250900D02*
X620100Y249600D01*
X623840Y245756D02*
X627000D01*
X620100Y249496D02*
X623840Y245756D01*
X620100Y249496D02*
Y249600D01*
X622779Y256244D02*
X627000D01*
X618800Y260223D02*
X622779Y256244D01*
X620100Y226500D02*
X627300Y219300D01*
X663000Y207000D02*
X663500Y207500D01*
Y238500D01*
X626900Y240144D02*
X627000Y240244D01*
X626900Y233600D02*
Y240144D01*
X747700Y209946D02*
Y252300D01*
X744300Y255700D02*
X747700Y252300D01*
X738600Y160500D02*
X745300Y167200D01*
Y192700D01*
X721746Y197600D02*
X722000Y197346D01*
X700300Y197600D02*
X721746D01*
X702102Y245858D02*
X737606D01*
X744300Y252552D01*
Y255700D01*
X711000Y208744D02*
X729500D01*
X745300Y192700D02*
X747700Y195100D01*
Y209946D01*
X743390Y214256D02*
X747700Y209946D01*
X737500Y214256D02*
X743390D01*
X722000Y197346D02*
X740654D01*
X745300Y192700D01*
X627000Y214356D02*
X627300Y214656D01*
Y219300D01*
X636102Y245858D02*
X656606D01*
X659958D01*
X665700Y251600D01*
X702000Y214256D02*
X702000Y214256D01*
X702000Y214256D02*
Y222200D01*
X631300Y149344D02*
X640900D01*
X621956D02*
X631300D01*
X616300Y155000D02*
X621956Y149344D01*
X631300Y154856D02*
X640900D01*
X652244D01*
X652300Y154800D01*
X358900Y394300D02*
X361410Y391790D01*
X369911D01*
X511972Y422972D02*
X569000Y480000D01*
X358900Y351600D02*
Y394300D01*
X356000Y347500D02*
X356400D01*
X353400Y350100D02*
X356000Y347500D01*
X353400Y350100D02*
Y386800D01*
X348900Y346800D02*
X354700Y341000D01*
X276000Y411000D02*
X279400Y414400D01*
X399000Y344244D02*
X404000D01*
X358900Y351600D02*
X362100Y348400D01*
X394900D01*
X399000Y344300D01*
X356400Y347500D02*
X359200Y344700D01*
X392900D01*
X398800Y338800D01*
X415246Y290200D02*
Y322500D01*
X388400Y341000D02*
X396600Y332800D01*
X405105D01*
X415246Y322658D01*
Y322500D02*
Y322658D01*
X385244Y314000D02*
Y331300D01*
X343500Y342000D02*
X349217Y336283D01*
X390756Y281900D02*
Y314000D01*
X398800Y338800D02*
X403844D01*
X481244Y329361D02*
Y337000D01*
Y315900D02*
Y329361D01*
X481247Y329359D01*
Y329200D02*
Y329359D01*
X432353Y267446D02*
X445100D01*
X428558D02*
X432353D01*
X445100D02*
X447453D01*
X456900Y258000D01*
X435700Y252800D02*
Y264100D01*
X432353Y267446D02*
X435700Y264100D01*
X428359Y267647D02*
X428558Y267446D01*
X428200Y267647D02*
X428359D01*
X410046Y275400D02*
X415246Y280600D01*
X397300Y275400D02*
X410046D01*
X414446Y267647D02*
X428200D01*
X398700Y268800D02*
X401700Y265800D01*
X396156Y268800D02*
X398700D01*
X403900Y338744D02*
X404000Y338644D01*
X469600Y254256D02*
X469600Y254256D01*
Y259300D01*
X474453Y284900D02*
X474553Y284800D01*
X456753Y299800D02*
Y329100D01*
X415246Y280600D02*
Y290200D01*
Y280600D02*
X428200Y267647D01*
X445100Y267446D02*
X456753Y279100D01*
Y284900D01*
Y299800D01*
X453200Y344244D02*
X480500D01*
X481244Y270000D02*
Y315900D01*
Y253000D02*
Y258100D01*
Y270000D01*
X429300Y248756D02*
X457600D01*
X405700D02*
X429300D01*
X390756Y250200D02*
Y281900D01*
X392200Y248756D02*
X405700D01*
X542500Y277000D02*
X551332Y285831D01*
Y308169D01*
X542000Y317500D02*
X551332Y308169D01*
X403900Y338744D02*
X471500D01*
X441000Y344244D02*
X453200D01*
X390756Y314000D02*
Y331300D01*
X404000Y344244D02*
X441000D01*
X481244Y337000D02*
Y343500D01*
X390756Y250200D02*
X392200Y248756D01*
X477400D02*
X481244Y252600D01*
X480500Y344244D02*
X481244Y343500D01*
X441000Y349756D02*
X453200D01*
X399406D02*
X441000D01*
X385244Y245356D02*
Y277228D01*
X386200Y244500D02*
X387456Y243244D01*
X392200D02*
X405700D01*
X387456D02*
X392200D01*
X405700D02*
X423000D01*
X429300D02*
X454524D01*
X423028D02*
X429300D01*
X455000D02*
X485644D01*
X453200Y349756D02*
X480500D01*
X486756Y337000D02*
Y346944D01*
X485500Y348200D02*
X486756Y346944D01*
X480500Y349756D02*
X483656D01*
X486756Y315900D02*
Y337000D01*
Y275260D02*
Y315900D01*
Y270000D02*
Y275000D01*
Y258100D02*
Y270000D01*
Y254000D02*
Y258100D01*
Y244356D02*
Y253600D01*
X485644Y243244D02*
X486756Y244356D01*
X385244Y278000D02*
Y314000D01*
X492000Y121000D02*
X504339Y108661D01*
X739182D02*
X751371Y120850D01*
X775750D01*
X788700Y133800D01*
X750700Y125000D02*
X753200Y127500D01*
X724876Y125000D02*
X750700D01*
X718876Y131000D02*
X724876Y125000D01*
X718876Y131000D02*
Y140776D01*
X487244Y419000D02*
Y419946D01*
X383400Y109600D02*
X404500D01*
X372000Y121000D02*
X383400Y109600D01*
X372000Y121000D02*
Y130509D01*
X408519Y167028D01*
Y169263D01*
X410256Y171000D01*
X297341Y248153D02*
X297500D01*
X293332Y252164D02*
X297341Y248153D01*
X293332Y252164D02*
Y262268D01*
X293300Y262300D02*
X293332Y262268D01*
X242843Y185559D02*
X264128Y206844D01*
X277600D01*
X297500Y244000D02*
X301500Y240000D01*
X304500D01*
X304300Y212256D02*
X307500D01*
X304300Y239800D02*
X304500Y240000D01*
X304300Y212500D02*
Y239800D01*
X277515Y240243D02*
X282500Y240000D01*
X277500Y240244D02*
X277515Y240243D01*
X279500Y212256D02*
X282700D01*
X282500Y240000D02*
X282600Y239900D01*
Y212400D02*
Y239900D01*
Y212400D02*
X304200D01*
X305944Y245456D02*
X309400D01*
X304600Y246800D02*
X305944Y245456D01*
X284554Y248153D02*
X289000D01*
X282900Y246500D02*
X284554Y248153D01*
X277500Y245456D02*
X281856D01*
X282900Y246500D01*
X305944Y206744D02*
X309500D01*
X304200Y205000D02*
X305944Y206744D01*
X277600Y206844D02*
X280656D01*
X282500Y205000D01*
X309344Y240000D02*
X309400Y239944D01*
X304500Y240000D02*
X309344D01*
X458143Y172387D02*
X484744D01*
X457756Y172000D02*
X458143Y172387D01*
X457756Y172000D02*
Y197244D01*
X485244Y197744D02*
Y202000D01*
X481300Y193800D02*
X485244Y197744D01*
X461200Y193800D02*
X481300D01*
X457756Y197244D02*
X461200Y193800D01*
X491653Y190000D02*
Y201102D01*
X490756Y202000D02*
Y202946D01*
X487730Y205972D02*
X490756Y202946D01*
X482758Y205972D02*
X487730D01*
X481469Y204683D02*
X482758Y205972D01*
X481469Y202069D02*
Y204683D01*
X477500Y198100D02*
X481469Y202069D01*
X490756Y202000D02*
X491653Y201102D01*
Y182000D02*
Y190000D01*
Y173785D02*
Y182000D01*
X490256Y172387D02*
X491653Y173785D01*
X450347Y200102D02*
X452244Y202000D01*
X450347Y173898D02*
Y192000D01*
Y173898D02*
X452244Y172000D01*
Y162944D02*
Y172000D01*
X372244Y171000D02*
Y176144D01*
X374100Y178000D01*
X372744Y197344D02*
Y203000D01*
X377500Y191100D02*
Y197500D01*
X377400Y191000D02*
X377500Y191100D01*
X369346Y191000D02*
X377400D01*
X377800Y176467D02*
Y197200D01*
Y176467D02*
X377833Y176500D01*
X377666Y176334D02*
X377800Y176467D01*
X377833Y176500D02*
X405000D01*
X377500Y197500D02*
X405000D01*
X377500Y176500D02*
X377666Y176334D01*
X377500Y197500D02*
X377800Y197200D01*
X369346Y182754D02*
X374100Y178000D01*
X410256Y171000D02*
X412500Y173244D01*
Y176200D01*
X413154Y176854D01*
X410256Y203000D02*
X412500Y200756D01*
Y198000D02*
Y200756D01*
Y198000D02*
X413154Y197346D01*
X221000Y279000D02*
X225000Y283000D01*
X222400Y362244D02*
Y374000D01*
Y356600D02*
Y356800D01*
Y360844D01*
X225000Y283000D02*
X235000Y293000D01*
Y373500D01*
X208000Y400500D02*
X235000Y373500D01*
X208000Y400500D02*
Y456000D01*
X204000Y274500D02*
Y281500D01*
Y274500D02*
X216500Y262000D01*
X185000Y272500D02*
Y356000D01*
X779000Y461000D02*
X783700Y465700D01*
X790947D02*
X792391Y464256D01*
X797500D01*
X783700Y465700D02*
X790947D01*
X798446Y464256D02*
X805548Y457154D01*
X797500Y458744D02*
X805744Y450500D01*
X812346D01*
X819000Y457154D01*
X819853Y456300D01*
X833700D01*
X839000Y451000D01*
X216500Y262000D02*
X258500D01*
X172000Y390500D02*
X187500D01*
X232750Y484000D02*
Y489903D01*
X232653Y490000D02*
X232750Y489903D01*
X268000Y490000D02*
X277000Y481000D01*
X260347Y490000D02*
X268000D01*
X232500Y450000D02*
Y456847D01*
X232653Y457000D01*
X266000D02*
X275000Y448000D01*
X260846Y457000D02*
X266000D01*
X259846Y420000D02*
X267500D01*
X276000Y411500D01*
Y411000D02*
Y411500D01*
X239347Y490000D02*
X253654D01*
X239347Y457000D02*
X254153D01*
X239347Y420000D02*
X253153D01*
X232653Y413654D02*
Y420000D01*
X232500Y413500D02*
X232653Y413654D01*
X297500Y244000D02*
Y248153D01*
X457756Y197244D02*
Y202000D01*
X457500Y171744D02*
X457756Y172000D01*
X485000Y162500D02*
Y172131D01*
X484744Y172387D02*
X485000Y172131D01*
X537000Y277244D02*
X542256D01*
X542500Y277000D01*
X564000D02*
X568244D01*
X568500Y276744D01*
X537256Y249500D02*
X542000D01*
X537000Y249756D02*
X537256Y249500D01*
Y317500D02*
X542000D01*
X537000Y317756D02*
X537256Y317500D01*
X564000D02*
X564256Y317756D01*
X569000D01*
X564000Y345000D02*
X564244Y345244D01*
X569000D01*
X402244Y387000D02*
Y391744D01*
X375000Y392000D02*
X375256Y391744D01*
Y387000D02*
Y391744D01*
X375000Y414000D02*
X375256Y414256D01*
Y419000D01*
X487244Y392244D02*
X487500Y392500D01*
X460000Y392000D02*
X460256Y391744D01*
Y387000D02*
Y391744D01*
X460000Y413500D02*
Y418744D01*
X460256Y419000D01*
X487244Y413756D02*
X487500Y413500D01*
X487244Y413756D02*
Y419000D01*
X377500Y197500D02*
X378256Y198256D01*
Y203000D01*
X377756Y171000D02*
Y176244D01*
X404744D02*
X405000Y176500D01*
X404744Y171000D02*
Y176244D01*
Y197756D02*
X405000Y197500D01*
X404744Y197756D02*
Y203000D01*
X141500Y201902D02*
Y210000D01*
Y201902D02*
X157843Y185559D01*
X151500Y230000D02*
Y240000D01*
X133000Y218500D02*
X141500Y210000D01*
X137589Y255200D02*
X145411D01*
X150611Y250000D01*
X133000Y218500D02*
Y250611D01*
X137589Y255200D01*
X150611Y250000D02*
X151500D01*
X695500Y262000D02*
X696256Y262756D01*
X702000D01*
X711000D01*
X702000Y240244D02*
X711000D01*
X696744D02*
X702000D01*
X696500Y240000D02*
X696744Y240244D01*
X743653Y240347D02*
X744000Y240000D01*
X737606Y240347D02*
X743653D01*
X729602D02*
X737606D01*
X729500Y240244D02*
X729602Y240347D01*
X702000Y208744D02*
X711000D01*
X696744D02*
X702000D01*
X696500Y208500D02*
X696744Y208744D01*
X743669D02*
X743957Y208457D01*
X737500Y208744D02*
X743669D01*
X729500D02*
X737500D01*
X711000Y262756D02*
X720910D01*
X721000Y262846D01*
X627000Y261756D02*
X636000D01*
X627000Y240244D02*
X636000D01*
X661654Y240347D02*
X663500Y238500D01*
X656606Y240347D02*
X661654D01*
X646602D02*
X656606D01*
X646500Y240244D02*
X646602Y240347D01*
X700500Y447847D02*
X709507D01*
X711053Y446300D01*
X719853D01*
X722000Y444153D01*
X495653Y399000D02*
Y407000D01*
X451847Y398500D02*
Y407000D01*
X557500Y353654D02*
X560398Y350756D01*
X545602D02*
X548500Y353654D01*
X557000Y309347D02*
X559898Y312244D01*
X555500Y285154D02*
X558398Y282256D01*
X555000Y241347D02*
X557898Y244244D01*
X537000D02*
X539756D01*
X540656Y282756D02*
X542400Y284500D01*
X537000Y282756D02*
X540656D01*
X539756Y244244D02*
X542000Y242000D01*
X558398Y282256D02*
X569000D01*
X564000Y250488D02*
Y277000D01*
X563256Y249744D02*
X563268Y249756D01*
X564000Y250488D01*
X563268Y249756D02*
X569000D01*
X542500Y250000D02*
Y277000D01*
X542000Y249500D02*
X542500Y250000D01*
X560398Y350756D02*
X569000D01*
X557898Y244244D02*
X569000D01*
X559898Y312244D02*
X569000D01*
X369744Y414377D02*
X370321Y413800D01*
X369744Y414377D02*
Y419000D01*
X407756Y419000D02*
X407900Y418856D01*
X375000Y414000D02*
X402500D01*
X375000Y392000D02*
X402500D01*
X369744Y391623D02*
X369911Y391790D01*
X369744Y387000D02*
Y391623D01*
X407756Y389856D02*
X410000Y392100D01*
X407756Y387000D02*
Y389856D01*
X407900Y416200D02*
Y418856D01*
Y416200D02*
X409550Y414550D01*
X410000D01*
X528000Y402500D02*
Y418000D01*
Y387000D02*
Y402500D01*
X451847Y413146D02*
X452700Y414000D01*
X451847Y407000D02*
Y413146D01*
X495000Y413500D02*
X495653Y412847D01*
Y407000D02*
Y412847D01*
X564000Y317500D02*
Y345000D01*
X542500Y277000D02*
X564000D01*
X460000Y413500D02*
X487500D01*
X460000Y392000D02*
Y413500D01*
Y392000D02*
X487000D01*
X487244Y387000D02*
Y392244D01*
X495653Y393054D02*
Y399000D01*
X495000Y392400D02*
X495653Y393054D01*
X663500Y238500D02*
Y239154D01*
X671500Y247153D01*
X627000Y256244D02*
X636000D01*
X627000Y245756D02*
X636000D01*
X702000Y257244D02*
X711000D01*
X729500Y214256D02*
X737500D01*
X702000D02*
X711000D01*
X729500D01*
X645554Y214756D02*
X656500D01*
X636000Y240244D02*
X646500D01*
X711000D02*
X729500D01*
X636000Y261756D02*
X644844Y270600D01*
X686900D01*
X695500Y262000D01*
X639972Y259270D02*
Y259772D01*
X636000Y256244D02*
X636946D01*
X639972Y259270D01*
Y259772D02*
X647100Y266900D01*
X683300D01*
X692956Y257244D01*
X702000D01*
X622500Y261756D02*
X627000D01*
X700500Y368500D02*
Y384154D01*
X97500Y480500D02*
Y501500D01*
X118500D01*
X873000Y98000D02*
Y119000D01*
X852000Y97000D02*
X873000D01*
X97500Y97500D02*
Y118500D01*
Y97500D02*
X118500D01*
X873000Y481000D02*
Y502000D01*
X852000D02*
X873000D01*
D38*
X408549Y322504D02*
X408554Y322500D01*
X403504Y322504D02*
X408549D01*
X379700Y332500D02*
X380800Y331400D01*
X347500Y332500D02*
X379700D01*
X231550Y306794D02*
Y311282D01*
X227756Y303000D02*
X231550Y306794D01*
X417000Y413500D02*
X417100Y413600D01*
X417000Y396300D02*
Y413500D01*
X649600Y371000D02*
X653000D01*
X645371Y375229D02*
X649600Y371000D01*
X645371Y375229D02*
Y472007D01*
X164654Y225900D02*
X165800Y227046D01*
X141500Y250000D02*
X147400Y244100D01*
X165053D01*
X165900Y243253D01*
X164553Y225800D02*
X165800Y227046D01*
X141500Y230000D02*
X145600Y225900D01*
X164654D01*
X151500Y210000D02*
X154446Y207053D01*
X165800D01*
X678600Y251500D02*
X734000D01*
X677000Y253100D02*
X678600Y251500D01*
X677000Y253100D02*
Y262000D01*
X623050Y250800D02*
X623350Y250500D01*
X623050Y250800D02*
X623675D01*
X623350Y250500D02*
X648500D01*
X657400Y259400D02*
X667100D01*
X648500Y250500D02*
X657400Y259400D01*
X618323Y160600D02*
X620423D01*
X617473Y159750D02*
X618323Y160600D01*
X615527Y159750D02*
X617473D01*
X614677Y160600D02*
X615527Y159750D01*
X620423Y160600D02*
X621323Y161500D01*
X579400Y160600D02*
X614677D01*
X572500Y167500D02*
X579400Y160600D01*
X582900Y162100D02*
X616500D01*
X572500Y172500D02*
X582900Y162100D01*
X618600D02*
X619500Y163000D01*
X616500Y162100D02*
X618600D01*
X429000Y434593D02*
X453307Y458900D01*
X537900D01*
X427500Y383679D02*
Y435215D01*
X452685Y460400D01*
X529400D01*
X426000Y384300D02*
Y435836D01*
X452064Y461900D01*
X520900D01*
X424500Y392257D02*
Y436457D01*
X451443Y463400D01*
X512400D01*
X529000Y480000D01*
X423000Y392879D02*
Y437079D01*
X450821Y464900D01*
X503900D01*
X519000Y480000D01*
X421500Y393500D02*
Y437700D01*
X450200Y466400D01*
X495400D01*
X509000Y480000D01*
X429000Y383057D02*
Y434593D01*
X421300Y375357D02*
X429000Y383057D01*
X421300Y371300D02*
Y375357D01*
X417122Y373301D02*
X427500Y383679D01*
X417122Y371522D02*
Y373301D01*
X413463Y371763D02*
X426000Y384300D01*
X520900Y461900D02*
X539000Y480000D01*
X537900Y458900D02*
X559000Y480000D01*
X529400Y460400D02*
X549000Y480000D01*
X403343Y369343D02*
Y371100D01*
X404621Y374500D02*
X423000Y392879D01*
X398500Y374500D02*
X404621D01*
X394500Y296913D02*
X397413Y294000D01*
X445100Y254600D02*
Y260753D01*
X428200Y254700D02*
Y260953D01*
X397446Y290200D02*
X408554D01*
X535000Y296800D02*
X540700D01*
X546600Y302700D01*
X397413Y290233D02*
X397446Y290200D01*
X397413Y290233D02*
Y294000D01*
X397446Y321900D02*
X398050Y322504D01*
X403504D01*
X751900Y117400D02*
X752800D01*
X740561Y106061D02*
X751900Y117400D01*
X238000Y279244D02*
Y283000D01*
X236756Y278000D02*
X238000Y279244D01*
X219756Y279000D02*
X221000D01*
X243000Y279000D02*
Y284347D01*
X244654Y286000D01*
Y273000D02*
X247000Y275346D01*
Y279000D01*
X222000Y373000D02*
X222244Y372756D01*
X713000Y431000D02*
X782600D01*
X788600Y437000D01*
X795000D01*
X799000Y441000D01*
X713000Y421000D02*
Y425909D01*
X709400Y429509D02*
X713000Y425909D01*
X709400Y429509D02*
Y432491D01*
X711509Y434600D01*
X714491D01*
X714580Y434511D01*
X782511D01*
X789000Y441000D01*
X707909Y421000D02*
X711509Y417400D01*
X714491D01*
X716600Y419509D01*
X783221Y429500D02*
X784721Y431000D01*
X789000D01*
X802600Y477400D02*
Y482491D01*
X796591Y488500D02*
X802600Y482491D01*
Y477400D02*
X809000Y471000D01*
X793000Y487000D02*
X799000Y481000D01*
X800000Y490000D02*
X809000Y481000D01*
X653000Y391000D02*
X686121D01*
X692521Y397400D01*
X714491D01*
X718100Y401009D01*
X790491Y427400D02*
X792600Y429509D01*
Y429691D01*
X800309Y437400D01*
X800491D01*
X802600Y439509D01*
Y442491D01*
X653000Y381000D02*
X653431Y381431D01*
X678673D01*
X693143Y395900D01*
X715112D01*
X719600Y400387D01*
X798991Y425900D02*
X804100Y431009D01*
Y443113D01*
X713000Y381000D02*
Y385909D01*
X721100Y394009D01*
X812600Y429509D02*
Y442491D01*
X773000Y474000D02*
X780000Y481000D01*
X789000D01*
X779000Y441000D02*
X781000D01*
X784600Y444600D01*
X800491D01*
X802600Y442491D01*
X807491Y447600D02*
X812600Y442491D01*
X774500Y473379D02*
X778121Y477000D01*
X793000D01*
X799000Y471000D01*
X713000Y361000D02*
Y365909D01*
X722600Y375509D01*
X722500Y429500D02*
X783221D01*
X716600Y419509D02*
Y423600D01*
X722521Y427400D02*
X790491D01*
X718100Y401009D02*
Y422979D01*
X723143Y425900D02*
X798991D01*
X719600Y400387D02*
Y422357D01*
X716600Y423600D02*
X722500Y429500D01*
X718100Y422979D02*
X722521Y427400D01*
X719600Y422357D02*
X723143Y425900D01*
X721100Y394009D02*
Y421500D01*
X807216Y424125D02*
X812600Y429509D01*
X721100Y421500D02*
X723725Y424125D01*
X807216D01*
X722600Y375509D02*
Y420879D01*
X724346Y422625D01*
X820625D01*
X829000Y431000D01*
X789000Y471000D02*
X793909D01*
X797509Y467400D01*
X804447D01*
X808000Y463846D01*
X819000D02*
Y471000D01*
X805548Y457154D02*
X808000D01*
X597000Y355000D02*
Y467000D01*
X604000Y342500D02*
Y467000D01*
X773000Y459788D02*
X776888Y455900D01*
X773000Y459788D02*
Y474000D01*
X774500Y460409D02*
X777509Y457400D01*
X774500Y460409D02*
Y473379D01*
X777509Y457400D02*
X794100D01*
X794628Y456872D01*
Y456714D02*
Y456872D01*
Y456714D02*
X803742Y447600D01*
X807491D01*
X792600Y454500D02*
X792712D01*
X804100Y443113D01*
X776888Y455900D02*
X791200D01*
X792600Y454500D01*
X653000Y421000D02*
X707909D01*
X779000Y451000D02*
Y451666D01*
X771500Y459166D02*
X779000Y451666D01*
X771500Y459166D02*
Y469500D01*
X755500Y485500D02*
X771500Y469500D01*
X656743Y485500D02*
X755500D01*
X628500Y431000D02*
X637500Y440000D01*
X627500Y431000D02*
X628500D01*
X627000Y427000D02*
X627500D01*
Y427677D01*
X639000Y439177D01*
X634000Y430000D02*
X640500Y436500D01*
X638500Y430500D02*
X642000Y434000D01*
X656121Y487000D02*
X793000D01*
X655500Y488500D02*
X796591D01*
X654879Y490000D02*
X800000D01*
X639000Y439177D02*
Y474121D01*
X654879Y490000D01*
X640500Y436500D02*
Y473500D01*
X655500Y488500D01*
X642000Y434000D02*
Y472879D01*
X656121Y487000D01*
X637500Y440000D02*
Y474743D01*
X654257Y491500D01*
X808500D01*
X819000Y481000D01*
X643871Y472629D02*
X656743Y485500D01*
X643871Y370129D02*
Y472629D01*
X784091Y451000D02*
X789000D01*
X780491Y447400D02*
X784091Y451000D01*
X777509Y447400D02*
X780491D01*
X770000Y454909D02*
X777509Y447400D01*
X770000Y454909D02*
Y468879D01*
X754939Y483939D02*
X770000Y468879D01*
X657303Y483939D02*
X754939D01*
X645371Y472007D02*
X657303Y483939D01*
X643871Y370129D02*
X653000Y361000D01*
X612500Y251902D02*
Y330000D01*
Y251902D02*
X615000Y249402D01*
X610000Y248000D02*
Y327500D01*
Y248000D02*
X615000Y243000D01*
X607500Y241154D02*
Y322500D01*
Y241154D02*
X615000Y233654D01*
X605000Y237354D02*
Y320000D01*
Y237354D02*
X615000Y227354D01*
X602500Y230406D02*
Y315000D01*
Y230406D02*
X615000Y217906D01*
X600000Y226606D02*
Y312500D01*
Y226606D02*
X615000Y211606D01*
X597500Y219657D02*
Y307500D01*
X595000Y215858D02*
Y305000D01*
X600250Y349750D02*
X600500Y350000D01*
Y467000D01*
X727020Y186500D02*
X730260Y183260D01*
X645039Y176961D02*
X730039D01*
X699650Y174350D02*
X700000Y174000D01*
X703134Y173811D02*
X727689D01*
X700973Y171650D02*
X703134Y173811D01*
X647850Y171650D02*
X700973D01*
X647500Y172000D02*
X647850Y171650D01*
X705350Y169650D02*
X706500Y168500D01*
X711985Y170661D02*
X730161D01*
X707473Y166150D02*
X711985Y170661D01*
X700650Y166850D02*
X701500Y166000D01*
X621150Y166850D02*
X700650D01*
X704973Y166150D02*
X707473D01*
X702473Y163650D02*
X704973Y166150D01*
X700527Y163650D02*
X702473D01*
X699677Y164500D02*
X700527Y163650D01*
X645000Y164500D02*
X699677D01*
X711354Y167512D02*
X727512D01*
X701492Y157650D02*
X711354Y167512D01*
X696527Y157650D02*
X701492D01*
X694177Y160000D02*
X696527Y157650D01*
X647500Y160000D02*
X694177D01*
X620071Y174350D02*
X620221Y174500D01*
X620500D01*
X585350Y169650D02*
X627000D01*
X695350Y162150D02*
X697500Y160000D01*
X646173Y162350D02*
X648473D01*
X648673Y162150D01*
X695350D01*
X619500Y163000D02*
X643177D01*
X644027Y162150D01*
X645973D01*
X646173Y162350D01*
X644000Y160000D02*
X647500D01*
X642500Y161500D02*
X644000Y160000D01*
X621323Y161500D02*
X642500D01*
X586000Y172000D02*
X647500D01*
X586000Y174500D02*
X620221D01*
X585240Y183260D02*
X617240D01*
X645500Y185000D02*
X647000Y186500D01*
X699150Y182650D02*
X699760Y183260D01*
X617240D02*
X617850Y182650D01*
X597500Y219657D02*
X615000Y202157D01*
X647000Y186500D02*
X727020D01*
X595000Y215858D02*
X615000Y195858D01*
X627000Y169650D02*
X705350D01*
X620071Y174350D02*
X699650D01*
X614890Y179610D02*
X697390D01*
X618500Y190000D02*
X697500D01*
X617850Y182650D02*
X699150D01*
X644890Y185610D02*
X645500Y185000D01*
X540500Y222500D02*
X551000D01*
X583500Y190000D01*
X618500D01*
X585390Y185610D02*
X644890D01*
X556000Y212500D02*
X585240Y183260D01*
X540500Y218000D02*
X553000D01*
X585390Y185610D01*
X540000Y212500D02*
X556000D01*
X540000Y207500D02*
X558000D01*
X586039Y176961D02*
X645039D01*
X586000Y179610D02*
X614890D01*
X586000Y179500D02*
Y179610D01*
X558000Y207500D02*
X586000Y179500D01*
X560500Y202500D02*
X586039Y176961D01*
X563500Y197000D02*
X586000Y174500D01*
X565500Y192500D02*
X586000Y172000D01*
X567500Y187500D02*
X585350Y169650D01*
X583000Y164500D02*
X645000D01*
X585650Y166850D02*
X621150D01*
X570000Y182500D02*
X585650Y166850D01*
X570000Y177500D02*
X583000Y164500D01*
X540000Y202500D02*
X560500D01*
X540500Y197000D02*
X563500D01*
X540000Y197500D02*
X540500Y197000D01*
X540000Y192500D02*
X565500D01*
X540000Y187500D02*
X567500D01*
X540000Y182500D02*
X570000D01*
X540000Y177500D02*
X570000D01*
X540000Y172500D02*
X572500D01*
X540000Y167500D02*
X572500D01*
X677000Y215500D02*
Y262000D01*
X653850Y192350D02*
X677000Y215500D01*
X583271Y192350D02*
X653850D01*
X548621Y227000D02*
X583271Y192350D01*
X540000Y227000D02*
X548621D01*
X500000Y162000D02*
Y180347D01*
X498347Y182000D02*
X500000Y180347D01*
Y191654D02*
Y212000D01*
X498347Y190000D02*
X500000Y191654D01*
X442500Y177000D02*
Y181846D01*
X443653Y183000D01*
X442500Y192154D02*
Y197000D01*
Y192154D02*
X443653Y191000D01*
X754000Y133000D02*
X760500Y126500D01*
X731000Y133000D02*
X754000D01*
X730000Y132000D02*
X731000Y133000D01*
X730000Y131000D02*
Y132000D01*
X756500Y134500D02*
X764500Y126500D01*
X730177Y134500D02*
X756500D01*
X727650Y131973D02*
X730177Y134500D01*
X727650Y130027D02*
Y131973D01*
Y130027D02*
X729177Y128500D01*
X733000D01*
X447439Y106061D02*
X740561D01*
X437000Y104500D02*
X755500D01*
X427000Y114500D02*
Y195000D01*
X454000Y222000D01*
X427000Y114500D02*
X437000Y104500D01*
Y116500D02*
X447439Y106061D01*
X437000Y116500D02*
Y200500D01*
X458500Y222000D01*
X502973Y147473D02*
X520500Y165000D01*
X463500Y121000D02*
X489973Y147473D01*
X502973D01*
X462000Y121000D02*
X463500D01*
X452000D02*
X456269D01*
X484242Y148973D01*
X502352D01*
X519000Y165621D01*
Y281000D01*
X515000Y285000D02*
X519000Y281000D01*
X442000Y121000D02*
X471500Y150500D01*
X501757D01*
X517500Y166243D01*
Y278500D01*
X515000Y284721D02*
Y285000D01*
X513500Y282500D02*
X517500Y278500D01*
X512500Y282500D02*
X513500D01*
X407000Y379000D02*
X421500Y393500D01*
X395900Y379000D02*
X407000D01*
X394900Y378000D02*
X395900Y379000D01*
X403343Y371100D02*
X424500Y392257D01*
X213500Y116846D02*
Y126154D01*
X213315Y116661D02*
X213500Y116846D01*
X148000Y116661D02*
Y126154D01*
X363000Y152000D02*
Y153500D01*
X128500Y116846D02*
Y126154D01*
X128315Y116661D02*
X128500Y116846D01*
Y126154D02*
X153347Y151000D01*
X362000D02*
X363000Y152000D01*
Y149500D02*
X367500Y154000D01*
X213500Y126154D02*
X235347Y148000D01*
X365000D02*
X367000Y150000D01*
Y146500D02*
X371000Y150500D01*
X148000Y126154D02*
X179654D01*
X203000Y149500D01*
X284000Y146500D02*
X367000D01*
X263500Y126000D02*
X284000Y146500D01*
X232500Y117161D02*
Y126154D01*
Y117161D02*
X233000Y116661D01*
X232653Y126000D02*
X263500D01*
X232500Y126154D02*
X232653Y126000D01*
X363500Y157323D02*
Y157500D01*
X360650Y154473D02*
X363500Y157323D01*
X360650Y154150D02*
Y154473D01*
X144153Y176347D02*
X156479Y164021D01*
X138000Y176347D02*
X144153D01*
X138000D02*
Y185402D01*
X138157Y185559D01*
Y176504D02*
Y185559D01*
X138000Y176347D02*
X138157Y176504D01*
X232653Y174846D02*
X241979Y165521D01*
X223000Y174846D02*
X232653D01*
X223000D02*
X223157Y175004D01*
Y185559D01*
X387150Y159850D02*
X388000Y159000D01*
X520000Y319000D02*
X520500Y318500D01*
Y165000D02*
Y318500D01*
X538000Y373000D02*
Y387000D01*
X513000Y348000D02*
X538000Y373000D01*
X513000Y309000D02*
Y348000D01*
X542000Y385216D02*
X542053Y385268D01*
X538000Y402500D02*
X542053Y398447D01*
Y385268D02*
Y398447D01*
X542000Y374500D02*
Y385216D01*
X515500Y348000D02*
X542000Y374500D01*
X515500Y305000D02*
Y348000D01*
X532939Y412939D02*
X538000Y418000D01*
X532939Y370061D02*
Y412939D01*
X509000Y346121D02*
X532939Y370061D01*
X509000Y311000D02*
Y346121D01*
X353000Y328500D02*
X378000D01*
X377027Y306150D02*
X378350D01*
X378500Y306000D01*
X331000Y310000D02*
X334850Y313850D01*
X360150D01*
X364500Y309500D01*
X379000D01*
X355000Y311500D02*
X360379D01*
X363879Y308000D01*
X375177D01*
X377027Y306150D01*
X330277Y307650D02*
X330350D01*
X322500Y315427D02*
X330277Y307650D01*
X330350D02*
X331500Y306500D01*
X373000D01*
X377000Y302500D01*
X378500D01*
X342500Y334177D02*
Y335000D01*
Y334177D02*
X364177Y312500D01*
X378500D01*
X379000Y313000D01*
X378000D02*
X379000D01*
X322500Y315427D02*
Y337000D01*
X323000Y337500D01*
X224000Y229500D02*
X253900Y259400D01*
X259577D01*
X260000Y265500D02*
X261100Y264400D01*
X252000Y265500D02*
X260000D01*
X259577Y259400D02*
X261100Y260923D01*
Y264400D01*
X237500Y234000D02*
X262600Y259100D01*
Y289600D01*
X265500Y292500D01*
X372621Y291000D02*
X373621Y292000D01*
X378500D01*
X277000Y271000D02*
X343000D01*
X363000Y291000D01*
X372621D01*
X265500Y292500D02*
X316000D01*
X322500Y299000D01*
X237500Y230000D02*
Y230677D01*
X264100Y257277D01*
Y288979D01*
X266121Y291000D01*
X316621D01*
X323121Y297500D01*
X345379Y302500D02*
X359500D01*
X322500Y299000D02*
X341879D01*
X345379Y302500D01*
X323121Y297500D02*
X342500D01*
X344500Y299500D01*
X357000D01*
X237500Y226000D02*
X266500Y255000D01*
Y288000D01*
X268000Y289500D01*
X317243D01*
X323743Y296000D01*
X237500Y222500D02*
X268500Y253500D01*
Y286000D01*
X270500Y288000D01*
X317864D01*
X323364Y293500D01*
X351500D01*
X323743Y296000D02*
X354500D01*
X297500Y254847D02*
X304346D01*
X304500Y255000D01*
X282500D02*
X288846D01*
X289000Y254847D01*
X235347Y148000D02*
X365000D01*
X203000Y149500D02*
X363000D01*
X153347Y151000D02*
X362000D01*
X279862Y159850D02*
X387150D01*
X272690Y167021D02*
X279862Y159850D01*
X271448Y164021D02*
X281319Y154150D01*
X272069Y165521D02*
X280590Y157000D01*
X281319Y154150D02*
X360650D01*
X280590Y157000D02*
X359500D01*
X254257Y167021D02*
X272690D01*
X260694Y164021D02*
X271448D01*
X224000Y197278D02*
Y229500D01*
X156479Y164021D02*
X260694D01*
X224000Y197278D02*
X254257Y167021D01*
X241979Y165521D02*
X272069D01*
X734000Y251500D02*
X744500Y262000D01*
D39*
X537000Y345000D02*
X542000D01*
X671046Y255300D02*
X672500Y253847D01*
X667100Y255300D02*
X671046D01*
X636154Y196500D02*
X641700D01*
X555500Y291846D02*
X561846D01*
X555154Y234500D02*
X562500D01*
X555000Y234653D02*
X555154Y234500D01*
X557500Y360347D02*
X562847D01*
X563000Y360500D01*
X542500Y360000D02*
X548153D01*
X548500Y360347D01*
X557000Y302654D02*
X562847D01*
X563000Y302500D01*
X502347Y393154D02*
Y399000D01*
Y393154D02*
X502500Y393000D01*
X502347Y407000D02*
Y413846D01*
X502500Y414000D01*
X445154Y393154D02*
Y398500D01*
X445000Y393000D02*
X445154Y393154D01*
Y407000D02*
Y412347D01*
X445000Y412500D02*
X445154Y412347D01*
X362653Y191000D02*
Y196346D01*
X362500Y196500D02*
X362653Y196346D01*
Y177154D02*
Y183000D01*
X362500Y177000D02*
X362653Y177154D01*
X419846D02*
Y184000D01*
Y177154D02*
X420000Y177000D01*
X419846Y192000D02*
Y197346D01*
X420000Y197500D01*
X700654Y441000D02*
X713000D01*
X700500Y441153D02*
X700654Y441000D01*
X713000Y451000D02*
X721846D01*
X722000Y450846D01*
X700654Y391000D02*
X713000D01*
X700500Y390846D02*
X700654Y391000D01*
X722000Y190654D02*
X728346D01*
X728500Y190500D01*
X721153Y256000D02*
X729500D01*
X721000Y256153D02*
X721153Y256000D01*
X636000Y196653D02*
X636154Y196500D01*
X402500Y414000D02*
Y418744D01*
X535000Y286153D02*
Y296800D01*
X533778Y284931D02*
X535000Y286153D01*
X533778Y239878D02*
Y284931D01*
X528000Y234100D02*
X533778Y239878D01*
D40*
X361000Y324800D02*
X361200Y324600D01*
X355300Y324800D02*
X361000D01*
X355000Y325100D02*
X355300Y324800D01*
X528000Y371500D02*
Y387000D01*
X508900Y352400D02*
X528000Y371500D01*
X403844Y338800D02*
X403900Y338744D01*
X476505Y334100D02*
X481244Y329361D01*
X469300Y334100D02*
X476505D01*
X463447Y284900D02*
X474453D01*
X463447Y299800D02*
X474553D01*
X463547Y329200D02*
X474553D01*
X474800Y285047D02*
Y290200D01*
Y323000D02*
Y328954D01*
X474553Y284800D02*
X474800Y285047D01*
X474553Y299800D02*
X474600Y299847D01*
Y305800D01*
D42*
X589000Y480000D02*
X599400D01*
X609100Y470300D01*
X616950Y284950D02*
Y440250D01*
X609100Y448100D02*
X616950Y440250D01*
X609100Y448100D02*
Y470300D01*
X637900Y305900D02*
X653000Y321000D01*
X616950Y284950D02*
X637900Y305900D01*
X616600Y284600D02*
X616950Y284950D01*
X616600Y260900D02*
X618800Y258700D01*
X616600Y260900D02*
Y284600D01*
X747600Y337300D02*
Y364300D01*
X716200Y305900D02*
X747600Y337300D01*
X637900Y305900D02*
X716200D01*
X839000Y451000D02*
X850000Y440000D01*
Y431400D02*
Y440000D01*
X835300Y416700D02*
X850000Y431400D01*
X762100Y416700D02*
X835300D01*
X747700Y402300D02*
X762100Y416700D01*
X747700Y352947D02*
Y402300D01*
X310500Y481000D02*
X313200D01*
X323000Y490800D01*
X323100Y490700D01*
X569300D01*
X569456D02*
X574056Y486100D01*
X528000Y418000D02*
X574056Y464056D01*
X548000Y418000D02*
X589000Y459000D01*
Y480000D01*
X548000Y402500D02*
Y418000D01*
Y387000D02*
Y402500D01*
D43*
X603843Y149357D02*
X609100Y144100D01*
X598300Y149357D02*
X603843D01*
X439700Y429800D02*
X507100D01*
X380200Y429700D02*
X416900D01*
X339000Y470900D02*
X380200Y429700D01*
X609100Y127500D02*
Y144100D01*
X585700Y217000D02*
Y366500D01*
X216600Y475000D02*
X222900Y468700D01*
X161000Y475000D02*
X216600D01*
D44*
X335300Y383300D02*
D03*
Y392900D02*
D03*
X348700Y392300D02*
D03*
X189900Y487100D02*
D03*
X202400D02*
D03*
X202700Y475300D02*
D03*
X161000Y435000D02*
D03*
X151000Y455000D02*
D03*
X161000Y475000D02*
D03*
X151000Y485000D02*
D03*
D45*
X151500Y250000D02*
D03*
X141500Y240000D02*
D03*
X151500D02*
D03*
X141500Y230000D02*
D03*
X151500D02*
D03*
X141500Y220000D02*
D03*
Y210000D02*
D03*
X151500D02*
D03*
Y220000D02*
D03*
X334000Y360500D02*
D03*
D46*
X141500Y250000D02*
D03*
X334000Y350500D02*
D03*
D47*
X266071Y158000D02*
D03*
X199929D02*
D03*
X114929D02*
D03*
X181071D02*
D03*
D48*
X242843Y185559D02*
D03*
X223157D02*
D03*
X252685Y116661D02*
D03*
X233000D02*
D03*
X213315D02*
D03*
X330567Y443315D02*
D03*
X351433D02*
D03*
X128315Y116661D02*
D03*
X148000D02*
D03*
X167685D02*
D03*
X138157Y185559D02*
D03*
X157843D02*
D03*
D49*
X292000Y121000D02*
D03*
X589000Y480000D02*
D03*
X548000Y387000D02*
D03*
Y418000D02*
D03*
Y402500D02*
D03*
D50*
X302000Y121000D02*
D03*
X312000D02*
D03*
X322000D02*
D03*
X332000D02*
D03*
X342000D02*
D03*
X352000D02*
D03*
X362000D02*
D03*
X382000D02*
D03*
X392000D02*
D03*
X402000D02*
D03*
X412000D02*
D03*
X422000D02*
D03*
X432000D02*
D03*
X442000D02*
D03*
X452000D02*
D03*
X462000D02*
D03*
X472000D02*
D03*
X482000D02*
D03*
X492000D02*
D03*
X502000D02*
D03*
X579000Y480000D02*
D03*
X569000D02*
D03*
X559000D02*
D03*
X549000D02*
D03*
X539000D02*
D03*
X529000D02*
D03*
X519000D02*
D03*
X499000D02*
D03*
X489000D02*
D03*
X479000D02*
D03*
X469000D02*
D03*
X459000D02*
D03*
X449000D02*
D03*
X439000D02*
D03*
X429000D02*
D03*
X419000D02*
D03*
X409000D02*
D03*
X399000D02*
D03*
X389000D02*
D03*
X379000D02*
D03*
X171000Y302000D02*
D03*
X538000Y387000D02*
D03*
X528000D02*
D03*
X538000Y418000D02*
D03*
X528000D02*
D03*
X200000Y312000D02*
D03*
Y302000D02*
D03*
X538000Y402500D02*
D03*
X528000D02*
D03*
D51*
X372000Y121000D02*
D03*
X509000Y480000D02*
D03*
D52*
X111000Y435000D02*
D03*
Y475000D02*
D03*
D53*
X151000Y425000D02*
D03*
D54*
X318000Y370500D02*
D03*
D55*
X308000D02*
D03*
X298000D02*
D03*
X288000D02*
D03*
Y340500D02*
D03*
X298000D02*
D03*
X308000D02*
D03*
X318000D02*
D03*
X839000Y471000D02*
D03*
Y461000D02*
D03*
Y451000D02*
D03*
X829000Y461000D02*
D03*
Y451000D02*
D03*
X839000Y441000D02*
D03*
X829000D02*
D03*
X819000D02*
D03*
X809000D02*
D03*
X799000D02*
D03*
X829000Y431000D02*
D03*
X819000D02*
D03*
X809000D02*
D03*
X799000D02*
D03*
X829000Y471000D02*
D03*
X819000D02*
D03*
X809000D02*
D03*
X799000D02*
D03*
X829000Y481000D02*
D03*
X819000D02*
D03*
X809000D02*
D03*
X799000D02*
D03*
X789000D02*
D03*
Y431000D02*
D03*
X779000Y441000D02*
D03*
X789000D02*
D03*
Y471000D02*
D03*
X779000D02*
D03*
Y461000D02*
D03*
X789000Y451000D02*
D03*
X779000D02*
D03*
X789000Y461000D02*
D03*
X653000D02*
D03*
Y451000D02*
D03*
Y441000D02*
D03*
Y431000D02*
D03*
Y421000D02*
D03*
Y411000D02*
D03*
Y401000D02*
D03*
Y391000D02*
D03*
Y381000D02*
D03*
Y371000D02*
D03*
Y361000D02*
D03*
Y351000D02*
D03*
Y341000D02*
D03*
Y331000D02*
D03*
Y321000D02*
D03*
X713000D02*
D03*
Y331000D02*
D03*
Y341000D02*
D03*
Y351000D02*
D03*
Y361000D02*
D03*
Y371000D02*
D03*
Y381000D02*
D03*
Y391000D02*
D03*
Y401000D02*
D03*
Y411000D02*
D03*
Y421000D02*
D03*
Y431000D02*
D03*
Y441000D02*
D03*
Y451000D02*
D03*
Y461000D02*
D03*
Y471000D02*
D03*
D56*
X171000Y312000D02*
D03*
X200000Y322000D02*
D03*
D57*
X653000Y471000D02*
D03*
D58*
X128000Y292000D02*
D03*
Y332000D02*
D03*
D59*
X148000Y302000D02*
D03*
Y312000D02*
D03*
D60*
X856000Y389000D02*
D03*
X846000D02*
D03*
X836000D02*
D03*
X826000D02*
D03*
X816000D02*
D03*
X806000D02*
D03*
X766000D02*
D03*
X776000D02*
D03*
X786000D02*
D03*
X796000D02*
D03*
Y379000D02*
D03*
X786000D02*
D03*
X776000D02*
D03*
X766000D02*
D03*
X806000D02*
D03*
X816000D02*
D03*
X826000D02*
D03*
X836000D02*
D03*
X846000D02*
D03*
X856000D02*
D03*
Y399000D02*
D03*
X846000D02*
D03*
X836000D02*
D03*
X826000D02*
D03*
X816000D02*
D03*
X806000D02*
D03*
X766000D02*
D03*
X776000D02*
D03*
X786000D02*
D03*
X796000D02*
D03*
Y409000D02*
D03*
X786000D02*
D03*
X776000D02*
D03*
X766000D02*
D03*
X806000D02*
D03*
X816000D02*
D03*
X826000D02*
D03*
X836000D02*
D03*
X846000D02*
D03*
X856000D02*
D03*
Y329000D02*
D03*
X846000D02*
D03*
X836000D02*
D03*
X826000D02*
D03*
X816000D02*
D03*
X806000D02*
D03*
X766000D02*
D03*
X776000D02*
D03*
X786000D02*
D03*
X796000D02*
D03*
Y319000D02*
D03*
X786000D02*
D03*
X776000D02*
D03*
X766000D02*
D03*
X806000D02*
D03*
X816000D02*
D03*
X826000D02*
D03*
X836000D02*
D03*
X846000D02*
D03*
X856000D02*
D03*
Y299000D02*
D03*
X846000D02*
D03*
X836000D02*
D03*
X826000D02*
D03*
X816000D02*
D03*
X806000D02*
D03*
X766000D02*
D03*
X776000D02*
D03*
X786000D02*
D03*
X796000D02*
D03*
Y309000D02*
D03*
X786000D02*
D03*
X776000D02*
D03*
X766000D02*
D03*
X806000D02*
D03*
X816000D02*
D03*
X826000D02*
D03*
X836000D02*
D03*
X846000D02*
D03*
X856000D02*
D03*
Y349000D02*
D03*
X846000D02*
D03*
X836000D02*
D03*
X826000D02*
D03*
X816000D02*
D03*
X806000D02*
D03*
X766000D02*
D03*
X776000D02*
D03*
X786000D02*
D03*
X796000D02*
D03*
Y339000D02*
D03*
X786000D02*
D03*
X776000D02*
D03*
X766000D02*
D03*
X806000D02*
D03*
X816000D02*
D03*
X826000D02*
D03*
X836000D02*
D03*
X846000D02*
D03*
X856000D02*
D03*
Y359000D02*
D03*
X846000D02*
D03*
X836000D02*
D03*
X826000D02*
D03*
X816000D02*
D03*
X806000D02*
D03*
X766000D02*
D03*
X776000D02*
D03*
X786000D02*
D03*
X796000D02*
D03*
Y369000D02*
D03*
X786000D02*
D03*
X776000D02*
D03*
X766000D02*
D03*
X806000D02*
D03*
X816000D02*
D03*
X826000D02*
D03*
X836000D02*
D03*
X846000D02*
D03*
X856000D02*
D03*
Y209000D02*
D03*
X846000D02*
D03*
X836000D02*
D03*
X826000D02*
D03*
X816000D02*
D03*
X806000D02*
D03*
X766000D02*
D03*
X776000D02*
D03*
X786000D02*
D03*
X796000D02*
D03*
Y199000D02*
D03*
X786000D02*
D03*
X776000D02*
D03*
X766000D02*
D03*
X806000D02*
D03*
X816000D02*
D03*
X826000D02*
D03*
X836000D02*
D03*
X846000D02*
D03*
X856000D02*
D03*
Y179000D02*
D03*
X846000D02*
D03*
X836000D02*
D03*
X826000D02*
D03*
X816000D02*
D03*
X806000D02*
D03*
X766000D02*
D03*
X776000D02*
D03*
X786000D02*
D03*
X796000D02*
D03*
Y189000D02*
D03*
X786000D02*
D03*
X776000D02*
D03*
X766000D02*
D03*
X806000D02*
D03*
X816000D02*
D03*
X826000D02*
D03*
X836000D02*
D03*
X846000D02*
D03*
X856000D02*
D03*
Y149000D02*
D03*
X846000D02*
D03*
X836000D02*
D03*
X826000D02*
D03*
X816000D02*
D03*
X806000D02*
D03*
X766000D02*
D03*
X776000D02*
D03*
X786000D02*
D03*
X796000D02*
D03*
X856000Y159000D02*
D03*
X846000D02*
D03*
X836000D02*
D03*
X826000D02*
D03*
X816000D02*
D03*
X806000D02*
D03*
X766000D02*
D03*
X776000D02*
D03*
X786000D02*
D03*
X796000D02*
D03*
Y169000D02*
D03*
X786000D02*
D03*
X776000D02*
D03*
X766000D02*
D03*
X806000D02*
D03*
X816000D02*
D03*
X826000D02*
D03*
X836000D02*
D03*
X846000D02*
D03*
X856000D02*
D03*
Y249000D02*
D03*
X846000D02*
D03*
X836000D02*
D03*
X826000D02*
D03*
X816000D02*
D03*
X806000D02*
D03*
X766000D02*
D03*
X776000D02*
D03*
X786000D02*
D03*
X796000D02*
D03*
Y239000D02*
D03*
X786000D02*
D03*
X776000D02*
D03*
X766000D02*
D03*
X806000D02*
D03*
X816000D02*
D03*
X826000D02*
D03*
X836000D02*
D03*
X846000D02*
D03*
X856000D02*
D03*
Y219000D02*
D03*
X846000D02*
D03*
X836000D02*
D03*
X826000D02*
D03*
X816000D02*
D03*
X806000D02*
D03*
X766000D02*
D03*
X776000D02*
D03*
X786000D02*
D03*
X796000D02*
D03*
Y229000D02*
D03*
X786000D02*
D03*
X776000D02*
D03*
X766000D02*
D03*
X806000D02*
D03*
X816000D02*
D03*
X826000D02*
D03*
X836000D02*
D03*
X846000D02*
D03*
X856000D02*
D03*
Y269000D02*
D03*
X846000D02*
D03*
X836000D02*
D03*
X826000D02*
D03*
X816000D02*
D03*
X806000D02*
D03*
X766000D02*
D03*
X776000D02*
D03*
X786000D02*
D03*
X796000D02*
D03*
Y259000D02*
D03*
X786000D02*
D03*
X776000D02*
D03*
X766000D02*
D03*
X806000D02*
D03*
X816000D02*
D03*
X826000D02*
D03*
X836000D02*
D03*
X846000D02*
D03*
X856000D02*
D03*
Y279000D02*
D03*
X846000D02*
D03*
X836000D02*
D03*
X826000D02*
D03*
X816000D02*
D03*
X806000D02*
D03*
X766000D02*
D03*
X776000D02*
D03*
X786000D02*
D03*
X796000D02*
D03*
Y289000D02*
D03*
X786000D02*
D03*
X776000D02*
D03*
X766000D02*
D03*
X806000D02*
D03*
X816000D02*
D03*
X826000D02*
D03*
X836000D02*
D03*
X846000D02*
D03*
X856000D02*
D03*
D61*
X621500Y472500D02*
D03*
X193500Y211500D02*
D03*
X139500Y379500D02*
D03*
X852500Y116500D02*
D03*
D62*
X673300Y239900D02*
D03*
X680800D02*
D03*
X325150Y403650D02*
D03*
X542000Y344600D02*
D03*
X486800Y320000D02*
D03*
X484400Y196800D02*
D03*
X491700Y196400D02*
D03*
X457500Y162000D02*
D03*
X198300Y461300D02*
D03*
X195500Y465500D02*
D03*
X231550Y311282D02*
D03*
X622500Y458400D02*
D03*
Y300100D02*
D03*
X639000Y295800D02*
D03*
X239400Y450100D02*
D03*
X239300Y483600D02*
D03*
X239400Y425800D02*
D03*
X355000Y325100D02*
D03*
X361200Y324600D02*
D03*
X610300Y126600D02*
D03*
X587000Y217000D02*
D03*
X587400Y366300D02*
D03*
X417000Y428200D02*
D03*
X439800Y428300D02*
D03*
X340400Y472600D02*
D03*
X607700Y128600D02*
D03*
X596357Y149357D02*
D03*
X584100Y217100D02*
D03*
X583800Y366300D02*
D03*
X507300Y428600D02*
D03*
X439700Y431800D02*
D03*
X417000Y431700D02*
D03*
X338100Y469700D02*
D03*
X222900Y468700D02*
D03*
X236700Y212000D02*
D03*
X272400Y266500D02*
D03*
X262800Y295700D02*
D03*
X713900Y142200D02*
D03*
X728500D02*
D03*
X755600Y244600D02*
D03*
X741800Y269900D02*
D03*
X747700Y224100D02*
D03*
X385800Y336800D02*
D03*
X508900Y352400D02*
D03*
X500400Y228000D02*
D03*
X542100Y308800D02*
D03*
X342400Y410200D02*
D03*
X472200Y239544D02*
D03*
X511800Y216500D02*
D03*
X523300Y227900D02*
D03*
X465800Y239544D02*
D03*
X406900Y260200D02*
D03*
X416800Y239400D02*
D03*
X417100Y413600D02*
D03*
X417000Y396300D02*
D03*
X657300Y114900D02*
D03*
X651300Y120000D02*
D03*
X572400Y128300D02*
D03*
X167500Y348300D02*
D03*
X170100Y353200D02*
D03*
X164400Y353300D02*
D03*
X248500Y317800D02*
D03*
X251100Y321700D02*
D03*
X245700D02*
D03*
X214662Y357339D02*
D03*
X681000Y255600D02*
D03*
X622400Y208600D02*
D03*
X648800Y225700D02*
D03*
X623675Y250800D02*
D03*
X700300Y197600D02*
D03*
X744300Y255700D02*
D03*
X745300Y192700D02*
D03*
X641700Y196500D02*
D03*
X627300Y219300D02*
D03*
X620100Y249600D02*
D03*
X665700Y251600D02*
D03*
X667100Y255300D02*
D03*
X702000Y222200D02*
D03*
X616300Y155000D02*
D03*
X652300Y154800D02*
D03*
X421300Y371300D02*
D03*
X417122Y371522D02*
D03*
X413463Y371763D02*
D03*
X403343Y369343D02*
D03*
X398500Y374825D02*
D03*
X346700Y400800D02*
D03*
X360100Y341100D02*
D03*
X394500Y297000D02*
D03*
X398800Y338800D02*
D03*
X415300Y316200D02*
D03*
X456753Y322400D02*
D03*
X469300Y334100D02*
D03*
X456900Y308200D02*
D03*
X456400Y278500D02*
D03*
X456900Y258000D02*
D03*
X435700Y252800D02*
D03*
X397300Y275400D02*
D03*
X399650Y252850D02*
D03*
X469600Y259300D02*
D03*
X401700Y265800D02*
D03*
X481200Y306800D02*
D03*
X481300Y290900D02*
D03*
X474800Y290200D02*
D03*
X481300Y262600D02*
D03*
X481200Y274700D02*
D03*
X486800Y245200D02*
D03*
X481200Y253000D02*
D03*
X463800Y248700D02*
D03*
X451000Y248800D02*
D03*
X451800Y243100D02*
D03*
X442300Y248800D02*
D03*
X433900D02*
D03*
X411217Y248783D02*
D03*
X546600Y302700D02*
D03*
X464500Y344300D02*
D03*
X475600Y349800D02*
D03*
X475800Y344200D02*
D03*
X446300Y344400D02*
D03*
X390791Y273291D02*
D03*
X390800Y264200D02*
D03*
X401400Y248700D02*
D03*
X390700Y309200D02*
D03*
X380800Y331400D02*
D03*
X390700Y326700D02*
D03*
X399000Y344300D02*
D03*
X415200D02*
D03*
X424996Y344204D02*
D03*
X432870Y344330D02*
D03*
X436807Y344207D02*
D03*
X403504Y322504D02*
D03*
X428200Y254700D02*
D03*
X445100Y254600D02*
D03*
X474800Y323000D02*
D03*
X474600Y305800D02*
D03*
X399406Y349794D02*
D03*
X385267Y318567D02*
D03*
X385228Y277228D02*
D03*
X385200Y255500D02*
D03*
X386200Y244500D02*
D03*
X400200Y243200D02*
D03*
X423028Y243072D02*
D03*
X481600Y243300D02*
D03*
X415154Y349654D02*
D03*
X447600Y349800D02*
D03*
X458461Y349761D02*
D03*
X484700Y348700D02*
D03*
X486811Y342189D02*
D03*
X486800Y274400D02*
D03*
Y263200D02*
D03*
X752800Y117400D02*
D03*
X788700Y133800D02*
D03*
X753200Y127500D02*
D03*
X718876Y131000D02*
D03*
X738600Y160500D02*
D03*
X689700Y151000D02*
D03*
X314800Y490500D02*
D03*
X404500Y109600D02*
D03*
X293300Y262300D02*
D03*
X304600Y246800D02*
D03*
X282900Y246500D02*
D03*
X282500Y205000D02*
D03*
X304200D02*
D03*
X304300Y212500D02*
D03*
X282600Y212400D02*
D03*
X450300Y197000D02*
D03*
X477500Y198100D02*
D03*
X451700Y162400D02*
D03*
X372744Y197344D02*
D03*
X374100Y178000D02*
D03*
X412500Y176200D02*
D03*
Y198000D02*
D03*
X238000Y283000D02*
D03*
X225000D02*
D03*
X243000Y279000D02*
D03*
X247000D02*
D03*
X222400Y374000D02*
D03*
Y356800D02*
D03*
X193300Y461300D02*
D03*
X258500Y262000D02*
D03*
X204000Y281756D02*
D03*
X185000Y272500D02*
D03*
Y356000D02*
D03*
X597000Y355000D02*
D03*
X600500Y467000D02*
D03*
X597000D02*
D03*
X604000D02*
D03*
X627500Y431000D02*
D03*
X627000Y427000D02*
D03*
X634000Y430000D02*
D03*
X638500Y430500D02*
D03*
X607500Y322500D02*
D03*
X602500Y315000D02*
D03*
X605000Y320000D02*
D03*
X615000Y243000D02*
D03*
Y233654D02*
D03*
Y202157D02*
D03*
Y249402D02*
D03*
Y227354D02*
D03*
Y217906D02*
D03*
Y211606D02*
D03*
Y195858D02*
D03*
X595000Y305000D02*
D03*
X597500Y307500D02*
D03*
X610000Y327500D02*
D03*
X612500Y330000D02*
D03*
X600000Y312500D02*
D03*
X600500Y350000D02*
D03*
X604000Y342500D02*
D03*
X617240Y183260D02*
D03*
X614890Y179610D02*
D03*
X697500Y190000D02*
D03*
X699760Y183260D02*
D03*
X697390Y179610D02*
D03*
X700000Y174000D02*
D03*
X706500Y168500D02*
D03*
X701500Y166000D02*
D03*
X697500Y160000D02*
D03*
X730260Y183260D02*
D03*
X730039Y176961D02*
D03*
X727689Y173811D02*
D03*
X730161Y170661D02*
D03*
X727512Y167512D02*
D03*
X647500Y160000D02*
D03*
X645000Y164500D02*
D03*
X618500Y190000D02*
D03*
X620500Y174500D02*
D03*
X616500Y162100D02*
D03*
X627000Y169650D02*
D03*
X621150Y166850D02*
D03*
X667100Y259600D02*
D03*
X677000Y262000D02*
D03*
X744500D02*
D03*
X540000Y197500D02*
D03*
Y187500D02*
D03*
Y182500D02*
D03*
Y177500D02*
D03*
Y172500D02*
D03*
Y192500D02*
D03*
Y202500D02*
D03*
Y167500D02*
D03*
Y222500D02*
D03*
Y217500D02*
D03*
X647500Y172000D02*
D03*
X645039Y176961D02*
D03*
X645500Y185000D02*
D03*
X540000Y212500D02*
D03*
Y207500D02*
D03*
Y227000D02*
D03*
X500000Y162000D02*
D03*
Y212000D02*
D03*
X442500Y197000D02*
D03*
Y177000D02*
D03*
X760500Y126500D02*
D03*
X764500D02*
D03*
X730000Y131000D02*
D03*
X733000Y128500D02*
D03*
X454000Y222000D02*
D03*
X458500D02*
D03*
X755500Y104500D02*
D03*
X520000Y319000D02*
D03*
X515000Y285000D02*
D03*
X512500Y282500D02*
D03*
X394900Y378000D02*
D03*
X371000Y150500D02*
D03*
X367000Y150000D02*
D03*
X367500Y154000D02*
D03*
X363000Y153500D02*
D03*
X363500Y157500D02*
D03*
X359500Y157000D02*
D03*
X388000Y159000D02*
D03*
X252000Y265500D02*
D03*
X513000Y309000D02*
D03*
X515500Y305000D02*
D03*
X509000Y311000D02*
D03*
X353000Y328500D02*
D03*
X378000D02*
D03*
X355000Y311500D02*
D03*
X277000Y271000D02*
D03*
X378500Y306000D02*
D03*
X379000Y309500D02*
D03*
X347500Y332500D02*
D03*
X331250Y310000D02*
D03*
X378500Y302500D02*
D03*
X323000Y337500D02*
D03*
X342500Y335000D02*
D03*
X379000Y313000D02*
D03*
X237500Y234000D02*
D03*
Y230000D02*
D03*
Y226000D02*
D03*
Y222500D02*
D03*
X359500Y302500D02*
D03*
X378500Y292000D02*
D03*
X357000Y299500D02*
D03*
X351500Y293500D02*
D03*
X354500Y296000D02*
D03*
X187500Y390500D02*
D03*
X172000D02*
D03*
X232750Y484000D02*
D03*
X277000Y481000D02*
D03*
X232500Y450000D02*
D03*
X275000Y448000D02*
D03*
X276000Y411000D02*
D03*
X232500Y413500D02*
D03*
X310500Y481000D02*
D03*
X303000Y409500D02*
D03*
X304500Y240000D02*
D03*
X282500D02*
D03*
X304500Y255000D02*
D03*
X282500D02*
D03*
X457756Y197244D02*
D03*
X485000Y162500D02*
D03*
X542500Y277000D02*
D03*
X564000D02*
D03*
X561846Y291846D02*
D03*
X562500Y234500D02*
D03*
X563256Y249744D02*
D03*
X542000Y249500D02*
D03*
X563000Y360500D02*
D03*
X542500Y360000D02*
D03*
X563000Y302500D02*
D03*
X542000Y317500D02*
D03*
X564000D02*
D03*
Y345000D02*
D03*
X402500Y414000D02*
D03*
X375000D02*
D03*
X502500Y393000D02*
D03*
X487500Y392500D02*
D03*
X502500Y414000D02*
D03*
X460000Y392000D02*
D03*
X445000Y393000D02*
D03*
X460000Y413500D02*
D03*
X445000Y412500D02*
D03*
X487500Y413500D02*
D03*
X362500Y196500D02*
D03*
X377500Y197500D02*
D03*
X362500Y177000D02*
D03*
X377500Y176500D02*
D03*
X420000Y177000D02*
D03*
X405000Y176500D02*
D03*
X420000Y197500D02*
D03*
X405000D02*
D03*
X695500Y262000D02*
D03*
X696500Y240000D02*
D03*
X744000D02*
D03*
X696500Y208500D02*
D03*
X743957Y208457D02*
D03*
X728500Y190500D02*
D03*
X729500Y256000D02*
D03*
X626900Y233600D02*
D03*
X663500Y238500D02*
D03*
X663000Y207000D02*
D03*
X561700Y244200D02*
D03*
X542400Y284500D02*
D03*
X542000Y242000D02*
D03*
X561800Y282200D02*
D03*
X563200Y350700D02*
D03*
X542900Y350900D02*
D03*
X562775Y312225D02*
D03*
X370321Y413800D02*
D03*
X375000Y392000D02*
D03*
X369911Y391790D02*
D03*
X402500Y392000D02*
D03*
X410000Y392100D02*
D03*
Y414550D02*
D03*
X495000Y413500D02*
D03*
Y392400D02*
D03*
X452700Y414000D02*
D03*
X452500Y392000D02*
D03*
X535000Y296800D02*
D03*
X528000Y234100D02*
D03*
X622500Y261756D02*
D03*
D63*
X627000Y256244D02*
D03*
X653000Y321000D02*
D03*
X700500Y384154D02*
D03*
X653000Y321000D02*
D03*
X410256Y203000D02*
D03*
Y171000D02*
D03*
D64*
X569300Y490700D02*
X569456D01*
X574056Y464056D02*
Y486100D01*
M02*
