%FSLAX25Y25*%
%MOIN*%
G70*
G01*
G75*
G04 Layer_Physical_Order=1*
G04 Layer_Color=255*
%ADD10R,0.03937X0.03543*%
%ADD11R,0.03543X0.03150*%
%ADD12R,0.03543X0.03937*%
%ADD13R,0.03150X0.06299*%
%ADD14R,0.02200X0.07800*%
%ADD15R,0.01400X0.06600*%
%ADD16O,0.01600X0.08000*%
%ADD17O,0.02400X0.08000*%
%ADD18R,0.02200X0.05000*%
%ADD19R,0.05118X0.08661*%
%ADD20R,0.01400X0.07100*%
%ADD21O,0.08000X0.01600*%
%ADD22O,0.07874X0.01969*%
%ADD23O,0.10000X0.01181*%
%ADD24O,0.01181X0.10000*%
%ADD25R,0.05118X0.09449*%
%ADD26R,0.09449X0.05118*%
%ADD27R,0.06299X0.06299*%
%ADD28R,0.09800X0.03700*%
%ADD29R,0.25700X0.26400*%
%ADD30R,0.01181X0.04724*%
%ADD31O,0.01181X0.04724*%
%ADD32R,0.05906X0.09055*%
%ADD33R,0.09055X0.09055*%
%ADD34R,0.05118X0.05906*%
%ADD35R,0.10630X0.05118*%
%ADD36R,0.03150X0.03543*%
%ADD37C,0.03000*%
%ADD38C,0.00800*%
%ADD39C,0.01500*%
%ADD40C,0.01000*%
%ADD41C,0.10000*%
%ADD42C,0.05000*%
%ADD43C,0.07000*%
%ADD44C,0.08000*%
%ADD45C,0.06000*%
%ADD46R,0.06000X0.06000*%
%ADD47R,0.09843X0.09843*%
%ADD48C,0.07874*%
%ADD49R,0.05906X0.05906*%
%ADD50C,0.05906*%
%ADD51O,0.05945X0.05906*%
%ADD52C,0.07000*%
%ADD53R,0.08000X0.08000*%
%ADD54R,0.05000X0.05000*%
%ADD55C,0.05000*%
%ADD56R,0.05906X0.05906*%
%ADD57R,0.05000X0.05000*%
%ADD58C,0.11000*%
%ADD59C,0.05500*%
%ADD60C,0.06500*%
%ADD61C,0.14000*%
%ADD62C,0.02500*%
G36*
X597500Y145000D02*
X602500D01*
Y141500D01*
X592500D01*
X590000Y142500D01*
X582500D01*
X577500Y147500D01*
X551500D01*
Y125500D01*
X545000D01*
Y153500D01*
X589000D01*
X597500Y145000D01*
D02*
G37*
G36*
X318600Y494736D02*
X314800D01*
X313704Y494592D01*
X312682Y494169D01*
X311805Y493496D01*
X311131Y492618D01*
X310708Y491596D01*
X310564Y490500D01*
X310708Y489404D01*
X311131Y488382D01*
X311805Y487504D01*
X312682Y486831D01*
X313704Y486408D01*
X314800Y486264D01*
X318600D01*
Y475836D01*
X296259D01*
Y478796D01*
X310302D01*
X310500Y478757D01*
X311358Y478928D01*
X312086Y479414D01*
X312572Y480142D01*
X312743Y481000D01*
X312572Y481858D01*
X312086Y482586D01*
X312047Y482625D01*
X311319Y483112D01*
X310461Y483283D01*
X296259D01*
Y486464D01*
X289741D01*
Y483243D01*
X272150D01*
Y494900D01*
X245050D01*
Y467100D01*
D01*
Y467100D01*
X244893Y466943D01*
X227829D01*
X224486Y470286D01*
X223758Y470772D01*
X222900Y470943D01*
X222042Y470772D01*
X221314Y470286D01*
X220828Y469558D01*
X220657Y468700D01*
X220828Y467842D01*
X221314Y467114D01*
X225314Y463114D01*
X226042Y462628D01*
X226900Y462457D01*
X271791D01*
X272055Y462032D01*
X271989Y461900D01*
X245050D01*
Y434100D01*
X272150D01*
Y445757D01*
X278071D01*
X289718Y434110D01*
Y426259D01*
X286536D01*
Y419741D01*
X292047D01*
X300757Y411031D01*
Y409500D01*
X300928Y408642D01*
X301414Y407914D01*
X302142Y407428D01*
X303000Y407257D01*
X303858Y407428D01*
X304586Y407914D01*
X305072Y408642D01*
X305243Y409500D01*
Y411961D01*
X305072Y412819D01*
X304586Y413547D01*
X297385Y420748D01*
Y426259D01*
X294204D01*
Y435039D01*
X294033Y435898D01*
X293547Y436625D01*
X280586Y449586D01*
X279858Y450072D01*
X279000Y450243D01*
X272150D01*
Y461649D01*
X272427Y461743D01*
X272427D01*
X272623Y461810D01*
X272705Y461704D01*
X273582Y461031D01*
X274604Y460608D01*
X275700Y460464D01*
X276796Y460608D01*
X277818Y461031D01*
X278696Y461704D01*
X284355Y467364D01*
X318600D01*
Y378300D01*
X318900Y378000D01*
X318300Y377400D01*
X260843D01*
Y397100D01*
X272150D01*
Y405251D01*
X285211D01*
Y397500D01*
X285407Y396012D01*
X285536Y395701D01*
Y391741D01*
X296385D01*
Y395701D01*
X296514Y396012D01*
X296710Y397500D01*
Y409000D01*
X296514Y410488D01*
X295940Y411875D01*
X295026Y413065D01*
X293026Y415065D01*
X291835Y415979D01*
X290449Y416553D01*
X288961Y416749D01*
X272150D01*
Y424900D01*
X245050D01*
Y397100D01*
X256357D01*
Y377400D01*
X250100D01*
X228512Y398988D01*
X228703Y399450D01*
X238350D01*
Y404550D01*
X234743D01*
Y413500D01*
X234572Y414358D01*
X234086Y415086D01*
X233358Y415572D01*
X232500Y415743D01*
X231642Y415572D01*
X230914Y415086D01*
X230428Y414358D01*
X230257Y413500D01*
Y404550D01*
X227150D01*
Y401003D01*
X226688Y400812D01*
X211600Y415900D01*
X189991D01*
Y424652D01*
X189991Y424652D01*
X189991Y424652D01*
Y424652D01*
X189991D01*
X189991Y424652D01*
X189820Y425510D01*
X189334Y426238D01*
X172786Y442786D01*
X172058Y443272D01*
X171200Y443443D01*
X157700D01*
X156842Y443272D01*
X156114Y442786D01*
X153214Y439886D01*
X152728Y439158D01*
X152557Y438300D01*
Y432432D01*
X152728Y431573D01*
X153214Y430846D01*
X153214Y430846D01*
X153214Y430846D01*
Y430846D01*
X153214Y430846D01*
X153598Y430462D01*
X153406Y430000D01*
X151500D01*
Y425000D01*
X151000D01*
Y424500D01*
X146000D01*
Y422714D01*
X145538Y422523D01*
X144243Y423818D01*
Y455071D01*
X145677Y456505D01*
X146126Y456284D01*
X146023Y455500D01*
X150500D01*
Y459977D01*
X149716Y459874D01*
X149495Y460323D01*
X159646Y470474D01*
X159773Y470421D01*
X161000Y470259D01*
X162227Y470421D01*
X163370Y470894D01*
X164352Y471648D01*
X165105Y472630D01*
X165579Y473773D01*
X165741Y475000D01*
X165579Y476227D01*
X165105Y477370D01*
X164352Y478352D01*
X163798Y478777D01*
X163959Y479251D01*
X171719D01*
X190251Y460719D01*
Y460500D01*
X190403Y459344D01*
X190073Y458968D01*
X189985D01*
Y452450D01*
X202015D01*
Y453757D01*
X205757D01*
Y444750D01*
X205928Y443892D01*
X206414Y443164D01*
X206414Y443164D01*
X206414D01*
Y443164D01*
X206414Y443164D01*
X227150Y422428D01*
Y417450D01*
X238350D01*
Y422550D01*
X233372D01*
X210243Y445679D01*
Y454757D01*
X227150D01*
Y454450D01*
X238350D01*
Y459550D01*
X227150D01*
Y459243D01*
X209000D01*
X208142Y459072D01*
X207414Y458586D01*
X207071Y458243D01*
X204819D01*
X204627Y458705D01*
X230045Y484123D01*
X230507Y483931D01*
Y474550D01*
X227150D01*
Y469450D01*
X238350D01*
Y474550D01*
X234993D01*
Y484000D01*
X234822Y484858D01*
X234336Y485586D01*
X233608Y486072D01*
X232783Y486237D01*
X232637Y486715D01*
X233372Y487450D01*
X238350D01*
Y492550D01*
X227150D01*
Y487572D01*
X202211Y462633D01*
X201749Y462825D01*
Y463100D01*
X201553Y464588D01*
X201315Y465162D01*
X200979Y465975D01*
X200065Y467165D01*
X178165Y489065D01*
X176975Y489979D01*
X175588Y490553D01*
X174100Y490749D01*
X151000D01*
X149512Y490553D01*
X148125Y489979D01*
X146935Y489065D01*
X146021Y487875D01*
X145447Y486488D01*
X145251Y485000D01*
X145447Y483512D01*
X146021Y482125D01*
X146935Y480935D01*
X148125Y480021D01*
X149512Y479447D01*
X151000Y479251D01*
X158041D01*
X158202Y478777D01*
X157648Y478352D01*
X156895Y477370D01*
X156421Y476227D01*
X156259Y475000D01*
X156421Y473773D01*
X156474Y473646D01*
X140414Y457586D01*
X139928Y456858D01*
X139757Y456000D01*
Y422889D01*
X139928Y422030D01*
X140414Y421303D01*
X140414Y421303D01*
X140414Y421303D01*
Y421303D01*
X140414Y421303D01*
X144503Y417214D01*
X144503Y417214D01*
X144503D01*
X144503Y417214D01*
X144503D01*
X144503Y417214D01*
Y417214D01*
Y417214D01*
D01*
D01*
X144503D01*
Y417214D01*
X145230Y416728D01*
X146089Y416557D01*
X155911D01*
X156770Y416728D01*
X157497Y417214D01*
X157497Y417214D01*
X157497Y417214D01*
X158786Y418503D01*
X159272Y419230D01*
X159443Y420089D01*
Y430032D01*
X159439Y430055D01*
X159780Y430420D01*
X161000Y430259D01*
X162227Y430421D01*
X162354Y430474D01*
X169757Y423071D01*
Y415900D01*
X100900D01*
X100801Y495246D01*
X101154Y495600D01*
X318600D01*
Y494736D01*
D02*
G37*
G36*
X307600Y299072D02*
X306628Y298100D01*
X300653D01*
Y304117D01*
X293347D01*
Y298100D01*
X280574D01*
Y304117D01*
X273269D01*
Y298100D01*
X266200D01*
Y317759D01*
X266300Y317800D01*
Y317800D01*
X266300Y317800D01*
X272969D01*
Y317500D01*
X280874D01*
Y317800D01*
X291772D01*
Y311772D01*
X302228D01*
Y317800D01*
X307600D01*
Y299072D01*
D02*
G37*
G36*
X255100Y368100D02*
Y278600D01*
X249303D01*
X248986Y278987D01*
X248988Y279000D01*
X248837Y279761D01*
X248406Y280406D01*
X247761Y280837D01*
X247000Y280988D01*
X246758Y280940D01*
X246372Y281257D01*
Y284800D01*
X246650D01*
Y293300D01*
X241366D01*
Y298528D01*
X242519D01*
Y303472D01*
X238122D01*
Y307331D01*
X240125D01*
Y311982D01*
X240587Y312173D01*
X241875Y310886D01*
Y307331D01*
X246818D01*
Y312668D01*
X243264D01*
X236122Y319811D01*
Y325700D01*
X239300D01*
Y328757D01*
X243000D01*
X243858Y328928D01*
X244586Y329414D01*
X244586Y329414D01*
X244586Y329414D01*
X246830Y331658D01*
X247316Y332386D01*
X247487Y333244D01*
Y337528D01*
X247519D01*
Y342472D01*
X247487D01*
Y349756D01*
X247487Y349756D01*
X247487Y349756D01*
Y349756D01*
X247487D01*
X247487Y349756D01*
X247316Y350614D01*
X247126Y350899D01*
X247072Y351170D01*
X246586Y351897D01*
X229897Y368586D01*
X229170Y369072D01*
X228311Y369243D01*
X200929D01*
X191586Y378586D01*
X191007Y378973D01*
Y382031D01*
X189743D01*
Y390500D01*
X189572Y391358D01*
X189086Y392086D01*
X188358Y392572D01*
X187500Y392743D01*
X186642Y392572D01*
X185914Y392086D01*
X185428Y391358D01*
X185257Y390500D01*
Y382031D01*
X184489D01*
Y371969D01*
X185505D01*
Y370177D01*
X183414Y368086D01*
X182928Y367358D01*
X182757Y366500D01*
Y356000D01*
X182928Y355142D01*
X183414Y354414D01*
X184142Y353928D01*
X185000Y353757D01*
X185858Y353928D01*
X186586Y354414D01*
X187072Y355142D01*
X187243Y356000D01*
Y365571D01*
X189334Y367662D01*
X189334Y367662D01*
X189334Y367662D01*
X189820Y368390D01*
X189991Y369248D01*
Y371969D01*
X191007D01*
Y372167D01*
X191469Y372359D01*
X198414Y365414D01*
X199142Y364928D01*
X200000Y364757D01*
X227382D01*
X237377Y354762D01*
X237186Y354300D01*
X235700D01*
Y345100D01*
X236379D01*
Y338965D01*
X234207Y336793D01*
X233964Y336429D01*
X233878Y336000D01*
X233878Y336000D01*
Y335278D01*
X233400Y335133D01*
X233293Y335293D01*
X233293Y335293D01*
X227793Y340793D01*
X227429Y341036D01*
X227000Y341122D01*
X227000Y341122D01*
X222118D01*
X213668Y349571D01*
Y352878D01*
X215000D01*
X215000Y352878D01*
X215429Y352964D01*
X215793Y353207D01*
X219739Y357153D01*
X220180Y356918D01*
X220157Y356800D01*
Y349800D01*
X220328Y348942D01*
X220700Y348384D01*
Y345100D01*
X224300D01*
Y348434D01*
X224572Y348842D01*
X224743Y349700D01*
X224643Y350203D01*
Y356800D01*
X224472Y357658D01*
X224312Y357898D01*
X224699Y358215D01*
X225879Y357035D01*
Y354300D01*
X225700D01*
Y345100D01*
X229300D01*
Y354300D01*
X228121D01*
Y356639D01*
X228584Y356830D01*
X230821Y354593D01*
X230700Y354300D01*
X230700D01*
X230700Y354300D01*
Y345100D01*
X234300D01*
Y354300D01*
X233822D01*
X233622Y354500D01*
Y354500D01*
X233622D01*
D01*
D01*
D01*
X233536Y354929D01*
X233293Y355293D01*
X233293Y355293D01*
X226793Y361793D01*
X226429Y362036D01*
X226000Y362122D01*
X226000Y362122D01*
X208000D01*
X208000Y362122D01*
X207571Y362036D01*
X207207Y361793D01*
X204535Y359121D01*
X202818D01*
Y360668D01*
X197875D01*
Y355331D01*
D01*
Y355331D01*
X197665Y355121D01*
X196125D01*
Y355331D01*
X196125D01*
Y360668D01*
X191182D01*
Y355331D01*
X192225D01*
Y353000D01*
X192225Y353000D01*
X192225Y353000D01*
Y351669D01*
X191182D01*
Y346332D01*
X196125D01*
Y351669D01*
X194468D01*
Y352535D01*
X194811Y352878D01*
X208331D01*
Y351775D01*
X206654D01*
X206653Y351775D01*
X206224Y351690D01*
X205860Y351447D01*
X205860Y351447D01*
X204535Y350121D01*
X202818D01*
Y351669D01*
X197875D01*
Y346332D01*
X202818D01*
Y347879D01*
X205000D01*
X205000Y347878D01*
X205429Y347964D01*
X205793Y348207D01*
X207118Y349532D01*
X208331D01*
Y348182D01*
X211885D01*
X220484Y339583D01*
X220293Y339122D01*
X215818D01*
Y340669D01*
X210875D01*
Y335332D01*
X215818D01*
Y336878D01*
X223535D01*
X225700Y334714D01*
Y325700D01*
X226378D01*
Y318669D01*
X225875D01*
Y313332D01*
X230245D01*
X230391Y312853D01*
X230144Y312688D01*
X229713Y312043D01*
X229562Y311282D01*
X229713Y310522D01*
X230144Y309877D01*
X230789Y309446D01*
X231459Y309312D01*
X234128Y306643D01*
Y302375D01*
X233650Y302229D01*
X233543Y302390D01*
X230818Y305115D01*
Y308668D01*
X225875D01*
Y303331D01*
X229429D01*
X231628Y301132D01*
Y294228D01*
X231150Y294083D01*
X231043Y294243D01*
X231043Y294243D01*
X222493Y302793D01*
X222403Y302853D01*
X222549Y303331D01*
X224125D01*
Y308668D01*
X222775D01*
Y313332D01*
X224125D01*
Y318669D01*
X223622D01*
Y325700D01*
X224300D01*
Y334900D01*
X220700D01*
Y325700D01*
X221378D01*
Y318669D01*
X219182D01*
Y313332D01*
X220532D01*
Y308668D01*
X219182D01*
Y303475D01*
X219182Y303475D01*
X219182D01*
X219182Y303331D01*
X218972Y303121D01*
X203489D01*
X203191Y303842D01*
X202605Y304605D01*
X201842Y305191D01*
X200954Y305559D01*
X200000Y305684D01*
X199046Y305559D01*
X198158Y305191D01*
X197395Y304605D01*
X196809Y303842D01*
X196441Y302954D01*
X196316Y302000D01*
X196441Y301046D01*
X196809Y300158D01*
X197395Y299395D01*
X198158Y298809D01*
X199046Y298441D01*
X200000Y298316D01*
X200954Y298441D01*
X201842Y298809D01*
X202605Y299395D01*
X203191Y300158D01*
X203489Y300879D01*
X221235D01*
X228052Y294062D01*
X227861Y293600D01*
X226050D01*
Y293300D01*
X221350D01*
Y291293D01*
X214050D01*
X213192Y291122D01*
X212464Y290636D01*
X208414Y286586D01*
X207928Y285858D01*
X207757Y285000D01*
Y284031D01*
X207528D01*
Y283999D01*
X204000D01*
X203142Y283828D01*
X202414Y283342D01*
X201928Y282614D01*
X201757Y281756D01*
X201928Y280897D01*
X202414Y280170D01*
X203142Y279684D01*
X204000Y279513D01*
X207528D01*
Y279481D01*
X212472D01*
Y284031D01*
X212472D01*
X212472Y284299D01*
X214979Y286807D01*
X221350D01*
Y284800D01*
X223327D01*
X223563Y284359D01*
X223163Y283761D01*
X223012Y283000D01*
X223163Y282239D01*
X223594Y281594D01*
X224239Y281163D01*
X225000Y281012D01*
X225761Y281163D01*
X226406Y281594D01*
X226837Y282239D01*
X226988Y283000D01*
X226837Y283761D01*
X226638Y284059D01*
X226873Y284500D01*
X227250D01*
Y289050D01*
X228250D01*
Y284500D01*
X229450D01*
Y284800D01*
X234228D01*
X234457Y284457D01*
X234821Y284214D01*
X235250Y284128D01*
X235679Y284214D01*
X236035Y284451D01*
X236388Y284098D01*
X236163Y283761D01*
X236012Y283000D01*
X236163Y282239D01*
X236594Y281594D01*
X237239Y281163D01*
X238000Y281012D01*
X238761Y281163D01*
X239406Y281594D01*
X239837Y282239D01*
X239988Y283000D01*
X239837Y283761D01*
X239437Y284359D01*
X239673Y284800D01*
X241629D01*
Y280429D01*
X241594Y280406D01*
X241163Y279761D01*
X241012Y279000D01*
X241015Y278987D01*
X240697Y278600D01*
X212772D01*
Y278819D01*
X210500D01*
Y276244D01*
X209500D01*
Y278819D01*
X207228D01*
Y278600D01*
X202500D01*
X192700Y268800D01*
X100454D01*
X100101Y269154D01*
X100400Y411600D01*
X169757D01*
Y390500D01*
X169928Y389642D01*
X170414Y388914D01*
X171142Y388428D01*
X172000Y388257D01*
X172858Y388428D01*
X173586Y388914D01*
X174072Y389642D01*
X174243Y390500D01*
Y411600D01*
X185505D01*
Y409031D01*
X184489D01*
Y406243D01*
X182500D01*
X181642Y406072D01*
X180914Y405586D01*
X175414Y400086D01*
X174928Y399358D01*
X174757Y398500D01*
Y346000D01*
X174928Y345142D01*
X175414Y344414D01*
X175414Y344414D01*
X175414D01*
Y344414D01*
X175414Y344414D01*
X179721Y340107D01*
X180449Y339621D01*
X181307Y339450D01*
X182725D01*
Y337843D01*
X187275D01*
Y345543D01*
X182725D01*
Y343936D01*
X182236D01*
X179243Y346929D01*
Y397571D01*
X183429Y401757D01*
X184489D01*
Y398969D01*
X191007D01*
Y401180D01*
X191468Y401373D01*
X220824Y372403D01*
X221555Y371922D01*
X222415Y371757D01*
X223272Y371933D01*
X223997Y372424D01*
X224478Y373155D01*
X224643Y374015D01*
X224467Y374872D01*
X223976Y375597D01*
X193576Y405597D01*
X193216Y405833D01*
X192858Y406072D01*
X192851Y406074D01*
X192845Y406078D01*
X192422Y406159D01*
X192000Y406243D01*
X191007D01*
Y409031D01*
X189991D01*
Y411600D01*
X211600D01*
X255100Y368100D01*
D02*
G37*
G36*
X602500Y129000D02*
X592500D01*
Y130500D01*
X575000D01*
Y139000D01*
X602500D01*
Y129000D01*
D02*
G37*
G36*
X571000Y113000D02*
X567500D01*
Y126000D01*
X571000D01*
Y113000D01*
D02*
G37*
G36*
X557000Y136500D02*
X570000D01*
Y130500D01*
X557500D01*
Y117000D01*
X552500D01*
Y142500D01*
X557000D01*
Y136500D01*
D02*
G37*
G36*
X576000Y140000D02*
X574000D01*
Y129500D01*
X589500D01*
Y124500D01*
X584500D01*
X582000Y127000D01*
X566000D01*
X565500Y126500D01*
Y116000D01*
X559000D01*
Y129500D01*
X571000D01*
Y139500D01*
X570500Y140000D01*
X568500D01*
Y146500D01*
X576000D01*
Y140000D01*
D02*
G37*
G36*
X602500Y112500D02*
X574000D01*
Y126000D01*
X581000D01*
X584000Y123000D01*
X592500D01*
Y128000D01*
X602500D01*
Y112500D01*
D02*
G37*
%LPC*%
G36*
X209125Y340669D02*
X204182D01*
Y337115D01*
X199207Y332139D01*
X198964Y331776D01*
X198878Y331347D01*
X198878Y331346D01*
Y325653D01*
X196347D01*
Y318347D01*
X203653D01*
Y325653D01*
X201122D01*
Y330882D01*
X205571Y335332D01*
X209125D01*
Y340669D01*
D02*
G37*
G36*
X128000Y338230D02*
X126785Y338110D01*
X125616Y337756D01*
X124539Y337180D01*
X123595Y336405D01*
X122820Y335461D01*
X122244Y334384D01*
X121890Y333215D01*
X121770Y332000D01*
X121890Y330785D01*
X122244Y329616D01*
X122820Y328539D01*
X123595Y327595D01*
X124539Y326820D01*
X125616Y326244D01*
X126785Y325890D01*
X128000Y325770D01*
X129215Y325890D01*
X130384Y326244D01*
X131461Y326820D01*
X132405Y327595D01*
X133180Y328539D01*
X133756Y329616D01*
X134110Y330785D01*
X134230Y332000D01*
X134110Y333215D01*
X133756Y334384D01*
X133180Y335461D01*
X132405Y336405D01*
X131461Y337180D01*
X130384Y337756D01*
X129215Y338110D01*
X128000Y338230D01*
D02*
G37*
G36*
X187275Y332157D02*
X182725D01*
Y324457D01*
X183878D01*
Y314465D01*
X182535Y313122D01*
X174653D01*
Y315653D01*
X167347D01*
Y313122D01*
X151270D01*
X151014Y313740D01*
X150461Y314461D01*
X149740Y315014D01*
X148901Y315361D01*
X148000Y315480D01*
X147099Y315361D01*
X146260Y315014D01*
X145539Y314461D01*
X144986Y313740D01*
X144639Y312901D01*
X144520Y312000D01*
X144639Y311099D01*
X144986Y310260D01*
X145539Y309539D01*
X146260Y308986D01*
X147099Y308639D01*
X148000Y308520D01*
X148901Y308639D01*
X149740Y308986D01*
X150461Y309539D01*
X151014Y310260D01*
X151270Y310878D01*
X167347D01*
Y308347D01*
X174653D01*
Y310878D01*
X182535D01*
X183878Y309535D01*
Y297543D01*
X182725D01*
Y289843D01*
X187275D01*
Y297543D01*
X186122D01*
Y310000D01*
X186122Y310000D01*
X186036Y310429D01*
X186031Y310437D01*
X186266Y310878D01*
X196511D01*
X196809Y310158D01*
X197395Y309395D01*
X198158Y308809D01*
X199046Y308441D01*
X200000Y308316D01*
X200954Y308441D01*
X201842Y308809D01*
X202605Y309395D01*
X203191Y310158D01*
X203559Y311046D01*
X203684Y312000D01*
X203559Y312954D01*
X203191Y313842D01*
X202605Y314605D01*
X201842Y315191D01*
X200954Y315559D01*
X200000Y315684D01*
X199046Y315559D01*
X198158Y315191D01*
X197395Y314605D01*
X196809Y313842D01*
X196511Y313122D01*
X186266D01*
X186031Y313562D01*
X186036Y313571D01*
X186122Y314000D01*
X186122Y314000D01*
Y324457D01*
X187275D01*
Y332157D01*
D02*
G37*
G36*
X276421Y316500D02*
X272969D01*
Y311472D01*
X276421D01*
Y316500D01*
D02*
G37*
G36*
X280874D02*
X277421D01*
Y311472D01*
X280874D01*
Y316500D01*
D02*
G37*
G36*
X250256Y339500D02*
X248181D01*
Y337228D01*
X250256D01*
Y339500D01*
D02*
G37*
G36*
X205752Y376500D02*
X202693D01*
Y371669D01*
X205752D01*
Y376500D01*
D02*
G37*
G36*
X209811D02*
X206752D01*
Y371669D01*
X209811D01*
Y376500D01*
D02*
G37*
G36*
X139500Y387237D02*
X137990Y387089D01*
X136539Y386648D01*
X135201Y385933D01*
X134029Y384971D01*
X133067Y383799D01*
X132352Y382461D01*
X131911Y381010D01*
X131763Y379500D01*
X131911Y377991D01*
X132352Y376539D01*
X133067Y375201D01*
X134029Y374029D01*
X135201Y373067D01*
X136539Y372352D01*
X137990Y371911D01*
X139500Y371763D01*
X141009Y371911D01*
X142461Y372352D01*
X143799Y373067D01*
X144971Y374029D01*
X145933Y375201D01*
X146648Y376539D01*
X147089Y377991D01*
X147237Y379500D01*
X147089Y381010D01*
X146648Y382461D01*
X145933Y383799D01*
X144971Y384971D01*
X143799Y385933D01*
X142461Y386648D01*
X141009Y387089D01*
X139500Y387237D01*
D02*
G37*
G36*
X253331Y339500D02*
X251256D01*
Y337228D01*
X253331D01*
Y339500D01*
D02*
G37*
G36*
X250256Y342772D02*
X248181D01*
Y340500D01*
X250256D01*
Y342772D01*
D02*
G37*
G36*
X253331D02*
X251256D01*
Y340500D01*
X253331D01*
Y342772D01*
D02*
G37*
G36*
X245256Y300500D02*
X243181D01*
Y298228D01*
X245256D01*
Y300500D01*
D02*
G37*
G36*
X248331D02*
X246256D01*
Y298228D01*
X248331D01*
Y300500D01*
D02*
G37*
G36*
X147500Y301500D02*
X144283D01*
X144346Y301021D01*
X144724Y300109D01*
X145326Y299325D01*
X146109Y298724D01*
X147021Y298346D01*
X147500Y298284D01*
Y301500D01*
D02*
G37*
G36*
X174921D02*
X171500D01*
Y298079D01*
X172032Y298149D01*
X172993Y298547D01*
X173819Y299181D01*
X174453Y300007D01*
X174851Y300968D01*
X174921Y301500D01*
D02*
G37*
G36*
X187275Y284157D02*
X182725D01*
Y276457D01*
X182757D01*
Y272500D01*
X182928Y271642D01*
X183414Y270914D01*
X184142Y270428D01*
X185000Y270257D01*
X185858Y270428D01*
X186586Y270914D01*
X187072Y271642D01*
X187243Y272500D01*
Y276457D01*
X187275D01*
Y284157D01*
D02*
G37*
G36*
X128000Y298230D02*
X126785Y298110D01*
X125616Y297756D01*
X124539Y297180D01*
X123595Y296405D01*
X122820Y295461D01*
X122244Y294384D01*
X121890Y293215D01*
X121770Y292000D01*
X121890Y290785D01*
X122244Y289616D01*
X122820Y288539D01*
X123595Y287595D01*
X124539Y286820D01*
X125616Y286244D01*
X126785Y285890D01*
X128000Y285770D01*
X129215Y285890D01*
X130384Y286244D01*
X131461Y286820D01*
X132405Y287595D01*
X133180Y288539D01*
X133756Y289616D01*
X134110Y290785D01*
X134230Y292000D01*
X134110Y293215D01*
X133756Y294384D01*
X133180Y295461D01*
X132405Y296405D01*
X131461Y297180D01*
X130384Y297756D01*
X129215Y298110D01*
X128000Y298230D01*
D02*
G37*
G36*
X170500Y301500D02*
X167079D01*
X167149Y300968D01*
X167547Y300007D01*
X168181Y299181D01*
X169007Y298547D01*
X169968Y298149D01*
X170500Y298079D01*
Y301500D01*
D02*
G37*
G36*
X148500Y305716D02*
Y302500D01*
X151716D01*
X151654Y302979D01*
X151276Y303891D01*
X150674Y304675D01*
X149891Y305276D01*
X148979Y305654D01*
X148500Y305716D01*
D02*
G37*
G36*
X170500Y305921D02*
X169968Y305851D01*
X169007Y305453D01*
X168181Y304819D01*
X167547Y303993D01*
X167149Y303032D01*
X167079Y302500D01*
X170500D01*
Y305921D01*
D02*
G37*
G36*
X171500D02*
Y302500D01*
X174921D01*
X174851Y303032D01*
X174453Y303993D01*
X173819Y304819D01*
X172993Y305453D01*
X172032Y305851D01*
X171500Y305921D01*
D02*
G37*
G36*
X147500Y305716D02*
X147021Y305654D01*
X146109Y305276D01*
X145326Y304675D01*
X144724Y303891D01*
X144346Y302979D01*
X144283Y302500D01*
X147500D01*
Y305716D01*
D02*
G37*
G36*
X151716Y301500D02*
X148500D01*
Y298284D01*
X148979Y298346D01*
X149891Y298724D01*
X150674Y299325D01*
X151276Y300109D01*
X151654Y301021D01*
X151716Y301500D01*
D02*
G37*
G36*
X245256Y303772D02*
X243181D01*
Y301500D01*
X245256D01*
Y303772D01*
D02*
G37*
G36*
X248331D02*
X246256D01*
Y301500D01*
X248331D01*
Y303772D01*
D02*
G37*
G36*
X205752Y382331D02*
X202693D01*
Y377500D01*
X205752D01*
Y382331D01*
D02*
G37*
G36*
X292500Y460461D02*
X289441D01*
Y455236D01*
X292500D01*
Y460461D01*
D02*
G37*
G36*
X155977Y454500D02*
X151500D01*
Y450023D01*
X152305Y450129D01*
X153522Y450632D01*
X154566Y451434D01*
X155368Y452478D01*
X155871Y453695D01*
X155977Y454500D01*
D02*
G37*
G36*
X151500Y459977D02*
Y455500D01*
X155977D01*
X155871Y456305D01*
X155368Y457522D01*
X154566Y458566D01*
X153522Y459368D01*
X152305Y459871D01*
X151500Y459977D01*
D02*
G37*
G36*
X296559Y460461D02*
X293500D01*
Y455236D01*
X296559D01*
Y460461D01*
D02*
G37*
G36*
X195500Y447850D02*
X189685D01*
Y444791D01*
X195500D01*
Y447850D01*
D02*
G37*
G36*
X202315Y443791D02*
X196500D01*
Y440732D01*
X202315D01*
Y443791D01*
D02*
G37*
G36*
X150500Y454500D02*
X146023D01*
X146129Y453695D01*
X146633Y452478D01*
X147434Y451434D01*
X148478Y450632D01*
X149695Y450129D01*
X150500Y450023D01*
Y454500D01*
D02*
G37*
G36*
X202315Y447850D02*
X196500D01*
Y444791D01*
X202315D01*
Y447850D01*
D02*
G37*
G36*
X292500Y466685D02*
X289441D01*
Y461461D01*
X292500D01*
Y466685D01*
D02*
G37*
G36*
X189900Y491841D02*
X188673Y491679D01*
X187530Y491206D01*
X186548Y490452D01*
X185795Y489470D01*
X185321Y488327D01*
X185159Y487100D01*
X185321Y485873D01*
X185795Y484730D01*
X186548Y483748D01*
X187530Y482995D01*
X188673Y482521D01*
X189900Y482359D01*
X191127Y482521D01*
X192270Y482995D01*
X193252Y483748D01*
X194005Y484730D01*
X194479Y485873D01*
X194641Y487100D01*
X194479Y488327D01*
X194005Y489470D01*
X193252Y490452D01*
X192270Y491206D01*
X191127Y491679D01*
X189900Y491841D01*
D02*
G37*
G36*
X207377Y486600D02*
X202900D01*
Y482123D01*
X203705Y482229D01*
X204922Y482732D01*
X205966Y483534D01*
X206768Y484578D01*
X207271Y485795D01*
X207377Y486600D01*
D02*
G37*
G36*
X202900Y492077D02*
Y487600D01*
X207377D01*
X207271Y488405D01*
X206768Y489622D01*
X205966Y490666D01*
X204922Y491468D01*
X203705Y491971D01*
X202900Y492077D01*
D02*
G37*
G36*
X201900D02*
X201095Y491971D01*
X199878Y491468D01*
X198834Y490666D01*
X198032Y489622D01*
X197529Y488405D01*
X197423Y487600D01*
X201900D01*
Y492077D01*
D02*
G37*
G36*
X202700Y480041D02*
X201473Y479879D01*
X200330Y479405D01*
X199348Y478652D01*
X198595Y477670D01*
X198121Y476527D01*
X197959Y475300D01*
X198121Y474073D01*
X198595Y472930D01*
X199348Y471948D01*
X200330Y471195D01*
X201473Y470721D01*
X202700Y470559D01*
X203927Y470721D01*
X205070Y471195D01*
X206052Y471948D01*
X206805Y472930D01*
X207279Y474073D01*
X207441Y475300D01*
X207279Y476527D01*
X206805Y477670D01*
X206052Y478652D01*
X205070Y479405D01*
X203927Y479879D01*
X202700Y480041D01*
D02*
G37*
G36*
X296559Y466685D02*
X293500D01*
Y461461D01*
X296559D01*
Y466685D01*
D02*
G37*
G36*
X201900Y486600D02*
X197423D01*
X197529Y485795D01*
X198032Y484578D01*
X198834Y483534D01*
X199878Y482732D01*
X201095Y482229D01*
X201900Y482123D01*
Y486600D01*
D02*
G37*
G36*
X111000Y479236D02*
X109904Y479092D01*
X108882Y478669D01*
X108004Y477995D01*
X107331Y477118D01*
X106908Y476096D01*
X106764Y475000D01*
X106908Y473904D01*
X107331Y472882D01*
X108004Y472005D01*
X108882Y471331D01*
X109904Y470908D01*
X111000Y470764D01*
X112096Y470908D01*
X113118Y471331D01*
X113996Y472005D01*
X114669Y472882D01*
X115092Y473904D01*
X115236Y475000D01*
X115092Y476096D01*
X114669Y477118D01*
X113996Y477995D01*
X113118Y478669D01*
X112096Y479092D01*
X111000Y479236D01*
D02*
G37*
G36*
X205752Y403500D02*
X202693D01*
Y398669D01*
X205752D01*
Y403500D01*
D02*
G37*
G36*
X316764Y398559D02*
X311539D01*
Y395500D01*
X316764D01*
Y398559D01*
D02*
G37*
G36*
X205752Y409331D02*
X202693D01*
Y404500D01*
X205752D01*
Y409331D01*
D02*
G37*
G36*
X209811Y403500D02*
X206752D01*
Y398669D01*
X209811D01*
Y403500D01*
D02*
G37*
G36*
X310539Y394500D02*
X305315D01*
Y391441D01*
X310539D01*
Y394500D01*
D02*
G37*
G36*
X209811Y382331D02*
X206752D01*
Y377500D01*
X209811D01*
Y382331D01*
D02*
G37*
G36*
X310539Y398559D02*
X305315D01*
Y395500D01*
X310539D01*
Y398559D01*
D02*
G37*
G36*
X316764Y394500D02*
X311539D01*
Y391441D01*
X316764D01*
Y394500D01*
D02*
G37*
G36*
X209811Y409331D02*
X206752D01*
Y404500D01*
X209811D01*
Y409331D01*
D02*
G37*
G36*
X111000Y439236D02*
X109904Y439092D01*
X108882Y438669D01*
X108004Y437995D01*
X107331Y437118D01*
X106908Y436096D01*
X106764Y435000D01*
X106908Y433904D01*
X107331Y432882D01*
X108004Y432004D01*
X108882Y431331D01*
X109904Y430908D01*
X111000Y430764D01*
X112096Y430908D01*
X113118Y431331D01*
X113996Y432004D01*
X114669Y432882D01*
X115092Y433904D01*
X115236Y435000D01*
X115092Y436096D01*
X114669Y437118D01*
X113996Y437995D01*
X113118Y438669D01*
X112096Y439092D01*
X111000Y439236D01*
D02*
G37*
G36*
X150500Y430000D02*
X146000D01*
Y425500D01*
X150500D01*
Y430000D01*
D02*
G37*
G36*
X195500Y443791D02*
X189685D01*
Y440732D01*
X195500D01*
Y443791D01*
D02*
G37*
G36*
X232750Y452493D02*
X231892Y452322D01*
X231164Y451836D01*
X230914Y451586D01*
X230428Y450858D01*
X230257Y450000D01*
X230428Y449142D01*
X230507Y449023D01*
Y441550D01*
X227150D01*
Y436450D01*
X238350D01*
Y441550D01*
X234993D01*
Y450250D01*
X234822Y451108D01*
X234336Y451836D01*
X233608Y452322D01*
X232750Y452493D01*
D02*
G37*
G36*
X317764Y422500D02*
X312539D01*
Y419441D01*
X317764D01*
Y422500D01*
D02*
G37*
G36*
X311539D02*
X306315D01*
Y419441D01*
X311539D01*
Y422500D01*
D02*
G37*
G36*
X317764Y426559D02*
X312539D01*
Y423500D01*
X317764D01*
Y426559D01*
D02*
G37*
G36*
X311539D02*
X306315D01*
Y423500D01*
X311539D01*
Y426559D01*
D02*
G37*
%LPD*%
D10*
X782000Y113654D02*
D03*
Y120346D02*
D03*
X773500Y113654D02*
D03*
Y120346D02*
D03*
X211000Y357347D02*
D03*
Y350654D02*
D03*
X790500Y120346D02*
D03*
Y113654D02*
D03*
X798500Y120346D02*
D03*
Y113654D02*
D03*
X806500Y120346D02*
D03*
Y113654D02*
D03*
X814500Y120346D02*
D03*
Y113654D02*
D03*
D11*
X781500Y128244D02*
D03*
Y133756D02*
D03*
X773500Y128244D02*
D03*
Y133756D02*
D03*
X210000Y276244D02*
D03*
Y281756D02*
D03*
X587000Y126756D02*
D03*
Y121244D02*
D03*
X572500Y143744D02*
D03*
Y149256D02*
D03*
D12*
X237653Y310000D02*
D03*
X244346D02*
D03*
X228346Y306000D02*
D03*
X221654D02*
D03*
X221654Y316000D02*
D03*
X228346D02*
D03*
X213347Y338000D02*
D03*
X206653D02*
D03*
X193654Y358000D02*
D03*
X200346D02*
D03*
X193654Y349000D02*
D03*
X200346D02*
D03*
X342653Y311500D02*
D03*
X349346D02*
D03*
X303354Y328200D02*
D03*
X310047D02*
D03*
X575846Y115000D02*
D03*
X569153D02*
D03*
X554846Y140000D02*
D03*
X548153D02*
D03*
X561846Y120000D02*
D03*
X555154D02*
D03*
D13*
X185000Y293693D02*
D03*
Y280307D02*
D03*
Y341693D02*
D03*
Y328307D02*
D03*
X587000Y135307D02*
D03*
Y148693D02*
D03*
D14*
X222500Y330300D02*
D03*
X227500D02*
D03*
X232500D02*
D03*
X237500D02*
D03*
Y349700D02*
D03*
X232500D02*
D03*
X227500D02*
D03*
X222500D02*
D03*
D15*
X765957Y133600D02*
D03*
X763398D02*
D03*
X760839D02*
D03*
X758280D02*
D03*
X755720D02*
D03*
X753161D02*
D03*
X750602D02*
D03*
X748043D02*
D03*
Y111400D02*
D03*
X750602D02*
D03*
X753161D02*
D03*
X755720D02*
D03*
X758280D02*
D03*
X760839D02*
D03*
X763398D02*
D03*
X765957D02*
D03*
D16*
X445000Y385000D02*
D03*
Y421000D02*
D03*
X447500D02*
D03*
X450000D02*
D03*
X452500D02*
D03*
X455000D02*
D03*
X457500D02*
D03*
X460000D02*
D03*
X462500D02*
D03*
X465000D02*
D03*
X467500D02*
D03*
X470000D02*
D03*
X472500D02*
D03*
X475000D02*
D03*
X477500D02*
D03*
X480000D02*
D03*
X482500D02*
D03*
X485000D02*
D03*
X487500D02*
D03*
X490000D02*
D03*
X492500D02*
D03*
X495000D02*
D03*
X497500D02*
D03*
X500000D02*
D03*
X502500D02*
D03*
Y385000D02*
D03*
X500000D02*
D03*
X497500D02*
D03*
X495000D02*
D03*
X492500D02*
D03*
X490000D02*
D03*
X487500D02*
D03*
X485000D02*
D03*
X482500D02*
D03*
X480000D02*
D03*
X477500D02*
D03*
X475000D02*
D03*
X472500D02*
D03*
X470000D02*
D03*
X467500D02*
D03*
X465000D02*
D03*
X462500D02*
D03*
X460000D02*
D03*
X457500D02*
D03*
X455000D02*
D03*
X452500D02*
D03*
X450000D02*
D03*
X447500D02*
D03*
X360000D02*
D03*
Y421000D02*
D03*
X362500D02*
D03*
X365000D02*
D03*
X367500D02*
D03*
X370000D02*
D03*
X372500D02*
D03*
X375000D02*
D03*
X377500D02*
D03*
X380000D02*
D03*
X382500D02*
D03*
X385000D02*
D03*
X387500D02*
D03*
X390000D02*
D03*
X392500D02*
D03*
X395000D02*
D03*
X397500D02*
D03*
X400000D02*
D03*
X402500D02*
D03*
X405000D02*
D03*
X407500D02*
D03*
X410000D02*
D03*
X412500D02*
D03*
X415000D02*
D03*
X417500D02*
D03*
Y385000D02*
D03*
X415000D02*
D03*
X412500D02*
D03*
X410000D02*
D03*
X407500D02*
D03*
X405000D02*
D03*
X402500D02*
D03*
X400000D02*
D03*
X397500D02*
D03*
X395000D02*
D03*
X392500D02*
D03*
X390000D02*
D03*
X387500D02*
D03*
X385000D02*
D03*
X382500D02*
D03*
X380000D02*
D03*
X377500D02*
D03*
X375000D02*
D03*
X372500D02*
D03*
X370000D02*
D03*
X367500D02*
D03*
X365000D02*
D03*
X362500D02*
D03*
X420000Y205000D02*
D03*
Y169000D02*
D03*
X417500D02*
D03*
X415000D02*
D03*
X412500D02*
D03*
X410000D02*
D03*
X407500D02*
D03*
X405000D02*
D03*
X402500D02*
D03*
X400000D02*
D03*
X397500D02*
D03*
X395000D02*
D03*
X392500D02*
D03*
X390000D02*
D03*
X387500D02*
D03*
X385000D02*
D03*
X382500D02*
D03*
X380000D02*
D03*
X377500D02*
D03*
X375000D02*
D03*
X372500D02*
D03*
X370000D02*
D03*
X367500D02*
D03*
X365000D02*
D03*
X362500D02*
D03*
Y205000D02*
D03*
X365000D02*
D03*
X367500D02*
D03*
X370000D02*
D03*
X372500D02*
D03*
X375000D02*
D03*
X377500D02*
D03*
X380000D02*
D03*
X382500D02*
D03*
X385000D02*
D03*
X387500D02*
D03*
X390000D02*
D03*
X392500D02*
D03*
X395000D02*
D03*
X397500D02*
D03*
X400000D02*
D03*
X402500D02*
D03*
X405000D02*
D03*
X407500D02*
D03*
X410000D02*
D03*
X412500D02*
D03*
X415000D02*
D03*
X417500D02*
D03*
X500000D02*
D03*
Y169000D02*
D03*
X497500D02*
D03*
X495000D02*
D03*
X492500D02*
D03*
X490000D02*
D03*
X487500D02*
D03*
X485000D02*
D03*
X482500D02*
D03*
X480000D02*
D03*
X477500D02*
D03*
X475000D02*
D03*
X472500D02*
D03*
X470000D02*
D03*
X467500D02*
D03*
X465000D02*
D03*
X462500D02*
D03*
X460000D02*
D03*
X457500D02*
D03*
X455000D02*
D03*
X452500D02*
D03*
X450000D02*
D03*
X447500D02*
D03*
X445000D02*
D03*
X442500D02*
D03*
Y205000D02*
D03*
X445000D02*
D03*
X447500D02*
D03*
X450000D02*
D03*
X452500D02*
D03*
X455000D02*
D03*
X457500D02*
D03*
X460000D02*
D03*
X462500D02*
D03*
X465000D02*
D03*
X467500D02*
D03*
X470000D02*
D03*
X472500D02*
D03*
X475000D02*
D03*
X477500D02*
D03*
X480000D02*
D03*
X482500D02*
D03*
X485000D02*
D03*
X487500D02*
D03*
X490000D02*
D03*
X492500D02*
D03*
X495000D02*
D03*
X497500D02*
D03*
D17*
X320000Y320000D02*
D03*
X335000Y298000D02*
D03*
X330000D02*
D03*
X325000D02*
D03*
X320000D02*
D03*
X325000Y320000D02*
D03*
X330000D02*
D03*
X335000D02*
D03*
D18*
X576250Y123700D02*
D03*
X568750D02*
D03*
Y133300D02*
D03*
X572500D02*
D03*
X576250D02*
D03*
D19*
X206252Y404000D02*
D03*
X187748D02*
D03*
X187748Y377000D02*
D03*
X206252D02*
D03*
D20*
X222750Y268950D02*
D03*
X225250D02*
D03*
X227750D02*
D03*
X230250D02*
D03*
X232750D02*
D03*
X235250D02*
D03*
X237750D02*
D03*
X240250D02*
D03*
X242750D02*
D03*
X245250D02*
D03*
Y289050D02*
D03*
X242750D02*
D03*
X240250D02*
D03*
X237750D02*
D03*
X235250D02*
D03*
X232750D02*
D03*
X230250D02*
D03*
X227750D02*
D03*
X225250D02*
D03*
X222750D02*
D03*
D21*
X311500Y197500D02*
D03*
X275500D02*
D03*
Y200000D02*
D03*
Y202500D02*
D03*
Y205000D02*
D03*
Y207500D02*
D03*
Y210000D02*
D03*
Y212500D02*
D03*
Y215000D02*
D03*
Y217500D02*
D03*
Y220000D02*
D03*
Y222500D02*
D03*
Y225000D02*
D03*
Y227500D02*
D03*
Y230000D02*
D03*
Y232500D02*
D03*
Y235000D02*
D03*
Y237500D02*
D03*
Y240000D02*
D03*
Y242500D02*
D03*
Y245000D02*
D03*
Y247500D02*
D03*
Y250000D02*
D03*
Y252500D02*
D03*
Y255000D02*
D03*
X311500D02*
D03*
Y252500D02*
D03*
Y250000D02*
D03*
Y247500D02*
D03*
Y245000D02*
D03*
Y242500D02*
D03*
Y240000D02*
D03*
Y237500D02*
D03*
Y235000D02*
D03*
Y232500D02*
D03*
Y230000D02*
D03*
Y227500D02*
D03*
Y225000D02*
D03*
Y222500D02*
D03*
Y220000D02*
D03*
Y217500D02*
D03*
Y215000D02*
D03*
Y212500D02*
D03*
Y210000D02*
D03*
Y207500D02*
D03*
Y205000D02*
D03*
Y202500D02*
D03*
Y200000D02*
D03*
X535000Y360000D02*
D03*
X571000D02*
D03*
Y357500D02*
D03*
Y355000D02*
D03*
Y352500D02*
D03*
Y350000D02*
D03*
Y347500D02*
D03*
Y345000D02*
D03*
Y342500D02*
D03*
Y340000D02*
D03*
Y337500D02*
D03*
Y335000D02*
D03*
Y332500D02*
D03*
Y330000D02*
D03*
Y327500D02*
D03*
Y325000D02*
D03*
Y322500D02*
D03*
Y320000D02*
D03*
Y317500D02*
D03*
Y315000D02*
D03*
Y312500D02*
D03*
Y310000D02*
D03*
Y307500D02*
D03*
Y305000D02*
D03*
Y302500D02*
D03*
X535000D02*
D03*
Y305000D02*
D03*
Y307500D02*
D03*
Y310000D02*
D03*
Y312500D02*
D03*
Y315000D02*
D03*
Y317500D02*
D03*
Y320000D02*
D03*
Y322500D02*
D03*
Y325000D02*
D03*
Y327500D02*
D03*
Y330000D02*
D03*
Y332500D02*
D03*
Y335000D02*
D03*
Y337500D02*
D03*
Y340000D02*
D03*
Y342500D02*
D03*
Y345000D02*
D03*
Y347500D02*
D03*
Y350000D02*
D03*
Y352500D02*
D03*
Y355000D02*
D03*
Y357500D02*
D03*
Y292000D02*
D03*
X571000D02*
D03*
Y289500D02*
D03*
Y287000D02*
D03*
Y284500D02*
D03*
Y282000D02*
D03*
Y279500D02*
D03*
Y277000D02*
D03*
Y274500D02*
D03*
Y272000D02*
D03*
Y269500D02*
D03*
Y267000D02*
D03*
Y264500D02*
D03*
Y262000D02*
D03*
Y259500D02*
D03*
Y257000D02*
D03*
Y254500D02*
D03*
Y252000D02*
D03*
Y249500D02*
D03*
Y247000D02*
D03*
Y244500D02*
D03*
Y242000D02*
D03*
Y239500D02*
D03*
Y237000D02*
D03*
Y234500D02*
D03*
X535000D02*
D03*
Y237000D02*
D03*
Y239500D02*
D03*
Y242000D02*
D03*
Y244500D02*
D03*
Y247000D02*
D03*
Y249500D02*
D03*
Y252000D02*
D03*
Y254500D02*
D03*
Y257000D02*
D03*
Y259500D02*
D03*
Y262000D02*
D03*
Y264500D02*
D03*
Y267000D02*
D03*
Y269500D02*
D03*
Y272000D02*
D03*
Y274500D02*
D03*
Y277000D02*
D03*
Y279500D02*
D03*
Y282000D02*
D03*
Y284500D02*
D03*
Y287000D02*
D03*
Y289500D02*
D03*
D22*
X607000Y262000D02*
D03*
Y258850D02*
D03*
Y255701D02*
D03*
Y252551D02*
D03*
Y249402D02*
D03*
Y246252D02*
D03*
Y243102D02*
D03*
Y239953D02*
D03*
Y236803D02*
D03*
Y230504D02*
D03*
Y227354D02*
D03*
Y224205D02*
D03*
Y221055D02*
D03*
Y214756D02*
D03*
Y211606D02*
D03*
Y208457D02*
D03*
Y205307D02*
D03*
Y202157D02*
D03*
Y199008D02*
D03*
Y195858D02*
D03*
Y192709D02*
D03*
Y189559D02*
D03*
Y186409D02*
D03*
Y183260D02*
D03*
Y180110D02*
D03*
Y176961D02*
D03*
Y173811D02*
D03*
Y170661D02*
D03*
Y167512D02*
D03*
Y164362D02*
D03*
X656606D02*
D03*
Y167512D02*
D03*
Y170661D02*
D03*
Y173811D02*
D03*
Y176961D02*
D03*
Y180110D02*
D03*
Y183260D02*
D03*
Y186409D02*
D03*
Y192709D02*
D03*
Y195858D02*
D03*
Y199008D02*
D03*
Y202157D02*
D03*
Y205307D02*
D03*
Y208457D02*
D03*
Y211606D02*
D03*
Y214756D02*
D03*
Y217906D02*
D03*
Y221055D02*
D03*
Y224205D02*
D03*
Y227354D02*
D03*
Y230504D02*
D03*
Y233654D02*
D03*
Y236803D02*
D03*
Y239953D02*
D03*
Y243102D02*
D03*
Y246252D02*
D03*
Y249402D02*
D03*
Y252551D02*
D03*
Y255701D02*
D03*
Y262000D02*
D03*
Y258850D02*
D03*
Y189559D02*
D03*
X607000Y217906D02*
D03*
Y233654D02*
D03*
X688000Y262000D02*
D03*
Y258850D02*
D03*
Y255701D02*
D03*
Y252551D02*
D03*
Y249402D02*
D03*
Y246252D02*
D03*
Y243102D02*
D03*
Y239953D02*
D03*
Y236803D02*
D03*
Y230504D02*
D03*
Y227354D02*
D03*
Y224205D02*
D03*
Y221055D02*
D03*
Y214756D02*
D03*
Y211606D02*
D03*
Y208457D02*
D03*
Y205307D02*
D03*
Y202157D02*
D03*
Y199008D02*
D03*
Y195858D02*
D03*
Y192709D02*
D03*
Y189559D02*
D03*
Y186409D02*
D03*
Y183260D02*
D03*
Y180110D02*
D03*
Y176961D02*
D03*
Y173811D02*
D03*
Y170661D02*
D03*
Y167512D02*
D03*
Y164362D02*
D03*
X737606D02*
D03*
Y167512D02*
D03*
Y170661D02*
D03*
Y173811D02*
D03*
Y176961D02*
D03*
Y180110D02*
D03*
Y183260D02*
D03*
Y186409D02*
D03*
Y192709D02*
D03*
Y195858D02*
D03*
Y199008D02*
D03*
Y202157D02*
D03*
Y205307D02*
D03*
Y208457D02*
D03*
Y211606D02*
D03*
Y214756D02*
D03*
Y217906D02*
D03*
Y221055D02*
D03*
Y224205D02*
D03*
Y227354D02*
D03*
Y230504D02*
D03*
Y233654D02*
D03*
Y236803D02*
D03*
Y239953D02*
D03*
Y243102D02*
D03*
Y246252D02*
D03*
Y249402D02*
D03*
Y252551D02*
D03*
Y255701D02*
D03*
Y262000D02*
D03*
Y258850D02*
D03*
Y189559D02*
D03*
X688000Y217906D02*
D03*
Y233654D02*
D03*
D23*
X368500Y354000D02*
D03*
X499209D02*
D03*
Y352031D02*
D03*
Y350063D02*
D03*
Y348094D02*
D03*
Y346126D02*
D03*
Y344157D02*
D03*
Y342189D02*
D03*
Y340220D02*
D03*
Y338252D02*
D03*
Y336283D02*
D03*
Y334315D02*
D03*
Y332346D02*
D03*
Y330378D02*
D03*
Y328409D02*
D03*
Y326441D02*
D03*
Y324472D02*
D03*
Y322504D02*
D03*
Y320535D02*
D03*
Y318567D02*
D03*
Y316598D02*
D03*
Y314630D02*
D03*
Y312661D02*
D03*
Y310693D02*
D03*
Y308724D02*
D03*
Y306756D02*
D03*
Y304787D02*
D03*
Y302819D02*
D03*
Y300850D02*
D03*
Y298882D02*
D03*
Y296913D02*
D03*
Y294945D02*
D03*
Y292976D02*
D03*
Y291008D02*
D03*
Y289039D02*
D03*
Y287071D02*
D03*
Y285102D02*
D03*
Y283134D02*
D03*
Y281165D02*
D03*
Y279197D02*
D03*
Y277228D02*
D03*
Y275260D02*
D03*
Y273291D02*
D03*
Y271323D02*
D03*
Y269354D02*
D03*
Y267386D02*
D03*
Y265417D02*
D03*
Y263449D02*
D03*
Y261480D02*
D03*
Y259512D02*
D03*
Y257543D02*
D03*
Y255575D02*
D03*
Y253606D02*
D03*
Y251638D02*
D03*
Y249669D02*
D03*
Y247701D02*
D03*
Y245732D02*
D03*
Y243764D02*
D03*
Y241795D02*
D03*
Y239827D02*
D03*
Y237858D02*
D03*
X368500D02*
D03*
Y239827D02*
D03*
Y241795D02*
D03*
Y243764D02*
D03*
Y245732D02*
D03*
Y247701D02*
D03*
Y249669D02*
D03*
Y251638D02*
D03*
Y253606D02*
D03*
Y255575D02*
D03*
Y257543D02*
D03*
Y259512D02*
D03*
Y261480D02*
D03*
Y263449D02*
D03*
Y265417D02*
D03*
Y267386D02*
D03*
Y269354D02*
D03*
Y271323D02*
D03*
Y273291D02*
D03*
Y275260D02*
D03*
Y277228D02*
D03*
Y279197D02*
D03*
Y281165D02*
D03*
Y283134D02*
D03*
Y285102D02*
D03*
Y287071D02*
D03*
Y289039D02*
D03*
Y291008D02*
D03*
Y292976D02*
D03*
Y294945D02*
D03*
Y296913D02*
D03*
Y298882D02*
D03*
Y300850D02*
D03*
Y302819D02*
D03*
Y304787D02*
D03*
Y306756D02*
D03*
Y308724D02*
D03*
Y310693D02*
D03*
Y312661D02*
D03*
Y314630D02*
D03*
Y316598D02*
D03*
Y318567D02*
D03*
Y320535D02*
D03*
Y322504D02*
D03*
Y324472D02*
D03*
Y326441D02*
D03*
Y328409D02*
D03*
Y330378D02*
D03*
Y332346D02*
D03*
Y334315D02*
D03*
Y336283D02*
D03*
Y338252D02*
D03*
Y340220D02*
D03*
Y342189D02*
D03*
Y344157D02*
D03*
Y346126D02*
D03*
Y348094D02*
D03*
Y350063D02*
D03*
Y352032D02*
D03*
D24*
X491925Y361283D02*
D03*
X489957D02*
D03*
X487988D02*
D03*
X486020D02*
D03*
X484051D02*
D03*
X482083D02*
D03*
X480114D02*
D03*
X478146D02*
D03*
X476177D02*
D03*
X474209D02*
D03*
X472240D02*
D03*
X470272D02*
D03*
X468303D02*
D03*
X466335D02*
D03*
X464366D02*
D03*
X462398D02*
D03*
X460429D02*
D03*
X458461D02*
D03*
X456492D02*
D03*
X454524D02*
D03*
X452555D02*
D03*
X450587D02*
D03*
X448618D02*
D03*
X446650D02*
D03*
X444681D02*
D03*
X442713D02*
D03*
X440744D02*
D03*
X438776D02*
D03*
X436807D02*
D03*
X434839D02*
D03*
X432870D02*
D03*
X430902D02*
D03*
X428933D02*
D03*
X426965D02*
D03*
X424996D02*
D03*
X423028D02*
D03*
X421059D02*
D03*
X419091D02*
D03*
X417122D02*
D03*
X415154D02*
D03*
X413185D02*
D03*
X411217D02*
D03*
X409248D02*
D03*
X407280Y361284D02*
D03*
X405311Y361283D02*
D03*
X403343D02*
D03*
X401374D02*
D03*
X399406D02*
D03*
X397437D02*
D03*
X395469D02*
D03*
X393500D02*
D03*
X391532D02*
D03*
X389563D02*
D03*
X387594D02*
D03*
X385626D02*
D03*
X383657D02*
D03*
X381689D02*
D03*
X379720D02*
D03*
X377752D02*
D03*
X375783D02*
D03*
X491925Y230575D02*
D03*
X489957D02*
D03*
X487988D02*
D03*
X486020D02*
D03*
X484051D02*
D03*
X482083D02*
D03*
X480114D02*
D03*
X478146D02*
D03*
X476177D02*
D03*
X474209D02*
D03*
X472240D02*
D03*
X470272D02*
D03*
X468303D02*
D03*
X466335D02*
D03*
X464366D02*
D03*
X462398D02*
D03*
X460429D02*
D03*
X458461D02*
D03*
X456492D02*
D03*
X454524D02*
D03*
X452555D02*
D03*
X450587D02*
D03*
X448618D02*
D03*
X446650D02*
D03*
X444681D02*
D03*
X442713D02*
D03*
X440744D02*
D03*
X438776D02*
D03*
X436807D02*
D03*
X434839D02*
D03*
X432870D02*
D03*
X430902D02*
D03*
X428933D02*
D03*
X426965D02*
D03*
X424996D02*
D03*
X423028D02*
D03*
X421059D02*
D03*
X419091D02*
D03*
X417122D02*
D03*
X415154D02*
D03*
X413185D02*
D03*
X411217D02*
D03*
X409248D02*
D03*
X407280D02*
D03*
X405311D02*
D03*
X403343D02*
D03*
X401374D02*
D03*
X399406D02*
D03*
X397437D02*
D03*
X395469D02*
D03*
X393500D02*
D03*
X391532D02*
D03*
X389563D02*
D03*
X387595D02*
D03*
X385626D02*
D03*
X383657D02*
D03*
X381689D02*
D03*
X379720D02*
D03*
X377752D02*
D03*
X375783D02*
D03*
D25*
X293000Y460961D02*
D03*
Y481039D02*
D03*
D26*
X311039Y395000D02*
D03*
X290961D02*
D03*
X312039Y423000D02*
D03*
X291961D02*
D03*
D27*
X598500Y124563D02*
D03*
Y132437D02*
D03*
D28*
X232750Y490000D02*
D03*
Y472000D02*
D03*
Y457000D02*
D03*
Y439000D02*
D03*
Y420000D02*
D03*
Y402000D02*
D03*
D29*
X258600Y481000D02*
D03*
Y448000D02*
D03*
Y411000D02*
D03*
D30*
X728000Y126000D02*
D03*
D31*
X726032D02*
D03*
X724063D02*
D03*
X722095D02*
D03*
X720126D02*
D03*
X718158D02*
D03*
X716189D02*
D03*
X714221D02*
D03*
X712252D02*
D03*
X710284D02*
D03*
X708315D02*
D03*
X706347D02*
D03*
X704378D02*
D03*
X702410D02*
D03*
X700441D02*
D03*
X698473D02*
D03*
X696504D02*
D03*
X694536D02*
D03*
X692567D02*
D03*
X690599D02*
D03*
X688700D02*
D03*
X686732D02*
D03*
X684763D02*
D03*
X682795D02*
D03*
X680826D02*
D03*
X678858D02*
D03*
X676889D02*
D03*
X674921D02*
D03*
X672952D02*
D03*
X670984D02*
D03*
X669015D02*
D03*
X667047D02*
D03*
X665078D02*
D03*
X663110D02*
D03*
X661141D02*
D03*
X659173D02*
D03*
X657204D02*
D03*
X655236D02*
D03*
X653267D02*
D03*
X651299D02*
D03*
D32*
X276921Y298890D02*
D03*
X297000D02*
D03*
X276921Y317000D02*
D03*
D33*
X297000D02*
D03*
D34*
X548153Y129500D02*
D03*
X554846D02*
D03*
D35*
X196000Y444291D02*
D03*
Y455709D02*
D03*
D36*
X245756Y301000D02*
D03*
X240244D02*
D03*
X245244Y340000D02*
D03*
X250756D02*
D03*
D37*
X673300Y239900D02*
X680800D01*
X331700Y410200D02*
X342400D01*
X325150Y403650D02*
X331700Y410200D01*
X542900Y348979D02*
X545900Y345979D01*
Y342200D02*
Y345979D01*
X541500Y337800D02*
X545900Y342200D01*
X455800Y158300D02*
X460500D01*
X451700Y162400D02*
X455800Y158300D01*
X460500D02*
X465000Y162800D01*
X622500Y300100D02*
X634700D01*
X639000Y295800D01*
X585700Y160015D02*
X596357Y149357D01*
X226900Y464700D02*
X275700D01*
X222900Y468700D02*
X226900Y464700D01*
X151500Y220000D02*
X161000Y229500D01*
X219200D01*
X236700Y212000D01*
X262800Y276100D02*
X272400Y266500D01*
X262800Y276100D02*
Y295700D01*
X713900Y142200D02*
X728500D01*
X755600Y244600D02*
Y262400D01*
X748100Y269900D02*
X755600Y262400D01*
X741800Y269900D02*
X748100D01*
X276921Y339800D02*
Y379621D01*
Y317000D02*
Y339800D01*
X284321Y332400D01*
X312698D01*
X320000Y320000D02*
Y325098D01*
X312698Y332400D02*
X320000Y325098D01*
X319800Y308100D02*
X325000Y313300D01*
X302700Y291000D02*
X319800Y308100D01*
X310047Y317853D02*
X319800Y308100D01*
X310047Y317853D02*
Y328200D01*
X372761Y197361D02*
X376071Y194050D01*
X297000Y265500D02*
Y285300D01*
X293500Y262000D02*
X297000Y265500D01*
X564500Y310500D02*
X565500D01*
X560550Y314450D02*
X564500Y310500D01*
X540850Y310050D02*
X545450Y314650D01*
X540800Y310000D02*
X542050Y308750D01*
X346700Y400800D02*
Y419700D01*
X460429Y254471D02*
X462500Y252400D01*
X456900Y258000D02*
X460429Y254471D01*
X465333Y252400D02*
X472200Y245533D01*
Y239544D02*
Y245533D01*
X462500Y252400D02*
X465333D01*
X511800Y216500D02*
X511900D01*
X523300Y227900D01*
X463800Y248700D02*
X465800Y246700D01*
Y239544D02*
Y246700D01*
X406900Y260200D02*
X416800Y250300D01*
Y239400D02*
Y250300D01*
X412500Y198000D02*
X417000Y193500D01*
X446800D01*
X450300Y197000D01*
X410000Y414550D02*
X415500Y409050D01*
X446429D01*
X451379Y414000D01*
X452700D01*
X540550Y410550D02*
X548000Y418000D01*
X501071Y410550D02*
X540550D01*
X498121Y413500D02*
X501071Y410550D01*
X495000Y413500D02*
X498121D01*
X713000Y471000D02*
X720400Y463600D01*
X775511D01*
X778111Y461000D01*
X779000D01*
X302700Y291000D02*
X327100D01*
X297000Y285300D02*
X302700Y291000D01*
X297000Y285300D02*
Y298890D01*
X325000Y313300D02*
Y320000D01*
X327100Y291000D02*
X330000Y293900D01*
Y298000D01*
X330800D02*
X334200D01*
X276921Y379621D02*
X277400Y380100D01*
X214654Y357347D02*
X214662Y357339D01*
X211000Y357347D02*
X214654D01*
X688000Y152700D02*
X689700Y151000D01*
X688000Y152700D02*
Y163200D01*
X616300Y155000D02*
Y155062D01*
X607631Y163731D02*
X616300Y155062D01*
X607100Y138100D02*
X648900D01*
X601700Y143500D02*
X607100Y138100D01*
X652300Y154800D02*
X656606Y159106D01*
Y163800D01*
X648900Y138100D02*
X653267Y133733D01*
Y129750D02*
Y133733D01*
X312039Y423000D02*
X343400D01*
X346700Y419700D01*
X399000Y339000D02*
X407600Y330400D01*
Y316800D02*
Y330400D01*
X401700Y310900D02*
X407600Y316800D01*
X401700Y265800D02*
Y310900D01*
X463100Y265800D02*
X469600Y259300D01*
X401700Y265800D02*
X463100D01*
X545450Y314650D02*
Y318929D01*
X541500Y322879D02*
X545450Y318929D01*
X788656Y133756D02*
X788700Y133800D01*
X781500Y133756D02*
X788656D01*
X707900Y131000D02*
X718876D01*
X737606Y161494D02*
X738600Y160500D01*
X737606Y161494D02*
Y163500D01*
X472000Y121000D02*
X482000D01*
X460600Y109600D02*
X472000Y121000D01*
X404500Y109600D02*
X460600D01*
X258500Y262000D02*
X293500D01*
X304400Y219800D02*
Y235221D01*
X301050Y243450D02*
X304200Y246600D01*
X304400D01*
X301050Y238571D02*
Y243450D01*
Y238571D02*
X304400Y235221D01*
X300850Y216250D02*
X304400Y219800D01*
X300850Y211071D02*
Y216250D01*
Y211071D02*
X304200Y207721D01*
Y205000D02*
Y207721D01*
X282500Y219400D02*
Y235121D01*
X282900Y246500D02*
X285950Y243450D01*
Y238571D02*
Y243450D01*
X282500Y235121D02*
X285950Y238571D01*
X282500Y219400D02*
X286050Y215850D01*
Y210971D02*
Y215850D01*
X282500Y207421D02*
X286050Y210971D01*
X282500Y205000D02*
Y207421D01*
Y205000D02*
X304200D01*
X465000Y162800D02*
X477600D01*
X481350Y159050D01*
X486429D01*
X489779Y162400D01*
X492500D01*
X460544Y193544D02*
X465100Y198100D01*
X477500D01*
X456223Y193544D02*
X460544D01*
X452767Y197000D02*
X456223Y193544D01*
X450300Y197000D02*
X452767D01*
X372121Y176000D02*
X376071Y179950D01*
X382879Y176000D02*
X399621D01*
X376071Y179950D02*
X378929D01*
X382879Y176000D01*
X399621D02*
X403571Y179950D01*
X406429D01*
X410179Y176200D01*
X412500D01*
X397500Y198100D02*
X397600Y198000D01*
X399621D01*
X385000D02*
X397600D01*
X382879D02*
X385000D01*
X376071Y194050D02*
X378929D01*
X382879Y198000D01*
X399621D02*
X403571Y194050D01*
X406429D01*
X410379Y198000D01*
X412500D01*
X190000Y377000D02*
X200000Y367000D01*
X245244Y333244D02*
Y340000D01*
X187748Y404000D02*
X192000D01*
X222400Y374000D01*
X210000Y285000D02*
X214050Y289050D01*
X222000D01*
X210000Y281756D02*
Y285000D01*
Y276244D02*
X217294Y268950D01*
X222000D01*
X200000Y367000D02*
X228311D01*
X245000Y350000D02*
X245244Y349756D01*
Y340000D02*
Y349756D01*
X228311Y367000D02*
X245000Y350311D01*
Y350000D02*
Y350311D01*
X243000Y331000D02*
X245244Y333244D01*
X238000Y331000D02*
X243000D01*
X222400Y349800D02*
Y356800D01*
Y349800D02*
X222500Y349700D01*
X258600Y262100D02*
Y411000D01*
X258500Y262000D02*
X258600Y262100D01*
X204000Y281756D02*
X210000D01*
X177000Y398500D02*
X182500Y404000D01*
X187748D01*
X177000Y346000D02*
Y398500D01*
Y346000D02*
X181307Y341693D01*
X185000D01*
Y272500D02*
Y280307D01*
Y356000D02*
Y366500D01*
X187748Y369248D01*
Y377000D01*
X196000Y455709D02*
X198459D01*
X198750Y456000D02*
X208000D01*
X198459Y455709D02*
X198750Y456000D01*
X232750Y490000D01*
X208000Y444750D02*
Y456000D01*
Y444750D02*
X232750Y420000D01*
X187500Y377248D02*
Y390500D01*
Y377248D02*
X187748Y377000D01*
X161000Y435000D02*
X172000Y424000D01*
Y390500D02*
Y424000D01*
X142000Y456000D02*
X161000Y475000D01*
X142000Y422889D02*
Y456000D01*
Y422889D02*
X146089Y418800D01*
X155911D01*
X157200Y420089D01*
Y430032D01*
X154800Y432432D02*
X157200Y430032D01*
X154800Y432432D02*
Y438300D01*
X157700Y441200D01*
X171200D01*
X187748Y424652D01*
Y404000D02*
Y424652D01*
X208000Y456000D02*
X209000Y457000D01*
X232750D01*
X292961Y481000D02*
X293000Y481039D01*
X196000Y455709D02*
Y460500D01*
X151000Y425000D02*
Y455000D01*
X232750Y472000D02*
Y484000D01*
X258600Y481000D02*
X277000D01*
X292961D01*
X279000Y448000D02*
X291961Y435039D01*
Y423000D02*
Y435039D01*
X232500Y450000D02*
X232750Y450250D01*
Y439000D02*
Y450250D01*
X258600Y448000D02*
X275000D01*
X279000D01*
X232500Y402250D02*
Y413500D01*
Y402250D02*
X232750Y402000D01*
X312039Y396000D02*
Y423000D01*
X311039Y395000D02*
X312039Y396000D01*
X311039Y383539D02*
Y395000D01*
X298000Y370500D02*
X311039Y383539D01*
X293000Y460961D02*
X312039Y441921D01*
Y423000D02*
Y424787D01*
Y441921D02*
X329173D01*
X330567Y443315D01*
X312039Y424787D02*
X329173Y441921D01*
X293000Y481039D02*
X310461D01*
X310500Y481000D01*
X291961Y423000D02*
X303000Y411961D01*
Y409500D02*
Y411961D01*
X457756Y197244D02*
Y199756D01*
X157843Y185559D02*
X167685Y175717D01*
Y116661D02*
Y175717D01*
X242843Y126504D02*
Y185559D01*
Y126504D02*
X252685Y116661D01*
X233000Y175717D02*
X242843Y185559D01*
X167685Y175717D02*
X233000D01*
X790500Y120346D02*
X798500D01*
X806500D01*
X814500D01*
X773500Y128244D02*
X781500D01*
X773500Y120346D02*
Y128244D01*
X782000Y120346D02*
X790500D01*
X773500Y120346D02*
X782000D01*
X760356D02*
X773500D01*
X753202Y127500D02*
X760356Y120346D01*
X696453Y239953D02*
X696500Y240000D01*
X773500Y133756D02*
X781500D01*
X767000D02*
X773500D01*
X543000Y269500D02*
X545950Y272450D01*
Y280950D01*
X542400Y284500D02*
X545950Y280950D01*
X560300Y280700D02*
X561800Y282200D01*
X560300Y273500D02*
Y280700D01*
Y273500D02*
X564300Y269500D01*
X559806Y246421D02*
X561700Y244527D01*
X559806Y252406D02*
X564400Y257000D01*
X559806Y246421D02*
Y252406D01*
X561700Y244200D02*
Y244527D01*
X542700Y257000D02*
X543800D01*
X545450Y255350D01*
Y245450D02*
Y255350D01*
X564300Y257100D02*
Y269500D01*
Y257100D02*
X564400Y257000D01*
X543000Y257300D02*
Y269500D01*
X542700Y257000D02*
X543000Y257300D01*
X563200Y349079D02*
Y350700D01*
X560550Y346429D02*
X563200Y349079D01*
X560550Y341550D02*
Y346429D01*
Y341550D02*
X564600Y337500D01*
Y326700D02*
Y337500D01*
X542900Y348979D02*
Y350900D01*
X541500Y322879D02*
Y326900D01*
Y337800D01*
X544200Y244200D02*
X561700D01*
X542000Y242000D02*
X544200Y244200D01*
X545450Y245450D01*
X560550Y318929D02*
X564600Y322979D01*
Y326700D01*
X560550Y314450D02*
Y318929D01*
X403929Y410550D02*
X407879Y414500D01*
X401071Y410550D02*
X403929D01*
X397421Y414200D02*
X401071Y410550D01*
X376429D02*
X380079Y414200D01*
X373571Y410550D02*
X376429D01*
X370321Y413800D02*
X373571Y410550D01*
X380079Y414200D02*
X397421D01*
X397500Y392000D02*
X400950Y395450D01*
X376429D02*
X379879Y392000D01*
X397500D01*
X373571Y395450D02*
X376429D01*
X371550Y393429D02*
X373571Y395450D01*
X369911Y391790D02*
X371550Y393429D01*
X371550D01*
X400950Y395450D02*
X406650D01*
X410000Y392100D01*
Y414550D01*
X492379Y413500D02*
X495000D01*
X488929Y410050D02*
X492379Y413500D01*
X486071Y410050D02*
X488929D01*
X484050Y412071D02*
X486071Y410050D01*
X484050Y412071D02*
Y412250D01*
X482100Y414200D02*
X484050Y412250D01*
X461429Y410050D02*
X465579Y414200D01*
X458571Y410050D02*
X461429D01*
X454621Y414000D02*
X458571Y410050D01*
X452700Y414000D02*
X454621D01*
X467500Y414300D02*
X467600Y414200D01*
X465579D02*
X467600D01*
X482100D01*
X461429Y395450D02*
X464879Y392000D01*
X458571Y395450D02*
X461429D01*
X455121Y392000D02*
X458571Y395450D01*
X452500Y392000D02*
X455121D01*
X464879D02*
X480000D01*
X488929Y395950D02*
X492479Y392400D01*
X485950Y395950D02*
X488929D01*
X482000Y392000D02*
X485950Y395950D01*
X480000Y392000D02*
X482000D01*
X492479Y392400D02*
X495000D01*
X542400Y284500D02*
Y308400D01*
X696500Y240000D02*
Y261000D01*
X695500Y262000D02*
X696500Y261000D01*
X97500Y480500D02*
Y501500D01*
X118500D01*
X873000Y98000D02*
Y119000D01*
X852000Y97000D02*
X873000D01*
X97500Y97500D02*
Y118500D01*
Y97500D02*
X118500D01*
X873000Y481000D02*
Y502000D01*
X852000D02*
X873000D01*
D38*
X679000Y157576D02*
Y229600D01*
X668300Y240300D02*
X679000Y229600D01*
X668300Y240300D02*
Y243608D01*
X666736Y239664D02*
Y242664D01*
X663148Y246252D02*
X666736Y242664D01*
X656606Y246252D02*
X663148D01*
X659357Y252551D02*
X668300Y243608D01*
X677500Y156954D02*
Y228900D01*
X666736Y239664D02*
X677500Y228900D01*
X656606Y252551D02*
X659357D01*
X362753Y346126D02*
X368500D01*
X360000Y348879D02*
X362753Y346126D01*
X362600Y344157D02*
X368500D01*
X358000Y348757D02*
X362600Y344157D01*
X362252Y338252D02*
X368500D01*
X357350Y333350D02*
X362252Y338252D01*
X357350Y310527D02*
Y333350D01*
X362178Y330378D02*
X368500D01*
X358850Y327050D02*
X362178Y330378D01*
X363448Y298882D02*
X368500D01*
X358066Y293500D02*
X363448Y298882D01*
X361787Y304787D02*
X368500D01*
X359500Y302500D02*
X361787Y304787D01*
X363230Y314630D02*
X368500D01*
X362400Y313800D02*
X363230Y314630D01*
X362400Y309213D02*
Y313800D01*
X378661Y312661D02*
X379000Y313000D01*
X368500Y312661D02*
X378661D01*
X375776Y308724D02*
X378500Y306000D01*
X368500Y308724D02*
X375776D01*
X360959Y271323D02*
X368500D01*
X345886Y256250D02*
X360959Y271323D01*
X362774Y275260D02*
X368500D01*
X344386Y256871D02*
X362774Y275260D01*
X363668Y279197D02*
X368500D01*
X342886Y258415D02*
X363668Y279197D01*
X363515Y281165D02*
X368500D01*
X341386Y259036D02*
X363515Y281165D01*
X363363Y283134D02*
X368500D01*
X339886Y259657D02*
X363363Y283134D01*
X363295Y300850D02*
X368500D01*
X358445Y296000D02*
X363295Y300850D01*
X351500Y293500D02*
X358066D01*
X360473Y300150D02*
X363142Y302819D01*
X354500Y296000D02*
X358445D01*
X357650Y300150D02*
X360473D01*
X363142Y302819D02*
X368500D01*
X361148Y259512D02*
X368500D01*
X352000Y250364D02*
X361148Y259512D01*
X361301Y257543D02*
X368500D01*
X353500Y249743D02*
X361301Y257543D01*
X361606Y253606D02*
X368500D01*
X356500Y248500D02*
X361606Y253606D01*
X438776Y225346D02*
X450471Y213650D01*
X438776Y225346D02*
Y230575D01*
X450471Y213650D02*
X450550D01*
X452500Y205000D02*
Y209500D01*
X439000Y223000D02*
X452500Y209500D01*
X430000Y223000D02*
X439000D01*
X451163Y215150D02*
X451171D01*
X447150Y219163D02*
X451163Y215150D01*
X447150Y219163D02*
Y219171D01*
X451784Y216650D02*
X451793D01*
X448650Y219784D02*
X451784Y216650D01*
X448650Y219784D02*
Y219793D01*
X450150Y220405D02*
Y220414D01*
Y220405D02*
X452405Y218150D01*
X452414D01*
X453027Y219650D02*
X453035D01*
X451650Y221027D02*
X453027Y219650D01*
X451650Y221027D02*
Y221035D01*
X440744Y225577D02*
X447150Y219171D01*
X442713Y225730D02*
X448650Y219793D01*
X448618Y221946D02*
X450150Y220414D01*
X450587Y222099D02*
X451650Y221035D01*
X450587Y222099D02*
Y230575D01*
X448618Y221946D02*
Y230575D01*
X442713Y225730D02*
Y230575D01*
X440744Y225577D02*
Y230575D01*
X480046Y223954D02*
Y230506D01*
Y223954D02*
X481900Y222100D01*
X484400D01*
X482400Y186500D02*
X519000D01*
X470000Y174100D02*
X482400Y186500D01*
X470000Y169000D02*
Y174100D01*
X484300Y183100D02*
X525600D01*
X475000Y173800D02*
X484300Y183100D01*
X475000Y170200D02*
Y173800D01*
X488500Y180100D02*
X532600D01*
X482500Y174100D02*
X488500Y180100D01*
X482500Y169600D02*
Y174100D01*
X487300Y181600D02*
X529100D01*
X480000Y174300D02*
X487300Y181600D01*
X480000Y170200D02*
Y174300D01*
X473100Y192500D02*
X505500D01*
X455000Y174400D02*
X473100Y192500D01*
X455000Y169000D02*
Y174400D01*
X472600Y194300D02*
X490477D01*
X452500Y174200D02*
X472600Y194300D01*
X452500Y169000D02*
Y174200D01*
X605800Y267000D02*
X628151D01*
X575800Y237000D02*
X605800Y267000D01*
X571000Y237000D02*
X575800D01*
X604800Y268500D02*
X628772D01*
X575800Y239500D02*
X604800Y268500D01*
X571000Y239500D02*
X575800D01*
X571000Y244500D02*
X575321D01*
X600821Y270000D01*
X629393D01*
X600200Y271500D02*
X630015D01*
X575700Y247000D02*
X600200Y271500D01*
X571000Y247000D02*
X575700D01*
X596600Y273000D02*
X630636D01*
X575600Y252000D02*
X596600Y273000D01*
X571000Y252000D02*
X575600D01*
X595700Y274500D02*
X631257D01*
X575700Y254500D02*
X595700Y274500D01*
X571000Y254500D02*
X575700D01*
X592400Y276000D02*
X631879D01*
X575900Y259500D02*
X592400Y276000D01*
X571000Y259500D02*
X575900D01*
X591300Y277500D02*
X632500D01*
X575800Y262000D02*
X591300Y277500D01*
X571000Y262000D02*
X575800D01*
X590300Y279000D02*
X711000D01*
X575800Y264500D02*
X590300Y279000D01*
X571000Y264500D02*
X575800D01*
X589100Y280500D02*
X711621D01*
X575600Y267000D02*
X589100Y280500D01*
X571000Y267000D02*
X575600D01*
X585700Y282000D02*
X712243D01*
X575700Y272000D02*
X585700Y282000D01*
X571000Y272000D02*
X575700D01*
X584600Y283500D02*
X712864D01*
X575600Y274500D02*
X584600Y283500D01*
X571000Y274500D02*
X575600D01*
X579300Y288000D02*
X714728D01*
X578300Y287000D02*
X579300Y288000D01*
X571000Y287000D02*
X578300D01*
X582300Y285000D02*
X713485D01*
X576800Y279500D02*
X582300Y285000D01*
X571000Y279500D02*
X576800D01*
X580000Y286500D02*
X714107D01*
X575500Y282000D02*
X580000Y286500D01*
X571000Y282000D02*
X575500D01*
X507273Y398550D02*
X548500Y357323D01*
X546600Y302700D02*
X548500Y304600D01*
Y357323D01*
X530000Y315000D02*
X535000D01*
X524939Y309939D02*
X530000Y315000D01*
X530400Y312500D02*
X535000D01*
X526500Y308600D02*
X530400Y312500D01*
X526500Y302500D02*
Y308600D01*
X524939Y303439D02*
Y309939D01*
X530400Y305000D02*
X535000D01*
X529900Y304500D02*
X530400Y305000D01*
X529900Y295400D02*
Y304500D01*
X530200Y307500D02*
X535000D01*
X528400Y305700D02*
X530200Y307500D01*
X528400Y301900D02*
Y305700D01*
X575400Y357500D02*
X577900Y360000D01*
X571000Y357500D02*
X575400D01*
X577900Y360000D02*
X652000D01*
X506600Y277500D02*
X514500D01*
X504903Y279197D02*
X506600Y277500D01*
X499209Y279197D02*
X504903D01*
X507600Y279000D02*
X513500D01*
X505435Y281165D02*
X507600Y279000D01*
X499209Y281165D02*
X505435D01*
X515287Y304787D02*
X515500Y305000D01*
X499209Y304787D02*
X515287D01*
X510048Y308724D02*
X512224D01*
X509973Y308650D02*
X510048Y308724D01*
X508027Y308650D02*
X509973D01*
X507952Y308724D02*
X508027Y308650D01*
X499209Y308724D02*
X507952D01*
X512224D02*
X512500Y309000D01*
X486020Y367641D02*
X497500Y379121D01*
X486020Y361283D02*
Y367641D01*
X484051Y367794D02*
X492500Y376243D01*
X484051Y361283D02*
Y367794D01*
X478146Y368252D02*
X482500Y372607D01*
X478146Y361283D02*
Y368252D01*
X480114Y368099D02*
X485000Y372985D01*
X480114Y361283D02*
Y368099D01*
X482083Y367947D02*
X490000Y375864D01*
X482083Y361283D02*
Y367947D01*
X487988Y367488D02*
X500000Y379500D01*
X485000Y372985D02*
Y385000D01*
X482500Y372607D02*
Y385000D01*
X487988Y361283D02*
Y367488D01*
X464366Y368488D02*
X472500Y376621D01*
X464366Y361283D02*
Y368488D01*
X462398Y368640D02*
X470000Y376243D01*
X462398Y361283D02*
Y368640D01*
X460429Y368793D02*
X465000Y373364D01*
X460429Y361283D02*
Y368793D01*
X450587Y368329D02*
X455000Y372743D01*
X450587Y361283D02*
Y368329D01*
X452555Y368177D02*
X457500Y373121D01*
X452555Y361283D02*
Y368177D01*
X413185Y361283D02*
Y371485D01*
X413463Y371763D01*
X404700Y378500D02*
X407280Y375920D01*
Y361284D02*
Y375920D01*
X372500Y377982D02*
X379720Y370762D01*
Y361283D02*
Y370762D01*
X377500Y375103D02*
X381689Y370915D01*
Y361283D02*
Y370915D01*
X380000Y375000D02*
X383657Y371343D01*
Y361283D02*
Y371343D01*
X395469Y367869D02*
X401000Y373400D01*
X395469Y361283D02*
Y367869D01*
X444100Y472700D02*
X461700D01*
X397500Y426100D02*
X444100Y472700D01*
X397500Y421000D02*
Y426100D01*
X441000Y474200D02*
X453200D01*
X392500Y425700D02*
X441000Y474200D01*
X392500Y421000D02*
Y425700D01*
X443053Y479053D02*
X443700Y479700D01*
X443053Y478321D02*
Y479053D01*
X440679Y475947D02*
X443053Y478321D01*
X439947Y475947D02*
X440679D01*
X390000Y426000D02*
X439947Y475947D01*
X443700Y479700D02*
X448300D01*
X390000Y421000D02*
Y426000D01*
X375783Y361283D02*
Y368817D01*
X365000Y379600D02*
X375783Y368817D01*
X365000Y379600D02*
Y385000D01*
X477687Y453387D02*
X645387D01*
X450000Y425700D02*
X477687Y453387D01*
X450000Y421000D02*
Y425700D01*
X476600Y455000D02*
X641500D01*
X447500Y425900D02*
X476600Y455000D01*
X447500Y421000D02*
Y425900D01*
X356500Y239979D02*
Y248500D01*
X311500Y200000D02*
X316521D01*
X356500Y239979D01*
X355000Y240600D02*
Y249121D01*
X316900Y202500D02*
X355000Y240600D01*
X311500Y202500D02*
X316900D01*
X359500Y238579D02*
Y242879D01*
X307513Y195600D02*
X316521D01*
X359500Y238579D01*
X358000Y239200D02*
Y243500D01*
X316300Y197500D02*
X358000Y239200D01*
X311500Y197500D02*
X316300D01*
X271300Y200000D02*
X275500D01*
X270400Y199100D02*
X271300Y200000D01*
X270400Y196713D02*
Y199100D01*
X270900Y202500D02*
X275500D01*
X268900Y200500D02*
X270900Y202500D01*
X268900Y196092D02*
Y200500D01*
X270000Y207500D02*
X275500D01*
X267400Y204900D02*
X270000Y207500D01*
X267400Y195470D02*
Y204900D01*
X269500Y210000D02*
X275500D01*
X265900Y206400D02*
X269500Y210000D01*
X265900Y189900D02*
Y206400D01*
X270300Y215000D02*
X275500D01*
X264400Y209100D02*
X270300Y215000D01*
X264400Y178600D02*
Y209100D01*
X270400Y217500D02*
X275500D01*
X262900Y210000D02*
X270400Y217500D01*
X262900Y172569D02*
Y210000D01*
X439600Y141500D02*
X497857D01*
X417500Y163600D02*
X439600Y141500D01*
X417500Y163600D02*
Y169000D01*
X438800Y140000D02*
X497236D01*
X415000Y163800D02*
X438800Y140000D01*
X415000Y163800D02*
Y169000D01*
X445000Y205000D02*
Y209600D01*
X434600Y220000D02*
X445000Y209600D01*
X423500Y220000D02*
X434600D01*
X447500Y205000D02*
Y210000D01*
X436000Y221500D02*
X447500Y210000D01*
X427500Y221500D02*
X436000D01*
X450550Y213650D02*
X455000Y209200D01*
X455343Y213100D02*
X458900D01*
X451793Y216650D02*
X455343Y213100D01*
X456564Y216121D02*
X463379D01*
X451171Y215150D02*
X454721Y211600D01*
X452414Y218150D02*
X455943Y214621D01*
X453035Y219650D02*
X456564Y216121D01*
X455943Y214621D02*
X462279D01*
X454721Y211600D02*
X457900D01*
X455000Y205000D02*
Y209200D01*
X460000Y205000D02*
Y209500D01*
X457900Y211600D02*
X460000Y209500D01*
X462500Y205000D02*
Y209500D01*
X458900Y213100D02*
X462500Y209500D01*
X467500Y205000D02*
Y209400D01*
X462279Y214621D02*
X467500Y209400D01*
X470000Y205000D02*
Y209500D01*
X463379Y216121D02*
X470000Y209500D01*
X472500Y205000D02*
Y209500D01*
X464366Y217634D02*
X472500Y209500D01*
X464366Y217634D02*
Y230575D01*
X475185Y217600D02*
X481500D01*
X474564Y216100D02*
X480600D01*
X473943Y214600D02*
X477400D01*
X474209Y218577D02*
X475185Y217600D01*
X474209Y218577D02*
Y230575D01*
X472240Y218424D02*
Y230575D01*
Y218424D02*
X474564Y216100D01*
X470272Y218271D02*
X473943Y214600D01*
X470272Y218271D02*
Y230575D01*
X473321Y213100D02*
X476300D01*
X468303Y218118D02*
X473321Y213100D01*
X468303Y218118D02*
Y230575D01*
X475000Y205000D02*
Y209300D01*
X466335Y217965D02*
X475000Y209300D01*
X466335Y217965D02*
Y230575D01*
X480000Y205000D02*
Y209400D01*
X476300Y213100D02*
X480000Y209400D01*
X482500Y205000D02*
Y209500D01*
X477400Y214600D02*
X482500Y209500D01*
X487500Y205000D02*
Y209200D01*
X480600Y216100D02*
X487500Y209200D01*
X490000Y205000D02*
Y209100D01*
X481500Y217600D02*
X490000Y209100D01*
X491350Y210250D02*
X493550D01*
X482500Y219100D02*
X491350Y210250D01*
X478400Y219100D02*
X482500D01*
X495000Y205000D02*
Y208800D01*
X493550Y210250D02*
X495000Y208800D01*
X497500Y205000D02*
Y209100D01*
X494600Y212000D02*
X497500Y209100D01*
X492000Y212000D02*
X494600D01*
X498100Y174100D02*
X500787D01*
X497500Y173500D02*
X498100Y174100D01*
X497500Y172700D02*
Y173500D01*
X497000Y175600D02*
X501408D01*
X495000Y173600D02*
X497000Y175600D01*
X495000Y170200D02*
Y173600D01*
X493279Y178600D02*
X536100D01*
X487500Y169600D02*
Y172821D01*
X493279Y178600D01*
X493900Y177100D02*
X502030D01*
X490000Y173200D02*
X493900Y177100D01*
X490000Y169000D02*
Y173200D01*
X478600Y189500D02*
X512000D01*
X462500Y173400D02*
X478600Y189500D01*
X462500Y172387D02*
Y173400D01*
X447500Y158500D02*
Y169000D01*
Y158500D02*
X461500Y144500D01*
X497550Y194050D02*
X533000Y229500D01*
X490727Y194050D02*
X497550D01*
X490477Y194300D02*
X490727Y194050D01*
X651900Y145200D02*
X665078Y132022D01*
Y126000D02*
Y132022D01*
X652536Y146700D02*
X667047Y132189D01*
Y126000D02*
Y132189D01*
X671500Y154469D02*
X678858Y147111D01*
Y126000D02*
Y147111D01*
X714221Y122357D02*
Y126000D01*
X697864Y106000D02*
X714221Y122357D01*
X702410Y146410D02*
X704000Y148000D01*
X702410Y126000D02*
Y146410D01*
X700441Y146562D02*
X703379Y149500D01*
X700441Y126000D02*
Y146562D01*
X698473Y146715D02*
X702757Y151000D01*
X698473Y126000D02*
Y146715D01*
X696504Y147004D02*
X702000Y152500D01*
X696504Y126000D02*
Y147004D01*
X694536Y147157D02*
X701379Y154000D01*
X694536Y126000D02*
Y147157D01*
X692567Y147567D02*
X700500Y155500D01*
X692567Y126000D02*
Y147567D01*
X690599Y147720D02*
X699879Y157000D01*
X690599Y126000D02*
Y147720D01*
X674500Y155711D02*
X682795Y147417D01*
Y126000D02*
Y147417D01*
X676000Y156333D02*
X684763Y147570D01*
Y126000D02*
Y147570D01*
X677500Y156954D02*
X686732Y147723D01*
Y126000D02*
Y147723D01*
X679000Y157576D02*
X688700Y147875D01*
Y126000D02*
Y147875D01*
X379854Y332346D02*
X380800Y331400D01*
X368500Y332346D02*
X379854D01*
X232016Y310342D02*
Y310816D01*
X235250Y289050D02*
Y307108D01*
X232016Y310342D02*
X235250Y307108D01*
X230250Y289050D02*
Y293450D01*
X221700Y302000D02*
X230250Y293450D01*
X200000Y302000D02*
X221700D01*
X358850Y309905D02*
Y327050D01*
X531236Y106000D02*
X697864D01*
X531857Y107500D02*
X697243D01*
X532479Y109000D02*
X696621D01*
X497236Y140000D02*
X531236Y106000D01*
X497857Y141500D02*
X531857Y107500D01*
X498479Y143000D02*
X532479Y109000D01*
X460879Y143000D02*
X498479D01*
X533100Y110500D02*
X696000D01*
X499100Y144500D02*
X533100Y110500D01*
X461500Y144500D02*
X499100D01*
X299753Y328100D02*
X303200D01*
X334000Y360500D02*
X356600Y383100D01*
X358100Y388987D02*
X360000Y390887D01*
X356700Y389708D02*
Y438048D01*
X356600Y389608D02*
X356700Y389708D01*
X356600Y383100D02*
Y389608D01*
X358100Y382479D02*
Y388987D01*
X358000Y382379D02*
X358100Y382479D01*
X358000Y348757D02*
Y382379D01*
X351433Y443315D02*
X356700Y438048D01*
X362500Y356100D02*
Y385000D01*
X361800Y355400D02*
X362500Y356100D01*
X361800Y349200D02*
Y355400D01*
Y349200D02*
X362906Y348094D01*
X417500Y414000D02*
Y421000D01*
X417100Y413600D02*
X417500Y414000D01*
X417000Y393600D02*
Y396300D01*
Y393600D02*
X427100Y383500D01*
Y361419D02*
Y383500D01*
X417500Y377600D02*
Y385000D01*
X327700Y306753D02*
Y328753D01*
X320000Y299053D02*
X327700Y306753D01*
X320000Y298000D02*
Y299053D01*
X329200Y308200D02*
X331000Y310000D01*
X329200Y305079D02*
Y308200D01*
X325000Y300879D02*
X329200Y305079D01*
X325000Y298000D02*
Y300879D01*
X327700Y328753D02*
X331447Y332500D01*
X641500Y212000D02*
X651343Y202157D01*
X623050Y250800D02*
X623675D01*
X615000Y258850D02*
X623050Y250800D01*
X667850Y258850D02*
X688000D01*
X667100Y259600D02*
X667850Y258850D01*
X608692Y140700D02*
X649979D01*
X591463Y157929D02*
X608692Y140700D01*
X609313Y142200D02*
X650600D01*
X592963Y158550D02*
X609313Y142200D01*
X609934Y143700D02*
X651279D01*
X594463Y159171D02*
X609934Y143700D01*
X611798Y148200D02*
X653157D01*
X598963Y161035D02*
X611798Y148200D01*
X612420Y149700D02*
X653779D01*
X600463Y161657D02*
X612420Y149700D01*
X613041Y151200D02*
X654400D01*
X601963Y162278D02*
X613041Y151200D01*
X597463Y160414D02*
X611177Y146700D01*
X652536D01*
X595963Y159793D02*
X610556Y145200D01*
X651900D01*
X649979Y140700D02*
X659173Y131506D01*
X650600Y142200D02*
X661141Y131659D01*
X651279Y143700D02*
X663110Y131869D01*
X653157Y148200D02*
X669015Y132342D01*
X653779Y149700D02*
X670984Y132495D01*
X654400Y151200D02*
X672952Y132648D01*
X661141Y126000D02*
Y131659D01*
X663110Y126000D02*
Y131869D01*
X669015Y126000D02*
Y132342D01*
X670984Y126000D02*
Y132495D01*
X672952Y126000D02*
Y132648D01*
X659173Y126000D02*
Y131506D01*
X611088Y167512D02*
X616500Y162100D01*
X607000Y167512D02*
X611088D01*
X405000Y421000D02*
Y430300D01*
X407500Y421000D02*
Y430679D01*
X412500Y421000D02*
Y433557D01*
X426965Y361283D02*
X427100Y361419D01*
X417500Y377600D02*
X419300Y375800D01*
X422321D01*
X425600Y372521D01*
Y369979D02*
Y372521D01*
X423028Y367406D02*
X425600Y369979D01*
X423028Y361283D02*
Y367406D01*
X412500Y375500D02*
Y385000D01*
Y375500D02*
X413700Y374300D01*
X421700D01*
X424100Y371900D01*
Y370600D02*
Y371900D01*
X421059Y367559D02*
X424100Y370600D01*
X421059Y361283D02*
Y367559D01*
X419091Y369091D02*
X421300Y371300D01*
X417122Y361283D02*
Y371522D01*
X409248Y361283D02*
Y376073D01*
X407361Y384861D02*
X407500Y385000D01*
X407361Y377961D02*
Y384861D01*
Y377961D02*
X409248Y376073D01*
X404700Y384700D02*
X405000Y385000D01*
X404700Y378500D02*
Y384700D01*
X403343Y361283D02*
Y369343D01*
X397500Y379200D02*
Y385000D01*
Y379200D02*
X401000Y375700D01*
Y373400D02*
Y375700D01*
X394900Y375300D02*
Y378000D01*
X391532Y371932D02*
X394900Y375300D01*
X396925Y374825D02*
X398500D01*
X393500Y371400D02*
X396925Y374825D01*
X393500Y361283D02*
Y371400D01*
X387594Y361283D02*
Y372237D01*
X389563Y361283D02*
Y372084D01*
X392500Y375021D01*
X387594Y372237D02*
X389900Y374543D01*
Y384900D01*
X392500Y375021D02*
Y385000D01*
X391532Y361283D02*
Y371932D01*
X389900Y384900D02*
X390000Y385000D01*
X385000Y373400D02*
Y385000D01*
Y373400D02*
X385904Y372496D01*
Y361561D02*
Y372496D01*
X380000Y375000D02*
Y385200D01*
X412500Y433557D02*
X447143Y468200D01*
X487200D01*
X499000Y480000D01*
X478700Y469700D02*
X489000Y480000D01*
X446521Y469700D02*
X478700D01*
X407500Y430679D02*
X446521Y469700D01*
X470200Y471200D02*
X479000Y480000D01*
X445900Y471200D02*
X470200D01*
X461700Y472700D02*
X469000Y480000D01*
X453200Y474200D02*
X459000Y480000D01*
X405000Y430300D02*
X445900Y471200D01*
X479617Y451883D02*
X652117D01*
X455000Y427266D02*
X479617Y451883D01*
X455000Y421000D02*
Y427266D01*
X480238Y450383D02*
X643617D01*
X457500Y427644D02*
X480238Y450383D01*
X457500Y421000D02*
Y427644D01*
X480883Y448883D02*
X640026D01*
X462500Y430500D02*
X480883Y448883D01*
X462500Y421000D02*
Y430500D01*
X481504Y447383D02*
X636617D01*
X465000Y430879D02*
X481504Y447383D01*
X465000Y421000D02*
Y430879D01*
X482126Y445883D02*
X633026D01*
X470000Y433757D02*
X482126Y445883D01*
X470000Y421000D02*
Y433757D01*
X482747Y444383D02*
X629617D01*
X472500Y434136D02*
X482747Y444383D01*
X472500Y421000D02*
Y434136D01*
X483368Y442883D02*
X626026D01*
X475000Y434515D02*
X483368Y442883D01*
X475000Y421000D02*
Y434515D01*
X483989Y441383D02*
X622617D01*
X477500Y434893D02*
X483989Y441383D01*
X477500Y421000D02*
Y434893D01*
X385000Y421000D02*
Y426000D01*
X380000Y421000D02*
Y431000D01*
X438300Y256800D02*
X448400Y246700D01*
X430300Y256800D02*
X438300D01*
X428200Y254700D02*
X430300Y256800D01*
X445100Y254600D02*
X451000D01*
X448400Y239900D02*
Y246700D01*
Y239900D02*
X452555Y235745D01*
X458461Y230575D02*
Y247139D01*
X451000Y254600D02*
X458461Y247139D01*
X452555Y230575D02*
Y235745D01*
X454750Y398550D02*
X507273D01*
X454200Y399100D02*
X454750Y398550D01*
X447500Y392400D02*
X454200Y399100D01*
X447500Y385000D02*
Y392400D01*
X368500Y296913D02*
X394500D01*
X368500Y322504D02*
X403504D01*
X753161Y111400D02*
Y117039D01*
X752800Y117400D02*
X753161Y117039D01*
Y111400D02*
X753200Y111361D01*
X752800Y117400D02*
Y118200D01*
X748043Y126457D02*
X758500Y116000D01*
X704378Y145878D02*
X705000Y146500D01*
X704378Y126000D02*
Y145878D01*
X699879Y157000D02*
X744651D01*
X700500Y155500D02*
X745272D01*
X701379Y154000D02*
X745893D01*
X702000Y152500D02*
X746515D01*
X702757Y151000D02*
X747136D01*
X703379Y149500D02*
X747757D01*
X704000Y148000D02*
X748379D01*
X705000Y146500D02*
X749000D01*
X744651Y157000D02*
X750189Y162539D01*
X745272Y155500D02*
X751689Y161917D01*
X745893Y154000D02*
X753189Y161296D01*
X746515Y152500D02*
X754689Y160675D01*
X747136Y151000D02*
X756189Y160053D01*
X747757Y149500D02*
X757689Y159432D01*
X748379Y148000D02*
X759189Y158811D01*
X749000Y146500D02*
X761000Y158500D01*
X377947Y119321D02*
X392769Y104500D01*
X445000Y158879D02*
X460879Y143000D01*
X445000Y158879D02*
Y169000D01*
X148000Y312000D02*
X171000D01*
X237750Y283250D02*
Y289050D01*
Y283250D02*
X238000Y283000D01*
X225250Y283250D02*
Y289050D01*
X225000Y283000D02*
X225250Y283250D01*
X240244Y289056D02*
Y301000D01*
Y289056D02*
X240250Y289050D01*
X237000Y309347D02*
X237653Y310000D01*
X237000Y298000D02*
Y309347D01*
Y298000D02*
X237750Y297250D01*
Y289050D02*
Y297250D01*
X183000Y312000D02*
X200000D01*
X183000D02*
X185000Y314000D01*
Y328307D01*
X171000Y312000D02*
X183000D01*
X185000Y310000D01*
Y293693D02*
Y310000D01*
X242750Y279250D02*
Y289050D01*
Y279250D02*
X243000Y279000D01*
X245250Y280750D02*
X247000Y279000D01*
X245250Y280750D02*
Y289050D01*
X221654Y306000D02*
Y316000D01*
X221654Y306000D02*
X221654Y306000D01*
Y316000D02*
X222500Y316846D01*
Y330300D01*
X227500Y316846D02*
X228346Y316000D01*
X227500Y316846D02*
Y330300D01*
X200000Y322000D02*
Y331347D01*
X206653Y338000D01*
X213347D02*
X224000D01*
X227500Y334500D01*
Y330300D02*
Y334500D01*
X206653Y350654D02*
X211000D01*
X205000Y349000D02*
X206653Y350654D01*
X200346Y349000D02*
X205000D01*
X200346Y358000D02*
X205000D01*
X208000Y361000D01*
X226000D01*
X232500Y354500D01*
Y349700D02*
Y354500D01*
X211000Y350654D02*
X221654Y340000D01*
X227000D01*
X232500Y334500D01*
Y330300D02*
Y334500D01*
X222000Y373000D02*
X222400Y374000D01*
X227000Y349200D02*
X227500Y349700D01*
X225000Y359500D02*
X227000Y357500D01*
X220500Y359500D02*
X225000D01*
X215000Y354000D02*
X220500Y359500D01*
X194346Y354000D02*
X215000D01*
X193347Y353000D02*
X194346Y354000D01*
X193347Y349307D02*
Y353000D01*
Y358000D01*
X227000Y349200D02*
Y357500D01*
X237500Y338500D02*
Y349700D01*
X235000Y336000D02*
X237500Y338500D01*
X235000Y319346D02*
Y336000D01*
Y319346D02*
X244346Y310000D01*
X232750Y289050D02*
Y301596D01*
X228346Y306000D02*
X232750Y301596D01*
X235250Y285250D02*
Y289050D01*
X253500Y252500D02*
X275500D01*
X242750Y263250D02*
X253500Y252500D01*
X242750Y263250D02*
Y268950D01*
X252879Y251000D02*
X253000D01*
X240250Y263629D02*
Y268950D01*
Y263629D02*
X252879Y251000D01*
X253000D02*
X254000Y250000D01*
X275500D01*
X256000Y245000D02*
X275500D01*
X237750Y263250D02*
X256000Y245000D01*
X237750Y263250D02*
Y268950D01*
X255500Y242500D02*
X275500D01*
X235250Y262750D02*
X255500Y242500D01*
X235250Y262750D02*
Y268950D01*
X257500Y237500D02*
X275500D01*
X232750Y262250D02*
X257500Y237500D01*
X232750Y262250D02*
Y268950D01*
X231250Y261629D02*
Y261750D01*
X257879Y235000D02*
X275500D01*
X231250Y261629D02*
X257879Y235000D01*
X230250Y262750D02*
X231250Y261750D01*
X230250Y262750D02*
Y268950D01*
X260000Y230000D02*
X275500D01*
X227750Y262250D02*
X260000Y230000D01*
X227750Y262250D02*
Y268950D01*
X259500Y227500D02*
X275500D01*
X225250Y261750D02*
X259500Y227500D01*
X225250Y261750D02*
Y268950D01*
X362500Y421000D02*
Y463500D01*
X379000Y480000D01*
X365000Y421000D02*
Y456000D01*
X389000Y480000D01*
X370000Y421000D02*
Y451000D01*
X399000Y480000D01*
X372500Y421000D02*
Y443500D01*
X409000Y480000D01*
X377500Y421000D02*
Y438500D01*
X419000Y480000D01*
X380000Y431000D02*
X429000Y480000D01*
X385000Y426000D02*
X439000Y480000D01*
X362201Y247701D02*
X368500D01*
X361417Y265417D02*
X368500D01*
X361264Y267386D02*
X368500D01*
X367500Y205000D02*
Y212500D01*
X379720Y224720D01*
Y230575D01*
X372500Y205000D02*
Y215000D01*
X381689Y224189D01*
Y230575D01*
X375000Y205000D02*
Y215000D01*
X383657Y223657D01*
Y230575D01*
X380000Y205000D02*
Y214500D01*
X389563Y224063D01*
Y230575D01*
X382500Y205000D02*
Y214500D01*
X391532Y223532D01*
Y230575D01*
X387500Y205000D02*
Y217000D01*
X393500Y223000D01*
Y230575D01*
X390000Y205000D02*
Y217379D01*
X395000Y222379D01*
Y222500D01*
X395469Y222969D01*
Y230575D01*
X392500Y205000D02*
Y217500D01*
X397437Y222437D01*
Y230575D01*
X395000Y205000D02*
Y217879D01*
X398937Y221816D01*
Y221937D01*
X399406Y222406D01*
Y230575D01*
X400000Y205000D02*
Y218000D01*
X405311Y223311D01*
Y230575D01*
X402500Y205000D02*
Y217000D01*
X409248Y223748D01*
Y230575D01*
X407500Y205000D02*
Y217500D01*
X413185Y223185D01*
Y230575D01*
X410000Y205000D02*
Y217500D01*
X415154Y222654D01*
Y230575D01*
X415000Y205000D02*
Y220379D01*
X416654Y222032D01*
Y222154D01*
X417122Y222622D01*
Y230575D01*
X417500Y205000D02*
Y220500D01*
X419091Y222091D01*
Y230575D01*
X421059Y222441D02*
X423500Y220000D01*
X421059Y222441D02*
Y230575D01*
X426965Y222035D02*
X427500Y221500D01*
X426965Y222035D02*
Y230575D01*
X428933Y224067D02*
X430000Y223000D01*
X428933Y224067D02*
Y230575D01*
X476177Y221323D02*
X478400Y219100D01*
X476177Y221323D02*
Y230575D01*
X478146Y221854D02*
X479400Y220600D01*
X478146Y221854D02*
Y230575D01*
X499209Y269354D02*
X512354D01*
X513571Y287071D02*
X528400Y301900D01*
X499209Y287071D02*
X513571D01*
X513039Y289039D02*
X526500Y302500D01*
X499209Y289039D02*
X513039D01*
X512508Y291008D02*
X524939Y303439D01*
X499209Y291008D02*
X512508D01*
X527500Y320000D02*
X535000D01*
X522130Y314630D02*
X527500Y320000D01*
X499209Y314630D02*
X522130D01*
X527870Y322500D02*
X535000D01*
X521968Y316598D02*
X527870Y322500D01*
X499209Y316598D02*
X521968D01*
X527500Y327500D02*
X535000D01*
X526441Y326441D02*
X527500Y327500D01*
X499209Y326441D02*
X526441D01*
X527500Y330000D02*
X535000D01*
X525909Y328409D02*
X527500Y330000D01*
X499209Y328409D02*
X525909D01*
X527500Y332500D02*
X535000D01*
X525378Y330378D02*
X527500Y332500D01*
X499209Y330378D02*
X525378D01*
X527879Y335000D02*
X535000D01*
X525225Y332346D02*
X527879Y335000D01*
X499209Y332346D02*
X525225D01*
X528500Y340000D02*
X535000D01*
X524783Y336283D02*
X528500Y340000D01*
X499209Y336283D02*
X524783D01*
X526000Y342500D02*
X535000D01*
X523720Y340220D02*
X526000Y342500D01*
X499209Y340220D02*
X523720D01*
X526000Y347500D02*
X535000D01*
X524626Y346126D02*
X526000Y347500D01*
X499209Y346126D02*
X524626D01*
X526379Y350000D02*
X535000D01*
X524473Y348094D02*
X526379Y350000D01*
X499209Y348094D02*
X524473D01*
X385626Y361283D02*
X385904Y361561D01*
X377500Y361535D02*
X377752Y361283D01*
X362906Y348094D02*
X368500D01*
X377500Y375103D02*
Y385000D01*
X372500Y377982D02*
Y385000D01*
X370000Y378361D02*
Y385000D01*
Y378361D02*
X377752Y370609D01*
Y361787D02*
Y370609D01*
X377500Y361535D02*
X377752Y361787D01*
X360000Y348879D02*
Y385000D01*
Y390887D02*
Y421000D01*
X275500Y197500D02*
X305613D01*
X307513Y195600D01*
X362353Y245732D02*
X368500D01*
X358000Y243500D02*
X362201Y247701D01*
X359500Y242879D02*
X362353Y245732D01*
X361454Y255575D02*
X368500D01*
X355000Y249121D02*
X361454Y255575D01*
X353500Y242364D02*
Y249743D01*
X318636Y207500D02*
X353500Y242364D01*
X311500Y207500D02*
X318636D01*
X352000Y242985D02*
Y250364D01*
X319015Y210000D02*
X352000Y242985D01*
X311500Y210000D02*
X319015D01*
X350500Y254500D02*
X361417Y265417D01*
X350500Y243607D02*
Y254500D01*
X321893Y215000D02*
X350500Y243607D01*
X311500Y215000D02*
X321893D01*
X348886Y255007D02*
X361264Y267386D01*
X348886Y244114D02*
Y255007D01*
X322272Y217500D02*
X348886Y244114D01*
X311500Y217500D02*
X322272D01*
X347386Y244735D02*
Y255629D01*
X325151Y222500D02*
X347386Y244735D01*
X311500Y222500D02*
X325151D01*
X361112Y269354D02*
X368500D01*
X347386Y255629D02*
X361112Y269354D01*
X345886Y245357D02*
Y256250D01*
X325529Y225000D02*
X345886Y245357D01*
X311500Y225000D02*
X325529D01*
X344386Y245978D02*
Y256871D01*
X325908Y227500D02*
X344386Y245978D01*
X311500Y227500D02*
X325908D01*
X342886Y246599D02*
Y258415D01*
X326287Y230000D02*
X342886Y246599D01*
X311500Y230000D02*
X326287D01*
X341386Y247221D02*
Y259036D01*
X329166Y235000D02*
X341386Y247221D01*
X311500Y235000D02*
X329166D01*
X339886Y247842D02*
Y259657D01*
X329544Y237500D02*
X339886Y247842D01*
X311500Y237500D02*
X329544D01*
X311500Y242500D02*
X332423D01*
X338386Y248463D01*
X311500Y245000D02*
X332802D01*
X336886Y249084D01*
X363390Y320257D02*
X368222D01*
X368500Y320535D01*
X311500Y250000D02*
X330886D01*
X335386Y254500D01*
X311500Y252500D02*
X331265D01*
X333886Y255121D01*
X365000Y205000D02*
Y232500D01*
X361621Y235879D02*
X365000Y232500D01*
X361621Y235879D02*
Y242621D01*
X362764Y243764D01*
X368500D01*
X270400Y196713D02*
X274113Y193000D01*
X290000D01*
X362000Y121000D01*
X268900Y196092D02*
X273492Y191500D01*
X281500D01*
X352000Y121000D01*
X267400Y195470D02*
X341870Y121000D01*
X342000D01*
X265900Y189900D02*
X332000Y123800D01*
Y121000D02*
Y123800D01*
X264400Y178600D02*
X322000Y121000D01*
X262900Y172569D02*
X275500Y159969D01*
Y157500D02*
Y159969D01*
Y157500D02*
X312000Y121000D01*
X274900Y221900D02*
X275500Y222500D01*
X271513Y221900D02*
X274900D01*
X260050Y152623D02*
X260694Y151979D01*
X271021D01*
X260050Y210437D02*
X271513Y221900D01*
X260050Y152623D02*
Y210437D01*
X271021Y151979D02*
X302000Y121000D01*
X274900Y224400D02*
X275500Y225000D01*
X271513Y224400D02*
X274900D01*
X258549Y211437D02*
X271513Y224400D01*
X258549Y152002D02*
Y211437D01*
Y152002D02*
X289551Y121000D01*
X292000D01*
X641500Y455000D02*
X652000Y465500D01*
X708500D01*
X713000Y461000D01*
X645387Y453387D02*
X653000Y461000D01*
X652117Y451883D02*
X653000Y451000D01*
X643617Y450383D02*
X653000Y441000D01*
X640026Y448883D02*
X651509Y437400D01*
X706600D01*
X713000Y431000D01*
X636617Y447383D02*
X653000Y431000D01*
X633026Y445883D02*
X651509Y427400D01*
X706600D01*
X713000Y421000D01*
X629617Y444383D02*
X653000Y421000D01*
X651509Y417400D02*
X706600D01*
X713000Y411000D01*
X482500Y421000D02*
Y437383D01*
X485000Y439883D01*
X706600Y407400D02*
X713000Y401000D01*
X486762Y437761D02*
X616238D01*
X485000Y436000D02*
X486762Y437761D01*
X485000Y421000D02*
Y436000D01*
X490000Y421000D02*
Y432262D01*
X494000Y436262D01*
X607738D01*
X653000Y391000D01*
X492500Y421000D02*
Y432262D01*
X495000Y434761D01*
X604147D01*
X651509Y387400D01*
X706600D01*
X713000Y381000D01*
X497500Y421000D02*
Y431500D01*
X499262Y433261D01*
X600738D01*
X653000Y381000D01*
X500000Y421000D02*
Y429762D01*
X502000Y431762D01*
X592239D01*
X653000Y371000D01*
X624800Y330000D02*
X649400Y354600D01*
X706600D01*
X713000Y361000D01*
X629500Y327500D02*
X653000Y351000D01*
X628500Y322500D02*
X652500Y346500D01*
X708500D01*
X713000Y351000D01*
X632000Y320000D02*
X653000Y341000D01*
X631000Y315000D02*
X652500Y336500D01*
X708500D01*
X713000Y341000D01*
X631000Y312500D02*
X649500Y331000D01*
X653000D01*
X628500Y307500D02*
X648000Y327000D01*
X709000D01*
X713000Y331000D01*
X628500Y305000D02*
X649000Y325500D01*
X708500D01*
X713000Y321000D01*
X698500Y356500D02*
X713000Y371000D01*
X647500Y356500D02*
X698500D01*
X652000Y360000D02*
X653000Y361000D01*
X713000Y461000D02*
X773909D01*
X780309Y454600D01*
X653000Y461000D02*
X707909D01*
X711509Y457400D01*
X765400D01*
X815400Y437400D02*
X819000Y433800D01*
Y431000D02*
Y433800D01*
X765400Y457400D02*
X776900Y445900D01*
X653000Y451000D02*
X707909D01*
X711509Y454600D01*
X766079D01*
X775400Y439509D02*
X777509Y437400D01*
X800491D01*
X800591Y437500D01*
X805500D01*
X809000Y441000D01*
X775400Y439509D02*
Y445279D01*
X766079Y454600D02*
X775400Y445279D01*
X653000Y441000D02*
X707909D01*
X711509Y444600D01*
X776888Y435900D02*
X804100D01*
X711509Y444600D02*
X768188D01*
X776888Y435900D01*
X804100D02*
X809000Y431000D01*
X653000D02*
X707909D01*
X711509Y427400D01*
X796100D01*
X799000Y430300D01*
Y431000D01*
X713000Y361000D02*
X720000Y368000D01*
Y418900D01*
X726600Y425500D01*
X823500D01*
X829000Y431000D01*
X711521Y357400D02*
X714491D01*
X653000Y351000D02*
X705121D01*
X711521Y357400D01*
X714491D02*
X721500Y364409D01*
Y418279D01*
X727221Y424000D01*
X827091D01*
X839000Y435909D01*
Y441000D01*
X713000Y351000D02*
Y353787D01*
X723000Y363788D01*
Y417657D01*
X727843Y422500D01*
X827713D01*
X840491Y444600D02*
X842600Y442491D01*
X837509Y444600D02*
X840491D01*
X837409Y444500D02*
X837509Y444600D01*
X827713Y422500D02*
X842600Y437388D01*
Y442491D01*
X832500Y444500D02*
X837409D01*
X829000Y441000D02*
X832500Y444500D01*
X653000Y341000D02*
X657000Y345000D01*
X712091D01*
X724500Y357409D01*
Y416500D01*
X729000Y421000D01*
X828334D01*
X844100Y436766D01*
Y443113D01*
X841113Y446100D02*
X844100Y443113D01*
X836887Y446100D02*
X841113D01*
X836788Y446000D02*
X836887Y446100D01*
X834000Y446000D02*
X836788D01*
X829000Y451000D02*
X834000Y446000D01*
X713000Y341000D02*
Y343788D01*
X726000Y356787D01*
Y415879D01*
X729621Y419500D01*
X828955D01*
X845600Y436145D01*
Y455400D01*
X840000Y461000D02*
X845600Y455400D01*
X839000Y461000D02*
X840000D01*
X653000Y331000D02*
X657000Y335000D01*
X712091D01*
X727500Y350409D01*
Y415257D01*
X730243Y418000D01*
X829576D01*
X847100Y435524D01*
Y457991D01*
X840491Y464600D02*
X847100Y457991D01*
X832600Y464600D02*
X840491D01*
X829000Y461000D02*
X832600Y464600D01*
X713000Y331000D02*
Y333787D01*
X729000Y349787D01*
Y414636D01*
X730864Y416500D01*
X830198D01*
X848600Y434902D01*
Y458612D01*
X839000Y468213D02*
X848600Y458612D01*
X839000Y468213D02*
Y471000D01*
X713000Y321000D02*
Y325909D01*
X730500Y343409D01*
Y414015D01*
X731485Y415000D01*
X830819D01*
X850100Y434281D01*
Y464991D01*
X834091Y481000D02*
X850100Y464991D01*
X829000Y481000D02*
X834091D01*
X787509Y447400D02*
X812600D01*
X819000Y441000D01*
X776900Y445900D02*
X811979D01*
X815400Y442479D01*
Y437400D02*
Y442479D01*
X780309Y454600D02*
X780491D01*
X782600Y452491D01*
Y452309D02*
Y452491D01*
Y452309D02*
X787509Y447400D01*
X571000Y355000D02*
X597000D01*
X777509Y467400D02*
X782600D01*
X789000Y461000D01*
X778188Y464600D02*
X780491D01*
X782600Y462491D01*
Y462309D02*
Y462491D01*
Y462309D02*
X787509Y457400D01*
X790491D01*
X800091Y467000D01*
X825000D01*
X829000Y471000D01*
X485000Y439883D02*
X619026D01*
X616238Y437761D02*
X653000Y401000D01*
X651509Y407400D02*
X706600D01*
X619026Y439883D02*
X651509Y407400D01*
X626026Y442883D02*
X651509Y417400D01*
X622617Y441383D02*
X653000Y411000D01*
X597000Y467000D02*
Y488500D01*
X600500Y467500D02*
Y488500D01*
X604000Y467000D02*
Y488500D01*
X597000D02*
X600500Y492000D01*
X758000D01*
X779000Y471000D01*
X600500Y488500D02*
X602500Y490500D01*
X757379D01*
X775400Y472479D01*
Y469509D02*
Y472479D01*
Y469509D02*
X777509Y467400D01*
X604000Y488500D02*
X604500Y489000D01*
X756757D01*
X773900Y471857D01*
Y468888D02*
Y471857D01*
Y468888D02*
X778188Y464600D01*
X656606Y199008D02*
X656614Y199000D01*
X656606Y199008D02*
X659992D01*
X668500Y190500D01*
X656606Y205307D02*
X659357D01*
X670000Y194664D01*
X656606Y214756D02*
X659357D01*
X671500Y202613D01*
X656606Y221055D02*
X656662Y221000D01*
X659500D01*
X673000Y207500D01*
X656606Y230504D02*
X659496D01*
X674500Y215500D01*
X656606Y236803D02*
X659357D01*
X676000Y220160D01*
X601963Y162278D02*
Y196721D01*
X600463Y161657D02*
Y201521D01*
X604249Y205307D01*
X607000D01*
X601963Y196721D02*
X604249Y199008D01*
X607000D01*
X598963Y161035D02*
Y209470D01*
X597463Y160414D02*
Y214269D01*
X595963Y159793D02*
Y222218D01*
X668500Y153226D02*
Y190500D01*
X670000Y153848D02*
Y194664D01*
X671500Y154469D02*
Y202613D01*
X673000Y155090D02*
Y207500D01*
X674500Y155711D02*
Y215500D01*
X676000Y156333D02*
Y220160D01*
X668500Y153226D02*
X674921Y146806D01*
Y126000D02*
Y146806D01*
X670000Y153848D02*
X676889Y146958D01*
Y126000D02*
Y146958D01*
X673000Y155090D02*
X680826Y147264D01*
Y126000D02*
Y147264D01*
X594463Y159171D02*
Y227017D01*
X592963Y158550D02*
Y234966D01*
X591463Y157929D02*
Y239765D01*
X594463Y227017D02*
X604249Y236803D01*
X607000D01*
X595963Y222218D02*
X604249Y230504D01*
X607000D01*
X597463Y214269D02*
X604249Y221055D01*
X607000D01*
X598963Y209470D02*
X604249Y214756D01*
X607000D01*
X592963Y234966D02*
X604249Y246252D01*
X607000D01*
X591463Y239765D02*
X604249Y252551D01*
X607000D01*
X757689Y159432D02*
Y229976D01*
X756189Y160053D02*
Y228000D01*
X754689Y160675D02*
Y219000D01*
X753189Y161296D02*
Y211500D01*
X500000Y379500D02*
Y385000D01*
X497500Y379121D02*
Y385000D01*
X492500Y376243D02*
Y385000D01*
X490000Y375864D02*
Y385000D01*
X477500Y370000D02*
Y385000D01*
X476177Y368677D02*
X477500Y370000D01*
X476177Y361283D02*
Y368677D01*
X475000Y377000D02*
Y385000D01*
X466335Y368335D02*
X475000Y377000D01*
X466335Y361283D02*
Y368335D01*
X472500Y376621D02*
Y385000D01*
X470000Y376243D02*
Y385000D01*
X465000Y373364D02*
Y385000D01*
X462500Y376000D02*
Y385000D01*
X454524Y368024D02*
X462500Y376000D01*
X454524Y361283D02*
Y368024D01*
X457500Y373121D02*
Y385000D01*
X455000Y372743D02*
Y385000D01*
X450000Y371500D02*
Y385000D01*
X448618Y370118D02*
X450000Y371500D01*
X448618Y361283D02*
Y370118D01*
X447500Y375500D02*
Y385000D01*
X440744Y368744D02*
X447500Y375500D01*
X440744Y361283D02*
Y368744D01*
X419091Y361283D02*
Y369091D01*
X512791Y273291D02*
X526500Y287000D01*
X512354Y269354D02*
X525000Y282000D01*
X499209Y273291D02*
X512791D01*
X526500Y287000D02*
X535000D01*
X525000Y282000D02*
X535000D01*
X499209Y265417D02*
X511121D01*
X525102Y279398D01*
X499209Y261480D02*
X511480D01*
X499209Y263449D02*
X511328D01*
X525102Y279398D02*
X534898D01*
X511328Y263449D02*
X522379Y274500D01*
X535000D01*
X511480Y261480D02*
X522000Y272000D01*
X535000D01*
X519561Y267061D02*
X534939D01*
X535000Y267000D01*
X499209Y259512D02*
X512012D01*
X519561Y267061D01*
X499209Y257543D02*
X512543D01*
X519500Y264500D01*
X535000D01*
X499209Y251638D02*
X511638D01*
X522000Y262000D01*
X535000D01*
X499209Y249669D02*
X512669D01*
X522500Y259500D01*
X535000D01*
X499209Y247701D02*
X513201D01*
X520000Y254500D01*
X535000D01*
X500500Y222500D02*
X530000Y252000D01*
X535000D01*
X502379Y219500D02*
X522657Y239779D01*
X503000Y218000D02*
X512500Y227500D01*
X501500Y221000D02*
X527500Y247000D01*
X535000D01*
X522657Y239779D02*
X522779D01*
X527500Y244500D01*
X535000D01*
X512500Y227500D02*
X512621D01*
X524621Y239500D01*
X535000D01*
X504000Y216500D02*
X524500Y237000D01*
X535000D01*
X492500Y222500D02*
X500500D01*
X491925Y223075D02*
X492500Y222500D01*
X491925Y223075D02*
Y230575D01*
X489957Y222786D02*
Y230575D01*
Y222786D02*
X491743Y221000D01*
X501500D01*
X491121Y219500D02*
X502379D01*
X487988Y222633D02*
X491121Y219500D01*
X487988Y222633D02*
Y230575D01*
X486020Y222480D02*
Y230575D01*
Y222480D02*
X490500Y218000D01*
X503000D01*
X484400Y222100D02*
X484520Y221980D01*
Y221859D02*
Y221980D01*
Y221859D02*
X489879Y216500D01*
X504000D01*
X479400Y220600D02*
X483400D01*
X492000Y212000D01*
X726500Y254500D02*
X731598Y249402D01*
X737606D01*
Y252551D02*
X740357D01*
X725000Y250500D02*
X732398Y243102D01*
X737606D01*
X723500Y242000D02*
X731846Y233654D01*
X737606D01*
X722000Y238000D02*
X732646Y227354D01*
X737606D01*
X720500Y229500D02*
X732094Y217906D01*
X737606D01*
X719000Y224500D02*
X731894Y211606D01*
X737606D01*
X717500Y216500D02*
X731843Y202157D01*
X737606D01*
X716000Y211500D02*
X731642Y195858D01*
X737606D01*
X711000Y279000D02*
X716000Y274000D01*
Y211500D02*
Y274000D01*
X711621Y280500D02*
X717500Y274621D01*
X712243Y282000D02*
X719000Y275243D01*
X712864Y283500D02*
X720500Y275864D01*
X713485Y285000D02*
X722000Y276485D01*
X714107Y286500D02*
X723500Y277107D01*
X714728Y288000D02*
X725000Y277728D01*
X715349Y289500D02*
X726500Y278349D01*
X717500Y216500D02*
Y274621D01*
X719000Y224500D02*
Y275243D01*
X720500Y229500D02*
Y275864D01*
X722000Y238000D02*
Y276485D01*
X723500Y242000D02*
Y277107D01*
X725000Y250500D02*
Y277728D01*
X571000Y289500D02*
X715349D01*
X726500Y254500D02*
Y278349D01*
X632500Y277500D02*
X650500Y259500D01*
Y251000D02*
Y259500D01*
Y251000D02*
X652098Y249402D01*
X656606D01*
X631879Y276000D02*
X649000Y258879D01*
Y245500D02*
Y258879D01*
Y245500D02*
X651398Y243102D01*
X656606D01*
X631257Y274500D02*
X647500Y258257D01*
Y237500D02*
Y258257D01*
Y237500D02*
X651346Y233654D01*
X656606D01*
X630636Y273000D02*
X646000Y257636D01*
Y233500D02*
Y257636D01*
Y233500D02*
X652146Y227354D01*
X656606D01*
X630015Y271500D02*
X644500Y257015D01*
Y225000D02*
Y257015D01*
Y225000D02*
X651594Y217906D01*
X656606D01*
X629393Y270000D02*
X643000Y256393D01*
Y220000D02*
Y256393D01*
Y220000D02*
X651394Y211606D01*
X656606D01*
X628772Y268500D02*
X641500Y255772D01*
Y212000D02*
Y255772D01*
X651343Y202157D02*
X656606D01*
X628151Y267000D02*
X640000Y255151D01*
Y207500D02*
Y255151D01*
Y207500D02*
X651642Y195858D01*
X656606D01*
X607000Y258850D02*
X615000D01*
X607000Y195858D02*
X615000D01*
X607000Y202157D02*
X615000D01*
X607000Y211606D02*
X615000D01*
X607000Y217906D02*
X615000D01*
X607000Y227354D02*
X615000D01*
X607000Y233654D02*
X615000D01*
X607000Y243102D02*
X614898D01*
X615000Y243000D01*
X607000Y249402D02*
X615000D01*
X571000Y330000D02*
X612500D01*
X624800D01*
X571000Y327500D02*
X610000D01*
X629500D01*
X571000Y322500D02*
X607500D01*
X628500D01*
X571000Y320000D02*
X605000D01*
X632000D01*
X571000Y315000D02*
X602500D01*
X631000D01*
X571000Y312500D02*
X600000D01*
X631000D01*
X571000Y307500D02*
X597500D01*
X628500D01*
X571000Y305000D02*
X595000D01*
X628500D01*
X571000Y350000D02*
X600500D01*
X600250Y349750D02*
X600500Y350000D01*
X631000Y340000D02*
X647500Y356500D01*
X571000Y340000D02*
X631000D01*
X571000Y342500D02*
X604000D01*
X688000Y186409D02*
Y189559D01*
X607000Y186409D02*
Y189559D01*
Y186409D02*
X614909D01*
X607000Y183260D02*
X617240D01*
X607000Y176961D02*
X617461D01*
X688000Y186409D02*
X693909D01*
X688000Y183260D02*
X699760D01*
X688000Y173811D02*
X694189D01*
X688000Y167512D02*
X693500Y167500D01*
X738106Y199008D02*
X747992D01*
X750189Y196811D01*
Y162539D02*
Y196811D01*
X737606Y205307D02*
X749193D01*
X751689Y202811D01*
Y161917D02*
Y202811D01*
X737606Y214500D02*
X750189D01*
X753189Y211500D01*
X737606Y221055D02*
X752689D01*
Y221000D02*
X754689Y219000D01*
X737606Y230500D02*
X753689D01*
X756189Y228000D01*
X737606Y236500D02*
X751166D01*
X757689Y229976D01*
X761000Y158500D02*
Y232000D01*
X759189Y158811D02*
Y231811D01*
X760689Y232311D02*
Y232432D01*
Y232311D02*
X761000Y232000D01*
X737606Y246252D02*
X744748D01*
X759189Y231811D01*
X741570Y251551D02*
X760689Y232432D01*
X741357Y251551D02*
X741570D01*
X740357Y252551D02*
X741357Y251551D01*
X730260Y183260D02*
X737606D01*
X730039Y176961D02*
X737606D01*
X727689Y173811D02*
X737606D01*
X730161Y170661D02*
X737606D01*
X727512Y167512D02*
X737606D01*
X645039Y176961D02*
X656606D01*
X693909Y186409D02*
X697500Y190000D01*
X693500Y167500D02*
X697500Y163500D01*
Y160000D02*
Y163500D01*
X688000Y170661D02*
X693339D01*
X698000Y166000D01*
X645500Y185000D02*
X647240Y183260D01*
X656606D01*
X688000Y180110D02*
X696890D01*
X697390Y179610D01*
X607000Y180110D02*
X614390D01*
X614890Y179610D01*
X653856Y167512D02*
X656606D01*
X647500Y160000D02*
Y161156D01*
X653856Y167512D01*
X651161Y170661D02*
X656606D01*
X645000Y164500D02*
X651161Y170661D01*
X694189Y173811D02*
X699500Y168500D01*
X706500D01*
X688000Y176961D02*
X697039D01*
X700000Y174000D01*
X649311Y173811D02*
X656606D01*
X647500Y172000D02*
X649311Y173811D01*
X698000Y166000D02*
X701500D01*
X614909Y186409D02*
X618500Y190000D01*
X617461Y176961D02*
X619921Y174500D01*
X620500D01*
X613850Y169650D02*
X627000D01*
X607000Y170661D02*
X610717D01*
X612037Y171463D02*
Y171525D01*
Y171463D02*
X613850Y169650D01*
X609751Y173811D02*
X612037Y171525D01*
X607000Y173811D02*
X609751D01*
X610717Y170661D02*
X614529Y166850D01*
X621150D01*
X656606Y262000D02*
X677000D01*
X737606D02*
X744500D01*
X525600Y183100D02*
X540000Y197500D01*
X529100Y181600D02*
X540000Y192500D01*
X532600Y180100D02*
X540000Y187500D01*
X536100Y178600D02*
X540000Y182500D01*
X502030Y177100D02*
X502630Y176500D01*
X539000D01*
X540000Y177500D01*
X500787Y174100D02*
X507387Y167500D01*
X540000D01*
X501408Y175600D02*
X504508Y172500D01*
X540000D01*
X522500Y185000D02*
X540000Y202500D01*
X484000Y185000D02*
X522500D01*
X472500Y173500D02*
X484000Y185000D01*
X519000Y186500D02*
X540000Y207500D01*
X515500Y188000D02*
X540000Y212500D01*
X481500Y188000D02*
X515500D01*
X467500Y174000D02*
X481500Y188000D01*
X467500Y169000D02*
Y174000D01*
X472500Y169000D02*
Y173500D01*
X512000Y189500D02*
X540000Y217500D01*
X508500Y191000D02*
X540000Y222500D01*
X477500Y191000D02*
X508500D01*
X460000Y173500D02*
X477500Y191000D01*
X460000Y169000D02*
Y173500D01*
X602350Y258850D02*
X607000D01*
X573000Y229500D02*
X602350Y258850D01*
X533000Y229500D02*
X573000D01*
X505500Y192500D02*
X540000Y227000D01*
X500000Y162000D02*
Y169000D01*
Y205000D02*
Y212000D01*
X442500Y197000D02*
Y205000D01*
Y169000D02*
Y177000D01*
X769654Y117500D02*
X773500Y113654D01*
X768500Y116000D02*
X770432Y114068D01*
Y111426D02*
Y114068D01*
Y111426D02*
X771076Y110782D01*
X775924D01*
X778796Y113654D01*
X782000D01*
X765957Y111400D02*
X768336D01*
X770455Y109282D01*
X786128D01*
X790500Y113654D01*
X764801Y107000D02*
X789142D01*
X795796Y113654D01*
X798500D01*
X760839Y107661D02*
Y111400D01*
Y107661D02*
X763000Y105500D01*
X798347D01*
X806500Y113654D01*
X758280Y111400D02*
X758500Y111180D01*
Y107000D02*
Y111180D01*
Y107000D02*
X761500Y104000D01*
X802142D01*
X811796Y113654D01*
X814500D01*
X763398Y108403D02*
X764801Y107000D01*
X763398Y108403D02*
Y111400D01*
X755720Y133600D02*
Y137280D01*
X755000Y138000D02*
X755720Y137280D01*
X733000Y138000D02*
X755000D01*
X724063Y129063D02*
X733000Y138000D01*
X724063Y126000D02*
Y129063D01*
X763398Y133600D02*
Y137102D01*
X761000Y139500D02*
X763398Y137102D01*
X732379Y139500D02*
X761000D01*
X722563Y129684D02*
X732379Y139500D01*
X722563Y129563D02*
Y129684D01*
X722095Y129095D02*
X722563Y129563D01*
X722095Y126000D02*
Y129095D01*
X758280Y128720D02*
Y133600D01*
Y128720D02*
X759750Y127250D01*
X760839Y130161D02*
Y133600D01*
Y130161D02*
X764500Y126500D01*
X728462Y129462D02*
X730000Y131000D01*
X726954Y129462D02*
X728462D01*
X726032Y128540D02*
X726954Y129462D01*
X726032Y126000D02*
Y128540D01*
X730500Y126000D02*
X733000Y128500D01*
X728000Y126000D02*
X730500D01*
X696000Y110500D02*
X708315Y122815D01*
Y126000D01*
X696621Y109000D02*
X709815Y122194D01*
Y122315D01*
X710284Y122784D01*
Y126000D01*
X410000Y162000D02*
Y169000D01*
Y162000D02*
X432000Y140000D01*
Y121000D02*
Y140000D01*
X407500Y161500D02*
Y169000D01*
Y161500D02*
X422000Y147000D01*
Y121000D02*
Y147000D01*
X402500Y163500D02*
Y169000D01*
Y163500D02*
X412000Y154000D01*
Y121000D02*
Y154000D01*
X400000Y163500D02*
Y169000D01*
Y163500D02*
X402000Y161500D01*
Y121000D02*
Y161500D01*
X395000Y163500D02*
Y169000D01*
X392000Y160500D02*
X395000Y163500D01*
X392000Y121000D02*
Y160500D01*
X390000Y164500D02*
Y169000D01*
X382000Y156500D02*
X390000Y164500D01*
X382000Y121000D02*
Y156500D01*
X697243Y107500D02*
X711784Y122041D01*
Y122284D01*
X712252Y122752D01*
Y126000D01*
X387500Y164121D02*
Y169000D01*
X377947Y154569D02*
X387500Y164121D01*
X377947Y119321D02*
Y154569D01*
X392769Y104500D02*
X748000D01*
X750602Y107102D01*
Y111400D01*
X452555Y223445D02*
Y230575D01*
Y223445D02*
X454000Y222000D01*
X458461Y222039D02*
Y230575D01*
Y222039D02*
X458500Y222000D01*
X758500Y116000D02*
X768500D01*
X748043Y126457D02*
Y133600D01*
X750602Y126398D02*
Y133600D01*
Y126398D02*
X759500Y117500D01*
X769654D01*
X755500Y104500D02*
Y111180D01*
X755720Y111400D01*
X499209Y318567D02*
X520000D01*
X499209Y285102D02*
X515000D01*
X526500Y289500D02*
X535000D01*
X514500Y277500D02*
X526500Y289500D01*
X513500Y279000D02*
X529900Y295400D01*
X511500Y282500D02*
X512500D01*
X510866Y283134D02*
X511500Y282500D01*
X499209Y283134D02*
X510866D01*
X382500Y162000D02*
Y169000D01*
X371000Y150500D02*
X382500Y162000D01*
X380000Y163000D02*
Y169000D01*
X367000Y150000D02*
X380000Y163000D01*
X375000Y161500D02*
Y169000D01*
X367500Y154000D02*
X375000Y161500D01*
X372500Y163000D02*
Y169000D01*
X363000Y153500D02*
X372500Y163000D01*
X367500Y161500D02*
Y169000D01*
X363500Y157500D02*
X367500Y161500D01*
X365000Y162500D02*
Y169000D01*
X359500Y157000D02*
X365000Y162500D01*
X392500Y163500D02*
Y169000D01*
X388250Y159250D02*
X392500Y163500D01*
X248700Y265500D02*
X252000D01*
X245250Y268950D02*
X248700Y265500D01*
X508000Y311000D02*
X509000D01*
X507693Y310693D02*
X508000Y311000D01*
X499209Y310693D02*
X507693D01*
X512500Y309000D02*
X513000D01*
X318000Y340500D02*
X324000D01*
X334000Y350500D01*
X297000Y317000D02*
Y325346D01*
X299753Y328100D01*
X335000Y320000D02*
Y326000D01*
X337500Y328500D01*
X353000D01*
X377909Y328409D02*
X378000Y328500D01*
X370591Y328409D02*
X377909D01*
X333500Y311500D02*
X342653D01*
X330000Y315000D02*
X333500Y311500D01*
X330000Y315000D02*
Y320000D01*
X349346Y311500D02*
X355000D01*
X318000Y370500D02*
X324000D01*
X334000Y360500D01*
X378941Y309500D02*
X379000D01*
X368500Y310693D02*
X377748D01*
X378941Y309500D01*
X331447Y332500D02*
X347500D01*
X331000Y310000D02*
X331250D01*
X378000Y302500D02*
X378500D01*
X373744Y306756D02*
X378000Y302500D01*
X368500Y306756D02*
X373744D01*
X308000Y340500D02*
X312000Y336500D01*
X298000Y340500D02*
X302909D01*
X308409Y335000D01*
X342500D01*
X312000Y336500D02*
X322000D01*
X323000Y337500D01*
X143000Y201500D02*
X151500Y210000D01*
X131000Y201500D02*
X143000D01*
X129000Y203500D02*
X131000Y201500D01*
X129000Y203500D02*
Y255500D01*
X134500Y261000D01*
X210500D01*
X237500Y234000D01*
X141500Y250000D02*
X143500D01*
X152000Y258500D01*
X209000D01*
X136500Y235000D02*
X141500Y230000D01*
X136500Y235000D02*
Y241000D01*
X140500Y245000D01*
X218500D01*
X237500Y226000D01*
X141500Y240000D02*
X145702D01*
X149802Y235900D01*
X224100D01*
X237500Y222500D01*
X378445Y292055D02*
X378500Y292000D01*
X368500Y294945D02*
X374555D01*
X377445Y292055D01*
X378445D01*
X276921Y271079D02*
Y298890D01*
Y271079D02*
X277000Y271000D01*
X209000Y258500D02*
X237500Y230000D01*
X335386Y254500D02*
Y290386D01*
X333886Y255121D02*
Y291007D01*
X336886Y249084D02*
Y289386D01*
X333886Y291007D02*
X335779Y292900D01*
X335953D01*
X337300Y294247D01*
Y294421D01*
X351310Y308432D01*
X351574D01*
X353142Y310000D01*
X353177D01*
X335386Y290386D02*
X336400Y291400D01*
X336574D01*
X338800Y293626D01*
Y293800D01*
X351932Y306931D01*
X352195D01*
X352914Y307650D01*
X336886Y289386D02*
X353650Y306150D01*
X338386Y248463D02*
Y287886D01*
X354027Y309150D02*
X355973D01*
X357350Y310527D01*
X356595Y307650D02*
X358850Y309905D01*
X357216Y306150D02*
X360350Y309284D01*
X338386Y287886D02*
X355150Y304650D01*
X357837D01*
X353177Y310000D02*
X354027Y309150D01*
X352914Y307650D02*
X356595D01*
X353650Y306150D02*
X357216D01*
X357837Y304650D02*
X362400Y309213D01*
X360350Y309284D02*
Y317217D01*
X363390Y320257D01*
X357000Y299500D02*
X357650Y300150D01*
X304500Y255000D02*
X311500D01*
X275500D02*
X282500D01*
D39*
X402500Y414000D02*
Y421000D01*
X485000Y196900D02*
Y205000D01*
X484400Y196800D02*
Y196900D01*
X491700Y196400D02*
Y198100D01*
X664700Y255300D02*
X667100D01*
X661150Y258850D02*
X664700Y255300D01*
X457500Y162000D02*
Y169000D01*
X566000Y310000D02*
X571000D01*
X565500Y310500D02*
X566000Y310000D01*
X450000Y197000D02*
Y205000D01*
X688000Y208500D02*
X696500D01*
X541300Y352500D02*
X542900Y350900D01*
X535000Y352500D02*
X541300D01*
X681101Y255701D02*
X688000D01*
X648800Y225700D02*
X650295Y224205D01*
X656606D01*
X627300Y196900D02*
Y217000D01*
X607000Y208457D02*
X622400D01*
X620547Y239953D02*
X626900Y233600D01*
X695409Y192709D02*
X700300Y197600D01*
X688000Y192709D02*
X695409D01*
X737606Y255701D02*
X744299D01*
X737606Y224205D02*
X747700D01*
X737606Y192709D02*
X745291D01*
X641700Y196500D02*
X644000D01*
X651591Y192709D02*
X656606D01*
X627300Y217000D02*
X651591Y192709D01*
X627300Y217000D02*
Y219300D01*
X623109Y192709D02*
X627300Y196900D01*
X607000Y192709D02*
X623109D01*
X622395Y224205D02*
X627300Y219300D01*
X607000Y224205D02*
X622395D01*
X613999Y255701D02*
X620100Y249600D01*
X607000Y255701D02*
X613999D01*
X664500Y251600D02*
X665700D01*
X660400Y255700D02*
X664500Y251600D01*
X658000Y255700D02*
X660400D01*
X656606Y255701D02*
X657999D01*
X658000Y255700D01*
X699995Y224205D02*
X702000Y222200D01*
X688000Y224205D02*
X699995D01*
X275500Y212500D02*
X282600D01*
X304600Y246800D02*
X305300Y247500D01*
X304400Y246600D02*
X304600Y246800D01*
Y220000D02*
X311500D01*
X304500Y232500D02*
X311500D01*
X305300Y247500D02*
X311500D01*
X275500Y220000D02*
X281900D01*
X275500Y232500D02*
X282400D01*
X281900Y247500D02*
X282900Y246500D01*
X275500Y247500D02*
X281900D01*
X275500Y205000D02*
X282500D01*
X304200D02*
X311500D01*
X465000Y198200D02*
Y205000D01*
X477500Y198100D02*
Y205000D01*
X491700Y198100D02*
X492500Y198900D01*
Y205000D01*
X450000Y164100D02*
X451700Y162400D01*
X450000Y164100D02*
Y169000D01*
X465000Y162800D02*
Y169000D01*
X477500Y162900D02*
Y169000D01*
X492500Y162400D02*
Y169000D01*
X397500D02*
Y175900D01*
X385000Y169000D02*
Y175900D01*
X370000Y173879D02*
X372121Y176000D01*
X370000Y169000D02*
Y173879D01*
X412500Y169000D02*
Y176200D01*
X397500Y198100D02*
Y205000D01*
X385000Y198000D02*
Y205000D01*
X370000Y200121D02*
X372121Y198000D01*
X370000Y200121D02*
Y205000D01*
X275500Y240000D02*
X282500D01*
X304500D02*
X311500D01*
X304300Y212500D02*
X311500D01*
X457500Y200012D02*
Y205000D01*
X485000Y162500D02*
Y169000D01*
X535000Y277000D02*
X542500D01*
X564000D02*
X571000D01*
X561846Y291846D02*
X570847D01*
X571000Y292000D01*
X562500Y234500D02*
X571000D01*
X563500Y249500D02*
X571000D01*
X535000D02*
X542000D01*
X563000Y360500D02*
X563500Y360000D01*
X571000D01*
X535000D02*
X542500D01*
X563000Y302500D02*
X571000D01*
X535000Y317500D02*
X542000D01*
X564000D02*
X571000D01*
X564000Y345000D02*
X571000D01*
X402500Y385000D02*
Y392000D01*
X375000Y385000D02*
Y392000D01*
Y414000D02*
Y421000D01*
X502500Y385000D02*
Y393000D01*
X487500Y385000D02*
Y392500D01*
X502500Y414000D02*
Y421000D01*
X460000Y385000D02*
Y392000D01*
X445000Y385000D02*
Y393000D01*
X460000Y413500D02*
Y421000D01*
X445000Y412500D02*
Y421000D01*
X487500Y413500D02*
Y421000D01*
X362500Y196500D02*
Y205000D01*
X377500Y197500D02*
Y205000D01*
X362500Y169000D02*
Y177000D01*
X377500Y169000D02*
Y176500D01*
X420000Y169000D02*
Y177000D01*
X405000Y169000D02*
Y176500D01*
X420000Y197500D02*
Y205000D01*
X405000Y197500D02*
Y205000D01*
X753161Y127541D02*
Y133600D01*
X688000Y262000D02*
X695500D01*
X688000Y239953D02*
X696453D01*
X737606D02*
X743953D01*
X737606Y208457D02*
X743957D01*
X728500Y190500D02*
X729441Y189559D01*
X737606D01*
X732350Y258850D02*
X737606D01*
X729500Y256000D02*
X732350Y258850D01*
X607000Y262000D02*
X622500D01*
X607000Y239953D02*
X620547D01*
X656606D02*
X662047D01*
X663500Y238500D01*
X662369Y207000D02*
X663000D01*
X660913Y208457D02*
X662369Y207000D01*
X656606Y208457D02*
X660913D01*
X650941Y189559D02*
X656606D01*
X644000Y196500D02*
X650941Y189559D01*
X656606Y258850D02*
X661150D01*
X563900Y242000D02*
X571000D01*
X561700Y244200D02*
X563900Y242000D01*
X535000D02*
X542000D01*
X535000Y284500D02*
X542400D01*
X564100D02*
X571000D01*
X561800Y282200D02*
X564100Y284500D01*
X535000Y269500D02*
X543000D01*
X564300D02*
X571000D01*
X564400Y257000D02*
X571000D01*
X535000D02*
X542700D01*
X563200Y350700D02*
X565000Y352500D01*
X571000D01*
X564600Y337500D02*
X571000D01*
X566300Y325000D02*
X571000D01*
X564600Y326700D02*
X566300Y325000D01*
X535000Y310000D02*
X540800D01*
X535000Y325000D02*
X539600D01*
X541500Y326900D01*
X535000Y337500D02*
X541200D01*
X367500Y416621D02*
Y421000D01*
Y416621D02*
X370321Y413800D01*
X382500Y414200D02*
Y421000D01*
X395000Y414400D02*
Y421000D01*
Y385000D02*
Y391900D01*
X382500Y385000D02*
Y391800D01*
X367500Y385000D02*
Y389100D01*
X369911Y391511D01*
Y391790D01*
X410000Y385000D02*
Y392100D01*
Y414550D02*
Y421000D01*
X495000Y413500D02*
Y421000D01*
X452500Y414200D02*
Y421000D01*
X467500Y414300D02*
Y421000D01*
X480000Y414400D02*
Y421000D01*
X495000Y385000D02*
Y392400D01*
X452500Y385000D02*
Y392000D01*
X467500Y385000D02*
Y391900D01*
X480000Y385000D02*
Y392000D01*
X535000Y296800D02*
Y302500D01*
Y292000D02*
Y296800D01*
X528000Y234100D02*
X528400Y234500D01*
X535000D01*
X412500Y198000D02*
Y205000D01*
D40*
X379338Y251638D02*
X380200Y252500D01*
X368500Y251638D02*
X379338D01*
X368500Y249669D02*
X379774D01*
X380904Y250800D01*
X383435D01*
X380200Y252500D02*
X382200D01*
X381696Y249100D02*
X389300D01*
X374391Y241795D02*
X381696Y249100D01*
X382200Y247200D02*
X390300D01*
X374827Y239827D02*
X382200Y247200D01*
X368500Y241795D02*
X374391D01*
X368500Y239827D02*
X374827D01*
X368500Y237858D02*
X375800D01*
Y233500D02*
Y237858D01*
X541600Y345000D02*
X542000Y344600D01*
X535000Y345000D02*
X541600D01*
X494236Y255575D02*
X499209D01*
X493009Y256802D02*
X494236Y255575D01*
X483728Y277228D02*
X499209D01*
X481200Y274700D02*
X483728Y277228D01*
X486800Y320000D02*
X487335Y320535D01*
X489957Y366457D02*
X490983Y367483D01*
X489957Y361283D02*
Y366457D01*
X490983Y367483D02*
X519417D01*
X442713Y354313D02*
Y361283D01*
X440400Y352000D02*
X442713Y354313D01*
X440400Y338754D02*
Y352000D01*
X382300Y244500D02*
X386200D01*
X375961Y238161D02*
X382300Y244500D01*
X475296Y322504D02*
X499209D01*
X474800Y323000D02*
X475296Y322504D01*
X486800Y274400D02*
X487660Y275260D01*
X446650Y350750D02*
X447600Y349800D01*
X368500Y334315D02*
X384085D01*
X368500Y336283D02*
X385283D01*
X361200Y324600D02*
Y324700D01*
X362941Y326441D01*
X355450Y336450D02*
X360100Y341100D01*
X355450Y325550D02*
Y336450D01*
X355000Y325100D02*
X355450Y325550D01*
X362941Y326441D02*
X368500D01*
X385283Y336283D02*
X385800Y336800D01*
X390700Y326700D02*
Y335365D01*
X368500Y340220D02*
X385844D01*
X390700Y335365D01*
X384085Y334315D02*
X390700Y327700D01*
X506563Y350063D02*
X508900Y352400D01*
X499209Y350063D02*
X506563D01*
X500400Y228000D02*
X508700Y236300D01*
Y240800D01*
X505736Y243764D02*
X508700Y240800D01*
X499209Y243764D02*
X505736D01*
X657204Y114996D02*
Y126000D01*
X651299Y119900D02*
Y126000D01*
X655236Y121836D02*
Y126000D01*
X653400Y120000D02*
X655236Y121836D01*
X651300Y120000D02*
X653400D01*
X360100Y341100D02*
X361189Y342189D01*
X368500D01*
X387537Y350063D02*
X398800Y338800D01*
X368500Y350063D02*
X387537D01*
X391268Y352032D02*
X399000Y344300D01*
X368500Y352032D02*
X391268D01*
X395200Y354000D02*
X399406Y349794D01*
X368500Y354000D02*
X395200D01*
X401374Y361283D02*
Y366726D01*
X400500Y367600D02*
X401374Y366726D01*
X398100Y367600D02*
X400500D01*
X397437Y366937D02*
X398100Y367600D01*
X397437Y361283D02*
Y366937D01*
X402600Y347900D02*
Y352200D01*
X401374Y353426D02*
X402600Y352200D01*
X401374Y353426D02*
Y361283D01*
X399000Y344300D02*
X402600Y347900D01*
X390700Y309200D02*
X397600Y302300D01*
Y294500D02*
Y302300D01*
X392139Y289039D02*
X397600Y294500D01*
X377961Y289039D02*
X392139D01*
X385629Y287071D02*
X397300Y275400D01*
X368500Y287071D02*
X385629D01*
X362898Y285102D02*
X368500D01*
X362000Y286000D02*
X362898Y285102D01*
X362000Y286000D02*
Y288000D01*
X363039Y289039D02*
X368500D01*
X362000Y288000D02*
X363039Y289039D01*
X368500D02*
X377961D01*
X368500Y292976D02*
X374024D01*
X368500Y291008D02*
X375992D01*
X374024Y292976D02*
X377961Y289039D01*
X415300Y316200D02*
Y334700D01*
X405311Y344689D02*
X415300Y334700D01*
X405311Y344689D02*
Y361283D01*
X440400Y338754D02*
X456753Y322400D01*
X456800Y333135D02*
X470272Y346607D01*
X456800Y322600D02*
Y333135D01*
X415600Y316800D02*
X428933Y330133D01*
Y361283D01*
X469300Y334100D02*
X478928Y324472D01*
X499209D01*
X470272Y343728D02*
Y346607D01*
Y343728D02*
X479685Y334315D01*
X499209D01*
X456900Y308200D02*
X462281Y302819D01*
X499209D01*
X456400Y278500D02*
X461000D01*
X470500Y269000D01*
X492435Y267386D02*
X499209D01*
X490821Y269000D02*
X492435Y267386D01*
X470500Y269000D02*
X490821D01*
X460429Y230575D02*
Y254471D01*
X407280Y230575D02*
Y248220D01*
X402650Y252850D02*
X407280Y248220D01*
X399650Y252850D02*
X402650D01*
X399596Y250900D02*
X399650D01*
X435700Y252800D02*
X437800Y250700D01*
Y248600D02*
Y250700D01*
Y248600D02*
X444681Y241719D01*
Y230575D02*
Y241719D01*
X390800Y268900D02*
X397300Y275400D01*
X383100Y268900D02*
X390800D01*
X388080Y261480D02*
X390800Y264200D01*
X368500Y261480D02*
X388080D01*
X379400Y265200D02*
X383100Y268900D01*
X375400Y265200D02*
X379400D01*
X373649Y263449D02*
X375400Y265200D01*
X368500Y263449D02*
X373649D01*
X392000Y246400D02*
Y248900D01*
X387600Y242000D02*
X392000Y246400D01*
X382500Y242000D02*
X387600D01*
X377752Y230575D02*
Y237252D01*
X382500Y242000D01*
X387595Y236495D02*
X399800Y248700D01*
X399650Y250900D02*
Y252850D01*
X385626Y236930D02*
X399596Y250900D01*
X385626Y230575D02*
Y236930D01*
X404200Y255800D02*
X411217Y248783D01*
X398900Y255800D02*
X404200D01*
X390300Y247200D02*
X398900Y255800D01*
X389300Y249100D02*
X401700Y261500D01*
Y265800D01*
X390800Y253700D02*
Y264200D01*
X390000Y252900D02*
X390800Y253700D01*
X385535Y252900D02*
X390000D01*
X383435Y250800D02*
X385535Y252900D01*
X382200Y252500D02*
X385200Y255500D01*
X469600Y259300D02*
X479000D01*
X491000Y247300D01*
Y245000D02*
Y247300D01*
Y245000D02*
X494205Y241795D01*
X499209D01*
X446650Y230575D02*
Y244050D01*
X470272Y346607D02*
Y361283D01*
X490000Y354000D02*
X499209D01*
X484700Y348700D02*
X490000Y354000D01*
X475800Y344200D02*
X481748Y338252D01*
X499209D01*
X493600Y344200D02*
X499251D01*
X492500Y345300D02*
X493600Y344200D01*
X486000Y345300D02*
X492500D01*
X484900Y344200D02*
X486000Y345300D01*
X484900Y344200D02*
X492731Y352031D01*
X475800Y344200D02*
X484900D01*
X492731Y352031D02*
X499209D01*
X438776Y354777D02*
Y361283D01*
X438700Y354702D02*
X438776Y354777D01*
X438700Y346100D02*
Y354702D01*
X436807Y344207D02*
X438700Y346100D01*
X481244Y306756D02*
X499209D01*
X487313Y296913D02*
X489282Y298882D01*
X483376Y292976D02*
X487313Y296913D01*
X483376Y292976D02*
X499209D01*
X487313Y296913D02*
X499209D01*
X485345Y294945D02*
X499209D01*
X489282Y298882D02*
X499209D01*
X481300Y290900D02*
X483376Y292976D01*
X474800Y290200D02*
X485450Y300850D01*
X482100Y262600D02*
X493000Y251700D01*
Y246700D02*
Y251700D01*
Y246700D02*
X493968Y245732D01*
X493273Y239827D02*
X499209D01*
X489300Y243800D02*
X493273Y239827D01*
X489300Y243800D02*
Y246400D01*
X482700Y253000D02*
X489300Y246400D01*
X481200Y253000D02*
X482700D01*
X481300Y262600D02*
X482100D01*
X493794Y253606D02*
X499209D01*
X486800Y260600D02*
X493794Y253606D01*
X486800Y260600D02*
Y263200D01*
X493009Y256802D02*
Y261775D01*
X493968Y245732D02*
X499209D01*
X488483Y266300D02*
X493009Y261775D01*
X485000Y266300D02*
X488483D01*
X481300Y262600D02*
X485000Y266300D01*
X481200Y274700D02*
X484577Y271323D01*
X499209D01*
X484051Y230575D02*
Y244549D01*
X481200Y247400D02*
X484051Y244549D01*
X481200Y247400D02*
Y253000D01*
X486800Y243600D02*
Y245200D01*
X481600Y243300D02*
X482083Y242817D01*
X462398Y247298D02*
X463800Y248700D01*
X462398Y230575D02*
Y247298D01*
X451000Y247800D02*
Y248800D01*
Y247800D02*
X456492Y242308D01*
Y230575D02*
Y242308D01*
X451800Y243100D02*
X454524Y240376D01*
X442350Y248350D02*
X446650Y244050D01*
X434839Y230575D02*
Y247861D01*
X430902Y230575D02*
Y245802D01*
X432870Y230575D02*
Y247700D01*
X433900Y248800D02*
X434839Y247861D01*
X436807Y230575D02*
Y245893D01*
X433900Y248800D02*
X436807Y245893D01*
X430902Y245802D02*
X433900Y248800D01*
X424996Y239896D02*
X430902Y245802D01*
X424996Y230575D02*
Y239896D01*
X411217Y230575D02*
Y248783D01*
X399800Y248700D02*
X401400D01*
X387595Y230575D02*
Y236495D01*
X400200Y243200D02*
X401374Y242026D01*
X403343Y230575D02*
Y246757D01*
X401400Y248700D02*
X403343Y246757D01*
X528000Y355000D02*
X535000D01*
X521717Y361283D02*
X528000Y355000D01*
X491925Y361283D02*
X521717D01*
X529400Y357500D02*
X535000D01*
X519417Y367483D02*
X529400Y357500D01*
X464500Y344300D02*
X465500D01*
X468303Y347103D01*
Y361283D01*
X474209Y351191D02*
X475600Y349800D01*
X472240Y347760D02*
X475800Y344200D01*
X472240Y347760D02*
Y361283D01*
X446300Y344400D02*
X456492Y354592D01*
Y361283D01*
X444681Y346019D02*
X446300Y344400D01*
X444681Y346019D02*
Y361283D01*
X368500Y273291D02*
X390791D01*
X383302Y316598D02*
X390700Y309200D01*
X368500Y316598D02*
X383302D01*
X388472Y324472D02*
X390700Y326700D01*
X368500Y324472D02*
X388472D01*
X390700Y326700D02*
Y327700D01*
X411217Y348283D02*
X415200Y344300D01*
X411217Y348283D02*
Y361283D01*
X424996Y344204D02*
Y361283D01*
X430902Y346298D02*
X432870Y344330D01*
Y361283D01*
X430902Y346298D02*
Y361283D01*
X434839Y346175D02*
X436807Y344207D01*
X434839Y346175D02*
Y361283D01*
X436807Y344207D02*
Y361283D01*
X485450Y300850D02*
X499209D01*
X474600Y305800D02*
X481461Y312661D01*
X499209D01*
X399406Y349794D02*
Y361283D01*
X368500Y318567D02*
X385267D01*
X368500Y277228D02*
X385228D01*
X375783Y230575D02*
Y233483D01*
X375800Y233500D01*
X401374Y230575D02*
Y242026D01*
X423028Y230575D02*
Y243072D01*
X454524Y230575D02*
Y240376D01*
X482083Y230575D02*
Y242817D01*
X415154Y349654D02*
Y361283D01*
X446650Y350750D02*
Y361283D01*
X458461Y349761D02*
Y361283D01*
X474209Y351191D02*
Y361283D01*
X486811Y342189D02*
X499209D01*
X487335Y320535D02*
X499209D01*
X487660Y275260D02*
X499209D01*
X486800Y243600D02*
X492542Y237858D01*
X499209D01*
X720126Y126000D02*
Y129750D01*
X718876Y131000D02*
X720126Y129750D01*
X706347Y129447D02*
X707900Y131000D01*
X706347Y126000D02*
Y129447D01*
X653267Y126000D02*
Y128500D01*
D41*
X196000Y460500D02*
Y463100D01*
X174100Y485000D02*
X196000Y463100D01*
X151000Y485000D02*
X174100D01*
X151091Y454909D02*
X172800D01*
X290961Y397500D02*
Y409000D01*
X288961Y411000D02*
X290961Y409000D01*
X258600Y411000D02*
X276000D01*
X288961D01*
X196000Y429500D02*
X206252Y419248D01*
Y404000D02*
Y419248D01*
X196000Y431709D02*
Y441500D01*
X172800Y454909D02*
X196000Y431709D01*
D42*
X584900Y458800D02*
X629500D01*
X653600Y482900D01*
X579000Y464700D02*
X584900Y458800D01*
X579000Y464700D02*
Y480000D01*
X653600Y482900D02*
X701100D01*
X713000Y471000D01*
D43*
X282600Y471600D02*
X339000D01*
X275700Y464700D02*
X282600Y471600D01*
X560900Y426600D02*
X585700Y401800D01*
X508100Y426600D02*
X560900D01*
X507700Y427000D02*
X508100Y426600D01*
X598500Y124563D02*
X606163D01*
X609000Y127400D01*
X585700Y160015D02*
Y217000D01*
Y366500D02*
Y401800D01*
X417300Y429800D02*
X439700D01*
X579000Y480000D02*
Y483700D01*
X572200Y490500D02*
X579000Y483700D01*
X314800Y490500D02*
X572200D01*
D44*
X335300Y383300D02*
D03*
Y392900D02*
D03*
X348700Y392300D02*
D03*
X189900Y487100D02*
D03*
X202400D02*
D03*
X202700Y475300D02*
D03*
X161000Y435000D02*
D03*
X151000Y455000D02*
D03*
X161000Y475000D02*
D03*
X151000Y485000D02*
D03*
D45*
X151500Y250000D02*
D03*
X141500Y240000D02*
D03*
X151500D02*
D03*
X141500Y230000D02*
D03*
X151500D02*
D03*
X141500Y220000D02*
D03*
Y210000D02*
D03*
X151500D02*
D03*
Y220000D02*
D03*
X334000Y360500D02*
D03*
D46*
X141500Y250000D02*
D03*
X334000Y350500D02*
D03*
D47*
X266071Y158000D02*
D03*
X199929D02*
D03*
X114929D02*
D03*
X181071D02*
D03*
D48*
X242843Y185559D02*
D03*
X223157D02*
D03*
X252685Y116661D02*
D03*
X233000D02*
D03*
X213315D02*
D03*
X330567Y443315D02*
D03*
X351433D02*
D03*
X128315Y116661D02*
D03*
X148000D02*
D03*
X167685D02*
D03*
X138157Y185559D02*
D03*
X157843D02*
D03*
D49*
X292000Y121000D02*
D03*
X589000Y480000D02*
D03*
X548000Y387000D02*
D03*
Y418000D02*
D03*
Y402500D02*
D03*
D50*
X302000Y121000D02*
D03*
X312000D02*
D03*
X322000D02*
D03*
X332000D02*
D03*
X342000D02*
D03*
X352000D02*
D03*
X362000D02*
D03*
X382000D02*
D03*
X392000D02*
D03*
X402000D02*
D03*
X412000D02*
D03*
X422000D02*
D03*
X432000D02*
D03*
X442000D02*
D03*
X452000D02*
D03*
X462000D02*
D03*
X472000D02*
D03*
X482000D02*
D03*
X492000D02*
D03*
X502000D02*
D03*
X579000Y480000D02*
D03*
X569000D02*
D03*
X559000D02*
D03*
X549000D02*
D03*
X539000D02*
D03*
X529000D02*
D03*
X519000D02*
D03*
X499000D02*
D03*
X489000D02*
D03*
X479000D02*
D03*
X469000D02*
D03*
X459000D02*
D03*
X449000D02*
D03*
X439000D02*
D03*
X429000D02*
D03*
X419000D02*
D03*
X409000D02*
D03*
X399000D02*
D03*
X389000D02*
D03*
X379000D02*
D03*
X171000Y302000D02*
D03*
X538000Y387000D02*
D03*
X528000D02*
D03*
X538000Y418000D02*
D03*
X528000D02*
D03*
X200000Y312000D02*
D03*
Y302000D02*
D03*
X538000Y402500D02*
D03*
X528000D02*
D03*
D51*
X372000Y121000D02*
D03*
X509000Y480000D02*
D03*
D52*
X111000Y435000D02*
D03*
Y475000D02*
D03*
D53*
X151000Y425000D02*
D03*
D54*
X318000Y370500D02*
D03*
D55*
X308000D02*
D03*
X298000D02*
D03*
X288000D02*
D03*
Y340500D02*
D03*
X298000D02*
D03*
X308000D02*
D03*
X318000D02*
D03*
X839000Y471000D02*
D03*
Y461000D02*
D03*
Y451000D02*
D03*
X829000Y461000D02*
D03*
Y451000D02*
D03*
X839000Y441000D02*
D03*
X829000D02*
D03*
X819000D02*
D03*
X809000D02*
D03*
X799000D02*
D03*
X829000Y431000D02*
D03*
X819000D02*
D03*
X809000D02*
D03*
X799000D02*
D03*
X829000Y471000D02*
D03*
X819000D02*
D03*
X809000D02*
D03*
X799000D02*
D03*
X829000Y481000D02*
D03*
X819000D02*
D03*
X809000D02*
D03*
X799000D02*
D03*
X789000D02*
D03*
Y431000D02*
D03*
X779000Y441000D02*
D03*
X789000D02*
D03*
Y471000D02*
D03*
X779000D02*
D03*
Y461000D02*
D03*
X789000Y451000D02*
D03*
X779000D02*
D03*
X789000Y461000D02*
D03*
X653000D02*
D03*
Y451000D02*
D03*
Y441000D02*
D03*
Y431000D02*
D03*
Y421000D02*
D03*
Y411000D02*
D03*
Y401000D02*
D03*
Y391000D02*
D03*
Y381000D02*
D03*
Y371000D02*
D03*
Y361000D02*
D03*
Y351000D02*
D03*
Y341000D02*
D03*
Y331000D02*
D03*
Y321000D02*
D03*
X713000D02*
D03*
Y331000D02*
D03*
Y341000D02*
D03*
Y351000D02*
D03*
Y361000D02*
D03*
Y371000D02*
D03*
Y381000D02*
D03*
Y391000D02*
D03*
Y401000D02*
D03*
Y411000D02*
D03*
Y421000D02*
D03*
Y431000D02*
D03*
Y441000D02*
D03*
Y451000D02*
D03*
Y461000D02*
D03*
Y471000D02*
D03*
D56*
X171000Y312000D02*
D03*
X200000Y322000D02*
D03*
D57*
X653000Y471000D02*
D03*
D58*
X128000Y292000D02*
D03*
Y332000D02*
D03*
D59*
X148000Y302000D02*
D03*
Y312000D02*
D03*
D60*
X856000Y389000D02*
D03*
X846000D02*
D03*
X836000D02*
D03*
X826000D02*
D03*
X816000D02*
D03*
X806000D02*
D03*
X766000D02*
D03*
X776000D02*
D03*
X786000D02*
D03*
X796000D02*
D03*
Y379000D02*
D03*
X786000D02*
D03*
X776000D02*
D03*
X766000D02*
D03*
X806000D02*
D03*
X816000D02*
D03*
X826000D02*
D03*
X836000D02*
D03*
X846000D02*
D03*
X856000D02*
D03*
Y399000D02*
D03*
X846000D02*
D03*
X836000D02*
D03*
X826000D02*
D03*
X816000D02*
D03*
X806000D02*
D03*
X766000D02*
D03*
X776000D02*
D03*
X786000D02*
D03*
X796000D02*
D03*
Y409000D02*
D03*
X786000D02*
D03*
X776000D02*
D03*
X766000D02*
D03*
X806000D02*
D03*
X816000D02*
D03*
X826000D02*
D03*
X836000D02*
D03*
X846000D02*
D03*
X856000D02*
D03*
Y329000D02*
D03*
X846000D02*
D03*
X836000D02*
D03*
X826000D02*
D03*
X816000D02*
D03*
X806000D02*
D03*
X766000D02*
D03*
X776000D02*
D03*
X786000D02*
D03*
X796000D02*
D03*
Y319000D02*
D03*
X786000D02*
D03*
X776000D02*
D03*
X766000D02*
D03*
X806000D02*
D03*
X816000D02*
D03*
X826000D02*
D03*
X836000D02*
D03*
X846000D02*
D03*
X856000D02*
D03*
Y299000D02*
D03*
X846000D02*
D03*
X836000D02*
D03*
X826000D02*
D03*
X816000D02*
D03*
X806000D02*
D03*
X766000D02*
D03*
X776000D02*
D03*
X786000D02*
D03*
X796000D02*
D03*
Y309000D02*
D03*
X786000D02*
D03*
X776000D02*
D03*
X766000D02*
D03*
X806000D02*
D03*
X816000D02*
D03*
X826000D02*
D03*
X836000D02*
D03*
X846000D02*
D03*
X856000D02*
D03*
Y349000D02*
D03*
X846000D02*
D03*
X836000D02*
D03*
X826000D02*
D03*
X816000D02*
D03*
X806000D02*
D03*
X766000D02*
D03*
X776000D02*
D03*
X786000D02*
D03*
X796000D02*
D03*
Y339000D02*
D03*
X786000D02*
D03*
X776000D02*
D03*
X766000D02*
D03*
X806000D02*
D03*
X816000D02*
D03*
X826000D02*
D03*
X836000D02*
D03*
X846000D02*
D03*
X856000D02*
D03*
Y359000D02*
D03*
X846000D02*
D03*
X836000D02*
D03*
X826000D02*
D03*
X816000D02*
D03*
X806000D02*
D03*
X766000D02*
D03*
X776000D02*
D03*
X786000D02*
D03*
X796000D02*
D03*
Y369000D02*
D03*
X786000D02*
D03*
X776000D02*
D03*
X766000D02*
D03*
X806000D02*
D03*
X816000D02*
D03*
X826000D02*
D03*
X836000D02*
D03*
X846000D02*
D03*
X856000D02*
D03*
Y209000D02*
D03*
X846000D02*
D03*
X836000D02*
D03*
X826000D02*
D03*
X816000D02*
D03*
X806000D02*
D03*
X766000D02*
D03*
X776000D02*
D03*
X786000D02*
D03*
X796000D02*
D03*
Y199000D02*
D03*
X786000D02*
D03*
X776000D02*
D03*
X766000D02*
D03*
X806000D02*
D03*
X816000D02*
D03*
X826000D02*
D03*
X836000D02*
D03*
X846000D02*
D03*
X856000D02*
D03*
Y179000D02*
D03*
X846000D02*
D03*
X836000D02*
D03*
X826000D02*
D03*
X816000D02*
D03*
X806000D02*
D03*
X766000D02*
D03*
X776000D02*
D03*
X786000D02*
D03*
X796000D02*
D03*
Y189000D02*
D03*
X786000D02*
D03*
X776000D02*
D03*
X766000D02*
D03*
X806000D02*
D03*
X816000D02*
D03*
X826000D02*
D03*
X836000D02*
D03*
X846000D02*
D03*
X856000D02*
D03*
Y149000D02*
D03*
X846000D02*
D03*
X836000D02*
D03*
X826000D02*
D03*
X816000D02*
D03*
X806000D02*
D03*
X766000D02*
D03*
X776000D02*
D03*
X786000D02*
D03*
X796000D02*
D03*
X856000Y159000D02*
D03*
X846000D02*
D03*
X836000D02*
D03*
X826000D02*
D03*
X816000D02*
D03*
X806000D02*
D03*
X766000D02*
D03*
X776000D02*
D03*
X786000D02*
D03*
X796000D02*
D03*
Y169000D02*
D03*
X786000D02*
D03*
X776000D02*
D03*
X766000D02*
D03*
X806000D02*
D03*
X816000D02*
D03*
X826000D02*
D03*
X836000D02*
D03*
X846000D02*
D03*
X856000D02*
D03*
Y249000D02*
D03*
X846000D02*
D03*
X836000D02*
D03*
X826000D02*
D03*
X816000D02*
D03*
X806000D02*
D03*
X766000D02*
D03*
X776000D02*
D03*
X786000D02*
D03*
X796000D02*
D03*
Y239000D02*
D03*
X786000D02*
D03*
X776000D02*
D03*
X766000D02*
D03*
X806000D02*
D03*
X816000D02*
D03*
X826000D02*
D03*
X836000D02*
D03*
X846000D02*
D03*
X856000D02*
D03*
Y219000D02*
D03*
X846000D02*
D03*
X836000D02*
D03*
X826000D02*
D03*
X816000D02*
D03*
X806000D02*
D03*
X766000D02*
D03*
X776000D02*
D03*
X786000D02*
D03*
X796000D02*
D03*
Y229000D02*
D03*
X786000D02*
D03*
X776000D02*
D03*
X766000D02*
D03*
X806000D02*
D03*
X816000D02*
D03*
X826000D02*
D03*
X836000D02*
D03*
X846000D02*
D03*
X856000D02*
D03*
Y269000D02*
D03*
X846000D02*
D03*
X836000D02*
D03*
X826000D02*
D03*
X816000D02*
D03*
X806000D02*
D03*
X766000D02*
D03*
X776000D02*
D03*
X786000D02*
D03*
X796000D02*
D03*
Y259000D02*
D03*
X786000D02*
D03*
X776000D02*
D03*
X766000D02*
D03*
X806000D02*
D03*
X816000D02*
D03*
X826000D02*
D03*
X836000D02*
D03*
X846000D02*
D03*
X856000D02*
D03*
Y279000D02*
D03*
X846000D02*
D03*
X836000D02*
D03*
X826000D02*
D03*
X816000D02*
D03*
X806000D02*
D03*
X766000D02*
D03*
X776000D02*
D03*
X786000D02*
D03*
X796000D02*
D03*
Y289000D02*
D03*
X786000D02*
D03*
X776000D02*
D03*
X766000D02*
D03*
X806000D02*
D03*
X816000D02*
D03*
X826000D02*
D03*
X836000D02*
D03*
X846000D02*
D03*
X856000D02*
D03*
D61*
X621500Y472500D02*
D03*
X193500Y211500D02*
D03*
X139500Y379500D02*
D03*
X852500Y116500D02*
D03*
D62*
X673300Y239900D02*
D03*
X680800D02*
D03*
X325150Y403650D02*
D03*
X542000Y344600D02*
D03*
X486800Y320000D02*
D03*
X484400Y196800D02*
D03*
X491700Y196400D02*
D03*
X457500Y162000D02*
D03*
X198300Y461300D02*
D03*
X195500Y465500D02*
D03*
X231550Y311282D02*
D03*
X622500Y458400D02*
D03*
Y300100D02*
D03*
X639000Y295800D02*
D03*
X239400Y450100D02*
D03*
X239300Y483600D02*
D03*
X239400Y425800D02*
D03*
X355000Y325100D02*
D03*
X361200Y324600D02*
D03*
X610300Y126600D02*
D03*
X587000Y217000D02*
D03*
X587400Y366300D02*
D03*
X417000Y428200D02*
D03*
X439800Y428300D02*
D03*
X340400Y472600D02*
D03*
X607700Y128600D02*
D03*
X596357Y149357D02*
D03*
X584100Y217100D02*
D03*
X583800Y366300D02*
D03*
X507300Y428600D02*
D03*
X439700Y431800D02*
D03*
X417000Y431700D02*
D03*
X338100Y469700D02*
D03*
X222900Y468700D02*
D03*
X236700Y212000D02*
D03*
X272400Y266500D02*
D03*
X262800Y295700D02*
D03*
X713900Y142200D02*
D03*
X728500D02*
D03*
X755600Y244600D02*
D03*
X741800Y269900D02*
D03*
X747700Y224100D02*
D03*
X385800Y336800D02*
D03*
X508900Y352400D02*
D03*
X500400Y228000D02*
D03*
X542100Y308800D02*
D03*
X342400Y410200D02*
D03*
X472200Y239544D02*
D03*
X511800Y216500D02*
D03*
X523300Y227900D02*
D03*
X465800Y239544D02*
D03*
X406900Y260200D02*
D03*
X416800Y239400D02*
D03*
X417100Y413600D02*
D03*
X417000Y396300D02*
D03*
X657300Y114900D02*
D03*
X651300Y120000D02*
D03*
X572400Y128300D02*
D03*
X167500Y348300D02*
D03*
X170100Y353200D02*
D03*
X164400Y353300D02*
D03*
X248500Y317800D02*
D03*
X251100Y321700D02*
D03*
X245700D02*
D03*
X214662Y357339D02*
D03*
X681000Y255600D02*
D03*
X622400Y208600D02*
D03*
X648800Y225700D02*
D03*
X623675Y250800D02*
D03*
X700300Y197600D02*
D03*
X744300Y255700D02*
D03*
X745300Y192700D02*
D03*
X641700Y196500D02*
D03*
X627300Y219300D02*
D03*
X620100Y249600D02*
D03*
X665700Y251600D02*
D03*
X667100Y255300D02*
D03*
X702000Y222200D02*
D03*
X616300Y155000D02*
D03*
X652300Y154800D02*
D03*
X421300Y371300D02*
D03*
X417122Y371522D02*
D03*
X413463Y371763D02*
D03*
X403343Y369343D02*
D03*
X398500Y374825D02*
D03*
X346700Y400800D02*
D03*
X360100Y341100D02*
D03*
X394500Y297000D02*
D03*
X398800Y338800D02*
D03*
X415300Y316200D02*
D03*
X456753Y322400D02*
D03*
X469300Y334100D02*
D03*
X456900Y308200D02*
D03*
X456400Y278500D02*
D03*
X456900Y258000D02*
D03*
X435700Y252800D02*
D03*
X397300Y275400D02*
D03*
X399650Y252850D02*
D03*
X469600Y259300D02*
D03*
X401700Y265800D02*
D03*
X481200Y306800D02*
D03*
X481300Y290900D02*
D03*
X474800Y290200D02*
D03*
X481300Y262600D02*
D03*
X481200Y274700D02*
D03*
X486800Y245200D02*
D03*
X481200Y253000D02*
D03*
X463800Y248700D02*
D03*
X451000Y248800D02*
D03*
X451800Y243100D02*
D03*
X442300Y248800D02*
D03*
X433900D02*
D03*
X411217Y248783D02*
D03*
X546600Y302700D02*
D03*
X464500Y344300D02*
D03*
X475600Y349800D02*
D03*
X475800Y344200D02*
D03*
X446300Y344400D02*
D03*
X390791Y273291D02*
D03*
X390800Y264200D02*
D03*
X401400Y248700D02*
D03*
X390700Y309200D02*
D03*
X380800Y331400D02*
D03*
X390700Y326700D02*
D03*
X399000Y344300D02*
D03*
X415200D02*
D03*
X424996Y344204D02*
D03*
X432870Y344330D02*
D03*
X436807Y344207D02*
D03*
X403504Y322504D02*
D03*
X428200Y254700D02*
D03*
X445100Y254600D02*
D03*
X474800Y323000D02*
D03*
X474600Y305800D02*
D03*
X399406Y349794D02*
D03*
X385267Y318567D02*
D03*
X385228Y277228D02*
D03*
X385200Y255500D02*
D03*
X386200Y244500D02*
D03*
X400200Y243200D02*
D03*
X423028Y243072D02*
D03*
X481600Y243300D02*
D03*
X415154Y349654D02*
D03*
X447600Y349800D02*
D03*
X458461Y349761D02*
D03*
X484700Y348700D02*
D03*
X486811Y342189D02*
D03*
X486800Y274400D02*
D03*
Y263200D02*
D03*
X752800Y117400D02*
D03*
X788700Y133800D02*
D03*
X753200Y127500D02*
D03*
X718876Y131000D02*
D03*
X738600Y160500D02*
D03*
X689700Y151000D02*
D03*
X314800Y490500D02*
D03*
X404500Y109600D02*
D03*
X293300Y262300D02*
D03*
X304600Y246800D02*
D03*
X282900Y246500D02*
D03*
X282500Y205000D02*
D03*
X304200D02*
D03*
X304300Y212500D02*
D03*
X282600Y212400D02*
D03*
X450300Y197000D02*
D03*
X477500Y198100D02*
D03*
X451700Y162400D02*
D03*
X372744Y197344D02*
D03*
X374100Y178000D02*
D03*
X412500Y176200D02*
D03*
Y198000D02*
D03*
X238000Y283000D02*
D03*
X225000D02*
D03*
X243000Y279000D02*
D03*
X247000D02*
D03*
X222400Y374000D02*
D03*
Y356800D02*
D03*
X193300Y461300D02*
D03*
X258500Y262000D02*
D03*
X204000Y281756D02*
D03*
X185000Y272500D02*
D03*
Y356000D02*
D03*
X597000Y355000D02*
D03*
X600500Y467000D02*
D03*
X597000D02*
D03*
X604000D02*
D03*
X627500Y431000D02*
D03*
X627000Y427000D02*
D03*
X634000Y430000D02*
D03*
X638500Y430500D02*
D03*
X607500Y322500D02*
D03*
X602500Y315000D02*
D03*
X605000Y320000D02*
D03*
X615000Y243000D02*
D03*
Y233654D02*
D03*
Y202157D02*
D03*
Y249402D02*
D03*
Y227354D02*
D03*
Y217906D02*
D03*
Y211606D02*
D03*
Y195858D02*
D03*
X595000Y305000D02*
D03*
X597500Y307500D02*
D03*
X610000Y327500D02*
D03*
X612500Y330000D02*
D03*
X600000Y312500D02*
D03*
X600500Y350000D02*
D03*
X604000Y342500D02*
D03*
X617240Y183260D02*
D03*
X614890Y179610D02*
D03*
X697500Y190000D02*
D03*
X699760Y183260D02*
D03*
X697390Y179610D02*
D03*
X700000Y174000D02*
D03*
X706500Y168500D02*
D03*
X701500Y166000D02*
D03*
X697500Y160000D02*
D03*
X730260Y183260D02*
D03*
X730039Y176961D02*
D03*
X727689Y173811D02*
D03*
X730161Y170661D02*
D03*
X727512Y167512D02*
D03*
X647500Y160000D02*
D03*
X645000Y164500D02*
D03*
X618500Y190000D02*
D03*
X620500Y174500D02*
D03*
X616500Y162100D02*
D03*
X627000Y169650D02*
D03*
X621150Y166850D02*
D03*
X667100Y259600D02*
D03*
X677000Y262000D02*
D03*
X744500D02*
D03*
X540000Y197500D02*
D03*
Y187500D02*
D03*
Y182500D02*
D03*
Y177500D02*
D03*
Y172500D02*
D03*
Y192500D02*
D03*
Y202500D02*
D03*
Y167500D02*
D03*
Y222500D02*
D03*
Y217500D02*
D03*
X647500Y172000D02*
D03*
X645039Y176961D02*
D03*
X645500Y185000D02*
D03*
X540000Y212500D02*
D03*
Y207500D02*
D03*
Y227000D02*
D03*
X500000Y162000D02*
D03*
Y212000D02*
D03*
X442500Y197000D02*
D03*
Y177000D02*
D03*
X760500Y126500D02*
D03*
X764500D02*
D03*
X730000Y131000D02*
D03*
X733000Y128500D02*
D03*
X454000Y222000D02*
D03*
X458500D02*
D03*
X755500Y104500D02*
D03*
X520000Y319000D02*
D03*
X515000Y285000D02*
D03*
X512500Y282500D02*
D03*
X394900Y378000D02*
D03*
X371000Y150500D02*
D03*
X367000Y150000D02*
D03*
X367500Y154000D02*
D03*
X363000Y153500D02*
D03*
X363500Y157500D02*
D03*
X359500Y157000D02*
D03*
X388000Y159000D02*
D03*
X252000Y265500D02*
D03*
X513000Y309000D02*
D03*
X515500Y305000D02*
D03*
X509000Y311000D02*
D03*
X353000Y328500D02*
D03*
X378000D02*
D03*
X355000Y311500D02*
D03*
X277000Y271000D02*
D03*
X378500Y306000D02*
D03*
X379000Y309500D02*
D03*
X347500Y332500D02*
D03*
X331250Y310000D02*
D03*
X378500Y302500D02*
D03*
X323000Y337500D02*
D03*
X342500Y335000D02*
D03*
X379000Y313000D02*
D03*
X237500Y234000D02*
D03*
Y230000D02*
D03*
Y226000D02*
D03*
Y222500D02*
D03*
X359500Y302500D02*
D03*
X378500Y292000D02*
D03*
X357000Y299500D02*
D03*
X351500Y293500D02*
D03*
X354500Y296000D02*
D03*
X187500Y390500D02*
D03*
X172000D02*
D03*
X232750Y484000D02*
D03*
X277000Y481000D02*
D03*
X232500Y450000D02*
D03*
X275000Y448000D02*
D03*
X276000Y411000D02*
D03*
X232500Y413500D02*
D03*
X310500Y481000D02*
D03*
X303000Y409500D02*
D03*
X304500Y240000D02*
D03*
X282500D02*
D03*
X304500Y255000D02*
D03*
X282500D02*
D03*
X457756Y197244D02*
D03*
X485000Y162500D02*
D03*
X542500Y277000D02*
D03*
X564000D02*
D03*
X561846Y291846D02*
D03*
X562500Y234500D02*
D03*
X563256Y249744D02*
D03*
X542000Y249500D02*
D03*
X563000Y360500D02*
D03*
X542500Y360000D02*
D03*
X563000Y302500D02*
D03*
X542000Y317500D02*
D03*
X564000D02*
D03*
Y345000D02*
D03*
X402500Y414000D02*
D03*
X375000D02*
D03*
X502500Y393000D02*
D03*
X487500Y392500D02*
D03*
X502500Y414000D02*
D03*
X460000Y392000D02*
D03*
X445000Y393000D02*
D03*
X460000Y413500D02*
D03*
X445000Y412500D02*
D03*
X487500Y413500D02*
D03*
X362500Y196500D02*
D03*
X377500Y197500D02*
D03*
X362500Y177000D02*
D03*
X377500Y176500D02*
D03*
X420000Y177000D02*
D03*
X405000Y176500D02*
D03*
X420000Y197500D02*
D03*
X405000D02*
D03*
X695500Y262000D02*
D03*
X696500Y240000D02*
D03*
X744000D02*
D03*
X696500Y208500D02*
D03*
X743957Y208457D02*
D03*
X728500Y190500D02*
D03*
X729500Y256000D02*
D03*
X626900Y233600D02*
D03*
X663500Y238500D02*
D03*
X663000Y207000D02*
D03*
X561700Y244200D02*
D03*
X542400Y284500D02*
D03*
X542000Y242000D02*
D03*
X561800Y282200D02*
D03*
X563200Y350700D02*
D03*
X542900Y350900D02*
D03*
X562775Y312225D02*
D03*
X370321Y413800D02*
D03*
X375000Y392000D02*
D03*
X369911Y391790D02*
D03*
X402500Y392000D02*
D03*
X410000Y392100D02*
D03*
Y414550D02*
D03*
X495000Y413500D02*
D03*
Y392400D02*
D03*
X452700Y414000D02*
D03*
X452500Y392000D02*
D03*
X535000Y296800D02*
D03*
X528000Y234100D02*
D03*
X622500Y261756D02*
D03*
M02*
