%FSLAX25Y25*%
%MOIN*%
G70*
G01*
G75*
G04 Layer_Color=32896*
%ADD10O,0.01181X0.07480*%
%ADD11O,0.07480X0.01181*%
%ADD12R,0.07087X0.05118*%
%ADD13R,0.03937X0.03543*%
%ADD14R,0.03543X0.03150*%
%ADD15R,0.03543X0.03937*%
%ADD16R,0.02200X0.07800*%
%ADD17R,0.01400X0.06600*%
%ADD18O,0.02400X0.08000*%
%ADD19R,0.02200X0.05000*%
%ADD20R,0.05118X0.08661*%
%ADD21R,0.01400X0.07100*%
%ADD22O,0.07874X0.01969*%
%ADD23O,0.10000X0.01181*%
%ADD24O,0.01181X0.10000*%
%ADD25R,0.05118X0.09449*%
%ADD26R,0.09449X0.05118*%
%ADD27R,0.06299X0.06299*%
%ADD28R,0.09800X0.03700*%
%ADD29R,0.25700X0.26400*%
%ADD30R,0.01181X0.04724*%
%ADD31O,0.01181X0.04724*%
%ADD32R,0.05906X0.09055*%
%ADD33R,0.09055X0.09055*%
%ADD34R,0.05118X0.05906*%
%ADD35R,0.03150X0.03543*%
%ADD36R,0.08661X0.05512*%
%ADD37R,0.03543X0.05512*%
%ADD38R,0.05512X0.03543*%
%ADD39R,0.05512X0.08661*%
%ADD40C,0.00800*%
%ADD41C,0.07000*%
%ADD42C,0.01000*%
%ADD43C,0.03000*%
%ADD44C,0.10000*%
%ADD45C,0.01500*%
%ADD46C,0.05000*%
%ADD47C,0.07000*%
%ADD48C,0.05000*%
%ADD49R,0.05000X0.05000*%
%ADD50C,0.08000*%
%ADD51C,0.06000*%
%ADD52R,0.06000X0.06000*%
%ADD53R,0.09843X0.09843*%
%ADD54C,0.07874*%
%ADD55R,0.05906X0.05906*%
%ADD56C,0.05906*%
%ADD57O,0.05945X0.05906*%
%ADD58R,0.08000X0.08000*%
%ADD59R,0.05000X0.05000*%
%ADD60R,0.05906X0.05906*%
%ADD61C,0.11000*%
%ADD62C,0.05500*%
%ADD63C,0.06500*%
%ADD64C,0.14000*%
%ADD65C,0.02500*%
%ADD66C,0.03000*%
%ADD67C,0.02000*%
%ADD68C,0.00600*%
%ADD69C,0.00984*%
%ADD70C,0.00787*%
%ADD71O,0.01681X0.07980*%
%ADD72O,0.07980X0.01681*%
%ADD73R,0.07587X0.05618*%
%ADD74R,0.04437X0.04043*%
%ADD75R,0.04043X0.03650*%
%ADD76R,0.04043X0.04437*%
%ADD77R,0.02700X0.08300*%
%ADD78R,0.01900X0.07100*%
%ADD79O,0.02900X0.08500*%
%ADD80R,0.02700X0.05500*%
%ADD81R,0.05618X0.09161*%
%ADD82R,0.01900X0.07600*%
%ADD83O,0.08374X0.02469*%
%ADD84O,0.10500X0.01681*%
%ADD85O,0.01681X0.10500*%
%ADD86R,0.05618X0.09949*%
%ADD87R,0.09949X0.05618*%
%ADD88R,0.06799X0.06799*%
%ADD89R,0.10300X0.04200*%
%ADD90R,0.26200X0.26900*%
%ADD91R,0.01681X0.05224*%
%ADD92O,0.01681X0.05224*%
%ADD93R,0.06406X0.09555*%
%ADD94R,0.09555X0.09555*%
%ADD95R,0.05618X0.06406*%
%ADD96R,0.03650X0.04043*%
%ADD97R,0.09161X0.06012*%
%ADD98R,0.04043X0.06012*%
%ADD99R,0.06012X0.04043*%
%ADD100R,0.06012X0.09161*%
%ADD101C,0.07500*%
%ADD102R,0.05500X0.05500*%
%ADD103C,0.08500*%
%ADD104R,0.06500X0.06500*%
%ADD105R,0.10343X0.10343*%
%ADD106C,0.08374*%
%ADD107R,0.06406X0.06406*%
%ADD108C,0.06406*%
%ADD109O,0.06445X0.06406*%
%ADD110R,0.08500X0.08500*%
%ADD111R,0.05500X0.05500*%
%ADD112R,0.06406X0.06406*%
%ADD113C,0.11500*%
%ADD114C,0.14500*%
%ADD115C,0.03500*%
D40*
X801701Y454249D02*
X802451Y454998D01*
X803950D01*
X804700Y454249D01*
Y451250D01*
X803950Y450500D01*
X802451D01*
X801701Y451250D01*
X797202Y454998D02*
X800202D01*
Y452749D01*
X798702Y453499D01*
X797952D01*
X797202Y452749D01*
Y451250D01*
X797952Y450500D01*
X799452D01*
X800202Y451250D01*
X792704Y454998D02*
X794203Y454249D01*
X795703Y452749D01*
Y451250D01*
X794953Y450500D01*
X793454D01*
X792704Y451250D01*
Y452000D01*
X793454Y452749D01*
X795703D01*
X435200Y180800D02*
Y185299D01*
X432951D01*
X432201Y184549D01*
Y183049D01*
X432951Y182299D01*
X435200D01*
X433701D02*
X432201Y180800D01*
X427702D02*
X430701D01*
X427702Y183799D01*
Y184549D01*
X428452Y185299D01*
X429952D01*
X430701Y184549D01*
X426203D02*
X425453Y185299D01*
X423954D01*
X423204Y184549D01*
Y181550D01*
X423954Y180800D01*
X425453D01*
X426203Y181550D01*
Y184549D01*
X434900Y188900D02*
Y193399D01*
X432651D01*
X431901Y192649D01*
Y191149D01*
X432651Y190400D01*
X434900D01*
X433400D02*
X431901Y188900D01*
X430402D02*
X428902D01*
X429652D01*
Y193399D01*
X430402Y192649D01*
X426653Y189650D02*
X425903Y188900D01*
X424403D01*
X423654Y189650D01*
Y192649D01*
X424403Y193399D01*
X425903D01*
X426653Y192649D01*
Y191899D01*
X425903Y191149D01*
X423654D01*
X463800Y180800D02*
Y185299D01*
X461551D01*
X460801Y184549D01*
Y183049D01*
X461551Y182299D01*
X463800D01*
X462300D02*
X460801Y180800D01*
X456302Y185299D02*
X457802Y184549D01*
X459302Y183049D01*
Y181550D01*
X458552Y180800D01*
X457052D01*
X456302Y181550D01*
Y182299D01*
X457052Y183049D01*
X459302D01*
X463600Y187700D02*
Y192199D01*
X461351D01*
X460601Y191449D01*
Y189949D01*
X461351Y189199D01*
X463600D01*
X462101D02*
X460601Y187700D01*
X456102Y192199D02*
X459101D01*
Y189949D01*
X457602Y190699D01*
X456852D01*
X456102Y189949D01*
Y188450D01*
X456852Y187700D01*
X458352D01*
X459101Y188450D01*
X228201Y368749D02*
X228951Y369498D01*
X230450D01*
X231200Y368749D01*
Y365750D01*
X230450Y365000D01*
X228951D01*
X228201Y365750D01*
X223702Y369498D02*
X225202Y368749D01*
X226701Y367249D01*
Y365750D01*
X225952Y365000D01*
X224452D01*
X223702Y365750D01*
Y366499D01*
X224452Y367249D01*
X226701D01*
X219204Y365000D02*
X222203D01*
X219204Y367999D01*
Y368749D01*
X219954Y369498D01*
X221453D01*
X222203Y368749D01*
X631700Y194000D02*
Y198499D01*
X629451D01*
X628701Y197749D01*
Y196249D01*
X629451Y195500D01*
X631700D01*
X630200D02*
X628701Y194000D01*
X627202Y198499D02*
X624202D01*
Y197749D01*
X627202Y194750D01*
Y194000D01*
X622703D02*
X621203D01*
X621953D01*
Y198499D01*
X622703Y197749D01*
X717500Y188300D02*
Y192799D01*
X715251D01*
X714501Y192049D01*
Y190549D01*
X715251Y189799D01*
X717500D01*
X716001D02*
X714501Y188300D01*
X713001Y192799D02*
X710002D01*
Y192049D01*
X713001Y189050D01*
Y188300D01*
X708503Y192049D02*
X707753Y192799D01*
X706254D01*
X705504Y192049D01*
Y189050D01*
X706254Y188300D01*
X707753D01*
X708503Y189050D01*
Y192049D01*
X678400Y238600D02*
Y243098D01*
X676151D01*
X675401Y242349D01*
Y240849D01*
X676151Y240100D01*
X678400D01*
X676900D02*
X675401Y238600D01*
X670902Y243098D02*
X672402Y242349D01*
X673902Y240849D01*
Y239350D01*
X673152Y238600D01*
X671652D01*
X670902Y239350D01*
Y240100D01*
X671652Y240849D01*
X673902D01*
X669403Y239350D02*
X668653Y238600D01*
X667154D01*
X666404Y239350D01*
Y242349D01*
X667154Y243098D01*
X668653D01*
X669403Y242349D01*
Y241599D01*
X668653Y240849D01*
X666404D01*
X737500Y258300D02*
Y262799D01*
X735251D01*
X734501Y262049D01*
Y260549D01*
X735251Y259800D01*
X737500D01*
X736000D02*
X734501Y258300D01*
X730002Y262799D02*
X731502Y262049D01*
X733002Y260549D01*
Y259050D01*
X732252Y258300D01*
X730752D01*
X730002Y259050D01*
Y259800D01*
X730752Y260549D01*
X733002D01*
X728503Y262049D02*
X727753Y262799D01*
X726254D01*
X725504Y262049D01*
Y261299D01*
X726254Y260549D01*
X725504Y259800D01*
Y259050D01*
X726254Y258300D01*
X727753D01*
X728503Y259050D01*
Y259800D01*
X727753Y260549D01*
X728503Y261299D01*
Y262049D01*
X727753Y260549D02*
X726254D01*
X497500Y327100D02*
Y331598D01*
X495251D01*
X494501Y330849D01*
Y329349D01*
X495251Y328600D01*
X497500D01*
X496000D02*
X494501Y327100D01*
X490002Y331598D02*
X491502Y330849D01*
X493002Y329349D01*
Y327850D01*
X492252Y327100D01*
X490752D01*
X490002Y327850D01*
Y328600D01*
X490752Y329349D01*
X493002D01*
X488503Y331598D02*
X485504D01*
Y330849D01*
X488503Y327850D01*
Y327100D01*
X452800D02*
Y331598D01*
X450551D01*
X449801Y330849D01*
Y329349D01*
X450551Y328600D01*
X452800D01*
X451300D02*
X449801Y327100D01*
X445302Y331598D02*
X446802Y330849D01*
X448302Y329349D01*
Y327850D01*
X447552Y327100D01*
X446052D01*
X445302Y327850D01*
Y328600D01*
X446052Y329349D01*
X448302D01*
X440804Y331598D02*
X442303Y330849D01*
X443803Y329349D01*
Y327850D01*
X443053Y327100D01*
X441554D01*
X440804Y327850D01*
Y328600D01*
X441554Y329349D01*
X443803D01*
X405900Y326300D02*
Y330799D01*
X403651D01*
X402901Y330049D01*
Y328549D01*
X403651Y327800D01*
X405900D01*
X404400D02*
X402901Y326300D01*
X398402Y330799D02*
X399902Y330049D01*
X401402Y328549D01*
Y327050D01*
X400652Y326300D01*
X399152D01*
X398402Y327050D01*
Y327800D01*
X399152Y328549D01*
X401402D01*
X393904Y330799D02*
X396903D01*
Y328549D01*
X395403Y329299D01*
X394654D01*
X393904Y328549D01*
Y327050D01*
X394654Y326300D01*
X396153D01*
X396903Y327050D01*
X497000Y282900D02*
Y287399D01*
X494751D01*
X494001Y286649D01*
Y285149D01*
X494751Y284400D01*
X497000D01*
X495501D02*
X494001Y282900D01*
X489502Y287399D02*
X491002Y286649D01*
X492501Y285149D01*
Y283650D01*
X491752Y282900D01*
X490252D01*
X489502Y283650D01*
Y284400D01*
X490252Y285149D01*
X492501D01*
X485754Y282900D02*
Y287399D01*
X488003Y285149D01*
X485004D01*
X497400Y297500D02*
Y301998D01*
X495151D01*
X494401Y301249D01*
Y299749D01*
X495151Y299000D01*
X497400D01*
X495900D02*
X494401Y297500D01*
X489902Y301998D02*
X491402Y301249D01*
X492902Y299749D01*
Y298250D01*
X492152Y297500D01*
X490652D01*
X489902Y298250D01*
Y299000D01*
X490652Y299749D01*
X492902D01*
X488403Y301249D02*
X487653Y301998D01*
X486154D01*
X485404Y301249D01*
Y300499D01*
X486154Y299749D01*
X486903D01*
X486154D01*
X485404Y299000D01*
Y298250D01*
X486154Y297500D01*
X487653D01*
X488403Y298250D01*
X390100Y294300D02*
Y298798D01*
X387851D01*
X387101Y298049D01*
Y296549D01*
X387851Y295799D01*
X390100D01*
X388600D02*
X387101Y294300D01*
X382602Y298798D02*
X384102Y298049D01*
X385601Y296549D01*
Y295050D01*
X384852Y294300D01*
X383352D01*
X382602Y295050D01*
Y295799D01*
X383352Y296549D01*
X385601D01*
X378104Y294300D02*
X381103D01*
X378104Y297299D01*
Y298049D01*
X378854Y298798D01*
X380353D01*
X381103Y298049D01*
X416900Y294700D02*
Y299199D01*
X414651D01*
X413901Y298449D01*
Y296949D01*
X414651Y296199D01*
X416900D01*
X415401D02*
X413901Y294700D01*
X409402Y299199D02*
X410902Y298449D01*
X412401Y296949D01*
Y295450D01*
X411652Y294700D01*
X410152D01*
X409402Y295450D01*
Y296199D01*
X410152Y296949D01*
X412401D01*
X407903Y294700D02*
X406403D01*
X407153D01*
Y299199D01*
X407903Y298449D01*
X640801Y269249D02*
X641551Y269999D01*
X643050D01*
X643800Y269249D01*
Y266250D01*
X643050Y265500D01*
X641551D01*
X640801Y266250D01*
X639301D02*
X638552Y265500D01*
X637052D01*
X636302Y266250D01*
Y269249D01*
X637052Y269999D01*
X638552D01*
X639301Y269249D01*
Y268499D01*
X638552Y267749D01*
X636302D01*
X632554Y265500D02*
Y269999D01*
X634803Y267749D01*
X631804D01*
X626501Y269149D02*
X627251Y269899D01*
X628750D01*
X629500Y269149D01*
Y266150D01*
X628750Y265400D01*
X627251D01*
X626501Y266150D01*
X625001D02*
X624252Y265400D01*
X622752D01*
X622002Y266150D01*
Y269149D01*
X622752Y269899D01*
X624252D01*
X625001Y269149D01*
Y268399D01*
X624252Y267649D01*
X622002D01*
X620503Y269149D02*
X619753Y269899D01*
X618254D01*
X617504Y269149D01*
Y268399D01*
X618254Y267649D01*
X619003D01*
X618254D01*
X617504Y266899D01*
Y266150D01*
X618254Y265400D01*
X619753D01*
X620503Y266150D01*
X639301Y236049D02*
X640051Y236799D01*
X641550D01*
X642300Y236049D01*
Y233050D01*
X641550Y232300D01*
X640051D01*
X639301Y233050D01*
X637802D02*
X637052Y232300D01*
X635552D01*
X634802Y233050D01*
Y236049D01*
X635552Y236799D01*
X637052D01*
X637802Y236049D01*
Y235299D01*
X637052Y234549D01*
X634802D01*
X630304Y232300D02*
X633303D01*
X630304Y235299D01*
Y236049D01*
X631054Y236799D01*
X632553D01*
X633303Y236049D01*
X633001Y252449D02*
X633751Y253199D01*
X635250D01*
X636000Y252449D01*
Y249450D01*
X635250Y248700D01*
X633751D01*
X633001Y249450D01*
X631501D02*
X630752Y248700D01*
X629252D01*
X628502Y249450D01*
Y252449D01*
X629252Y253199D01*
X630752D01*
X631501Y252449D01*
Y251699D01*
X630752Y250949D01*
X628502D01*
X627003Y248700D02*
X625503D01*
X626253D01*
Y253199D01*
X627003Y252449D01*
X636401Y224249D02*
X637151Y224998D01*
X638650D01*
X639400Y224249D01*
Y221250D01*
X638650Y220500D01*
X637151D01*
X636401Y221250D01*
X634902D02*
X634152Y220500D01*
X632652D01*
X631902Y221250D01*
Y224249D01*
X632652Y224998D01*
X634152D01*
X634902Y224249D01*
Y223499D01*
X634152Y222749D01*
X631902D01*
X630403Y224249D02*
X629653Y224998D01*
X628154D01*
X627404Y224249D01*
Y221250D01*
X628154Y220500D01*
X629653D01*
X630403Y221250D01*
Y224249D01*
X622301Y224049D02*
X623051Y224798D01*
X624550D01*
X625300Y224049D01*
Y221050D01*
X624550Y220300D01*
X623051D01*
X622301Y221050D01*
X620801Y224049D02*
X620052Y224798D01*
X618552D01*
X617802Y224049D01*
Y223299D01*
X618552Y222549D01*
X617802Y221799D01*
Y221050D01*
X618552Y220300D01*
X620052D01*
X620801Y221050D01*
Y221799D01*
X620052Y222549D01*
X620801Y223299D01*
Y224049D01*
X620052Y222549D02*
X618552D01*
X616303Y221050D02*
X615553Y220300D01*
X614054D01*
X613304Y221050D01*
Y224049D01*
X614054Y224798D01*
X615553D01*
X616303Y224049D01*
Y223299D01*
X615553Y222549D01*
X613304D01*
X654001Y151649D02*
X654751Y152399D01*
X656250D01*
X657000Y151649D01*
Y148650D01*
X656250Y147900D01*
X654751D01*
X654001Y148650D01*
X652501Y151649D02*
X651752Y152399D01*
X650252D01*
X649502Y151649D01*
Y150899D01*
X650252Y150149D01*
X649502Y149399D01*
Y148650D01*
X650252Y147900D01*
X651752D01*
X652501Y148650D01*
Y149399D01*
X651752Y150149D01*
X652501Y150899D01*
Y151649D01*
X651752Y150149D02*
X650252D01*
X648003Y151649D02*
X647253Y152399D01*
X645754D01*
X645004Y151649D01*
Y150899D01*
X645754Y150149D01*
X645004Y149399D01*
Y148650D01*
X645754Y147900D01*
X647253D01*
X648003Y148650D01*
Y149399D01*
X647253Y150149D01*
X648003Y150899D01*
Y151649D01*
X647253Y150149D02*
X645754D01*
X624901Y151549D02*
X625651Y152299D01*
X627150D01*
X627900Y151549D01*
Y148550D01*
X627150Y147800D01*
X625651D01*
X624901Y148550D01*
X623401Y151549D02*
X622652Y152299D01*
X621152D01*
X620402Y151549D01*
Y150799D01*
X621152Y150049D01*
X620402Y149300D01*
Y148550D01*
X621152Y147800D01*
X622652D01*
X623401Y148550D01*
Y149300D01*
X622652Y150049D01*
X623401Y150799D01*
Y151549D01*
X622652Y150049D02*
X621152D01*
X618903Y152299D02*
X615904D01*
Y151549D01*
X618903Y148550D01*
Y147800D01*
X650101Y221949D02*
X650851Y222698D01*
X652350D01*
X653100Y221949D01*
Y218950D01*
X652350Y218200D01*
X650851D01*
X650101Y218950D01*
X648601Y221949D02*
X647852Y222698D01*
X646352D01*
X645602Y221949D01*
Y221199D01*
X646352Y220449D01*
X645602Y219700D01*
Y218950D01*
X646352Y218200D01*
X647852D01*
X648601Y218950D01*
Y219700D01*
X647852Y220449D01*
X648601Y221199D01*
Y221949D01*
X647852Y220449D02*
X646352D01*
X641104Y222698D02*
X642603Y221949D01*
X644103Y220449D01*
Y218950D01*
X643353Y218200D01*
X641854D01*
X641104Y218950D01*
Y219700D01*
X641854Y220449D01*
X644103D01*
X663801Y221649D02*
X664551Y222398D01*
X666050D01*
X666800Y221649D01*
Y218650D01*
X666050Y217900D01*
X664551D01*
X663801Y218650D01*
X662301Y221649D02*
X661552Y222398D01*
X660052D01*
X659302Y221649D01*
Y220899D01*
X660052Y220149D01*
X659302Y219399D01*
Y218650D01*
X660052Y217900D01*
X661552D01*
X662301Y218650D01*
Y219399D01*
X661552Y220149D01*
X662301Y220899D01*
Y221649D01*
X661552Y220149D02*
X660052D01*
X654804Y222398D02*
X657803D01*
Y220149D01*
X656303Y220899D01*
X655554D01*
X654804Y220149D01*
Y218650D01*
X655554Y217900D01*
X657053D01*
X657803Y218650D01*
X714801Y269649D02*
X715551Y270398D01*
X717050D01*
X717800Y269649D01*
Y266650D01*
X717050Y265900D01*
X715551D01*
X714801Y266650D01*
X713302Y269649D02*
X712552Y270398D01*
X711052D01*
X710302Y269649D01*
Y268899D01*
X711052Y268149D01*
X710302Y267400D01*
Y266650D01*
X711052Y265900D01*
X712552D01*
X713302Y266650D01*
Y267400D01*
X712552Y268149D01*
X713302Y268899D01*
Y269649D01*
X712552Y268149D02*
X711052D01*
X706554Y265900D02*
Y270398D01*
X708803Y268149D01*
X705804D01*
X700901Y269549D02*
X701651Y270299D01*
X703150D01*
X703900Y269549D01*
Y266550D01*
X703150Y265800D01*
X701651D01*
X700901Y266550D01*
X699402Y269549D02*
X698652Y270299D01*
X697152D01*
X696402Y269549D01*
Y268799D01*
X697152Y268049D01*
X696402Y267300D01*
Y266550D01*
X697152Y265800D01*
X698652D01*
X699402Y266550D01*
Y267300D01*
X698652Y268049D01*
X699402Y268799D01*
Y269549D01*
X698652Y268049D02*
X697152D01*
X694903Y269549D02*
X694153Y270299D01*
X692654D01*
X691904Y269549D01*
Y268799D01*
X692654Y268049D01*
X693403D01*
X692654D01*
X691904Y267300D01*
Y266550D01*
X692654Y265800D01*
X694153D01*
X694903Y266550D01*
X648701Y252649D02*
X649451Y253398D01*
X650950D01*
X651700Y252649D01*
Y249650D01*
X650950Y248900D01*
X649451D01*
X648701Y249650D01*
X647201Y252649D02*
X646452Y253398D01*
X644952D01*
X644202Y252649D01*
Y251899D01*
X644952Y251149D01*
X644202Y250399D01*
Y249650D01*
X644952Y248900D01*
X646452D01*
X647201Y249650D01*
Y250399D01*
X646452Y251149D01*
X647201Y251899D01*
Y252649D01*
X646452Y251149D02*
X644952D01*
X639704Y248900D02*
X642703D01*
X639704Y251899D01*
Y252649D01*
X640454Y253398D01*
X641953D01*
X642703Y252649D01*
X660601Y252849D02*
X661351Y253598D01*
X662850D01*
X663600Y252849D01*
Y249850D01*
X662850Y249100D01*
X661351D01*
X660601Y249850D01*
X659101Y252849D02*
X658352Y253598D01*
X656852D01*
X656102Y252849D01*
Y252099D01*
X656852Y251349D01*
X656102Y250600D01*
Y249850D01*
X656852Y249100D01*
X658352D01*
X659101Y249850D01*
Y250600D01*
X658352Y251349D01*
X659101Y252099D01*
Y252849D01*
X658352Y251349D02*
X656852D01*
X654603Y249100D02*
X653103D01*
X653853D01*
Y253598D01*
X654603Y252849D01*
X714001Y252549D02*
X714751Y253298D01*
X716250D01*
X717000Y252549D01*
Y249550D01*
X716250Y248800D01*
X714751D01*
X714001Y249550D01*
X712501Y252549D02*
X711752Y253298D01*
X710252D01*
X709502Y252549D01*
Y251799D01*
X710252Y251049D01*
X709502Y250300D01*
Y249550D01*
X710252Y248800D01*
X711752D01*
X712501Y249550D01*
Y250300D01*
X711752Y251049D01*
X712501Y251799D01*
Y252549D01*
X711752Y251049D02*
X710252D01*
X708003Y252549D02*
X707253Y253298D01*
X705754D01*
X705004Y252549D01*
Y249550D01*
X705754Y248800D01*
X707253D01*
X708003Y249550D01*
Y252549D01*
X700401Y252649D02*
X701151Y253398D01*
X702650D01*
X703400Y252649D01*
Y249650D01*
X702650Y248900D01*
X701151D01*
X700401Y249650D01*
X698902Y253398D02*
X695902D01*
Y252649D01*
X698902Y249650D01*
Y248900D01*
X694403Y249650D02*
X693653Y248900D01*
X692154D01*
X691404Y249650D01*
Y252649D01*
X692154Y253398D01*
X693653D01*
X694403Y252649D01*
Y251899D01*
X693653Y251149D01*
X691404D01*
X714001Y221449D02*
X714751Y222199D01*
X716250D01*
X717000Y221449D01*
Y218450D01*
X716250Y217700D01*
X714751D01*
X714001Y218450D01*
X712501Y222199D02*
X709502D01*
Y221449D01*
X712501Y218450D01*
Y217700D01*
X708003Y221449D02*
X707253Y222199D01*
X705754D01*
X705004Y221449D01*
Y220699D01*
X705754Y219949D01*
X705004Y219199D01*
Y218450D01*
X705754Y217700D01*
X707253D01*
X708003Y218450D01*
Y219199D01*
X707253Y219949D01*
X708003Y220699D01*
Y221449D01*
X707253Y219949D02*
X705754D01*
X696101Y220949D02*
X696851Y221698D01*
X698350D01*
X699100Y220949D01*
Y217950D01*
X698350Y217200D01*
X696851D01*
X696101Y217950D01*
X694601Y221698D02*
X691602D01*
Y220949D01*
X694601Y217950D01*
Y217200D01*
X690103Y221698D02*
X687104D01*
Y220949D01*
X690103Y217950D01*
Y217200D01*
X731901Y152249D02*
X732651Y152999D01*
X734150D01*
X734900Y152249D01*
Y149250D01*
X734150Y148500D01*
X732651D01*
X731901Y149250D01*
X730402Y152999D02*
X727402D01*
Y152249D01*
X730402Y149250D01*
Y148500D01*
X722904Y152999D02*
X724403Y152249D01*
X725903Y150749D01*
Y149250D01*
X725153Y148500D01*
X723654D01*
X722904Y149250D01*
Y149999D01*
X723654Y150749D01*
X725903D01*
X704401Y152049D02*
X705151Y152799D01*
X706650D01*
X707400Y152049D01*
Y149050D01*
X706650Y148300D01*
X705151D01*
X704401Y149050D01*
X702902Y152799D02*
X699902D01*
Y152049D01*
X702902Y149050D01*
Y148300D01*
X695404Y152799D02*
X698403D01*
Y150549D01*
X696903Y151299D01*
X696154D01*
X695404Y150549D01*
Y149050D01*
X696154Y148300D01*
X697653D01*
X698403Y149050D01*
X729201Y221449D02*
X729951Y222199D01*
X731450D01*
X732200Y221449D01*
Y218450D01*
X731450Y217700D01*
X729951D01*
X729201Y218450D01*
X727702Y222199D02*
X724702D01*
Y221449D01*
X727702Y218450D01*
Y217700D01*
X720954D02*
Y222199D01*
X723203Y219949D01*
X720204D01*
X744601Y221749D02*
X745351Y222498D01*
X746850D01*
X747600Y221749D01*
Y218750D01*
X746850Y218000D01*
X745351D01*
X744601Y218750D01*
X743102Y222498D02*
X740102D01*
Y221749D01*
X743102Y218750D01*
Y218000D01*
X738603Y221749D02*
X737853Y222498D01*
X736354D01*
X735604Y221749D01*
Y220999D01*
X736354Y220249D01*
X737103D01*
X736354D01*
X735604Y219499D01*
Y218750D01*
X736354Y218000D01*
X737853D01*
X738603Y218750D01*
X730001Y252549D02*
X730751Y253298D01*
X732250D01*
X733000Y252549D01*
Y249550D01*
X732250Y248800D01*
X730751D01*
X730001Y249550D01*
X728502Y253298D02*
X725502D01*
Y252549D01*
X728502Y249550D01*
Y248800D01*
X721004D02*
X724003D01*
X721004Y251799D01*
Y252549D01*
X721754Y253298D01*
X723253D01*
X724003Y252549D01*
X743001Y252349D02*
X743751Y253099D01*
X745250D01*
X746000Y252349D01*
Y249350D01*
X745250Y248600D01*
X743751D01*
X743001Y249350D01*
X741502Y253099D02*
X738502D01*
Y252349D01*
X741502Y249350D01*
Y248600D01*
X737003D02*
X735503D01*
X736253D01*
Y253099D01*
X737003Y252349D01*
X479001Y238549D02*
X479751Y239299D01*
X481250D01*
X482000Y238549D01*
Y235550D01*
X481250Y234800D01*
X479751D01*
X479001Y235550D01*
X474502Y239299D02*
X476002Y238549D01*
X477501Y237049D01*
Y235550D01*
X476752Y234800D01*
X475252D01*
X474502Y235550D01*
Y236299D01*
X475252Y237049D01*
X477501D01*
X391301Y238949D02*
X392051Y239699D01*
X393550D01*
X394300Y238949D01*
Y235950D01*
X393550Y235200D01*
X392051D01*
X391301Y235950D01*
X389802Y239699D02*
X386802D01*
Y238949D01*
X389802Y235950D01*
Y235200D01*
X385301Y309849D02*
X386051Y310598D01*
X387550D01*
X388300Y309849D01*
Y306850D01*
X387550Y306100D01*
X386051D01*
X385301Y306850D01*
X383802Y309849D02*
X383052Y310598D01*
X381552D01*
X380802Y309849D01*
Y309099D01*
X381552Y308349D01*
X380802Y307599D01*
Y306850D01*
X381552Y306100D01*
X383052D01*
X383802Y306850D01*
Y307599D01*
X383052Y308349D01*
X383802Y309099D01*
Y309849D01*
X383052Y308349D02*
X381552D01*
X494901Y259349D02*
X495651Y260099D01*
X497150D01*
X497900Y259349D01*
Y256350D01*
X497150Y255600D01*
X495651D01*
X494901Y256350D01*
X493401D02*
X492652Y255600D01*
X491152D01*
X490402Y256350D01*
Y259349D01*
X491152Y260099D01*
X492652D01*
X493401Y259349D01*
Y258599D01*
X492652Y257849D01*
X490402D01*
X429801Y239149D02*
X430551Y239898D01*
X432050D01*
X432800Y239149D01*
Y236150D01*
X432050Y235400D01*
X430551D01*
X429801Y236150D01*
X428301Y235400D02*
X426802D01*
X427552D01*
Y239898D01*
X428301Y239149D01*
X424553D02*
X423803Y239898D01*
X422303D01*
X421554Y239149D01*
Y236150D01*
X422303Y235400D01*
X423803D01*
X424553Y236150D01*
Y239149D01*
X406501D02*
X407251Y239898D01*
X408750D01*
X409500Y239149D01*
Y236150D01*
X408750Y235400D01*
X407251D01*
X406501Y236150D01*
X405001Y235400D02*
X403502D01*
X404252D01*
Y239898D01*
X405001Y239149D01*
X401253Y235400D02*
X399753D01*
X400503D01*
Y239898D01*
X401253Y239149D01*
X378601Y261149D02*
X379351Y261898D01*
X380850D01*
X381600Y261149D01*
Y258150D01*
X380850Y257400D01*
X379351D01*
X378601Y258150D01*
X377101Y257400D02*
X375602D01*
X376352D01*
Y261898D01*
X377101Y261149D01*
X370354Y257400D02*
X373353D01*
X370354Y260399D01*
Y261149D01*
X371103Y261898D01*
X372603D01*
X373353Y261149D01*
X457501Y238749D02*
X458251Y239498D01*
X459750D01*
X460500Y238749D01*
Y235750D01*
X459750Y235000D01*
X458251D01*
X457501Y235750D01*
X456002Y235000D02*
X454502D01*
X455252D01*
Y239498D01*
X456002Y238749D01*
X452253D02*
X451503Y239498D01*
X450003D01*
X449254Y238749D01*
Y237999D01*
X450003Y237249D01*
X450753D01*
X450003D01*
X449254Y236500D01*
Y235750D01*
X450003Y235000D01*
X451503D01*
X452253Y235750D01*
X498301Y271649D02*
X499051Y272398D01*
X500550D01*
X501300Y271649D01*
Y268650D01*
X500550Y267900D01*
X499051D01*
X498301Y268650D01*
X496802Y267900D02*
X495302D01*
X496052D01*
Y272398D01*
X496802Y271649D01*
X490803Y267900D02*
Y272398D01*
X493053Y270149D01*
X490054D01*
X498301Y317749D02*
X499051Y318498D01*
X500550D01*
X501300Y317749D01*
Y314750D01*
X500550Y314000D01*
X499051D01*
X498301Y314750D01*
X496802Y314000D02*
X495302D01*
X496052D01*
Y318498D01*
X496802Y317749D01*
X490054Y318498D02*
X493053D01*
Y316249D01*
X491553Y316999D01*
X490803D01*
X490054Y316249D01*
Y314750D01*
X490803Y314000D01*
X492303D01*
X493053Y314750D01*
X485101Y356649D02*
X485851Y357399D01*
X487350D01*
X488100Y356649D01*
Y353650D01*
X487350Y352900D01*
X485851D01*
X485101Y353650D01*
X483602Y352900D02*
X482102D01*
X482852D01*
Y357399D01*
X483602Y356649D01*
X476854Y357399D02*
X478353Y356649D01*
X479853Y355149D01*
Y353650D01*
X479103Y352900D01*
X477603D01*
X476854Y353650D01*
Y354399D01*
X477603Y355149D01*
X479853D01*
X498301Y338749D02*
X499051Y339498D01*
X500550D01*
X501300Y338749D01*
Y335750D01*
X500550Y335000D01*
X499051D01*
X498301Y335750D01*
X496802Y335000D02*
X495302D01*
X496052D01*
Y339498D01*
X496802Y338749D01*
X493053Y339498D02*
X490054D01*
Y338749D01*
X493053Y335750D01*
Y335000D01*
X378801Y283449D02*
X379551Y284198D01*
X381050D01*
X381800Y283449D01*
Y280450D01*
X381050Y279700D01*
X379551D01*
X378801Y280450D01*
X377302Y279700D02*
X375802D01*
X376552D01*
Y284198D01*
X377302Y283449D01*
X373553D02*
X372803Y284198D01*
X371303D01*
X370554Y283449D01*
Y282699D01*
X371303Y281949D01*
X370554Y281200D01*
Y280450D01*
X371303Y279700D01*
X372803D01*
X373553Y280450D01*
Y281200D01*
X372803Y281949D01*
X373553Y282699D01*
Y283449D01*
X372803Y281949D02*
X371303D01*
X390601Y342549D02*
X391351Y343299D01*
X392850D01*
X393600Y342549D01*
Y339550D01*
X392850Y338800D01*
X391351D01*
X390601Y339550D01*
X389102Y338800D02*
X387602D01*
X388352D01*
Y343299D01*
X389102Y342549D01*
X385353Y339550D02*
X384603Y338800D01*
X383103D01*
X382354Y339550D01*
Y342549D01*
X383103Y343299D01*
X384603D01*
X385353Y342549D01*
Y341799D01*
X384603Y341049D01*
X382354D01*
X422601Y356849D02*
X423351Y357598D01*
X424850D01*
X425600Y356849D01*
Y353850D01*
X424850Y353100D01*
X423351D01*
X422601Y353850D01*
X418102Y353100D02*
X421102D01*
X418102Y356099D01*
Y356849D01*
X418852Y357598D01*
X420352D01*
X421102Y356849D01*
X416603D02*
X415853Y357598D01*
X414354D01*
X413604Y356849D01*
Y353850D01*
X414354Y353100D01*
X415853D01*
X416603Y353850D01*
Y356849D01*
X440101Y357349D02*
X440851Y358099D01*
X442350D01*
X443100Y357349D01*
Y354350D01*
X442350Y353600D01*
X440851D01*
X440101Y354350D01*
X435602Y353600D02*
X438601D01*
X435602Y356599D01*
Y357349D01*
X436352Y358099D01*
X437852D01*
X438601Y357349D01*
X434103Y353600D02*
X432603D01*
X433353D01*
Y358099D01*
X434103Y357349D01*
X406301Y356849D02*
X407051Y357598D01*
X408550D01*
X409300Y356849D01*
Y353850D01*
X408550Y353100D01*
X407051D01*
X406301Y353850D01*
X401802Y353100D02*
X404802D01*
X401802Y356099D01*
Y356849D01*
X402552Y357598D01*
X404052D01*
X404802Y356849D01*
X397304Y353100D02*
X400303D01*
X397304Y356099D01*
Y356849D01*
X398054Y357598D01*
X399553D01*
X400303Y356849D01*
X456401Y356949D02*
X457151Y357698D01*
X458650D01*
X459400Y356949D01*
Y353950D01*
X458650Y353200D01*
X457151D01*
X456401Y353950D01*
X451902Y353200D02*
X454902D01*
X451902Y356199D01*
Y356949D01*
X452652Y357698D01*
X454152D01*
X454902Y356949D01*
X450403D02*
X449653Y357698D01*
X448154D01*
X447404Y356949D01*
Y356199D01*
X448154Y355449D01*
X448903D01*
X448154D01*
X447404Y354699D01*
Y353950D01*
X448154Y353200D01*
X449653D01*
X450403Y353950D01*
X375301Y426349D02*
X376051Y427099D01*
X377550D01*
X378300Y426349D01*
Y423350D01*
X377550Y422600D01*
X376051D01*
X375301Y423350D01*
X373801Y426349D02*
X373052Y427099D01*
X371552D01*
X370802Y426349D01*
Y425599D01*
X371552Y424849D01*
X372302D01*
X371552D01*
X370802Y424099D01*
Y423350D01*
X371552Y422600D01*
X373052D01*
X373801Y423350D01*
X367054Y422600D02*
Y427099D01*
X369303Y424849D01*
X366304D01*
X402001Y426149D02*
X402751Y426898D01*
X404250D01*
X405000Y426149D01*
Y423150D01*
X404250Y422400D01*
X402751D01*
X402001Y423150D01*
X400501Y426149D02*
X399752Y426898D01*
X398252D01*
X397502Y426149D01*
Y425399D01*
X398252Y424649D01*
X399002D01*
X398252D01*
X397502Y423900D01*
Y423150D01*
X398252Y422400D01*
X399752D01*
X400501Y423150D01*
X393004Y426898D02*
X396003D01*
Y424649D01*
X394503Y425399D01*
X393754D01*
X393004Y424649D01*
Y423150D01*
X393754Y422400D01*
X395253D01*
X396003Y423150D01*
X402501Y381349D02*
X403251Y382099D01*
X404750D01*
X405500Y381349D01*
Y378350D01*
X404750Y377600D01*
X403251D01*
X402501Y378350D01*
X401002Y381349D02*
X400252Y382099D01*
X398752D01*
X398002Y381349D01*
Y380599D01*
X398752Y379849D01*
X399502D01*
X398752D01*
X398002Y379099D01*
Y378350D01*
X398752Y377600D01*
X400252D01*
X401002Y378350D01*
X393504Y382099D02*
X395003Y381349D01*
X396503Y379849D01*
Y378350D01*
X395753Y377600D01*
X394254D01*
X393504Y378350D01*
Y379099D01*
X394254Y379849D01*
X396503D01*
X374801Y381549D02*
X375551Y382298D01*
X377050D01*
X377800Y381549D01*
Y378550D01*
X377050Y377800D01*
X375551D01*
X374801Y378550D01*
X373302Y381549D02*
X372552Y382298D01*
X371052D01*
X370302Y381549D01*
Y380799D01*
X371052Y380049D01*
X371802D01*
X371052D01*
X370302Y379299D01*
Y378550D01*
X371052Y377800D01*
X372552D01*
X373302Y378550D01*
X368803Y382298D02*
X365804D01*
Y381549D01*
X368803Y378550D01*
Y377800D01*
X462801Y426249D02*
X463551Y426999D01*
X465050D01*
X465800Y426249D01*
Y423250D01*
X465050Y422500D01*
X463551D01*
X462801Y423250D01*
X461302Y426249D02*
X460552Y426999D01*
X459052D01*
X458302Y426249D01*
Y425499D01*
X459052Y424749D01*
X459802D01*
X459052D01*
X458302Y424000D01*
Y423250D01*
X459052Y422500D01*
X460552D01*
X461302Y423250D01*
X456803Y426249D02*
X456053Y426999D01*
X454554D01*
X453804Y426249D01*
Y425499D01*
X454554Y424749D01*
X453804Y424000D01*
Y423250D01*
X454554Y422500D01*
X456053D01*
X456803Y423250D01*
Y424000D01*
X456053Y424749D01*
X456803Y425499D01*
Y426249D01*
X456053Y424749D02*
X454554D01*
X490501Y426049D02*
X491251Y426798D01*
X492750D01*
X493500Y426049D01*
Y423050D01*
X492750Y422300D01*
X491251D01*
X490501Y423050D01*
X489002Y426049D02*
X488252Y426798D01*
X486752D01*
X486002Y426049D01*
Y425299D01*
X486752Y424549D01*
X487502D01*
X486752D01*
X486002Y423800D01*
Y423050D01*
X486752Y422300D01*
X488252D01*
X489002Y423050D01*
X484503D02*
X483753Y422300D01*
X482254D01*
X481504Y423050D01*
Y426049D01*
X482254Y426798D01*
X483753D01*
X484503Y426049D01*
Y425299D01*
X483753Y424549D01*
X481504D01*
X491601Y380749D02*
X492351Y381499D01*
X493850D01*
X494600Y380749D01*
Y377750D01*
X493850Y377000D01*
X492351D01*
X491601Y377750D01*
X487852Y377000D02*
Y381499D01*
X490101Y379249D01*
X487102D01*
X485603Y380749D02*
X484853Y381499D01*
X483354D01*
X482604Y380749D01*
Y377750D01*
X483354Y377000D01*
X484853D01*
X485603Y377750D01*
Y380749D01*
X462801Y381149D02*
X463551Y381898D01*
X465050D01*
X465800Y381149D01*
Y378150D01*
X465050Y377400D01*
X463551D01*
X462801Y378150D01*
X459052Y377400D02*
Y381898D01*
X461302Y379649D01*
X458302D01*
X456803Y377400D02*
X455303D01*
X456053D01*
Y381898D01*
X456803Y381149D01*
X529101Y347849D02*
X529851Y348599D01*
X531350D01*
X532100Y347849D01*
Y344850D01*
X531350Y344100D01*
X529851D01*
X529101Y344850D01*
X525352Y344100D02*
Y348599D01*
X527601Y346349D01*
X524602D01*
X520104Y344100D02*
X523103D01*
X520104Y347099D01*
Y347849D01*
X520854Y348599D01*
X522353D01*
X523103Y347849D01*
X582801Y347449D02*
X583551Y348199D01*
X585050D01*
X585800Y347449D01*
Y344450D01*
X585050Y343700D01*
X583551D01*
X582801Y344450D01*
X579052Y343700D02*
Y348199D01*
X581301Y345949D01*
X578302D01*
X576803Y347449D02*
X576053Y348199D01*
X574554D01*
X573804Y347449D01*
Y346699D01*
X574554Y345949D01*
X575303D01*
X574554D01*
X573804Y345199D01*
Y344450D01*
X574554Y343700D01*
X576053D01*
X576803Y344450D01*
X582301Y319949D02*
X583051Y320698D01*
X584550D01*
X585300Y319949D01*
Y316950D01*
X584550Y316200D01*
X583051D01*
X582301Y316950D01*
X578552Y316200D02*
Y320698D01*
X580801Y318449D01*
X577802D01*
X574054Y316200D02*
Y320698D01*
X576303Y318449D01*
X573304D01*
X529501Y319349D02*
X530251Y320098D01*
X531750D01*
X532500Y319349D01*
Y316350D01*
X531750Y315600D01*
X530251D01*
X529501Y316350D01*
X525752Y315600D02*
Y320098D01*
X528001Y317849D01*
X525002D01*
X520504Y320098D02*
X523503D01*
Y317849D01*
X522003Y318599D01*
X521254D01*
X520504Y317849D01*
Y316350D01*
X521254Y315600D01*
X522753D01*
X523503Y316350D01*
X529201Y278949D02*
X529951Y279698D01*
X531450D01*
X532200Y278949D01*
Y275950D01*
X531450Y275200D01*
X529951D01*
X529201Y275950D01*
X525452Y275200D02*
Y279698D01*
X527702Y277449D01*
X524702D01*
X520204Y279698D02*
X521703Y278949D01*
X523203Y277449D01*
Y275950D01*
X522453Y275200D01*
X520954D01*
X520204Y275950D01*
Y276699D01*
X520954Y277449D01*
X523203D01*
X582201Y278249D02*
X582951Y278998D01*
X584450D01*
X585200Y278249D01*
Y275250D01*
X584450Y274500D01*
X582951D01*
X582201Y275250D01*
X578452Y274500D02*
Y278998D01*
X580701Y276749D01*
X577702D01*
X576203Y278998D02*
X573204D01*
Y278249D01*
X576203Y275250D01*
Y274500D01*
X582001Y251249D02*
X582751Y251998D01*
X584250D01*
X585000Y251249D01*
Y248250D01*
X584250Y247500D01*
X582751D01*
X582001Y248250D01*
X578252Y247500D02*
Y251998D01*
X580502Y249749D01*
X577502D01*
X576003Y251249D02*
X575253Y251998D01*
X573754D01*
X573004Y251249D01*
Y250499D01*
X573754Y249749D01*
X573004Y249000D01*
Y248250D01*
X573754Y247500D01*
X575253D01*
X576003Y248250D01*
Y249000D01*
X575253Y249749D01*
X576003Y250499D01*
Y251249D01*
X575253Y249749D02*
X573754D01*
X529001Y251149D02*
X529751Y251899D01*
X531250D01*
X532000Y251149D01*
Y248150D01*
X531250Y247400D01*
X529751D01*
X529001Y248150D01*
X525252Y247400D02*
Y251899D01*
X527501Y249649D01*
X524502D01*
X523003Y248150D02*
X522253Y247400D01*
X520754D01*
X520004Y248150D01*
Y251149D01*
X520754Y251899D01*
X522253D01*
X523003Y251149D01*
Y250399D01*
X522253Y249649D01*
X520004D01*
X460201Y211649D02*
X460951Y212399D01*
X462450D01*
X463200Y211649D01*
Y208650D01*
X462450Y207900D01*
X460951D01*
X460201Y208650D01*
X455702Y212399D02*
X458702D01*
Y210149D01*
X457202Y210899D01*
X456452D01*
X455702Y210149D01*
Y208650D01*
X456452Y207900D01*
X457952D01*
X458702Y208650D01*
X454203Y211649D02*
X453453Y212399D01*
X451954D01*
X451204Y211649D01*
Y208650D01*
X451954Y207900D01*
X453453D01*
X454203Y208650D01*
Y211649D01*
X486601D02*
X487351Y212399D01*
X488850D01*
X489600Y211649D01*
Y208650D01*
X488850Y207900D01*
X487351D01*
X486601Y208650D01*
X482102Y212399D02*
X485102D01*
Y210149D01*
X483602Y210899D01*
X482852D01*
X482102Y210149D01*
Y208650D01*
X482852Y207900D01*
X484352D01*
X485102Y208650D01*
X480603Y207900D02*
X479103D01*
X479853D01*
Y212399D01*
X480603Y211649D01*
X487601Y164149D02*
X488351Y164899D01*
X489850D01*
X490600Y164149D01*
Y161150D01*
X489850Y160400D01*
X488351D01*
X487601Y161150D01*
X483102Y164899D02*
X486101D01*
Y162649D01*
X484602Y163399D01*
X483852D01*
X483102Y162649D01*
Y161150D01*
X483852Y160400D01*
X485352D01*
X486101Y161150D01*
X478604Y160400D02*
X481603D01*
X478604Y163399D01*
Y164149D01*
X479354Y164899D01*
X480853D01*
X481603Y164149D01*
X461101Y164649D02*
X461851Y165399D01*
X463350D01*
X464100Y164649D01*
Y161650D01*
X463350Y160900D01*
X461851D01*
X461101Y161650D01*
X456602Y165399D02*
X459601D01*
Y163149D01*
X458102Y163899D01*
X457352D01*
X456602Y163149D01*
Y161650D01*
X457352Y160900D01*
X458852D01*
X459601Y161650D01*
X455103Y164649D02*
X454353Y165399D01*
X452854D01*
X452104Y164649D01*
Y163899D01*
X452854Y163149D01*
X453603D01*
X452854D01*
X452104Y162399D01*
Y161650D01*
X452854Y160900D01*
X454353D01*
X455103Y161650D01*
X384101Y270449D02*
X384851Y271199D01*
X386350D01*
X387100Y270449D01*
Y267450D01*
X386350Y266700D01*
X384851D01*
X384101Y267450D01*
X379602Y266700D02*
X382601D01*
X379602Y269699D01*
Y270449D01*
X380352Y271199D01*
X381852D01*
X382601Y270449D01*
X418601Y338749D02*
X419351Y339498D01*
X420850D01*
X421600Y338749D01*
Y335750D01*
X420850Y335000D01*
X419351D01*
X418601Y335750D01*
X417101Y338749D02*
X416352Y339498D01*
X414852D01*
X414102Y338749D01*
Y337999D01*
X414852Y337249D01*
X415602D01*
X414852D01*
X414102Y336500D01*
Y335750D01*
X414852Y335000D01*
X416352D01*
X417101Y335750D01*
X470501Y245449D02*
X471251Y246199D01*
X472750D01*
X473500Y245449D01*
Y242450D01*
X472750Y241700D01*
X471251D01*
X470501Y242450D01*
X466752Y241700D02*
Y246199D01*
X469001Y243949D01*
X466002D01*
X470101Y352949D02*
X470851Y353698D01*
X472350D01*
X473100Y352949D01*
Y349950D01*
X472350Y349200D01*
X470851D01*
X470101Y349950D01*
X465602Y353698D02*
X468602D01*
Y351449D01*
X467102Y352199D01*
X466352D01*
X465602Y351449D01*
Y349950D01*
X466352Y349200D01*
X467852D01*
X468602Y349950D01*
X692301Y467249D02*
X693051Y467999D01*
X694550D01*
X695300Y467249D01*
Y464250D01*
X694550Y463500D01*
X693051D01*
X692301Y464250D01*
X687802Y467999D02*
X690801D01*
Y465749D01*
X689302Y466499D01*
X688552D01*
X687802Y465749D01*
Y464250D01*
X688552Y463500D01*
X690052D01*
X690801Y464250D01*
X683304Y467999D02*
X686303D01*
Y465749D01*
X684803Y466499D01*
X684054D01*
X683304Y465749D01*
Y464250D01*
X684054Y463500D01*
X685553D01*
X686303Y464250D01*
X430600Y271500D02*
Y275998D01*
X428351D01*
X427601Y275249D01*
Y273749D01*
X428351Y273000D01*
X430600D01*
X429101D02*
X427601Y271500D01*
X426101D02*
X424602D01*
X425352D01*
Y275998D01*
X426101Y275249D01*
X448200Y271500D02*
Y275998D01*
X445951D01*
X445201Y275249D01*
Y273749D01*
X445951Y273000D01*
X448200D01*
X446700D02*
X445201Y271500D01*
X440702D02*
X443702D01*
X440702Y274499D01*
Y275249D01*
X441452Y275998D01*
X442952D01*
X443702Y275249D01*
X358200Y188500D02*
Y192999D01*
X355951D01*
X355201Y192249D01*
Y190749D01*
X355951Y189999D01*
X358200D01*
X356700D02*
X355201Y188500D01*
X350702D02*
X353701D01*
X350702Y191499D01*
Y192249D01*
X351452Y192999D01*
X352952D01*
X353701Y192249D01*
X349203Y188500D02*
X347703D01*
X348453D01*
Y192999D01*
X349203Y192249D01*
X358400Y180900D02*
Y185399D01*
X356151D01*
X355401Y184649D01*
Y183149D01*
X356151Y182399D01*
X358400D01*
X356901D02*
X355401Y180900D01*
X350902D02*
X353902D01*
X350902Y183899D01*
Y184649D01*
X351652Y185399D01*
X353152D01*
X353902Y184649D01*
X346404Y180900D02*
X349403D01*
X346404Y183899D01*
Y184649D01*
X347154Y185399D01*
X348653D01*
X349403Y184649D01*
X509500Y179800D02*
Y184299D01*
X507251D01*
X506501Y183549D01*
Y182049D01*
X507251Y181299D01*
X509500D01*
X508001D02*
X506501Y179800D01*
X505001Y183549D02*
X504252Y184299D01*
X502752D01*
X502002Y183549D01*
Y182799D01*
X502752Y182049D01*
X503502D01*
X502752D01*
X502002Y181299D01*
Y180550D01*
X502752Y179800D01*
X504252D01*
X505001Y180550D01*
X509000Y188800D02*
Y193299D01*
X506751D01*
X506001Y192549D01*
Y191049D01*
X506751Y190299D01*
X509000D01*
X507501D02*
X506001Y188800D01*
X502252D02*
Y193299D01*
X504501Y191049D01*
X501502D01*
X177300Y207600D02*
Y212099D01*
X175051D01*
X174301Y211349D01*
Y209849D01*
X175051Y209100D01*
X177300D01*
X175801D02*
X174301Y207600D01*
X172801Y212099D02*
X169802D01*
Y211349D01*
X172801Y208350D01*
Y207600D01*
X177500Y220600D02*
Y225098D01*
X175251D01*
X174501Y224349D01*
Y222849D01*
X175251Y222099D01*
X177500D01*
X176000D02*
X174501Y220600D01*
X173001Y224349D02*
X172252Y225098D01*
X170752D01*
X170002Y224349D01*
Y223599D01*
X170752Y222849D01*
X170002Y222099D01*
Y221350D01*
X170752Y220600D01*
X172252D01*
X173001Y221350D01*
Y222099D01*
X172252Y222849D01*
X173001Y223599D01*
Y224349D01*
X172252Y222849D02*
X170752D01*
X177800Y244600D02*
Y249098D01*
X175551D01*
X174801Y248349D01*
Y246849D01*
X175551Y246099D01*
X177800D01*
X176301D02*
X174801Y244600D01*
X173301Y245350D02*
X172552Y244600D01*
X171052D01*
X170302Y245350D01*
Y248349D01*
X171052Y249098D01*
X172552D01*
X173301Y248349D01*
Y247599D01*
X172552Y246849D01*
X170302D01*
X307000Y259800D02*
Y264299D01*
X304751D01*
X304001Y263549D01*
Y262049D01*
X304751Y261299D01*
X307000D01*
X305501D02*
X304001Y259800D01*
X302502D02*
X301002D01*
X301752D01*
Y264299D01*
X302502Y263549D01*
X298753Y259800D02*
X297253D01*
X298003D01*
Y264299D01*
X298753Y263549D01*
X288900Y259800D02*
Y264299D01*
X286651D01*
X285901Y263549D01*
Y262049D01*
X286651Y261299D01*
X288900D01*
X287401D02*
X285901Y259800D01*
X284401D02*
X282902D01*
X283652D01*
Y264299D01*
X284401Y263549D01*
X277654Y259800D02*
X280653D01*
X277654Y262799D01*
Y263549D01*
X278403Y264299D01*
X279903D01*
X280653Y263549D01*
X452500Y297600D02*
Y302098D01*
X450251D01*
X449501Y301349D01*
Y299849D01*
X450251Y299099D01*
X452500D01*
X451000D02*
X449501Y297600D01*
X448001D02*
X446502D01*
X447252D01*
Y302098D01*
X448001Y301349D01*
X444253D02*
X443503Y302098D01*
X442003D01*
X441254Y301349D01*
Y300599D01*
X442003Y299849D01*
X442753D01*
X442003D01*
X441254Y299099D01*
Y298350D01*
X442003Y297600D01*
X443503D01*
X444253Y298350D01*
X452100Y282700D02*
Y287198D01*
X449851D01*
X449101Y286449D01*
Y284949D01*
X449851Y284200D01*
X452100D01*
X450600D02*
X449101Y282700D01*
X447602D02*
X446102D01*
X446852D01*
Y287198D01*
X447602Y286449D01*
X441603Y282700D02*
Y287198D01*
X443853Y284949D01*
X440854D01*
X430600Y320200D02*
Y324698D01*
X428351D01*
X427601Y323949D01*
Y322449D01*
X428351Y321700D01*
X430600D01*
X429101D02*
X427601Y320200D01*
X426101D02*
X424602D01*
X425352D01*
Y324698D01*
X426101Y323949D01*
X419354Y324698D02*
X422353D01*
Y322449D01*
X420853Y323199D01*
X420103D01*
X419354Y322449D01*
Y320950D01*
X420103Y320200D01*
X421603D01*
X422353Y320950D01*
X550800Y285500D02*
Y289999D01*
X548551D01*
X547801Y289249D01*
Y287749D01*
X548551Y287000D01*
X550800D01*
X549300D02*
X547801Y285500D01*
X546302D02*
X544802D01*
X545552D01*
Y289999D01*
X546302Y289249D01*
X539554Y289999D02*
X541053Y289249D01*
X542553Y287749D01*
Y286250D01*
X541803Y285500D01*
X540303D01*
X539554Y286250D01*
Y287000D01*
X540303Y287749D01*
X542553D01*
X551000Y236200D02*
Y240699D01*
X548751D01*
X548001Y239949D01*
Y238449D01*
X548751Y237700D01*
X551000D01*
X549501D02*
X548001Y236200D01*
X546501D02*
X545002D01*
X545752D01*
Y240699D01*
X546501Y239949D01*
X542753D02*
X542003Y240699D01*
X540503D01*
X539754Y239949D01*
Y239199D01*
X540503Y238449D01*
X539754Y237700D01*
Y236950D01*
X540503Y236200D01*
X542003D01*
X542753Y236950D01*
Y237700D01*
X542003Y238449D01*
X542753Y239199D01*
Y239949D01*
X542003Y238449D02*
X540503D01*
X467900Y405100D02*
Y409598D01*
X465651D01*
X464901Y408849D01*
Y407349D01*
X465651Y406600D01*
X467900D01*
X466400D02*
X464901Y405100D01*
X460402D02*
X463402D01*
X460402Y408099D01*
Y408849D01*
X461152Y409598D01*
X462652D01*
X463402Y408849D01*
X458903D02*
X458153Y409598D01*
X456654D01*
X455904Y408849D01*
Y408099D01*
X456654Y407349D01*
X457403D01*
X456654D01*
X455904Y406600D01*
Y405850D01*
X456654Y405100D01*
X458153D01*
X458903Y405850D01*
X518200Y397000D02*
Y401499D01*
X515951D01*
X515201Y400749D01*
Y399249D01*
X515951Y398499D01*
X518200D01*
X516701D02*
X515201Y397000D01*
X510702D02*
X513701D01*
X510702Y399999D01*
Y400749D01*
X511452Y401499D01*
X512952D01*
X513701Y400749D01*
X506954Y397000D02*
Y401499D01*
X509203Y399249D01*
X506204D01*
X518500Y405000D02*
Y409499D01*
X516251D01*
X515501Y408749D01*
Y407249D01*
X516251Y406499D01*
X518500D01*
X517000D02*
X515501Y405000D01*
X511002D02*
X514002D01*
X511002Y407999D01*
Y408749D01*
X511752Y409499D01*
X513252D01*
X514002Y408749D01*
X506504Y409499D02*
X509503D01*
Y407249D01*
X508003Y407999D01*
X507254D01*
X506504Y407249D01*
Y405750D01*
X507254Y405000D01*
X508753D01*
X509503Y405750D01*
X468100Y397200D02*
Y401698D01*
X465851D01*
X465101Y400949D01*
Y399449D01*
X465851Y398699D01*
X468100D01*
X466601D02*
X465101Y397200D01*
X460602D02*
X463601D01*
X460602Y400199D01*
Y400949D01*
X461352Y401698D01*
X462852D01*
X463601Y400949D01*
X456104Y401698D02*
X457603Y400949D01*
X459103Y399449D01*
Y397950D01*
X458353Y397200D01*
X456854D01*
X456104Y397950D01*
Y398699D01*
X456854Y399449D01*
X459103D01*
X565700Y364800D02*
Y369299D01*
X563451D01*
X562701Y368549D01*
Y367049D01*
X563451Y366300D01*
X565700D01*
X564200D02*
X562701Y364800D01*
X558202D02*
X561201D01*
X558202Y367799D01*
Y368549D01*
X558952Y369299D01*
X560452D01*
X561201Y368549D01*
X556703Y369299D02*
X553704D01*
Y368549D01*
X556703Y365550D01*
Y364800D01*
X550600Y365000D02*
Y369498D01*
X548351D01*
X547601Y368749D01*
Y367249D01*
X548351Y366499D01*
X550600D01*
X549100D02*
X547601Y365000D01*
X543102D02*
X546102D01*
X543102Y367999D01*
Y368749D01*
X543852Y369498D01*
X545352D01*
X546102Y368749D01*
X541603Y365750D02*
X540853Y365000D01*
X539354D01*
X538604Y365750D01*
Y368749D01*
X539354Y369498D01*
X540853D01*
X541603Y368749D01*
Y367999D01*
X540853Y367249D01*
X538604D01*
X551600Y304200D02*
Y308699D01*
X549351D01*
X548601Y307949D01*
Y306449D01*
X549351Y305699D01*
X551600D01*
X550101D02*
X548601Y304200D01*
X547101Y307949D02*
X546352Y308699D01*
X544852D01*
X544102Y307949D01*
Y307199D01*
X544852Y306449D01*
X545602D01*
X544852D01*
X544102Y305699D01*
Y304950D01*
X544852Y304200D01*
X546352D01*
X547101Y304950D01*
X542603Y307949D02*
X541853Y308699D01*
X540354D01*
X539604Y307949D01*
Y304950D01*
X540354Y304200D01*
X541853D01*
X542603Y304950D01*
Y307949D01*
X811800Y444500D02*
Y448998D01*
X809551D01*
X808801Y448249D01*
Y446749D01*
X809551Y445999D01*
X811800D01*
X810301D02*
X808801Y444500D01*
X807302Y448249D02*
X806552Y448998D01*
X805052D01*
X804302Y448249D01*
Y447499D01*
X805052Y446749D01*
X805802D01*
X805052D01*
X804302Y445999D01*
Y445250D01*
X805052Y444500D01*
X806552D01*
X807302Y445250D01*
X799804Y444500D02*
X802803D01*
X799804Y447499D01*
Y448249D01*
X800554Y448998D01*
X802053D01*
X802803Y448249D01*
X825300Y448000D02*
Y452498D01*
X823051D01*
X822301Y451749D01*
Y450249D01*
X823051Y449500D01*
X825300D01*
X823800D02*
X822301Y448000D01*
X820801Y451749D02*
X820052Y452498D01*
X818552D01*
X817802Y451749D01*
Y450999D01*
X818552Y450249D01*
X819302D01*
X818552D01*
X817802Y449500D01*
Y448750D01*
X818552Y448000D01*
X820052D01*
X820801Y448750D01*
X816303Y451749D02*
X815553Y452498D01*
X814054D01*
X813304Y451749D01*
Y450999D01*
X814054Y450249D01*
X814803D01*
X814054D01*
X813304Y449500D01*
Y448750D01*
X814054Y448000D01*
X815553D01*
X816303Y448750D01*
X695400Y385000D02*
Y389498D01*
X693151D01*
X692401Y388749D01*
Y387249D01*
X693151Y386500D01*
X695400D01*
X693900D02*
X692401Y385000D01*
X690902Y388749D02*
X690152Y389498D01*
X688652D01*
X687902Y388749D01*
Y387999D01*
X688652Y387249D01*
X689402D01*
X688652D01*
X687902Y386500D01*
Y385750D01*
X688652Y385000D01*
X690152D01*
X690902Y385750D01*
X684154Y385000D02*
Y389498D01*
X686403Y387249D01*
X683404D01*
X696000Y442500D02*
Y446999D01*
X693751D01*
X693001Y446249D01*
Y444749D01*
X693751Y443999D01*
X696000D01*
X694500D02*
X693001Y442500D01*
X691502Y446249D02*
X690752Y446999D01*
X689252D01*
X688502Y446249D01*
Y445499D01*
X689252Y444749D01*
X690002D01*
X689252D01*
X688502Y443999D01*
Y443250D01*
X689252Y442500D01*
X690752D01*
X691502Y443250D01*
X684004Y446999D02*
X687003D01*
Y444749D01*
X685503Y445499D01*
X684754D01*
X684004Y444749D01*
Y443250D01*
X684754Y442500D01*
X686253D01*
X687003Y443250D01*
X739300Y445300D02*
Y449798D01*
X737051D01*
X736301Y449049D01*
Y447549D01*
X737051Y446800D01*
X739300D01*
X737801D02*
X736301Y445300D01*
X734801Y449049D02*
X734052Y449798D01*
X732552D01*
X731802Y449049D01*
Y448299D01*
X732552Y447549D01*
X733302D01*
X732552D01*
X731802Y446800D01*
Y446050D01*
X732552Y445300D01*
X734052D01*
X734801Y446050D01*
X727304Y449798D02*
X728803Y449049D01*
X730303Y447549D01*
Y446050D01*
X729553Y445300D01*
X728054D01*
X727304Y446050D01*
Y446800D01*
X728054Y447549D01*
X730303D01*
X380701Y165349D02*
X381451Y166099D01*
X382950D01*
X383700Y165349D01*
Y162350D01*
X382950Y161600D01*
X381451D01*
X380701Y162350D01*
X376202Y161600D02*
X379202D01*
X376202Y164599D01*
Y165349D01*
X376952Y166099D01*
X378452D01*
X379202Y165349D01*
X371704Y166099D02*
X373203Y165349D01*
X374703Y163849D01*
Y162350D01*
X373953Y161600D01*
X372454D01*
X371704Y162350D01*
Y163100D01*
X372454Y163849D01*
X374703D01*
X408101Y165249D02*
X408851Y165999D01*
X410350D01*
X411100Y165249D01*
Y162250D01*
X410350Y161500D01*
X408851D01*
X408101Y162250D01*
X403602Y161500D02*
X406601D01*
X403602Y164499D01*
Y165249D01*
X404352Y165999D01*
X405852D01*
X406601Y165249D01*
X402103Y165999D02*
X399104D01*
Y165249D01*
X402103Y162250D01*
Y161500D01*
X380501Y211649D02*
X381251Y212399D01*
X382750D01*
X383500Y211649D01*
Y208650D01*
X382750Y207900D01*
X381251D01*
X380501Y208650D01*
X376002Y207900D02*
X379001D01*
X376002Y210899D01*
Y211649D01*
X376752Y212399D01*
X378252D01*
X379001Y211649D01*
X374503D02*
X373753Y212399D01*
X372254D01*
X371504Y211649D01*
Y210899D01*
X372254Y210149D01*
X371504Y209400D01*
Y208650D01*
X372254Y207900D01*
X373753D01*
X374503Y208650D01*
Y209400D01*
X373753Y210149D01*
X374503Y210899D01*
Y211649D01*
X373753Y210149D02*
X372254D01*
X406901Y211549D02*
X407651Y212298D01*
X409150D01*
X409900Y211549D01*
Y208550D01*
X409150Y207800D01*
X407651D01*
X406901Y208550D01*
X402402Y207800D02*
X405402D01*
X402402Y210799D01*
Y211549D01*
X403152Y212298D01*
X404652D01*
X405402Y211549D01*
X400903Y208550D02*
X400153Y207800D01*
X398654D01*
X397904Y208550D01*
Y211549D01*
X398654Y212298D01*
X400153D01*
X400903Y211549D01*
Y210799D01*
X400153Y210049D01*
X397904D01*
X269401Y246349D02*
X270151Y247098D01*
X271650D01*
X272400Y246349D01*
Y243350D01*
X271650Y242600D01*
X270151D01*
X269401Y243350D01*
X267901Y246349D02*
X267152Y247098D01*
X265652D01*
X264902Y246349D01*
Y245599D01*
X265652Y244849D01*
X266402D01*
X265652D01*
X264902Y244099D01*
Y243350D01*
X265652Y242600D01*
X267152D01*
X267901Y243350D01*
X263403Y246349D02*
X262653Y247098D01*
X261154D01*
X260404Y246349D01*
Y243350D01*
X261154Y242600D01*
X262653D01*
X263403Y243350D01*
Y246349D01*
X321501Y246149D02*
X322251Y246899D01*
X323750D01*
X324500Y246149D01*
Y243150D01*
X323750Y242400D01*
X322251D01*
X321501Y243150D01*
X320002Y246149D02*
X319252Y246899D01*
X317752D01*
X317002Y246149D01*
Y245399D01*
X317752Y244649D01*
X318502D01*
X317752D01*
X317002Y243899D01*
Y243150D01*
X317752Y242400D01*
X319252D01*
X320002Y243150D01*
X315503Y242400D02*
X314003D01*
X314753D01*
Y246899D01*
X315503Y246149D01*
X323201Y217849D02*
X323951Y218599D01*
X325450D01*
X326200Y217849D01*
Y214850D01*
X325450Y214100D01*
X323951D01*
X323201Y214850D01*
X321702Y217849D02*
X320952Y218599D01*
X319452D01*
X318702Y217849D01*
Y217099D01*
X319452Y216349D01*
X320202D01*
X319452D01*
X318702Y215599D01*
Y214850D01*
X319452Y214100D01*
X320952D01*
X321702Y214850D01*
X314204Y214100D02*
X317203D01*
X314204Y217099D01*
Y217849D01*
X314954Y218599D01*
X316453D01*
X317203Y217849D01*
X269801Y218249D02*
X270551Y218999D01*
X272050D01*
X272800Y218249D01*
Y215250D01*
X272050Y214500D01*
X270551D01*
X269801Y215250D01*
X268302Y218249D02*
X267552Y218999D01*
X266052D01*
X265302Y218249D01*
Y217499D01*
X266052Y216749D01*
X266802D01*
X266052D01*
X265302Y216000D01*
Y215250D01*
X266052Y214500D01*
X267552D01*
X268302Y215250D01*
X263803Y218249D02*
X263053Y218999D01*
X261554D01*
X260804Y218249D01*
Y217499D01*
X261554Y216749D01*
X262303D01*
X261554D01*
X260804Y216000D01*
Y215250D01*
X261554Y214500D01*
X263053D01*
X263803Y215250D01*
X218201Y286249D02*
X218951Y286999D01*
X220450D01*
X221200Y286249D01*
Y283250D01*
X220450Y282500D01*
X218951D01*
X218201Y283250D01*
X213702Y286999D02*
X216702D01*
Y284749D01*
X215202Y285499D01*
X214452D01*
X213702Y284749D01*
Y283250D01*
X214452Y282500D01*
X215952D01*
X216702Y283250D01*
X212203Y286249D02*
X211453Y286999D01*
X209954D01*
X209204Y286249D01*
Y285499D01*
X209954Y284749D01*
X209204Y283999D01*
Y283250D01*
X209954Y282500D01*
X211453D01*
X212203Y283250D01*
Y283999D01*
X211453Y284749D01*
X212203Y285499D01*
Y286249D01*
X211453Y284749D02*
X209954D01*
X237001Y273449D02*
X237751Y274199D01*
X239250D01*
X240000Y273449D01*
Y270450D01*
X239250Y269700D01*
X237751D01*
X237001Y270450D01*
X232502Y274199D02*
X234002Y273449D01*
X235502Y271949D01*
Y270450D01*
X234752Y269700D01*
X233252D01*
X232502Y270450D01*
Y271199D01*
X233252Y271949D01*
X235502D01*
X231003Y273449D02*
X230253Y274199D01*
X228754D01*
X228004Y273449D01*
Y270450D01*
X228754Y269700D01*
X230253D01*
X231003Y270450D01*
Y273449D01*
X226101Y310349D02*
X226851Y311099D01*
X228350D01*
X229100Y310349D01*
Y307350D01*
X228350Y306600D01*
X226851D01*
X226101Y307350D01*
X221602Y311099D02*
X223102Y310349D01*
X224602Y308849D01*
Y307350D01*
X223852Y306600D01*
X222352D01*
X221602Y307350D01*
Y308100D01*
X222352Y308849D01*
X224602D01*
X220103Y306600D02*
X218603D01*
X219353D01*
Y311099D01*
X220103Y310349D01*
X268100Y283800D02*
Y288299D01*
X265851D01*
X265101Y287549D01*
Y286049D01*
X265851Y285299D01*
X268100D01*
X266600D02*
X265101Y283800D01*
X263601Y287549D02*
X262852Y288299D01*
X261352D01*
X260602Y287549D01*
Y286799D01*
X261352Y286049D01*
X262102D01*
X261352D01*
X260602Y285299D01*
Y284550D01*
X261352Y283800D01*
X262852D01*
X263601Y284550D01*
X259103Y288299D02*
X256104D01*
Y287549D01*
X259103Y284550D01*
Y283800D01*
X268700Y270700D02*
Y275199D01*
X266451D01*
X265701Y274449D01*
Y272949D01*
X266451Y272200D01*
X268700D01*
X267200D02*
X265701Y270700D01*
X264201Y274449D02*
X263452Y275199D01*
X261952D01*
X261202Y274449D01*
Y273699D01*
X261952Y272949D01*
X262702D01*
X261952D01*
X261202Y272200D01*
Y271450D01*
X261952Y270700D01*
X263452D01*
X264201Y271450D01*
X259703Y274449D02*
X258953Y275199D01*
X257454D01*
X256704Y274449D01*
Y273699D01*
X257454Y272949D01*
X256704Y272200D01*
Y271450D01*
X257454Y270700D01*
X258953D01*
X259703Y271450D01*
Y272200D01*
X258953Y272949D01*
X259703Y273699D01*
Y274449D01*
X258953Y272949D02*
X257454D01*
X218600Y137600D02*
Y142099D01*
X216351D01*
X215601Y141349D01*
Y139849D01*
X216351Y139100D01*
X218600D01*
X217101D02*
X215601Y137600D01*
X211102Y142099D02*
X214102D01*
Y139849D01*
X212602Y140599D01*
X211852D01*
X211102Y139849D01*
Y138350D01*
X211852Y137600D01*
X213352D01*
X214102Y138350D01*
X206604Y137600D02*
X209603D01*
X206604Y140599D01*
Y141349D01*
X207354Y142099D01*
X208853D01*
X209603Y141349D01*
X237200Y137400D02*
Y141899D01*
X234951D01*
X234201Y141149D01*
Y139649D01*
X234951Y138900D01*
X237200D01*
X235700D02*
X234201Y137400D01*
X229702Y141899D02*
X232701D01*
Y139649D01*
X231202Y140399D01*
X230452D01*
X229702Y139649D01*
Y138150D01*
X230452Y137400D01*
X231952D01*
X232701Y138150D01*
X228203Y141149D02*
X227453Y141899D01*
X225954D01*
X225204Y141149D01*
Y140399D01*
X225954Y139649D01*
X226703D01*
X225954D01*
X225204Y138900D01*
Y138150D01*
X225954Y137400D01*
X227453D01*
X228203Y138150D01*
X218400Y169300D02*
Y173799D01*
X216151D01*
X215401Y173049D01*
Y171549D01*
X216151Y170800D01*
X218400D01*
X216900D02*
X215401Y169300D01*
X210902Y173799D02*
X213901D01*
Y171549D01*
X212402Y172299D01*
X211652D01*
X210902Y171549D01*
Y170050D01*
X211652Y169300D01*
X213152D01*
X213901Y170050D01*
X207154Y169300D02*
Y173799D01*
X209403Y171549D01*
X206404D01*
X262600Y480900D02*
Y485398D01*
X260351D01*
X259601Y484649D01*
Y483149D01*
X260351Y482400D01*
X262600D01*
X261101D02*
X259601Y480900D01*
X255102D02*
X258102D01*
X255102Y483899D01*
Y484649D01*
X255852Y485398D01*
X257352D01*
X258102Y484649D01*
X253603D02*
X252853Y485398D01*
X251354D01*
X250604Y484649D01*
Y483899D01*
X251354Y483149D01*
X250604Y482400D01*
Y481650D01*
X251354Y480900D01*
X252853D01*
X253603Y481650D01*
Y482400D01*
X252853Y483149D01*
X253603Y483899D01*
Y484649D01*
X252853Y483149D02*
X251354D01*
X228000Y487800D02*
Y492299D01*
X225751D01*
X225001Y491549D01*
Y490049D01*
X225751Y489299D01*
X228000D01*
X226501D02*
X225001Y487800D01*
X223501Y491549D02*
X222752Y492299D01*
X221252D01*
X220502Y491549D01*
Y490799D01*
X221252Y490049D01*
X222002D01*
X221252D01*
X220502Y489299D01*
Y488550D01*
X221252Y487800D01*
X222752D01*
X223501Y488550D01*
X219003Y487800D02*
X217503D01*
X218253D01*
Y492299D01*
X219003Y491549D01*
X133100Y137600D02*
Y142099D01*
X130851D01*
X130101Y141349D01*
Y139849D01*
X130851Y139100D01*
X133100D01*
X131600D02*
X130101Y137600D01*
X125602Y142099D02*
X128601D01*
Y139849D01*
X127102Y140599D01*
X126352D01*
X125602Y139849D01*
Y138350D01*
X126352Y137600D01*
X127852D01*
X128601Y138350D01*
X121104Y142099D02*
X124103D01*
Y139849D01*
X122603Y140599D01*
X121854D01*
X121104Y139849D01*
Y138350D01*
X121854Y137600D01*
X123353D01*
X124103Y138350D01*
X152500Y137600D02*
Y142099D01*
X150251D01*
X149501Y141349D01*
Y139849D01*
X150251Y139100D01*
X152500D01*
X151000D02*
X149501Y137600D01*
X145002Y142099D02*
X148001D01*
Y139849D01*
X146502Y140599D01*
X145752D01*
X145002Y139849D01*
Y138350D01*
X145752Y137600D01*
X147252D01*
X148001Y138350D01*
X140504Y142099D02*
X142003Y141349D01*
X143503Y139849D01*
Y138350D01*
X142753Y137600D01*
X141254D01*
X140504Y138350D01*
Y139100D01*
X141254Y139849D01*
X143503D01*
X133300Y170800D02*
Y175299D01*
X131051D01*
X130301Y174549D01*
Y173049D01*
X131051Y172300D01*
X133300D01*
X131800D02*
X130301Y170800D01*
X125802Y175299D02*
X128801D01*
Y173049D01*
X127302Y173799D01*
X126552D01*
X125802Y173049D01*
Y171550D01*
X126552Y170800D01*
X128052D01*
X128801Y171550D01*
X124303Y175299D02*
X121304D01*
Y174549D01*
X124303Y171550D01*
Y170800D01*
X263100Y447700D02*
Y452199D01*
X260851D01*
X260101Y451449D01*
Y449949D01*
X260851Y449199D01*
X263100D01*
X261600D02*
X260101Y447700D01*
X258601Y452199D02*
X255602D01*
Y451449D01*
X258601Y448450D01*
Y447700D01*
X251104D02*
X254103D01*
X251104Y450699D01*
Y451449D01*
X251854Y452199D01*
X253353D01*
X254103Y451449D01*
X227600Y454900D02*
Y459399D01*
X225351D01*
X224601Y458649D01*
Y457149D01*
X225351Y456399D01*
X227600D01*
X226100D02*
X224601Y454900D01*
X223101Y459399D02*
X220102D01*
Y458649D01*
X223101Y455650D01*
Y454900D01*
X218603Y458649D02*
X217853Y459399D01*
X216354D01*
X215604Y458649D01*
Y457899D01*
X216354Y457149D01*
X217103D01*
X216354D01*
X215604Y456399D01*
Y455650D01*
X216354Y454900D01*
X217853D01*
X218603Y455650D01*
X262100Y410700D02*
Y415199D01*
X259851D01*
X259101Y414449D01*
Y412949D01*
X259851Y412199D01*
X262100D01*
X260600D02*
X259101Y410700D01*
X257601Y415199D02*
X254602D01*
Y414449D01*
X257601Y411450D01*
Y410700D01*
X250854D02*
Y415199D01*
X253103Y412949D01*
X250104D01*
X228000Y417600D02*
Y422098D01*
X225751D01*
X225001Y421349D01*
Y419849D01*
X225751Y419100D01*
X228000D01*
X226501D02*
X225001Y417600D01*
X223501Y422098D02*
X220502D01*
Y421349D01*
X223501Y418350D01*
Y417600D01*
X216004Y422098D02*
X219003D01*
Y419849D01*
X217503Y420599D01*
X216754D01*
X216004Y419849D01*
Y418350D01*
X216754Y417600D01*
X218253D01*
X219003Y418350D01*
X403201Y309749D02*
X403951Y310498D01*
X405450D01*
X406200Y309749D01*
Y306750D01*
X405450Y306000D01*
X403951D01*
X403201Y306750D01*
X401701D02*
X400952Y306000D01*
X399452D01*
X398702Y306750D01*
Y309749D01*
X399452Y310498D01*
X400952D01*
X401701Y309749D01*
Y308999D01*
X400952Y308249D01*
X398702D01*
X394204Y310498D02*
X397203D01*
Y308249D01*
X395703Y308999D01*
X394954D01*
X394204Y308249D01*
Y306750D01*
X394954Y306000D01*
X396453D01*
X397203Y306750D01*
X419501Y261049D02*
X420251Y261799D01*
X421750D01*
X422500Y261049D01*
Y258050D01*
X421750Y257300D01*
X420251D01*
X419501Y258050D01*
X418002D02*
X417252Y257300D01*
X415752D01*
X415002Y258050D01*
Y261049D01*
X415752Y261799D01*
X417252D01*
X418002Y261049D01*
Y260299D01*
X417252Y259549D01*
X415002D01*
X410504Y261799D02*
X412003Y261049D01*
X413503Y259549D01*
Y258050D01*
X412753Y257300D01*
X411254D01*
X410504Y258050D01*
Y258800D01*
X411254Y259549D01*
X413503D01*
X471601Y277049D02*
X472351Y277799D01*
X473850D01*
X474600Y277049D01*
Y274050D01*
X473850Y273300D01*
X472351D01*
X471601Y274050D01*
X470101D02*
X469352Y273300D01*
X467852D01*
X467102Y274050D01*
Y277049D01*
X467852Y277799D01*
X469352D01*
X470101Y277049D01*
Y276299D01*
X469352Y275549D01*
X467102D01*
X465603Y277799D02*
X462604D01*
Y277049D01*
X465603Y274050D01*
Y273300D01*
D70*
X459313Y298225D02*
X460887D01*
X459313Y301375D02*
X460887D01*
X447713Y405425D02*
X449287D01*
X447713Y408575D02*
X449287D01*
X498213Y408575D02*
X499787D01*
X498213Y405425D02*
X499787D01*
X498213Y400575D02*
X499787D01*
X498213Y397425D02*
X499787D01*
X809575Y459713D02*
Y461287D01*
X806425Y459713D02*
Y461287D01*
X820575Y459713D02*
Y461287D01*
X817425Y459713D02*
Y461287D01*
X723575Y446713D02*
Y448287D01*
X720425Y446713D02*
Y448287D01*
X702075Y386713D02*
Y388287D01*
X698925Y386713D02*
Y388287D01*
X557175Y305113D02*
Y306687D01*
X554025Y305113D02*
Y306687D01*
X557075Y287713D02*
Y289287D01*
X553925Y287713D02*
Y289287D01*
X211925Y128713D02*
Y130287D01*
X215075Y128713D02*
Y130287D01*
X230925Y128713D02*
Y130287D01*
X234075Y128713D02*
Y130287D01*
X224575Y170713D02*
Y172287D01*
X221425Y170713D02*
Y172287D01*
X247213Y274575D02*
X248787D01*
X247213Y271425D02*
X248787D01*
X247213Y287575D02*
X248787D01*
X247213Y284425D02*
X248787D01*
X426625Y263513D02*
Y265087D01*
X429775Y263513D02*
Y265087D01*
X443525Y263313D02*
Y264887D01*
X446675Y263313D02*
Y264887D01*
X494213Y192675D02*
X495787D01*
X494213Y189525D02*
X495787D01*
X494213Y183875D02*
X495787D01*
X494213Y180725D02*
X495787D01*
X446113Y189525D02*
X447687D01*
X446113Y192675D02*
X447687D01*
X446113Y181225D02*
X447687D01*
X446113Y184375D02*
X447687D01*
X164225Y209513D02*
Y211087D01*
X167375Y209513D02*
Y211087D01*
X167375Y222913D02*
Y224487D01*
X164225Y222913D02*
Y224487D01*
X164325Y245813D02*
Y247387D01*
X167475Y245813D02*
Y247387D01*
X295925Y250713D02*
Y252287D01*
X299075Y250713D02*
Y252287D01*
X287425Y250713D02*
Y252287D01*
X290575Y250713D02*
Y252287D01*
X459313Y283325D02*
X460887D01*
X459313Y286475D02*
X460887D01*
X411113Y324075D02*
X412687D01*
X411113Y320925D02*
X412687D01*
X553425Y237213D02*
Y238787D01*
X556575Y237213D02*
Y238787D01*
X415813Y192675D02*
X417387D01*
X415813Y189525D02*
X417387D01*
X415713Y184475D02*
X417287D01*
X415713Y181325D02*
X417287D01*
X365213Y189425D02*
X366787D01*
X365213Y192575D02*
X366787D01*
X365213Y181425D02*
X366787D01*
X365213Y184575D02*
X366787D01*
X447713Y397525D02*
X449287D01*
X447713Y400675D02*
X449287D01*
X555925Y356213D02*
Y357787D01*
X559075Y356213D02*
Y357787D01*
X256213Y491575D02*
X257787D01*
X256213Y488425D02*
X257787D01*
X546925Y356213D02*
Y357787D01*
X550075Y356213D02*
Y357787D01*
X235213Y491575D02*
X236787D01*
X235213Y488425D02*
X236787D01*
X698925Y443713D02*
Y445287D01*
X702075Y443713D02*
Y445287D01*
X126925Y128713D02*
Y130287D01*
X130075Y128713D02*
Y130287D01*
X146425Y128713D02*
Y130287D01*
X149575Y128713D02*
Y130287D01*
X139575Y172213D02*
Y173787D01*
X136425Y172213D02*
Y173787D01*
X411113Y291775D02*
X412687D01*
X411113Y288625D02*
X412687D01*
X393313Y288625D02*
X394887D01*
X393313Y291775D02*
X394887D01*
X477113Y301375D02*
X478687D01*
X477113Y298225D02*
X478687D01*
X477113Y286375D02*
X478687D01*
X477113Y283225D02*
X478687D01*
X393313Y320325D02*
X394887D01*
X393313Y323475D02*
X394887D01*
X459413Y327625D02*
X460987D01*
X459413Y330775D02*
X460987D01*
X477113Y330775D02*
X478687D01*
X477113Y327625D02*
X478687D01*
X719425Y258713D02*
Y260287D01*
X722575Y258713D02*
Y260287D01*
X674075Y249713D02*
Y251287D01*
X670925Y249713D02*
Y251287D01*
X723575Y193213D02*
Y194787D01*
X720425Y193213D02*
Y194787D01*
X637575Y199213D02*
Y200787D01*
X634425Y199213D02*
Y200787D01*
X256713Y458575D02*
X258287D01*
X256713Y455425D02*
X258287D01*
X235213Y458575D02*
X236787D01*
X235213Y455425D02*
X236787D01*
X255713Y421575D02*
X257287D01*
X255713Y418425D02*
X257287D01*
X235213Y421575D02*
X236787D01*
X235213Y418425D02*
X236787D01*
M02*
